<svg class="main-svg" xmlns="http://www.w3.org/2000/svg" xmlns:xlink="http://www.w3.org/1999/xlink" width="1100" height="900" style="" viewBox="0 0 1100 900"><rect x="0" y="0" width="1100" height="900" style="fill: rgb(255, 255, 255); fill-opacity: 1;"/><defs id="defs-6cad42"><g class="clips"><clipPath id="clip6cad42xyplot" class="plotclip"><rect width="873" height="136.79999999999995"/></clipPath><clipPath id="clip6cad42x2y2plot" class="plotclip"><rect width="873" height="136.79999999999995"/></clipPath><clipPath id="clip6cad42x3y3plot" class="plotclip"><rect width="873" height="136.8"/></clipPath><clipPath id="clip6cad42x4y4plot" class="plotclip"><rect width="873" height="136.8"/></clipPath><clipPath class="axesclip" id="clip6cad42x"><rect x="80" y="0" width="873" height="900"/></clipPath><clipPath class="axesclip" id="clip6cad42y"><rect x="0" y="100" width="1100" height="136.79999999999995"/></clipPath><clipPath class="axesclip" id="clip6cad42xy"><rect x="80" y="100" width="873" height="136.79999999999995"/></clipPath><clipPath class="axesclip" id="clip6cad42y2"><rect x="0" y="294.4" width="1100" height="136.79999999999995"/></clipPath><clipPath class="axesclip" id="clip6cad42xy2"><rect x="80" y="294.4" width="873" height="136.79999999999995"/></clipPath><clipPath class="axesclip" id="clip6cad42y3"><rect x="0" y="488.8" width="1100" height="136.8"/></clipPath><clipPath class="axesclip" id="clip6cad42xy3"><rect x="80" y="488.8" width="873" height="136.8"/></clipPath><clipPath class="axesclip" id="clip6cad42y4"><rect x="0" y="683.2" width="1100" height="136.8"/></clipPath><clipPath class="axesclip" id="clip6cad42xy4"><rect x="80" y="683.2" width="873" height="136.8"/></clipPath><clipPath class="axesclip" id="clip6cad42x2"><rect x="80" y="0" width="873" height="900"/></clipPath><clipPath class="axesclip" id="clip6cad42x2y"><rect x="80" y="100" width="873" height="136.79999999999995"/></clipPath><clipPath class="axesclip" id="clip6cad42x2y2"><rect x="80" y="294.4" width="873" height="136.79999999999995"/></clipPath><clipPath class="axesclip" id="clip6cad42x2y3"><rect x="80" y="488.8" width="873" height="136.8"/></clipPath><clipPath class="axesclip" id="clip6cad42x2y4"><rect x="80" y="683.2" width="873" height="136.8"/></clipPath><clipPath class="axesclip" id="clip6cad42x3"><rect x="80" y="0" width="873" height="900"/></clipPath><clipPath class="axesclip" id="clip6cad42x3y"><rect x="80" y="100" width="873" height="136.79999999999995"/></clipPath><clipPath class="axesclip" id="clip6cad42x3y2"><rect x="80" y="294.4" width="873" height="136.79999999999995"/></clipPath><clipPath class="axesclip" id="clip6cad42x3y3"><rect x="80" y="488.8" width="873" height="136.8"/></clipPath><clipPath class="axesclip" id="clip6cad42x3y4"><rect x="80" y="683.2" width="873" height="136.8"/></clipPath><clipPath class="axesclip" id="clip6cad42x4"><rect x="80" y="0" width="873" height="900"/></clipPath><clipPath class="axesclip" id="clip6cad42x4y"><rect x="80" y="100" width="873" height="136.79999999999995"/></clipPath><clipPath class="axesclip" id="clip6cad42x4y2"><rect x="80" y="294.4" width="873" height="136.79999999999995"/></clipPath><clipPath class="axesclip" id="clip6cad42x4y3"><rect x="80" y="488.8" width="873" height="136.8"/></clipPath><clipPath class="axesclip" id="clip6cad42x4y4"><rect x="80" y="683.2" width="873" height="136.8"/></clipPath></g><g class="gradients"/><g class="patterns"/></defs><g class="bglayer"><rect class="bg" x="80" y="100" width="873" height="136.79999999999995" style="fill: rgb(229, 236, 246); fill-opacity: 1; stroke-width: 0;"/><rect class="bg" x="80" y="294.4" width="873" height="136.79999999999995" style="fill: rgb(229, 236, 246); fill-opacity: 1; stroke-width: 0;"/><rect class="bg" x="80" y="488.8" width="873" height="136.8" style="fill: rgb(229, 236, 246); fill-opacity: 1; stroke-width: 0;"/><rect class="bg" x="80" y="683.2" width="873" height="136.8" style="fill: rgb(229, 236, 246); fill-opacity: 1; stroke-width: 0;"/></g><g class="layer-below"><g class="imagelayer"/><g class="shapelayer"/></g><g class="cartesianlayer"><g class="subplot xy"><g class="layer-subplot"><g class="shapelayer"/><g class="imagelayer"/></g><g class="minor-gridlayer"><g class="x"/><g class="y"/></g><g class="gridlayer"><g class="x"><path class="xgrid crisp" transform="translate(167.51999999999998,0)" d="M0,100v136.79999999999995" style="stroke: rgb(255, 255, 255); stroke-opacity: 1; stroke-width: 1px;"/><path class="xgrid crisp" transform="translate(255.04,0)" d="M0,100v136.79999999999995" style="stroke: rgb(255, 255, 255); stroke-opacity: 1; stroke-width: 1px;"/><path class="xgrid crisp" transform="translate(342.56,0)" d="M0,100v136.79999999999995" style="stroke: rgb(255, 255, 255); stroke-opacity: 1; stroke-width: 1px;"/><path class="xgrid crisp" transform="translate(430.08,0)" d="M0,100v136.79999999999995" style="stroke: rgb(255, 255, 255); stroke-opacity: 1; stroke-width: 1px;"/><path class="xgrid crisp" transform="translate(517.5899999999999,0)" d="M0,100v136.79999999999995" style="stroke: rgb(255, 255, 255); stroke-opacity: 1; stroke-width: 1px;"/><path class="xgrid crisp" transform="translate(605.11,0)" d="M0,100v136.79999999999995" style="stroke: rgb(255, 255, 255); stroke-opacity: 1; stroke-width: 1px;"/><path class="xgrid crisp" transform="translate(692.63,0)" d="M0,100v136.79999999999995" style="stroke: rgb(255, 255, 255); stroke-opacity: 1; stroke-width: 1px;"/><path class="xgrid crisp" transform="translate(780.15,0)" d="M0,100v136.79999999999995" style="stroke: rgb(255, 255, 255); stroke-opacity: 1; stroke-width: 1px;"/><path class="xgrid crisp" transform="translate(867.67,0)" d="M0,100v136.79999999999995" style="stroke: rgb(255, 255, 255); stroke-opacity: 1; stroke-width: 1px;"/></g><g class="y"><path class="ygrid crisp" transform="translate(0,207.79000000000002)" d="M80,0h873" style="stroke: rgb(255, 255, 255); stroke-opacity: 1; stroke-width: 1px;"/><path class="ygrid crisp" transform="translate(0,178.57999999999998)" d="M80,0h873" style="stroke: rgb(255, 255, 255); stroke-opacity: 1; stroke-width: 1px;"/><path class="ygrid crisp" transform="translate(0,149.38)" d="M80,0h873" style="stroke: rgb(255, 255, 255); stroke-opacity: 1; stroke-width: 1px;"/><path class="ygrid crisp" transform="translate(0,120.17)" d="M80,0h873" style="stroke: rgb(255, 255, 255); stroke-opacity: 1; stroke-width: 1px;"/></g></g><g class="zerolinelayer"><path class="xzl zl crisp" transform="translate(80,0)" d="M0,100v136.79999999999995" style="stroke: rgb(255, 255, 255); stroke-opacity: 1; stroke-width: 2px;"/></g><g class="layer-between"><g class="shapelayer"/><g class="imagelayer"/></g><path class="xlines-below"/><path class="ylines-below"/><g class="overlines-below"/><g class="xaxislayer-below"/><g class="yaxislayer-below"/><g class="overaxes-below"/><g class="overplot"><g class="xy" transform="translate(80,100)" clip-path="url(#clip6cad42xyplot)"><g class="scatterlayer mlayer"><g class="trace scatter tracedab3b7" style="stroke-miterlimit: 2; opacity: 1;"><g class="fills"/><g class="errorbars"/><g class="lines"><path class="js-line" d="M0,125.52L17.5,129.5L19.69,129.8L26.26,129.91L28.44,129.64L61.26,123.64L63.45,123.1L94.08,113.98L96.27,113.21L120.34,103.16L122.53,102.13L155.35,86.34L157.53,85.39L166.29,81.31L168.47,80.44L203.48,66.09L205.67,65.55L236.3,54.81L238.49,53.91L312.88,25.86L315.07,25.17L336.95,18.65L339.14,18.02L356.64,13.74L358.83,13.29L369.77,11.06L371.95,10.7L385.08,8.86L387.27,8.61L398.21,7.9L400.4,7.98L433.22,9.53L435.41,9.76L470.41,13.12L472.6,13.38L483.54,14.53L485.73,14.65L505.42,15.16L507.61,15.22L518.55,16.43L520.74,16.86L553.56,24.09L555.74,24.82L577.62,32.99L579.81,34.03L595.13,41.85L597.32,43.19L610.44,51.21L612.63,52.62L671.71,93.58L673.89,94.82L684.83,101.07L687.02,102.2L697.96,107.39L700.15,108.29L715.47,113.71L717.65,114.3L726.41,116.51L728.59,116.98L748.29,119.95L750.47,119.88L761.41,119.06L763.6,118.81L781.11,116.28L783.29,115.86L805.17,110.42L807.36,109.77L824.86,104.07L827.05,103.21L866.44,85.31L868.62,84.19L873,82.26" style="vector-effect: none; fill: none; stroke: rgb(0, 0, 255); stroke-opacity: 1; stroke-width: 1.5px; opacity: 1;"/></g><g class="points"/><g class="text"/></g><g class="trace scatter tracec96bb7" style="stroke-miterlimit: 2; opacity: 1;"><g class="fills"/><g class="errorbars"/><g class="lines"><path class="js-line" d="M0,124.51L13.13,122.69L15.32,122.57L30.63,120.6L32.82,120.38L43.76,117.97L45.95,117.4L63.45,113.05L65.64,112.3L100.65,99.49L102.83,98.63L137.84,85.3L140.03,84.48L181.6,67.93L183.79,67.25L201.29,59.76L203.48,58.89L258.18,37.32L260.37,36.68L293.19,25.95L295.38,25.4L306.32,22.13L308.5,21.57L317.26,20L319.44,19.41L341.32,14.62L343.51,14.14L365.39,10.4L367.58,10.08L402.59,7.65L404.77,7.7L417.9,7.22L420.09,7.04L428.84,7.06L431.03,7.31L446.35,10.3L448.53,10.66L455.1,11.59L457.29,11.66L483.54,12.12L485.73,11.88L509.8,8.81L511.98,9.08L522.92,11.64L525.11,12.16L566.68,23.72L568.87,24.46L588.56,31.38L590.75,32.23L623.57,45.2L625.76,46.15L641.08,53.13L643.26,54.24L667.33,67.74L669.52,69.03L682.65,77.38L684.83,78.76L697.96,86.42L700.15,87.7L722.03,98.26L724.22,98.91L732.97,101.29L735.16,101.71L752.66,102.32L754.85,102.12L772.35,99.96L774.54,99.56L785.48,97.57L787.67,97.01L796.42,95.19L798.61,94.64L813.92,90.76L816.11,90.4L837.99,84.78L840.18,84.39L855.5,80.08L857.68,79.27L870.81,75.42L873,74.78" style="vector-effect: none; fill: none; stroke: rgb(255, 0, 0); stroke-opacity: 1; stroke-dasharray: 9px, 9px; stroke-width: 1.5px; opacity: 1;"/></g><g class="points"/><g class="text"/></g></g></g></g><g class="zerolinelayer-above"/><path class="xlines-above crisp" d="M0,0" style="fill: none;"/><path class="ylines-above crisp" d="M0,0" style="fill: none;"/><g class="overlines-above"/><g class="xaxislayer-above"/><g class="yaxislayer-above"><g class="ytick"><text text-anchor="end" x="79" y="4.199999999999999" transform="translate(0,207.79000000000002)" style="font-family: 'Open Sans', verdana, arial, sans-serif; font-size: 12px; fill: rgb(42, 63, 95); fill-opacity: 1; white-space: pre;">15</text></g><g class="ytick"><text text-anchor="end" x="79" y="4.199999999999999" style="font-family: 'Open Sans', verdana, arial, sans-serif; font-size: 12px; fill: rgb(42, 63, 95); fill-opacity: 1; white-space: pre;" transform="translate(0,178.57999999999998)">20</text></g><g class="ytick"><text text-anchor="end" x="79" y="4.199999999999999" style="font-family: 'Open Sans', verdana, arial, sans-serif; font-size: 12px; fill: rgb(42, 63, 95); fill-opacity: 1; white-space: pre;" transform="translate(0,149.38)">25</text></g><g class="ytick"><text text-anchor="end" x="79" y="4.199999999999999" style="font-family: 'Open Sans', verdana, arial, sans-serif; font-size: 12px; fill: rgb(42, 63, 95); fill-opacity: 1; white-space: pre;" transform="translate(0,120.17)">30</text></g></g><g class="overaxes-above"/></g><g class="subplot x2y2"><g class="layer-subplot"><g class="shapelayer"/><g class="imagelayer"/></g><g class="minor-gridlayer"><g class="x2"/><g class="y2"/></g><g class="gridlayer"><g class="x2"><path class="x2grid crisp" transform="translate(167.51999999999998,0)" d="M0,294.4v136.79999999999995" style="stroke: rgb(255, 255, 255); stroke-opacity: 1; stroke-width: 1px;"/><path class="x2grid crisp" transform="translate(255.04,0)" d="M0,294.4v136.79999999999995" style="stroke: rgb(255, 255, 255); stroke-opacity: 1; stroke-width: 1px;"/><path class="x2grid crisp" transform="translate(342.56,0)" d="M0,294.4v136.79999999999995" style="stroke: rgb(255, 255, 255); stroke-opacity: 1; stroke-width: 1px;"/><path class="x2grid crisp" transform="translate(430.08,0)" d="M0,294.4v136.79999999999995" style="stroke: rgb(255, 255, 255); stroke-opacity: 1; stroke-width: 1px;"/><path class="x2grid crisp" transform="translate(517.5899999999999,0)" d="M0,294.4v136.79999999999995" style="stroke: rgb(255, 255, 255); stroke-opacity: 1; stroke-width: 1px;"/><path class="x2grid crisp" transform="translate(605.11,0)" d="M0,294.4v136.79999999999995" style="stroke: rgb(255, 255, 255); stroke-opacity: 1; stroke-width: 1px;"/><path class="x2grid crisp" transform="translate(692.63,0)" d="M0,294.4v136.79999999999995" style="stroke: rgb(255, 255, 255); stroke-opacity: 1; stroke-width: 1px;"/><path class="x2grid crisp" transform="translate(780.15,0)" d="M0,294.4v136.79999999999995" style="stroke: rgb(255, 255, 255); stroke-opacity: 1; stroke-width: 1px;"/><path class="x2grid crisp" transform="translate(867.67,0)" d="M0,294.4v136.79999999999995" style="stroke: rgb(255, 255, 255); stroke-opacity: 1; stroke-width: 1px;"/></g><g class="y2"><path class="y2grid crisp" transform="translate(0,356.63)" d="M80,0h873" style="stroke: rgb(255, 255, 255); stroke-opacity: 1; stroke-width: 1px;"/><path class="y2grid crisp" transform="translate(0,314.39)" d="M80,0h873" style="stroke: rgb(255, 255, 255); stroke-opacity: 1; stroke-width: 1px;"/></g></g><g class="zerolinelayer"><path class="x2zl zl crisp" transform="translate(80,0)" d="M0,294.4v136.79999999999995" style="stroke: rgb(255, 255, 255); stroke-opacity: 1; stroke-width: 2px;"/><path class="y2zl zl crisp" transform="translate(0,398.87)" d="M80,0h873" style="stroke: rgb(255, 255, 255); stroke-opacity: 1; stroke-width: 2px;"/></g><g class="layer-between"><g class="shapelayer"/><g class="imagelayer"/></g><path class="xlines-below"/><path class="ylines-below"/><g class="overlines-below"/><g class="xaxislayer-below"/><g class="yaxislayer-below"/><g class="overaxes-below"/><g class="overplot"><g class="x2y2" transform="translate(80,294.4)" clip-path="url(#clip6cad42x2y2plot)"><g class="scatterlayer mlayer"><g class="trace scatter trace4b5c06" style="stroke-miterlimit: 2; opacity: 1;"><g class="fills"/><g class="errorbars"/><g class="lines"><path class="js-line" d="M0,96.96L2.19,94.45L4.38,93.55L6.56,92.57L8.75,93.37L10.94,93.56L13.13,94.68L15.32,90.38L17.5,89.18L19.69,86.83L21.88,87.79L24.07,89.56L26.26,88.52L28.44,88.89L30.63,90.33L35.01,91.5L37.2,90.67L39.38,91.99L41.57,90.9L43.76,91.89L45.95,90.49L48.14,91.8L50.32,90.78L52.51,90.69L54.7,91.98L56.89,92.88L59.08,92.15L61.26,93.84L63.45,94.01L65.64,92.64L67.83,93.3L70.02,94.63L72.2,94.74L74.39,96.7L76.58,96.6L78.77,98.01L80.95,97.73L83.14,100.43L85.33,99.95L87.52,101.69L89.71,101.4L94.08,102.99L96.27,102.65L98.46,104.04L100.65,103.71L107.21,104.68L109.4,106.06L115.96,106.47L118.15,107.25L120.34,107.15L122.53,108.79L129.09,109.83L131.28,110.58L135.65,109.29L137.84,110.75L140.03,110.05L142.22,110.44L155.35,109.1L157.53,109.55L159.72,109.16L161.91,109.58L164.1,108.4L166.29,109.5L168.47,108.98L170.66,109.46L177.23,109.03L179.41,107.98L183.79,106.73L185.98,106.67L188.17,105.55L190.35,105.52L192.54,104.74L194.73,104.78L196.92,103.49L199.11,103.43L203.48,102.92L205.67,103.89L207.86,102.55L210.05,102.89L214.42,102.46L216.61,103.29L223.17,101.3L225.36,101.59L229.74,99.31L231.92,99.33L234.11,98.91L236.3,97.65L238.49,97.3L240.68,98.66L242.86,98.14L245.05,99.13L251.62,99.84L253.8,100.39L255.99,99.59L258.18,99.89L262.56,100.19L264.74,99.51L269.12,99.24L271.31,98.86L275.68,97.21L277.87,97.64L280.06,96.37L282.25,96.29L291,99.65L293.19,99.78L295.38,101.4L297.56,100.88L301.94,100.51L304.13,100.48L306.32,99.39L308.5,99.16L310.69,97.91L312.88,97.59L315.07,96.5L317.26,96.83L319.44,96.62L321.63,97.64L323.82,97.16L326.01,98.37L328.2,98.57L330.38,99.58L336.95,98.56L339.14,97.6L343.51,97.23L345.7,95.94L350.08,94.3L352.26,92.86L354.45,92.53L356.64,90.37L358.83,90.88L361.02,89.49L367.58,86.39L369.77,86.4L378.52,85.17L380.71,83.98L385.08,81.9L387.27,80.58L391.65,77.51L393.83,74.16L398.21,66.97L400.4,63.9L406.96,57.87L409.15,57.46L417.9,58.07L420.09,58.73L422.28,57.6L424.47,55.27L426.65,51.33L428.84,49.66L437.59,44.43L439.78,44.56L446.35,47.47L448.53,47L452.91,49.64L455.1,46.9L457.29,45.46L459.47,42.82L463.85,37.33L466.04,32.37L470.41,25.65L472.6,20.3L476.98,10.06L479.17,8.01L481.35,6.84L483.54,6.94L485.73,7.32L487.92,9.1L490.11,11.48L492.29,17.67L496.67,36.22L498.86,45.26L503.23,65.84L505.42,74.1L507.61,78.38L509.8,80.88L511.98,79.13L514.17,75L516.36,71.52L518.55,66.03L522.92,56.97L525.11,55.42L527.3,56.13L529.49,58.8L536.05,73.37L538.24,79.37L540.43,86.93L542.62,91.31L546.99,93.65L549.18,91.65L557.93,76.14L560.12,75.47L562.31,77.66L564.5,81.67L573.25,95.75L575.44,96.42L577.62,96.56L579.81,95.8L584.19,94.8L586.38,93.99L590.75,92.51L592.94,92.23L595.13,92.11L597.32,92.81L599.5,92.28L601.69,93.03L606.07,94.02L608.26,94.84L610.44,94.14L612.63,94.5L614.82,93.96L617.01,91.38L623.57,86.82L625.76,85.45L627.95,83.57L630.14,82.88L632.32,82.68L634.51,83.53L638.89,86.37L641.08,86.8L645.45,88.24L647.64,87.91L649.83,87.94L652.02,85.98L654.2,84.94L656.39,84.79L662.95,85.47L665.14,87.45L667.33,91.43L669.52,93.05L673.89,96.73L676.08,96.9L682.65,97.88L684.83,98.16L689.21,98.17L691.4,97.17L693.59,96.61L695.77,97.84L697.96,98.81L700.15,100.79L704.53,101.35L706.71,102.42L711.09,107.09L713.28,108.06L722.03,108.68L724.22,110.54L728.59,109.17L730.78,107.7L732.97,108.09L735.16,106.32L737.35,107.62L739.53,107.81L741.72,108.53L743.91,108.1L748.29,105.57L750.47,105.86L754.85,108.68L757.04,110.72L763.6,114.51L765.79,114.17L772.35,113.69L774.54,114.12L787.67,108.74L789.86,108.5L792.05,108.63L794.23,106.97L796.42,107.89L798.61,107.6L800.8,108.16L802.98,107.37L807.36,106.73L809.55,106.47L811.74,106.12L813.92,104.92L816.11,105.11L818.3,104.34L822.68,102.9L824.86,103.34L827.05,102.81L829.24,101.5L833.62,101.58L835.8,101.8L837.99,99.95L840.18,99.66L842.37,98.94L844.56,99.14L846.74,99.56L848.93,98.43L853.31,98.63L855.5,98.33L862.06,97.82L864.25,98L868.62,96.96L870.81,97.42L873,98.93" style="vector-effect: none; fill: none; stroke: rgb(0, 0, 255); stroke-opacity: 1; stroke-width: 1.5px; opacity: 1;"/></g><g class="points"/><g class="text"/></g><g class="trace scatter trace69b104" style="stroke-miterlimit: 2; opacity: 1;"><g class="fills"/><g class="errorbars"/><g class="lines"><path class="js-line" d="M0,96.33L8.75,101.47L10.94,101.72L39.38,98.65L41.57,98.66L52.51,99.15L54.7,99.69L67.83,103.12L70.02,103.31L78.77,105.07L80.95,105.9L89.71,109.19L91.89,109.35L102.83,111.93L105.02,111.91L120.34,113.88L122.53,114.08L129.09,115.52L131.28,115.29L137.84,114.42L140.03,113.77L148.78,111.69L150.97,111.4L153.16,111.11L155.35,111.66L168.47,113.48L170.66,113.19L175.04,112.63L177.23,112.77L185.98,111.17L188.17,111.39L210.05,108.81L212.23,109.1L216.61,109.12L218.8,109.04L229.74,109.74L231.92,109.57L251.62,109.79L253.8,109.33L271.31,106.62L273.5,105.89L277.87,106.01L280.06,106.24L284.44,106.82L286.62,107.65L299.75,109.91L301.94,109.69L308.5,107.66L310.69,106.94L315.07,105.19L317.26,104.44L323.82,103.51L326.01,104.02L336.95,104.6L339.14,104.44L343.51,104.44L345.7,104.31L361.02,101.82L363.2,100.91L369.77,98.12L371.95,97.49L382.89,94.43L385.08,93.01L389.46,87.97L391.65,85.09L398.21,78.14L400.4,76.83L415.71,67.83L417.9,66.46L424.47,62.1L426.65,59.85L431.03,53.34L433.22,48.77L441.97,28.74L444.16,25.03L450.72,17.54L452.91,15.99L457.29,15.14L459.47,15.2L468.23,14.24L470.41,13.5L472.6,13.21L474.79,13.91L479.17,17.8L481.35,20.91L485.73,29.73L487.92,34.94L496.67,59.83L498.86,66.89L505.42,86.92L507.61,89.84L509.8,90.54L511.98,90.24L520.74,85.79L522.92,85.84L527.3,88.37L529.49,90.32L542.62,102.03L544.8,103.17L564.5,110.57L566.68,111.85L579.81,119.11L582,119.93L590.75,121.93L592.94,122.15L621.38,123.63L623.57,123.19L627.95,123.01L630.14,123.67L634.51,124.75L636.7,125.52L641.08,125.95L643.26,125.66L647.64,125.72L649.83,126.29L660.77,129.85L662.95,129.96L667.33,129.3L669.52,128.55L673.89,127.5L676.08,127.84L680.46,129.21L682.65,129.05L689.21,126.28L691.4,126.29L702.34,124.61L704.53,124.44L717.65,123.59L719.84,122.11L724.22,118.7L726.41,117.04L732.97,110.96L735.16,108.8L743.91,102.61L746.1,101.86L748.29,100.56L750.47,100.3L754.85,101.27L757.04,101.69L785.48,106.18L787.67,106.85L802.98,112L805.17,112.75L809.55,114.17L811.74,115L827.05,120.16L829.24,121.06L835.8,121.1L837.99,120.8L842.37,120.71L844.56,121.1L848.93,121.88L851.12,121.83L859.87,121.64L862.06,121.34L864.25,120.86L866.44,121.54L873,122.34" style="vector-effect: none; fill: none; stroke: rgb(255, 0, 0); stroke-opacity: 1; stroke-dasharray: 9px, 9px; stroke-width: 1.5px; opacity: 1;"/></g><g class="points"/><g class="text"/></g></g></g></g><g class="zerolinelayer-above"/><path class="xlines-above crisp" d="M0,0" style="fill: none;"/><path class="ylines-above crisp" d="M0,0" style="fill: none;"/><g class="overlines-above"/><g class="xaxislayer-above"/><g class="yaxislayer-above"><g class="y2tick"><text text-anchor="end" x="79" y="4.199999999999999" transform="translate(0,398.87)" style="font-family: 'Open Sans', verdana, arial, sans-serif; font-size: 12px; fill: rgb(42, 63, 95); fill-opacity: 1; white-space: pre;">0</text></g><g class="y2tick"><text text-anchor="end" x="79" y="4.199999999999999" style="font-family: 'Open Sans', verdana, arial, sans-serif; font-size: 12px; fill: rgb(42, 63, 95); fill-opacity: 1; white-space: pre;" transform="translate(0,356.63)">1</text></g><g class="y2tick"><text text-anchor="end" x="79" y="4.199999999999999" style="font-family: 'Open Sans', verdana, arial, sans-serif; font-size: 12px; fill: rgb(42, 63, 95); fill-opacity: 1; white-space: pre;" transform="translate(0,314.39)">2</text></g></g><g class="overaxes-above"/></g><g class="subplot x3y3"><g class="layer-subplot"><g class="shapelayer"/><g class="imagelayer"/></g><g class="minor-gridlayer"><g class="x3"/><g class="y3"/></g><g class="gridlayer"><g class="x3"><path class="x3grid crisp" transform="translate(167.51999999999998,0)" d="M0,488.8v136.8" style="stroke: rgb(255, 255, 255); stroke-opacity: 1; stroke-width: 1px;"/><path class="x3grid crisp" transform="translate(255.04,0)" d="M0,488.8v136.8" style="stroke: rgb(255, 255, 255); stroke-opacity: 1; stroke-width: 1px;"/><path class="x3grid crisp" transform="translate(342.56,0)" d="M0,488.8v136.8" style="stroke: rgb(255, 255, 255); stroke-opacity: 1; stroke-width: 1px;"/><path class="x3grid crisp" transform="translate(430.08,0)" d="M0,488.8v136.8" style="stroke: rgb(255, 255, 255); stroke-opacity: 1; stroke-width: 1px;"/><path class="x3grid crisp" transform="translate(517.5899999999999,0)" d="M0,488.8v136.8" style="stroke: rgb(255, 255, 255); stroke-opacity: 1; stroke-width: 1px;"/><path class="x3grid crisp" transform="translate(605.11,0)" d="M0,488.8v136.8" style="stroke: rgb(255, 255, 255); stroke-opacity: 1; stroke-width: 1px;"/><path class="x3grid crisp" transform="translate(692.63,0)" d="M0,488.8v136.8" style="stroke: rgb(255, 255, 255); stroke-opacity: 1; stroke-width: 1px;"/><path class="x3grid crisp" transform="translate(780.15,0)" d="M0,488.8v136.8" style="stroke: rgb(255, 255, 255); stroke-opacity: 1; stroke-width: 1px;"/><path class="x3grid crisp" transform="translate(867.67,0)" d="M0,488.8v136.8" style="stroke: rgb(255, 255, 255); stroke-opacity: 1; stroke-width: 1px;"/></g><g class="y3"><path class="y3grid crisp" transform="translate(0,594.73)" d="M80,0h873" style="stroke: rgb(255, 255, 255); stroke-opacity: 1; stroke-width: 1px;"/><path class="y3grid crisp" transform="translate(0,528.89)" d="M80,0h873" style="stroke: rgb(255, 255, 255); stroke-opacity: 1; stroke-width: 1px;"/><path class="y3grid crisp" transform="translate(0,495.97)" d="M80,0h873" style="stroke: rgb(255, 255, 255); stroke-opacity: 1; stroke-width: 1px;"/></g></g><g class="zerolinelayer"><path class="x3zl zl crisp" transform="translate(80,0)" d="M0,488.8v136.8" style="stroke: rgb(255, 255, 255); stroke-opacity: 1; stroke-width: 2px;"/><path class="y3zl zl crisp" transform="translate(0,561.8100000000001)" d="M80,0h873" style="stroke: rgb(255, 255, 255); stroke-opacity: 1; stroke-width: 2px;"/></g><g class="layer-between"><g class="shapelayer"/><g class="imagelayer"/></g><path class="xlines-below"/><path class="ylines-below"/><g class="overlines-below"/><g class="xaxislayer-below"/><g class="yaxislayer-below"/><g class="overaxes-below"/><g class="overplot"><g class="x3y3" transform="translate(80,488.8)" clip-path="url(#clip6cad42x3y3plot)"><g class="scatterlayer mlayer"><g class="trace scatter trace6bafa6" style="stroke-miterlimit: 2; opacity: 1;"><g class="fills"/><g class="errorbars"/><g class="lines"><path class="js-line" d="M0,72.02L4.38,69.39L6.56,68.73L10.94,71.69L13.13,71.36L17.5,70.38L19.69,69.39L21.88,70.38L24.07,72.35L28.44,72.35L30.63,72.02L35.01,71.03L37.2,71.03L39.38,71.36L41.57,70.38L45.95,69.72L48.14,69.06L50.32,68.07L52.51,68.4L54.7,68.07L56.89,66.75L61.26,68.07L63.45,68.4L65.64,67.08L67.83,66.75L72.2,67.08L74.39,68.07L80.95,67.41L83.14,67.74L100.65,68.07L102.83,68.73L105.02,68.07L107.21,68.4L109.4,67.41L111.59,67.74L129.09,70.38L131.28,69.72L133.47,70.38L135.65,69.39L137.84,68.4L140.03,68.73L142.22,68.07L144.41,69.06L146.59,70.38L148.78,69.39L153.16,70.7L155.35,72.68L164.1,70.05L166.29,68.73L170.66,70.05L172.85,69.72L175.04,70.05L177.23,68.73L181.6,69.39L183.79,69.72L188.17,70.38L190.35,70.7L194.73,69.06L196.92,70.05L199.11,69.39L201.29,70.38L203.48,71.36L205.67,70.7L216.61,72.02L218.8,71.03L223.17,71.03L225.36,71.03L227.55,71.69L229.74,71.36L234.11,72.68L236.3,72.68L240.68,73.67L242.86,72.02L245.05,73.01L247.24,73.01L251.62,74.33L253.8,74.65L255.99,73.67L258.18,73.67L260.37,74.33L262.56,73.67L264.74,73.34L266.93,74.65L269.12,74L271.31,74.65L273.5,74.98L275.68,72.35L280.06,70.05L282.25,68.4L288.81,65.11L291,64.78L293.19,63.79L295.38,64.12L299.75,63.13L301.94,61.16L306.32,58.19L308.5,57.54L312.88,54.9L315.07,52.6L321.63,41.08L323.82,39.43L328.2,37.46L330.38,36.47L334.76,32.85L336.95,30.21L341.32,27.25L343.51,26.59L352.26,18.03L354.45,13.75L361.02,14.41L363.2,15.4L365.39,12.77L367.58,12.11L371.95,8.49L374.14,9.47L376.33,8.82L378.52,9.8L382.89,6.84L385.08,8.49L387.27,8.82L389.46,11.78L391.65,13.75L393.83,12.77L398.21,14.08L400.4,14.74L402.59,15.07L404.77,14.41L409.15,15.73L411.34,16.39L413.53,17.7L415.71,20.01L417.9,21L420.09,23.96L422.28,24.29L424.47,21.98L426.65,21.65L428.84,22.31L431.03,22.31L433.22,21L437.59,21L439.78,22.97L448.53,29.55L450.72,32.52L457.29,46.34L459.47,49.31L470.41,75.31L472.6,77.95L474.79,78.93L476.98,82.23L483.54,99.67L485.73,102.97L487.92,106.92L490.11,109.22L492.29,113.5L494.48,115.15L498.86,121.07L501.05,122.39L503.23,125.02L505.42,126.34L507.61,128.97L509.8,129.3L511.98,129.96L514.17,128.31L518.55,126.67L520.74,124.36L522.92,123.38L525.11,121.4L527.3,122.39L529.49,120.74L531.68,119.75L533.86,114.82L540.43,101.65L542.62,97.37L546.99,92.76L549.18,92.43L553.56,90.13L555.74,86.51L560.12,77.29L562.31,74.65L564.5,73.34L566.68,71.03L571.06,67.41L573.25,66.75L579.81,58.52L582,55.23L588.56,45.69L590.75,43.05L595.13,41.73L597.32,39.76L599.5,40.42L601.69,39.76L603.88,39.1L606.07,39.43L612.63,43.05L614.82,43.05L617.01,45.69L619.2,47L623.57,50.29L625.76,50.29L632.32,50.29L634.51,51.28L638.89,53.26L641.08,52.93L652.02,60.83L654.2,61.49L656.39,60.83L658.58,61.82L660.77,61.49L662.95,63.46L665.14,62.8L667.33,63.46L676.08,63.13L678.27,62.15L684.83,61.82L687.02,60.5L689.21,59.84L691.4,60.17L693.59,59.51L695.77,60.5L700.15,58.19L702.34,58.19L704.53,59.18L706.71,58.85L708.9,60.5L711.09,58.85L713.28,58.19L715.47,58.85L717.65,60.5L719.84,60.83L724.22,60.17L726.41,60.17L730.78,60.17L732.97,61.82L735.16,61.16L737.35,63.79L743.91,61.49L746.1,63.46L754.85,64.12L757.04,64.12L763.6,64.45L765.79,64.12L767.98,64.12L770.17,65.11L772.35,64.45L774.54,65.11L785.48,66.1L787.67,67.41L794.23,67.74L796.42,68.4L798.61,67.41L800.8,68.07L807.36,69.72L809.55,69.72L822.68,69.39L824.86,70.05L829.24,69.39L831.43,69.39L837.99,69.39L840.18,70.38L848.93,72.68L851.12,72.35L855.5,72.02L857.68,71.36L859.87,71.03L862.06,71.69L864.25,72.35L866.44,71.69L868.62,72.02L870.81,71.36L873,72.35" style="vector-effect: none; fill: none; stroke: rgb(0, 0, 255); stroke-opacity: 1; stroke-width: 1.5px; opacity: 1;"/></g><g class="points"/><g class="text"/></g><g class="trace scatter trace42cb76" style="stroke-miterlimit: 2; opacity: 1;"><g class="fills"/><g class="errorbars"/><g class="lines"><path class="js-line" d="M0,70.38L6.56,70.4L8.75,71.42L19.69,75.32L21.88,76.02L32.82,75.99L35.01,75.76L48.14,75.07L50.32,75.35L56.89,76.36L59.08,76.33L74.39,75.74L76.58,75.95L83.14,76.57L85.33,76.37L98.46,73.65L100.65,73.92L111.59,76.12L113.77,76.17L122.53,76.19L124.71,76.38L133.47,77.58L135.65,77.96L150.97,79L153.16,79.02L172.85,82.88L175.04,83.44L188.17,83.93L190.35,83.33L194.73,82.74L196.92,83.24L205.67,82.71L207.86,82.36L220.98,80.43L223.17,80.49L236.3,79.45L238.49,79.52L242.86,79.07L245.05,79.42L258.18,78.34L260.37,77.88L266.93,77.71L269.12,77.08L273.5,76.41L275.68,75.9L280.06,74.62L282.25,74.55L286.62,74.25L288.81,74.41L293.19,74.79L295.38,75.62L299.75,76.99L301.94,76.63L308.5,75.33L310.69,74.11L317.26,71.31L319.44,70.42L330.38,66.69L332.57,66.48L341.32,65.33L343.51,65.49L354.45,64.8L356.64,64.47L363.2,64.41L365.39,64.11L374.14,63.59L376.33,63.57L382.89,64.82L385.08,65.35L393.83,67.62L396.02,67.63L406.96,66.3L409.15,65.48L413.53,64.33L415.71,62.78L426.65,57.96L428.84,57.12L437.59,52.32L439.78,50.56L446.35,46.15L448.53,45.27L450.72,44.29L452.91,44.14L461.66,46.12L463.85,46.53L470.41,47.66L472.6,48.46L476.98,49.33L479.17,49.29L494.48,47.56L496.67,48.09L501.05,50.33L503.23,52.13L507.61,55.23L509.8,55.74L516.36,55.16L518.55,54.61L522.92,54.58L525.11,54.89L540.43,57.48L542.62,57.33L549.18,56.07L551.37,55.4L560.12,52.82L562.31,52.78L595.13,52.35L597.32,52.71L601.69,52.47L603.88,51.78L608.26,51.46L610.44,52.03L614.82,52.24L617.01,51.54L621.38,49.38L623.57,49.17L634.51,52.21L636.7,52.1L643.26,50.44L645.45,50.37L660.77,51.68L662.95,51.21L669.52,49.6L671.71,50.01L680.46,52.26L682.65,52.27L687.02,52.92L689.21,53.7L695.77,56.17L697.96,56.54L708.9,60.94L711.09,61.67L713.28,62.9L715.47,63.16L724.22,66.7L726.41,67.37L732.97,68.94L735.16,69.54L739.53,70.41L741.72,70.6L748.29,69.76L750.47,69.88L752.66,69.01L754.85,69.19L761.41,68.76L763.6,68.58L765.79,67.66L767.98,67.63L772.35,66.87L774.54,66.2L827.05,55.17L829.24,54.25L844.56,49.24L846.74,48.11L857.68,46.17L859.87,46.18L873,46.18" style="vector-effect: none; fill: none; stroke: rgb(255, 0, 0); stroke-opacity: 1; stroke-dasharray: 9px, 9px; stroke-width: 1.5px; opacity: 1;"/></g><g class="points"/><g class="text"/></g></g></g></g><g class="zerolinelayer-above"/><path class="xlines-above crisp" d="M0,0" style="fill: none;"/><path class="ylines-above crisp" d="M0,0" style="fill: none;"/><g class="overlines-above"/><g class="xaxislayer-above"/><g class="yaxislayer-above"><g class="y3tick"><text text-anchor="end" x="79" y="4.199999999999999" transform="translate(0,594.73)" style="font-family: 'Open Sans', verdana, arial, sans-serif; font-size: 12px; fill: rgb(42, 63, 95); fill-opacity: 1; white-space: pre;">−1</text></g><g class="y3tick"><text text-anchor="end" x="79" y="4.199999999999999" style="font-family: 'Open Sans', verdana, arial, sans-serif; font-size: 12px; fill: rgb(42, 63, 95); fill-opacity: 1; white-space: pre;" transform="translate(0,561.8100000000001)">0</text></g><g class="y3tick"><text text-anchor="end" x="79" y="4.199999999999999" style="font-family: 'Open Sans', verdana, arial, sans-serif; font-size: 12px; fill: rgb(42, 63, 95); fill-opacity: 1; white-space: pre;" transform="translate(0,528.89)">1</text></g><g class="y3tick"><text text-anchor="end" x="79" y="4.199999999999999" style="font-family: 'Open Sans', verdana, arial, sans-serif; font-size: 12px; fill: rgb(42, 63, 95); fill-opacity: 1; white-space: pre;" transform="translate(0,495.97)">2</text></g></g><g class="overaxes-above"/></g><g class="subplot x4y4"><g class="layer-subplot"><g class="shapelayer"/><g class="imagelayer"/></g><g class="minor-gridlayer"><g class="x4"/><g class="y4"/></g><g class="gridlayer"><g class="x4"><path class="x4grid crisp" transform="translate(167.51999999999998,0)" d="M0,683.2v136.8" style="stroke: rgb(255, 255, 255); stroke-opacity: 1; stroke-width: 1px;"/><path class="x4grid crisp" transform="translate(255.04,0)" d="M0,683.2v136.8" style="stroke: rgb(255, 255, 255); stroke-opacity: 1; stroke-width: 1px;"/><path class="x4grid crisp" transform="translate(342.56,0)" d="M0,683.2v136.8" style="stroke: rgb(255, 255, 255); stroke-opacity: 1; stroke-width: 1px;"/><path class="x4grid crisp" transform="translate(430.08,0)" d="M0,683.2v136.8" style="stroke: rgb(255, 255, 255); stroke-opacity: 1; stroke-width: 1px;"/><path class="x4grid crisp" transform="translate(517.5899999999999,0)" d="M0,683.2v136.8" style="stroke: rgb(255, 255, 255); stroke-opacity: 1; stroke-width: 1px;"/><path class="x4grid crisp" transform="translate(605.11,0)" d="M0,683.2v136.8" style="stroke: rgb(255, 255, 255); stroke-opacity: 1; stroke-width: 1px;"/><path class="x4grid crisp" transform="translate(692.63,0)" d="M0,683.2v136.8" style="stroke: rgb(255, 255, 255); stroke-opacity: 1; stroke-width: 1px;"/><path class="x4grid crisp" transform="translate(780.15,0)" d="M0,683.2v136.8" style="stroke: rgb(255, 255, 255); stroke-opacity: 1; stroke-width: 1px;"/><path class="x4grid crisp" transform="translate(867.67,0)" d="M0,683.2v136.8" style="stroke: rgb(255, 255, 255); stroke-opacity: 1; stroke-width: 1px;"/></g><g class="y4"><path class="y4grid crisp" transform="translate(0,787.3800000000001)" d="M80,0h873" style="stroke: rgb(255, 255, 255); stroke-opacity: 1; stroke-width: 1px;"/><path class="y4grid crisp" transform="translate(0,755.9100000000001)" d="M80,0h873" style="stroke: rgb(255, 255, 255); stroke-opacity: 1; stroke-width: 1px;"/><path class="y4grid crisp" transform="translate(0,724.45)" d="M80,0h873" style="stroke: rgb(255, 255, 255); stroke-opacity: 1; stroke-width: 1px;"/><path class="y4grid crisp" transform="translate(0,692.98)" d="M80,0h873" style="stroke: rgb(255, 255, 255); stroke-opacity: 1; stroke-width: 1px;"/></g></g><g class="zerolinelayer"><path class="x4zl zl crisp" transform="translate(80,0)" d="M0,683.2v136.8" style="stroke: rgb(255, 255, 255); stroke-opacity: 1; stroke-width: 2px;"/><path class="y4zl zl crisp" transform="translate(0,818.84)" d="M80,0h873" style="stroke: rgb(255, 255, 255); stroke-opacity: 1; stroke-width: 2px;"/></g><g class="layer-between"><g class="shapelayer"/><g class="imagelayer"/></g><path class="xlines-below"/><path class="ylines-below"/><g class="overlines-below"/><g class="xaxislayer-below"/><g class="yaxislayer-below"/><g class="overaxes-below"/><g class="overplot"><g class="x4y4" transform="translate(80,683.2)" clip-path="url(#clip6cad42x4y4plot)"><g class="scatterlayer mlayer"><g class="trace scatter trace508404" style="stroke-miterlimit: 2; opacity: 1;"><g class="fills"/><g class="errorbars"/><g class="lines"><path class="js-line" d="M0,129.96L8.75,109.08L10.94,106.07L19.69,93.04L21.88,91.82L28.44,88.08L30.63,88.2L32.82,89L35.01,88.93L37.2,88.93L39.38,87.99L48.14,84.14L50.32,83.95L59.08,82.37L61.26,81.52L67.83,78.6L70.02,77.15L76.58,76.07L78.77,76.18L80.95,76.04L83.14,75.07L89.71,73.18L91.89,71.73L96.27,70.11L98.46,70.41L102.83,70.52L105.02,70.36L113.77,70.21L115.96,71.23L126.9,77.3L129.09,78.42L133.47,81.87L135.65,83L140.03,85.61L142.22,86.24L144.41,86.43L146.59,88.23L155.35,90.94L157.53,91.07L159.72,93.35L161.91,93.77L166.29,93.88L168.47,92.44L172.85,95.99L175.04,96.64L181.6,96.06L183.79,96.75L185.98,97.52L188.17,97.22L194.73,97.68L196.92,97.57L199.11,95.85L201.29,95.19L203.48,94.97L205.67,93.39L207.86,92.55L210.05,90.83L214.42,88.96L216.61,88.74L218.8,87.54L220.98,87.47L229.74,84.18L231.92,83.78L234.11,83.75L236.3,84.53L238.49,84.71L240.68,84L242.86,84.76L245.05,84.6L249.43,84.41L251.62,86.35L258.18,87.06L260.37,88.9L266.93,90.6L269.12,92.12L277.87,96.21L280.06,96.06L286.62,96.42L288.81,95.99L293.19,96.45L295.38,97.85L301.94,96.93L304.13,97.94L306.32,98.23L308.5,99.44L312.88,103.61L315.07,103.54L319.44,101.01L321.63,99.66L323.82,99.26L326.01,100.92L332.57,99.93L334.76,98.66L336.95,96.96L339.14,96.74L343.51,95.35L345.7,93.39L347.89,92.49L350.08,90.07L352.26,88.22L354.45,84.97L361.02,85.91L363.2,87.32L365.39,85.17L367.58,84.77L371.95,82.01L374.14,83.03L376.33,82.58L378.52,83.39L382.89,79.59L385.08,80.65L387.27,80.43L389.46,82.63L391.65,84.01L393.83,82.85L396.02,82.99L398.21,83.89L402.59,85.21L404.77,84.59L406.96,84.97L409.15,86.72L413.53,89.93L415.71,93.55L417.9,95.61L420.09,99.03L422.28,99.96L424.47,98.39L426.65,98.42L428.84,99.96L431.03,101.26L433.22,101.55L437.59,104.32L439.78,107.18L441.97,109.15L444.16,109.93L448.53,110.45L450.72,110.27L452.91,109.73L455.1,111.85L461.66,115.37L463.85,114.12L466.04,113L468.23,110.27L470.41,107.29L472.6,106.45L474.79,106.16L476.98,102.82L483.54,83.56L485.73,78.92L490.11,69.91L492.29,65.58L494.48,64.18L496.67,61.74L498.86,60.31L501.05,60.23L503.23,58.97L505.42,58.82L507.61,56.82L509.8,56.73L511.98,56.39L514.17,57.67L518.55,58.25L520.74,59.77L522.92,60L525.11,61.51L527.3,61.25L529.49,63.72L531.68,65.99L533.86,71.42L540.43,86.1L542.62,89.88L546.99,93.15L549.18,92.4L555.74,90.95L557.93,92.16L562.31,94.94L564.5,96.64L568.87,100.15L571.06,100.66L573.25,101.49L575.44,101.37L582,97.95L584.19,96.08L599.5,80.9L601.69,78.42L608.26,72.08L610.44,68.45L623.57,50.89L625.76,47.36L630.14,40.25L632.32,37.67L634.51,35.25L636.7,31.64L643.26,24.94L645.45,22.71L647.64,20.96L649.83,18.16L658.58,8.69L660.77,7.81L662.95,6.84L665.14,7.33L676.08,7.45L678.27,9.14L687.02,14.83L689.21,14.78L693.59,16.61L695.77,18.87L717.65,39.34L719.84,40.15L722.03,42.29L724.22,42.98L730.78,46.53L732.97,46.37L735.16,46.65L737.35,45.43L741.72,42.28L743.91,40.18L748.29,39.93L750.47,40.7L754.85,40.64L757.04,40.59L759.23,40.06L761.41,41L763.6,41.71L765.79,40.02L772.35,39.73L774.54,39.05L778.92,39.15L781.11,39.29L783.29,40.15L785.48,39.59L787.67,39.17L789.86,40.17L794.23,39.72L796.42,40.79L798.61,41.17L800.8,40.48L802.98,41.58L805.17,41.16L807.36,40.8L809.55,42.11L813.92,43.01L816.11,44.66L820.49,45.53L822.68,46.5L824.86,47.39L827.05,49.45L829.24,50.91L831.43,53.31L835.8,56.83L837.99,58.56L846.74,67.31L848.93,68.64L855.5,72.84L857.68,73.66L859.87,75.33L862.06,75.95L873,85.08" style="vector-effect: none; fill: none; stroke: rgb(128, 0, 128); stroke-opacity: 1; stroke-width: 1.5px; opacity: 1;"/></g><g class="points"/><g class="text"/></g></g></g></g><g class="zerolinelayer-above"/><path class="xlines-above crisp" d="M0,0" style="fill: none;"/><path class="ylines-above crisp" d="M0,0" style="fill: none;"/><g class="overlines-above"/><g class="xaxislayer-above"><g class="x4tick"><text text-anchor="middle" x="0" y="833" transform="translate(80,0)" style="font-family: 'Open Sans', verdana, arial, sans-serif; font-size: 12px; fill: rgb(42, 63, 95); fill-opacity: 1; white-space: pre;">0</text></g><g class="x4tick"><text text-anchor="middle" x="0" y="833" style="font-family: 'Open Sans', verdana, arial, sans-serif; font-size: 12px; fill: rgb(42, 63, 95); fill-opacity: 1; white-space: pre;" transform="translate(167.51999999999998,0)">2</text></g><g class="x4tick"><text text-anchor="middle" x="0" y="833" style="font-family: 'Open Sans', verdana, arial, sans-serif; font-size: 12px; fill: rgb(42, 63, 95); fill-opacity: 1; white-space: pre;" transform="translate(255.04,0)">4</text></g><g class="x4tick"><text text-anchor="middle" x="0" y="833" style="font-family: 'Open Sans', verdana, arial, sans-serif; font-size: 12px; fill: rgb(42, 63, 95); fill-opacity: 1; white-space: pre;" transform="translate(342.56,0)">6</text></g><g class="x4tick"><text text-anchor="middle" x="0" y="833" style="font-family: 'Open Sans', verdana, arial, sans-serif; font-size: 12px; fill: rgb(42, 63, 95); fill-opacity: 1; white-space: pre;" transform="translate(430.08,0)">8</text></g><g class="x4tick"><text text-anchor="middle" x="0" y="833" style="font-family: 'Open Sans', verdana, arial, sans-serif; font-size: 12px; fill: rgb(42, 63, 95); fill-opacity: 1; white-space: pre;" transform="translate(517.5899999999999,0)">10</text></g><g class="x4tick"><text text-anchor="middle" x="0" y="833" style="font-family: 'Open Sans', verdana, arial, sans-serif; font-size: 12px; fill: rgb(42, 63, 95); fill-opacity: 1; white-space: pre;" transform="translate(605.11,0)">12</text></g><g class="x4tick"><text text-anchor="middle" x="0" y="833" style="font-family: 'Open Sans', verdana, arial, sans-serif; font-size: 12px; fill: rgb(42, 63, 95); fill-opacity: 1; white-space: pre;" transform="translate(692.63,0)">14</text></g><g class="x4tick"><text text-anchor="middle" x="0" y="833" style="font-family: 'Open Sans', verdana, arial, sans-serif; font-size: 12px; fill: rgb(42, 63, 95); fill-opacity: 1; white-space: pre;" transform="translate(780.15,0)">16</text></g><g class="x4tick"><text text-anchor="middle" x="0" y="833" style="font-family: 'Open Sans', verdana, arial, sans-serif; font-size: 12px; fill: rgb(42, 63, 95); fill-opacity: 1; white-space: pre;" transform="translate(867.67,0)">18</text></g></g><g class="yaxislayer-above"><g class="y4tick"><text text-anchor="end" x="79" y="4.199999999999999" transform="translate(0,818.84)" style="font-family: 'Open Sans', verdana, arial, sans-serif; font-size: 12px; fill: rgb(42, 63, 95); fill-opacity: 1; white-space: pre;">0</text></g><g class="y4tick"><text text-anchor="end" x="79" y="4.199999999999999" style="font-family: 'Open Sans', verdana, arial, sans-serif; font-size: 12px; fill: rgb(42, 63, 95); fill-opacity: 1; white-space: pre;" transform="translate(0,787.3800000000001)">1</text></g><g class="y4tick"><text text-anchor="end" x="79" y="4.199999999999999" style="font-family: 'Open Sans', verdana, arial, sans-serif; font-size: 12px; fill: rgb(42, 63, 95); fill-opacity: 1; white-space: pre;" transform="translate(0,755.9100000000001)">2</text></g><g class="y4tick"><text text-anchor="end" x="79" y="4.199999999999999" style="font-family: 'Open Sans', verdana, arial, sans-serif; font-size: 12px; fill: rgb(42, 63, 95); fill-opacity: 1; white-space: pre;" transform="translate(0,724.45)">3</text></g><g class="y4tick"><text text-anchor="end" x="79" y="4.199999999999999" style="font-family: 'Open Sans', verdana, arial, sans-serif; font-size: 12px; fill: rgb(42, 63, 95); fill-opacity: 1; white-space: pre;" transform="translate(0,692.98)">4</text></g></g><g class="overaxes-above"/></g></g><g class="polarlayer"/><g class="smithlayer"/><g class="ternarylayer"/><g class="geolayer"/><g class="funnelarealayer"/><g class="pielayer"/><g class="iciclelayer"/><g class="treemaplayer"/><g class="sunburstlayer"/><g class="glimages"/><defs id="topdefs-6cad42"><g class="clips"/><clipPath id="legend6cad42"><rect width="118" height="48" x="0" y="0"/></clipPath></defs><g class="layer-above"><g class="imagelayer"/><g class="shapelayer"/></g><g class="infolayer"><g class="legend" pointer-events="all" transform="translate(970.46,100)"><rect class="bg" shape-rendering="crispEdges" style="stroke: rgb(68, 68, 68); stroke-opacity: 1; fill: rgb(255, 255, 255); fill-opacity: 1; stroke-width: 0px;" width="118" height="48" x="0" y="0"/><g class="scrollbox" transform="" clip-path="url(#legend6cad42)"><g class="groups"><g class="traces" transform="translate(0,14.5)" style="opacity: 1;"><text class="legendtext" text-anchor="start" x="40" y="4.680000000000001" style="font-family: 'Open Sans', verdana, arial, sans-serif; font-size: 12px; fill: rgb(42, 63, 95); fill-opacity: 1; white-space: pre;">GT Vx_mps</text><g class="layers" style="opacity: 1;"><g class="legendfill"/><g class="legendlines"><path class="js-line" d="M5,0h30" style="fill: none; stroke: rgb(0, 0, 255); stroke-opacity: 1; stroke-width: 1.5px;"/></g><g class="legendsymbols"><g class="legendpoints"/></g></g><rect class="legendtoggle" x="0" y="-9.5" width="112.03125" height="19" style="fill: rgb(0, 0, 0); fill-opacity: 0;"/></g><g class="traces" transform="translate(0,33.5)" style="opacity: 1;"><text class="legendtext" text-anchor="start" x="40" y="4.680000000000001" style="font-family: 'Open Sans', verdana, arial, sans-serif; font-size: 12px; fill: rgb(42, 63, 95); fill-opacity: 1; white-space: pre;">Pred Vx_mps</text><g class="layers" style="opacity: 1;"><g class="legendfill"/><g class="legendlines"><path class="js-line" d="M5,0h30" style="fill: none; stroke: rgb(255, 0, 0); stroke-opacity: 1; stroke-dasharray: 9px, 9px; stroke-width: 1.5px;"/></g><g class="legendsymbols"><g class="legendpoints"/></g></g><rect class="legendtoggle" x="0" y="-9.5" width="112.03125" height="19" style="fill: rgb(0, 0, 0); fill-opacity: 0;"/></g></g></g><rect class="scrollbar" rx="20" ry="3" width="0" height="0" style="fill: rgb(128, 139, 164); fill-opacity: 1;" x="0" y="0"/></g><g class="g-gtitle"><text class="gtitle" x="55" y="50" text-anchor="start" dy="0em" style="opacity: 1; font-family: 'Open Sans', verdana, arial, sans-serif; font-size: 17px; fill: rgb(42, 63, 95); fill-opacity: 1; white-space: pre;">WAM v2 Dream: Velocity Prediction vs Ground Truth — Lap_1</text></g><g class="g-xtitle"/><g class="g-x2title"/><g class="g-x3title"/><g class="g-x4title"/><g class="g-ytitle"/><g class="g-y2title"/><g class="g-y3title"/><g class="g-y4title"/><g class="annotation" data-index="0" style="opacity: 1;"><g class="annotation-text-g" transform="rotate(0,516.5,89.5)"><g class="cursor-pointer" transform="translate(485,79)"><rect class="bg" x="0.5" y="0.5" width="63" height="20" style="stroke-width: 1px; stroke: rgb(0, 0, 0); stroke-opacity: 0; fill: rgb(0, 0, 0); fill-opacity: 0;"/><text class="annotation-text" text-anchor="middle" x="31.7734375" y="16" style="font-family: 'Open Sans', verdana, arial, sans-serif; font-size: 16px; fill: rgb(42, 63, 95); fill-opacity: 1; white-space: pre;">Vx (m/s)</text></g></g></g><g class="annotation" data-index="1" style="opacity: 1;"><g class="annotation-text-g" transform="rotate(0,516.5,283.9)"><g class="cursor-pointer" transform="translate(485,273)"><rect class="bg" x="0.5" y="0.5" width="62" height="20" style="stroke-width: 1px; stroke: rgb(0, 0, 0); stroke-opacity: 0; fill: rgb(0, 0, 0); fill-opacity: 0;"/><text class="annotation-text" text-anchor="middle" x="31.4765625" y="16" style="font-family: 'Open Sans', verdana, arial, sans-serif; font-size: 16px; fill: rgb(42, 63, 95); fill-opacity: 1; white-space: pre;">Vy (m/s)</text></g></g></g><g class="annotation" data-index="2" style="opacity: 1;"><g class="annotation-text-g" transform="rotate(0,516.5,478.3)"><g class="cursor-pointer" transform="translate(485,468)"><rect class="bg" x="0.5" y="0.5" width="63" height="20" style="stroke-width: 1px; stroke: rgb(0, 0, 0); stroke-opacity: 0; fill: rgb(0, 0, 0); fill-opacity: 0;"/><text class="annotation-text" text-anchor="middle" x="31.7734375" y="16" style="font-family: 'Open Sans', verdana, arial, sans-serif; font-size: 16px; fill: rgb(42, 63, 95); fill-opacity: 1; white-space: pre;">Vz (m/s)</text></g></g></g><g class="annotation" data-index="3" style="opacity: 1;"><g class="annotation-text-g" transform="rotate(0,516.5,672.7)"><g class="cursor-pointer" transform="translate(451,662)"><rect class="bg" x="0.5" y="0.5" width="130" height="20" style="stroke-width: 1px; stroke: rgb(0, 0, 0); stroke-opacity: 0; fill: rgb(0, 0, 0); fill-opacity: 0;"/><text class="annotation-text" text-anchor="middle" x="65.5703125" y="16" style="font-family: 'Open Sans', verdana, arial, sans-serif; font-size: 16px; fill: rgb(42, 63, 95); fill-opacity: 1; white-space: pre;">Speed Error (m/s)</text></g></g></g></g></svg>