<svg class="main-svg" xmlns="http://www.w3.org/2000/svg" xmlns:xlink="http://www.w3.org/1999/xlink" width="1100" height="900" style="" viewBox="0 0 1100 900"><rect x="0" y="0" width="1100" height="900" style="fill: rgb(255, 255, 255); fill-opacity: 1;"/><defs id="defs-1561dd"><g class="clips"><clipPath id="clip1561ddxyplot" class="plotclip"><rect width="873" height="136.79999999999995"/></clipPath><clipPath id="clip1561ddx2y2plot" class="plotclip"><rect width="873" height="136.79999999999995"/></clipPath><clipPath id="clip1561ddx3y3plot" class="plotclip"><rect width="873" height="136.8"/></clipPath><clipPath id="clip1561ddx4y4plot" class="plotclip"><rect width="873" height="136.8"/></clipPath><clipPath class="axesclip" id="clip1561ddx"><rect x="80" y="0" width="873" height="900"/></clipPath><clipPath class="axesclip" id="clip1561ddy"><rect x="0" y="100" width="1100" height="136.79999999999995"/></clipPath><clipPath class="axesclip" id="clip1561ddxy"><rect x="80" y="100" width="873" height="136.79999999999995"/></clipPath><clipPath class="axesclip" id="clip1561ddy2"><rect x="0" y="294.4" width="1100" height="136.79999999999995"/></clipPath><clipPath class="axesclip" id="clip1561ddxy2"><rect x="80" y="294.4" width="873" height="136.79999999999995"/></clipPath><clipPath class="axesclip" id="clip1561ddy3"><rect x="0" y="488.8" width="1100" height="136.8"/></clipPath><clipPath class="axesclip" id="clip1561ddxy3"><rect x="80" y="488.8" width="873" height="136.8"/></clipPath><clipPath class="axesclip" id="clip1561ddy4"><rect x="0" y="683.2" width="1100" height="136.8"/></clipPath><clipPath class="axesclip" id="clip1561ddxy4"><rect x="80" y="683.2" width="873" height="136.8"/></clipPath><clipPath class="axesclip" id="clip1561ddx2"><rect x="80" y="0" width="873" height="900"/></clipPath><clipPath class="axesclip" id="clip1561ddx2y"><rect x="80" y="100" width="873" height="136.79999999999995"/></clipPath><clipPath class="axesclip" id="clip1561ddx2y2"><rect x="80" y="294.4" width="873" height="136.79999999999995"/></clipPath><clipPath class="axesclip" id="clip1561ddx2y3"><rect x="80" y="488.8" width="873" height="136.8"/></clipPath><clipPath class="axesclip" id="clip1561ddx2y4"><rect x="80" y="683.2" width="873" height="136.8"/></clipPath><clipPath class="axesclip" id="clip1561ddx3"><rect x="80" y="0" width="873" height="900"/></clipPath><clipPath class="axesclip" id="clip1561ddx3y"><rect x="80" y="100" width="873" height="136.79999999999995"/></clipPath><clipPath class="axesclip" id="clip1561ddx3y2"><rect x="80" y="294.4" width="873" height="136.79999999999995"/></clipPath><clipPath class="axesclip" id="clip1561ddx3y3"><rect x="80" y="488.8" width="873" height="136.8"/></clipPath><clipPath class="axesclip" id="clip1561ddx3y4"><rect x="80" y="683.2" width="873" height="136.8"/></clipPath><clipPath class="axesclip" id="clip1561ddx4"><rect x="80" y="0" width="873" height="900"/></clipPath><clipPath class="axesclip" id="clip1561ddx4y"><rect x="80" y="100" width="873" height="136.79999999999995"/></clipPath><clipPath class="axesclip" id="clip1561ddx4y2"><rect x="80" y="294.4" width="873" height="136.79999999999995"/></clipPath><clipPath class="axesclip" id="clip1561ddx4y3"><rect x="80" y="488.8" width="873" height="136.8"/></clipPath><clipPath class="axesclip" id="clip1561ddx4y4"><rect x="80" y="683.2" width="873" height="136.8"/></clipPath></g><g class="gradients"/><g class="patterns"/></defs><g class="bglayer"><rect class="bg" x="80" y="100" width="873" height="136.79999999999995" style="fill: rgb(229, 236, 246); fill-opacity: 1; stroke-width: 0;"/><rect class="bg" x="80" y="294.4" width="873" height="136.79999999999995" style="fill: rgb(229, 236, 246); fill-opacity: 1; stroke-width: 0;"/><rect class="bg" x="80" y="488.8" width="873" height="136.8" style="fill: rgb(229, 236, 246); fill-opacity: 1; stroke-width: 0;"/><rect class="bg" x="80" y="683.2" width="873" height="136.8" style="fill: rgb(229, 236, 246); fill-opacity: 1; stroke-width: 0;"/></g><g class="layer-below"><g class="imagelayer"/><g class="shapelayer"/></g><g class="cartesianlayer"><g class="subplot xy"><g class="layer-subplot"><g class="shapelayer"/><g class="imagelayer"/></g><g class="minor-gridlayer"><g class="x"/><g class="y"/></g><g class="gridlayer"><g class="x"><path class="xgrid crisp" transform="translate(167.51999999999998,0)" d="M0,100v136.79999999999995" style="stroke: rgb(255, 255, 255); stroke-opacity: 1; stroke-width: 1px;"/><path class="xgrid crisp" transform="translate(255.04,0)" d="M0,100v136.79999999999995" style="stroke: rgb(255, 255, 255); stroke-opacity: 1; stroke-width: 1px;"/><path class="xgrid crisp" transform="translate(342.56,0)" d="M0,100v136.79999999999995" style="stroke: rgb(255, 255, 255); stroke-opacity: 1; stroke-width: 1px;"/><path class="xgrid crisp" transform="translate(430.08,0)" d="M0,100v136.79999999999995" style="stroke: rgb(255, 255, 255); stroke-opacity: 1; stroke-width: 1px;"/><path class="xgrid crisp" transform="translate(517.5899999999999,0)" d="M0,100v136.79999999999995" style="stroke: rgb(255, 255, 255); stroke-opacity: 1; stroke-width: 1px;"/><path class="xgrid crisp" transform="translate(605.11,0)" d="M0,100v136.79999999999995" style="stroke: rgb(255, 255, 255); stroke-opacity: 1; stroke-width: 1px;"/><path class="xgrid crisp" transform="translate(692.63,0)" d="M0,100v136.79999999999995" style="stroke: rgb(255, 255, 255); stroke-opacity: 1; stroke-width: 1px;"/><path class="xgrid crisp" transform="translate(780.15,0)" d="M0,100v136.79999999999995" style="stroke: rgb(255, 255, 255); stroke-opacity: 1; stroke-width: 1px;"/><path class="xgrid crisp" transform="translate(867.67,0)" d="M0,100v136.79999999999995" style="stroke: rgb(255, 255, 255); stroke-opacity: 1; stroke-width: 1px;"/></g><g class="y"><path class="ygrid crisp" transform="translate(0,207.61)" d="M80,0h873" style="stroke: rgb(255, 255, 255); stroke-opacity: 1; stroke-width: 1px;"/><path class="ygrid crisp" transform="translate(0,178.18)" d="M80,0h873" style="stroke: rgb(255, 255, 255); stroke-opacity: 1; stroke-width: 1px;"/><path class="ygrid crisp" transform="translate(0,148.74)" d="M80,0h873" style="stroke: rgb(255, 255, 255); stroke-opacity: 1; stroke-width: 1px;"/><path class="ygrid crisp" transform="translate(0,119.3)" d="M80,0h873" style="stroke: rgb(255, 255, 255); stroke-opacity: 1; stroke-width: 1px;"/></g></g><g class="zerolinelayer"><path class="xzl zl crisp" transform="translate(80,0)" d="M0,100v136.79999999999995" style="stroke: rgb(255, 255, 255); stroke-opacity: 1; stroke-width: 2px;"/></g><g class="layer-between"><g class="shapelayer"/><g class="imagelayer"/></g><path class="xlines-below"/><path class="ylines-below"/><g class="overlines-below"/><g class="xaxislayer-below"/><g class="yaxislayer-below"/><g class="overaxes-below"/><g class="overplot"><g class="xy" transform="translate(80,100)" clip-path="url(#clip1561ddxyplot)"><g class="scatterlayer mlayer"><g class="trace scatter trace9056e0" style="stroke-miterlimit: 2; opacity: 1;"><g class="fills"/><g class="errorbars"/><g class="lines"><path class="js-line" d="M0,125.48L17.5,129.5L19.69,129.8L26.26,129.91L28.44,129.63L59.08,124.08L61.26,123.59L83.14,117.55L85.33,116.83L98.46,112.23L100.65,111.41L129.09,98.8L131.28,97.76L146.59,90.18L148.78,89.12L166.29,80.93L168.47,80.04L205.67,65.04L207.86,64.3L220.98,60.03L223.17,59.26L288.81,33.68L291,32.89L321.63,22.28L323.82,21.7L341.32,16.5L343.51,15.95L367.58,10.52L369.77,10.12L391.65,7.05L393.83,6.86L409.15,7.45L411.34,7.48L428.84,8.27L431.03,8.43L463.85,11.35L466.04,11.59L487.92,13.87L490.11,14L516.36,15.14L518.55,15.53L551.37,22.58L553.56,23.25L575.44,31.21L577.62,32.22L595.13,41.15L597.32,42.5L610.44,50.59L612.63,52.01L671.71,93.29L673.89,94.55L684.83,100.84L687.02,101.98L697.96,107.21L700.15,108.12L715.47,113.58L717.65,114.17L726.41,116.41L728.59,116.88L748.29,119.87L750.47,119.8L761.41,118.98L763.6,118.72L781.11,116.17L783.29,115.75L802.98,110.83L805.17,110.27L827.05,103L829.24,102.03L846.74,94.09L848.93,93.11L873,81.89" style="vector-effect: none; fill: none; stroke: rgb(0, 0, 255); stroke-opacity: 1; stroke-width: 1.5px; opacity: 1;"/></g><g class="points"/><g class="text"/></g><g class="trace scatter traceae1db6" style="stroke-miterlimit: 2; opacity: 1;"><g class="fills"/><g class="errorbars"/><g class="lines"><path class="js-line" d="M0,124.56L10.94,124.82L13.13,124.9L50.32,120.13L52.51,119.52L63.45,115.47L65.64,114.46L74.39,112.65L76.58,112.18L78.77,111.83L80.95,110.45L89.71,108.03L91.89,107.22L120.34,97.79L122.53,97.32L168.47,83.18L170.66,82.65L185.98,78.31L188.17,77.88L227.55,66.57L229.74,66.1L245.05,62.11L247.24,61.39L269.12,55.47L271.31,55.02L288.81,52.37L291,51.98L328.2,44.85L330.38,44.5L350.08,41.48L352.26,41.34L365.39,39.47L367.58,39.04L435.41,29.71L437.59,29.45L446.35,28.89L448.53,29.05L463.85,31.26L466.04,31.55L472.6,32.52L474.79,32.71L483.54,34.56L485.73,34.84L505.42,37.72L507.61,38.45L511.98,39.49L514.17,39.85L529.49,41.19L531.68,41.12L542.62,42.64L544.8,43.02L597.32,52.71L599.5,53.24L614.82,56.46L617.01,56.89L667.33,67.45L669.52,67.81L719.84,76.29L722.03,76.69L735.16,79.03L737.35,79.87L770.17,87.78L772.35,88.24L807.36,95.34L809.55,95.56L833.62,96.83L835.8,96.88L846.74,96.4L848.93,96.14L873,93.34" style="vector-effect: none; fill: none; stroke: rgb(255, 0, 0); stroke-opacity: 1; stroke-dasharray: 9px, 9px; stroke-width: 1.5px; opacity: 1;"/></g><g class="points"/><g class="text"/></g></g></g></g><g class="zerolinelayer-above"/><path class="xlines-above crisp" d="M0,0" style="fill: none;"/><path class="ylines-above crisp" d="M0,0" style="fill: none;"/><g class="overlines-above"/><g class="xaxislayer-above"/><g class="yaxislayer-above"><g class="ytick"><text text-anchor="end" x="79" y="4.199999999999999" transform="translate(0,207.61)" style="font-family: 'Open Sans', verdana, arial, sans-serif; font-size: 12px; fill: rgb(42, 63, 95); fill-opacity: 1; white-space: pre;">15</text></g><g class="ytick"><text text-anchor="end" x="79" y="4.199999999999999" style="font-family: 'Open Sans', verdana, arial, sans-serif; font-size: 12px; fill: rgb(42, 63, 95); fill-opacity: 1; white-space: pre;" transform="translate(0,178.18)">20</text></g><g class="ytick"><text text-anchor="end" x="79" y="4.199999999999999" style="font-family: 'Open Sans', verdana, arial, sans-serif; font-size: 12px; fill: rgb(42, 63, 95); fill-opacity: 1; white-space: pre;" transform="translate(0,148.74)">25</text></g><g class="ytick"><text text-anchor="end" x="79" y="4.199999999999999" style="font-family: 'Open Sans', verdana, arial, sans-serif; font-size: 12px; fill: rgb(42, 63, 95); fill-opacity: 1; white-space: pre;" transform="translate(0,119.3)">30</text></g></g><g class="overaxes-above"/></g><g class="subplot x2y2"><g class="layer-subplot"><g class="shapelayer"/><g class="imagelayer"/></g><g class="minor-gridlayer"><g class="x2"/><g class="y2"/></g><g class="gridlayer"><g class="x2"><path class="x2grid crisp" transform="translate(167.51999999999998,0)" d="M0,294.4v136.79999999999995" style="stroke: rgb(255, 255, 255); stroke-opacity: 1; stroke-width: 1px;"/><path class="x2grid crisp" transform="translate(255.04,0)" d="M0,294.4v136.79999999999995" style="stroke: rgb(255, 255, 255); stroke-opacity: 1; stroke-width: 1px;"/><path class="x2grid crisp" transform="translate(342.56,0)" d="M0,294.4v136.79999999999995" style="stroke: rgb(255, 255, 255); stroke-opacity: 1; stroke-width: 1px;"/><path class="x2grid crisp" transform="translate(430.08,0)" d="M0,294.4v136.79999999999995" style="stroke: rgb(255, 255, 255); stroke-opacity: 1; stroke-width: 1px;"/><path class="x2grid crisp" transform="translate(517.5899999999999,0)" d="M0,294.4v136.79999999999995" style="stroke: rgb(255, 255, 255); stroke-opacity: 1; stroke-width: 1px;"/><path class="x2grid crisp" transform="translate(605.11,0)" d="M0,294.4v136.79999999999995" style="stroke: rgb(255, 255, 255); stroke-opacity: 1; stroke-width: 1px;"/><path class="x2grid crisp" transform="translate(692.63,0)" d="M0,294.4v136.79999999999995" style="stroke: rgb(255, 255, 255); stroke-opacity: 1; stroke-width: 1px;"/><path class="x2grid crisp" transform="translate(780.15,0)" d="M0,294.4v136.79999999999995" style="stroke: rgb(255, 255, 255); stroke-opacity: 1; stroke-width: 1px;"/><path class="x2grid crisp" transform="translate(867.67,0)" d="M0,294.4v136.79999999999995" style="stroke: rgb(255, 255, 255); stroke-opacity: 1; stroke-width: 1px;"/></g><g class="y2"><path class="y2grid crisp" transform="translate(0,381.51)" d="M80,0h873" style="stroke: rgb(255, 255, 255); stroke-opacity: 1; stroke-width: 1px;"/><path class="y2grid crisp" transform="translate(0,348.66999999999996)" d="M80,0h873" style="stroke: rgb(255, 255, 255); stroke-opacity: 1; stroke-width: 1px;"/><path class="y2grid crisp" transform="translate(0,315.83)" d="M80,0h873" style="stroke: rgb(255, 255, 255); stroke-opacity: 1; stroke-width: 1px;"/></g></g><g class="zerolinelayer"><path class="x2zl zl crisp" transform="translate(80,0)" d="M0,294.4v136.79999999999995" style="stroke: rgb(255, 255, 255); stroke-opacity: 1; stroke-width: 2px;"/><path class="y2zl zl crisp" transform="translate(0,414.34999999999997)" d="M80,0h873" style="stroke: rgb(255, 255, 255); stroke-opacity: 1; stroke-width: 2px;"/></g><g class="layer-between"><g class="shapelayer"/><g class="imagelayer"/></g><path class="xlines-below"/><path class="ylines-below"/><g class="overlines-below"/><g class="xaxislayer-below"/><g class="yaxislayer-below"/><g class="overaxes-below"/><g class="overplot"><g class="x2y2" transform="translate(80,294.4)" clip-path="url(#clip1561ddx2y2plot)"><g class="scatterlayer mlayer"><g class="trace scatter trace645319" style="stroke-miterlimit: 2; opacity: 1;"><g class="fills"/><g class="errorbars"/><g class="lines"><path class="js-line" d="M0,114.12L2.19,112.16L4.38,111.46L6.56,110.7L8.75,111.32L13.13,112.34L15.32,109L17.5,108.07L19.69,106.24L24.07,108.36L26.26,107.55L28.44,107.84L30.63,108.96L35.01,109.87L37.2,109.22L39.38,110.25L41.57,109.4L43.76,110.17L45.95,109.08L48.14,110.1L50.32,109.31L52.51,109.24L54.7,110.25L56.89,110.95L59.08,110.38L61.26,111.69L63.45,111.82L65.64,110.75L67.83,111.27L70.02,112.3L72.2,112.39L74.39,113.91L76.58,113.84L78.77,114.93L80.95,114.72L83.14,116.81L85.33,116.44L87.52,117.79L89.71,117.57L94.08,118.8L96.27,118.54L98.46,119.62L100.65,119.36L111.59,121.16L113.77,121.28L120.34,122.04L122.53,123.31L133.47,124.25L135.65,123.7L137.84,124.84L140.03,124.3L144.41,124.34L146.59,124.28L150.97,124.08L153.16,123.74L159.72,123.6L161.91,123.93L164.1,123.01L166.29,123.86L168.47,123.46L170.66,123.84L177.23,123.5L179.41,122.69L183.79,121.71L185.98,121.67L188.17,120.8L190.35,120.77L196.92,119.2L199.11,119.14L203.48,118.75L205.67,119.51L207.86,118.46L210.05,118.73L218.8,118.57L220.98,117.63L225.36,117.72L227.55,116.72L231.92,115.95L234.11,115.63L238.49,114.38L240.68,115.44L242.86,115.03L245.05,115.81L253.8,116.78L255.99,116.16L262.56,116.63L264.74,116.1L271.31,115.59L273.5,114.69L282.25,113.59L284.44,114.36L293.19,116.31L295.38,117.56L301.94,116.88L304.13,116.85L310.69,114.86L312.88,114.61L315.07,113.76L317.26,114.01L319.44,113.85L321.63,114.64L323.82,114.27L326.01,115.21L332.57,115.98L334.76,115.28L336.95,115.36L339.14,114.61L343.51,114.33L345.7,113.32L350.08,112.04L352.26,110.93L354.45,110.67L356.64,108.99L358.83,109.39L361.02,108.31L369.77,105.91L371.95,105.78L374.14,105.29L376.33,105.6L385.08,102.4L387.27,101.38L391.65,99L393.83,96.39L398.21,90.8L400.4,88.41L406.96,83.72L409.15,83.4L420.09,84.39L422.28,83.51L424.47,81.7L426.65,78.64L435.41,73.86L437.59,73.27L441.97,74.01L444.16,74.88L446.35,75.64L448.53,75.27L452.91,77.33L455.1,75.19L457.29,74.07L459.47,72.02L463.85,67.75L466.04,63.9L470.41,58.67L472.6,54.51L476.98,46.55L479.17,44.96L481.35,44.05L483.54,44.13L485.73,44.42L487.92,45.8L490.11,47.65L492.29,52.47L496.67,66.89L498.86,73.92L503.23,89.92L505.42,96.34L507.61,99.67L509.8,101.61L511.98,100.25L514.17,97.04L516.36,94.33L518.55,90.06L522.92,83.02L525.11,81.82L527.3,82.37L529.49,84.44L536.05,95.77L538.24,100.44L540.43,106.32L542.62,109.72L546.99,111.54L549.18,109.98L557.93,97.92L560.12,97.41L562.31,99.11L564.5,102.23L573.25,113.17L575.44,113.69L579.81,113.21L582,113L592.94,110.44L595.13,110.35L597.32,110.89L599.5,110.48L608.26,112.46L610.44,111.92L614.82,111.78L617.01,109.78L627.95,103.71L630.14,103.17L632.32,103.01L634.51,103.67L638.89,105.88L641.08,106.22L647.64,107.08L649.83,107.1L654.2,104.77L656.39,104.65L662.95,105.18L665.14,106.72L667.33,109.82L669.52,111.08L673.89,113.94L676.08,114.07L687.02,115.31L689.21,115.06L693.59,113.84L695.77,114.8L697.96,115.55L700.15,117.1L706.71,118.36L708.9,120.19L711.09,121.99L713.28,122.74L722.03,123.23L724.22,124.68L728.59,123.61L730.78,122.46L732.97,122.77L735.16,121.39L737.35,122.4L739.53,122.55L741.72,123.11L743.91,122.78L748.29,120.81L750.47,121.03L757.04,124.82L759.23,125.97L763.6,127.76L765.79,127.5L772.35,127.12L774.54,127.46L787.67,123.28L789.86,123.09L792.05,123.19L794.23,121.89L796.42,122.61L798.61,122.39L800.8,122.82L802.98,122.21L807.36,121.71L809.55,121.51L818.3,119.85L820.49,119.22L822.68,118.73L824.86,119.08L831.43,117.93L833.62,117.71L835.8,117.88L837.99,116.44L844.56,115.81L846.74,116.13L848.93,115.26L851.12,115.54L870.81,114.47L873,115.65" style="vector-effect: none; fill: none; stroke: rgb(0, 0, 255); stroke-opacity: 1; stroke-width: 1.5px; opacity: 1;"/></g><g class="points"/><g class="text"/></g><g class="trace scatter traceb4017d" style="stroke-miterlimit: 2; opacity: 1;"><g class="fills"/><g class="errorbars"/><g class="lines"><path class="js-line" d="M0,113.6L8.75,111.57L10.94,111.98L15.32,110.94L17.5,109.1L24.07,106.56L26.26,106.23L35.01,104.93L37.2,105.59L45.95,105.94L48.14,106.24L50.32,106.2L52.51,106.98L54.7,106.45L56.89,107.37L59.08,107.11L61.26,107.71L65.64,108.08L67.83,108.03L72.2,107.9L74.39,107.72L76.58,107.95L78.77,107.2L89.71,107.95L91.89,109.07L94.08,109.02L96.27,110.4L98.46,110.24L100.65,111.14L115.96,114.03L118.15,114.8L133.47,118.04L135.65,117.96L140.03,117.92L142.22,117.86L159.72,116.89L161.91,116.4L166.29,115.63L168.47,115.3L179.41,114.6L181.6,114.03L188.17,113.82L190.35,113.1L205.67,112L207.86,112.24L216.61,111.84L218.8,112.05L223.17,112.39L225.36,111.85L231.92,110.14L234.11,109.86L255.99,106.5L258.18,107.07L262.56,108.46L264.74,108.3L269.12,109.13L271.31,109.27L284.44,111.76L286.62,111.82L295.38,112.69L297.56,112.16L301.94,112.33L304.13,111.46L317.26,109.04L319.44,108.68L328.2,106.91L330.38,107.35L332.57,108.65L334.76,109.07L341.32,109.03L343.51,108.79L350.08,107.96L352.26,107.96L361.02,108.22L363.2,107.74L367.58,106.24L369.77,105.8L371.95,106.08L374.14,104.91L380.71,104.19L382.89,103.91L389.46,100.68L391.65,100.58L398.21,100.43L400.4,99.48L404.77,95.92L406.96,95.25L413.53,95.67L415.71,95.44L420.09,94.27L422.28,93.33L426.65,91.72L428.84,91.22L439.78,86.95L441.97,86.93L448.53,89.08L450.72,89.72L452.91,89.64L455.1,88.34L461.66,80.55L463.85,77.2L468.23,72.54L470.41,70.77L472.6,69.11L474.79,68.49L476.98,69.1L479.17,71.09L483.54,75.58L485.73,76.21L487.92,76.35L490.11,77.26L492.29,79.57L494.48,83.23L498.86,92.19L501.05,97.52L507.61,111.42L509.8,113.9L511.98,114.96L514.17,114.98L518.55,113.75L520.74,112.58L525.11,109.65L527.3,108.95L529.49,108.21L531.68,108.68L538.24,111.77L540.43,112.36L564.5,118.97L566.68,119.4L586.38,123.42L588.56,124.22L597.32,126.14L599.5,126.71L608.26,128.84L610.44,128.9L625.76,129.7L627.95,129.81L643.26,129.73L645.45,129.62L673.89,128.25L676.08,128.16L689.21,126.88L691.4,126.43L697.96,124.27L700.15,123.26L708.9,117.71L711.09,116.01L715.47,111.27L717.65,107.82L722.03,97.58L724.22,90.91L730.78,66.78L732.97,57.65L746.1,6.84L748.29,6.84L840.18,7.56L842.37,8.21L846.74,10.18L848.93,11.87L853.31,17.64L855.5,21.46L866.44,44.56L868.62,49.02L873,58.74" style="vector-effect: none; fill: none; stroke: rgb(255, 0, 0); stroke-opacity: 1; stroke-dasharray: 9px, 9px; stroke-width: 1.5px; opacity: 1;"/></g><g class="points"/><g class="text"/></g></g></g></g><g class="zerolinelayer-above"/><path class="xlines-above crisp" d="M0,0" style="fill: none;"/><path class="ylines-above crisp" d="M0,0" style="fill: none;"/><g class="overlines-above"/><g class="xaxislayer-above"/><g class="yaxislayer-above"><g class="y2tick"><text text-anchor="end" x="79" y="4.199999999999999" transform="translate(0,414.34999999999997)" style="font-family: 'Open Sans', verdana, arial, sans-serif; font-size: 12px; fill: rgb(42, 63, 95); fill-opacity: 1; white-space: pre;">0</text></g><g class="y2tick"><text text-anchor="end" x="79" y="4.199999999999999" style="font-family: 'Open Sans', verdana, arial, sans-serif; font-size: 12px; fill: rgb(42, 63, 95); fill-opacity: 1; white-space: pre;" transform="translate(0,381.51)">1</text></g><g class="y2tick"><text text-anchor="end" x="79" y="4.199999999999999" style="font-family: 'Open Sans', verdana, arial, sans-serif; font-size: 12px; fill: rgb(42, 63, 95); fill-opacity: 1; white-space: pre;" transform="translate(0,348.66999999999996)">2</text></g><g class="y2tick"><text text-anchor="end" x="79" y="4.199999999999999" style="font-family: 'Open Sans', verdana, arial, sans-serif; font-size: 12px; fill: rgb(42, 63, 95); fill-opacity: 1; white-space: pre;" transform="translate(0,315.83)">3</text></g></g><g class="overaxes-above"/></g><g class="subplot x3y3"><g class="layer-subplot"><g class="shapelayer"/><g class="imagelayer"/></g><g class="minor-gridlayer"><g class="x3"/><g class="y3"/></g><g class="gridlayer"><g class="x3"><path class="x3grid crisp" transform="translate(167.51999999999998,0)" d="M0,488.8v136.8" style="stroke: rgb(255, 255, 255); stroke-opacity: 1; stroke-width: 1px;"/><path class="x3grid crisp" transform="translate(255.04,0)" d="M0,488.8v136.8" style="stroke: rgb(255, 255, 255); stroke-opacity: 1; stroke-width: 1px;"/><path class="x3grid crisp" transform="translate(342.56,0)" d="M0,488.8v136.8" style="stroke: rgb(255, 255, 255); stroke-opacity: 1; stroke-width: 1px;"/><path class="x3grid crisp" transform="translate(430.08,0)" d="M0,488.8v136.8" style="stroke: rgb(255, 255, 255); stroke-opacity: 1; stroke-width: 1px;"/><path class="x3grid crisp" transform="translate(517.5899999999999,0)" d="M0,488.8v136.8" style="stroke: rgb(255, 255, 255); stroke-opacity: 1; stroke-width: 1px;"/><path class="x3grid crisp" transform="translate(605.11,0)" d="M0,488.8v136.8" style="stroke: rgb(255, 255, 255); stroke-opacity: 1; stroke-width: 1px;"/><path class="x3grid crisp" transform="translate(692.63,0)" d="M0,488.8v136.8" style="stroke: rgb(255, 255, 255); stroke-opacity: 1; stroke-width: 1px;"/><path class="x3grid crisp" transform="translate(780.15,0)" d="M0,488.8v136.8" style="stroke: rgb(255, 255, 255); stroke-opacity: 1; stroke-width: 1px;"/><path class="x3grid crisp" transform="translate(867.67,0)" d="M0,488.8v136.8" style="stroke: rgb(255, 255, 255); stroke-opacity: 1; stroke-width: 1px;"/></g><g class="y3"><path class="y3grid crisp" transform="translate(0,594.73)" d="M80,0h873" style="stroke: rgb(255, 255, 255); stroke-opacity: 1; stroke-width: 1px;"/><path class="y3grid crisp" transform="translate(0,528.89)" d="M80,0h873" style="stroke: rgb(255, 255, 255); stroke-opacity: 1; stroke-width: 1px;"/><path class="y3grid crisp" transform="translate(0,495.97)" d="M80,0h873" style="stroke: rgb(255, 255, 255); stroke-opacity: 1; stroke-width: 1px;"/></g></g><g class="zerolinelayer"><path class="x3zl zl crisp" transform="translate(80,0)" d="M0,488.8v136.8" style="stroke: rgb(255, 255, 255); stroke-opacity: 1; stroke-width: 2px;"/><path class="y3zl zl crisp" transform="translate(0,561.8100000000001)" d="M80,0h873" style="stroke: rgb(255, 255, 255); stroke-opacity: 1; stroke-width: 2px;"/></g><g class="layer-between"><g class="shapelayer"/><g class="imagelayer"/></g><path class="xlines-below"/><path class="ylines-below"/><g class="overlines-below"/><g class="xaxislayer-below"/><g class="yaxislayer-below"/><g class="overaxes-below"/><g class="overplot"><g class="x3y3" transform="translate(80,488.8)" clip-path="url(#clip1561ddx3y3plot)"><g class="scatterlayer mlayer"><g class="trace scatter trace70f86d" style="stroke-miterlimit: 2; opacity: 1;"><g class="fills"/><g class="errorbars"/><g class="lines"><path class="js-line" d="M0,72.02L4.38,69.39L6.56,68.73L10.94,71.69L13.13,71.36L17.5,70.38L19.69,69.39L21.88,70.38L24.07,72.35L28.44,72.35L30.63,72.02L35.01,71.03L37.2,71.03L39.38,71.36L41.57,70.38L45.95,69.72L48.14,69.06L50.32,68.07L52.51,68.4L54.7,68.07L56.89,66.75L61.26,68.07L63.45,68.4L65.64,67.08L67.83,66.75L72.2,67.08L74.39,68.07L80.95,67.41L83.14,67.74L100.65,68.07L102.83,68.73L105.02,68.07L107.21,68.4L109.4,67.41L111.59,67.74L129.09,70.38L131.28,69.72L133.47,70.38L135.65,69.39L137.84,68.4L140.03,68.73L142.22,68.07L144.41,69.06L146.59,70.38L148.78,69.39L153.16,70.7L155.35,72.68L164.1,70.05L166.29,68.73L170.66,70.05L172.85,69.72L175.04,70.05L177.23,68.73L181.6,69.39L183.79,69.72L188.17,70.38L190.35,70.7L194.73,69.06L196.92,70.05L199.11,69.39L201.29,70.38L203.48,71.36L205.67,70.7L216.61,72.02L218.8,71.03L223.17,71.03L225.36,71.03L227.55,71.69L229.74,71.36L234.11,72.68L236.3,72.68L240.68,73.67L242.86,72.02L245.05,73.01L247.24,73.01L251.62,74.33L253.8,74.65L255.99,73.67L258.18,73.67L260.37,74.33L262.56,73.67L264.74,73.34L266.93,74.65L269.12,74L271.31,74.65L273.5,74.98L275.68,72.35L280.06,70.05L282.25,68.4L288.81,65.11L291,64.78L293.19,63.79L295.38,64.12L299.75,63.13L301.94,61.16L306.32,58.19L308.5,57.54L312.88,54.9L315.07,52.6L321.63,41.08L323.82,39.43L328.2,37.46L330.38,36.47L334.76,32.85L336.95,30.21L341.32,27.25L343.51,26.59L352.26,18.03L354.45,13.75L361.02,14.41L363.2,15.4L365.39,12.77L367.58,12.11L371.95,8.49L374.14,9.47L376.33,8.82L378.52,9.8L382.89,6.84L385.08,8.49L387.27,8.82L389.46,11.78L391.65,13.75L393.83,12.77L398.21,14.08L400.4,14.74L402.59,15.07L404.77,14.41L409.15,15.73L411.34,16.39L413.53,17.7L415.71,20.01L417.9,21L420.09,23.96L422.28,24.29L424.47,21.98L426.65,21.65L428.84,22.31L431.03,22.31L433.22,21L437.59,21L439.78,22.97L448.53,29.55L450.72,32.52L457.29,46.34L459.47,49.31L470.41,75.31L472.6,77.95L474.79,78.93L476.98,82.23L483.54,99.67L485.73,102.97L487.92,106.92L490.11,109.22L492.29,113.5L494.48,115.15L498.86,121.07L501.05,122.39L503.23,125.02L505.42,126.34L507.61,128.97L509.8,129.3L511.98,129.96L514.17,128.31L518.55,126.67L520.74,124.36L522.92,123.38L525.11,121.4L527.3,122.39L529.49,120.74L531.68,119.75L533.86,114.82L540.43,101.65L542.62,97.37L546.99,92.76L549.18,92.43L553.56,90.13L555.74,86.51L560.12,77.29L562.31,74.65L564.5,73.34L566.68,71.03L571.06,67.41L573.25,66.75L579.81,58.52L582,55.23L588.56,45.69L590.75,43.05L595.13,41.73L597.32,39.76L599.5,40.42L601.69,39.76L603.88,39.1L606.07,39.43L612.63,43.05L614.82,43.05L617.01,45.69L619.2,47L623.57,50.29L625.76,50.29L632.32,50.29L634.51,51.28L638.89,53.26L641.08,52.93L652.02,60.83L654.2,61.49L656.39,60.83L658.58,61.82L660.77,61.49L662.95,63.46L665.14,62.8L667.33,63.46L676.08,63.13L678.27,62.15L684.83,61.82L687.02,60.5L689.21,59.84L691.4,60.17L693.59,59.51L695.77,60.5L700.15,58.19L702.34,58.19L704.53,59.18L706.71,58.85L708.9,60.5L711.09,58.85L713.28,58.19L715.47,58.85L717.65,60.5L719.84,60.83L724.22,60.17L726.41,60.17L730.78,60.17L732.97,61.82L735.16,61.16L737.35,63.79L743.91,61.49L746.1,63.46L754.85,64.12L757.04,64.12L763.6,64.45L765.79,64.12L767.98,64.12L770.17,65.11L772.35,64.45L774.54,65.11L785.48,66.1L787.67,67.41L794.23,67.74L796.42,68.4L798.61,67.41L800.8,68.07L807.36,69.72L809.55,69.72L822.68,69.39L824.86,70.05L829.24,69.39L831.43,69.39L837.99,69.39L840.18,70.38L848.93,72.68L851.12,72.35L855.5,72.02L857.68,71.36L859.87,71.03L862.06,71.69L864.25,72.35L866.44,71.69L868.62,72.02L870.81,71.36L873,72.35" style="vector-effect: none; fill: none; stroke: rgb(0, 0, 255); stroke-opacity: 1; stroke-width: 1.5px; opacity: 1;"/></g><g class="points"/><g class="text"/></g><g class="trace scatter trace433c6c" style="stroke-miterlimit: 2; opacity: 1;"><g class="fills"/><g class="errorbars"/><g class="lines"><path class="js-line" d="M0,71.1L4.38,72.24L6.56,71.89L10.94,70.61L13.13,71.36L17.5,72.45L19.69,73.01L26.26,72.69L28.44,72.62L32.82,72.7L35.01,72.79L37.2,72.91L39.38,71.99L43.76,72.07L45.95,71.72L54.7,71.16L56.89,70.94L63.45,71.18L65.64,72.12L74.39,74.07L76.58,74.33L78.77,74.57L80.95,73.84L118.15,73.39L120.34,73.64L131.28,74.54L133.47,75.76L137.84,76.13L140.03,75.99L153.16,78.3L155.35,79.66L161.91,80.73L164.1,81.1L170.66,82.63L172.85,82.9L179.41,83.32L181.6,83.9L190.35,84.9L192.54,84.06L199.11,83.75L201.29,84.08L214.42,84.03L216.61,84.69L220.98,85.83L223.17,86.01L242.86,87.7L245.05,87.74L255.99,88.51L258.18,88.33L273.5,87.73L275.68,86.4L277.87,85.31L280.06,85.32L286.62,86L288.81,85.16L295.38,80.84L297.56,80.92L299.75,80.75L301.94,81.37L310.69,82.05L312.88,81.83L323.82,80.88L326.01,80.28L328.2,77.95L330.38,74.35L332.57,71.2L334.76,70.22L343.51,69.44L345.7,68.72L352.26,65.64L354.45,66.39L363.2,67.5L365.39,67.65L367.58,66.1L369.77,63.41L371.95,61.79L374.14,62.31L378.52,61.25L380.71,59.78L385.08,58.61L387.27,58.67L389.46,57.85L391.65,55.9L393.83,53.51L396.02,52.59L400.4,51.86L402.59,50.03L406.96,44.51L409.15,42.99L417.9,40.09L420.09,38.03L424.47,34.21L426.65,32.89L433.22,28.63L435.41,26.82L441.97,22.31L444.16,22.09L452.91,25.47L455.1,26.74L459.47,30.13L461.66,30.91L470.41,29.21L472.6,29.1L474.79,28.62L476.98,30.63L483.54,36.06L485.73,36.68L490.11,37.11L492.29,36.52L498.86,34.26L501.05,35.13L505.42,38.73L507.61,39.77L509.8,40.78L511.98,43.05L516.36,46.16L518.55,46.09L522.92,45.97L525.11,44.47L529.49,43.28L531.68,44.38L533.86,45.78L536.05,46.22L542.62,46.56L544.8,46.61L551.37,45.63L553.56,45.04L577.62,35.99L579.81,35.79L584.19,36.5L586.38,37.32L590.75,38.31L592.94,38.05L603.88,35.87L606.07,35.38L614.82,34.48L617.01,34.6L623.57,34.38L625.76,34.03L652.02,28.87L654.2,28.16L687.02,18.09L689.21,17.55L700.15,14.42L702.34,13.45L713.28,7.84L715.47,7.49L719.84,8.16L722.03,9.34L726.41,13.25L728.59,15.6L732.97,18.78L735.16,19.52L743.91,24.46L746.1,24.62L750.47,24.21L752.66,25.54L757.04,28.55L759.23,29.37L767.98,31.23L770.17,32.31L776.73,36.15L778.92,36.78L783.29,37.86L785.48,38.94L792.05,42.06L794.23,42.77L800.8,45.8L802.98,47.01L831.43,61.94L833.62,62.78L842.37,65.15L844.56,65.65L855.5,67.5L857.68,67.54L873,66.97" style="vector-effect: none; fill: none; stroke: rgb(255, 0, 0); stroke-opacity: 1; stroke-dasharray: 9px, 9px; stroke-width: 1.5px; opacity: 1;"/></g><g class="points"/><g class="text"/></g></g></g></g><g class="zerolinelayer-above"/><path class="xlines-above crisp" d="M0,0" style="fill: none;"/><path class="ylines-above crisp" d="M0,0" style="fill: none;"/><g class="overlines-above"/><g class="xaxislayer-above"/><g class="yaxislayer-above"><g class="y3tick"><text text-anchor="end" x="79" y="4.199999999999999" transform="translate(0,594.73)" style="font-family: 'Open Sans', verdana, arial, sans-serif; font-size: 12px; fill: rgb(42, 63, 95); fill-opacity: 1; white-space: pre;">−1</text></g><g class="y3tick"><text text-anchor="end" x="79" y="4.199999999999999" style="font-family: 'Open Sans', verdana, arial, sans-serif; font-size: 12px; fill: rgb(42, 63, 95); fill-opacity: 1; white-space: pre;" transform="translate(0,561.8100000000001)">0</text></g><g class="y3tick"><text text-anchor="end" x="79" y="4.199999999999999" style="font-family: 'Open Sans', verdana, arial, sans-serif; font-size: 12px; fill: rgb(42, 63, 95); fill-opacity: 1; white-space: pre;" transform="translate(0,528.89)">1</text></g><g class="y3tick"><text text-anchor="end" x="79" y="4.199999999999999" style="font-family: 'Open Sans', verdana, arial, sans-serif; font-size: 12px; fill: rgb(42, 63, 95); fill-opacity: 1; white-space: pre;" transform="translate(0,495.97)">2</text></g></g><g class="overaxes-above"/></g><g class="subplot x4y4"><g class="layer-subplot"><g class="shapelayer"/><g class="imagelayer"/></g><g class="minor-gridlayer"><g class="x4"/><g class="y4"/></g><g class="gridlayer"><g class="x4"><path class="x4grid crisp" transform="translate(167.51999999999998,0)" d="M0,683.2v136.8" style="stroke: rgb(255, 255, 255); stroke-opacity: 1; stroke-width: 1px;"/><path class="x4grid crisp" transform="translate(255.04,0)" d="M0,683.2v136.8" style="stroke: rgb(255, 255, 255); stroke-opacity: 1; stroke-width: 1px;"/><path class="x4grid crisp" transform="translate(342.56,0)" d="M0,683.2v136.8" style="stroke: rgb(255, 255, 255); stroke-opacity: 1; stroke-width: 1px;"/><path class="x4grid crisp" transform="translate(430.08,0)" d="M0,683.2v136.8" style="stroke: rgb(255, 255, 255); stroke-opacity: 1; stroke-width: 1px;"/><path class="x4grid crisp" transform="translate(517.5899999999999,0)" d="M0,683.2v136.8" style="stroke: rgb(255, 255, 255); stroke-opacity: 1; stroke-width: 1px;"/><path class="x4grid crisp" transform="translate(605.11,0)" d="M0,683.2v136.8" style="stroke: rgb(255, 255, 255); stroke-opacity: 1; stroke-width: 1px;"/><path class="x4grid crisp" transform="translate(692.63,0)" d="M0,683.2v136.8" style="stroke: rgb(255, 255, 255); stroke-opacity: 1; stroke-width: 1px;"/><path class="x4grid crisp" transform="translate(780.15,0)" d="M0,683.2v136.8" style="stroke: rgb(255, 255, 255); stroke-opacity: 1; stroke-width: 1px;"/><path class="x4grid crisp" transform="translate(867.67,0)" d="M0,683.2v136.8" style="stroke: rgb(255, 255, 255); stroke-opacity: 1; stroke-width: 1px;"/></g><g class="y4"><path class="y4grid crisp" transform="translate(0,781.6800000000001)" d="M80,0h873" style="stroke: rgb(255, 255, 255); stroke-opacity: 1; stroke-width: 1px;"/><path class="y4grid crisp" transform="translate(0,747.45)" d="M80,0h873" style="stroke: rgb(255, 255, 255); stroke-opacity: 1; stroke-width: 1px;"/><path class="y4grid crisp" transform="translate(0,713.21)" d="M80,0h873" style="stroke: rgb(255, 255, 255); stroke-opacity: 1; stroke-width: 1px;"/></g></g><g class="zerolinelayer"><path class="x4zl zl crisp" transform="translate(80,0)" d="M0,683.2v136.8" style="stroke: rgb(255, 255, 255); stroke-opacity: 1; stroke-width: 2px;"/><path class="y4zl zl crisp" transform="translate(0,815.9100000000001)" d="M80,0h873" style="stroke: rgb(255, 255, 255); stroke-opacity: 1; stroke-width: 2px;"/></g><g class="layer-between"><g class="shapelayer"/><g class="imagelayer"/></g><path class="xlines-below"/><path class="ylines-below"/><g class="overlines-below"/><g class="xaxislayer-below"/><g class="yaxislayer-below"/><g class="overaxes-below"/><g class="overplot"><g class="x4y4" transform="translate(80,683.2)" clip-path="url(#clip1561ddx4y4plot)"><g class="scatterlayer mlayer"><g class="trace scatter tracebedc2c" style="stroke-miterlimit: 2; opacity: 1;"><g class="fills"/><g class="errorbars"/><g class="lines"><path class="js-line" d="M0,129.96L8.75,123.22L10.94,122.99L13.13,121.82L15.32,119.6L21.88,114.44L24.07,113.89L28.44,113.22L30.63,113.67L37.2,114.61L39.38,114.71L41.57,115.85L43.76,116.02L54.7,114.56L56.89,113.68L61.26,111.9L63.45,110.54L65.64,109.36L67.83,109.14L70.02,108.67L72.2,109.93L78.77,111.63L80.95,109.82L98.46,110.77L100.65,111.67L105.02,113.52L107.21,113.95L111.59,114.08L113.77,114.23L120.34,117.12L122.53,118.57L129.09,121.96L131.28,122.23L140.03,125.66L142.22,125.63L144.41,126L146.59,127.36L155.35,127.53L157.53,126.32L161.91,123.28L164.1,123.07L168.47,120.61L170.66,119.79L179.41,116.09L181.6,116.08L183.79,115.38L185.98,113.79L194.73,109.32L196.92,109.22L205.67,108.16L207.86,108.24L214.42,109.04L216.61,108.4L229.74,104.24L231.92,103.3L245.05,98.57L247.24,97.98L258.18,95.68L260.37,94.5L269.12,90.24L271.31,89.17L277.87,83.65L280.06,83.06L284.44,80.72L286.62,78.73L293.19,75.28L295.38,74.19L299.75,73.14L301.94,71.38L326.01,58.74L328.2,58.12L334.76,56.94L336.95,56.84L350.08,50.17L352.26,48.74L354.45,47.16L356.64,47.08L358.83,47L361.02,46.03L365.39,44.71L367.58,45.18L380.71,44.79L382.89,44.83L387.27,44.92L389.46,45.55L396.02,47.34L398.21,48.85L413.53,57.95L415.71,59.69L420.09,62.56L422.28,63.26L428.84,67.31L431.03,68.75L444.16,76.18L446.35,76.25L455.1,75.68L457.29,74.3L466.04,71.48L468.23,69.78L474.79,68.63L476.98,67.16L483.54,61.52L485.73,60.41L498.86,53.74L501.05,53.33L505.42,50.45L507.61,48.36L509.8,46.89L511.98,46.98L527.3,50.9L529.49,52.32L538.24,60.12L540.43,61.38L546.99,64.22L549.18,64.85L553.56,66.24L555.74,67.5L562.31,71.32L564.5,72.66L577.62,82.94L579.81,85.4L588.56,94.12L590.75,95.72L599.5,103.73L601.69,106.07L608.26,112.8L610.44,115.09L614.82,119.63L617.01,119.83L619.2,119.88L621.38,118.76L625.76,116.11L627.95,114L634.51,107.8L636.7,105.22L643.26,97.15L645.45,93.88L652.02,83.93L654.2,80.07L671.71,56.19L673.89,53.65L680.46,45.46L682.65,43.07L691.4,33.66L693.59,31.54L700.15,26.31L702.34,24.76L713.28,18.58L715.47,17.79L724.22,15.61L726.41,14.6L730.78,11.92L732.97,10.99L735.16,11.14L737.35,10.37L743.91,7.31L746.1,6.84L757.04,13.84L759.23,15.78L770.17,23.46L772.35,25.56L776.73,29.58L778.92,31.94L798.61,52.11L800.8,53.68L807.36,59.12L809.55,60.64L822.68,69.32L824.86,70.2L831.43,73.31L833.62,74.03L840.18,75.99L842.37,76.6L846.74,77L848.93,78.02L853.31,79.98L855.5,81.34L862.06,85.4L864.25,86.35L868.62,87.85L870.81,88.37L873,88.02" style="vector-effect: none; fill: none; stroke: rgb(128, 0, 128); stroke-opacity: 1; stroke-width: 1.5px; opacity: 1;"/></g><g class="points"/><g class="text"/></g></g></g></g><g class="zerolinelayer-above"/><path class="xlines-above crisp" d="M0,0" style="fill: none;"/><path class="ylines-above crisp" d="M0,0" style="fill: none;"/><g class="overlines-above"/><g class="xaxislayer-above"><g class="x4tick"><text text-anchor="middle" x="0" y="833" transform="translate(80,0)" style="font-family: 'Open Sans', verdana, arial, sans-serif; font-size: 12px; fill: rgb(42, 63, 95); fill-opacity: 1; white-space: pre;">0</text></g><g class="x4tick"><text text-anchor="middle" x="0" y="833" style="font-family: 'Open Sans', verdana, arial, sans-serif; font-size: 12px; fill: rgb(42, 63, 95); fill-opacity: 1; white-space: pre;" transform="translate(167.51999999999998,0)">2</text></g><g class="x4tick"><text text-anchor="middle" x="0" y="833" style="font-family: 'Open Sans', verdana, arial, sans-serif; font-size: 12px; fill: rgb(42, 63, 95); fill-opacity: 1; white-space: pre;" transform="translate(255.04,0)">4</text></g><g class="x4tick"><text text-anchor="middle" x="0" y="833" style="font-family: 'Open Sans', verdana, arial, sans-serif; font-size: 12px; fill: rgb(42, 63, 95); fill-opacity: 1; white-space: pre;" transform="translate(342.56,0)">6</text></g><g class="x4tick"><text text-anchor="middle" x="0" y="833" style="font-family: 'Open Sans', verdana, arial, sans-serif; font-size: 12px; fill: rgb(42, 63, 95); fill-opacity: 1; white-space: pre;" transform="translate(430.08,0)">8</text></g><g class="x4tick"><text text-anchor="middle" x="0" y="833" style="font-family: 'Open Sans', verdana, arial, sans-serif; font-size: 12px; fill: rgb(42, 63, 95); fill-opacity: 1; white-space: pre;" transform="translate(517.5899999999999,0)">10</text></g><g class="x4tick"><text text-anchor="middle" x="0" y="833" style="font-family: 'Open Sans', verdana, arial, sans-serif; font-size: 12px; fill: rgb(42, 63, 95); fill-opacity: 1; white-space: pre;" transform="translate(605.11,0)">12</text></g><g class="x4tick"><text text-anchor="middle" x="0" y="833" style="font-family: 'Open Sans', verdana, arial, sans-serif; font-size: 12px; fill: rgb(42, 63, 95); fill-opacity: 1; white-space: pre;" transform="translate(692.63,0)">14</text></g><g class="x4tick"><text text-anchor="middle" x="0" y="833" style="font-family: 'Open Sans', verdana, arial, sans-serif; font-size: 12px; fill: rgb(42, 63, 95); fill-opacity: 1; white-space: pre;" transform="translate(780.15,0)">16</text></g><g class="x4tick"><text text-anchor="middle" x="0" y="833" style="font-family: 'Open Sans', verdana, arial, sans-serif; font-size: 12px; fill: rgb(42, 63, 95); fill-opacity: 1; white-space: pre;" transform="translate(867.67,0)">18</text></g></g><g class="yaxislayer-above"><g class="y4tick"><text text-anchor="end" x="79" y="4.199999999999999" transform="translate(0,815.9100000000001)" style="font-family: 'Open Sans', verdana, arial, sans-serif; font-size: 12px; fill: rgb(42, 63, 95); fill-opacity: 1; white-space: pre;">0</text></g><g class="y4tick"><text text-anchor="end" x="79" y="4.199999999999999" style="font-family: 'Open Sans', verdana, arial, sans-serif; font-size: 12px; fill: rgb(42, 63, 95); fill-opacity: 1; white-space: pre;" transform="translate(0,781.6800000000001)">2</text></g><g class="y4tick"><text text-anchor="end" x="79" y="4.199999999999999" style="font-family: 'Open Sans', verdana, arial, sans-serif; font-size: 12px; fill: rgb(42, 63, 95); fill-opacity: 1; white-space: pre;" transform="translate(0,747.45)">4</text></g><g class="y4tick"><text text-anchor="end" x="79" y="4.199999999999999" style="font-family: 'Open Sans', verdana, arial, sans-serif; font-size: 12px; fill: rgb(42, 63, 95); fill-opacity: 1; white-space: pre;" transform="translate(0,713.21)">6</text></g></g><g class="overaxes-above"/></g></g><g class="polarlayer"/><g class="smithlayer"/><g class="ternarylayer"/><g class="geolayer"/><g class="funnelarealayer"/><g class="pielayer"/><g class="iciclelayer"/><g class="treemaplayer"/><g class="sunburstlayer"/><g class="glimages"/><defs id="topdefs-1561dd"><g class="clips"/><clipPath id="legend1561dd"><rect width="118" height="48" x="0" y="0"/></clipPath></defs><g class="layer-above"><g class="imagelayer"/><g class="shapelayer"/></g><g class="infolayer"><g class="legend" pointer-events="all" transform="translate(970.46,100)"><rect class="bg" shape-rendering="crispEdges" style="stroke: rgb(68, 68, 68); stroke-opacity: 1; fill: rgb(255, 255, 255); fill-opacity: 1; stroke-width: 0px;" width="118" height="48" x="0" y="0"/><g class="scrollbox" transform="" clip-path="url(#legend1561dd)"><g class="groups"><g class="traces" transform="translate(0,14.5)" style="opacity: 1;"><text class="legendtext" text-anchor="start" x="40" y="4.680000000000001" style="font-family: 'Open Sans', verdana, arial, sans-serif; font-size: 12px; fill: rgb(42, 63, 95); fill-opacity: 1; white-space: pre;">GT Vx_mps</text><g class="layers" style="opacity: 1;"><g class="legendfill"/><g class="legendlines"><path class="js-line" d="M5,0h30" style="fill: none; stroke: rgb(0, 0, 255); stroke-opacity: 1; stroke-width: 1.5px;"/></g><g class="legendsymbols"><g class="legendpoints"/></g></g><rect class="legendtoggle" x="0" y="-9.5" width="112.03125" height="19" style="fill: rgb(0, 0, 0); fill-opacity: 0;"/></g><g class="traces" transform="translate(0,33.5)" style="opacity: 1;"><text class="legendtext" text-anchor="start" x="40" y="4.680000000000001" style="font-family: 'Open Sans', verdana, arial, sans-serif; font-size: 12px; fill: rgb(42, 63, 95); fill-opacity: 1; white-space: pre;">Pred Vx_mps</text><g class="layers" style="opacity: 1;"><g class="legendfill"/><g class="legendlines"><path class="js-line" d="M5,0h30" style="fill: none; stroke: rgb(255, 0, 0); stroke-opacity: 1; stroke-dasharray: 9px, 9px; stroke-width: 1.5px;"/></g><g class="legendsymbols"><g class="legendpoints"/></g></g><rect class="legendtoggle" x="0" y="-9.5" width="112.03125" height="19" style="fill: rgb(0, 0, 0); fill-opacity: 0;"/></g></g></g><rect class="scrollbar" rx="20" ry="3" width="0" height="0" style="fill: rgb(128, 139, 164); fill-opacity: 1;" x="0" y="0"/></g><g class="g-gtitle"><text class="gtitle" x="55" y="50" text-anchor="start" dy="0em" style="opacity: 1; font-family: 'Open Sans', verdana, arial, sans-serif; font-size: 17px; fill: rgb(42, 63, 95); fill-opacity: 1; white-space: pre;">WAM v2 Dream: Velocity Prediction vs Ground Truth — Lap_1</text></g><g class="g-xtitle"/><g class="g-x2title"/><g class="g-x3title"/><g class="g-x4title"/><g class="g-ytitle"/><g class="g-y2title"/><g class="g-y3title"/><g class="g-y4title"/><g class="annotation" data-index="0" style="opacity: 1;"><g class="annotation-text-g" transform="rotate(0,516.5,89.5)"><g class="cursor-pointer" transform="translate(485,79)"><rect class="bg" x="0.5" y="0.5" width="63" height="20" style="stroke-width: 1px; stroke: rgb(0, 0, 0); stroke-opacity: 0; fill: rgb(0, 0, 0); fill-opacity: 0;"/><text class="annotation-text" text-anchor="middle" x="31.7734375" y="16" style="font-family: 'Open Sans', verdana, arial, sans-serif; font-size: 16px; fill: rgb(42, 63, 95); fill-opacity: 1; white-space: pre;">Vx (m/s)</text></g></g></g><g class="annotation" data-index="1" style="opacity: 1;"><g class="annotation-text-g" transform="rotate(0,516.5,283.9)"><g class="cursor-pointer" transform="translate(485,273)"><rect class="bg" x="0.5" y="0.5" width="62" height="20" style="stroke-width: 1px; stroke: rgb(0, 0, 0); stroke-opacity: 0; fill: rgb(0, 0, 0); fill-opacity: 0;"/><text class="annotation-text" text-anchor="middle" x="31.4765625" y="16" style="font-family: 'Open Sans', verdana, arial, sans-serif; font-size: 16px; fill: rgb(42, 63, 95); fill-opacity: 1; white-space: pre;">Vy (m/s)</text></g></g></g><g class="annotation" data-index="2" style="opacity: 1;"><g class="annotation-text-g" transform="rotate(0,516.5,478.3)"><g class="cursor-pointer" transform="translate(485,468)"><rect class="bg" x="0.5" y="0.5" width="63" height="20" style="stroke-width: 1px; stroke: rgb(0, 0, 0); stroke-opacity: 0; fill: rgb(0, 0, 0); fill-opacity: 0;"/><text class="annotation-text" text-anchor="middle" x="31.7734375" y="16" style="font-family: 'Open Sans', verdana, arial, sans-serif; font-size: 16px; fill: rgb(42, 63, 95); fill-opacity: 1; white-space: pre;">Vz (m/s)</text></g></g></g><g class="annotation" data-index="3" style="opacity: 1;"><g class="annotation-text-g" transform="rotate(0,516.5,672.7)"><g class="cursor-pointer" transform="translate(451,662)"><rect class="bg" x="0.5" y="0.5" width="130" height="20" style="stroke-width: 1px; stroke: rgb(0, 0, 0); stroke-opacity: 0; fill: rgb(0, 0, 0); fill-opacity: 0;"/><text class="annotation-text" text-anchor="middle" x="65.5703125" y="16" style="font-family: 'Open Sans', verdana, arial, sans-serif; font-size: 16px; fill: rgb(42, 63, 95); fill-opacity: 1; white-space: pre;">Speed Error (m/s)</text></g></g></g></g></svg>