<svg class="main-svg" xmlns="http://www.w3.org/2000/svg" xmlns:xlink="http://www.w3.org/1999/xlink" width="1100" height="900" style="" viewBox="0 0 1100 900"><rect x="0" y="0" width="1100" height="900" style="fill: rgb(255, 255, 255); fill-opacity: 1;"/><defs id="defs-37d5db"><g class="clips"><clipPath id="clip37d5dbxyplot" class="plotclip"><rect width="873" height="136.79999999999995"/></clipPath><clipPath id="clip37d5dbx2y2plot" class="plotclip"><rect width="873" height="136.79999999999995"/></clipPath><clipPath id="clip37d5dbx3y3plot" class="plotclip"><rect width="873" height="136.8"/></clipPath><clipPath id="clip37d5dbx4y4plot" class="plotclip"><rect width="873" height="136.8"/></clipPath><clipPath class="axesclip" id="clip37d5dbx"><rect x="80" y="0" width="873" height="900"/></clipPath><clipPath class="axesclip" id="clip37d5dby"><rect x="0" y="100" width="1100" height="136.79999999999995"/></clipPath><clipPath class="axesclip" id="clip37d5dbxy"><rect x="80" y="100" width="873" height="136.79999999999995"/></clipPath><clipPath class="axesclip" id="clip37d5dby2"><rect x="0" y="294.4" width="1100" height="136.79999999999995"/></clipPath><clipPath class="axesclip" id="clip37d5dbxy2"><rect x="80" y="294.4" width="873" height="136.79999999999995"/></clipPath><clipPath class="axesclip" id="clip37d5dby3"><rect x="0" y="488.8" width="1100" height="136.8"/></clipPath><clipPath class="axesclip" id="clip37d5dbxy3"><rect x="80" y="488.8" width="873" height="136.8"/></clipPath><clipPath class="axesclip" id="clip37d5dby4"><rect x="0" y="683.2" width="1100" height="136.8"/></clipPath><clipPath class="axesclip" id="clip37d5dbxy4"><rect x="80" y="683.2" width="873" height="136.8"/></clipPath><clipPath class="axesclip" id="clip37d5dbx2"><rect x="80" y="0" width="873" height="900"/></clipPath><clipPath class="axesclip" id="clip37d5dbx2y"><rect x="80" y="100" width="873" height="136.79999999999995"/></clipPath><clipPath class="axesclip" id="clip37d5dbx2y2"><rect x="80" y="294.4" width="873" height="136.79999999999995"/></clipPath><clipPath class="axesclip" id="clip37d5dbx2y3"><rect x="80" y="488.8" width="873" height="136.8"/></clipPath><clipPath class="axesclip" id="clip37d5dbx2y4"><rect x="80" y="683.2" width="873" height="136.8"/></clipPath><clipPath class="axesclip" id="clip37d5dbx3"><rect x="80" y="0" width="873" height="900"/></clipPath><clipPath class="axesclip" id="clip37d5dbx3y"><rect x="80" y="100" width="873" height="136.79999999999995"/></clipPath><clipPath class="axesclip" id="clip37d5dbx3y2"><rect x="80" y="294.4" width="873" height="136.79999999999995"/></clipPath><clipPath class="axesclip" id="clip37d5dbx3y3"><rect x="80" y="488.8" width="873" height="136.8"/></clipPath><clipPath class="axesclip" id="clip37d5dbx3y4"><rect x="80" y="683.2" width="873" height="136.8"/></clipPath><clipPath class="axesclip" id="clip37d5dbx4"><rect x="80" y="0" width="873" height="900"/></clipPath><clipPath class="axesclip" id="clip37d5dbx4y"><rect x="80" y="100" width="873" height="136.79999999999995"/></clipPath><clipPath class="axesclip" id="clip37d5dbx4y2"><rect x="80" y="294.4" width="873" height="136.79999999999995"/></clipPath><clipPath class="axesclip" id="clip37d5dbx4y3"><rect x="80" y="488.8" width="873" height="136.8"/></clipPath><clipPath class="axesclip" id="clip37d5dbx4y4"><rect x="80" y="683.2" width="873" height="136.8"/></clipPath></g><g class="gradients"/><g class="patterns"/></defs><g class="bglayer"><rect class="bg" x="80" y="100" width="873" height="136.79999999999995" style="fill: rgb(229, 236, 246); fill-opacity: 1; stroke-width: 0;"/><rect class="bg" x="80" y="294.4" width="873" height="136.79999999999995" style="fill: rgb(229, 236, 246); fill-opacity: 1; stroke-width: 0;"/><rect class="bg" x="80" y="488.8" width="873" height="136.8" style="fill: rgb(229, 236, 246); fill-opacity: 1; stroke-width: 0;"/><rect class="bg" x="80" y="683.2" width="873" height="136.8" style="fill: rgb(229, 236, 246); fill-opacity: 1; stroke-width: 0;"/></g><g class="layer-below"><g class="imagelayer"/><g class="shapelayer"/></g><g class="cartesianlayer"><g class="subplot xy"><g class="layer-subplot"><g class="shapelayer"/><g class="imagelayer"/></g><g class="minor-gridlayer"><g class="x"/><g class="y"/></g><g class="gridlayer"><g class="x"><path class="xgrid crisp" transform="translate(167.51999999999998,0)" d="M0,100v136.79999999999995" style="stroke: rgb(255, 255, 255); stroke-opacity: 1; stroke-width: 1px;"/><path class="xgrid crisp" transform="translate(255.04,0)" d="M0,100v136.79999999999995" style="stroke: rgb(255, 255, 255); stroke-opacity: 1; stroke-width: 1px;"/><path class="xgrid crisp" transform="translate(342.56,0)" d="M0,100v136.79999999999995" style="stroke: rgb(255, 255, 255); stroke-opacity: 1; stroke-width: 1px;"/><path class="xgrid crisp" transform="translate(430.08,0)" d="M0,100v136.79999999999995" style="stroke: rgb(255, 255, 255); stroke-opacity: 1; stroke-width: 1px;"/><path class="xgrid crisp" transform="translate(517.5899999999999,0)" d="M0,100v136.79999999999995" style="stroke: rgb(255, 255, 255); stroke-opacity: 1; stroke-width: 1px;"/><path class="xgrid crisp" transform="translate(605.11,0)" d="M0,100v136.79999999999995" style="stroke: rgb(255, 255, 255); stroke-opacity: 1; stroke-width: 1px;"/><path class="xgrid crisp" transform="translate(692.63,0)" d="M0,100v136.79999999999995" style="stroke: rgb(255, 255, 255); stroke-opacity: 1; stroke-width: 1px;"/><path class="xgrid crisp" transform="translate(780.15,0)" d="M0,100v136.79999999999995" style="stroke: rgb(255, 255, 255); stroke-opacity: 1; stroke-width: 1px;"/><path class="xgrid crisp" transform="translate(867.67,0)" d="M0,100v136.79999999999995" style="stroke: rgb(255, 255, 255); stroke-opacity: 1; stroke-width: 1px;"/></g><g class="y"><path class="ygrid crisp" transform="translate(0,207.61)" d="M80,0h873" style="stroke: rgb(255, 255, 255); stroke-opacity: 1; stroke-width: 1px;"/><path class="ygrid crisp" transform="translate(0,178.18)" d="M80,0h873" style="stroke: rgb(255, 255, 255); stroke-opacity: 1; stroke-width: 1px;"/><path class="ygrid crisp" transform="translate(0,148.74)" d="M80,0h873" style="stroke: rgb(255, 255, 255); stroke-opacity: 1; stroke-width: 1px;"/><path class="ygrid crisp" transform="translate(0,119.3)" d="M80,0h873" style="stroke: rgb(255, 255, 255); stroke-opacity: 1; stroke-width: 1px;"/></g></g><g class="zerolinelayer"><path class="xzl zl crisp" transform="translate(80,0)" d="M0,100v136.79999999999995" style="stroke: rgb(255, 255, 255); stroke-opacity: 1; stroke-width: 2px;"/></g><g class="layer-between"><g class="shapelayer"/><g class="imagelayer"/></g><path class="xlines-below"/><path class="ylines-below"/><g class="overlines-below"/><g class="xaxislayer-below"/><g class="yaxislayer-below"/><g class="overaxes-below"/><g class="overplot"><g class="xy" transform="translate(80,100)" clip-path="url(#clip37d5dbxyplot)"><g class="scatterlayer mlayer"><g class="trace scatter trace88ab0a" style="stroke-miterlimit: 2; opacity: 1;"><g class="fills"/><g class="errorbars"/><g class="lines"><path class="js-line" d="M0,125.48L17.5,129.5L19.69,129.8L26.26,129.91L28.44,129.63L59.08,124.08L61.26,123.59L83.14,117.55L85.33,116.83L98.46,112.23L100.65,111.41L129.09,98.8L131.28,97.76L146.59,90.18L148.78,89.12L166.29,80.93L168.47,80.04L205.67,65.04L207.86,64.3L220.98,60.03L223.17,59.26L288.81,33.68L291,32.89L321.63,22.28L323.82,21.7L341.32,16.5L343.51,15.95L367.58,10.52L369.77,10.12L391.65,7.05L393.83,6.86L409.15,7.45L411.34,7.48L428.84,8.27L431.03,8.43L463.85,11.35L466.04,11.59L487.92,13.87L490.11,14L516.36,15.14L518.55,15.53L551.37,22.58L553.56,23.25L575.44,31.21L577.62,32.22L595.13,41.15L597.32,42.5L610.44,50.59L612.63,52.01L671.71,93.29L673.89,94.55L684.83,100.84L687.02,101.98L697.96,107.21L700.15,108.12L715.47,113.58L717.65,114.17L726.41,116.41L728.59,116.88L748.29,119.87L750.47,119.8L761.41,118.98L763.6,118.72L781.11,116.17L783.29,115.75L802.98,110.83L805.17,110.27L827.05,103L829.24,102.03L846.74,94.09L848.93,93.11L873,81.89" style="vector-effect: none; fill: none; stroke: rgb(0, 0, 255); stroke-opacity: 1; stroke-width: 1.5px; opacity: 1;"/></g><g class="points"/><g class="text"/></g><g class="trace scatter tracec83784" style="stroke-miterlimit: 2; opacity: 1;"><g class="fills"/><g class="errorbars"/><g class="lines"><path class="js-line" d="M0,125.27L24.07,129.38L26.26,129.39L32.82,129.76L35.01,129.53L43.76,128.99L45.95,128.76L61.26,126.27L63.45,125.8L111.59,114.19L113.77,113.41L179.41,95.07L181.6,94.41L205.67,86.34L207.86,85.76L218.8,81.63L220.98,80.92L249.43,71.8L251.62,71.02L262.56,67.37L264.74,66.67L273.5,64.4L275.68,63.73L295.38,58.26L297.56,57.24L326.01,45.61L328.2,44.68L367.58,30.44L369.77,29.86L402.59,22.51L404.77,22.34L411.34,21.62L413.53,21.42L426.65,19.91L428.84,19.95L450.72,21.59L452.91,21.94L470.41,24.13L472.6,24.17L479.17,24.77L481.35,25.11L494.48,25.51L496.67,25.42L516.36,24.54L518.55,24.27L531.68,24.45L533.86,24.79L560.12,30.02L562.31,30.82L573.25,34.51L575.44,35.07L592.94,39.24L595.13,39.84L614.82,45.31L617.01,46.08L636.7,52.09L638.89,52.65L680.46,63.76L682.65,64.41L719.84,75.02L722.03,75.29L732.97,75.61L735.16,75.51L754.85,74.64L757.04,74.88L776.73,78.15L778.92,78.7L818.3,88.15L820.49,88.46L844.56,92.12L846.74,92.6L855.5,93.77L857.68,93.74L868.62,92.65L870.81,92.3L873,91.84" style="vector-effect: none; fill: none; stroke: rgb(255, 0, 0); stroke-opacity: 1; stroke-dasharray: 9px, 9px; stroke-width: 1.5px; opacity: 1;"/></g><g class="points"/><g class="text"/></g></g></g></g><g class="zerolinelayer-above"/><path class="xlines-above crisp" d="M0,0" style="fill: none;"/><path class="ylines-above crisp" d="M0,0" style="fill: none;"/><g class="overlines-above"/><g class="xaxislayer-above"/><g class="yaxislayer-above"><g class="ytick"><text text-anchor="end" x="79" y="4.199999999999999" transform="translate(0,207.61)" style="font-family: 'Open Sans', verdana, arial, sans-serif; font-size: 12px; fill: rgb(42, 63, 95); fill-opacity: 1; white-space: pre;">15</text></g><g class="ytick"><text text-anchor="end" x="79" y="4.199999999999999" style="font-family: 'Open Sans', verdana, arial, sans-serif; font-size: 12px; fill: rgb(42, 63, 95); fill-opacity: 1; white-space: pre;" transform="translate(0,178.18)">20</text></g><g class="ytick"><text text-anchor="end" x="79" y="4.199999999999999" style="font-family: 'Open Sans', verdana, arial, sans-serif; font-size: 12px; fill: rgb(42, 63, 95); fill-opacity: 1; white-space: pre;" transform="translate(0,148.74)">25</text></g><g class="ytick"><text text-anchor="end" x="79" y="4.199999999999999" style="font-family: 'Open Sans', verdana, arial, sans-serif; font-size: 12px; fill: rgb(42, 63, 95); fill-opacity: 1; white-space: pre;" transform="translate(0,119.3)">30</text></g></g><g class="overaxes-above"/></g><g class="subplot x2y2"><g class="layer-subplot"><g class="shapelayer"/><g class="imagelayer"/></g><g class="minor-gridlayer"><g class="x2"/><g class="y2"/></g><g class="gridlayer"><g class="x2"><path class="x2grid crisp" transform="translate(167.51999999999998,0)" d="M0,294.4v136.79999999999995" style="stroke: rgb(255, 255, 255); stroke-opacity: 1; stroke-width: 1px;"/><path class="x2grid crisp" transform="translate(255.04,0)" d="M0,294.4v136.79999999999995" style="stroke: rgb(255, 255, 255); stroke-opacity: 1; stroke-width: 1px;"/><path class="x2grid crisp" transform="translate(342.56,0)" d="M0,294.4v136.79999999999995" style="stroke: rgb(255, 255, 255); stroke-opacity: 1; stroke-width: 1px;"/><path class="x2grid crisp" transform="translate(430.08,0)" d="M0,294.4v136.79999999999995" style="stroke: rgb(255, 255, 255); stroke-opacity: 1; stroke-width: 1px;"/><path class="x2grid crisp" transform="translate(517.5899999999999,0)" d="M0,294.4v136.79999999999995" style="stroke: rgb(255, 255, 255); stroke-opacity: 1; stroke-width: 1px;"/><path class="x2grid crisp" transform="translate(605.11,0)" d="M0,294.4v136.79999999999995" style="stroke: rgb(255, 255, 255); stroke-opacity: 1; stroke-width: 1px;"/><path class="x2grid crisp" transform="translate(692.63,0)" d="M0,294.4v136.79999999999995" style="stroke: rgb(255, 255, 255); stroke-opacity: 1; stroke-width: 1px;"/><path class="x2grid crisp" transform="translate(780.15,0)" d="M0,294.4v136.79999999999995" style="stroke: rgb(255, 255, 255); stroke-opacity: 1; stroke-width: 1px;"/><path class="x2grid crisp" transform="translate(867.67,0)" d="M0,294.4v136.79999999999995" style="stroke: rgb(255, 255, 255); stroke-opacity: 1; stroke-width: 1px;"/></g><g class="y2"><path class="y2grid crisp" transform="translate(0,373.7)" d="M80,0h873" style="stroke: rgb(255, 255, 255); stroke-opacity: 1; stroke-width: 1px;"/><path class="y2grid crisp" transform="translate(0,344.04999999999995)" d="M80,0h873" style="stroke: rgb(255, 255, 255); stroke-opacity: 1; stroke-width: 1px;"/><path class="y2grid crisp" transform="translate(0,314.40999999999997)" d="M80,0h873" style="stroke: rgb(255, 255, 255); stroke-opacity: 1; stroke-width: 1px;"/></g></g><g class="zerolinelayer"><path class="x2zl zl crisp" transform="translate(80,0)" d="M0,294.4v136.79999999999995" style="stroke: rgb(255, 255, 255); stroke-opacity: 1; stroke-width: 2px;"/><path class="y2zl zl crisp" transform="translate(0,403.34)" d="M80,0h873" style="stroke: rgb(255, 255, 255); stroke-opacity: 1; stroke-width: 2px;"/></g><g class="layer-between"><g class="shapelayer"/><g class="imagelayer"/></g><path class="xlines-below"/><path class="ylines-below"/><g class="overlines-below"/><g class="xaxislayer-below"/><g class="yaxislayer-below"/><g class="overaxes-below"/><g class="overplot"><g class="x2y2" transform="translate(80,294.4)" clip-path="url(#clip37d5dbx2y2plot)"><g class="scatterlayer mlayer"><g class="trace scatter tracea9766b" style="stroke-miterlimit: 2; opacity: 1;"><g class="fills"/><g class="errorbars"/><g class="lines"><path class="js-line" d="M0,103.67L2.19,101.91L4.38,101.28L6.56,100.59L8.75,101.15L13.13,102.07L15.32,99.05L17.5,98.21L19.69,96.56L24.07,98.48L26.26,97.75L30.63,99.02L32.82,99.7L37.2,99.26L39.38,100.18L41.57,99.41L43.76,100.11L45.95,99.13L48.14,100.05L52.51,99.27L54.7,100.18L56.89,100.81L59.08,100.3L61.26,101.48L63.45,101.6L65.64,100.64L67.83,101.1L70.02,102.03L72.2,102.12L74.39,103.49L76.58,103.42L78.77,104.4L80.95,104.21L83.14,106.1L85.33,105.77L87.52,106.99L89.71,106.79L94.08,107.9L96.27,107.67L98.46,108.64L100.65,108.41L113.77,110.14L115.96,110.34L124.71,112.16L126.9,112.24L131.28,113.23L133.47,112.82L135.65,112.32L137.84,113.35L142.22,113.13L144.41,112.9L161.91,112.53L164.1,111.7L166.29,112.47L168.47,112.11L172.85,112.39L175.04,112.08L177.23,112.14L179.41,111.41L183.79,110.53L185.98,110.49L190.35,109.68L192.54,109.13L194.73,109.16L196.92,108.26L205.67,108.54L207.86,107.6L212.23,107.86L214.42,107.53L216.61,108.12L218.8,107.69L223.17,106.72L225.36,106.92L229.74,105.32L231.92,105.33L238.49,103.91L240.68,104.87L242.86,104.5L245.05,105.2L258.18,105.73L260.37,105.8L266.93,105.5L269.12,105.27L282.25,103.2L284.44,103.89L293.19,105.65L295.38,106.78L301.94,106.17L304.13,106.14L310.69,104.34L312.88,104.11L315.07,103.35L317.26,103.58L319.44,103.43L321.63,104.15L323.82,103.81L326.01,104.66L332.57,105.36L334.76,104.72L336.95,104.8L339.14,104.12L343.51,103.86L345.7,102.96L350.08,101.8L352.26,100.79L354.45,100.56L356.64,99.05L358.83,99.41L361.02,98.43L369.77,96.26L371.95,96.15L382.89,94.09L385.08,93.1L391.65,90.02L393.83,87.67L398.21,82.62L400.4,80.47L406.96,76.24L409.15,75.95L420.09,76.84L422.28,76.05L424.47,74.41L426.65,71.65L435.41,67.33L437.59,66.8L441.97,67.47L444.16,68.26L446.35,68.94L448.53,68.61L452.91,70.46L455.1,68.54L459.47,65.68L461.66,63.73L463.85,61.82L466.04,58.34L470.41,53.63L472.6,49.87L476.98,42.68L479.17,41.24L481.35,40.42L483.54,40.5L485.73,40.76L487.92,42.01L490.11,43.68L492.29,48.03L496.67,61.04L498.86,67.39L503.23,81.83L505.42,87.63L509.8,92.39L511.98,91.16L518.55,81.96L520.74,78.68L522.92,75.61L525.11,74.52L527.3,75.02L529.49,76.89L536.05,87.12L538.24,91.33L540.43,96.63L542.62,99.7L546.99,101.35L549.18,99.94L557.93,89.06L560.12,88.59L562.31,90.13L564.5,92.94L573.25,102.82L575.44,103.29L579.81,102.86L582,102.67L592.94,100.35L595.13,100.27L597.32,100.76L599.5,100.39L608.26,102.18L610.44,101.69L614.82,101.56L617.01,99.76L627.95,94.28L630.14,93.79L634.51,94.25L636.7,95.43L641.08,96.54L643.26,96.96L645.45,97.55L647.64,97.32L649.83,97.34L652.02,95.97L656.39,95.13L658.58,95.22L662.95,95.61L665.14,97L667.33,99.79L669.52,100.93L673.89,103.51L676.08,103.63L687.02,104.75L689.21,104.52L693.59,103.43L695.77,104.29L702.34,106.56L704.53,106.75L706.71,107.5L708.9,109.16L711.09,110.78L713.28,111.46L722.03,111.9L724.22,113.2L728.59,112.24L730.78,111.21L732.97,111.48L735.16,110.24L739.53,111.28L741.72,111.79L746.1,110.63L748.29,109.71L752.66,110.81L754.85,111.89L759.23,114.37L761.41,115.16L763.6,115.98L765.79,115.75L772.35,115.41L774.54,115.71L787.67,111.94L789.86,111.77L792.05,111.86L794.23,110.69L796.42,111.34L798.61,111.14L800.8,111.53L802.98,110.98L807.36,110.53L809.55,110.35L818.3,108.85L820.49,108.28L824.86,108.15L827.05,107.78L829.24,106.86L831.43,107.12L835.8,107.07L837.99,105.77L844.56,105.2L846.74,105.49L848.93,104.71L851.12,104.96L870.81,103.99L873,105.06" style="vector-effect: none; fill: none; stroke: rgb(0, 0, 255); stroke-opacity: 1; stroke-width: 1.5px; opacity: 1;"/></g><g class="points"/><g class="text"/></g><g class="trace scatter trace0bd05e" style="stroke-miterlimit: 2; opacity: 1;"><g class="fills"/><g class="errorbars"/><g class="lines"><path class="js-line" d="M0,103.65L13.13,106.09L15.32,105.95L21.88,105.84L24.07,105.08L45.95,105.7L48.14,106L70.02,110.51L72.2,111.36L83.14,114.67L85.33,115.07L91.89,115.83L94.08,115.76L100.65,115.81L102.83,116.07L129.09,123.54L131.28,123.67L159.72,126.53L161.91,126.57L177.23,127.31L179.41,127.48L196.92,127.07L199.11,126.63L203.48,126.73L205.67,128.14L216.61,129.09L218.8,129.92L225.36,129.71L227.55,129.2L231.92,128.85L234.11,128.83L238.49,129.3L240.68,129.03L258.18,127.05L260.37,127.27L271.31,126.92L273.5,126.4L280.06,125.64L282.25,125.05L301.94,125.97L304.13,126.31L317.26,127.47L319.44,127.54L328.2,127.73L330.38,127.72L343.51,127.1L345.7,127L367.58,122.87L369.77,122.38L385.08,118.63L387.27,118.05L398.21,113.55L400.4,113.36L409.15,111.2L411.34,110.17L415.71,108.76L417.9,106.55L422.28,100.84L424.47,97.58L431.03,87.15L433.22,84.97L435.41,84.13L437.59,84.24L446.35,85.43L448.53,85.82L457.29,88.09L459.47,88.79L470.41,93.04L472.6,94.17L479.17,96.95L481.35,98.21L483.54,100.35L485.73,103.68L492.29,112.52L494.48,115.45L501.05,123.61L503.23,125.6L507.61,126.63L509.8,127.1L514.17,126.14L516.36,125.45L522.92,122.58L525.11,122.12L529.49,120.56L531.68,119.8L536.05,119.54L538.24,120.08L542.62,121.51L544.8,121.38L564.5,115.85L566.68,115.83L579.81,117.12L582,117.16L588.56,118.12L590.75,118.66L612.63,124.05L614.82,124.16L630.14,123.23L632.32,123.4L643.26,125.18L645.45,125.57L656.39,126.61L658.58,126.54L671.71,125.02L673.89,124.7L708.9,119.02L711.09,118.48L717.65,115.83L719.84,114.44L724.22,108.69L726.41,104.73L737.35,83.56L739.53,79.98L752.66,57.94L754.85,53.63L776.73,6.84L778.92,6.84L833.62,7.07L835.8,7.83L840.18,11.15L842.37,13.78L846.74,21.17L848.93,25.65L859.87,47.01L862.06,50.92L868.62,62.12L870.81,64.68L873,66.45" style="vector-effect: none; fill: none; stroke: rgb(255, 0, 0); stroke-opacity: 1; stroke-dasharray: 9px, 9px; stroke-width: 1.5px; opacity: 1;"/></g><g class="points"/><g class="text"/></g></g></g></g><g class="zerolinelayer-above"/><path class="xlines-above crisp" d="M0,0" style="fill: none;"/><path class="ylines-above crisp" d="M0,0" style="fill: none;"/><g class="overlines-above"/><g class="xaxislayer-above"/><g class="yaxislayer-above"><g class="y2tick"><text text-anchor="end" x="79" y="4.199999999999999" transform="translate(0,403.34)" style="font-family: 'Open Sans', verdana, arial, sans-serif; font-size: 12px; fill: rgb(42, 63, 95); fill-opacity: 1; white-space: pre;">0</text></g><g class="y2tick"><text text-anchor="end" x="79" y="4.199999999999999" style="font-family: 'Open Sans', verdana, arial, sans-serif; font-size: 12px; fill: rgb(42, 63, 95); fill-opacity: 1; white-space: pre;" transform="translate(0,373.7)">1</text></g><g class="y2tick"><text text-anchor="end" x="79" y="4.199999999999999" style="font-family: 'Open Sans', verdana, arial, sans-serif; font-size: 12px; fill: rgb(42, 63, 95); fill-opacity: 1; white-space: pre;" transform="translate(0,344.04999999999995)">2</text></g><g class="y2tick"><text text-anchor="end" x="79" y="4.199999999999999" style="font-family: 'Open Sans', verdana, arial, sans-serif; font-size: 12px; fill: rgb(42, 63, 95); fill-opacity: 1; white-space: pre;" transform="translate(0,314.40999999999997)">3</text></g></g><g class="overaxes-above"/></g><g class="subplot x3y3"><g class="layer-subplot"><g class="shapelayer"/><g class="imagelayer"/></g><g class="minor-gridlayer"><g class="x3"/><g class="y3"/></g><g class="gridlayer"><g class="x3"><path class="x3grid crisp" transform="translate(167.51999999999998,0)" d="M0,488.8v136.8" style="stroke: rgb(255, 255, 255); stroke-opacity: 1; stroke-width: 1px;"/><path class="x3grid crisp" transform="translate(255.04,0)" d="M0,488.8v136.8" style="stroke: rgb(255, 255, 255); stroke-opacity: 1; stroke-width: 1px;"/><path class="x3grid crisp" transform="translate(342.56,0)" d="M0,488.8v136.8" style="stroke: rgb(255, 255, 255); stroke-opacity: 1; stroke-width: 1px;"/><path class="x3grid crisp" transform="translate(430.08,0)" d="M0,488.8v136.8" style="stroke: rgb(255, 255, 255); stroke-opacity: 1; stroke-width: 1px;"/><path class="x3grid crisp" transform="translate(517.5899999999999,0)" d="M0,488.8v136.8" style="stroke: rgb(255, 255, 255); stroke-opacity: 1; stroke-width: 1px;"/><path class="x3grid crisp" transform="translate(605.11,0)" d="M0,488.8v136.8" style="stroke: rgb(255, 255, 255); stroke-opacity: 1; stroke-width: 1px;"/><path class="x3grid crisp" transform="translate(692.63,0)" d="M0,488.8v136.8" style="stroke: rgb(255, 255, 255); stroke-opacity: 1; stroke-width: 1px;"/><path class="x3grid crisp" transform="translate(780.15,0)" d="M0,488.8v136.8" style="stroke: rgb(255, 255, 255); stroke-opacity: 1; stroke-width: 1px;"/><path class="x3grid crisp" transform="translate(867.67,0)" d="M0,488.8v136.8" style="stroke: rgb(255, 255, 255); stroke-opacity: 1; stroke-width: 1px;"/></g><g class="y3"><path class="y3grid crisp" transform="translate(0,594.73)" d="M80,0h873" style="stroke: rgb(255, 255, 255); stroke-opacity: 1; stroke-width: 1px;"/><path class="y3grid crisp" transform="translate(0,528.89)" d="M80,0h873" style="stroke: rgb(255, 255, 255); stroke-opacity: 1; stroke-width: 1px;"/><path class="y3grid crisp" transform="translate(0,495.97)" d="M80,0h873" style="stroke: rgb(255, 255, 255); stroke-opacity: 1; stroke-width: 1px;"/></g></g><g class="zerolinelayer"><path class="x3zl zl crisp" transform="translate(80,0)" d="M0,488.8v136.8" style="stroke: rgb(255, 255, 255); stroke-opacity: 1; stroke-width: 2px;"/><path class="y3zl zl crisp" transform="translate(0,561.8100000000001)" d="M80,0h873" style="stroke: rgb(255, 255, 255); stroke-opacity: 1; stroke-width: 2px;"/></g><g class="layer-between"><g class="shapelayer"/><g class="imagelayer"/></g><path class="xlines-below"/><path class="ylines-below"/><g class="overlines-below"/><g class="xaxislayer-below"/><g class="yaxislayer-below"/><g class="overaxes-below"/><g class="overplot"><g class="x3y3" transform="translate(80,488.8)" clip-path="url(#clip37d5dbx3y3plot)"><g class="scatterlayer mlayer"><g class="trace scatter trace7253b5" style="stroke-miterlimit: 2; opacity: 1;"><g class="fills"/><g class="errorbars"/><g class="lines"><path class="js-line" d="M0,72.02L4.38,69.39L6.56,68.73L10.94,71.69L13.13,71.36L17.5,70.38L19.69,69.39L21.88,70.38L24.07,72.35L28.44,72.35L30.63,72.02L35.01,71.03L37.2,71.03L39.38,71.36L41.57,70.38L45.95,69.72L48.14,69.06L50.32,68.07L52.51,68.4L54.7,68.07L56.89,66.75L61.26,68.07L63.45,68.4L65.64,67.08L67.83,66.75L72.2,67.08L74.39,68.07L80.95,67.41L83.14,67.74L100.65,68.07L102.83,68.73L105.02,68.07L107.21,68.4L109.4,67.41L111.59,67.74L129.09,70.38L131.28,69.72L133.47,70.38L135.65,69.39L137.84,68.4L140.03,68.73L142.22,68.07L144.41,69.06L146.59,70.38L148.78,69.39L153.16,70.7L155.35,72.68L164.1,70.05L166.29,68.73L170.66,70.05L172.85,69.72L175.04,70.05L177.23,68.73L181.6,69.39L183.79,69.72L188.17,70.38L190.35,70.7L194.73,69.06L196.92,70.05L199.11,69.39L201.29,70.38L203.48,71.36L205.67,70.7L216.61,72.02L218.8,71.03L223.17,71.03L225.36,71.03L227.55,71.69L229.74,71.36L234.11,72.68L236.3,72.68L240.68,73.67L242.86,72.02L245.05,73.01L247.24,73.01L251.62,74.33L253.8,74.65L255.99,73.67L258.18,73.67L260.37,74.33L262.56,73.67L264.74,73.34L266.93,74.65L269.12,74L271.31,74.65L273.5,74.98L275.68,72.35L280.06,70.05L282.25,68.4L288.81,65.11L291,64.78L293.19,63.79L295.38,64.12L299.75,63.13L301.94,61.16L306.32,58.19L308.5,57.54L312.88,54.9L315.07,52.6L321.63,41.08L323.82,39.43L328.2,37.46L330.38,36.47L334.76,32.85L336.95,30.21L341.32,27.25L343.51,26.59L352.26,18.03L354.45,13.75L361.02,14.41L363.2,15.4L365.39,12.77L367.58,12.11L371.95,8.49L374.14,9.47L376.33,8.82L378.52,9.8L382.89,6.84L385.08,8.49L387.27,8.82L389.46,11.78L391.65,13.75L393.83,12.77L398.21,14.08L400.4,14.74L402.59,15.07L404.77,14.41L409.15,15.73L411.34,16.39L413.53,17.7L415.71,20.01L417.9,21L420.09,23.96L422.28,24.29L424.47,21.98L426.65,21.65L428.84,22.31L431.03,22.31L433.22,21L437.59,21L439.78,22.97L448.53,29.55L450.72,32.52L457.29,46.34L459.47,49.31L470.41,75.31L472.6,77.95L474.79,78.93L476.98,82.23L483.54,99.67L485.73,102.97L487.92,106.92L490.11,109.22L492.29,113.5L494.48,115.15L498.86,121.07L501.05,122.39L503.23,125.02L505.42,126.34L507.61,128.97L509.8,129.3L511.98,129.96L514.17,128.31L518.55,126.67L520.74,124.36L522.92,123.38L525.11,121.4L527.3,122.39L529.49,120.74L531.68,119.75L533.86,114.82L540.43,101.65L542.62,97.37L546.99,92.76L549.18,92.43L553.56,90.13L555.74,86.51L560.12,77.29L562.31,74.65L564.5,73.34L566.68,71.03L571.06,67.41L573.25,66.75L579.81,58.52L582,55.23L588.56,45.69L590.75,43.05L595.13,41.73L597.32,39.76L599.5,40.42L601.69,39.76L603.88,39.1L606.07,39.43L612.63,43.05L614.82,43.05L617.01,45.69L619.2,47L623.57,50.29L625.76,50.29L632.32,50.29L634.51,51.28L638.89,53.26L641.08,52.93L652.02,60.83L654.2,61.49L656.39,60.83L658.58,61.82L660.77,61.49L662.95,63.46L665.14,62.8L667.33,63.46L676.08,63.13L678.27,62.15L684.83,61.82L687.02,60.5L689.21,59.84L691.4,60.17L693.59,59.51L695.77,60.5L700.15,58.19L702.34,58.19L704.53,59.18L706.71,58.85L708.9,60.5L711.09,58.85L713.28,58.19L715.47,58.85L717.65,60.5L719.84,60.83L724.22,60.17L726.41,60.17L730.78,60.17L732.97,61.82L735.16,61.16L737.35,63.79L743.91,61.49L746.1,63.46L754.85,64.12L757.04,64.12L763.6,64.45L765.79,64.12L767.98,64.12L770.17,65.11L772.35,64.45L774.54,65.11L785.48,66.1L787.67,67.41L794.23,67.74L796.42,68.4L798.61,67.41L800.8,68.07L807.36,69.72L809.55,69.72L822.68,69.39L824.86,70.05L829.24,69.39L831.43,69.39L837.99,69.39L840.18,70.38L848.93,72.68L851.12,72.35L855.5,72.02L857.68,71.36L859.87,71.03L862.06,71.69L864.25,72.35L866.44,71.69L868.62,72.02L870.81,71.36L873,72.35" style="vector-effect: none; fill: none; stroke: rgb(0, 0, 255); stroke-opacity: 1; stroke-width: 1.5px; opacity: 1;"/></g><g class="points"/><g class="text"/></g><g class="trace scatter tracec04f01" style="stroke-miterlimit: 2; opacity: 1;"><g class="fills"/><g class="errorbars"/><g class="lines"><path class="js-line" d="M0,70.65L2.19,72.24L4.38,71.8L6.56,73.22L8.75,73.59L17.5,76.13L19.69,75.72L21.88,76.62L24.07,76.65L35.01,78.48L37.2,78.33L41.57,78.66L43.76,78.76L59.08,78.1L61.26,78L72.2,77.12L74.39,77.09L102.83,75.75L105.02,75.13L113.77,75.4L115.96,75.83L120.34,77.26L122.53,78.27L129.09,79.76L131.28,79.92L148.78,82.42L150.97,83.23L159.72,84.51L161.91,85.72L170.66,87.88L172.85,87.51L177.23,87.12L179.41,87.23L190.35,90.36L192.54,91.37L196.92,92.24L199.11,90.95L203.48,89.19L205.67,89.48L210.05,91.24L212.23,92.42L218.8,94.1L220.98,94.25L227.55,95.84L229.74,97.12L234.11,96.2L236.3,96.76L238.49,96.4L240.68,97.1L245.05,99.2L247.24,99.26L251.62,100.37L253.8,99.7L258.18,99.4L260.37,99.39L273.5,102.12L275.68,102.88L277.87,103.61L280.06,103.37L288.81,103.18L291,103.76L295.38,104.86L297.56,105.06L308.5,104.39L310.69,104.23L328.2,104.77L330.38,104.53L336.95,104.59L339.14,104.88L361.02,108.2L363.2,108.85L371.95,108.38L374.14,108.14L378.52,108.59L380.71,108.12L387.27,106.74L389.46,106.81L393.83,106.52L396.02,105.8L398.21,105.22L400.4,105.61L404.77,105.95L406.96,107.2L409.15,109.14L411.34,109.95L415.71,110.51L417.9,111.06L424.47,114.88L426.65,114.93L433.22,113.97L435.41,113.17L444.16,110.75L446.35,109.53L457.29,104.36L459.47,103.91L461.66,103.56L463.85,102.35L470.41,98.55L472.6,98.41L476.98,98.48L479.17,98.08L483.54,98.23L485.73,98.85L490.11,99.04L492.29,98.73L496.67,98.07L498.86,98.07L505.42,98.08L507.61,98.15L522.92,101.61L525.11,101.23L529.49,100.11L531.68,99.16L536.05,96.11L538.24,93.76L542.62,89.35L544.8,88.32L551.37,87.71L553.56,87.04L562.31,83.76L564.5,82.53L573.25,77.48L575.44,76.81L588.56,73.38L590.75,72.55L595.13,71.47L597.32,71.31L608.26,71.83L610.44,72.29L619.2,73.97L621.38,73.86L630.14,72.15L632.32,71.67L647.64,69.52L649.83,69.18L669.52,67.06L671.71,66.9L687.02,65.05L689.21,64.67L708.9,61.6L711.09,61.5L717.65,61.95L719.84,62.37L726.41,64.93L728.59,66.09L735.16,69.3L737.35,70.01L746.1,71.87L748.29,72.09L757.04,71.83L759.23,71.58L767.98,69.78L770.17,69.13L776.73,67.73L778.92,67.75L787.67,69.15L789.86,69.58L827.05,76.11L829.24,76.24L837.99,75.86L840.18,75.38L846.74,73.03L848.93,71.7L857.68,65.9L859.87,64.89L868.62,61.95L870.81,61.5L873,61.16" style="vector-effect: none; fill: none; stroke: rgb(255, 0, 0); stroke-opacity: 1; stroke-dasharray: 9px, 9px; stroke-width: 1.5px; opacity: 1;"/></g><g class="points"/><g class="text"/></g></g></g></g><g class="zerolinelayer-above"/><path class="xlines-above crisp" d="M0,0" style="fill: none;"/><path class="ylines-above crisp" d="M0,0" style="fill: none;"/><g class="overlines-above"/><g class="xaxislayer-above"/><g class="yaxislayer-above"><g class="y3tick"><text text-anchor="end" x="79" y="4.199999999999999" transform="translate(0,594.73)" style="font-family: 'Open Sans', verdana, arial, sans-serif; font-size: 12px; fill: rgb(42, 63, 95); fill-opacity: 1; white-space: pre;">−1</text></g><g class="y3tick"><text text-anchor="end" x="79" y="4.199999999999999" style="font-family: 'Open Sans', verdana, arial, sans-serif; font-size: 12px; fill: rgb(42, 63, 95); fill-opacity: 1; white-space: pre;" transform="translate(0,561.8100000000001)">0</text></g><g class="y3tick"><text text-anchor="end" x="79" y="4.199999999999999" style="font-family: 'Open Sans', verdana, arial, sans-serif; font-size: 12px; fill: rgb(42, 63, 95); fill-opacity: 1; white-space: pre;" transform="translate(0,528.89)">1</text></g><g class="y3tick"><text text-anchor="end" x="79" y="4.199999999999999" style="font-family: 'Open Sans', verdana, arial, sans-serif; font-size: 12px; fill: rgb(42, 63, 95); fill-opacity: 1; white-space: pre;" transform="translate(0,495.97)">2</text></g></g><g class="overaxes-above"/></g><g class="subplot x4y4"><g class="layer-subplot"><g class="shapelayer"/><g class="imagelayer"/></g><g class="minor-gridlayer"><g class="x4"/><g class="y4"/></g><g class="gridlayer"><g class="x4"><path class="x4grid crisp" transform="translate(167.51999999999998,0)" d="M0,683.2v136.8" style="stroke: rgb(255, 255, 255); stroke-opacity: 1; stroke-width: 1px;"/><path class="x4grid crisp" transform="translate(255.04,0)" d="M0,683.2v136.8" style="stroke: rgb(255, 255, 255); stroke-opacity: 1; stroke-width: 1px;"/><path class="x4grid crisp" transform="translate(342.56,0)" d="M0,683.2v136.8" style="stroke: rgb(255, 255, 255); stroke-opacity: 1; stroke-width: 1px;"/><path class="x4grid crisp" transform="translate(430.08,0)" d="M0,683.2v136.8" style="stroke: rgb(255, 255, 255); stroke-opacity: 1; stroke-width: 1px;"/><path class="x4grid crisp" transform="translate(517.5899999999999,0)" d="M0,683.2v136.8" style="stroke: rgb(255, 255, 255); stroke-opacity: 1; stroke-width: 1px;"/><path class="x4grid crisp" transform="translate(605.11,0)" d="M0,683.2v136.8" style="stroke: rgb(255, 255, 255); stroke-opacity: 1; stroke-width: 1px;"/><path class="x4grid crisp" transform="translate(692.63,0)" d="M0,683.2v136.8" style="stroke: rgb(255, 255, 255); stroke-opacity: 1; stroke-width: 1px;"/><path class="x4grid crisp" transform="translate(780.15,0)" d="M0,683.2v136.8" style="stroke: rgb(255, 255, 255); stroke-opacity: 1; stroke-width: 1px;"/><path class="x4grid crisp" transform="translate(867.67,0)" d="M0,683.2v136.8" style="stroke: rgb(255, 255, 255); stroke-opacity: 1; stroke-width: 1px;"/></g><g class="y4"><path class="y4grid crisp" transform="translate(0,782.6)" d="M80,0h873" style="stroke: rgb(255, 255, 255); stroke-opacity: 1; stroke-width: 1px;"/><path class="y4grid crisp" transform="translate(0,751.1800000000001)" d="M80,0h873" style="stroke: rgb(255, 255, 255); stroke-opacity: 1; stroke-width: 1px;"/><path class="y4grid crisp" transform="translate(0,719.76)" d="M80,0h873" style="stroke: rgb(255, 255, 255); stroke-opacity: 1; stroke-width: 1px;"/><path class="y4grid crisp" transform="translate(0,688.34)" d="M80,0h873" style="stroke: rgb(255, 255, 255); stroke-opacity: 1; stroke-width: 1px;"/></g></g><g class="zerolinelayer"><path class="x4zl zl crisp" transform="translate(80,0)" d="M0,683.2v136.8" style="stroke: rgb(255, 255, 255); stroke-opacity: 1; stroke-width: 2px;"/><path class="y4zl zl crisp" transform="translate(0,814.02)" d="M80,0h873" style="stroke: rgb(255, 255, 255); stroke-opacity: 1; stroke-width: 2px;"/></g><g class="layer-between"><g class="shapelayer"/><g class="imagelayer"/></g><path class="xlines-below"/><path class="ylines-below"/><g class="overlines-below"/><g class="xaxislayer-below"/><g class="yaxislayer-below"/><g class="overaxes-below"/><g class="overplot"><g class="x4y4" transform="translate(80,683.2)" clip-path="url(#clip37d5dbx4y4plot)"><g class="scatterlayer mlayer"><g class="trace scatter tracef20fcc" style="stroke-miterlimit: 2; opacity: 1;"><g class="fills"/><g class="errorbars"/><g class="lines"><path class="js-line" d="M0,129.96L6.56,126.65L8.75,126.99L13.13,126.92L15.32,126.12L19.69,124.28L21.88,124.86L24.07,126.48L26.26,126.16L30.63,126.55L32.82,126.05L39.38,125.13L41.57,123.92L45.95,123.1L48.14,122.78L52.51,121.73L54.7,121.58L59.08,121.16L61.26,121.52L63.45,121.49L65.64,120.65L72.2,120.47L74.39,120.89L89.71,117.61L91.89,117.02L100.65,115.39L102.83,114.54L111.59,110.58L113.77,110.29L131.28,101.27L133.47,99.35L142.22,93.85L144.41,92.83L153.16,87.13L155.35,85.7L159.72,83.47L161.91,82.47L168.47,80.13L170.66,79.77L172.85,78.12L175.04,77.81L181.6,76.01L183.79,75.83L190.35,72.52L192.54,72.38L196.92,72.03L199.11,72.15L203.48,72.48L205.67,72.34L210.05,71.93L212.23,72.38L218.8,73L220.98,72.72L234.11,70.31L236.3,68.94L238.49,68.12L240.68,68.8L245.05,68.26L247.24,67.43L251.62,67.39L253.8,66.78L255.99,66.94L258.18,66.29L266.93,63.76L269.12,62.69L271.31,62.79L273.5,61.74L280.06,59.66L282.25,59.58L288.81,56.8L291,56.36L295.38,55.51L297.56,55.91L304.13,56.1L306.32,56.75L315.07,56.99L317.26,56.33L323.82,56.55L326.01,56.81L332.57,57.59L334.76,57.48L352.26,58.1L354.45,57.47L363.2,59.1L365.39,58.45L367.58,59.05L369.77,58.75L374.14,59.52L376.33,59.59L382.89,60.51L385.08,61.64L387.27,62.05L389.46,63.59L391.65,64.82L393.83,64.84L398.21,67.76L400.4,68.02L413.53,70.54L415.71,71.92L422.28,75.01L424.47,74.31L431.03,76.14L433.22,75.91L439.78,77.82L441.97,78.67L455.1,85.63L457.29,87.27L466.04,90.58L468.23,90.9L470.41,91.16L472.6,90.53L476.98,88.92L479.17,88.11L490.11,83.76L492.29,84.22L498.86,88.01L501.05,90.16L505.42,93.38L507.61,93.81L509.8,94.57L511.98,94.49L527.3,98.71L529.49,100.05L536.05,106.11L538.24,107.33L542.62,109.32L544.8,109.91L551.37,111.72L553.56,111.84L560.12,111.28L562.31,111.73L577.62,117.44L579.81,117.56L584.19,116.68L586.38,115.57L601.69,109.65L603.88,108.23L619.2,99.16L621.38,97.47L627.95,90.98L630.14,88.75L645.45,72.58L647.64,70.28L660.77,54.06L662.95,51.79L680.46,37.71L682.65,36.44L689.21,32.11L691.4,31.03L697.96,28.44L700.15,27.87L708.9,26.54L711.09,26.23L717.65,25.33L719.84,24.45L724.22,22.8L726.41,21.75L735.16,16.55L737.35,14.72L746.1,8.37L748.29,7.59L754.85,6.85L757.04,7.18L770.17,9.73L772.35,10.46L774.54,11.02L776.73,12.39L787.67,24.9L789.86,27.44L813.92,54.32L816.11,56.25L829.24,68.04L831.43,69.53L837.99,75.91L840.18,78.2L851.12,91.04L853.31,92.99L857.68,95.87L859.87,96.66L866.44,98.37L868.62,98.24L873,96.87" style="vector-effect: none; fill: none; stroke: rgb(128, 0, 128); stroke-opacity: 1; stroke-width: 1.5px; opacity: 1;"/></g><g class="points"/><g class="text"/></g></g></g></g><g class="zerolinelayer-above"/><path class="xlines-above crisp" d="M0,0" style="fill: none;"/><path class="ylines-above crisp" d="M0,0" style="fill: none;"/><g class="overlines-above"/><g class="xaxislayer-above"><g class="x4tick"><text text-anchor="middle" x="0" y="833" transform="translate(80,0)" style="font-family: 'Open Sans', verdana, arial, sans-serif; font-size: 12px; fill: rgb(42, 63, 95); fill-opacity: 1; white-space: pre;">0</text></g><g class="x4tick"><text text-anchor="middle" x="0" y="833" style="font-family: 'Open Sans', verdana, arial, sans-serif; font-size: 12px; fill: rgb(42, 63, 95); fill-opacity: 1; white-space: pre;" transform="translate(167.51999999999998,0)">2</text></g><g class="x4tick"><text text-anchor="middle" x="0" y="833" style="font-family: 'Open Sans', verdana, arial, sans-serif; font-size: 12px; fill: rgb(42, 63, 95); fill-opacity: 1; white-space: pre;" transform="translate(255.04,0)">4</text></g><g class="x4tick"><text text-anchor="middle" x="0" y="833" style="font-family: 'Open Sans', verdana, arial, sans-serif; font-size: 12px; fill: rgb(42, 63, 95); fill-opacity: 1; white-space: pre;" transform="translate(342.56,0)">6</text></g><g class="x4tick"><text text-anchor="middle" x="0" y="833" style="font-family: 'Open Sans', verdana, arial, sans-serif; font-size: 12px; fill: rgb(42, 63, 95); fill-opacity: 1; white-space: pre;" transform="translate(430.08,0)">8</text></g><g class="x4tick"><text text-anchor="middle" x="0" y="833" style="font-family: 'Open Sans', verdana, arial, sans-serif; font-size: 12px; fill: rgb(42, 63, 95); fill-opacity: 1; white-space: pre;" transform="translate(517.5899999999999,0)">10</text></g><g class="x4tick"><text text-anchor="middle" x="0" y="833" style="font-family: 'Open Sans', verdana, arial, sans-serif; font-size: 12px; fill: rgb(42, 63, 95); fill-opacity: 1; white-space: pre;" transform="translate(605.11,0)">12</text></g><g class="x4tick"><text text-anchor="middle" x="0" y="833" style="font-family: 'Open Sans', verdana, arial, sans-serif; font-size: 12px; fill: rgb(42, 63, 95); fill-opacity: 1; white-space: pre;" transform="translate(692.63,0)">14</text></g><g class="x4tick"><text text-anchor="middle" x="0" y="833" style="font-family: 'Open Sans', verdana, arial, sans-serif; font-size: 12px; fill: rgb(42, 63, 95); fill-opacity: 1; white-space: pre;" transform="translate(780.15,0)">16</text></g><g class="x4tick"><text text-anchor="middle" x="0" y="833" style="font-family: 'Open Sans', verdana, arial, sans-serif; font-size: 12px; fill: rgb(42, 63, 95); fill-opacity: 1; white-space: pre;" transform="translate(867.67,0)">18</text></g></g><g class="yaxislayer-above"><g class="y4tick"><text text-anchor="end" x="79" y="4.199999999999999" transform="translate(0,814.02)" style="font-family: 'Open Sans', verdana, arial, sans-serif; font-size: 12px; fill: rgb(42, 63, 95); fill-opacity: 1; white-space: pre;">0</text></g><g class="y4tick"><text text-anchor="end" x="79" y="4.199999999999999" style="font-family: 'Open Sans', verdana, arial, sans-serif; font-size: 12px; fill: rgb(42, 63, 95); fill-opacity: 1; white-space: pre;" transform="translate(0,782.6)">2</text></g><g class="y4tick"><text text-anchor="end" x="79" y="4.199999999999999" style="font-family: 'Open Sans', verdana, arial, sans-serif; font-size: 12px; fill: rgb(42, 63, 95); fill-opacity: 1; white-space: pre;" transform="translate(0,751.1800000000001)">4</text></g><g class="y4tick"><text text-anchor="end" x="79" y="4.199999999999999" style="font-family: 'Open Sans', verdana, arial, sans-serif; font-size: 12px; fill: rgb(42, 63, 95); fill-opacity: 1; white-space: pre;" transform="translate(0,719.76)">6</text></g><g class="y4tick"><text text-anchor="end" x="79" y="4.199999999999999" style="font-family: 'Open Sans', verdana, arial, sans-serif; font-size: 12px; fill: rgb(42, 63, 95); fill-opacity: 1; white-space: pre;" transform="translate(0,688.34)">8</text></g></g><g class="overaxes-above"/></g></g><g class="polarlayer"/><g class="smithlayer"/><g class="ternarylayer"/><g class="geolayer"/><g class="funnelarealayer"/><g class="pielayer"/><g class="iciclelayer"/><g class="treemaplayer"/><g class="sunburstlayer"/><g class="glimages"/><defs id="topdefs-37d5db"><g class="clips"/><clipPath id="legend37d5db"><rect width="118" height="48" x="0" y="0"/></clipPath></defs><g class="layer-above"><g class="imagelayer"/><g class="shapelayer"/></g><g class="infolayer"><g class="legend" pointer-events="all" transform="translate(970.46,100)"><rect class="bg" shape-rendering="crispEdges" style="stroke: rgb(68, 68, 68); stroke-opacity: 1; fill: rgb(255, 255, 255); fill-opacity: 1; stroke-width: 0px;" width="118" height="48" x="0" y="0"/><g class="scrollbox" transform="" clip-path="url(#legend37d5db)"><g class="groups"><g class="traces" transform="translate(0,14.5)" style="opacity: 1;"><text class="legendtext" text-anchor="start" x="40" y="4.680000000000001" style="font-family: 'Open Sans', verdana, arial, sans-serif; font-size: 12px; fill: rgb(42, 63, 95); fill-opacity: 1; white-space: pre;">GT Vx_mps</text><g class="layers" style="opacity: 1;"><g class="legendfill"/><g class="legendlines"><path class="js-line" d="M5,0h30" style="fill: none; stroke: rgb(0, 0, 255); stroke-opacity: 1; stroke-width: 1.5px;"/></g><g class="legendsymbols"><g class="legendpoints"/></g></g><rect class="legendtoggle" x="0" y="-9.5" width="112.03125" height="19" style="fill: rgb(0, 0, 0); fill-opacity: 0;"/></g><g class="traces" transform="translate(0,33.5)" style="opacity: 1;"><text class="legendtext" text-anchor="start" x="40" y="4.680000000000001" style="font-family: 'Open Sans', verdana, arial, sans-serif; font-size: 12px; fill: rgb(42, 63, 95); fill-opacity: 1; white-space: pre;">Pred Vx_mps</text><g class="layers" style="opacity: 1;"><g class="legendfill"/><g class="legendlines"><path class="js-line" d="M5,0h30" style="fill: none; stroke: rgb(255, 0, 0); stroke-opacity: 1; stroke-dasharray: 9px, 9px; stroke-width: 1.5px;"/></g><g class="legendsymbols"><g class="legendpoints"/></g></g><rect class="legendtoggle" x="0" y="-9.5" width="112.03125" height="19" style="fill: rgb(0, 0, 0); fill-opacity: 0;"/></g></g></g><rect class="scrollbar" rx="20" ry="3" width="0" height="0" style="fill: rgb(128, 139, 164); fill-opacity: 1;" x="0" y="0"/></g><g class="g-gtitle"><text class="gtitle" x="55" y="50" text-anchor="start" dy="0em" style="opacity: 1; font-family: 'Open Sans', verdana, arial, sans-serif; font-size: 17px; fill: rgb(42, 63, 95); fill-opacity: 1; white-space: pre;">WAM v2 Dream: Velocity Prediction vs Ground Truth — Lap_1</text></g><g class="g-xtitle"/><g class="g-x2title"/><g class="g-x3title"/><g class="g-x4title"/><g class="g-ytitle"/><g class="g-y2title"/><g class="g-y3title"/><g class="g-y4title"/><g class="annotation" data-index="0" style="opacity: 1;"><g class="annotation-text-g" transform="rotate(0,516.5,89.5)"><g class="cursor-pointer" transform="translate(485,79)"><rect class="bg" x="0.5" y="0.5" width="63" height="20" style="stroke-width: 1px; stroke: rgb(0, 0, 0); stroke-opacity: 0; fill: rgb(0, 0, 0); fill-opacity: 0;"/><text class="annotation-text" text-anchor="middle" x="31.7734375" y="16" style="font-family: 'Open Sans', verdana, arial, sans-serif; font-size: 16px; fill: rgb(42, 63, 95); fill-opacity: 1; white-space: pre;">Vx (m/s)</text></g></g></g><g class="annotation" data-index="1" style="opacity: 1;"><g class="annotation-text-g" transform="rotate(0,516.5,283.9)"><g class="cursor-pointer" transform="translate(485,273)"><rect class="bg" x="0.5" y="0.5" width="62" height="20" style="stroke-width: 1px; stroke: rgb(0, 0, 0); stroke-opacity: 0; fill: rgb(0, 0, 0); fill-opacity: 0;"/><text class="annotation-text" text-anchor="middle" x="31.4765625" y="16" style="font-family: 'Open Sans', verdana, arial, sans-serif; font-size: 16px; fill: rgb(42, 63, 95); fill-opacity: 1; white-space: pre;">Vy (m/s)</text></g></g></g><g class="annotation" data-index="2" style="opacity: 1;"><g class="annotation-text-g" transform="rotate(0,516.5,478.3)"><g class="cursor-pointer" transform="translate(485,468)"><rect class="bg" x="0.5" y="0.5" width="63" height="20" style="stroke-width: 1px; stroke: rgb(0, 0, 0); stroke-opacity: 0; fill: rgb(0, 0, 0); fill-opacity: 0;"/><text class="annotation-text" text-anchor="middle" x="31.7734375" y="16" style="font-family: 'Open Sans', verdana, arial, sans-serif; font-size: 16px; fill: rgb(42, 63, 95); fill-opacity: 1; white-space: pre;">Vz (m/s)</text></g></g></g><g class="annotation" data-index="3" style="opacity: 1;"><g class="annotation-text-g" transform="rotate(0,516.5,672.7)"><g class="cursor-pointer" transform="translate(451,662)"><rect class="bg" x="0.5" y="0.5" width="130" height="20" style="stroke-width: 1px; stroke: rgb(0, 0, 0); stroke-opacity: 0; fill: rgb(0, 0, 0); fill-opacity: 0;"/><text class="annotation-text" text-anchor="middle" x="65.5703125" y="16" style="font-family: 'Open Sans', verdana, arial, sans-serif; font-size: 16px; fill: rgb(42, 63, 95); fill-opacity: 1; white-space: pre;">Speed Error (m/s)</text></g></g></g></g></svg>