<svg class="main-svg" xmlns="http://www.w3.org/2000/svg" xmlns:xlink="http://www.w3.org/1999/xlink" width="900" height="400" style="" viewBox="0 0 900 400"><rect x="0" y="0" width="900" height="400" style="fill: rgb(255, 255, 255); fill-opacity: 1;"/><defs id="defs-c862a9"><g class="clips"><clipPath id="clipc862a9xyplot" class="plotclip"><rect width="740" height="220"/></clipPath><clipPath class="axesclip" id="clipc862a9x"><rect x="80" y="0" width="740" height="400"/></clipPath><clipPath class="axesclip" id="clipc862a9y"><rect x="0" y="100" width="900" height="220"/></clipPath><clipPath class="axesclip" id="clipc862a9xy"><rect x="80" y="100" width="740" height="220"/></clipPath></g><g class="gradients"/><g class="patterns"/></defs><g class="bglayer"><rect class="bg" x="80" y="100" width="740" height="220" style="fill: rgb(229, 236, 246); fill-opacity: 1; stroke-width: 0;"/></g><g class="layer-below"><g class="imagelayer"/><g class="shapelayer"/></g><g class="cartesianlayer"><g class="subplot xy"><g class="layer-subplot"><g class="shapelayer"/><g class="imagelayer"/></g><g class="minor-gridlayer"><g class="x"/><g class="y"/></g><g class="gridlayer"><g class="x"><path class="xgrid crisp" transform="translate(154.19,0)" d="M0,100v220" style="stroke: rgb(255, 255, 255); stroke-opacity: 1; stroke-width: 1px;"/><path class="xgrid crisp" transform="translate(228.37,0)" d="M0,100v220" style="stroke: rgb(255, 255, 255); stroke-opacity: 1; stroke-width: 1px;"/><path class="xgrid crisp" transform="translate(302.56,0)" d="M0,100v220" style="stroke: rgb(255, 255, 255); stroke-opacity: 1; stroke-width: 1px;"/><path class="xgrid crisp" transform="translate(376.74,0)" d="M0,100v220" style="stroke: rgb(255, 255, 255); stroke-opacity: 1; stroke-width: 1px;"/><path class="xgrid crisp" transform="translate(450.93,0)" d="M0,100v220" style="stroke: rgb(255, 255, 255); stroke-opacity: 1; stroke-width: 1px;"/><path class="xgrid crisp" transform="translate(525.11,0)" d="M0,100v220" style="stroke: rgb(255, 255, 255); stroke-opacity: 1; stroke-width: 1px;"/><path class="xgrid crisp" transform="translate(599.3,0)" d="M0,100v220" style="stroke: rgb(255, 255, 255); stroke-opacity: 1; stroke-width: 1px;"/><path class="xgrid crisp" transform="translate(673.48,0)" d="M0,100v220" style="stroke: rgb(255, 255, 255); stroke-opacity: 1; stroke-width: 1px;"/><path class="xgrid crisp" transform="translate(747.67,0)" d="M0,100v220" style="stroke: rgb(255, 255, 255); stroke-opacity: 1; stroke-width: 1px;"/></g><g class="y"><path class="ygrid crisp" transform="translate(0,242.6)" d="M80,0h740" style="stroke: rgb(255, 255, 255); stroke-opacity: 1; stroke-width: 1px;"/><path class="ygrid crisp" transform="translate(0,176.04000000000002)" d="M80,0h740" style="stroke: rgb(255, 255, 255); stroke-opacity: 1; stroke-width: 1px;"/><path class="ygrid crisp" transform="translate(0,109.49)" d="M80,0h740" style="stroke: rgb(255, 255, 255); stroke-opacity: 1; stroke-width: 1px;"/></g></g><g class="zerolinelayer"><path class="xzl zl crisp" transform="translate(80,0)" d="M0,100v220" style="stroke: rgb(255, 255, 255); stroke-opacity: 1; stroke-width: 2px;"/><path class="yzl zl crisp" transform="translate(0,309.15999999999997)" d="M80,0h740" style="stroke: rgb(255, 255, 255); stroke-opacity: 1; stroke-width: 2px;"/></g><g class="layer-between"><g class="shapelayer"/><g class="imagelayer"/></g><path class="xlines-below"/><path class="ylines-below"/><g class="overlines-below"/><g class="xaxislayer-below"/><g class="yaxislayer-below"/><g class="overaxes-below"/><g class="overplot"><g class="xy" transform="translate(80,100)" clip-path="url(#clipc862a9xyplot)"><g class="scatterlayer mlayer"><g class="trace scatter trace47ca4b" style="stroke-miterlimit: 2; opacity: 1;"><g class="fills"/><g class="errorbars"/><g class="lines"><path class="js-line" d="M0,208.87L5.56,208.8L7.42,208.45L16.69,207.95L18.55,207.61L24.11,207.41L25.96,207.12L35.24,206.23L37.09,205.82L42.66,205.29L44.51,204.86L50.08,204.24L51.93,203.75L57.49,202.83L59.35,202.3L66.77,200.4L68.62,200.03L77.89,197.14L79.75,196.66L118.7,182.4L120.55,181.86L129.82,178.32L131.68,177.69L144.66,172.56L146.52,171.97L161.35,166.66L163.21,165.94L192.88,157.61L194.74,157.37L204.01,155.39L205.86,155.26L215.14,153.23L216.99,153.08L222.56,151.73L224.41,151.61L229.97,150.17L231.83,150.04L237.39,148.5L239.25,148.34L244.81,146.78L246.67,146.55L252.23,144.93L254.09,144.74L259.65,143.04L261.5,142.9L267.07,141.08L268.92,140.9L274.49,139.07L276.34,138.88L281.9,137.06L283.76,136.87L289.32,135.19L291.18,135.07L296.74,133.55L298.6,133.55L304.16,132.3L306.02,132.44L311.58,131.51L313.43,131.72L317.14,131.47L319,131.08L324.56,131.47L326.42,131.15L331.98,131.78L333.83,131.6L339.4,132.54L341.25,132.42L346.82,133.76L348.67,133.79L354.24,135.58L356.09,135.72L361.65,137.84L363.51,138.07L369.07,140.27L370.93,140.43L372.78,141.44L374.64,141.6L380.2,143.58L382.06,143.69L385.76,144.67L387.62,145.45L389.47,145.49L391.33,146.33L396.89,147.03L398.75,147.75L404.31,148.3L406.17,148.95L411.73,149.22L413.58,149.73L419.15,149.79L421,150.21L426.57,150.1L428.42,150.45L433.98,150.33L435.84,150.66L441.4,150.52L443.26,150.84L448.82,150.83L450.68,151.2L456.24,151.57L458.1,152.01L463.66,152.9L465.51,153.52L471.08,154.95L472.93,155.74L478.5,157.8L480.35,158.69L489.62,163.02L491.48,164.17L502.61,170.84L504.46,171.98L526.72,186.32L528.57,187.1L534.14,189.52L535.99,189.76L539.7,190.13L541.55,190.36L552.68,187.17L554.54,185.94L558.25,183.98L560.1,183.29L565.66,179.75L567.52,178.94L573.08,175.25L574.94,174.55L580.5,171.08L582.36,170.38L587.92,167.14L589.77,166.5L595.34,163.56L597.19,162.99L602.76,160.39L604.61,159.98L610.18,157.69L612.03,157.37L617.59,155.62L619.45,155.44L625.01,154.11L626.87,154.02L632.43,153L634.29,153.06L639.85,152.14L641.7,152.09L656.54,148.51L658.4,147.49L663.96,144.75L665.81,143.3L671.38,138.96L673.23,137.01L678.8,130.96L680.65,128.39L686.22,120.74L688.07,117.72L695.49,105.39L697.34,102.24L715.89,65.71L717.74,61.63L727.02,41.45L728.87,37.11L738.15,15.64L740,11" style="vector-effect: none; fill: none; stroke: rgb(128, 0, 128); stroke-opacity: 1; stroke-width: 2px; opacity: 1;"/></g><g class="points"/><g class="text"/></g></g></g></g><g class="zerolinelayer-above"/><path class="xlines-above crisp" d="M0,0" style="fill: none;"/><path class="ylines-above crisp" d="M0,0" style="fill: none;"/><g class="overlines-above"/><g class="xaxislayer-above"><g class="xtick"><text text-anchor="middle" x="0" y="333" transform="translate(80,0)" style="font-family: 'Open Sans', verdana, arial, sans-serif; font-size: 12px; fill: rgb(42, 63, 95); fill-opacity: 1; white-space: pre;">0</text></g><g class="xtick"><text text-anchor="middle" x="0" y="333" style="font-family: 'Open Sans', verdana, arial, sans-serif; font-size: 12px; fill: rgb(42, 63, 95); fill-opacity: 1; white-space: pre;" transform="translate(154.19,0)">2</text></g><g class="xtick"><text text-anchor="middle" x="0" y="333" style="font-family: 'Open Sans', verdana, arial, sans-serif; font-size: 12px; fill: rgb(42, 63, 95); fill-opacity: 1; white-space: pre;" transform="translate(228.37,0)">4</text></g><g class="xtick"><text text-anchor="middle" x="0" y="333" style="font-family: 'Open Sans', verdana, arial, sans-serif; font-size: 12px; fill: rgb(42, 63, 95); fill-opacity: 1; white-space: pre;" transform="translate(302.56,0)">6</text></g><g class="xtick"><text text-anchor="middle" x="0" y="333" style="font-family: 'Open Sans', verdana, arial, sans-serif; font-size: 12px; fill: rgb(42, 63, 95); fill-opacity: 1; white-space: pre;" transform="translate(376.74,0)">8</text></g><g class="xtick"><text text-anchor="middle" x="0" y="333" style="font-family: 'Open Sans', verdana, arial, sans-serif; font-size: 12px; fill: rgb(42, 63, 95); fill-opacity: 1; white-space: pre;" transform="translate(450.93,0)">10</text></g><g class="xtick"><text text-anchor="middle" x="0" y="333" style="font-family: 'Open Sans', verdana, arial, sans-serif; font-size: 12px; fill: rgb(42, 63, 95); fill-opacity: 1; white-space: pre;" transform="translate(525.11,0)">12</text></g><g class="xtick"><text text-anchor="middle" x="0" y="333" style="font-family: 'Open Sans', verdana, arial, sans-serif; font-size: 12px; fill: rgb(42, 63, 95); fill-opacity: 1; white-space: pre;" transform="translate(599.3,0)">14</text></g><g class="xtick"><text text-anchor="middle" x="0" y="333" style="font-family: 'Open Sans', verdana, arial, sans-serif; font-size: 12px; fill: rgb(42, 63, 95); fill-opacity: 1; white-space: pre;" transform="translate(673.48,0)">16</text></g><g class="xtick"><text text-anchor="middle" x="0" y="333" style="font-family: 'Open Sans', verdana, arial, sans-serif; font-size: 12px; fill: rgb(42, 63, 95); fill-opacity: 1; white-space: pre;" transform="translate(747.67,0)">18</text></g></g><g class="yaxislayer-above"><g class="ytick"><text text-anchor="end" x="79" y="4.199999999999999" transform="translate(0,309.15999999999997)" style="font-family: 'Open Sans', verdana, arial, sans-serif; font-size: 12px; fill: rgb(42, 63, 95); fill-opacity: 1; white-space: pre;">0</text></g><g class="ytick"><text text-anchor="end" x="79" y="4.199999999999999" style="font-family: 'Open Sans', verdana, arial, sans-serif; font-size: 12px; fill: rgb(42, 63, 95); fill-opacity: 1; white-space: pre;" transform="translate(0,242.6)">10</text></g><g class="ytick"><text text-anchor="end" x="79" y="4.199999999999999" style="font-family: 'Open Sans', verdana, arial, sans-serif; font-size: 12px; fill: rgb(42, 63, 95); fill-opacity: 1; white-space: pre;" transform="translate(0,176.04000000000002)">20</text></g><g class="ytick"><text text-anchor="end" x="79" y="4.199999999999999" style="font-family: 'Open Sans', verdana, arial, sans-serif; font-size: 12px; fill: rgb(42, 63, 95); fill-opacity: 1; white-space: pre;" transform="translate(0,109.49)">30</text></g></g><g class="overaxes-above"/></g></g><g class="polarlayer"/><g class="smithlayer"/><g class="ternarylayer"/><g class="geolayer"/><g class="funnelarealayer"/><g class="pielayer"/><g class="iciclelayer"/><g class="treemaplayer"/><g class="sunburstlayer"/><g class="glimages"/><defs id="topdefs-c862a9"><g class="clips"/></defs><g class="layer-above"><g class="imagelayer"/><g class="shapelayer"/></g><g class="infolayer"><g class="g-gtitle"><text class="gtitle" x="45" y="50" text-anchor="start" dy="0em" style="opacity: 1; font-family: 'Open Sans', verdana, arial, sans-serif; font-size: 17px; fill: rgb(42, 63, 95); fill-opacity: 1; white-space: pre;">Dream Rollout: 3D Position Error vs Time — Lap_0</text></g><g class="g-xtitle"><text class="xtitle" x="450" y="360.3" text-anchor="middle" style="opacity: 1; font-family: 'Open Sans', verdana, arial, sans-serif; font-size: 14px; fill: rgb(42, 63, 95); fill-opacity: 1; white-space: pre;">Time Horizon (s)</text></g><g class="g-ytitle"><text class="ytitle" transform="rotate(-90,46.240625,210)" x="46.240625" y="210" text-anchor="middle" style="opacity: 1; font-family: 'Open Sans', verdana, arial, sans-serif; font-size: 14px; fill: rgb(42, 63, 95); fill-opacity: 1; white-space: pre;">3D Error (m)</text></g></g></svg>