<svg class="main-svg" xmlns="http://www.w3.org/2000/svg" xmlns:xlink="http://www.w3.org/1999/xlink" width="1100" height="900" style="" viewBox="0 0 1100 900"><rect x="0" y="0" width="1100" height="900" style="fill: rgb(255, 255, 255); fill-opacity: 1;"/><defs id="defs-b27326"><g class="clips"><clipPath id="clipb27326xyplot" class="plotclip"><rect width="873" height="136.79999999999995"/></clipPath><clipPath id="clipb27326x2y2plot" class="plotclip"><rect width="873" height="136.79999999999995"/></clipPath><clipPath id="clipb27326x3y3plot" class="plotclip"><rect width="873" height="136.8"/></clipPath><clipPath id="clipb27326x4y4plot" class="plotclip"><rect width="873" height="136.8"/></clipPath><clipPath class="axesclip" id="clipb27326x"><rect x="80" y="0" width="873" height="900"/></clipPath><clipPath class="axesclip" id="clipb27326y"><rect x="0" y="100" width="1100" height="136.79999999999995"/></clipPath><clipPath class="axesclip" id="clipb27326xy"><rect x="80" y="100" width="873" height="136.79999999999995"/></clipPath><clipPath class="axesclip" id="clipb27326y2"><rect x="0" y="294.4" width="1100" height="136.79999999999995"/></clipPath><clipPath class="axesclip" id="clipb27326xy2"><rect x="80" y="294.4" width="873" height="136.79999999999995"/></clipPath><clipPath class="axesclip" id="clipb27326y3"><rect x="0" y="488.8" width="1100" height="136.8"/></clipPath><clipPath class="axesclip" id="clipb27326xy3"><rect x="80" y="488.8" width="873" height="136.8"/></clipPath><clipPath class="axesclip" id="clipb27326y4"><rect x="0" y="683.2" width="1100" height="136.8"/></clipPath><clipPath class="axesclip" id="clipb27326xy4"><rect x="80" y="683.2" width="873" height="136.8"/></clipPath><clipPath class="axesclip" id="clipb27326x2"><rect x="80" y="0" width="873" height="900"/></clipPath><clipPath class="axesclip" id="clipb27326x2y"><rect x="80" y="100" width="873" height="136.79999999999995"/></clipPath><clipPath class="axesclip" id="clipb27326x2y2"><rect x="80" y="294.4" width="873" height="136.79999999999995"/></clipPath><clipPath class="axesclip" id="clipb27326x2y3"><rect x="80" y="488.8" width="873" height="136.8"/></clipPath><clipPath class="axesclip" id="clipb27326x2y4"><rect x="80" y="683.2" width="873" height="136.8"/></clipPath><clipPath class="axesclip" id="clipb27326x3"><rect x="80" y="0" width="873" height="900"/></clipPath><clipPath class="axesclip" id="clipb27326x3y"><rect x="80" y="100" width="873" height="136.79999999999995"/></clipPath><clipPath class="axesclip" id="clipb27326x3y2"><rect x="80" y="294.4" width="873" height="136.79999999999995"/></clipPath><clipPath class="axesclip" id="clipb27326x3y3"><rect x="80" y="488.8" width="873" height="136.8"/></clipPath><clipPath class="axesclip" id="clipb27326x3y4"><rect x="80" y="683.2" width="873" height="136.8"/></clipPath><clipPath class="axesclip" id="clipb27326x4"><rect x="80" y="0" width="873" height="900"/></clipPath><clipPath class="axesclip" id="clipb27326x4y"><rect x="80" y="100" width="873" height="136.79999999999995"/></clipPath><clipPath class="axesclip" id="clipb27326x4y2"><rect x="80" y="294.4" width="873" height="136.79999999999995"/></clipPath><clipPath class="axesclip" id="clipb27326x4y3"><rect x="80" y="488.8" width="873" height="136.8"/></clipPath><clipPath class="axesclip" id="clipb27326x4y4"><rect x="80" y="683.2" width="873" height="136.8"/></clipPath></g><g class="gradients"/><g class="patterns"/></defs><g class="bglayer"><rect class="bg" x="80" y="100" width="873" height="136.79999999999995" style="fill: rgb(229, 236, 246); fill-opacity: 1; stroke-width: 0;"/><rect class="bg" x="80" y="294.4" width="873" height="136.79999999999995" style="fill: rgb(229, 236, 246); fill-opacity: 1; stroke-width: 0;"/><rect class="bg" x="80" y="488.8" width="873" height="136.8" style="fill: rgb(229, 236, 246); fill-opacity: 1; stroke-width: 0;"/><rect class="bg" x="80" y="683.2" width="873" height="136.8" style="fill: rgb(229, 236, 246); fill-opacity: 1; stroke-width: 0;"/></g><g class="layer-below"><g class="imagelayer"/><g class="shapelayer"/></g><g class="cartesianlayer"><g class="subplot xy"><g class="layer-subplot"><g class="shapelayer"/><g class="imagelayer"/></g><g class="minor-gridlayer"><g class="x"/><g class="y"/></g><g class="gridlayer"><g class="x"><path class="xgrid crisp" transform="translate(167.51999999999998,0)" d="M0,100v136.79999999999995" style="stroke: rgb(255, 255, 255); stroke-opacity: 1; stroke-width: 1px;"/><path class="xgrid crisp" transform="translate(255.04,0)" d="M0,100v136.79999999999995" style="stroke: rgb(255, 255, 255); stroke-opacity: 1; stroke-width: 1px;"/><path class="xgrid crisp" transform="translate(342.56,0)" d="M0,100v136.79999999999995" style="stroke: rgb(255, 255, 255); stroke-opacity: 1; stroke-width: 1px;"/><path class="xgrid crisp" transform="translate(430.08,0)" d="M0,100v136.79999999999995" style="stroke: rgb(255, 255, 255); stroke-opacity: 1; stroke-width: 1px;"/><path class="xgrid crisp" transform="translate(517.5899999999999,0)" d="M0,100v136.79999999999995" style="stroke: rgb(255, 255, 255); stroke-opacity: 1; stroke-width: 1px;"/><path class="xgrid crisp" transform="translate(605.11,0)" d="M0,100v136.79999999999995" style="stroke: rgb(255, 255, 255); stroke-opacity: 1; stroke-width: 1px;"/><path class="xgrid crisp" transform="translate(692.63,0)" d="M0,100v136.79999999999995" style="stroke: rgb(255, 255, 255); stroke-opacity: 1; stroke-width: 1px;"/><path class="xgrid crisp" transform="translate(780.15,0)" d="M0,100v136.79999999999995" style="stroke: rgb(255, 255, 255); stroke-opacity: 1; stroke-width: 1px;"/><path class="xgrid crisp" transform="translate(867.67,0)" d="M0,100v136.79999999999995" style="stroke: rgb(255, 255, 255); stroke-opacity: 1; stroke-width: 1px;"/></g><g class="y"><path class="ygrid crisp" transform="translate(0,207.26)" d="M80,0h873" style="stroke: rgb(255, 255, 255); stroke-opacity: 1; stroke-width: 1px;"/><path class="ygrid crisp" transform="translate(0,174.3)" d="M80,0h873" style="stroke: rgb(255, 255, 255); stroke-opacity: 1; stroke-width: 1px;"/><path class="ygrid crisp" transform="translate(0,141.34)" d="M80,0h873" style="stroke: rgb(255, 255, 255); stroke-opacity: 1; stroke-width: 1px;"/><path class="ygrid crisp" transform="translate(0,108.39)" d="M80,0h873" style="stroke: rgb(255, 255, 255); stroke-opacity: 1; stroke-width: 1px;"/></g></g><g class="zerolinelayer"><path class="xzl zl crisp" transform="translate(80,0)" d="M0,100v136.79999999999995" style="stroke: rgb(255, 255, 255); stroke-opacity: 1; stroke-width: 2px;"/></g><g class="layer-between"><g class="shapelayer"/><g class="imagelayer"/></g><path class="xlines-below"/><path class="ylines-below"/><g class="overlines-below"/><g class="xaxislayer-below"/><g class="yaxislayer-below"/><g class="overaxes-below"/><g class="overplot"><g class="xy" transform="translate(80,100)" clip-path="url(#clipb27326xyplot)"><g class="scatterlayer mlayer"><g class="trace scatter trace55e987" style="stroke-miterlimit: 2; opacity: 1;"><g class="fills"/><g class="errorbars"/><g class="lines"><path class="js-line" d="M0,91.15L17.5,102.22L19.69,103.48L45.95,116.58L48.14,117.39L59.08,121.43L61.26,122.1L72.2,125.32L74.39,125.86L91.89,128.93L94.08,129.23L107.21,129.96L109.4,129.95L120.34,128.95L122.53,128.58L135.65,126.04L137.84,125.37L159.72,118.99L161.91,118.32L188.17,108.94L190.35,107.95L205.67,101.03L207.86,99.84L242.86,83.23L245.05,82.33L271.31,71.22L273.5,70.43L293.19,63.17L295.38,62.16L339.14,43.88L341.32,43.09L361.02,35.22L363.2,34.42L382.89,26.67L385.08,26.01L409.15,17.99L411.34,17.34L428.84,12.72L431.03,12.42L463.85,7.84L466.04,7.68L492.29,6.85L494.48,6.87L525.11,7.89L527.3,8.07L562.31,11.04L564.5,11.3L584.19,12.64L586.38,12.75L612.63,14.79L614.82,15.06L632.32,17.92L634.51,18.39L649.83,22.24L652.02,22.87L671.71,30.1L673.89,31.07L689.21,38.72L691.4,39.84L708.9,50.21L711.09,51.71L730.78,65.04L732.97,66.64L763.6,87.72L765.79,89.11L781.11,98.63L783.29,99.79L794.23,105.89L796.42,106.92L809.55,112.5L811.74,113.3L822.68,116.29L824.86,116.84L837.99,118.98L840.18,119.29L848.93,120.08L851.12,120.11L868.62,119.63L870.81,119.42L873,119.21" style="vector-effect: none; fill: none; stroke: rgb(0, 0, 255); stroke-opacity: 1; stroke-width: 1.5px; opacity: 1;"/></g><g class="points"/><g class="text"/></g><g class="trace scatter trace00262e" style="stroke-miterlimit: 2; opacity: 1;"><g class="fills"/><g class="errorbars"/><g class="lines"><path class="js-line" d="M0,90.12L4.38,91.33L6.56,92.37L13.13,96.5L15.32,98.11L28.44,105.27L30.63,105.92L45.95,111.29L48.14,112.37L54.7,114.72L56.89,115.09L74.39,116.5L76.58,116.37L80.95,116.55L83.14,117.16L89.71,117.05L91.89,116.91L102.83,116.3L105.02,115.89L115.96,113.75L118.15,113.31L144.41,109.53L146.59,109.1L153.16,107.25L155.35,106.34L164.1,103.16L166.29,102.5L177.23,98.58L179.41,97.62L212.23,85.14L214.42,84.62L225.36,80.75L227.55,79.99L255.99,67.9L258.18,66.9L266.93,63.56L269.12,62.49L297.56,50.95L299.75,49.72L306.32,46.51L308.5,45.52L323.82,38.89L326.01,38.15L336.95,35.06L339.14,34.62L343.51,33.93L345.7,33.52L358.83,31.21L361.02,30.84L398.21,25.28L400.4,25.02L411.34,24.5L413.53,24.5L428.84,24.39L431.03,24.14L459.47,19.41L461.66,19.29L505.42,17.58L507.61,17.67L522.92,18.73L525.11,18.98L542.62,21.4L544.8,21.91L566.68,24.84L568.87,24.95L610.44,27.39L612.63,27.94L641.08,35.07L643.26,35.86L652.02,39.32L654.2,40.25L691.4,56.01L693.59,57.43L702.34,61.82L704.53,62.97L728.59,76.37L730.78,77.52L776.73,97.44L778.92,98.08L813.92,111.02L816.11,111.51L829.24,114.18L831.43,114.38L851.12,115.21L853.31,115.16L870.81,113.6L873,113.26" style="vector-effect: none; fill: none; stroke: rgb(255, 0, 0); stroke-opacity: 1; stroke-dasharray: 9px, 9px; stroke-width: 1.5px; opacity: 1;"/></g><g class="points"/><g class="text"/></g></g></g></g><g class="zerolinelayer-above"/><path class="xlines-above crisp" d="M0,0" style="fill: none;"/><path class="ylines-above crisp" d="M0,0" style="fill: none;"/><g class="overlines-above"/><g class="xaxislayer-above"/><g class="yaxislayer-above"><g class="ytick"><text text-anchor="end" x="79" y="4.199999999999999" transform="translate(0,207.26)" style="font-family: 'Open Sans', verdana, arial, sans-serif; font-size: 12px; fill: rgb(42, 63, 95); fill-opacity: 1; white-space: pre;">15</text></g><g class="ytick"><text text-anchor="end" x="79" y="4.199999999999999" style="font-family: 'Open Sans', verdana, arial, sans-serif; font-size: 12px; fill: rgb(42, 63, 95); fill-opacity: 1; white-space: pre;" transform="translate(0,174.3)">20</text></g><g class="ytick"><text text-anchor="end" x="79" y="4.199999999999999" style="font-family: 'Open Sans', verdana, arial, sans-serif; font-size: 12px; fill: rgb(42, 63, 95); fill-opacity: 1; white-space: pre;" transform="translate(0,141.34)">25</text></g><g class="ytick"><text text-anchor="end" x="79" y="4.199999999999999" style="font-family: 'Open Sans', verdana, arial, sans-serif; font-size: 12px; fill: rgb(42, 63, 95); fill-opacity: 1; white-space: pre;" transform="translate(0,108.39)">30</text></g></g><g class="overaxes-above"/></g><g class="subplot x2y2"><g class="layer-subplot"><g class="shapelayer"/><g class="imagelayer"/></g><g class="minor-gridlayer"><g class="x2"/><g class="y2"/></g><g class="gridlayer"><g class="x2"><path class="x2grid crisp" transform="translate(167.51999999999998,0)" d="M0,294.4v136.79999999999995" style="stroke: rgb(255, 255, 255); stroke-opacity: 1; stroke-width: 1px;"/><path class="x2grid crisp" transform="translate(255.04,0)" d="M0,294.4v136.79999999999995" style="stroke: rgb(255, 255, 255); stroke-opacity: 1; stroke-width: 1px;"/><path class="x2grid crisp" transform="translate(342.56,0)" d="M0,294.4v136.79999999999995" style="stroke: rgb(255, 255, 255); stroke-opacity: 1; stroke-width: 1px;"/><path class="x2grid crisp" transform="translate(430.08,0)" d="M0,294.4v136.79999999999995" style="stroke: rgb(255, 255, 255); stroke-opacity: 1; stroke-width: 1px;"/><path class="x2grid crisp" transform="translate(517.5899999999999,0)" d="M0,294.4v136.79999999999995" style="stroke: rgb(255, 255, 255); stroke-opacity: 1; stroke-width: 1px;"/><path class="x2grid crisp" transform="translate(605.11,0)" d="M0,294.4v136.79999999999995" style="stroke: rgb(255, 255, 255); stroke-opacity: 1; stroke-width: 1px;"/><path class="x2grid crisp" transform="translate(692.63,0)" d="M0,294.4v136.79999999999995" style="stroke: rgb(255, 255, 255); stroke-opacity: 1; stroke-width: 1px;"/><path class="x2grid crisp" transform="translate(780.15,0)" d="M0,294.4v136.79999999999995" style="stroke: rgb(255, 255, 255); stroke-opacity: 1; stroke-width: 1px;"/><path class="x2grid crisp" transform="translate(867.67,0)" d="M0,294.4v136.79999999999995" style="stroke: rgb(255, 255, 255); stroke-opacity: 1; stroke-width: 1px;"/></g><g class="y2"><path class="y2grid crisp" transform="translate(0,406.47999999999996)" d="M80,0h873" style="stroke: rgb(255, 255, 255); stroke-opacity: 1; stroke-width: 1px;"/><path class="y2grid crisp" transform="translate(0,350.84)" d="M80,0h873" style="stroke: rgb(255, 255, 255); stroke-opacity: 1; stroke-width: 1px;"/><path class="y2grid crisp" transform="translate(0,323.01)" d="M80,0h873" style="stroke: rgb(255, 255, 255); stroke-opacity: 1; stroke-width: 1px;"/></g></g><g class="zerolinelayer"><path class="x2zl zl crisp" transform="translate(80,0)" d="M0,294.4v136.79999999999995" style="stroke: rgb(255, 255, 255); stroke-opacity: 1; stroke-width: 2px;"/><path class="y2zl zl crisp" transform="translate(0,378.65999999999997)" d="M80,0h873" style="stroke: rgb(255, 255, 255); stroke-opacity: 1; stroke-width: 2px;"/></g><g class="layer-between"><g class="shapelayer"/><g class="imagelayer"/></g><path class="xlines-below"/><path class="ylines-below"/><g class="overlines-below"/><g class="xaxislayer-below"/><g class="yaxislayer-below"/><g class="overaxes-below"/><g class="overplot"><g class="x2y2" transform="translate(80,294.4)" clip-path="url(#clipb27326x2y2plot)"><g class="scatterlayer mlayer"><g class="trace scatter traceb16147" style="stroke-miterlimit: 2; opacity: 1;"><g class="fills"/><g class="errorbars"/><g class="lines"><path class="js-line" d="M0,99.41L2.19,97.29L4.38,99.28L6.56,95.52L8.75,95.87L13.13,94.7L15.32,95.77L17.5,97.24L19.69,95.2L21.88,94.11L24.07,90.73L26.26,91.14L28.44,88.75L32.82,90.74L35.01,89.65L37.2,87L39.38,85.86L41.57,82.37L43.76,83.16L45.95,78.25L48.14,79L54.7,74.73L56.89,75.91L59.08,73.68L61.26,75.96L63.45,72.56L65.64,76.47L67.83,73.33L70.02,78.37L72.2,79.03L74.39,78.07L78.77,74.85L80.95,76.39L83.14,77.57L85.33,74.85L87.52,75.63L89.71,75.25L91.89,73.71L94.08,73.82L96.27,72.06L98.46,71.81L102.83,67.3L105.02,69.73L107.21,66.41L109.4,69.32L111.59,68.61L113.77,69.06L115.96,68.23L118.15,69.53L120.34,68.01L122.53,68.34L126.9,69.04L129.09,67.2L131.28,70.26L133.47,68.65L137.84,72.69L140.03,73.4L142.22,73.62L144.41,76.77L146.59,78.42L148.78,78.74L150.97,79.18L153.16,81.61L155.35,81.73L157.53,83.82L159.72,82.76L161.91,84.87L168.47,85.56L170.66,86.51L172.85,86.03L175.04,87.65L177.23,87.23L179.41,88.35L181.6,89.58L183.79,89.83L190.35,92.43L192.54,92.73L194.73,92.55L196.92,93.96L199.11,95.92L201.29,96.41L205.67,97.41L207.86,96.58L214.42,99.21L216.61,98.29L218.8,97.82L220.98,98.15L225.36,99.9L227.55,99.44L229.74,100.15L231.92,98.97L234.11,98.69L236.3,99.33L238.49,99.89L240.68,99.26L247.24,99.6L249.43,99.14L251.62,101.05L253.8,100L255.99,99L258.18,98.91L260.37,99.64L262.56,98.93L264.74,99.62L266.93,98.01L269.12,98.4L271.31,96.86L273.5,98.59L275.68,96.66L282.25,97.61L284.44,96.35L293.19,94.76L295.38,95.98L299.75,91.33L301.94,90.92L304.13,91.86L306.32,90.89L312.88,93.3L315.07,92.67L317.26,95L319.44,94.66L321.63,94.09L323.82,95.01L330.38,94.6L332.57,92.92L334.76,92.88L336.95,91.14L339.14,92.44L341.32,91.41L343.51,89.77L345.7,90.47L347.89,89.75L350.08,90.52L352.26,90.1L354.45,92.46L356.64,90.71L358.83,92.17L361.02,93.38L363.2,93.16L365.39,94.96L367.58,94.54L371.95,96.26L374.14,95.66L376.33,96.17L378.52,95.16L380.71,94.52L382.89,92.77L393.83,92L396.02,93.07L398.21,92.25L400.4,92.83L404.77,95.6L406.96,95.44L409.15,96.09L411.34,95.5L413.53,95.85L415.71,93.4L417.9,93.91L420.09,93.07L422.28,91.63L424.47,92.24L428.84,89.99L431.03,89.3L437.59,88.2L439.78,88.97L441.97,88.07L444.16,88.06L446.35,86.46L448.53,87.32L450.72,83.62L452.91,83.87L457.29,82.25L459.47,82.98L461.66,83.11L463.85,82.23L466.04,80.93L468.23,80.93L470.41,82.05L472.6,80.94L474.79,82.11L476.98,78.59L483.54,67.08L485.73,66.3L492.29,61.06L494.48,60.76L496.67,58.98L498.86,58.97L501.05,60.55L503.23,58.36L505.42,58.89L507.61,57.81L509.8,56.69L511.98,54.09L516.36,50.91L518.55,50.88L531.68,61.79L533.86,62.28L542.62,57.07L544.8,53.83L546.99,52.02L549.18,46.32L553.56,38.79L555.74,34.69L557.93,30.42L560.12,30.06L564.5,22.79L566.68,22.62L571.06,30.91L573.25,34.8L575.44,38.16L577.62,39.84L579.81,42.23L582,43.24L584.19,43.47L586.38,44.81L590.75,46.91L592.94,45.95L603.88,46.15L606.07,48.12L610.44,58.12L612.63,63.88L614.82,69.11L617.01,76.59L621.38,82.69L623.57,83.83L625.76,84.17L627.95,81.21L632.32,78.79L634.51,79.1L636.7,79.17L638.89,81.23L641.08,81.69L643.26,83.02L647.64,83.12L649.83,83.37L652.02,84.45L654.2,83.16L656.39,84.11L658.58,86.89L662.95,85.89L665.14,87.99L669.52,85.15L671.71,85.66L676.08,84.07L678.27,84.92L687.02,91.21L689.21,92.2L693.59,90.73L695.77,91.07L697.96,88.63L700.15,87.98L704.53,85.52L706.71,85.59L708.9,84.96L711.09,81.82L713.28,82.9L715.47,81.33L717.65,79.95L719.84,81.33L724.22,80.51L726.41,78.69L728.59,79.04L730.78,80.42L732.97,81.9L735.16,80.91L739.53,81.17L741.72,80.03L743.91,80.21L746.1,79.32L748.29,79.37L750.47,77.68L752.66,76.89L754.85,77.44L757.04,76.61L759.23,77.94L761.41,78.56L763.6,82.44L770.17,91.3L772.35,92.57L778.92,93.76L781.11,93.2L783.29,94.99L785.48,94.7L787.67,94.49L789.86,93.5L792.05,92.13L794.23,92.38L796.42,92.33L798.61,93.1L800.8,94.65L802.98,94.72L805.17,93.81L807.36,96.75L809.55,99.12L811.74,100.27L813.92,100.45L816.11,98.47L818.3,98.16L820.49,99.69L824.86,98.83L827.05,99.45L829.24,99.9L831.43,97.58L833.62,99.06L835.8,99.37L842.37,104.99L844.56,105.12L846.74,104.09L848.93,105.22L851.12,104.53L853.31,106.15L857.68,107.79L859.87,107.81L862.06,106.63L864.25,107.7L870.81,106.05L873,106.14" style="vector-effect: none; fill: none; stroke: rgb(0, 0, 255); stroke-opacity: 1; stroke-width: 1.5px; opacity: 1;"/></g><g class="points"/><g class="text"/></g><g class="trace scatter trace58e764" style="stroke-miterlimit: 2; opacity: 1;"><g class="fills"/><g class="errorbars"/><g class="lines"><path class="js-line" d="M0,100.29L2.19,100.23L4.38,98.71L8.75,94.22L10.94,92.81L19.69,89.12L21.88,88.21L26.26,87.25L28.44,85.88L37.2,77.64L39.38,77.11L41.57,76.14L43.76,76.49L48.14,76.72L50.32,77.41L54.7,77.14L56.89,76.15L67.83,69.65L70.02,70.39L72.2,71.79L74.39,71.75L78.77,71.27L80.95,69.95L83.14,68.11L85.33,67.45L91.89,65.32L94.08,65.19L98.46,63.37L100.65,61.82L105.02,59.36L107.21,58.59L113.77,56.94L115.96,56.08L120.34,54.91L122.53,54.92L135.65,56.32L137.84,56.9L142.22,57.93L144.41,58.98L150.97,61.34L153.16,62.84L157.53,65.81L159.72,68.29L164.1,71.09L166.29,72.85L170.66,76.37L172.85,77.07L177.23,78.74L179.41,79.48L185.98,83.27L188.17,83.91L199.11,89.56L201.29,91.01L205.67,91.93L207.86,91.52L218.8,93.2L220.98,93.92L229.74,94.84L231.92,96.27L236.3,97.38L238.49,97.49L240.68,97.86L242.86,99.19L247.24,100.59L249.43,101L255.99,103.13L258.18,102.25L262.56,101.45L264.74,101.92L266.93,101.66L269.12,100.33L273.5,97.78L275.68,97.51L286.62,97.03L288.81,97.88L295.38,98.83L297.56,98.61L301.94,98.69L304.13,98.68L312.88,98.56L315.07,98.57L332.57,93.67L334.76,91.72L341.32,88.29L343.51,87.41L347.89,86.35L350.08,85.8L354.45,86.23L356.64,86.31L367.58,87.66L369.77,88.1L374.14,88.41L376.33,88.13L385.08,85.8L387.27,85.31L393.83,84.19L396.02,84.13L406.96,83.93L409.15,83.11L413.53,81.84L415.71,81.74L437.59,76.76L439.78,76.6L444.16,76.06L446.35,75.23L450.72,71.45L452.91,68.29L457.29,63.84L459.47,62.68L468.23,59.59L470.41,58.84L474.79,55.39L476.98,52.63L481.35,46.12L483.54,44.69L496.67,34.29L498.86,31.3L503.23,29.89L505.42,28.88L509.8,25.58L511.98,24.38L516.36,21.03L518.55,19.66L525.11,17.76L527.3,17.58L542.62,12.18L544.8,10.56L553.56,7.33L555.74,6.97L560.12,7.08L562.31,7.54L566.68,11.22L568.87,14.58L582,33.36L584.19,36.03L599.5,48.82L601.69,49.62L606.07,49.04L608.26,47.52L610.44,47.43L612.63,48.62L621.38,61.99L623.57,66.09L627.95,75.03L630.14,80.17L634.51,87.81L636.7,90.66L641.08,94.52L643.26,96.18L652.02,97.5L654.2,97.28L660.77,98.93L662.95,100.87L669.52,105.74L671.71,106.74L678.27,104.88L680.46,103.97L687.02,106.3L689.21,107.1L697.96,112.7L700.15,114.1L704.53,116.43L706.71,117.56L715.47,120.35L717.65,120.93L728.59,122.59L730.78,122.75L732.97,122.62L735.16,123.33L739.53,122.4L741.72,122.93L743.91,123.91L746.1,123.5L750.47,125.28L752.66,124.82L757.04,126.03L759.23,126.02L763.6,126.89L765.79,126.23L770.17,127.15L772.35,126.76L778.92,129.21L781.11,128.61L785.48,129.43L787.67,129.96L789.86,128.37L792.05,129.13L800.8,127.93L802.98,128.75L811.74,127.44L813.92,126.34L816.11,125.88L818.3,124.51L820.49,123.95L822.68,122.41L829.24,119.72L831.43,118.07L837.99,117L840.18,116.06L864.25,118.49L866.44,118.08L873,118.02" style="vector-effect: none; fill: none; stroke: rgb(255, 0, 0); stroke-opacity: 1; stroke-dasharray: 9px, 9px; stroke-width: 1.5px; opacity: 1;"/></g><g class="points"/><g class="text"/></g></g></g></g><g class="zerolinelayer-above"/><path class="xlines-above crisp" d="M0,0" style="fill: none;"/><path class="ylines-above crisp" d="M0,0" style="fill: none;"/><g class="overlines-above"/><g class="xaxislayer-above"/><g class="yaxislayer-above"><g class="y2tick"><text text-anchor="end" x="79" y="4.199999999999999" transform="translate(0,406.47999999999996)" style="font-family: 'Open Sans', verdana, arial, sans-serif; font-size: 12px; fill: rgb(42, 63, 95); fill-opacity: 1; white-space: pre;">−0.5</text></g><g class="y2tick"><text text-anchor="end" x="79" y="4.199999999999999" style="font-family: 'Open Sans', verdana, arial, sans-serif; font-size: 12px; fill: rgb(42, 63, 95); fill-opacity: 1; white-space: pre;" transform="translate(0,378.65999999999997)">0</text></g><g class="y2tick"><text text-anchor="end" x="79" y="4.199999999999999" style="font-family: 'Open Sans', verdana, arial, sans-serif; font-size: 12px; fill: rgb(42, 63, 95); fill-opacity: 1; white-space: pre;" transform="translate(0,350.84)">0.5</text></g><g class="y2tick"><text text-anchor="end" x="79" y="4.199999999999999" style="font-family: 'Open Sans', verdana, arial, sans-serif; font-size: 12px; fill: rgb(42, 63, 95); fill-opacity: 1; white-space: pre;" transform="translate(0,323.01)">1</text></g><g class="y2tick"><text text-anchor="end" x="79" y="4.199999999999999" style="font-family: 'Open Sans', verdana, arial, sans-serif; font-size: 12px; fill: rgb(42, 63, 95); fill-opacity: 1; white-space: pre;" transform="translate(0,295.19)">1.5</text></g></g><g class="overaxes-above"/></g><g class="subplot x3y3"><g class="layer-subplot"><g class="shapelayer"/><g class="imagelayer"/></g><g class="minor-gridlayer"><g class="x3"/><g class="y3"/></g><g class="gridlayer"><g class="x3"><path class="x3grid crisp" transform="translate(167.51999999999998,0)" d="M0,488.8v136.8" style="stroke: rgb(255, 255, 255); stroke-opacity: 1; stroke-width: 1px;"/><path class="x3grid crisp" transform="translate(255.04,0)" d="M0,488.8v136.8" style="stroke: rgb(255, 255, 255); stroke-opacity: 1; stroke-width: 1px;"/><path class="x3grid crisp" transform="translate(342.56,0)" d="M0,488.8v136.8" style="stroke: rgb(255, 255, 255); stroke-opacity: 1; stroke-width: 1px;"/><path class="x3grid crisp" transform="translate(430.08,0)" d="M0,488.8v136.8" style="stroke: rgb(255, 255, 255); stroke-opacity: 1; stroke-width: 1px;"/><path class="x3grid crisp" transform="translate(517.5899999999999,0)" d="M0,488.8v136.8" style="stroke: rgb(255, 255, 255); stroke-opacity: 1; stroke-width: 1px;"/><path class="x3grid crisp" transform="translate(605.11,0)" d="M0,488.8v136.8" style="stroke: rgb(255, 255, 255); stroke-opacity: 1; stroke-width: 1px;"/><path class="x3grid crisp" transform="translate(692.63,0)" d="M0,488.8v136.8" style="stroke: rgb(255, 255, 255); stroke-opacity: 1; stroke-width: 1px;"/><path class="x3grid crisp" transform="translate(780.15,0)" d="M0,488.8v136.8" style="stroke: rgb(255, 255, 255); stroke-opacity: 1; stroke-width: 1px;"/><path class="x3grid crisp" transform="translate(867.67,0)" d="M0,488.8v136.8" style="stroke: rgb(255, 255, 255); stroke-opacity: 1; stroke-width: 1px;"/></g><g class="y3"><path class="y3grid crisp" transform="translate(0,596.79)" d="M80,0h873" style="stroke: rgb(255, 255, 255); stroke-opacity: 1; stroke-width: 1px;"/><path class="y3grid crisp" transform="translate(0,527.03)" d="M80,0h873" style="stroke: rgb(255, 255, 255); stroke-opacity: 1; stroke-width: 1px;"/><path class="y3grid crisp" transform="translate(0,492.15000000000003)" d="M80,0h873" style="stroke: rgb(255, 255, 255); stroke-opacity: 1; stroke-width: 1px;"/></g></g><g class="zerolinelayer"><path class="x3zl zl crisp" transform="translate(80,0)" d="M0,488.8v136.8" style="stroke: rgb(255, 255, 255); stroke-opacity: 1; stroke-width: 2px;"/><path class="y3zl zl crisp" transform="translate(0,561.91)" d="M80,0h873" style="stroke: rgb(255, 255, 255); stroke-opacity: 1; stroke-width: 2px;"/></g><g class="layer-between"><g class="shapelayer"/><g class="imagelayer"/></g><path class="xlines-below"/><path class="ylines-below"/><g class="overlines-below"/><g class="xaxislayer-below"/><g class="yaxislayer-below"/><g class="overaxes-below"/><g class="overplot"><g class="x3y3" transform="translate(80,488.8)" clip-path="url(#clipb27326x3y3plot)"><g class="scatterlayer mlayer"><g class="trace scatter trace798bc9" style="stroke-miterlimit: 2; opacity: 1;"><g class="fills"/><g class="errorbars"/><g class="lines"><path class="js-line" d="M0,58.46L4.38,61.25L6.56,62.65L10.94,63.69L13.13,62.99L17.5,67.18L19.69,67.88L24.07,69.97L26.26,69.97L30.63,68.57L32.82,69.62L35.01,70.32L37.2,69.97L48.14,68.23L50.32,68.92L54.7,68.23L56.89,67.88L59.08,69.27L61.26,67.53L63.45,68.57L65.64,67.18L72.2,69.62L74.39,67.88L76.58,68.92L78.77,68.57L80.95,69.62L83.14,69.62L87.52,70.32L89.71,68.92L98.46,69.97L100.65,68.92L105.02,69.62L107.21,68.92L109.4,67.88L111.59,68.92L113.77,68.23L115.96,68.92L120.34,68.23L122.53,66.83L124.71,66.13L126.9,66.48L129.09,65.78L131.28,66.83L133.47,66.48L135.65,67.18L140.03,66.48L142.22,67.53L148.78,66.48L150.97,67.53L155.35,68.23L157.53,67.53L161.91,67.53L164.1,67.53L170.66,67.88L172.85,68.57L185.98,67.18L188.17,67.18L194.73,69.27L196.92,68.57L201.29,69.97L203.48,69.62L205.67,71.02L207.86,71.02L212.23,68.92L214.42,69.27L218.8,68.57L220.98,69.97L225.36,71.02L227.55,70.32L231.92,72.41L234.11,72.76L236.3,72.41L238.49,71.02L242.86,70.32L245.05,70.32L247.24,69.62L249.43,71.02L253.8,69.27L255.99,69.62L258.18,69.62L260.37,70.67L262.56,69.62L264.74,70.67L271.31,71.36L273.5,69.62L275.68,70.67L277.87,70.32L280.06,71.02L282.25,70.67L284.44,71.71L286.62,71.02L288.81,72.41L291,72.06L295.38,72.41L297.56,71.71L299.75,71.02L301.94,71.36L310.69,72.41L312.88,73.81L317.26,72.76L319.44,72.76L323.82,73.46L326.01,73.81L330.38,75.2L332.57,74.15L341.32,73.46L343.51,74.5L347.89,73.46L350.08,74.5L354.45,74.85L356.64,72.76L363.2,68.92L365.39,67.18L369.77,66.13L371.95,65.09L380.71,63.34L382.89,61.6L385.08,59.16L387.27,58.81L389.46,57.06L391.65,56.72L393.83,55.32L396.02,52.88L398.21,50.79L400.4,47.65L402.59,42.76L404.77,40.67L411.34,38.23L413.53,35.44L415.71,34.39L417.9,31.95L422.28,27.77L424.47,27.07L426.65,25.67L428.84,23.23L435.41,18.35L437.59,15.91L439.78,13.47L441.97,14.86L446.35,15.91L448.53,13.12L452.91,9.98L455.1,9.63L457.29,7.89L459.47,8.93L461.66,10.68L463.85,9.98L468.23,6.84L470.41,7.89L474.79,12.77L476.98,13.47L479.17,12.77L481.35,13.47L485.73,14.86L487.92,15.56L492.29,14.16L494.48,16.26L496.67,15.91L498.86,16.95L501.05,17.65L503.23,20.09L505.42,21.84L507.61,24.63L509.8,22.54L511.98,22.19L516.36,23.58L518.55,21.84L527.3,20.44L529.49,22.19L533.86,26.02L536.05,27.07L538.24,28.12L540.43,31.6L544.8,40.32L546.99,44.16L551.37,53.23L553.56,59.51L555.74,63.34L557.93,69.27L562.31,76.6L564.5,76.95L566.68,80.08L568.87,84.97L575.44,101.01L577.62,103.45L586.38,116.36L588.56,119.15L592.94,121.94L595.13,124.38L599.5,127.52L601.69,129.26L603.88,129.96L606.07,129.26L612.63,126.47L614.82,126.12L619.2,121.24L621.38,121.94L625.76,120.19L627.95,116.36L634.51,101.36L636.7,98.57L641.08,94.38L643.26,93.69L645.45,92.64L647.64,90.55L652.02,84.27L654.2,79.04L660.77,71.36L662.95,69.97L665.14,67.88L667.33,67.53L669.52,66.83L671.71,64.74L676.08,57.76L678.27,54.62L680.46,51.14L682.65,49.39L684.83,44.86L687.02,42.76L689.21,40.67L691.4,41.02L695.77,39.28L697.96,37.18L700.15,37.18L702.34,38.58L708.9,42.07L711.09,42.76L719.84,49.39L722.03,50.09L724.22,49.39L726.41,49.74L730.78,49.74L732.97,51.14L739.53,52.53L741.72,53.58L746.1,57.41L748.29,58.46L750.47,60.55L752.66,59.85L757.04,61.25L759.23,61.6L763.6,62.99L765.79,63.69L767.98,62.3L770.17,64.04L772.35,62.3L774.54,61.95L783.29,60.2L785.48,59.16L794.23,58.11L796.42,59.16L800.8,56.72L802.98,56.72L805.17,58.46L807.36,58.81L813.92,57.41L816.11,58.46L818.3,59.85L820.49,59.85L822.68,60.2L824.86,59.51L827.05,58.46L829.24,59.16L831.43,59.85L833.62,59.51L835.8,60.55L837.99,60.55L842.37,60.55L844.56,60.55L846.74,61.6L848.93,60.9L855.5,61.6L857.68,60.55L859.87,61.95L862.06,61.25L870.81,63.34L873,63.69" style="vector-effect: none; fill: none; stroke: rgb(0, 0, 255); stroke-opacity: 1; stroke-width: 1.5px; opacity: 1;"/></g><g class="points"/><g class="text"/></g><g class="trace scatter trace6258a4" style="stroke-miterlimit: 2; opacity: 1;"><g class="fills"/><g class="errorbars"/><g class="lines"><path class="js-line" d="M0,59.04L4.38,60.56L6.56,62.18L10.94,64.01L13.13,64.83L17.5,67.35L19.69,68.02L24.07,68.54L26.26,68.45L30.63,68.79L32.82,69.55L37.2,71.17L39.38,71.59L45.95,73.48L48.14,73.41L52.51,72.85L54.7,72.46L59.08,71.26L61.26,71.14L65.64,72.78L67.83,72.66L76.58,73.07L78.77,73.86L85.33,74.26L87.52,74.99L89.71,75.12L91.89,76.04L96.27,77.36L98.46,76.7L109.4,75.75L111.59,74.71L118.15,72.24L120.34,72.02L137.84,68.44L140.03,68.52L153.16,66.05L155.35,65.28L159.72,64.43L161.91,64.59L181.6,64.95L183.79,64.58L188.17,64.23L190.35,64.95L203.48,67.51L205.67,68.28L210.05,68.75L212.23,68.24L216.61,68.26L218.8,69.2L223.17,70.33L225.36,70.65L234.11,72.39L236.3,72.1L240.68,72.31L242.86,72.93L249.43,73.7L251.62,74.38L255.99,75.37L258.18,74.97L262.56,76.06L264.74,77L266.93,77.49L269.12,77.18L277.87,76.14L280.06,75.22L284.44,73.51L286.62,73.24L293.19,72.01L295.38,71.54L299.75,70.63L301.94,69.88L312.88,68.7L315.07,68.29L317.26,68.03L319.44,66.79L339.14,59.69L341.32,58.15L358.83,47.32L361.02,46.73L380.71,39.32L382.89,38.87L391.65,37.58L393.83,37.8L402.59,39.64L404.77,40.97L415.71,48.57L417.9,50.18L431.03,59.26L433.22,60.08L439.78,61.44L441.97,61.71L452.91,64.57L455.1,64.37L468.23,64.56L470.41,66L472.6,67.57L474.79,68.04L479.17,67.17L481.35,67.69L483.54,67.49L485.73,66.52L490.11,66.21L492.29,66.64L494.48,66.59L496.67,65.48L503.23,64.73L505.42,63.07L511.98,61.7L514.17,60.34L518.55,58.8L520.74,58.18L525.11,55.99L527.3,56.03L531.68,54.86L533.86,54.15L538.24,54.84L540.43,54.9L546.99,55.36L549.18,55.9L555.74,57.59L557.93,57.41L564.5,57.9L566.68,58.65L573.25,61.26L575.44,61.44L584.19,62.98L586.38,63.66L595.13,66.47L597.32,67.7L601.69,71.19L603.88,72.11L617.01,72.61L619.2,71.69L627.95,66.37L630.14,66.1L638.89,67.75L641.08,68.23L647.64,68.98L649.83,68.38L656.39,66.91L658.58,67.63L669.52,70.23L671.71,70.25L676.08,69.25L678.27,68.42L680.46,67.62L682.65,67.95L693.59,70.37L695.77,71.01L697.96,72.2L700.15,72.01L708.9,74.49L711.09,74.48L717.65,75.31L719.84,75.07L722.03,75.71L724.22,74.97L730.78,75.18L732.97,74.43L737.35,74.67L739.53,75.23L741.72,75.04L743.91,75.76L746.1,76.46L748.29,76.06L752.66,76.64L754.85,76.72L772.35,77.23L774.54,77.23L785.48,76.93L787.67,77.39L792.05,77.19L794.23,77.27L800.8,77.53L802.98,77.91L809.55,77.56L811.74,77.7L816.11,78.1L818.3,78.28L822.68,79.27L824.86,79.52L842.37,78.38L844.56,77.74L846.74,77.03L848.93,77.11L853.31,76.4L855.5,75.92L864.25,75.01L866.44,74.87L873,74.08" style="vector-effect: none; fill: none; stroke: rgb(255, 0, 0); stroke-opacity: 1; stroke-dasharray: 9px, 9px; stroke-width: 1.5px; opacity: 1;"/></g><g class="points"/><g class="text"/></g></g></g></g><g class="zerolinelayer-above"/><path class="xlines-above crisp" d="M0,0" style="fill: none;"/><path class="ylines-above crisp" d="M0,0" style="fill: none;"/><g class="overlines-above"/><g class="xaxislayer-above"/><g class="yaxislayer-above"><g class="y3tick"><text text-anchor="end" x="79" y="4.199999999999999" transform="translate(0,596.79)" style="font-family: 'Open Sans', verdana, arial, sans-serif; font-size: 12px; fill: rgb(42, 63, 95); fill-opacity: 1; white-space: pre;">−1</text></g><g class="y3tick"><text text-anchor="end" x="79" y="4.199999999999999" style="font-family: 'Open Sans', verdana, arial, sans-serif; font-size: 12px; fill: rgb(42, 63, 95); fill-opacity: 1; white-space: pre;" transform="translate(0,561.91)">0</text></g><g class="y3tick"><text text-anchor="end" x="79" y="4.199999999999999" style="font-family: 'Open Sans', verdana, arial, sans-serif; font-size: 12px; fill: rgb(42, 63, 95); fill-opacity: 1; white-space: pre;" transform="translate(0,527.03)">1</text></g><g class="y3tick"><text text-anchor="end" x="79" y="4.199999999999999" style="font-family: 'Open Sans', verdana, arial, sans-serif; font-size: 12px; fill: rgb(42, 63, 95); fill-opacity: 1; white-space: pre;" transform="translate(0,492.15000000000003)">2</text></g></g><g class="overaxes-above"/></g><g class="subplot x4y4"><g class="layer-subplot"><g class="shapelayer"/><g class="imagelayer"/></g><g class="minor-gridlayer"><g class="x4"/><g class="y4"/></g><g class="gridlayer"><g class="x4"><path class="x4grid crisp" transform="translate(167.51999999999998,0)" d="M0,683.2v136.8" style="stroke: rgb(255, 255, 255); stroke-opacity: 1; stroke-width: 1px;"/><path class="x4grid crisp" transform="translate(255.04,0)" d="M0,683.2v136.8" style="stroke: rgb(255, 255, 255); stroke-opacity: 1; stroke-width: 1px;"/><path class="x4grid crisp" transform="translate(342.56,0)" d="M0,683.2v136.8" style="stroke: rgb(255, 255, 255); stroke-opacity: 1; stroke-width: 1px;"/><path class="x4grid crisp" transform="translate(430.08,0)" d="M0,683.2v136.8" style="stroke: rgb(255, 255, 255); stroke-opacity: 1; stroke-width: 1px;"/><path class="x4grid crisp" transform="translate(517.5899999999999,0)" d="M0,683.2v136.8" style="stroke: rgb(255, 255, 255); stroke-opacity: 1; stroke-width: 1px;"/><path class="x4grid crisp" transform="translate(605.11,0)" d="M0,683.2v136.8" style="stroke: rgb(255, 255, 255); stroke-opacity: 1; stroke-width: 1px;"/><path class="x4grid crisp" transform="translate(692.63,0)" d="M0,683.2v136.8" style="stroke: rgb(255, 255, 255); stroke-opacity: 1; stroke-width: 1px;"/><path class="x4grid crisp" transform="translate(780.15,0)" d="M0,683.2v136.8" style="stroke: rgb(255, 255, 255); stroke-opacity: 1; stroke-width: 1px;"/><path class="x4grid crisp" transform="translate(867.67,0)" d="M0,683.2v136.8" style="stroke: rgb(255, 255, 255); stroke-opacity: 1; stroke-width: 1px;"/></g><g class="y4"><path class="y4grid crisp" transform="translate(0,772.76)" d="M80,0h873" style="stroke: rgb(255, 255, 255); stroke-opacity: 1; stroke-width: 1px;"/><path class="y4grid crisp" transform="translate(0,724.83)" d="M80,0h873" style="stroke: rgb(255, 255, 255); stroke-opacity: 1; stroke-width: 1px;"/></g></g><g class="zerolinelayer"><path class="x4zl zl crisp" transform="translate(80,0)" d="M0,683.2v136.8" style="stroke: rgb(255, 255, 255); stroke-opacity: 1; stroke-width: 2px;"/></g><g class="layer-between"><g class="shapelayer"/><g class="imagelayer"/></g><path class="xlines-below"/><path class="ylines-below"/><g class="overlines-below"/><g class="xaxislayer-below"/><g class="yaxislayer-below"/><g class="overaxes-below"/><g class="overplot"><g class="x4y4" transform="translate(80,683.2)" clip-path="url(#clipb27326x4y4plot)"><g class="scatterlayer mlayer"><g class="trace scatter tracee7ef17" style="stroke-miterlimit: 2; opacity: 1;"><g class="fills"/><g class="errorbars"/><g class="lines"><path class="js-line" d="M0,129.96L4.38,117.67L6.56,114.57L10.94,112.49L13.13,114.21L15.32,115.78L17.5,116.21L21.88,115.28L24.07,118.24L26.26,118.9L28.44,116.18L35.01,104.96L37.2,102.66L41.57,99.65L43.76,99.18L45.95,98.55L48.14,100.26L50.32,100.82L52.51,100.48L56.89,97.23L59.08,92.67L63.45,85.96L65.64,82.49L67.83,79.52L70.02,78.7L78.77,61.32L80.95,59.96L83.14,62.04L85.33,60.56L91.89,49.32L94.08,46.75L96.27,45.89L98.46,42.92L113.77,24.02L115.96,22.52L118.15,20.77L120.34,21.12L126.9,23.73L129.09,24.06L131.28,24.07L133.47,25.55L140.03,30.21L142.22,32.31L148.78,36.91L150.97,36.96L155.35,34.36L157.53,32.26L161.91,30.98L164.1,31.76L168.47,33.49L170.66,34.11L172.85,34.4L175.04,33.47L179.41,31.33L181.6,31.3L183.79,30.9L185.98,31.46L190.35,31.88L192.54,31.13L194.73,31.22L196.92,32.58L203.48,39.56L205.67,40.35L207.86,42.43L210.05,43.34L216.61,53.05L218.8,54.36L225.36,62L227.55,63.75L234.11,66.51L236.3,67.5L240.68,70.42L242.86,70.65L247.24,69.24L249.43,70.36L251.62,71.12L253.8,69.94L255.99,66.95L258.18,65.66L262.56,69.22L264.74,69.28L269.12,67.41L271.31,67.19L280.06,65.57L282.25,66.35L286.62,63.79L288.81,64.53L293.19,62.6L295.38,64.45L299.75,61.33L301.94,62.55L304.13,61.27L306.32,58.39L308.5,58.57L310.69,57.61L312.88,55.89L315.07,55.2L317.26,53.78L319.44,53.9L326.01,56.35L328.2,56.84L330.38,58.24L332.57,61.13L336.95,64.11L339.14,67.53L341.32,71.64L343.51,72.99L345.7,75.22L347.89,78.72L354.45,83.86L356.64,88.22L358.83,88.4L361.02,91.33L365.39,97.9L367.58,99.12L374.14,103.62L376.33,104.37L378.52,104.75L380.71,103.84L385.08,107.61L387.27,106.57L389.46,106.52L391.65,105.14L398.21,104.06L400.4,103.1L402.59,101.79L404.77,97.93L406.96,94.04L409.15,88.36L415.71,72.04L417.9,65.48L426.65,43.61L428.84,39.49L435.41,34.32L437.59,33.12L439.78,31.52L441.97,32.47L446.35,32.38L448.53,28.94L452.91,25.43L455.1,25.96L457.29,24.02L459.47,24.65L461.66,25.64L463.85,24.67L470.41,18.8L472.6,19.22L479.17,23.17L481.35,23.92L485.73,27.02L487.92,29.07L492.29,27.64L494.48,29.29L501.05,32.74L503.23,36.02L507.61,40.5L509.8,39.34L514.17,41.38L516.36,42.31L520.74,40.08L522.92,39.05L525.11,38.34L527.3,36.61L529.49,36.42L531.68,34.96L533.86,35.5L536.05,35.02L542.62,36.76L544.8,36.71L546.99,36.23L549.18,38.55L551.37,39.68L553.56,39.9L557.93,40.71L560.12,38.21L562.31,36.7L564.5,36.81L571.06,32.82L573.25,31.22L575.44,27.51L577.62,26.32L579.81,24.3L582,23.57L586.38,18.83L588.56,17.2L597.32,15.72L599.5,16.72L601.69,17.35L603.88,16.58L606.07,18.04L608.26,17.27L610.44,17.25L612.63,16.21L614.82,14.93L617.01,14.96L619.2,14.65L621.38,12.23L625.76,9.69L627.95,11.34L634.51,21.07L636.7,21.54L638.89,21.76L641.08,20.43L643.26,18.94L645.45,18.75L647.64,15.81L649.83,15.55L654.2,14.67L656.39,13.63L660.77,12.65L662.95,13.81L665.14,13.48L667.33,11.33L669.52,11.56L671.71,10.46L673.89,11.45L676.08,11.49L678.27,12.37L680.46,12.18L684.83,14.63L687.02,14L689.21,13.7L691.4,12.48L697.96,6.84L700.15,8.54L702.34,11.65L704.53,12.42L706.71,13.89L708.9,14.28L717.65,18.24L719.84,21.07L722.03,22.37L724.22,25.69L730.78,33.62L732.97,39.13L737.35,47.88L739.53,48.89L746.1,59.78L748.29,62.11L754.85,71.02L757.04,72.9L761.41,78.36L763.6,84L767.98,92.01L770.17,96.14L772.35,97.99L774.54,98.38L778.92,99.74L781.11,99.72L783.29,100.04L785.48,98.76L787.67,97.33L789.86,97.39L792.05,94.26L794.23,94.35L796.42,95.14L798.61,94.35L802.98,92.65L805.17,93.66L809.55,96.43L811.74,96.24L816.11,94.93L818.3,96.04L822.68,96.55L824.86,95.7L827.05,95.49L829.24,96.14L833.62,95.51L835.8,96.35L837.99,96.47L840.18,95.62L844.56,94.83L846.74,94.74L848.93,94.16L851.12,94.43L855.5,94.72L857.68,93.55L859.87,94.61L862.06,92.58L868.62,92.03L870.81,91.36L873,90.78" style="vector-effect: none; fill: none; stroke: rgb(128, 0, 128); stroke-opacity: 1; stroke-width: 1.5px; opacity: 1;"/></g><g class="points"/><g class="text"/></g></g></g></g><g class="zerolinelayer-above"/><path class="xlines-above crisp" d="M0,0" style="fill: none;"/><path class="ylines-above crisp" d="M0,0" style="fill: none;"/><g class="overlines-above"/><g class="xaxislayer-above"><g class="x4tick"><text text-anchor="middle" x="0" y="833" transform="translate(80,0)" style="font-family: 'Open Sans', verdana, arial, sans-serif; font-size: 12px; fill: rgb(42, 63, 95); fill-opacity: 1; white-space: pre;">0</text></g><g class="x4tick"><text text-anchor="middle" x="0" y="833" style="font-family: 'Open Sans', verdana, arial, sans-serif; font-size: 12px; fill: rgb(42, 63, 95); fill-opacity: 1; white-space: pre;" transform="translate(167.51999999999998,0)">2</text></g><g class="x4tick"><text text-anchor="middle" x="0" y="833" style="font-family: 'Open Sans', verdana, arial, sans-serif; font-size: 12px; fill: rgb(42, 63, 95); fill-opacity: 1; white-space: pre;" transform="translate(255.04,0)">4</text></g><g class="x4tick"><text text-anchor="middle" x="0" y="833" style="font-family: 'Open Sans', verdana, arial, sans-serif; font-size: 12px; fill: rgb(42, 63, 95); fill-opacity: 1; white-space: pre;" transform="translate(342.56,0)">6</text></g><g class="x4tick"><text text-anchor="middle" x="0" y="833" style="font-family: 'Open Sans', verdana, arial, sans-serif; font-size: 12px; fill: rgb(42, 63, 95); fill-opacity: 1; white-space: pre;" transform="translate(430.08,0)">8</text></g><g class="x4tick"><text text-anchor="middle" x="0" y="833" style="font-family: 'Open Sans', verdana, arial, sans-serif; font-size: 12px; fill: rgb(42, 63, 95); fill-opacity: 1; white-space: pre;" transform="translate(517.5899999999999,0)">10</text></g><g class="x4tick"><text text-anchor="middle" x="0" y="833" style="font-family: 'Open Sans', verdana, arial, sans-serif; font-size: 12px; fill: rgb(42, 63, 95); fill-opacity: 1; white-space: pre;" transform="translate(605.11,0)">12</text></g><g class="x4tick"><text text-anchor="middle" x="0" y="833" style="font-family: 'Open Sans', verdana, arial, sans-serif; font-size: 12px; fill: rgb(42, 63, 95); fill-opacity: 1; white-space: pre;" transform="translate(692.63,0)">14</text></g><g class="x4tick"><text text-anchor="middle" x="0" y="833" style="font-family: 'Open Sans', verdana, arial, sans-serif; font-size: 12px; fill: rgb(42, 63, 95); fill-opacity: 1; white-space: pre;" transform="translate(780.15,0)">16</text></g><g class="x4tick"><text text-anchor="middle" x="0" y="833" style="font-family: 'Open Sans', verdana, arial, sans-serif; font-size: 12px; fill: rgb(42, 63, 95); fill-opacity: 1; white-space: pre;" transform="translate(867.67,0)">18</text></g></g><g class="yaxislayer-above"><g class="y4tick"><text text-anchor="end" x="79" y="4.199999999999999" transform="translate(0,772.76)" style="font-family: 'Open Sans', verdana, arial, sans-serif; font-size: 12px; fill: rgb(42, 63, 95); fill-opacity: 1; white-space: pre;">1</text></g><g class="y4tick"><text text-anchor="end" x="79" y="4.199999999999999" style="font-family: 'Open Sans', verdana, arial, sans-serif; font-size: 12px; fill: rgb(42, 63, 95); fill-opacity: 1; white-space: pre;" transform="translate(0,724.83)">2</text></g></g><g class="overaxes-above"/></g></g><g class="polarlayer"/><g class="smithlayer"/><g class="ternarylayer"/><g class="geolayer"/><g class="funnelarealayer"/><g class="pielayer"/><g class="iciclelayer"/><g class="treemaplayer"/><g class="sunburstlayer"/><g class="glimages"/><defs id="topdefs-b27326"><g class="clips"/><clipPath id="legendb27326"><rect width="118" height="48" x="0" y="0"/></clipPath></defs><g class="layer-above"><g class="imagelayer"/><g class="shapelayer"/></g><g class="infolayer"><g class="legend" pointer-events="all" transform="translate(970.46,100)"><rect class="bg" shape-rendering="crispEdges" style="stroke: rgb(68, 68, 68); stroke-opacity: 1; fill: rgb(255, 255, 255); fill-opacity: 1; stroke-width: 0px;" width="118" height="48" x="0" y="0"/><g class="scrollbox" transform="" clip-path="url(#legendb27326)"><g class="groups"><g class="traces" transform="translate(0,14.5)" style="opacity: 1;"><text class="legendtext" text-anchor="start" x="40" y="4.680000000000001" style="font-family: 'Open Sans', verdana, arial, sans-serif; font-size: 12px; fill: rgb(42, 63, 95); fill-opacity: 1; white-space: pre;">GT Vx_mps</text><g class="layers" style="opacity: 1;"><g class="legendfill"/><g class="legendlines"><path class="js-line" d="M5,0h30" style="fill: none; stroke: rgb(0, 0, 255); stroke-opacity: 1; stroke-width: 1.5px;"/></g><g class="legendsymbols"><g class="legendpoints"/></g></g><rect class="legendtoggle" x="0" y="-9.5" width="112.03125" height="19" style="fill: rgb(0, 0, 0); fill-opacity: 0;"/></g><g class="traces" transform="translate(0,33.5)" style="opacity: 1;"><text class="legendtext" text-anchor="start" x="40" y="4.680000000000001" style="font-family: 'Open Sans', verdana, arial, sans-serif; font-size: 12px; fill: rgb(42, 63, 95); fill-opacity: 1; white-space: pre;">Pred Vx_mps</text><g class="layers" style="opacity: 1;"><g class="legendfill"/><g class="legendlines"><path class="js-line" d="M5,0h30" style="fill: none; stroke: rgb(255, 0, 0); stroke-opacity: 1; stroke-dasharray: 9px, 9px; stroke-width: 1.5px;"/></g><g class="legendsymbols"><g class="legendpoints"/></g></g><rect class="legendtoggle" x="0" y="-9.5" width="112.03125" height="19" style="fill: rgb(0, 0, 0); fill-opacity: 0;"/></g></g></g><rect class="scrollbar" rx="20" ry="3" width="0" height="0" style="fill: rgb(128, 139, 164); fill-opacity: 1;" x="0" y="0"/></g><g class="g-gtitle"><text class="gtitle" x="55" y="50" text-anchor="start" dy="0em" style="opacity: 1; font-family: 'Open Sans', verdana, arial, sans-serif; font-size: 17px; fill: rgb(42, 63, 95); fill-opacity: 1; white-space: pre;">WAM v2 Dream: Velocity Prediction vs Ground Truth — Lap_0</text></g><g class="g-xtitle"/><g class="g-x2title"/><g class="g-x3title"/><g class="g-x4title"/><g class="g-ytitle"/><g class="g-y2title"/><g class="g-y3title"/><g class="g-y4title"/><g class="annotation" data-index="0" style="opacity: 1;"><g class="annotation-text-g" transform="rotate(0,516.5,89.5)"><g class="cursor-pointer" transform="translate(485,79)"><rect class="bg" x="0.5" y="0.5" width="63" height="20" style="stroke-width: 1px; stroke: rgb(0, 0, 0); stroke-opacity: 0; fill: rgb(0, 0, 0); fill-opacity: 0;"/><text class="annotation-text" text-anchor="middle" x="31.7734375" y="16" style="font-family: 'Open Sans', verdana, arial, sans-serif; font-size: 16px; fill: rgb(42, 63, 95); fill-opacity: 1; white-space: pre;">Vx (m/s)</text></g></g></g><g class="annotation" data-index="1" style="opacity: 1;"><g class="annotation-text-g" transform="rotate(0,516.5,283.9)"><g class="cursor-pointer" transform="translate(485,273)"><rect class="bg" x="0.5" y="0.5" width="62" height="20" style="stroke-width: 1px; stroke: rgb(0, 0, 0); stroke-opacity: 0; fill: rgb(0, 0, 0); fill-opacity: 0;"/><text class="annotation-text" text-anchor="middle" x="31.4765625" y="16" style="font-family: 'Open Sans', verdana, arial, sans-serif; font-size: 16px; fill: rgb(42, 63, 95); fill-opacity: 1; white-space: pre;">Vy (m/s)</text></g></g></g><g class="annotation" data-index="2" style="opacity: 1;"><g class="annotation-text-g" transform="rotate(0,516.5,478.3)"><g class="cursor-pointer" transform="translate(485,468)"><rect class="bg" x="0.5" y="0.5" width="63" height="20" style="stroke-width: 1px; stroke: rgb(0, 0, 0); stroke-opacity: 0; fill: rgb(0, 0, 0); fill-opacity: 0;"/><text class="annotation-text" text-anchor="middle" x="31.7734375" y="16" style="font-family: 'Open Sans', verdana, arial, sans-serif; font-size: 16px; fill: rgb(42, 63, 95); fill-opacity: 1; white-space: pre;">Vz (m/s)</text></g></g></g><g class="annotation" data-index="3" style="opacity: 1;"><g class="annotation-text-g" transform="rotate(0,516.5,672.7)"><g class="cursor-pointer" transform="translate(451,662)"><rect class="bg" x="0.5" y="0.5" width="130" height="20" style="stroke-width: 1px; stroke: rgb(0, 0, 0); stroke-opacity: 0; fill: rgb(0, 0, 0); fill-opacity: 0;"/><text class="annotation-text" text-anchor="middle" x="65.5703125" y="16" style="font-family: 'Open Sans', verdana, arial, sans-serif; font-size: 16px; fill: rgb(42, 63, 95); fill-opacity: 1; white-space: pre;">Speed Error (m/s)</text></g></g></g></g></svg>