<svg class="main-svg" xmlns="http://www.w3.org/2000/svg" xmlns:xlink="http://www.w3.org/1999/xlink" width="1100" height="900" style="" viewBox="0 0 1100 900"><rect x="0" y="0" width="1100" height="900" style="fill: rgb(255, 255, 255); fill-opacity: 1;"/><defs id="defs-8c026d"><g class="clips"><clipPath id="clip8c026dxyplot" class="plotclip"><rect width="873" height="136.79999999999995"/></clipPath><clipPath id="clip8c026dx2y2plot" class="plotclip"><rect width="873" height="136.79999999999995"/></clipPath><clipPath id="clip8c026dx3y3plot" class="plotclip"><rect width="873" height="136.8"/></clipPath><clipPath id="clip8c026dx4y4plot" class="plotclip"><rect width="873" height="136.8"/></clipPath><clipPath class="axesclip" id="clip8c026dx"><rect x="80" y="0" width="873" height="900"/></clipPath><clipPath class="axesclip" id="clip8c026dy"><rect x="0" y="100" width="1100" height="136.79999999999995"/></clipPath><clipPath class="axesclip" id="clip8c026dxy"><rect x="80" y="100" width="873" height="136.79999999999995"/></clipPath><clipPath class="axesclip" id="clip8c026dy2"><rect x="0" y="294.4" width="1100" height="136.79999999999995"/></clipPath><clipPath class="axesclip" id="clip8c026dxy2"><rect x="80" y="294.4" width="873" height="136.79999999999995"/></clipPath><clipPath class="axesclip" id="clip8c026dy3"><rect x="0" y="488.8" width="1100" height="136.8"/></clipPath><clipPath class="axesclip" id="clip8c026dxy3"><rect x="80" y="488.8" width="873" height="136.8"/></clipPath><clipPath class="axesclip" id="clip8c026dy4"><rect x="0" y="683.2" width="1100" height="136.8"/></clipPath><clipPath class="axesclip" id="clip8c026dxy4"><rect x="80" y="683.2" width="873" height="136.8"/></clipPath><clipPath class="axesclip" id="clip8c026dx2"><rect x="80" y="0" width="873" height="900"/></clipPath><clipPath class="axesclip" id="clip8c026dx2y"><rect x="80" y="100" width="873" height="136.79999999999995"/></clipPath><clipPath class="axesclip" id="clip8c026dx2y2"><rect x="80" y="294.4" width="873" height="136.79999999999995"/></clipPath><clipPath class="axesclip" id="clip8c026dx2y3"><rect x="80" y="488.8" width="873" height="136.8"/></clipPath><clipPath class="axesclip" id="clip8c026dx2y4"><rect x="80" y="683.2" width="873" height="136.8"/></clipPath><clipPath class="axesclip" id="clip8c026dx3"><rect x="80" y="0" width="873" height="900"/></clipPath><clipPath class="axesclip" id="clip8c026dx3y"><rect x="80" y="100" width="873" height="136.79999999999995"/></clipPath><clipPath class="axesclip" id="clip8c026dx3y2"><rect x="80" y="294.4" width="873" height="136.79999999999995"/></clipPath><clipPath class="axesclip" id="clip8c026dx3y3"><rect x="80" y="488.8" width="873" height="136.8"/></clipPath><clipPath class="axesclip" id="clip8c026dx3y4"><rect x="80" y="683.2" width="873" height="136.8"/></clipPath><clipPath class="axesclip" id="clip8c026dx4"><rect x="80" y="0" width="873" height="900"/></clipPath><clipPath class="axesclip" id="clip8c026dx4y"><rect x="80" y="100" width="873" height="136.79999999999995"/></clipPath><clipPath class="axesclip" id="clip8c026dx4y2"><rect x="80" y="294.4" width="873" height="136.79999999999995"/></clipPath><clipPath class="axesclip" id="clip8c026dx4y3"><rect x="80" y="488.8" width="873" height="136.8"/></clipPath><clipPath class="axesclip" id="clip8c026dx4y4"><rect x="80" y="683.2" width="873" height="136.8"/></clipPath></g><g class="gradients"/><g class="patterns"/></defs><g class="bglayer"><rect class="bg" x="80" y="100" width="873" height="136.79999999999995" style="fill: rgb(229, 236, 246); fill-opacity: 1; stroke-width: 0;"/><rect class="bg" x="80" y="294.4" width="873" height="136.79999999999995" style="fill: rgb(229, 236, 246); fill-opacity: 1; stroke-width: 0;"/><rect class="bg" x="80" y="488.8" width="873" height="136.8" style="fill: rgb(229, 236, 246); fill-opacity: 1; stroke-width: 0;"/><rect class="bg" x="80" y="683.2" width="873" height="136.8" style="fill: rgb(229, 236, 246); fill-opacity: 1; stroke-width: 0;"/></g><g class="layer-below"><g class="imagelayer"/><g class="shapelayer"/></g><g class="cartesianlayer"><g class="subplot xy"><g class="layer-subplot"><g class="shapelayer"/><g class="imagelayer"/></g><g class="minor-gridlayer"><g class="x"/><g class="y"/></g><g class="gridlayer"><g class="x"><path class="xgrid crisp" transform="translate(167.51999999999998,0)" d="M0,100v136.79999999999995" style="stroke: rgb(255, 255, 255); stroke-opacity: 1; stroke-width: 1px;"/><path class="xgrid crisp" transform="translate(255.04,0)" d="M0,100v136.79999999999995" style="stroke: rgb(255, 255, 255); stroke-opacity: 1; stroke-width: 1px;"/><path class="xgrid crisp" transform="translate(342.56,0)" d="M0,100v136.79999999999995" style="stroke: rgb(255, 255, 255); stroke-opacity: 1; stroke-width: 1px;"/><path class="xgrid crisp" transform="translate(430.08,0)" d="M0,100v136.79999999999995" style="stroke: rgb(255, 255, 255); stroke-opacity: 1; stroke-width: 1px;"/><path class="xgrid crisp" transform="translate(517.5899999999999,0)" d="M0,100v136.79999999999995" style="stroke: rgb(255, 255, 255); stroke-opacity: 1; stroke-width: 1px;"/><path class="xgrid crisp" transform="translate(605.11,0)" d="M0,100v136.79999999999995" style="stroke: rgb(255, 255, 255); stroke-opacity: 1; stroke-width: 1px;"/><path class="xgrid crisp" transform="translate(692.63,0)" d="M0,100v136.79999999999995" style="stroke: rgb(255, 255, 255); stroke-opacity: 1; stroke-width: 1px;"/><path class="xgrid crisp" transform="translate(780.15,0)" d="M0,100v136.79999999999995" style="stroke: rgb(255, 255, 255); stroke-opacity: 1; stroke-width: 1px;"/><path class="xgrid crisp" transform="translate(867.67,0)" d="M0,100v136.79999999999995" style="stroke: rgb(255, 255, 255); stroke-opacity: 1; stroke-width: 1px;"/></g><g class="y"><path class="ygrid crisp" transform="translate(0,207.65)" d="M80,0h873" style="stroke: rgb(255, 255, 255); stroke-opacity: 1; stroke-width: 1px;"/><path class="ygrid crisp" transform="translate(0,175.28)" d="M80,0h873" style="stroke: rgb(255, 255, 255); stroke-opacity: 1; stroke-width: 1px;"/><path class="ygrid crisp" transform="translate(0,142.91)" d="M80,0h873" style="stroke: rgb(255, 255, 255); stroke-opacity: 1; stroke-width: 1px;"/><path class="ygrid crisp" transform="translate(0,110.53)" d="M80,0h873" style="stroke: rgb(255, 255, 255); stroke-opacity: 1; stroke-width: 1px;"/></g></g><g class="zerolinelayer"><path class="xzl zl crisp" transform="translate(80,0)" d="M0,100v136.79999999999995" style="stroke: rgb(255, 255, 255); stroke-opacity: 1; stroke-width: 2px;"/></g><g class="layer-between"><g class="shapelayer"/><g class="imagelayer"/></g><path class="xlines-below"/><path class="ylines-below"/><g class="overlines-below"/><g class="xaxislayer-below"/><g class="yaxislayer-below"/><g class="overaxes-below"/><g class="overplot"><g class="xy" transform="translate(80,100)" clip-path="url(#clip8c026dxyplot)"><g class="scatterlayer mlayer"><g class="trace scatter trace430b89" style="stroke-miterlimit: 2; opacity: 1;"><g class="fills"/><g class="errorbars"/><g class="lines"><path class="js-line" d="M0,91.83L17.5,102.71L19.69,103.95L45.95,116.81L48.14,117.61L59.08,121.58L61.26,122.24L72.2,125.4L74.39,125.94L91.89,128.95L94.08,129.24L107.21,129.96L109.4,129.95L122.53,128.6L124.71,128.27L140.03,124.89L142.22,124.32L161.91,118.53L164.1,117.81L185.98,110.13L188.17,109.31L220.98,94.08L223.17,92.96L236.3,86.79L238.49,85.8L266.93,74.03L269.12,73.07L297.56,62.43L299.75,61.38L319.44,53.26L321.63,52.34L391.65,25.52L393.83,24.81L413.53,18.67L415.71,18.07L428.84,14.79L431.03,14.49L463.85,9.99L466.04,9.84L492.29,9.02L494.48,9.04L525.11,10.04L527.3,10.22L564.5,13.39L566.68,13.6L586.38,14.82L588.56,14.92L608.26,16.44L610.44,16.61L625.76,18.72L627.95,19.1L643.26,22.27L645.45,22.86L660.77,27.64L662.95,28.53L678.27,34.72L680.46,35.71L700.15,46.26L702.34,47.63L713.28,54.46L715.47,55.88L732.97,67.76L735.16,69.29L750.47,79.74L752.66,81.17L770.17,92.64L772.35,94.09L794.23,106.31L796.42,107.33L809.55,112.8L811.74,113.59L822.68,116.53L824.86,117.07L837.99,119.17L840.18,119.48L848.93,120.25L851.12,120.29L868.62,119.81L870.81,119.6L873,119.4" style="vector-effect: none; fill: none; stroke: rgb(0, 0, 255); stroke-opacity: 1; stroke-width: 1.5px; opacity: 1;"/></g><g class="points"/><g class="text"/></g><g class="trace scatter tracee0cb98" style="stroke-miterlimit: 2; opacity: 1;"><g class="fills"/><g class="errorbars"/><g class="lines"><path class="js-line" d="M0,91.53L6.56,95.21L8.75,95.93L50.32,115.62L52.51,116.18L80.95,120.22L83.14,120.39L113.77,123.02L115.96,122.94L142.22,119.76L144.41,119.29L190.35,109.66L192.54,109.36L207.86,106.87L210.05,105.88L216.61,103.94L218.8,103.51L229.74,100.49L231.92,99.55L255.99,88.56L258.18,87.59L264.74,85.86L266.93,85.39L280.06,79.56L282.25,78.96L304.13,69.38L306.32,68.03L319.44,63.78L321.63,62.85L332.57,58.27L334.76,57.39L365.39,44.07L367.58,43.75L376.33,40.43L378.52,39.36L422.28,20.78L424.47,20.27L433.22,18.88L435.41,17.92L446.35,13.32L448.53,12.87L463.85,9.85L466.04,9.45L481.35,8.41L483.54,7.97L496.67,6.94L498.86,7.32L505.42,7.23L507.61,7.72L511.98,7.94L514.17,7.79L531.68,9.39L533.86,9.64L546.99,12.04L549.18,12.44L575.44,16.52L577.62,16.4L606.07,13.77L608.26,13.66L614.82,14.8L617.01,15.56L623.57,16.58L625.76,16.6L636.7,18.2L638.89,18.98L689.21,38.16L691.4,39.02L713.28,48.55L715.47,49.63L763.6,73.88L765.79,74.81L781.11,80.53L783.29,81.22L811.74,90.12L813.92,90.45L822.68,91.08L824.86,90.96L859.87,87.9L862.06,87.92L873,88.69" style="vector-effect: none; fill: none; stroke: rgb(255, 0, 0); stroke-opacity: 1; stroke-dasharray: 9px, 9px; stroke-width: 1.5px; opacity: 1;"/></g><g class="points"/><g class="text"/></g></g></g></g><g class="zerolinelayer-above"/><path class="xlines-above crisp" d="M0,0" style="fill: none;"/><path class="ylines-above crisp" d="M0,0" style="fill: none;"/><g class="overlines-above"/><g class="xaxislayer-above"/><g class="yaxislayer-above"><g class="ytick"><text text-anchor="end" x="79" y="4.199999999999999" transform="translate(0,207.65)" style="font-family: 'Open Sans', verdana, arial, sans-serif; font-size: 12px; fill: rgb(42, 63, 95); fill-opacity: 1; white-space: pre;">15</text></g><g class="ytick"><text text-anchor="end" x="79" y="4.199999999999999" style="font-family: 'Open Sans', verdana, arial, sans-serif; font-size: 12px; fill: rgb(42, 63, 95); fill-opacity: 1; white-space: pre;" transform="translate(0,175.28)">20</text></g><g class="ytick"><text text-anchor="end" x="79" y="4.199999999999999" style="font-family: 'Open Sans', verdana, arial, sans-serif; font-size: 12px; fill: rgb(42, 63, 95); fill-opacity: 1; white-space: pre;" transform="translate(0,142.91)">25</text></g><g class="ytick"><text text-anchor="end" x="79" y="4.199999999999999" style="font-family: 'Open Sans', verdana, arial, sans-serif; font-size: 12px; fill: rgb(42, 63, 95); fill-opacity: 1; white-space: pre;" transform="translate(0,110.53)">30</text></g></g><g class="overaxes-above"/></g><g class="subplot x2y2"><g class="layer-subplot"><g class="shapelayer"/><g class="imagelayer"/></g><g class="minor-gridlayer"><g class="x2"/><g class="y2"/></g><g class="gridlayer"><g class="x2"><path class="x2grid crisp" transform="translate(167.51999999999998,0)" d="M0,294.4v136.79999999999995" style="stroke: rgb(255, 255, 255); stroke-opacity: 1; stroke-width: 1px;"/><path class="x2grid crisp" transform="translate(255.04,0)" d="M0,294.4v136.79999999999995" style="stroke: rgb(255, 255, 255); stroke-opacity: 1; stroke-width: 1px;"/><path class="x2grid crisp" transform="translate(342.56,0)" d="M0,294.4v136.79999999999995" style="stroke: rgb(255, 255, 255); stroke-opacity: 1; stroke-width: 1px;"/><path class="x2grid crisp" transform="translate(430.08,0)" d="M0,294.4v136.79999999999995" style="stroke: rgb(255, 255, 255); stroke-opacity: 1; stroke-width: 1px;"/><path class="x2grid crisp" transform="translate(517.5899999999999,0)" d="M0,294.4v136.79999999999995" style="stroke: rgb(255, 255, 255); stroke-opacity: 1; stroke-width: 1px;"/><path class="x2grid crisp" transform="translate(605.11,0)" d="M0,294.4v136.79999999999995" style="stroke: rgb(255, 255, 255); stroke-opacity: 1; stroke-width: 1px;"/><path class="x2grid crisp" transform="translate(692.63,0)" d="M0,294.4v136.79999999999995" style="stroke: rgb(255, 255, 255); stroke-opacity: 1; stroke-width: 1px;"/><path class="x2grid crisp" transform="translate(780.15,0)" d="M0,294.4v136.79999999999995" style="stroke: rgb(255, 255, 255); stroke-opacity: 1; stroke-width: 1px;"/><path class="x2grid crisp" transform="translate(867.67,0)" d="M0,294.4v136.79999999999995" style="stroke: rgb(255, 255, 255); stroke-opacity: 1; stroke-width: 1px;"/></g><g class="y2"><path class="y2grid crisp" transform="translate(0,428.30999999999995)" d="M80,0h873" style="stroke: rgb(255, 255, 255); stroke-opacity: 1; stroke-width: 1px;"/><path class="y2grid crisp" transform="translate(0,353.24)" d="M80,0h873" style="stroke: rgb(255, 255, 255); stroke-opacity: 1; stroke-width: 1px;"/><path class="y2grid crisp" transform="translate(0,315.71)" d="M80,0h873" style="stroke: rgb(255, 255, 255); stroke-opacity: 1; stroke-width: 1px;"/></g></g><g class="zerolinelayer"><path class="x2zl zl crisp" transform="translate(80,0)" d="M0,294.4v136.79999999999995" style="stroke: rgb(255, 255, 255); stroke-opacity: 1; stroke-width: 2px;"/><path class="y2zl zl crisp" transform="translate(0,390.77)" d="M80,0h873" style="stroke: rgb(255, 255, 255); stroke-opacity: 1; stroke-width: 2px;"/></g><g class="layer-between"><g class="shapelayer"/><g class="imagelayer"/></g><path class="xlines-below"/><path class="ylines-below"/><g class="overlines-below"/><g class="xaxislayer-below"/><g class="yaxislayer-below"/><g class="overaxes-below"/><g class="overplot"><g class="x2y2" transform="translate(80,294.4)" clip-path="url(#clip8c026dx2y2plot)"><g class="scatterlayer mlayer"><g class="trace scatter trace0d5370" style="stroke-miterlimit: 2; opacity: 1;"><g class="fills"/><g class="errorbars"/><g class="lines"><path class="js-line" d="M0,106.6L2.19,105.17L4.38,106.51L6.56,103.97L8.75,104.2L13.13,103.42L15.32,104.14L17.5,105.13L19.69,103.76L21.88,103.02L24.07,100.74L26.26,101.02L28.44,99.4L32.82,100.75L35.01,100.01L37.2,98.22L39.38,97.45L41.57,95.1L43.76,95.63L45.95,92.32L48.14,92.83L54.7,89.95L56.89,90.74L59.08,89.24L61.26,90.78L63.45,88.48L65.64,91.12L67.83,89L70.02,92.4L72.2,92.85L74.39,92.2L78.77,90.03L80.95,91.07L83.14,91.86L85.33,90.03L87.52,90.55L89.71,90.29L91.89,89.26L94.08,89.34L96.27,88.15L98.46,87.98L102.83,84.94L105.02,86.58L107.21,84.33L109.4,86.3L111.59,85.82L113.77,86.12L115.96,85.56L118.15,86.44L120.34,85.42L122.53,85.64L126.9,86.11L129.09,84.87L131.28,86.93L133.47,85.85L137.84,88.57L140.03,89.05L142.22,89.2L144.41,91.32L146.59,92.43L148.78,92.65L150.97,92.95L153.16,94.59L155.35,94.67L157.53,96.08L159.72,95.36L161.91,96.79L168.47,97.25L170.66,97.89L172.85,97.57L175.04,98.66L177.23,98.38L179.41,99.13L183.79,100.13L185.98,100.78L194.73,101.97L196.92,102.92L199.11,104.24L201.29,104.57L205.67,105.24L207.86,104.69L214.42,106.46L216.61,105.84L220.98,105.74L223.17,106.22L225.36,106.92L227.55,106.61L229.74,107.09L231.92,106.3L236.3,106.54L238.49,106.92L242.86,106.72L245.05,106.93L249.43,106.41L251.62,107.7L258.18,106.26L260.37,106.75L262.56,106.27L264.74,106.73L266.93,105.65L269.12,105.91L271.31,104.88L273.5,106.04L275.68,104.74L277.87,105L282.25,105.38L284.44,104.53L293.19,103.46L295.38,104.28L299.75,101.14L301.94,100.87L304.13,101.5L306.32,100.84L312.88,102.47L315.07,102.05L317.26,103.62L319.44,103.39L321.63,103.01L323.82,103.62L330.38,103.35L332.57,102.22L334.76,102.19L336.95,101.01L339.14,101.89L341.32,101.2L343.51,100.09L345.7,100.57L347.89,100.08L350.08,100.59L352.26,100.31L354.45,101.91L356.64,100.73L358.83,101.71L361.02,102.53L363.2,102.38L365.39,103.59L367.58,103.31L371.95,104.47L374.14,104.07L376.33,104.41L378.52,103.73L387.27,101.58L389.46,101.95L393.83,101.59L396.02,102.32L398.21,101.76L400.4,102.15L404.77,104.02L406.96,103.92L409.15,104.36L411.34,103.96L413.53,104.19L415.71,102.54L417.9,102.88L420.09,102.32L422.28,101.35L424.47,101.76L431.03,99.77L433.22,99.67L437.59,99.03L439.78,99.55L446.35,97.86L448.53,98.44L450.72,95.94L452.91,96.11L457.29,95.02L459.47,95.51L463.85,95.01L466.04,94.13L472.6,94.14L474.79,94.93L483.54,84.79L485.73,84.26L492.29,80.73L494.48,80.52L496.67,79.33L498.86,79.32L501.05,80.39L503.23,78.91L505.42,79.26L507.61,78.53L509.8,77.78L511.98,76.02L516.36,73.88L518.55,73.86L531.68,81.22L533.86,81.55L542.62,78.04L544.8,75.85L546.99,74.63L549.18,70.79L553.56,65.7L555.74,62.94L557.93,60.06L560.12,59.82L564.5,54.92L566.68,54.8L571.06,60.39L573.25,63.02L575.44,65.28L577.62,66.41L579.81,68.03L582,68.71L586.38,69.76L588.56,70.66L590.75,71.18L592.94,70.53L603.88,70.67L606.07,72L610.44,78.74L612.63,82.63L614.82,86.15L617.01,91.2L621.38,95.32L623.57,96.09L625.76,96.31L627.95,94.32L632.32,92.69L634.51,92.89L636.7,92.94L638.89,94.33L652.02,96.5L654.2,95.63L656.39,96.28L658.58,98.15L662.95,97.47L665.14,98.89L669.52,96.97L671.71,97.32L676.08,96.25L678.27,96.82L687.02,101.06L689.21,101.73L693.59,100.74L695.77,100.97L697.96,99.32L700.15,98.89L704.53,97.23L706.71,97.27L708.9,96.85L711.09,94.73L713.28,95.46L715.47,94.4L717.65,93.47L719.84,94.4L728.59,92.85L730.78,93.78L732.97,94.78L735.16,94.12L739.53,94.29L741.72,93.52L746.1,93.05L748.29,93.08L752.66,91.41L754.85,91.77L757.04,91.21L759.23,92.12L761.41,92.53L763.6,95.15L770.17,101.12L772.35,101.98L781.11,102.41L783.29,103.61L789.86,102.61L792.05,101.68L798.61,102.34L800.8,103.38L805.17,102.81L807.36,104.8L811.74,107.17L813.92,107.29L816.11,105.96L818.3,105.75L820.49,106.78L822.68,106.27L827.05,106.62L829.24,106.92L831.43,105.36L833.62,106.36L835.8,106.57L837.99,107.99L842.37,110.35L844.56,110.45L846.74,109.75L848.93,110.51L851.12,110.05L853.31,111.14L859.87,112.26L862.06,111.46L864.25,112.18L866.44,111.76L873,111.14" style="vector-effect: none; fill: none; stroke: rgb(0, 0, 255); stroke-opacity: 1; stroke-width: 1.5px; opacity: 1;"/></g><g class="points"/><g class="text"/></g><g class="trace scatter trace91d9e5" style="stroke-miterlimit: 2; opacity: 1;"><g class="fills"/><g class="errorbars"/><g class="lines"><path class="js-line" d="M0,106.34L17.5,101.53L19.69,101.48L21.88,102.79L24.07,102.9L28.44,103.11L30.63,102.85L35.01,101.81L37.2,101.68L39.38,101.56L41.57,99.82L48.14,98.31L50.32,96.87L54.7,93.61L56.89,92.84L63.45,91.13L65.64,90.88L76.58,89.77L78.77,89.33L96.27,86.07L98.46,85.59L115.96,85.48L118.15,85.59L126.9,86.59L129.09,87.06L146.59,93.38L148.78,94.02L161.91,99.52L164.1,99.74L168.47,100.63L170.66,101.73L172.85,102.4L175.04,104.15L177.23,104.02L179.41,105.15L183.79,104.64L185.98,104.69L190.35,105.02L192.54,105.61L210.05,107.56L212.23,108.31L218.8,110.37L220.98,110.47L225.36,110.28L227.55,109.91L245.05,111.77L247.24,112.05L253.8,111.72L255.99,110.95L260.37,111.6L262.56,112.32L264.74,113.3L266.93,113.44L271.31,114.54L273.5,114.68L286.62,114.43L288.81,114.98L293.19,114.65L295.38,113.94L304.13,111.73L306.32,111.54L312.88,114.24L315.07,114.26L339.14,112.6L341.32,112.95L354.45,113.99L356.64,114.56L369.77,113.32L371.95,112.72L378.52,110.95L380.71,110.75L385.08,110.27L387.27,110.65L393.83,109.99L396.02,109.85L400.4,109.97L402.59,109.95L409.15,110.19L411.34,110.86L415.71,112.24L417.9,111.74L422.28,109.81L424.47,109.57L439.78,110.23L441.97,109.7L446.35,106.86L448.53,104.88L457.29,99.73L459.47,99.32L461.66,99.02L463.85,99.78L472.6,99.9L474.79,98.89L476.98,99.41L479.17,98.39L481.35,97.7L483.54,95.78L485.73,94.4L487.92,91.49L492.29,86.13L494.48,85.59L496.67,84.48L498.86,85.02L503.23,84.44L505.42,83.06L514.17,78.23L516.36,77.66L520.74,76.49L522.92,75.95L531.68,76.57L533.86,75.81L538.24,74.09L540.43,73.65L544.8,73.76L546.99,74.12L557.93,77.8L560.12,79.45L566.68,87.75L568.87,90.82L586.38,113.71L588.56,115.15L592.94,115.35L595.13,115.23L601.69,114.39L603.88,113.72L610.44,111.11L612.63,111.25L617.01,112.4L619.2,113.52L621.38,114.16L623.57,113.89L638.89,107.7L641.08,108.04L643.26,108.22L645.45,109.47L647.64,109.61L649.83,110.82L658.58,112.45L660.77,112.37L667.33,113.08L669.52,113.63L724.22,129.47L726.41,129.74L735.16,129.85L737.35,129.73L765.79,127.43L767.98,127.05L785.48,124.41L787.67,124.43L798.61,124.28L800.8,124.07L807.36,122.96L809.55,122.26L813.92,120.28L816.11,118.61L820.49,112.46L822.68,108.3L831.43,87.57L833.62,82.25L842.37,63.95L844.56,59.75L873,6.84" style="vector-effect: none; fill: none; stroke: rgb(255, 0, 0); stroke-opacity: 1; stroke-dasharray: 9px, 9px; stroke-width: 1.5px; opacity: 1;"/></g><g class="points"/><g class="text"/></g></g></g></g><g class="zerolinelayer-above"/><path class="xlines-above crisp" d="M0,0" style="fill: none;"/><path class="ylines-above crisp" d="M0,0" style="fill: none;"/><g class="overlines-above"/><g class="xaxislayer-above"/><g class="yaxislayer-above"><g class="y2tick"><text text-anchor="end" x="79" y="4.199999999999999" transform="translate(0,428.30999999999995)" style="font-family: 'Open Sans', verdana, arial, sans-serif; font-size: 12px; fill: rgb(42, 63, 95); fill-opacity: 1; white-space: pre;">−1</text></g><g class="y2tick"><text text-anchor="end" x="79" y="4.199999999999999" style="font-family: 'Open Sans', verdana, arial, sans-serif; font-size: 12px; fill: rgb(42, 63, 95); fill-opacity: 1; white-space: pre;" transform="translate(0,390.77)">0</text></g><g class="y2tick"><text text-anchor="end" x="79" y="4.199999999999999" style="font-family: 'Open Sans', verdana, arial, sans-serif; font-size: 12px; fill: rgb(42, 63, 95); fill-opacity: 1; white-space: pre;" transform="translate(0,353.24)">1</text></g><g class="y2tick"><text text-anchor="end" x="79" y="4.199999999999999" style="font-family: 'Open Sans', verdana, arial, sans-serif; font-size: 12px; fill: rgb(42, 63, 95); fill-opacity: 1; white-space: pre;" transform="translate(0,315.71)">2</text></g></g><g class="overaxes-above"/></g><g class="subplot x3y3"><g class="layer-subplot"><g class="shapelayer"/><g class="imagelayer"/></g><g class="minor-gridlayer"><g class="x3"/><g class="y3"/></g><g class="gridlayer"><g class="x3"><path class="x3grid crisp" transform="translate(167.51999999999998,0)" d="M0,488.8v136.8" style="stroke: rgb(255, 255, 255); stroke-opacity: 1; stroke-width: 1px;"/><path class="x3grid crisp" transform="translate(255.04,0)" d="M0,488.8v136.8" style="stroke: rgb(255, 255, 255); stroke-opacity: 1; stroke-width: 1px;"/><path class="x3grid crisp" transform="translate(342.56,0)" d="M0,488.8v136.8" style="stroke: rgb(255, 255, 255); stroke-opacity: 1; stroke-width: 1px;"/><path class="x3grid crisp" transform="translate(430.08,0)" d="M0,488.8v136.8" style="stroke: rgb(255, 255, 255); stroke-opacity: 1; stroke-width: 1px;"/><path class="x3grid crisp" transform="translate(517.5899999999999,0)" d="M0,488.8v136.8" style="stroke: rgb(255, 255, 255); stroke-opacity: 1; stroke-width: 1px;"/><path class="x3grid crisp" transform="translate(605.11,0)" d="M0,488.8v136.8" style="stroke: rgb(255, 255, 255); stroke-opacity: 1; stroke-width: 1px;"/><path class="x3grid crisp" transform="translate(692.63,0)" d="M0,488.8v136.8" style="stroke: rgb(255, 255, 255); stroke-opacity: 1; stroke-width: 1px;"/><path class="x3grid crisp" transform="translate(780.15,0)" d="M0,488.8v136.8" style="stroke: rgb(255, 255, 255); stroke-opacity: 1; stroke-width: 1px;"/><path class="x3grid crisp" transform="translate(867.67,0)" d="M0,488.8v136.8" style="stroke: rgb(255, 255, 255); stroke-opacity: 1; stroke-width: 1px;"/></g><g class="y3"><path class="y3grid crisp" transform="translate(0,596.79)" d="M80,0h873" style="stroke: rgb(255, 255, 255); stroke-opacity: 1; stroke-width: 1px;"/><path class="y3grid crisp" transform="translate(0,527.03)" d="M80,0h873" style="stroke: rgb(255, 255, 255); stroke-opacity: 1; stroke-width: 1px;"/><path class="y3grid crisp" transform="translate(0,492.15000000000003)" d="M80,0h873" style="stroke: rgb(255, 255, 255); stroke-opacity: 1; stroke-width: 1px;"/></g></g><g class="zerolinelayer"><path class="x3zl zl crisp" transform="translate(80,0)" d="M0,488.8v136.8" style="stroke: rgb(255, 255, 255); stroke-opacity: 1; stroke-width: 2px;"/><path class="y3zl zl crisp" transform="translate(0,561.91)" d="M80,0h873" style="stroke: rgb(255, 255, 255); stroke-opacity: 1; stroke-width: 2px;"/></g><g class="layer-between"><g class="shapelayer"/><g class="imagelayer"/></g><path class="xlines-below"/><path class="ylines-below"/><g class="overlines-below"/><g class="xaxislayer-below"/><g class="yaxislayer-below"/><g class="overaxes-below"/><g class="overplot"><g class="x3y3" transform="translate(80,488.8)" clip-path="url(#clip8c026dx3y3plot)"><g class="scatterlayer mlayer"><g class="trace scatter trace891ba4" style="stroke-miterlimit: 2; opacity: 1;"><g class="fills"/><g class="errorbars"/><g class="lines"><path class="js-line" d="M0,58.46L4.38,61.25L6.56,62.65L10.94,63.69L13.13,62.99L17.5,67.18L19.69,67.88L24.07,69.97L26.26,69.97L30.63,68.57L32.82,69.62L35.01,70.32L37.2,69.97L48.14,68.23L50.32,68.92L54.7,68.23L56.89,67.88L59.08,69.27L61.26,67.53L63.45,68.57L65.64,67.18L72.2,69.62L74.39,67.88L76.58,68.92L78.77,68.57L80.95,69.62L83.14,69.62L87.52,70.32L89.71,68.92L98.46,69.97L100.65,68.92L105.02,69.62L107.21,68.92L109.4,67.88L111.59,68.92L113.77,68.23L115.96,68.92L120.34,68.23L122.53,66.83L124.71,66.13L126.9,66.48L129.09,65.78L131.28,66.83L133.47,66.48L135.65,67.18L140.03,66.48L142.22,67.53L148.78,66.48L150.97,67.53L155.35,68.23L157.53,67.53L161.91,67.53L164.1,67.53L170.66,67.88L172.85,68.57L185.98,67.18L188.17,67.18L194.73,69.27L196.92,68.57L201.29,69.97L203.48,69.62L205.67,71.02L207.86,71.02L212.23,68.92L214.42,69.27L218.8,68.57L220.98,69.97L225.36,71.02L227.55,70.32L231.92,72.41L234.11,72.76L236.3,72.41L238.49,71.02L242.86,70.32L245.05,70.32L247.24,69.62L249.43,71.02L253.8,69.27L255.99,69.62L258.18,69.62L260.37,70.67L262.56,69.62L264.74,70.67L271.31,71.36L273.5,69.62L275.68,70.67L277.87,70.32L280.06,71.02L282.25,70.67L284.44,71.71L286.62,71.02L288.81,72.41L291,72.06L295.38,72.41L297.56,71.71L299.75,71.02L301.94,71.36L310.69,72.41L312.88,73.81L317.26,72.76L319.44,72.76L323.82,73.46L326.01,73.81L330.38,75.2L332.57,74.15L341.32,73.46L343.51,74.5L347.89,73.46L350.08,74.5L354.45,74.85L356.64,72.76L363.2,68.92L365.39,67.18L369.77,66.13L371.95,65.09L380.71,63.34L382.89,61.6L385.08,59.16L387.27,58.81L389.46,57.06L391.65,56.72L393.83,55.32L396.02,52.88L398.21,50.79L400.4,47.65L402.59,42.76L404.77,40.67L411.34,38.23L413.53,35.44L415.71,34.39L417.9,31.95L422.28,27.77L424.47,27.07L426.65,25.67L428.84,23.23L435.41,18.35L437.59,15.91L439.78,13.47L441.97,14.86L446.35,15.91L448.53,13.12L452.91,9.98L455.1,9.63L457.29,7.89L459.47,8.93L461.66,10.68L463.85,9.98L468.23,6.84L470.41,7.89L474.79,12.77L476.98,13.47L479.17,12.77L481.35,13.47L485.73,14.86L487.92,15.56L492.29,14.16L494.48,16.26L496.67,15.91L498.86,16.95L501.05,17.65L503.23,20.09L505.42,21.84L507.61,24.63L509.8,22.54L511.98,22.19L516.36,23.58L518.55,21.84L527.3,20.44L529.49,22.19L533.86,26.02L536.05,27.07L538.24,28.12L540.43,31.6L544.8,40.32L546.99,44.16L551.37,53.23L553.56,59.51L555.74,63.34L557.93,69.27L562.31,76.6L564.5,76.95L566.68,80.08L568.87,84.97L575.44,101.01L577.62,103.45L586.38,116.36L588.56,119.15L592.94,121.94L595.13,124.38L599.5,127.52L601.69,129.26L603.88,129.96L606.07,129.26L612.63,126.47L614.82,126.12L619.2,121.24L621.38,121.94L625.76,120.19L627.95,116.36L634.51,101.36L636.7,98.57L641.08,94.38L643.26,93.69L645.45,92.64L647.64,90.55L652.02,84.27L654.2,79.04L660.77,71.36L662.95,69.97L665.14,67.88L667.33,67.53L669.52,66.83L671.71,64.74L676.08,57.76L678.27,54.62L680.46,51.14L682.65,49.39L684.83,44.86L687.02,42.76L689.21,40.67L691.4,41.02L695.77,39.28L697.96,37.18L700.15,37.18L702.34,38.58L708.9,42.07L711.09,42.76L719.84,49.39L722.03,50.09L724.22,49.39L726.41,49.74L730.78,49.74L732.97,51.14L739.53,52.53L741.72,53.58L746.1,57.41L748.29,58.46L750.47,60.55L752.66,59.85L757.04,61.25L759.23,61.6L763.6,62.99L765.79,63.69L767.98,62.3L770.17,64.04L772.35,62.3L774.54,61.95L783.29,60.2L785.48,59.16L794.23,58.11L796.42,59.16L800.8,56.72L802.98,56.72L805.17,58.46L807.36,58.81L813.92,57.41L816.11,58.46L818.3,59.85L820.49,59.85L822.68,60.2L824.86,59.51L827.05,58.46L829.24,59.16L831.43,59.85L833.62,59.51L835.8,60.55L837.99,60.55L842.37,60.55L844.56,60.55L846.74,61.6L848.93,60.9L855.5,61.6L857.68,60.55L859.87,61.95L862.06,61.25L870.81,63.34L873,63.69" style="vector-effect: none; fill: none; stroke: rgb(0, 0, 255); stroke-opacity: 1; stroke-width: 1.5px; opacity: 1;"/></g><g class="points"/><g class="text"/></g><g class="trace scatter tracec76721" style="stroke-miterlimit: 2; opacity: 1;"><g class="fills"/><g class="errorbars"/><g class="lines"><path class="js-line" d="M0,59.54L4.38,61.48L6.56,62.86L13.13,68.09L15.32,69.69L28.44,77.18L30.63,77.92L32.82,79.28L35.01,78.42L39.38,79.39L41.57,80.04L43.76,78.97L45.95,78.81L61.26,75.58L63.45,75.85L70.02,76.18L72.2,76.08L83.14,73.63L85.33,73.29L96.27,71.52L98.46,71.39L115.96,67.42L118.15,67.56L126.9,66.65L129.09,66.19L135.65,64.8L137.84,64.46L142.22,64.38L144.41,64.64L155.35,64.11L157.53,64.39L166.29,65.43L168.47,65.36L177.23,66.03L179.41,66.6L188.17,67.9L190.35,67.78L196.92,67.72L199.11,68.35L203.48,69.11L205.67,69.69L210.05,70.87L212.23,70.94L216.61,71.27L218.8,70.65L227.55,73.33L229.74,74.4L238.49,79.2L240.68,79.57L245.05,81.26L247.24,82.85L253.8,88.89L255.99,89.41L262.56,92.04L264.74,91.72L269.12,91.56L271.31,91.76L282.25,94.01L284.44,93.31L288.81,91.67L291,91.81L299.75,93.29L301.94,93.18L310.69,89.65L312.88,90.09L321.63,91.21L323.82,90.32L330.38,89.03L332.57,88.46L343.51,87.02L345.7,86.89L354.45,87.14L356.64,87.59L363.2,90.2L365.39,89.64L374.14,87.88L376.33,87.61L387.27,84.2L389.46,84.3L393.83,84.91L396.02,85.02L400.4,85.49L402.59,86.63L406.96,89.94L409.15,90.37L413.53,91.13L415.71,92.66L417.9,93.88L420.09,94.15L426.65,94.17L428.84,95.26L435.41,99.71L437.59,101.08L441.97,102.8L444.16,102.62L452.91,102.37L455.1,102.35L461.66,100.17L463.85,101.59L466.04,103.48L468.23,103.85L474.79,103.96L476.98,103.53L483.54,105.76L485.73,105.79L494.48,105.25L496.67,106.01L498.86,106.35L501.05,107.63L505.42,107.53L507.61,106.87L529.49,97.42L531.68,96.76L544.8,92.24L546.99,91.24L553.56,89.06L555.74,88.44L573.25,82.91L575.44,82.94L579.81,82.58L582,81.95L588.56,81.57L590.75,81.71L597.32,81.77L599.5,82.14L603.88,82.13L606.07,81.41L610.44,77.94L612.63,75.78L621.38,64.29L623.57,62.75L627.95,61.52L630.14,62.26L632.32,63.33L634.51,63.35L638.89,61.32L641.08,60.31L649.83,53.66L652.02,52.09L669.52,45.32L671.71,44.6L684.83,41.35L687.02,40.94L711.09,36.96L713.28,36.9L735.16,36.83L737.35,36.48L763.6,31.75L765.79,31.65L783.29,30.48L785.48,29.99L796.42,27.7L798.61,27.59L805.17,28.16L807.36,28.75L816.11,32.11L818.3,33.19L824.86,37.64L827.05,39.34L831.43,41.86L833.62,42.68L848.93,46.76L851.12,47.14L873,50.21" style="vector-effect: none; fill: none; stroke: rgb(255, 0, 0); stroke-opacity: 1; stroke-dasharray: 9px, 9px; stroke-width: 1.5px; opacity: 1;"/></g><g class="points"/><g class="text"/></g></g></g></g><g class="zerolinelayer-above"/><path class="xlines-above crisp" d="M0,0" style="fill: none;"/><path class="ylines-above crisp" d="M0,0" style="fill: none;"/><g class="overlines-above"/><g class="xaxislayer-above"/><g class="yaxislayer-above"><g class="y3tick"><text text-anchor="end" x="79" y="4.199999999999999" transform="translate(0,596.79)" style="font-family: 'Open Sans', verdana, arial, sans-serif; font-size: 12px; fill: rgb(42, 63, 95); fill-opacity: 1; white-space: pre;">−1</text></g><g class="y3tick"><text text-anchor="end" x="79" y="4.199999999999999" style="font-family: 'Open Sans', verdana, arial, sans-serif; font-size: 12px; fill: rgb(42, 63, 95); fill-opacity: 1; white-space: pre;" transform="translate(0,561.91)">0</text></g><g class="y3tick"><text text-anchor="end" x="79" y="4.199999999999999" style="font-family: 'Open Sans', verdana, arial, sans-serif; font-size: 12px; fill: rgb(42, 63, 95); fill-opacity: 1; white-space: pre;" transform="translate(0,527.03)">1</text></g><g class="y3tick"><text text-anchor="end" x="79" y="4.199999999999999" style="font-family: 'Open Sans', verdana, arial, sans-serif; font-size: 12px; fill: rgb(42, 63, 95); fill-opacity: 1; white-space: pre;" transform="translate(0,492.15000000000003)">2</text></g></g><g class="overaxes-above"/></g><g class="subplot x4y4"><g class="layer-subplot"><g class="shapelayer"/><g class="imagelayer"/></g><g class="minor-gridlayer"><g class="x4"/><g class="y4"/></g><g class="gridlayer"><g class="x4"><path class="x4grid crisp" transform="translate(167.51999999999998,0)" d="M0,683.2v136.8" style="stroke: rgb(255, 255, 255); stroke-opacity: 1; stroke-width: 1px;"/><path class="x4grid crisp" transform="translate(255.04,0)" d="M0,683.2v136.8" style="stroke: rgb(255, 255, 255); stroke-opacity: 1; stroke-width: 1px;"/><path class="x4grid crisp" transform="translate(342.56,0)" d="M0,683.2v136.8" style="stroke: rgb(255, 255, 255); stroke-opacity: 1; stroke-width: 1px;"/><path class="x4grid crisp" transform="translate(430.08,0)" d="M0,683.2v136.8" style="stroke: rgb(255, 255, 255); stroke-opacity: 1; stroke-width: 1px;"/><path class="x4grid crisp" transform="translate(517.5899999999999,0)" d="M0,683.2v136.8" style="stroke: rgb(255, 255, 255); stroke-opacity: 1; stroke-width: 1px;"/><path class="x4grid crisp" transform="translate(605.11,0)" d="M0,683.2v136.8" style="stroke: rgb(255, 255, 255); stroke-opacity: 1; stroke-width: 1px;"/><path class="x4grid crisp" transform="translate(692.63,0)" d="M0,683.2v136.8" style="stroke: rgb(255, 255, 255); stroke-opacity: 1; stroke-width: 1px;"/><path class="x4grid crisp" transform="translate(780.15,0)" d="M0,683.2v136.8" style="stroke: rgb(255, 255, 255); stroke-opacity: 1; stroke-width: 1px;"/><path class="x4grid crisp" transform="translate(867.67,0)" d="M0,683.2v136.8" style="stroke: rgb(255, 255, 255); stroke-opacity: 1; stroke-width: 1px;"/></g><g class="y4"><path class="y4grid crisp" transform="translate(0,769.32)" d="M80,0h873" style="stroke: rgb(255, 255, 255); stroke-opacity: 1; stroke-width: 1px;"/><path class="y4grid crisp" transform="translate(0,724.22)" d="M80,0h873" style="stroke: rgb(255, 255, 255); stroke-opacity: 1; stroke-width: 1px;"/></g></g><g class="zerolinelayer"><path class="x4zl zl crisp" transform="translate(80,0)" d="M0,683.2v136.8" style="stroke: rgb(255, 255, 255); stroke-opacity: 1; stroke-width: 2px;"/><path class="y4zl zl crisp" transform="translate(0,814.4200000000001)" d="M80,0h873" style="stroke: rgb(255, 255, 255); stroke-opacity: 1; stroke-width: 2px;"/></g><g class="layer-between"><g class="shapelayer"/><g class="imagelayer"/></g><path class="xlines-below"/><path class="ylines-below"/><g class="overlines-below"/><g class="xaxislayer-below"/><g class="yaxislayer-below"/><g class="overaxes-below"/><g class="overplot"><g class="x4y4" transform="translate(80,683.2)" clip-path="url(#clip8c026dx4y4plot)"><g class="scatterlayer mlayer"><g class="trace scatter traceb50be1" style="stroke-miterlimit: 2; opacity: 1;"><g class="fills"/><g class="errorbars"/><g class="lines"><path class="js-line" d="M0,129.96L4.38,129.78L6.56,128.02L10.94,124.22L13.13,123.43L17.5,120.68L19.69,120.35L24.07,120.86L26.26,120.1L30.63,118.57L32.82,118.31L37.2,118.31L39.38,117.63L41.57,117.78L43.76,118.91L52.51,119.03L54.7,117.34L59.08,115.73L61.26,114.47L65.64,111.41L67.83,110.93L74.39,109.34L76.58,107.89L96.27,103.05L98.46,102.97L100.65,104.18L102.83,104.38L109.4,107.94L111.59,107.83L124.71,108.68L126.9,109.18L129.09,109.9L131.28,111.79L137.84,114.36L140.03,114.85L146.59,116.15L148.78,117.12L153.16,118.45L155.35,119.57L161.91,122.11L164.1,122.33L168.47,123.35L170.66,123.96L177.23,126.22L179.41,126.97L181.6,128.33L183.79,128.5L185.98,128.7L188.17,127.82L192.54,124.24L194.73,121.64L199.11,117.18L201.29,114.8L207.86,108.55L210.05,108.3L214.42,105.76L216.61,104.09L220.98,100.3L223.17,97.46L225.36,95.11L227.55,94.49L231.92,93.91L234.11,93.64L238.49,94.52L240.68,93.68L245.05,94.05L247.24,93.69L251.62,92.89L253.8,93.53L260.37,93.62L262.56,91.24L266.93,89.23L269.12,89.48L271.31,90.75L273.5,90.03L280.06,92.51L282.25,91.91L284.44,92.99L286.62,91.89L288.81,93.14L291,93.22L293.19,93.59L295.38,93.15L299.75,92.33L301.94,92.77L306.32,95.63L308.5,94.52L317.26,91.5L319.44,92.13L323.82,93.2L326.01,92.41L328.2,93.31L330.38,93.33L336.95,94.31L339.14,94.96L352.26,96.85L354.45,96.18L361.02,95.95L363.2,96.49L365.39,96.45L367.58,94.83L374.14,93.97L376.33,94.66L380.71,95.96L382.89,96.19L385.08,97.67L387.27,97.79L393.83,98.32L396.02,97.5L398.21,97.58L400.4,95.32L404.77,92.05L406.96,91.85L411.34,91.89L413.53,90.32L415.71,89.23L417.9,87.23L426.65,83.63L428.84,81.67L433.22,77.4L435.41,76.38L439.78,73.04L441.97,73.45L446.35,74.85L448.53,73.31L455.1,71.13L457.29,70.64L461.66,73.31L463.85,71.92L466.04,69.54L468.23,68.38L470.41,68.95L472.6,70.66L476.98,72.84L479.17,71.88L483.54,71.28L485.73,71.98L487.92,72.52L490.11,72.11L492.29,71.71L494.48,73.27L496.67,72.42L498.86,73L501.05,72.56L503.23,74.12L505.42,75.38L507.61,77.76L509.8,76.96L511.98,77.67L514.17,78.18L516.36,79.47L518.55,78.98L520.74,79.65L525.11,81.14L527.3,80.79L538.24,87.9L540.43,90.63L546.99,100.74L549.18,103.93L553.56,110.9L555.74,112.6L560.12,115.58L562.31,114.08L564.5,111.25L566.68,109.86L568.87,110.01L571.06,109.05L575.44,106.65L577.62,105.24L588.56,95.07L590.75,94.74L599.5,91.05L601.69,90.26L603.88,90.07L606.07,90.73L610.44,92.54L612.63,93.13L614.82,92.87L617.01,93.69L619.2,93.59L621.38,91.92L625.76,91.58L627.95,93.39L632.32,100.57L634.51,103.59L641.08,106.78L643.26,106.33L647.64,106.33L649.83,107.06L660.77,113.9L662.95,114.09L665.14,115.19L667.33,114.6L669.52,114.02L671.71,114.61L673.89,115.85L676.08,116.12L684.83,119.19L687.02,118.95L691.4,117.21L693.59,116.02L695.77,115.26L697.96,113.29L702.34,110.53L704.53,109.33L719.84,98.79L722.03,97.75L735.16,91.82L737.35,90.35L741.72,87.46L743.91,86.02L750.47,81.01L752.66,79.85L759.23,75.43L761.41,74.45L778.92,63.99L781.11,62.09L787.67,57.7L789.86,55.87L796.42,51.5L798.61,50.58L811.74,47.1L813.92,46.05L822.68,41.2L824.86,39.19L846.74,16.37L848.93,14.81L859.87,8.37L862.06,7.74L866.44,6.88L868.62,6.84L873,6.96" style="vector-effect: none; fill: none; stroke: rgb(128, 0, 128); stroke-opacity: 1; stroke-width: 1.5px; opacity: 1;"/></g><g class="points"/><g class="text"/></g></g></g></g><g class="zerolinelayer-above"/><path class="xlines-above crisp" d="M0,0" style="fill: none;"/><path class="ylines-above crisp" d="M0,0" style="fill: none;"/><g class="overlines-above"/><g class="xaxislayer-above"><g class="x4tick"><text text-anchor="middle" x="0" y="833" transform="translate(80,0)" style="font-family: 'Open Sans', verdana, arial, sans-serif; font-size: 12px; fill: rgb(42, 63, 95); fill-opacity: 1; white-space: pre;">0</text></g><g class="x4tick"><text text-anchor="middle" x="0" y="833" style="font-family: 'Open Sans', verdana, arial, sans-serif; font-size: 12px; fill: rgb(42, 63, 95); fill-opacity: 1; white-space: pre;" transform="translate(167.51999999999998,0)">2</text></g><g class="x4tick"><text text-anchor="middle" x="0" y="833" style="font-family: 'Open Sans', verdana, arial, sans-serif; font-size: 12px; fill: rgb(42, 63, 95); fill-opacity: 1; white-space: pre;" transform="translate(255.04,0)">4</text></g><g class="x4tick"><text text-anchor="middle" x="0" y="833" style="font-family: 'Open Sans', verdana, arial, sans-serif; font-size: 12px; fill: rgb(42, 63, 95); fill-opacity: 1; white-space: pre;" transform="translate(342.56,0)">6</text></g><g class="x4tick"><text text-anchor="middle" x="0" y="833" style="font-family: 'Open Sans', verdana, arial, sans-serif; font-size: 12px; fill: rgb(42, 63, 95); fill-opacity: 1; white-space: pre;" transform="translate(430.08,0)">8</text></g><g class="x4tick"><text text-anchor="middle" x="0" y="833" style="font-family: 'Open Sans', verdana, arial, sans-serif; font-size: 12px; fill: rgb(42, 63, 95); fill-opacity: 1; white-space: pre;" transform="translate(517.5899999999999,0)">10</text></g><g class="x4tick"><text text-anchor="middle" x="0" y="833" style="font-family: 'Open Sans', verdana, arial, sans-serif; font-size: 12px; fill: rgb(42, 63, 95); fill-opacity: 1; white-space: pre;" transform="translate(605.11,0)">12</text></g><g class="x4tick"><text text-anchor="middle" x="0" y="833" style="font-family: 'Open Sans', verdana, arial, sans-serif; font-size: 12px; fill: rgb(42, 63, 95); fill-opacity: 1; white-space: pre;" transform="translate(692.63,0)">14</text></g><g class="x4tick"><text text-anchor="middle" x="0" y="833" style="font-family: 'Open Sans', verdana, arial, sans-serif; font-size: 12px; fill: rgb(42, 63, 95); fill-opacity: 1; white-space: pre;" transform="translate(780.15,0)">16</text></g><g class="x4tick"><text text-anchor="middle" x="0" y="833" style="font-family: 'Open Sans', verdana, arial, sans-serif; font-size: 12px; fill: rgb(42, 63, 95); fill-opacity: 1; white-space: pre;" transform="translate(867.67,0)">18</text></g></g><g class="yaxislayer-above"><g class="y4tick"><text text-anchor="end" x="79" y="4.199999999999999" transform="translate(0,814.4200000000001)" style="font-family: 'Open Sans', verdana, arial, sans-serif; font-size: 12px; fill: rgb(42, 63, 95); fill-opacity: 1; white-space: pre;">0</text></g><g class="y4tick"><text text-anchor="end" x="79" y="4.199999999999999" style="font-family: 'Open Sans', verdana, arial, sans-serif; font-size: 12px; fill: rgb(42, 63, 95); fill-opacity: 1; white-space: pre;" transform="translate(0,769.32)">2</text></g><g class="y4tick"><text text-anchor="end" x="79" y="4.199999999999999" style="font-family: 'Open Sans', verdana, arial, sans-serif; font-size: 12px; fill: rgb(42, 63, 95); fill-opacity: 1; white-space: pre;" transform="translate(0,724.22)">4</text></g></g><g class="overaxes-above"/></g></g><g class="polarlayer"/><g class="smithlayer"/><g class="ternarylayer"/><g class="geolayer"/><g class="funnelarealayer"/><g class="pielayer"/><g class="iciclelayer"/><g class="treemaplayer"/><g class="sunburstlayer"/><g class="glimages"/><defs id="topdefs-8c026d"><g class="clips"/><clipPath id="legend8c026d"><rect width="118" height="48" x="0" y="0"/></clipPath></defs><g class="layer-above"><g class="imagelayer"/><g class="shapelayer"/></g><g class="infolayer"><g class="legend" pointer-events="all" transform="translate(970.46,100)"><rect class="bg" shape-rendering="crispEdges" style="stroke: rgb(68, 68, 68); stroke-opacity: 1; fill: rgb(255, 255, 255); fill-opacity: 1; stroke-width: 0px;" width="118" height="48" x="0" y="0"/><g class="scrollbox" transform="" clip-path="url(#legend8c026d)"><g class="groups"><g class="traces" transform="translate(0,14.5)" style="opacity: 1;"><text class="legendtext" text-anchor="start" x="40" y="4.680000000000001" style="font-family: 'Open Sans', verdana, arial, sans-serif; font-size: 12px; fill: rgb(42, 63, 95); fill-opacity: 1; white-space: pre;">GT Vx_mps</text><g class="layers" style="opacity: 1;"><g class="legendfill"/><g class="legendlines"><path class="js-line" d="M5,0h30" style="fill: none; stroke: rgb(0, 0, 255); stroke-opacity: 1; stroke-width: 1.5px;"/></g><g class="legendsymbols"><g class="legendpoints"/></g></g><rect class="legendtoggle" x="0" y="-9.5" width="112.03125" height="19" style="fill: rgb(0, 0, 0); fill-opacity: 0;"/></g><g class="traces" transform="translate(0,33.5)" style="opacity: 1;"><text class="legendtext" text-anchor="start" x="40" y="4.680000000000001" style="font-family: 'Open Sans', verdana, arial, sans-serif; font-size: 12px; fill: rgb(42, 63, 95); fill-opacity: 1; white-space: pre;">Pred Vx_mps</text><g class="layers" style="opacity: 1;"><g class="legendfill"/><g class="legendlines"><path class="js-line" d="M5,0h30" style="fill: none; stroke: rgb(255, 0, 0); stroke-opacity: 1; stroke-dasharray: 9px, 9px; stroke-width: 1.5px;"/></g><g class="legendsymbols"><g class="legendpoints"/></g></g><rect class="legendtoggle" x="0" y="-9.5" width="112.03125" height="19" style="fill: rgb(0, 0, 0); fill-opacity: 0;"/></g></g></g><rect class="scrollbar" rx="20" ry="3" width="0" height="0" style="fill: rgb(128, 139, 164); fill-opacity: 1;" x="0" y="0"/></g><g class="g-gtitle"><text class="gtitle" x="55" y="50" text-anchor="start" dy="0em" style="opacity: 1; font-family: 'Open Sans', verdana, arial, sans-serif; font-size: 17px; fill: rgb(42, 63, 95); fill-opacity: 1; white-space: pre;">WAM v2 Dream: Velocity Prediction vs Ground Truth — Lap_0</text></g><g class="g-xtitle"/><g class="g-x2title"/><g class="g-x3title"/><g class="g-x4title"/><g class="g-ytitle"/><g class="g-y2title"/><g class="g-y3title"/><g class="g-y4title"/><g class="annotation" data-index="0" style="opacity: 1;"><g class="annotation-text-g" transform="rotate(0,516.5,89.5)"><g class="cursor-pointer" transform="translate(485,79)"><rect class="bg" x="0.5" y="0.5" width="63" height="20" style="stroke-width: 1px; stroke: rgb(0, 0, 0); stroke-opacity: 0; fill: rgb(0, 0, 0); fill-opacity: 0;"/><text class="annotation-text" text-anchor="middle" x="31.7734375" y="16" style="font-family: 'Open Sans', verdana, arial, sans-serif; font-size: 16px; fill: rgb(42, 63, 95); fill-opacity: 1; white-space: pre;">Vx (m/s)</text></g></g></g><g class="annotation" data-index="1" style="opacity: 1;"><g class="annotation-text-g" transform="rotate(0,516.5,283.9)"><g class="cursor-pointer" transform="translate(485,273)"><rect class="bg" x="0.5" y="0.5" width="62" height="20" style="stroke-width: 1px; stroke: rgb(0, 0, 0); stroke-opacity: 0; fill: rgb(0, 0, 0); fill-opacity: 0;"/><text class="annotation-text" text-anchor="middle" x="31.4765625" y="16" style="font-family: 'Open Sans', verdana, arial, sans-serif; font-size: 16px; fill: rgb(42, 63, 95); fill-opacity: 1; white-space: pre;">Vy (m/s)</text></g></g></g><g class="annotation" data-index="2" style="opacity: 1;"><g class="annotation-text-g" transform="rotate(0,516.5,478.3)"><g class="cursor-pointer" transform="translate(485,468)"><rect class="bg" x="0.5" y="0.5" width="63" height="20" style="stroke-width: 1px; stroke: rgb(0, 0, 0); stroke-opacity: 0; fill: rgb(0, 0, 0); fill-opacity: 0;"/><text class="annotation-text" text-anchor="middle" x="31.7734375" y="16" style="font-family: 'Open Sans', verdana, arial, sans-serif; font-size: 16px; fill: rgb(42, 63, 95); fill-opacity: 1; white-space: pre;">Vz (m/s)</text></g></g></g><g class="annotation" data-index="3" style="opacity: 1;"><g class="annotation-text-g" transform="rotate(0,516.5,672.7)"><g class="cursor-pointer" transform="translate(451,662)"><rect class="bg" x="0.5" y="0.5" width="130" height="20" style="stroke-width: 1px; stroke: rgb(0, 0, 0); stroke-opacity: 0; fill: rgb(0, 0, 0); fill-opacity: 0;"/><text class="annotation-text" text-anchor="middle" x="65.5703125" y="16" style="font-family: 'Open Sans', verdana, arial, sans-serif; font-size: 16px; fill: rgb(42, 63, 95); fill-opacity: 1; white-space: pre;">Speed Error (m/s)</text></g></g></g></g></svg>