<svg class="main-svg" xmlns="http://www.w3.org/2000/svg" xmlns:xlink="http://www.w3.org/1999/xlink" width="1100" height="900" style="" viewBox="0 0 1100 900"><rect x="0" y="0" width="1100" height="900" style="fill: rgb(255, 255, 255); fill-opacity: 1;"/><defs id="defs-a859f3"><g class="clips"><clipPath id="clipa859f3xyplot" class="plotclip"><rect width="873" height="136.79999999999995"/></clipPath><clipPath id="clipa859f3x2y2plot" class="plotclip"><rect width="873" height="136.79999999999995"/></clipPath><clipPath id="clipa859f3x3y3plot" class="plotclip"><rect width="873" height="136.8"/></clipPath><clipPath id="clipa859f3x4y4plot" class="plotclip"><rect width="873" height="136.8"/></clipPath><clipPath class="axesclip" id="clipa859f3x"><rect x="80" y="0" width="873" height="900"/></clipPath><clipPath class="axesclip" id="clipa859f3y"><rect x="0" y="100" width="1100" height="136.79999999999995"/></clipPath><clipPath class="axesclip" id="clipa859f3xy"><rect x="80" y="100" width="873" height="136.79999999999995"/></clipPath><clipPath class="axesclip" id="clipa859f3y2"><rect x="0" y="294.4" width="1100" height="136.79999999999995"/></clipPath><clipPath class="axesclip" id="clipa859f3xy2"><rect x="80" y="294.4" width="873" height="136.79999999999995"/></clipPath><clipPath class="axesclip" id="clipa859f3y3"><rect x="0" y="488.8" width="1100" height="136.8"/></clipPath><clipPath class="axesclip" id="clipa859f3xy3"><rect x="80" y="488.8" width="873" height="136.8"/></clipPath><clipPath class="axesclip" id="clipa859f3y4"><rect x="0" y="683.2" width="1100" height="136.8"/></clipPath><clipPath class="axesclip" id="clipa859f3xy4"><rect x="80" y="683.2" width="873" height="136.8"/></clipPath><clipPath class="axesclip" id="clipa859f3x2"><rect x="80" y="0" width="873" height="900"/></clipPath><clipPath class="axesclip" id="clipa859f3x2y"><rect x="80" y="100" width="873" height="136.79999999999995"/></clipPath><clipPath class="axesclip" id="clipa859f3x2y2"><rect x="80" y="294.4" width="873" height="136.79999999999995"/></clipPath><clipPath class="axesclip" id="clipa859f3x2y3"><rect x="80" y="488.8" width="873" height="136.8"/></clipPath><clipPath class="axesclip" id="clipa859f3x2y4"><rect x="80" y="683.2" width="873" height="136.8"/></clipPath><clipPath class="axesclip" id="clipa859f3x3"><rect x="80" y="0" width="873" height="900"/></clipPath><clipPath class="axesclip" id="clipa859f3x3y"><rect x="80" y="100" width="873" height="136.79999999999995"/></clipPath><clipPath class="axesclip" id="clipa859f3x3y2"><rect x="80" y="294.4" width="873" height="136.79999999999995"/></clipPath><clipPath class="axesclip" id="clipa859f3x3y3"><rect x="80" y="488.8" width="873" height="136.8"/></clipPath><clipPath class="axesclip" id="clipa859f3x3y4"><rect x="80" y="683.2" width="873" height="136.8"/></clipPath><clipPath class="axesclip" id="clipa859f3x4"><rect x="80" y="0" width="873" height="900"/></clipPath><clipPath class="axesclip" id="clipa859f3x4y"><rect x="80" y="100" width="873" height="136.79999999999995"/></clipPath><clipPath class="axesclip" id="clipa859f3x4y2"><rect x="80" y="294.4" width="873" height="136.79999999999995"/></clipPath><clipPath class="axesclip" id="clipa859f3x4y3"><rect x="80" y="488.8" width="873" height="136.8"/></clipPath><clipPath class="axesclip" id="clipa859f3x4y4"><rect x="80" y="683.2" width="873" height="136.8"/></clipPath></g><g class="gradients"/><g class="patterns"/></defs><g class="bglayer"><rect class="bg" x="80" y="100" width="873" height="136.79999999999995" style="fill: rgb(229, 236, 246); fill-opacity: 1; stroke-width: 0;"/><rect class="bg" x="80" y="294.4" width="873" height="136.79999999999995" style="fill: rgb(229, 236, 246); fill-opacity: 1; stroke-width: 0;"/><rect class="bg" x="80" y="488.8" width="873" height="136.8" style="fill: rgb(229, 236, 246); fill-opacity: 1; stroke-width: 0;"/><rect class="bg" x="80" y="683.2" width="873" height="136.8" style="fill: rgb(229, 236, 246); fill-opacity: 1; stroke-width: 0;"/></g><g class="layer-below"><g class="imagelayer"/><g class="shapelayer"/></g><g class="cartesianlayer"><g class="subplot xy"><g class="layer-subplot"><g class="shapelayer"/><g class="imagelayer"/></g><g class="minor-gridlayer"><g class="x"/><g class="y"/></g><g class="gridlayer"><g class="x"><path class="xgrid crisp" transform="translate(167.51999999999998,0)" d="M0,100v136.79999999999995" style="stroke: rgb(255, 255, 255); stroke-opacity: 1; stroke-width: 1px;"/><path class="xgrid crisp" transform="translate(255.04,0)" d="M0,100v136.79999999999995" style="stroke: rgb(255, 255, 255); stroke-opacity: 1; stroke-width: 1px;"/><path class="xgrid crisp" transform="translate(342.56,0)" d="M0,100v136.79999999999995" style="stroke: rgb(255, 255, 255); stroke-opacity: 1; stroke-width: 1px;"/><path class="xgrid crisp" transform="translate(430.08,0)" d="M0,100v136.79999999999995" style="stroke: rgb(255, 255, 255); stroke-opacity: 1; stroke-width: 1px;"/><path class="xgrid crisp" transform="translate(517.5899999999999,0)" d="M0,100v136.79999999999995" style="stroke: rgb(255, 255, 255); stroke-opacity: 1; stroke-width: 1px;"/><path class="xgrid crisp" transform="translate(605.11,0)" d="M0,100v136.79999999999995" style="stroke: rgb(255, 255, 255); stroke-opacity: 1; stroke-width: 1px;"/><path class="xgrid crisp" transform="translate(692.63,0)" d="M0,100v136.79999999999995" style="stroke: rgb(255, 255, 255); stroke-opacity: 1; stroke-width: 1px;"/><path class="xgrid crisp" transform="translate(780.15,0)" d="M0,100v136.79999999999995" style="stroke: rgb(255, 255, 255); stroke-opacity: 1; stroke-width: 1px;"/><path class="xgrid crisp" transform="translate(867.67,0)" d="M0,100v136.79999999999995" style="stroke: rgb(255, 255, 255); stroke-opacity: 1; stroke-width: 1px;"/></g><g class="y"><path class="ygrid crisp" transform="translate(0,207.62)" d="M80,0h873" style="stroke: rgb(255, 255, 255); stroke-opacity: 1; stroke-width: 1px;"/><path class="ygrid crisp" transform="translate(0,175.19)" d="M80,0h873" style="stroke: rgb(255, 255, 255); stroke-opacity: 1; stroke-width: 1px;"/><path class="ygrid crisp" transform="translate(0,142.77)" d="M80,0h873" style="stroke: rgb(255, 255, 255); stroke-opacity: 1; stroke-width: 1px;"/><path class="ygrid crisp" transform="translate(0,110.34)" d="M80,0h873" style="stroke: rgb(255, 255, 255); stroke-opacity: 1; stroke-width: 1px;"/></g></g><g class="zerolinelayer"><path class="xzl zl crisp" transform="translate(80,0)" d="M0,100v136.79999999999995" style="stroke: rgb(255, 255, 255); stroke-opacity: 1; stroke-width: 2px;"/></g><g class="layer-between"><g class="shapelayer"/><g class="imagelayer"/></g><path class="xlines-below"/><path class="ylines-below"/><g class="overlines-below"/><g class="xaxislayer-below"/><g class="yaxislayer-below"/><g class="overaxes-below"/><g class="overplot"><g class="xy" transform="translate(80,100)" clip-path="url(#clipa859f3xyplot)"><g class="scatterlayer mlayer"><g class="trace scatter trace1a8f71" style="stroke-miterlimit: 2; opacity: 1;"><g class="fills"/><g class="errorbars"/><g class="lines"><path class="js-line" d="M0,91.77L17.5,102.67L19.69,103.9L45.95,116.79L48.14,117.59L59.08,121.57L61.26,122.23L72.2,125.4L74.39,125.93L91.89,128.94L94.08,129.24L107.21,129.96L109.4,129.95L122.53,128.6L124.71,128.27L140.03,124.88L142.22,124.31L161.91,118.51L164.1,117.79L185.98,110.1L188.17,109.27L218.8,95.18L220.98,94.03L238.49,85.73L240.68,84.88L277.87,69.93L280.06,69.32L295.38,63.25L297.56,62.33L312.88,55.72L315.07,54.83L356.64,38.35L358.83,37.6L391.65,25.35L393.83,24.64L413.53,18.49L415.71,17.9L428.84,14.6L431.03,14.3L463.85,9.79L466.04,9.65L492.29,8.83L494.48,8.84L525.11,9.84L527.3,10.02L617.01,17.18L619.2,17.51L636.7,20.63L638.89,21.07L656.39,25.98L658.58,26.77L671.71,31.71L673.89,32.66L687.02,38.92L689.21,40.18L704.53,48.73L706.71,50.17L724.22,61.59L726.41,63.08L752.66,81.09L754.85,82.63L783.29,100.28L785.48,101.6L807.36,111.9L809.55,112.78L820.49,116.07L822.68,116.51L833.62,118.53L835.8,118.83L848.93,120.24L851.12,120.27L868.62,119.79L870.81,119.59L873,119.38" style="vector-effect: none; fill: none; stroke: rgb(0, 0, 255); stroke-opacity: 1; stroke-width: 1.5px; opacity: 1;"/></g><g class="points"/><g class="text"/></g><g class="trace scatter trace91a9d4" style="stroke-miterlimit: 2; opacity: 1;"><g class="fills"/><g class="errorbars"/><g class="lines"><path class="js-line" d="M0,91.49L28.44,106.85L30.63,108.17L45.95,116.42L48.14,117.06L54.7,118.57L56.89,118.97L67.83,120.11L70.02,120.32L76.58,120.87L78.77,120.52L98.46,118.31L100.65,118.09L118.15,116.26L120.34,115.89L142.22,110.74L144.41,110.09L153.16,106.85L155.35,105.7L166.29,102.3L168.47,101.51L175.04,99.88L177.23,99.5L203.48,90.95L205.67,90.08L214.42,87.17L216.61,86.49L227.55,82.91L229.74,82.66L245.05,80.15L247.24,79.4L255.99,77.73L258.18,77.01L273.5,73.55L275.68,73.04L352.26,48.33L354.45,47.85L358.83,47.02L361.02,46.59L367.58,44.23L369.77,43.5L376.33,41.13L378.52,40.24L400.4,32.94L402.59,32.48L411.34,29.54L413.53,28.9L426.65,25.81L428.84,25.51L439.78,24.01L441.97,23.3L457.29,18.95L459.47,18.48L483.54,12.88L485.73,12.76L498.86,10.45L501.05,10.04L507.61,9.29L509.8,9.26L520.74,8.12L522.92,7.65L529.49,6.89L531.68,7.08L549.18,9.97L551.37,10.36L555.74,11.2L557.93,11.87L566.68,13.93L568.87,14.2L575.44,15.77L577.62,16.42L592.94,20.8L595.13,21.33L603.88,23.48L606.07,24.45L610.44,25.38L612.63,25.43L630.14,28.98L632.32,29.49L654.2,34.28L656.39,34.68L667.33,37.57L669.52,38.24L682.65,41.42L684.83,41.83L765.79,61.41L767.98,61.84L798.61,66.89L800.8,67.17L824.86,70.43L827.05,70.99L844.56,76.43L846.74,77.08L857.68,80.57L859.87,81.23L873,85.24" style="vector-effect: none; fill: none; stroke: rgb(255, 0, 0); stroke-opacity: 1; stroke-dasharray: 9px, 9px; stroke-width: 1.5px; opacity: 1;"/></g><g class="points"/><g class="text"/></g></g></g></g><g class="zerolinelayer-above"/><path class="xlines-above crisp" d="M0,0" style="fill: none;"/><path class="ylines-above crisp" d="M0,0" style="fill: none;"/><g class="overlines-above"/><g class="xaxislayer-above"/><g class="yaxislayer-above"><g class="ytick"><text text-anchor="end" x="79" y="4.199999999999999" transform="translate(0,207.62)" style="font-family: 'Open Sans', verdana, arial, sans-serif; font-size: 12px; fill: rgb(42, 63, 95); fill-opacity: 1; white-space: pre;">15</text></g><g class="ytick"><text text-anchor="end" x="79" y="4.199999999999999" style="font-family: 'Open Sans', verdana, arial, sans-serif; font-size: 12px; fill: rgb(42, 63, 95); fill-opacity: 1; white-space: pre;" transform="translate(0,175.19)">20</text></g><g class="ytick"><text text-anchor="end" x="79" y="4.199999999999999" style="font-family: 'Open Sans', verdana, arial, sans-serif; font-size: 12px; fill: rgb(42, 63, 95); fill-opacity: 1; white-space: pre;" transform="translate(0,142.77)">25</text></g><g class="ytick"><text text-anchor="end" x="79" y="4.199999999999999" style="font-family: 'Open Sans', verdana, arial, sans-serif; font-size: 12px; fill: rgb(42, 63, 95); fill-opacity: 1; white-space: pre;" transform="translate(0,110.34)">30</text></g></g><g class="overaxes-above"/></g><g class="subplot x2y2"><g class="layer-subplot"><g class="shapelayer"/><g class="imagelayer"/></g><g class="minor-gridlayer"><g class="x2"/><g class="y2"/></g><g class="gridlayer"><g class="x2"><path class="x2grid crisp" transform="translate(167.51999999999998,0)" d="M0,294.4v136.79999999999995" style="stroke: rgb(255, 255, 255); stroke-opacity: 1; stroke-width: 1px;"/><path class="x2grid crisp" transform="translate(255.04,0)" d="M0,294.4v136.79999999999995" style="stroke: rgb(255, 255, 255); stroke-opacity: 1; stroke-width: 1px;"/><path class="x2grid crisp" transform="translate(342.56,0)" d="M0,294.4v136.79999999999995" style="stroke: rgb(255, 255, 255); stroke-opacity: 1; stroke-width: 1px;"/><path class="x2grid crisp" transform="translate(430.08,0)" d="M0,294.4v136.79999999999995" style="stroke: rgb(255, 255, 255); stroke-opacity: 1; stroke-width: 1px;"/><path class="x2grid crisp" transform="translate(517.5899999999999,0)" d="M0,294.4v136.79999999999995" style="stroke: rgb(255, 255, 255); stroke-opacity: 1; stroke-width: 1px;"/><path class="x2grid crisp" transform="translate(605.11,0)" d="M0,294.4v136.79999999999995" style="stroke: rgb(255, 255, 255); stroke-opacity: 1; stroke-width: 1px;"/><path class="x2grid crisp" transform="translate(692.63,0)" d="M0,294.4v136.79999999999995" style="stroke: rgb(255, 255, 255); stroke-opacity: 1; stroke-width: 1px;"/><path class="x2grid crisp" transform="translate(780.15,0)" d="M0,294.4v136.79999999999995" style="stroke: rgb(255, 255, 255); stroke-opacity: 1; stroke-width: 1px;"/><path class="x2grid crisp" transform="translate(867.67,0)" d="M0,294.4v136.79999999999995" style="stroke: rgb(255, 255, 255); stroke-opacity: 1; stroke-width: 1px;"/></g><g class="y2"><path class="y2grid crisp" transform="translate(0,379.04999999999995)" d="M80,0h873" style="stroke: rgb(255, 255, 255); stroke-opacity: 1; stroke-width: 1px;"/><path class="y2grid crisp" transform="translate(0,347.21999999999997)" d="M80,0h873" style="stroke: rgb(255, 255, 255); stroke-opacity: 1; stroke-width: 1px;"/><path class="y2grid crisp" transform="translate(0,315.39)" d="M80,0h873" style="stroke: rgb(255, 255, 255); stroke-opacity: 1; stroke-width: 1px;"/></g></g><g class="zerolinelayer"><path class="x2zl zl crisp" transform="translate(80,0)" d="M0,294.4v136.79999999999995" style="stroke: rgb(255, 255, 255); stroke-opacity: 1; stroke-width: 2px;"/><path class="y2zl zl crisp" transform="translate(0,410.89)" d="M80,0h873" style="stroke: rgb(255, 255, 255); stroke-opacity: 1; stroke-width: 2px;"/></g><g class="layer-between"><g class="shapelayer"/><g class="imagelayer"/></g><path class="xlines-below"/><path class="ylines-below"/><g class="overlines-below"/><g class="xaxislayer-below"/><g class="yaxislayer-below"/><g class="overaxes-below"/><g class="overplot"><g class="x2y2" transform="translate(80,294.4)" clip-path="url(#clipa859f3x2y2plot)"><g class="scatterlayer mlayer"><g class="trace scatter tracee398e4" style="stroke-miterlimit: 2; opacity: 1;"><g class="fills"/><g class="errorbars"/><g class="lines"><path class="js-line" d="M0,125.15L2.19,123.94L4.38,125.08L6.56,122.93L8.75,123.13L13.13,122.46L15.32,123.07L17.5,123.91L19.69,122.75L21.88,122.12L24.07,120.19L26.26,120.43L28.44,119.05L32.82,120.2L35.01,119.57L41.57,115.4L43.76,115.86L45.95,113.05L48.14,113.48L54.7,111.03L56.89,111.71L59.08,110.43L61.26,111.74L63.45,109.79L65.64,112.03L67.83,110.24L70.02,113.12L72.2,113.5L74.39,112.95L78.77,111.1L80.95,111.99L83.14,112.66L85.33,111.1L89.71,111.33L91.89,110.45L94.08,110.52L96.27,109.51L98.46,109.36L100.65,108.09L102.83,106.79L105.02,108.18L107.21,106.27L109.4,107.94L115.96,107.32L118.15,108.06L120.34,107.19L122.53,107.38L126.9,107.78L129.09,106.73L131.28,108.48L133.47,107.56L137.84,109.87L140.03,110.28L142.22,110.4L144.41,112.2L148.78,113.33L150.97,113.58L153.16,114.97L155.35,115.04L157.53,116.23L159.72,115.63L161.91,116.84L164.1,116.83L172.85,117.5L175.04,118.43L177.23,118.18L179.41,118.83L185.98,120.22L188.17,120.41L192.54,121.33L194.73,121.23L201.29,123.44L203.48,123.8L212.23,124.46L214.42,125.04L218.8,124.24L220.98,124.43L229.74,125.58L231.92,124.9L236.3,125.11L238.49,125.43L242.86,125.26L245.05,125.44L249.43,125L251.62,126.09L258.18,124.87L260.37,125.29L262.56,124.88L264.74,125.27L266.93,124.35L269.12,124.57L271.31,123.7L273.5,124.68L275.68,123.58L277.87,123.8L284.44,123.4L286.62,123.28L293.19,122.5L295.38,123.19L299.75,120.53L301.94,120.3L304.13,120.83L306.32,120.28L315.07,121.3L317.26,122.63L323.82,122.64L326.01,122.55L330.38,122.4L332.57,121.44L334.76,121.42L336.95,120.42L339.14,121.17L341.32,120.58L343.51,119.64L345.7,120.04L347.89,119.62L350.08,120.07L352.26,119.83L354.45,121.18L356.64,120.18L358.83,121.01L361.02,121.71L363.2,121.58L365.39,122.61L367.58,122.37L371.95,123.35L374.14,123.01L376.33,123.3L378.52,122.72L387.27,120.9L389.46,121.21L393.83,120.91L396.02,121.52L398.21,121.06L400.4,121.39L404.77,122.97L406.96,122.88L411.34,122.92L413.53,123.12L415.71,121.72L417.9,122.01L422.28,120.7L424.47,121.05L431.03,119.37L433.22,119.28L444.16,118.66L446.35,117.75L448.53,118.24L450.72,116.12L452.91,116.27L455.1,115.61L459.47,115.75L461.66,115.83L468.23,114.58L470.41,115.22L472.6,114.59L474.79,115.26L483.54,106.66L485.73,106.21L492.29,103.22L494.48,103.04L496.67,102.03L498.86,102.02L501.05,102.93L503.23,101.67L505.42,101.97L507.61,101.35L509.8,100.71L511.98,99.23L516.36,97.41L518.55,97.39L533.86,103.91L536.05,103.25L540.43,101.81L542.62,100.93L546.99,98.04L549.18,94.79L553.56,90.47L555.74,88.13L557.93,85.69L560.12,85.48L564.5,81.32L566.68,81.22L571.06,85.97L573.25,88.19L577.62,91.08L579.81,92.44L590.75,95.12L592.94,94.57L603.88,94.68L606.07,95.81L610.44,101.53L612.63,104.83L614.82,107.82L617.01,112.1L621.38,115.59L623.57,116.24L625.76,116.44L627.95,114.74L634.51,113.53L636.7,113.58L638.89,114.75L641.08,115.02L643.26,115.78L645.45,115.64L652.02,116.59L654.2,115.86L656.39,116.4L658.58,117.99L662.95,117.42L665.14,118.62L669.52,117L671.71,117.29L676.08,116.38L678.27,116.86L687.02,120.46L689.21,121.03L695.77,120.38L697.96,118.98L708.9,116.89L711.09,115.09L713.28,115.71L715.47,114.81L717.65,114.02L719.84,114.81L728.59,113.5L730.78,114.29L732.97,115.13L735.16,114.57L739.53,114.72L741.72,114.07L748.29,113.69L750.47,112.72L757.04,112.11L759.23,112.87L761.41,113.23L763.6,115.45L770.17,120.51L772.35,121.24L781.11,121.6L783.29,122.63L789.86,121.77L792.05,120.99L798.61,121.54L800.8,122.43L805.17,121.95L807.36,123.63L811.74,125.65L813.92,125.75L816.11,124.62L818.3,124.44L820.49,125.31L822.68,124.88L829.24,125.43L831.43,124.11L844.56,128.42L846.74,127.83L848.93,128.47L851.12,128.08L855.5,129.53L857.68,129.95L868.62,129.25L870.81,128.95L873,129.01" style="vector-effect: none; fill: none; stroke: rgb(0, 0, 255); stroke-opacity: 1; stroke-width: 1.5px; opacity: 1;"/></g><g class="points"/><g class="text"/></g><g class="trace scatter tracecaaea3" style="stroke-miterlimit: 2; opacity: 1;"><g class="fills"/><g class="errorbars"/><g class="lines"><path class="js-line" d="M0,124.9L8.75,120.25L10.94,119.89L13.13,118.73L15.32,118.62L19.69,116.76L21.88,116.2L28.44,113.54L30.63,112.65L56.89,104.69L59.08,104.46L67.83,104.63L70.02,105.01L78.77,107.05L80.95,107.25L85.33,107.57L87.52,108.11L94.08,109.58L96.27,109.38L107.21,112.03L109.4,113.06L115.96,114.38L118.15,114.83L137.84,115.75L140.03,116.43L142.22,116.01L144.41,116.51L146.59,117.1L148.78,116.88L155.35,118.18L157.53,118.11L164.1,118.48L166.29,118.94L168.47,119L170.66,119.95L175.04,121L177.23,121.11L185.98,122.56L188.17,123.96L192.54,123.76L194.73,124.59L199.11,125.36L201.29,125.12L207.86,124.97L210.05,125.43L223.17,123.14L225.36,123.78L231.92,123.21L234.11,123.81L238.49,123.81L240.68,122.51L242.86,121.83L245.05,122.5L247.24,122.44L249.43,123.24L255.99,118.21L258.18,117.41L264.74,115.38L266.93,114.97L273.5,112.31L275.68,111.57L280.06,109.57L282.25,109.22L288.81,109.69L291,110.02L301.94,109.48L304.13,109.49L317.26,108.4L319.44,108.62L323.82,107.74L326.01,108.09L330.38,108.58L332.57,108.15L343.51,106.46L345.7,105.73L350.08,104.84L352.26,104.74L356.64,104.5L358.83,103.91L363.2,104.62L365.39,104.42L369.77,105.26L371.95,105.16L376.33,105.81L378.52,106.08L393.83,107.75L396.02,107.82L409.15,105.83L411.34,105.28L428.84,100.44L431.03,100.41L439.78,100.99L441.97,100.41L448.53,99.91L450.72,99.65L461.66,97.57L463.85,97.15L476.98,95.65L479.17,94.26L487.92,86.43L490.11,84.87L494.48,81.97L496.67,81.22L503.23,79.73L505.42,78.37L516.36,71.76L518.55,70.65L522.92,69.84L525.11,69.95L529.49,70.2L531.68,71.48L536.05,72.35L538.24,71.69L540.43,71.54L542.62,70.47L549.18,68.61L551.37,69.13L555.74,72.47L557.93,73.64L564.5,75.97L566.68,78.04L573.25,85.58L575.44,87.67L584.19,95.88L586.38,98.14L590.75,101.51L592.94,102.06L595.13,102.03L597.32,100.74L599.5,100.02L601.69,98.49L608.26,92L610.44,90.59L612.63,90.15L614.82,90.92L630.14,99.6L632.32,100.39L641.08,102.6L643.26,102.88L656.39,104.32L658.58,104.79L676.08,108.6L678.27,109.02L693.59,113.12L695.77,113L702.34,112.39L704.53,112.57L713.28,114.71L715.47,115.45L719.84,116.17L722.03,115.93L728.59,115.66L730.78,116.22L741.72,119.2L743.91,119.02L750.47,118.31L752.66,118.78L759.23,119.8L761.41,119.85L770.17,119.98L772.35,120.28L778.92,120.48L781.11,120.25L798.61,117.23L800.8,116.49L805.17,114.32L807.36,112.67L811.74,107.79L813.92,104.79L818.3,97.25L820.49,91.63L827.05,70.22L829.24,62.51L840.18,25.46L842.37,18.99L844.56,11.54L846.74,6.84L873,6.84" style="vector-effect: none; fill: none; stroke: rgb(255, 0, 0); stroke-opacity: 1; stroke-dasharray: 9px, 9px; stroke-width: 1.5px; opacity: 1;"/></g><g class="points"/><g class="text"/></g></g></g></g><g class="zerolinelayer-above"/><path class="xlines-above crisp" d="M0,0" style="fill: none;"/><path class="ylines-above crisp" d="M0,0" style="fill: none;"/><g class="overlines-above"/><g class="xaxislayer-above"/><g class="yaxislayer-above"><g class="y2tick"><text text-anchor="end" x="79" y="4.199999999999999" transform="translate(0,410.89)" style="font-family: 'Open Sans', verdana, arial, sans-serif; font-size: 12px; fill: rgb(42, 63, 95); fill-opacity: 1; white-space: pre;">0</text></g><g class="y2tick"><text text-anchor="end" x="79" y="4.199999999999999" style="font-family: 'Open Sans', verdana, arial, sans-serif; font-size: 12px; fill: rgb(42, 63, 95); fill-opacity: 1; white-space: pre;" transform="translate(0,379.04999999999995)">1</text></g><g class="y2tick"><text text-anchor="end" x="79" y="4.199999999999999" style="font-family: 'Open Sans', verdana, arial, sans-serif; font-size: 12px; fill: rgb(42, 63, 95); fill-opacity: 1; white-space: pre;" transform="translate(0,347.21999999999997)">2</text></g><g class="y2tick"><text text-anchor="end" x="79" y="4.199999999999999" style="font-family: 'Open Sans', verdana, arial, sans-serif; font-size: 12px; fill: rgb(42, 63, 95); fill-opacity: 1; white-space: pre;" transform="translate(0,315.39)">3</text></g></g><g class="overaxes-above"/></g><g class="subplot x3y3"><g class="layer-subplot"><g class="shapelayer"/><g class="imagelayer"/></g><g class="minor-gridlayer"><g class="x3"/><g class="y3"/></g><g class="gridlayer"><g class="x3"><path class="x3grid crisp" transform="translate(167.51999999999998,0)" d="M0,488.8v136.8" style="stroke: rgb(255, 255, 255); stroke-opacity: 1; stroke-width: 1px;"/><path class="x3grid crisp" transform="translate(255.04,0)" d="M0,488.8v136.8" style="stroke: rgb(255, 255, 255); stroke-opacity: 1; stroke-width: 1px;"/><path class="x3grid crisp" transform="translate(342.56,0)" d="M0,488.8v136.8" style="stroke: rgb(255, 255, 255); stroke-opacity: 1; stroke-width: 1px;"/><path class="x3grid crisp" transform="translate(430.08,0)" d="M0,488.8v136.8" style="stroke: rgb(255, 255, 255); stroke-opacity: 1; stroke-width: 1px;"/><path class="x3grid crisp" transform="translate(517.5899999999999,0)" d="M0,488.8v136.8" style="stroke: rgb(255, 255, 255); stroke-opacity: 1; stroke-width: 1px;"/><path class="x3grid crisp" transform="translate(605.11,0)" d="M0,488.8v136.8" style="stroke: rgb(255, 255, 255); stroke-opacity: 1; stroke-width: 1px;"/><path class="x3grid crisp" transform="translate(692.63,0)" d="M0,488.8v136.8" style="stroke: rgb(255, 255, 255); stroke-opacity: 1; stroke-width: 1px;"/><path class="x3grid crisp" transform="translate(780.15,0)" d="M0,488.8v136.8" style="stroke: rgb(255, 255, 255); stroke-opacity: 1; stroke-width: 1px;"/><path class="x3grid crisp" transform="translate(867.67,0)" d="M0,488.8v136.8" style="stroke: rgb(255, 255, 255); stroke-opacity: 1; stroke-width: 1px;"/></g><g class="y3"><path class="y3grid crisp" transform="translate(0,596.79)" d="M80,0h873" style="stroke: rgb(255, 255, 255); stroke-opacity: 1; stroke-width: 1px;"/><path class="y3grid crisp" transform="translate(0,527.03)" d="M80,0h873" style="stroke: rgb(255, 255, 255); stroke-opacity: 1; stroke-width: 1px;"/><path class="y3grid crisp" transform="translate(0,492.15000000000003)" d="M80,0h873" style="stroke: rgb(255, 255, 255); stroke-opacity: 1; stroke-width: 1px;"/></g></g><g class="zerolinelayer"><path class="x3zl zl crisp" transform="translate(80,0)" d="M0,488.8v136.8" style="stroke: rgb(255, 255, 255); stroke-opacity: 1; stroke-width: 2px;"/><path class="y3zl zl crisp" transform="translate(0,561.91)" d="M80,0h873" style="stroke: rgb(255, 255, 255); stroke-opacity: 1; stroke-width: 2px;"/></g><g class="layer-between"><g class="shapelayer"/><g class="imagelayer"/></g><path class="xlines-below"/><path class="ylines-below"/><g class="overlines-below"/><g class="xaxislayer-below"/><g class="yaxislayer-below"/><g class="overaxes-below"/><g class="overplot"><g class="x3y3" transform="translate(80,488.8)" clip-path="url(#clipa859f3x3y3plot)"><g class="scatterlayer mlayer"><g class="trace scatter trace177023" style="stroke-miterlimit: 2; opacity: 1;"><g class="fills"/><g class="errorbars"/><g class="lines"><path class="js-line" d="M0,58.46L4.38,61.25L6.56,62.65L10.94,63.69L13.13,62.99L17.5,67.18L19.69,67.88L24.07,69.97L26.26,69.97L30.63,68.57L32.82,69.62L35.01,70.32L37.2,69.97L48.14,68.23L50.32,68.92L54.7,68.23L56.89,67.88L59.08,69.27L61.26,67.53L63.45,68.57L65.64,67.18L72.2,69.62L74.39,67.88L76.58,68.92L78.77,68.57L80.95,69.62L83.14,69.62L87.52,70.32L89.71,68.92L98.46,69.97L100.65,68.92L105.02,69.62L107.21,68.92L109.4,67.88L111.59,68.92L113.77,68.23L115.96,68.92L120.34,68.23L122.53,66.83L124.71,66.13L126.9,66.48L129.09,65.78L131.28,66.83L133.47,66.48L135.65,67.18L140.03,66.48L142.22,67.53L148.78,66.48L150.97,67.53L155.35,68.23L157.53,67.53L161.91,67.53L164.1,67.53L170.66,67.88L172.85,68.57L185.98,67.18L188.17,67.18L194.73,69.27L196.92,68.57L201.29,69.97L203.48,69.62L205.67,71.02L207.86,71.02L212.23,68.92L214.42,69.27L218.8,68.57L220.98,69.97L225.36,71.02L227.55,70.32L231.92,72.41L234.11,72.76L236.3,72.41L238.49,71.02L242.86,70.32L245.05,70.32L247.24,69.62L249.43,71.02L253.8,69.27L255.99,69.62L258.18,69.62L260.37,70.67L262.56,69.62L264.74,70.67L271.31,71.36L273.5,69.62L275.68,70.67L277.87,70.32L280.06,71.02L282.25,70.67L284.44,71.71L286.62,71.02L288.81,72.41L291,72.06L295.38,72.41L297.56,71.71L299.75,71.02L301.94,71.36L310.69,72.41L312.88,73.81L317.26,72.76L319.44,72.76L323.82,73.46L326.01,73.81L330.38,75.2L332.57,74.15L341.32,73.46L343.51,74.5L347.89,73.46L350.08,74.5L354.45,74.85L356.64,72.76L363.2,68.92L365.39,67.18L369.77,66.13L371.95,65.09L380.71,63.34L382.89,61.6L385.08,59.16L387.27,58.81L389.46,57.06L391.65,56.72L393.83,55.32L396.02,52.88L398.21,50.79L400.4,47.65L402.59,42.76L404.77,40.67L411.34,38.23L413.53,35.44L415.71,34.39L417.9,31.95L422.28,27.77L424.47,27.07L426.65,25.67L428.84,23.23L435.41,18.35L437.59,15.91L439.78,13.47L441.97,14.86L446.35,15.91L448.53,13.12L452.91,9.98L455.1,9.63L457.29,7.89L459.47,8.93L461.66,10.68L463.85,9.98L468.23,6.84L470.41,7.89L474.79,12.77L476.98,13.47L479.17,12.77L481.35,13.47L485.73,14.86L487.92,15.56L492.29,14.16L494.48,16.26L496.67,15.91L498.86,16.95L501.05,17.65L503.23,20.09L505.42,21.84L507.61,24.63L509.8,22.54L511.98,22.19L516.36,23.58L518.55,21.84L527.3,20.44L529.49,22.19L533.86,26.02L536.05,27.07L538.24,28.12L540.43,31.6L544.8,40.32L546.99,44.16L551.37,53.23L553.56,59.51L555.74,63.34L557.93,69.27L562.31,76.6L564.5,76.95L566.68,80.08L568.87,84.97L575.44,101.01L577.62,103.45L586.38,116.36L588.56,119.15L592.94,121.94L595.13,124.38L599.5,127.52L601.69,129.26L603.88,129.96L606.07,129.26L612.63,126.47L614.82,126.12L619.2,121.24L621.38,121.94L625.76,120.19L627.95,116.36L634.51,101.36L636.7,98.57L641.08,94.38L643.26,93.69L645.45,92.64L647.64,90.55L652.02,84.27L654.2,79.04L660.77,71.36L662.95,69.97L665.14,67.88L667.33,67.53L669.52,66.83L671.71,64.74L676.08,57.76L678.27,54.62L680.46,51.14L682.65,49.39L684.83,44.86L687.02,42.76L689.21,40.67L691.4,41.02L695.77,39.28L697.96,37.18L700.15,37.18L702.34,38.58L708.9,42.07L711.09,42.76L719.84,49.39L722.03,50.09L724.22,49.39L726.41,49.74L730.78,49.74L732.97,51.14L739.53,52.53L741.72,53.58L746.1,57.41L748.29,58.46L750.47,60.55L752.66,59.85L757.04,61.25L759.23,61.6L763.6,62.99L765.79,63.69L767.98,62.3L770.17,64.04L772.35,62.3L774.54,61.95L783.29,60.2L785.48,59.16L794.23,58.11L796.42,59.16L800.8,56.72L802.98,56.72L805.17,58.46L807.36,58.81L813.92,57.41L816.11,58.46L818.3,59.85L820.49,59.85L822.68,60.2L824.86,59.51L827.05,58.46L829.24,59.16L831.43,59.85L833.62,59.51L835.8,60.55L837.99,60.55L842.37,60.55L844.56,60.55L846.74,61.6L848.93,60.9L855.5,61.6L857.68,60.55L859.87,61.95L862.06,61.25L870.81,63.34L873,63.69" style="vector-effect: none; fill: none; stroke: rgb(0, 0, 255); stroke-opacity: 1; stroke-width: 1.5px; opacity: 1;"/></g><g class="points"/><g class="text"/></g><g class="trace scatter trace38412e" style="stroke-miterlimit: 2; opacity: 1;"><g class="fills"/><g class="errorbars"/><g class="lines"><path class="js-line" d="M0,59.6L8.75,63.35L10.94,63.45L21.88,67.63L24.07,68.31L30.63,69.31L32.82,69.64L56.89,69.73L59.08,69.15L65.64,67.17L67.83,65.85L72.2,63.46L74.39,63.41L83.14,64.41L85.33,63.62L91.89,62.8L94.08,62.69L98.46,62.52L100.65,62.48L105.02,62.14L107.21,61.79L120.34,61.97L122.53,62.3L126.9,62.63L129.09,62.4L133.47,62.44L135.65,62.11L146.59,63.31L148.78,64.37L153.16,65.41L155.35,65.25L157.53,64.43L159.72,64.51L164.1,63.7L166.29,64.17L170.66,66L172.85,65.73L181.6,64.71L183.79,65.2L188.17,67.27L190.35,67.29L205.67,68.96L207.86,69.43L214.42,72.33L216.61,72.77L227.55,74.45L229.74,74.33L234.11,75.25L236.3,76.82L242.86,78.64L245.05,78.93L251.62,82.9L253.8,84.25L258.18,86.8L260.37,87.05L264.74,87.89L266.93,89.31L271.31,90.81L273.5,91.57L277.87,92.41L280.06,91.8L288.81,88.63L291,88.47L301.94,87.36L304.13,87.67L315.07,88.02L317.26,86.79L319.44,85.89L321.63,86.05L328.2,87.24L330.38,87.11L341.32,87.64L343.51,87.85L350.08,88.66L352.26,89.35L356.64,89.87L358.83,88.86L361.02,86.52L363.2,85.61L369.77,85.36L371.95,83.86L374.14,82.26L376.33,82.34L380.71,83.06L382.89,84.3L396.02,83.35L398.21,84.12L404.77,86.78L406.96,87.41L411.34,88.29L413.53,88.08L420.09,83.19L422.28,80.64L426.65,78.74L428.84,78.23L435.41,77.54L437.59,76.57L446.35,77.65L448.53,78.28L452.91,77.6L455.1,76.26L459.47,73.17L461.66,72.56L468.23,69.48L470.41,69.44L479.17,70.29L481.35,69.43L496.67,54.17L498.86,52.66L509.8,49.23L511.98,48.67L516.36,46.62L518.55,44.89L522.92,41.14L525.11,40.03L527.3,39.18L529.49,39.3L533.86,40.07L536.05,39.83L540.43,41.24L542.62,42.32L544.8,41.87L546.99,40.27L549.18,37.91L551.37,36.72L553.56,37.09L555.74,38.84L557.93,39.48L560.12,38.88L566.68,34.12L568.87,34.02L575.44,35.69L577.62,34.94L584.19,30.74L586.38,30.51L588.56,31.85L590.75,34.75L595.13,38.72L597.32,38.08L603.88,36.3L606.07,35.13L610.44,33.35L612.63,32.85L619.2,34.05L621.38,34.16L630.14,33.16L632.32,32.85L641.08,31.23L643.26,30.42L654.2,26.04L656.39,25.5L667.33,23.9L669.52,23.65L676.08,21.36L678.27,20.62L682.65,20.08L684.83,20.21L693.59,22.17L695.77,21.58L706.71,18.12L708.9,17.91L713.28,18.5L715.47,19.29L717.65,19.82L719.84,19.41L726.41,17.28L728.59,16.86L732.97,16.4L735.16,16.39L741.72,16.22L743.91,15.48L752.66,13.93L754.85,13.86L763.6,11.81L765.79,11.23L792.05,7.22L794.23,7.1L802.98,7.37L805.17,7.77L818.3,11.02L820.49,12.98L824.86,17.26L827.05,18.66L831.43,21.16L833.62,23.24L837.99,27.48L840.18,28.63L844.56,30.1L846.74,32.1L853.31,38L855.5,38.94L859.87,41.18L862.06,42.64L868.62,47.84L870.81,49.53L873,50.88" style="vector-effect: none; fill: none; stroke: rgb(255, 0, 0); stroke-opacity: 1; stroke-dasharray: 9px, 9px; stroke-width: 1.5px; opacity: 1;"/></g><g class="points"/><g class="text"/></g></g></g></g><g class="zerolinelayer-above"/><path class="xlines-above crisp" d="M0,0" style="fill: none;"/><path class="ylines-above crisp" d="M0,0" style="fill: none;"/><g class="overlines-above"/><g class="xaxislayer-above"/><g class="yaxislayer-above"><g class="y3tick"><text text-anchor="end" x="79" y="4.199999999999999" transform="translate(0,596.79)" style="font-family: 'Open Sans', verdana, arial, sans-serif; font-size: 12px; fill: rgb(42, 63, 95); fill-opacity: 1; white-space: pre;">−1</text></g><g class="y3tick"><text text-anchor="end" x="79" y="4.199999999999999" style="font-family: 'Open Sans', verdana, arial, sans-serif; font-size: 12px; fill: rgb(42, 63, 95); fill-opacity: 1; white-space: pre;" transform="translate(0,561.91)">0</text></g><g class="y3tick"><text text-anchor="end" x="79" y="4.199999999999999" style="font-family: 'Open Sans', verdana, arial, sans-serif; font-size: 12px; fill: rgb(42, 63, 95); fill-opacity: 1; white-space: pre;" transform="translate(0,527.03)">1</text></g><g class="y3tick"><text text-anchor="end" x="79" y="4.199999999999999" style="font-family: 'Open Sans', verdana, arial, sans-serif; font-size: 12px; fill: rgb(42, 63, 95); fill-opacity: 1; white-space: pre;" transform="translate(0,492.15000000000003)">2</text></g></g><g class="overaxes-above"/></g><g class="subplot x4y4"><g class="layer-subplot"><g class="shapelayer"/><g class="imagelayer"/></g><g class="minor-gridlayer"><g class="x4"/><g class="y4"/></g><g class="gridlayer"><g class="x4"><path class="x4grid crisp" transform="translate(167.51999999999998,0)" d="M0,683.2v136.8" style="stroke: rgb(255, 255, 255); stroke-opacity: 1; stroke-width: 1px;"/><path class="x4grid crisp" transform="translate(255.04,0)" d="M0,683.2v136.8" style="stroke: rgb(255, 255, 255); stroke-opacity: 1; stroke-width: 1px;"/><path class="x4grid crisp" transform="translate(342.56,0)" d="M0,683.2v136.8" style="stroke: rgb(255, 255, 255); stroke-opacity: 1; stroke-width: 1px;"/><path class="x4grid crisp" transform="translate(430.08,0)" d="M0,683.2v136.8" style="stroke: rgb(255, 255, 255); stroke-opacity: 1; stroke-width: 1px;"/><path class="x4grid crisp" transform="translate(517.5899999999999,0)" d="M0,683.2v136.8" style="stroke: rgb(255, 255, 255); stroke-opacity: 1; stroke-width: 1px;"/><path class="x4grid crisp" transform="translate(605.11,0)" d="M0,683.2v136.8" style="stroke: rgb(255, 255, 255); stroke-opacity: 1; stroke-width: 1px;"/><path class="x4grid crisp" transform="translate(692.63,0)" d="M0,683.2v136.8" style="stroke: rgb(255, 255, 255); stroke-opacity: 1; stroke-width: 1px;"/><path class="x4grid crisp" transform="translate(780.15,0)" d="M0,683.2v136.8" style="stroke: rgb(255, 255, 255); stroke-opacity: 1; stroke-width: 1px;"/><path class="x4grid crisp" transform="translate(867.67,0)" d="M0,683.2v136.8" style="stroke: rgb(255, 255, 255); stroke-opacity: 1; stroke-width: 1px;"/></g><g class="y4"><path class="y4grid crisp" transform="translate(0,781.86)" d="M80,0h873" style="stroke: rgb(255, 255, 255); stroke-opacity: 1; stroke-width: 1px;"/><path class="y4grid crisp" transform="translate(0,749.69)" d="M80,0h873" style="stroke: rgb(255, 255, 255); stroke-opacity: 1; stroke-width: 1px;"/><path class="y4grid crisp" transform="translate(0,717.51)" d="M80,0h873" style="stroke: rgb(255, 255, 255); stroke-opacity: 1; stroke-width: 1px;"/><path class="y4grid crisp" transform="translate(0,685.33)" d="M80,0h873" style="stroke: rgb(255, 255, 255); stroke-opacity: 1; stroke-width: 1px;"/></g></g><g class="zerolinelayer"><path class="x4zl zl crisp" transform="translate(80,0)" d="M0,683.2v136.8" style="stroke: rgb(255, 255, 255); stroke-opacity: 1; stroke-width: 2px;"/><path class="y4zl zl crisp" transform="translate(0,814.0400000000001)" d="M80,0h873" style="stroke: rgb(255, 255, 255); stroke-opacity: 1; stroke-width: 2px;"/></g><g class="layer-between"><g class="shapelayer"/><g class="imagelayer"/></g><path class="xlines-below"/><path class="ylines-below"/><g class="overlines-below"/><g class="xaxislayer-below"/><g class="yaxislayer-below"/><g class="overaxes-below"/><g class="overplot"><g class="x4y4" transform="translate(80,683.2)" clip-path="url(#clipa859f3x4y4plot)"><g class="scatterlayer mlayer"><g class="trace scatter trace83cada" style="stroke-miterlimit: 2; opacity: 1;"><g class="fills"/><g class="errorbars"/><g class="lines"><path class="js-line" d="M0,129.96L2.19,129.33L4.38,127.6L17.5,123.97L19.69,124.77L28.44,125.83L30.63,125.79L35.01,125.73L37.2,126.54L43.76,126.86L45.95,127.81L50.32,127.01L52.51,126.66L61.26,123.24L63.45,122.38L70.02,118.59L72.2,118.15L74.39,117.9L76.58,116.64L94.08,104.41L96.27,103.51L100.65,101.32L102.83,100.85L109.4,99.71L111.59,98.98L118.15,98.23L120.34,98.05L135.65,97.04L137.84,97.72L142.22,96.98L144.41,96.84L148.78,96.85L150.97,95.23L153.16,95.23L155.35,94.05L159.72,94.38L161.91,94.05L170.66,94.02L172.85,94.88L179.41,97.04L181.6,97.14L188.17,97.1L190.35,98.17L196.92,99.97L199.11,100.84L203.48,102.26L205.67,102.51L214.42,105.92L216.61,106.81L220.98,108.11L223.17,109.53L227.55,111.27L229.74,113.27L238.49,119L240.68,119.72L245.05,122.4L247.24,122.39L249.43,123.98L251.62,123.8L255.99,122.47L258.18,121.96L260.37,122.09L262.56,121.46L266.93,120.54L269.12,119.46L271.31,119.32L273.5,117.79L282.25,117.3L284.44,117.91L286.62,117.93L288.81,118.78L299.75,117.67L301.94,117.19L312.88,114.78L315.07,114.26L317.26,113.28L319.44,113.62L328.2,112.98L330.38,112.33L339.14,110.26L341.32,110.26L350.08,108.77L352.26,108.05L361.02,103.88L363.2,104.26L371.95,102.04L374.14,101.64L378.52,102.63L380.71,102.63L385.08,100.96L387.27,101.06L393.83,101.3L396.02,100.68L400.4,98.87L402.59,96.72L411.34,95.08L413.53,94.19L415.71,94.43L417.9,93.3L424.47,93.33L426.65,93.25L435.41,90.25L437.59,90.29L439.78,89.88L441.97,90.6L446.35,91.84L448.53,91L457.29,92.51L459.47,93.63L463.85,95.69L466.04,96.06L468.23,95.88L470.41,96.79L474.79,99.2L476.98,100.06L479.17,100.41L481.35,101.6L487.92,105.66L490.11,106.17L492.29,106.9L494.48,108.67L505.42,113.12L507.61,113.9L511.98,113.42L514.17,113.65L516.36,114.01L518.55,113.42L525.11,112.11L527.3,111.07L531.68,111.39L533.86,112.17L549.18,116.15L551.37,116.11L553.56,116.06L555.74,116.8L560.12,113.94L562.31,112.09L564.5,111.32L566.68,109.54L586.38,89.58L588.56,88.45L592.94,88.93L595.13,88.21L606.07,82.76L608.26,82.09L612.63,81.89L614.82,81.99L619.2,83.43L621.38,83.06L625.76,83.56L627.95,85.1L634.51,90.29L636.7,91.05L641.08,91.78L643.26,91.6L647.64,92.47L649.83,93.67L652.02,95.01L654.2,97.23L662.95,101.49L665.14,102.3L671.71,104.26L673.89,106.05L682.65,112.37L684.83,115.06L691.4,119.59L693.59,120.62L697.96,122.51L700.15,122.34L704.53,119.95L706.71,118.12L715.47,111.14L717.65,109.32L735.16,90.82L737.35,88.32L741.72,83.92L743.91,81.29L757.04,66.04L759.23,63.47L767.98,54.16L770.17,51.65L781.11,41.12L783.29,39.33L794.23,28.95L796.42,27.08L811.74,15.64L813.92,14.55L827.05,10.72L829.24,10.66L831.43,11.09L833.62,10.64L842.37,7.56L844.56,6.84L846.74,6.89L848.93,7.97L862.06,17.22L864.25,18.62L873,25.85" style="vector-effect: none; fill: none; stroke: rgb(128, 0, 128); stroke-opacity: 1; stroke-width: 1.5px; opacity: 1;"/></g><g class="points"/><g class="text"/></g></g></g></g><g class="zerolinelayer-above"/><path class="xlines-above crisp" d="M0,0" style="fill: none;"/><path class="ylines-above crisp" d="M0,0" style="fill: none;"/><g class="overlines-above"/><g class="xaxislayer-above"><g class="x4tick"><text text-anchor="middle" x="0" y="833" transform="translate(80,0)" style="font-family: 'Open Sans', verdana, arial, sans-serif; font-size: 12px; fill: rgb(42, 63, 95); fill-opacity: 1; white-space: pre;">0</text></g><g class="x4tick"><text text-anchor="middle" x="0" y="833" style="font-family: 'Open Sans', verdana, arial, sans-serif; font-size: 12px; fill: rgb(42, 63, 95); fill-opacity: 1; white-space: pre;" transform="translate(167.51999999999998,0)">2</text></g><g class="x4tick"><text text-anchor="middle" x="0" y="833" style="font-family: 'Open Sans', verdana, arial, sans-serif; font-size: 12px; fill: rgb(42, 63, 95); fill-opacity: 1; white-space: pre;" transform="translate(255.04,0)">4</text></g><g class="x4tick"><text text-anchor="middle" x="0" y="833" style="font-family: 'Open Sans', verdana, arial, sans-serif; font-size: 12px; fill: rgb(42, 63, 95); fill-opacity: 1; white-space: pre;" transform="translate(342.56,0)">6</text></g><g class="x4tick"><text text-anchor="middle" x="0" y="833" style="font-family: 'Open Sans', verdana, arial, sans-serif; font-size: 12px; fill: rgb(42, 63, 95); fill-opacity: 1; white-space: pre;" transform="translate(430.08,0)">8</text></g><g class="x4tick"><text text-anchor="middle" x="0" y="833" style="font-family: 'Open Sans', verdana, arial, sans-serif; font-size: 12px; fill: rgb(42, 63, 95); fill-opacity: 1; white-space: pre;" transform="translate(517.5899999999999,0)">10</text></g><g class="x4tick"><text text-anchor="middle" x="0" y="833" style="font-family: 'Open Sans', verdana, arial, sans-serif; font-size: 12px; fill: rgb(42, 63, 95); fill-opacity: 1; white-space: pre;" transform="translate(605.11,0)">12</text></g><g class="x4tick"><text text-anchor="middle" x="0" y="833" style="font-family: 'Open Sans', verdana, arial, sans-serif; font-size: 12px; fill: rgb(42, 63, 95); fill-opacity: 1; white-space: pre;" transform="translate(692.63,0)">14</text></g><g class="x4tick"><text text-anchor="middle" x="0" y="833" style="font-family: 'Open Sans', verdana, arial, sans-serif; font-size: 12px; fill: rgb(42, 63, 95); fill-opacity: 1; white-space: pre;" transform="translate(780.15,0)">16</text></g><g class="x4tick"><text text-anchor="middle" x="0" y="833" style="font-family: 'Open Sans', verdana, arial, sans-serif; font-size: 12px; fill: rgb(42, 63, 95); fill-opacity: 1; white-space: pre;" transform="translate(867.67,0)">18</text></g></g><g class="yaxislayer-above"><g class="y4tick"><text text-anchor="end" x="79" y="4.199999999999999" transform="translate(0,814.0400000000001)" style="font-family: 'Open Sans', verdana, arial, sans-serif; font-size: 12px; fill: rgb(42, 63, 95); fill-opacity: 1; white-space: pre;">0</text></g><g class="y4tick"><text text-anchor="end" x="79" y="4.199999999999999" style="font-family: 'Open Sans', verdana, arial, sans-serif; font-size: 12px; fill: rgb(42, 63, 95); fill-opacity: 1; white-space: pre;" transform="translate(0,781.86)">2</text></g><g class="y4tick"><text text-anchor="end" x="79" y="4.199999999999999" style="font-family: 'Open Sans', verdana, arial, sans-serif; font-size: 12px; fill: rgb(42, 63, 95); fill-opacity: 1; white-space: pre;" transform="translate(0,749.69)">4</text></g><g class="y4tick"><text text-anchor="end" x="79" y="4.199999999999999" style="font-family: 'Open Sans', verdana, arial, sans-serif; font-size: 12px; fill: rgb(42, 63, 95); fill-opacity: 1; white-space: pre;" transform="translate(0,717.51)">6</text></g><g class="y4tick"><text text-anchor="end" x="79" y="4.199999999999999" style="font-family: 'Open Sans', verdana, arial, sans-serif; font-size: 12px; fill: rgb(42, 63, 95); fill-opacity: 1; white-space: pre;" transform="translate(0,685.33)">8</text></g></g><g class="overaxes-above"/></g></g><g class="polarlayer"/><g class="smithlayer"/><g class="ternarylayer"/><g class="geolayer"/><g class="funnelarealayer"/><g class="pielayer"/><g class="iciclelayer"/><g class="treemaplayer"/><g class="sunburstlayer"/><g class="glimages"/><defs id="topdefs-a859f3"><g class="clips"/><clipPath id="legenda859f3"><rect width="118" height="48" x="0" y="0"/></clipPath></defs><g class="layer-above"><g class="imagelayer"/><g class="shapelayer"/></g><g class="infolayer"><g class="legend" pointer-events="all" transform="translate(970.46,100)"><rect class="bg" shape-rendering="crispEdges" style="stroke: rgb(68, 68, 68); stroke-opacity: 1; fill: rgb(255, 255, 255); fill-opacity: 1; stroke-width: 0px;" width="118" height="48" x="0" y="0"/><g class="scrollbox" transform="" clip-path="url(#legenda859f3)"><g class="groups"><g class="traces" transform="translate(0,14.5)" style="opacity: 1;"><text class="legendtext" text-anchor="start" x="40" y="4.680000000000001" style="font-family: 'Open Sans', verdana, arial, sans-serif; font-size: 12px; fill: rgb(42, 63, 95); fill-opacity: 1; white-space: pre;">GT Vx_mps</text><g class="layers" style="opacity: 1;"><g class="legendfill"/><g class="legendlines"><path class="js-line" d="M5,0h30" style="fill: none; stroke: rgb(0, 0, 255); stroke-opacity: 1; stroke-width: 1.5px;"/></g><g class="legendsymbols"><g class="legendpoints"/></g></g><rect class="legendtoggle" x="0" y="-9.5" width="112.03125" height="19" style="fill: rgb(0, 0, 0); fill-opacity: 0;"/></g><g class="traces" transform="translate(0,33.5)" style="opacity: 1;"><text class="legendtext" text-anchor="start" x="40" y="4.680000000000001" style="font-family: 'Open Sans', verdana, arial, sans-serif; font-size: 12px; fill: rgb(42, 63, 95); fill-opacity: 1; white-space: pre;">Pred Vx_mps</text><g class="layers" style="opacity: 1;"><g class="legendfill"/><g class="legendlines"><path class="js-line" d="M5,0h30" style="fill: none; stroke: rgb(255, 0, 0); stroke-opacity: 1; stroke-dasharray: 9px, 9px; stroke-width: 1.5px;"/></g><g class="legendsymbols"><g class="legendpoints"/></g></g><rect class="legendtoggle" x="0" y="-9.5" width="112.03125" height="19" style="fill: rgb(0, 0, 0); fill-opacity: 0;"/></g></g></g><rect class="scrollbar" rx="20" ry="3" width="0" height="0" style="fill: rgb(128, 139, 164); fill-opacity: 1;" x="0" y="0"/></g><g class="g-gtitle"><text class="gtitle" x="55" y="50" text-anchor="start" dy="0em" style="opacity: 1; font-family: 'Open Sans', verdana, arial, sans-serif; font-size: 17px; fill: rgb(42, 63, 95); fill-opacity: 1; white-space: pre;">WAM v2 Dream: Velocity Prediction vs Ground Truth — Lap_0</text></g><g class="g-xtitle"/><g class="g-x2title"/><g class="g-x3title"/><g class="g-x4title"/><g class="g-ytitle"/><g class="g-y2title"/><g class="g-y3title"/><g class="g-y4title"/><g class="annotation" data-index="0" style="opacity: 1;"><g class="annotation-text-g" transform="rotate(0,516.5,89.5)"><g class="cursor-pointer" transform="translate(485,79)"><rect class="bg" x="0.5" y="0.5" width="63" height="20" style="stroke-width: 1px; stroke: rgb(0, 0, 0); stroke-opacity: 0; fill: rgb(0, 0, 0); fill-opacity: 0;"/><text class="annotation-text" text-anchor="middle" x="31.7734375" y="16" style="font-family: 'Open Sans', verdana, arial, sans-serif; font-size: 16px; fill: rgb(42, 63, 95); fill-opacity: 1; white-space: pre;">Vx (m/s)</text></g></g></g><g class="annotation" data-index="1" style="opacity: 1;"><g class="annotation-text-g" transform="rotate(0,516.5,283.9)"><g class="cursor-pointer" transform="translate(485,273)"><rect class="bg" x="0.5" y="0.5" width="62" height="20" style="stroke-width: 1px; stroke: rgb(0, 0, 0); stroke-opacity: 0; fill: rgb(0, 0, 0); fill-opacity: 0;"/><text class="annotation-text" text-anchor="middle" x="31.4765625" y="16" style="font-family: 'Open Sans', verdana, arial, sans-serif; font-size: 16px; fill: rgb(42, 63, 95); fill-opacity: 1; white-space: pre;">Vy (m/s)</text></g></g></g><g class="annotation" data-index="2" style="opacity: 1;"><g class="annotation-text-g" transform="rotate(0,516.5,478.3)"><g class="cursor-pointer" transform="translate(485,468)"><rect class="bg" x="0.5" y="0.5" width="63" height="20" style="stroke-width: 1px; stroke: rgb(0, 0, 0); stroke-opacity: 0; fill: rgb(0, 0, 0); fill-opacity: 0;"/><text class="annotation-text" text-anchor="middle" x="31.7734375" y="16" style="font-family: 'Open Sans', verdana, arial, sans-serif; font-size: 16px; fill: rgb(42, 63, 95); fill-opacity: 1; white-space: pre;">Vz (m/s)</text></g></g></g><g class="annotation" data-index="3" style="opacity: 1;"><g class="annotation-text-g" transform="rotate(0,516.5,672.7)"><g class="cursor-pointer" transform="translate(451,662)"><rect class="bg" x="0.5" y="0.5" width="130" height="20" style="stroke-width: 1px; stroke: rgb(0, 0, 0); stroke-opacity: 0; fill: rgb(0, 0, 0); fill-opacity: 0;"/><text class="annotation-text" text-anchor="middle" x="65.5703125" y="16" style="font-family: 'Open Sans', verdana, arial, sans-serif; font-size: 16px; fill: rgb(42, 63, 95); fill-opacity: 1; white-space: pre;">Speed Error (m/s)</text></g></g></g></g></svg>