<svg class="main-svg" xmlns="http://www.w3.org/2000/svg" xmlns:xlink="http://www.w3.org/1999/xlink" width="1100" height="900" style="" viewBox="0 0 1100 900"><rect x="0" y="0" width="1100" height="900" style="fill: rgb(255, 255, 255); fill-opacity: 1;"/><defs id="defs-77708d"><g class="clips"><clipPath id="clip77708dxyplot" class="plotclip"><rect width="873" height="136.79999999999995"/></clipPath><clipPath id="clip77708dx2y2plot" class="plotclip"><rect width="873" height="136.79999999999995"/></clipPath><clipPath id="clip77708dx3y3plot" class="plotclip"><rect width="873" height="136.8"/></clipPath><clipPath id="clip77708dx4y4plot" class="plotclip"><rect width="873" height="136.8"/></clipPath><clipPath class="axesclip" id="clip77708dx"><rect x="80" y="0" width="873" height="900"/></clipPath><clipPath class="axesclip" id="clip77708dy"><rect x="0" y="100" width="1100" height="136.79999999999995"/></clipPath><clipPath class="axesclip" id="clip77708dxy"><rect x="80" y="100" width="873" height="136.79999999999995"/></clipPath><clipPath class="axesclip" id="clip77708dy2"><rect x="0" y="294.4" width="1100" height="136.79999999999995"/></clipPath><clipPath class="axesclip" id="clip77708dxy2"><rect x="80" y="294.4" width="873" height="136.79999999999995"/></clipPath><clipPath class="axesclip" id="clip77708dy3"><rect x="0" y="488.8" width="1100" height="136.8"/></clipPath><clipPath class="axesclip" id="clip77708dxy3"><rect x="80" y="488.8" width="873" height="136.8"/></clipPath><clipPath class="axesclip" id="clip77708dy4"><rect x="0" y="683.2" width="1100" height="136.8"/></clipPath><clipPath class="axesclip" id="clip77708dxy4"><rect x="80" y="683.2" width="873" height="136.8"/></clipPath><clipPath class="axesclip" id="clip77708dx2"><rect x="80" y="0" width="873" height="900"/></clipPath><clipPath class="axesclip" id="clip77708dx2y"><rect x="80" y="100" width="873" height="136.79999999999995"/></clipPath><clipPath class="axesclip" id="clip77708dx2y2"><rect x="80" y="294.4" width="873" height="136.79999999999995"/></clipPath><clipPath class="axesclip" id="clip77708dx2y3"><rect x="80" y="488.8" width="873" height="136.8"/></clipPath><clipPath class="axesclip" id="clip77708dx2y4"><rect x="80" y="683.2" width="873" height="136.8"/></clipPath><clipPath class="axesclip" id="clip77708dx3"><rect x="80" y="0" width="873" height="900"/></clipPath><clipPath class="axesclip" id="clip77708dx3y"><rect x="80" y="100" width="873" height="136.79999999999995"/></clipPath><clipPath class="axesclip" id="clip77708dx3y2"><rect x="80" y="294.4" width="873" height="136.79999999999995"/></clipPath><clipPath class="axesclip" id="clip77708dx3y3"><rect x="80" y="488.8" width="873" height="136.8"/></clipPath><clipPath class="axesclip" id="clip77708dx3y4"><rect x="80" y="683.2" width="873" height="136.8"/></clipPath><clipPath class="axesclip" id="clip77708dx4"><rect x="80" y="0" width="873" height="900"/></clipPath><clipPath class="axesclip" id="clip77708dx4y"><rect x="80" y="100" width="873" height="136.79999999999995"/></clipPath><clipPath class="axesclip" id="clip77708dx4y2"><rect x="80" y="294.4" width="873" height="136.79999999999995"/></clipPath><clipPath class="axesclip" id="clip77708dx4y3"><rect x="80" y="488.8" width="873" height="136.8"/></clipPath><clipPath class="axesclip" id="clip77708dx4y4"><rect x="80" y="683.2" width="873" height="136.8"/></clipPath></g><g class="gradients"/><g class="patterns"/></defs><g class="bglayer"><rect class="bg" x="80" y="100" width="873" height="136.79999999999995" style="fill: rgb(229, 236, 246); fill-opacity: 1; stroke-width: 0;"/><rect class="bg" x="80" y="294.4" width="873" height="136.79999999999995" style="fill: rgb(229, 236, 246); fill-opacity: 1; stroke-width: 0;"/><rect class="bg" x="80" y="488.8" width="873" height="136.8" style="fill: rgb(229, 236, 246); fill-opacity: 1; stroke-width: 0;"/><rect class="bg" x="80" y="683.2" width="873" height="136.8" style="fill: rgb(229, 236, 246); fill-opacity: 1; stroke-width: 0;"/></g><g class="layer-below"><g class="imagelayer"/><g class="shapelayer"/></g><g class="cartesianlayer"><g class="subplot xy"><g class="layer-subplot"><g class="shapelayer"/><g class="imagelayer"/></g><g class="minor-gridlayer"><g class="x"/><g class="y"/></g><g class="gridlayer"><g class="x"><path class="xgrid crisp" transform="translate(167.51999999999998,0)" d="M0,100v136.79999999999995" style="stroke: rgb(255, 255, 255); stroke-opacity: 1; stroke-width: 1px;"/><path class="xgrid crisp" transform="translate(255.04,0)" d="M0,100v136.79999999999995" style="stroke: rgb(255, 255, 255); stroke-opacity: 1; stroke-width: 1px;"/><path class="xgrid crisp" transform="translate(342.56,0)" d="M0,100v136.79999999999995" style="stroke: rgb(255, 255, 255); stroke-opacity: 1; stroke-width: 1px;"/><path class="xgrid crisp" transform="translate(430.08,0)" d="M0,100v136.79999999999995" style="stroke: rgb(255, 255, 255); stroke-opacity: 1; stroke-width: 1px;"/><path class="xgrid crisp" transform="translate(517.5899999999999,0)" d="M0,100v136.79999999999995" style="stroke: rgb(255, 255, 255); stroke-opacity: 1; stroke-width: 1px;"/><path class="xgrid crisp" transform="translate(605.11,0)" d="M0,100v136.79999999999995" style="stroke: rgb(255, 255, 255); stroke-opacity: 1; stroke-width: 1px;"/><path class="xgrid crisp" transform="translate(692.63,0)" d="M0,100v136.79999999999995" style="stroke: rgb(255, 255, 255); stroke-opacity: 1; stroke-width: 1px;"/><path class="xgrid crisp" transform="translate(780.15,0)" d="M0,100v136.79999999999995" style="stroke: rgb(255, 255, 255); stroke-opacity: 1; stroke-width: 1px;"/><path class="xgrid crisp" transform="translate(867.67,0)" d="M0,100v136.79999999999995" style="stroke: rgb(255, 255, 255); stroke-opacity: 1; stroke-width: 1px;"/></g><g class="y"><path class="ygrid crisp" transform="translate(0,217.15)" d="M80,0h873" style="stroke: rgb(255, 255, 255); stroke-opacity: 1; stroke-width: 1px;"/><path class="ygrid crisp" transform="translate(0,184.97)" d="M80,0h873" style="stroke: rgb(255, 255, 255); stroke-opacity: 1; stroke-width: 1px;"/><path class="ygrid crisp" transform="translate(0,152.8)" d="M80,0h873" style="stroke: rgb(255, 255, 255); stroke-opacity: 1; stroke-width: 1px;"/><path class="ygrid crisp" transform="translate(0,120.63)" d="M80,0h873" style="stroke: rgb(255, 255, 255); stroke-opacity: 1; stroke-width: 1px;"/></g></g><g class="zerolinelayer"><path class="xzl zl crisp" transform="translate(80,0)" d="M0,100v136.79999999999995" style="stroke: rgb(255, 255, 255); stroke-opacity: 1; stroke-width: 2px;"/></g><g class="layer-between"><g class="shapelayer"/><g class="imagelayer"/></g><path class="xlines-below"/><path class="ylines-below"/><g class="overlines-below"/><g class="xaxislayer-below"/><g class="yaxislayer-below"/><g class="overaxes-below"/><g class="overplot"><g class="xy" transform="translate(80,100)" clip-path="url(#clip77708dxyplot)"><g class="scatterlayer mlayer"><g class="trace scatter tracedbc7c4" style="stroke-miterlimit: 2; opacity: 1;"><g class="fills"/><g class="errorbars"/><g class="lines"><path class="js-line" d="M0,128.83L26.26,119.65L28.44,118.66L48.14,109.48L50.32,108.35L120.34,74.65L122.53,73.75L142.22,65.45L144.41,64.73L161.91,58L164.1,56.99L179.41,50.53L181.6,49.62L231.92,29.34L234.11,28.45L273.5,15.59L275.68,14.97L295.38,10.37L297.56,9.89L310.69,7.92L312.88,7.73L330.38,6.84L332.57,6.9L354.45,8.48L356.64,8.75L406.96,13.64L409.15,13.69L435.41,16.04L437.59,16.35L463.85,20.87L466.04,21.38L481.35,26.03L483.54,26.84L496.67,32.1L498.86,33L516.36,42.21L518.55,43.58L531.68,51.96L533.86,53.43L560.12,73.07L562.31,74.96L597.32,101.43L599.5,102.95L617.01,113.09L619.2,114.2L630.14,119.46L632.32,120.34L641.08,123.67L643.26,124.16L654.2,126.39L656.39,126.68L673.89,129.14L676.08,129.42L682.65,129.86L684.83,129.45L702.34,126.51L704.53,126.08L715.47,123.31L717.65,122.67L741.72,114.59L743.91,113.65L809.55,82.47L811.74,81.58L831.43,73.42L833.62,72.78L859.87,66.09L862.06,66.07L873,66.8" style="vector-effect: none; fill: none; stroke: rgb(0, 0, 255); stroke-opacity: 1; stroke-width: 1.5px; opacity: 1;"/></g><g class="points"/><g class="text"/></g><g class="trace scatter tracea70a3e" style="stroke-miterlimit: 2; opacity: 1;"><g class="fills"/><g class="errorbars"/><g class="lines"><path class="js-line" d="M0,129.24L24.07,125.13L26.26,124.55L59.08,116.48L61.26,116.21L67.83,115.06L70.02,114.26L76.58,111.64L78.77,110.88L85.33,109.33L87.52,108.38L100.65,102.88L102.83,102.19L111.59,98.59L113.77,97.65L122.53,93.66L124.71,92.63L135.65,87.73L137.84,86.93L144.41,84.44L146.59,83.67L153.16,81.03L155.35,80.11L168.47,74.56L170.66,73.87L190.35,66.31L192.54,65.48L203.48,61.27L205.67,60.61L240.68,48.77L242.86,48.02L266.93,39.32L269.12,38.49L293.19,29.78L295.38,28.78L308.5,24.16L310.69,23.39L328.2,18.1L330.38,17.74L347.89,17.32L350.08,17.63L365.39,18.54L367.58,18.78L396.02,22.1L398.21,22.58L411.34,25.35L413.53,25.51L422.28,26.01L424.47,26.53L435.41,29.41L437.59,30.01L450.72,33.57L452.91,34.38L481.35,45.5L483.54,46.24L516.36,57.84L518.55,58.65L544.8,68.86L546.99,69.81L577.62,82.5L579.81,83.3L619.2,96.46L621.38,97L641.08,101.09L643.26,101.19L656.39,100.48L658.58,100.29L676.08,99.34L678.27,99.35L689.21,100.34L691.4,100.63L711.09,103.9L713.28,104.4L754.85,113.93L757.04,114.36L778.92,118.99L781.11,119.11L798.61,119.12L800.8,118.69L829.24,114.16L831.43,113.46L859.87,107.37L862.06,107.22L873,106.94" style="vector-effect: none; fill: none; stroke: rgb(255, 0, 0); stroke-opacity: 1; stroke-dasharray: 9px, 9px; stroke-width: 1.5px; opacity: 1;"/></g><g class="points"/><g class="text"/></g></g></g></g><g class="zerolinelayer-above"/><path class="xlines-above crisp" d="M0,0" style="fill: none;"/><path class="ylines-above crisp" d="M0,0" style="fill: none;"/><g class="overlines-above"/><g class="xaxislayer-above"/><g class="yaxislayer-above"><g class="ytick"><text text-anchor="end" x="79" y="4.199999999999999" transform="translate(0,217.15)" style="font-family: 'Open Sans', verdana, arial, sans-serif; font-size: 12px; fill: rgb(42, 63, 95); fill-opacity: 1; white-space: pre;">15</text></g><g class="ytick"><text text-anchor="end" x="79" y="4.199999999999999" style="font-family: 'Open Sans', verdana, arial, sans-serif; font-size: 12px; fill: rgb(42, 63, 95); fill-opacity: 1; white-space: pre;" transform="translate(0,184.97)">20</text></g><g class="ytick"><text text-anchor="end" x="79" y="4.199999999999999" style="font-family: 'Open Sans', verdana, arial, sans-serif; font-size: 12px; fill: rgb(42, 63, 95); fill-opacity: 1; white-space: pre;" transform="translate(0,152.8)">25</text></g><g class="ytick"><text text-anchor="end" x="79" y="4.199999999999999" style="font-family: 'Open Sans', verdana, arial, sans-serif; font-size: 12px; fill: rgb(42, 63, 95); fill-opacity: 1; white-space: pre;" transform="translate(0,120.63)">30</text></g></g><g class="overaxes-above"/></g><g class="subplot x2y2"><g class="layer-subplot"><g class="shapelayer"/><g class="imagelayer"/></g><g class="minor-gridlayer"><g class="x2"/><g class="y2"/></g><g class="gridlayer"><g class="x2"><path class="x2grid crisp" transform="translate(167.51999999999998,0)" d="M0,294.4v136.79999999999995" style="stroke: rgb(255, 255, 255); stroke-opacity: 1; stroke-width: 1px;"/><path class="x2grid crisp" transform="translate(255.04,0)" d="M0,294.4v136.79999999999995" style="stroke: rgb(255, 255, 255); stroke-opacity: 1; stroke-width: 1px;"/><path class="x2grid crisp" transform="translate(342.56,0)" d="M0,294.4v136.79999999999995" style="stroke: rgb(255, 255, 255); stroke-opacity: 1; stroke-width: 1px;"/><path class="x2grid crisp" transform="translate(430.08,0)" d="M0,294.4v136.79999999999995" style="stroke: rgb(255, 255, 255); stroke-opacity: 1; stroke-width: 1px;"/><path class="x2grid crisp" transform="translate(517.5899999999999,0)" d="M0,294.4v136.79999999999995" style="stroke: rgb(255, 255, 255); stroke-opacity: 1; stroke-width: 1px;"/><path class="x2grid crisp" transform="translate(605.11,0)" d="M0,294.4v136.79999999999995" style="stroke: rgb(255, 255, 255); stroke-opacity: 1; stroke-width: 1px;"/><path class="x2grid crisp" transform="translate(692.63,0)" d="M0,294.4v136.79999999999995" style="stroke: rgb(255, 255, 255); stroke-opacity: 1; stroke-width: 1px;"/><path class="x2grid crisp" transform="translate(780.15,0)" d="M0,294.4v136.79999999999995" style="stroke: rgb(255, 255, 255); stroke-opacity: 1; stroke-width: 1px;"/><path class="x2grid crisp" transform="translate(867.67,0)" d="M0,294.4v136.79999999999995" style="stroke: rgb(255, 255, 255); stroke-opacity: 1; stroke-width: 1px;"/></g><g class="y2"><path class="y2grid crisp" transform="translate(0,375.24)" d="M80,0h873" style="stroke: rgb(255, 255, 255); stroke-opacity: 1; stroke-width: 1px;"/><path class="y2grid crisp" transform="translate(0,344.96999999999997)" d="M80,0h873" style="stroke: rgb(255, 255, 255); stroke-opacity: 1; stroke-width: 1px;"/><path class="y2grid crisp" transform="translate(0,314.69)" d="M80,0h873" style="stroke: rgb(255, 255, 255); stroke-opacity: 1; stroke-width: 1px;"/></g></g><g class="zerolinelayer"><path class="x2zl zl crisp" transform="translate(80,0)" d="M0,294.4v136.79999999999995" style="stroke: rgb(255, 255, 255); stroke-opacity: 1; stroke-width: 2px;"/><path class="y2zl zl crisp" transform="translate(0,405.52)" d="M80,0h873" style="stroke: rgb(255, 255, 255); stroke-opacity: 1; stroke-width: 2px;"/></g><g class="layer-between"><g class="shapelayer"/><g class="imagelayer"/></g><path class="xlines-below"/><path class="ylines-below"/><g class="overlines-below"/><g class="xaxislayer-below"/><g class="yaxislayer-below"/><g class="overaxes-below"/><g class="overplot"><g class="x2y2" transform="translate(80,294.4)" clip-path="url(#clip77708dx2y2plot)"><g class="scatterlayer mlayer"><g class="trace scatter trace532dad" style="stroke-miterlimit: 2; opacity: 1;"><g class="fills"/><g class="errorbars"/><g class="lines"><path class="js-line" d="M0,102.69L6.56,104.94L8.75,105.76L15.32,105.7L17.5,106.22L24.07,107.47L26.26,107.06L35.01,109.56L37.2,109.64L43.76,110.2L45.95,110.46L50.32,111.28L52.51,112.16L56.89,112.54L59.08,112.49L70.02,113.06L72.2,112.92L74.39,112.71L76.58,113.42L78.77,113.57L80.95,112.73L85.33,113.05L87.52,113.12L102.83,113.11L105.02,112.55L109.4,112.69L111.59,111.63L113.77,111.84L115.96,110.99L135.65,109.48L137.84,108.89L142.22,108.81L144.41,108.74L155.35,108.63L157.53,109.31L159.72,108.25L161.91,108.4L170.66,107.28L172.85,106.57L175.04,107.54L177.23,107.22L185.98,108.15L188.17,108.3L192.54,108.58L194.73,108.19L196.92,108.51L199.11,107.81L203.48,106.76L205.67,106.41L207.86,105.69L210.05,106.67L214.42,107.66L216.61,108.03L218.8,108.8L220.98,108.17L223.17,108.84L225.36,108.21L231.92,108.45L234.11,107.75L238.49,107.61L240.68,107.24L253.8,107.48L255.99,107.03L258.18,106.77L260.37,107.4L269.12,106.47L271.31,106.62L275.68,105.74L277.87,105.82L282.25,104.93L284.44,103.37L288.81,102.17L291,100.46L295.38,97.48L297.56,97.32L299.75,97.2L301.94,98.09L315.07,96.36L317.26,95.51L323.82,86.9L326.01,85.53L332.57,82.25L334.76,81.82L336.95,80.83L339.14,81.15L341.32,81.7L343.51,81.2L347.89,81.04L350.08,79.73L352.26,79.56L354.45,78.51L365.39,78.27L367.58,79.43L369.77,79.56L371.95,78.75L380.71,74.02L382.89,72.57L387.27,66.76L389.46,65.08L391.65,61.9L393.83,60.32L396.02,59.77L398.21,58.13L400.4,57.93L402.59,58.95L406.96,63.93L409.15,67.19L411.34,69.4L413.53,70.48L415.71,72.72L417.9,73.55L424.47,77.06L426.65,77.03L433.22,76.64L435.41,76.01L437.59,75.75L439.78,76.28L441.97,77.58L444.16,79.88L455.1,99.9L457.29,102.83L459.47,103.11L461.66,102.29L463.85,100.75L466.04,100.44L470.41,99.02L472.6,99.44L476.98,99.72L479.17,100.64L481.35,100.55L483.54,101.42L492.29,106.37L494.48,106.52L496.67,106.73L498.86,105.6L505.42,102.87L507.61,102.15L509.8,101.83L511.98,102.61L522.92,107.68L525.11,107.68L529.49,107.37L531.68,106.58L536.05,105.27L538.24,105.59L542.62,103.03L544.8,102.24L546.99,101.54L549.18,101.75L551.37,101.81L553.56,100.79L557.93,101.17L560.12,102.12L566.68,103.39L568.87,102.81L573.25,102.91L575.44,102.33L579.81,101.33L582,102.38L584.19,101.94L586.38,102.88L588.56,103.34L590.75,104.8L595.13,108.81L597.32,109.83L599.5,111.9L601.69,110.92L606.07,111.27L608.26,112.05L610.44,111.68L612.63,112.54L619.2,112.2L621.38,113.95L623.57,113.7L625.76,114.82L632.32,114.62L634.51,116.62L638.89,118.04L641.08,116.27L643.26,115.49L645.45,115.79L647.64,116.62L649.83,115.72L654.2,116.46L656.39,116.57L658.58,116.53L660.77,117.81L662.95,117.4L665.14,119.12L669.52,119.98L671.71,119.44L673.89,119.42L676.08,118.58L682.65,121.69L684.83,120.16L689.21,119.89L691.4,121.05L697.96,120.29L700.15,119.78L702.34,119.79L704.53,118.97L706.71,118.17L708.9,118.53L711.09,116.5L713.28,116.95L715.47,116.22L717.65,116.45L724.22,115.09L726.41,115.63L728.59,114.76L730.78,115.84L737.35,113.08L739.53,113.1L746.1,111.59L748.29,111.61L752.66,110.55L754.85,110.56L759.23,109.93L761.41,109.84L767.98,108.39L770.17,108.37L772.35,108.74L774.54,107.77L792.05,106.83L794.23,107.22L800.8,107.33L802.98,107.02L809.55,108.19L811.74,107.94L818.3,109.23L820.49,108.82L824.86,109.22L827.05,109.5L833.62,109.85L835.8,109.22L837.99,109.87L840.18,109.4L844.56,110.32L846.74,110.15L851.12,111.59L853.31,112.26L855.5,114.08L857.68,113.67L859.87,116.08L862.06,117.23L864.25,116.32L866.44,117.45L868.62,118.99L870.81,118.62L873,118.29" style="vector-effect: none; fill: none; stroke: rgb(0, 0, 255); stroke-opacity: 1; stroke-width: 1.5px; opacity: 1;"/></g><g class="points"/><g class="text"/></g><g class="trace scatter tracece289b" style="stroke-miterlimit: 2; opacity: 1;"><g class="fills"/><g class="errorbars"/><g class="lines"><path class="js-line" d="M0,102.14L13.13,106.37L15.32,107.31L19.69,109.4L21.88,111.03L32.82,119.26L35.01,120.6L39.38,122.44L41.57,122.73L45.95,121.71L48.14,120.63L54.7,119.25L56.89,119.4L65.64,121.05L67.83,120.81L72.2,120.66L74.39,121.28L78.77,122.93L80.95,123.21L100.65,125.17L102.83,125.68L107.21,126.02L109.4,126.06L155.35,126.26L157.53,126.54L177.23,128.35L179.41,128.81L196.92,129.56L199.11,129.47L229.74,129.76L231.92,129.76L247.24,128.94L249.43,128.83L266.93,125.85L269.12,125.21L277.87,124.09L280.06,123.17L286.62,121.49L288.81,121.28L299.75,120L301.94,120.36L304.13,120.33L306.32,119.46L328.2,107.96L330.38,107.69L334.76,106.15L336.95,105.25L352.26,97.34L354.45,96.66L365.39,90.81L367.58,89.03L369.77,87.99L371.95,86.11L374.14,85.38L376.33,83.75L382.89,81.09L385.08,79.81L391.65,78.31L393.83,78.16L400.4,80.76L402.59,81.97L417.9,94.46L420.09,97.4L422.28,98.97L424.47,98.5L428.84,98.76L431.03,98.99L435.41,100.82L437.59,101.91L448.53,105.25L450.72,105.59L479.17,111.65L481.35,112.19L501.05,116.36L503.23,116.61L522.92,118.01L525.11,118.61L538.24,121.76L540.43,121.9L557.93,122.61L560.12,122.98L571.06,124.09L573.25,123.99L584.19,122.18L586.38,121.68L599.5,119.29L601.69,119.08L623.57,118.1L625.76,118.09L636.7,118.56L638.89,117.84L641.08,116.26L643.26,113.54L647.64,105.65L649.83,100.86L660.77,77.35L662.95,73.58L678.27,47.34L680.46,43.66L693.59,19.71L695.77,15.46L700.15,6.84L702.34,6.84L759.23,7.27L761.41,8.56L765.79,14.08L767.98,18.33L774.54,32.36L776.73,35.48L792.05,54.82L794.23,58.75L798.61,66.23L800.8,68.21L809.55,76.54L811.74,79.91L818.3,88.26L820.49,90.03L824.86,93.67L827.05,94.41L835.8,98.13L837.99,99.55L846.74,104.73L848.93,105.72L853.31,107.98L855.5,108.96L862.06,113.91L864.25,115.32L866.44,118.35L868.62,119.95L870.81,122.54L873,122.78" style="vector-effect: none; fill: none; stroke: rgb(255, 0, 0); stroke-opacity: 1; stroke-dasharray: 9px, 9px; stroke-width: 1.5px; opacity: 1;"/></g><g class="points"/><g class="text"/></g></g></g></g><g class="zerolinelayer-above"/><path class="xlines-above crisp" d="M0,0" style="fill: none;"/><path class="ylines-above crisp" d="M0,0" style="fill: none;"/><g class="overlines-above"/><g class="xaxislayer-above"/><g class="yaxislayer-above"><g class="y2tick"><text text-anchor="end" x="79" y="4.199999999999999" transform="translate(0,405.52)" style="font-family: 'Open Sans', verdana, arial, sans-serif; font-size: 12px; fill: rgb(42, 63, 95); fill-opacity: 1; white-space: pre;">0</text></g><g class="y2tick"><text text-anchor="end" x="79" y="4.199999999999999" style="font-family: 'Open Sans', verdana, arial, sans-serif; font-size: 12px; fill: rgb(42, 63, 95); fill-opacity: 1; white-space: pre;" transform="translate(0,375.24)">1</text></g><g class="y2tick"><text text-anchor="end" x="79" y="4.199999999999999" style="font-family: 'Open Sans', verdana, arial, sans-serif; font-size: 12px; fill: rgb(42, 63, 95); fill-opacity: 1; white-space: pre;" transform="translate(0,344.96999999999997)">2</text></g><g class="y2tick"><text text-anchor="end" x="79" y="4.199999999999999" style="font-family: 'Open Sans', verdana, arial, sans-serif; font-size: 12px; fill: rgb(42, 63, 95); fill-opacity: 1; white-space: pre;" transform="translate(0,314.69)">3</text></g></g><g class="overaxes-above"/></g><g class="subplot x3y3"><g class="layer-subplot"><g class="shapelayer"/><g class="imagelayer"/></g><g class="minor-gridlayer"><g class="x3"/><g class="y3"/></g><g class="gridlayer"><g class="x3"><path class="x3grid crisp" transform="translate(167.51999999999998,0)" d="M0,488.8v136.8" style="stroke: rgb(255, 255, 255); stroke-opacity: 1; stroke-width: 1px;"/><path class="x3grid crisp" transform="translate(255.04,0)" d="M0,488.8v136.8" style="stroke: rgb(255, 255, 255); stroke-opacity: 1; stroke-width: 1px;"/><path class="x3grid crisp" transform="translate(342.56,0)" d="M0,488.8v136.8" style="stroke: rgb(255, 255, 255); stroke-opacity: 1; stroke-width: 1px;"/><path class="x3grid crisp" transform="translate(430.08,0)" d="M0,488.8v136.8" style="stroke: rgb(255, 255, 255); stroke-opacity: 1; stroke-width: 1px;"/><path class="x3grid crisp" transform="translate(517.5899999999999,0)" d="M0,488.8v136.8" style="stroke: rgb(255, 255, 255); stroke-opacity: 1; stroke-width: 1px;"/><path class="x3grid crisp" transform="translate(605.11,0)" d="M0,488.8v136.8" style="stroke: rgb(255, 255, 255); stroke-opacity: 1; stroke-width: 1px;"/><path class="x3grid crisp" transform="translate(692.63,0)" d="M0,488.8v136.8" style="stroke: rgb(255, 255, 255); stroke-opacity: 1; stroke-width: 1px;"/><path class="x3grid crisp" transform="translate(780.15,0)" d="M0,488.8v136.8" style="stroke: rgb(255, 255, 255); stroke-opacity: 1; stroke-width: 1px;"/><path class="x3grid crisp" transform="translate(867.67,0)" d="M0,488.8v136.8" style="stroke: rgb(255, 255, 255); stroke-opacity: 1; stroke-width: 1px;"/></g><g class="y3"><path class="y3grid crisp" transform="translate(0,595.26)" d="M80,0h873" style="stroke: rgb(255, 255, 255); stroke-opacity: 1; stroke-width: 1px;"/><path class="y3grid crisp" transform="translate(0,529.07)" d="M80,0h873" style="stroke: rgb(255, 255, 255); stroke-opacity: 1; stroke-width: 1px;"/><path class="y3grid crisp" transform="translate(0,495.97)" d="M80,0h873" style="stroke: rgb(255, 255, 255); stroke-opacity: 1; stroke-width: 1px;"/></g></g><g class="zerolinelayer"><path class="x3zl zl crisp" transform="translate(80,0)" d="M0,488.8v136.8" style="stroke: rgb(255, 255, 255); stroke-opacity: 1; stroke-width: 2px;"/><path class="y3zl zl crisp" transform="translate(0,562.16)" d="M80,0h873" style="stroke: rgb(255, 255, 255); stroke-opacity: 1; stroke-width: 2px;"/></g><g class="layer-between"><g class="shapelayer"/><g class="imagelayer"/></g><path class="xlines-below"/><path class="ylines-below"/><g class="overlines-below"/><g class="xaxislayer-below"/><g class="yaxislayer-below"/><g class="overaxes-below"/><g class="overplot"><g class="x3y3" transform="translate(80,488.8)" clip-path="url(#clip77708dx3y3plot)"><g class="scatterlayer mlayer"><g class="trace scatter trace6cd93b" style="stroke-miterlimit: 2; opacity: 1;"><g class="fills"/><g class="errorbars"/><g class="lines"><path class="js-line" d="M0,67.74L6.56,66.75L8.75,68.07L13.13,68.4L15.32,67.41L24.07,67.41L26.26,68.4L37.2,67.41L39.38,68.07L41.57,68.07L43.76,67.08L48.14,69.06L50.32,69.06L54.7,69.39L56.89,70.72L59.08,71.05L61.26,70.05L63.45,70.05L65.64,69.06L70.02,69.39L72.2,70.39L74.39,70.05L76.58,70.72L78.77,70.05L80.95,71.71L87.52,72.7L89.71,72.04L91.89,69.39L94.08,70.39L96.27,69.72L98.46,70.39L100.65,71.05L102.83,70.05L107.21,69.72L109.4,70.72L111.59,69.72L113.77,71.05L115.96,71.71L118.15,71.38L122.53,70.39L124.71,70.72L129.09,71.38L131.28,70.39L137.84,72.7L140.03,72.37L142.22,72.7L144.41,72.04L146.59,71.05L148.78,71.05L153.16,72.37L155.35,71.71L157.53,73.03L159.72,73.03L164.1,73.03L166.29,73.03L170.66,73.36L172.85,74.03L179.41,74.36L181.6,75.02L183.79,74.03L185.98,75.35L190.35,74.69L192.54,74.36L196.92,75.02L199.11,75.35L203.48,71.71L205.67,70.05L212.23,66.75L214.42,65.09L216.61,64.1L218.8,64.76L225.36,63.1L227.55,61.12L229.74,60.13L231.92,58.14L238.49,55.82L240.68,52.18L247.24,40.93L249.43,40.27L251.62,38.28L253.8,38.94L262.56,30.34L264.74,28.68L271.31,25.04L273.5,22.06L282.25,14.45L284.44,13.79L288.81,15.45L291,13.79L295.38,9.49L297.56,8.49L299.75,9.16L301.94,8.83L304.13,9.49L306.32,7.5L310.69,6.84L312.88,9.82L315.07,13.13L317.26,12.8L326.01,14.78L328.2,14.45L330.38,13.79L332.57,14.12L334.76,14.45L336.95,16.44L339.14,17.43L341.32,20.08L345.7,23.39L347.89,23.06L350.08,21.4L352.26,21.07L354.45,24.38L356.64,22.4L361.02,20.08L363.2,21.4L367.58,25.37L369.77,25.37L371.95,27.69L374.14,28.68L385.08,49.53L387.27,55.82L396.02,75.35L398.21,78.33L400.4,79.32L402.59,82.96L409.15,99.84L411.34,104.14L420.09,116.39L422.28,118.71L426.65,121.69L428.84,125.33L435.41,129.63L437.59,129.63L439.78,129.96L441.97,128.64L444.16,127.97L446.35,125.99L448.53,123.34L450.72,122.02L452.91,123.34L455.1,122.02L457.29,120.03L459.47,114.74L468.23,97.86L470.41,95.21L472.6,94.55L474.79,92.89L476.98,92.23L479.17,90.57L481.35,86.93L483.54,81.31L490.11,72.7L492.29,70.05L494.48,67.74L496.67,66.75L501.05,65.42L503.23,62.77L507.61,55.16L509.8,51.85L516.36,42.58L518.55,41.92L520.74,41.59L522.92,39.94L525.11,40.27L527.3,39.61L529.49,38.94L531.68,39.94L540.43,44.24L542.62,45.89L544.8,46.89L546.99,49.87L549.18,50.86L551.37,50.86L555.74,50.2L557.93,51.19L564.5,53.51L566.68,54.17L568.87,56.49L571.06,56.82L575.44,60.13L577.62,60.13L579.81,61.78L582,62.44L588.56,62.11L590.75,63.77L597.32,63.44L599.5,62.44L606.07,62.77L608.26,61.12L614.82,60.46L617.01,60.79L619.2,59.79L621.38,59.79L627.95,58.47L630.14,59.13L634.51,60.46L636.7,59.79L638.89,58.8L641.08,59.79L647.64,61.78L649.83,60.46L652.02,61.78L654.2,60.79L656.39,61.12L658.58,60.46L665.14,61.78L667.33,61.78L669.52,61.12L671.71,62.77L673.89,62.11L676.08,63.77L680.46,62.44L682.65,62.77L684.83,63.77L687.02,62.77L691.4,64.1L693.59,63.44L695.77,63.1L697.96,64.43L702.34,65.09L704.53,65.42L706.71,65.42L708.9,64.43L713.28,67.08L715.47,66.41L719.84,67.41L722.03,67.41L726.41,69.06L728.59,68.07L739.53,69.06L741.72,69.06L746.1,70.39L748.29,69.72L750.47,69.06L752.66,69.72L763.6,69.72L765.79,70.39L770.17,72.37L772.35,72.7L776.73,73.36L778.92,72.04L785.48,71.71L787.67,71.05L789.86,72.04L792.05,71.05L796.42,71.71L798.61,71.71L802.98,71.71L805.17,71.71L809.55,74.03L811.74,74.36L813.92,75.68L816.11,75.35L824.86,75.68L827.05,76.34L829.24,75.02L831.43,74.69L837.99,73.03L840.18,71.71L848.93,70.72L851.12,71.38L853.31,72.04L855.5,71.71L859.87,72.37L862.06,71.05L864.25,71.38L866.44,70.72L868.62,68.73L870.81,68.4L873,66.75" style="vector-effect: none; fill: none; stroke: rgb(0, 0, 255); stroke-opacity: 1; stroke-width: 1.5px; opacity: 1;"/></g><g class="points"/><g class="text"/></g><g class="trace scatter trace0355b8" style="stroke-miterlimit: 2; opacity: 1;"><g class="fills"/><g class="errorbars"/><g class="lines"><path class="js-line" d="M0,68.05L6.56,69.07L8.75,68.98L30.63,67.87L32.82,68L45.95,69.88L48.14,70.48L54.7,72.35L56.89,71.87L63.45,72.02L65.64,72.4L72.2,76.46L74.39,76.92L83.14,77.44L85.33,78.49L91.89,82.13L94.08,82.76L105.02,83.56L107.21,84.37L113.77,86.47L115.96,86.28L140.03,86.12L142.22,86.35L150.97,87.6L153.16,87.79L168.47,87.37L170.66,87.66L196.92,88.83L199.11,88.81L238.49,90.12L240.68,90.45L260.37,92.51L262.56,92.7L273.5,93.99L275.68,94.4L284.44,96.72L286.62,96.67L293.19,96.44L295.38,96.42L299.75,94.77L301.94,95.08L308.5,96.28L310.69,95.96L317.26,95.52L319.44,95.46L323.82,93.97L326.01,92.53L330.38,90.32L332.57,89.53L339.14,87.97L341.32,87L345.7,85.41L347.89,84L371.95,71.22L374.14,70.26L400.4,60.14L402.59,59.79L409.15,59.14L411.34,59.13L413.53,59.54L415.71,60.9L417.9,62.28L420.09,62.53L422.28,63.48L424.47,63.25L428.84,61.64L431.03,60.07L435.41,57.54L437.59,57.1L450.72,54.19L452.91,54L470.41,51.74L472.6,51.1L492.29,44.37L494.48,43.96L514.17,40.71L516.36,39.91L525.11,37.45L527.3,37.22L549.18,36.4L551.37,35.9L564.5,33.45L566.68,33.34L577.62,34.09L579.81,34.35L592.94,35.19L595.13,35.2L608.26,35.86L610.44,36.25L623.57,38.49L625.76,38.4L636.7,37.52L638.89,38.05L643.26,40.12L645.45,41.67L654.2,48.99L656.39,50.07L667.33,53.41L669.52,54L682.65,56.99L684.83,57.24L704.53,58.53L706.71,58.64L717.65,59.89L719.84,60.3L752.66,66.55L754.85,66.68L759.23,66.62L761.41,66.09L765.79,63.21L767.98,61.3L774.54,57.11L776.73,56.51L787.67,51.43L789.86,49.8L798.61,48.05L800.8,48.38L802.98,48.69L805.17,48.16L813.92,46.49L816.11,46.28L827.05,46.89L829.24,46.88L833.62,47.11L835.8,46.4L842.37,45.41L844.56,45.36L855.5,46.92L857.68,46.12L866.44,44.76L868.62,45.73L873,45.39" style="vector-effect: none; fill: none; stroke: rgb(255, 0, 0); stroke-opacity: 1; stroke-dasharray: 9px, 9px; stroke-width: 1.5px; opacity: 1;"/></g><g class="points"/><g class="text"/></g></g></g></g><g class="zerolinelayer-above"/><path class="xlines-above crisp" d="M0,0" style="fill: none;"/><path class="ylines-above crisp" d="M0,0" style="fill: none;"/><g class="overlines-above"/><g class="xaxislayer-above"/><g class="yaxislayer-above"><g class="y3tick"><text text-anchor="end" x="79" y="4.199999999999999" transform="translate(0,595.26)" style="font-family: 'Open Sans', verdana, arial, sans-serif; font-size: 12px; fill: rgb(42, 63, 95); fill-opacity: 1; white-space: pre;">−1</text></g><g class="y3tick"><text text-anchor="end" x="79" y="4.199999999999999" style="font-family: 'Open Sans', verdana, arial, sans-serif; font-size: 12px; fill: rgb(42, 63, 95); fill-opacity: 1; white-space: pre;" transform="translate(0,562.16)">0</text></g><g class="y3tick"><text text-anchor="end" x="79" y="4.199999999999999" style="font-family: 'Open Sans', verdana, arial, sans-serif; font-size: 12px; fill: rgb(42, 63, 95); fill-opacity: 1; white-space: pre;" transform="translate(0,529.07)">1</text></g><g class="y3tick"><text text-anchor="end" x="79" y="4.199999999999999" style="font-family: 'Open Sans', verdana, arial, sans-serif; font-size: 12px; fill: rgb(42, 63, 95); fill-opacity: 1; white-space: pre;" transform="translate(0,495.97)">2</text></g></g><g class="overaxes-above"/></g><g class="subplot x4y4"><g class="layer-subplot"><g class="shapelayer"/><g class="imagelayer"/></g><g class="minor-gridlayer"><g class="x4"/><g class="y4"/></g><g class="gridlayer"><g class="x4"><path class="x4grid crisp" transform="translate(167.51999999999998,0)" d="M0,683.2v136.8" style="stroke: rgb(255, 255, 255); stroke-opacity: 1; stroke-width: 1px;"/><path class="x4grid crisp" transform="translate(255.04,0)" d="M0,683.2v136.8" style="stroke: rgb(255, 255, 255); stroke-opacity: 1; stroke-width: 1px;"/><path class="x4grid crisp" transform="translate(342.56,0)" d="M0,683.2v136.8" style="stroke: rgb(255, 255, 255); stroke-opacity: 1; stroke-width: 1px;"/><path class="x4grid crisp" transform="translate(430.08,0)" d="M0,683.2v136.8" style="stroke: rgb(255, 255, 255); stroke-opacity: 1; stroke-width: 1px;"/><path class="x4grid crisp" transform="translate(517.5899999999999,0)" d="M0,683.2v136.8" style="stroke: rgb(255, 255, 255); stroke-opacity: 1; stroke-width: 1px;"/><path class="x4grid crisp" transform="translate(605.11,0)" d="M0,683.2v136.8" style="stroke: rgb(255, 255, 255); stroke-opacity: 1; stroke-width: 1px;"/><path class="x4grid crisp" transform="translate(692.63,0)" d="M0,683.2v136.8" style="stroke: rgb(255, 255, 255); stroke-opacity: 1; stroke-width: 1px;"/><path class="x4grid crisp" transform="translate(780.15,0)" d="M0,683.2v136.8" style="stroke: rgb(255, 255, 255); stroke-opacity: 1; stroke-width: 1px;"/><path class="x4grid crisp" transform="translate(867.67,0)" d="M0,683.2v136.8" style="stroke: rgb(255, 255, 255); stroke-opacity: 1; stroke-width: 1px;"/></g><g class="y4"><path class="y4grid crisp" transform="translate(0,776.23)" d="M80,0h873" style="stroke: rgb(255, 255, 255); stroke-opacity: 1; stroke-width: 1px;"/><path class="y4grid crisp" transform="translate(0,738.0300000000001)" d="M80,0h873" style="stroke: rgb(255, 255, 255); stroke-opacity: 1; stroke-width: 1px;"/><path class="y4grid crisp" transform="translate(0,699.82)" d="M80,0h873" style="stroke: rgb(255, 255, 255); stroke-opacity: 1; stroke-width: 1px;"/></g></g><g class="zerolinelayer"><path class="x4zl zl crisp" transform="translate(80,0)" d="M0,683.2v136.8" style="stroke: rgb(255, 255, 255); stroke-opacity: 1; stroke-width: 2px;"/><path class="y4zl zl crisp" transform="translate(0,814.4300000000001)" d="M80,0h873" style="stroke: rgb(255, 255, 255); stroke-opacity: 1; stroke-width: 2px;"/></g><g class="layer-between"><g class="shapelayer"/><g class="imagelayer"/></g><path class="xlines-below"/><path class="ylines-below"/><g class="overlines-below"/><g class="xaxislayer-below"/><g class="yaxislayer-below"/><g class="overaxes-below"/><g class="overplot"><g class="x4y4" transform="translate(80,683.2)" clip-path="url(#clip77708dx4y4plot)"><g class="scatterlayer mlayer"><g class="trace scatter trace0e8af7" style="stroke-miterlimit: 2; opacity: 1;"><g class="fills"/><g class="errorbars"/><g class="lines"><path class="js-line" d="M0,129.96L6.56,126.82L8.75,126.14L13.13,123.78L15.32,122.29L48.14,102.08L50.32,100.29L54.7,97.95L56.89,96.26L61.26,91.44L63.45,88.36L67.83,84.98L70.02,84.55L74.39,84.17L76.58,82.03L78.77,81.2L80.95,79.3L85.33,76.37L87.52,75.78L89.71,75.19L91.89,75.47L94.08,76.43L96.27,76.55L98.46,74.54L100.65,73.65L105.02,71.69L107.21,72.07L109.4,72.04L111.59,71.11L124.71,70.72L126.9,71.25L133.47,70.06L135.65,71.04L140.03,69.86L142.22,70.36L144.41,71.13L146.59,71.03L150.97,71.36L153.16,72.08L157.53,72.68L159.72,72.74L166.29,72.25L168.47,71.9L172.85,70.54L175.04,70.93L179.41,69.95L181.6,70.08L185.98,69.58L188.17,68.91L199.11,67.64L201.29,67.26L205.67,66.33L207.86,65.83L212.23,65.24L214.42,64.73L223.17,63.14L225.36,62.54L234.11,60.85L236.3,60.54L247.24,56.65L249.43,56.68L258.18,55.56L260.37,55.67L275.68,54.44L277.87,53.72L282.25,53.11L284.44,53.29L291,55.56L293.19,55.09L308.5,59.76L310.69,61.16L315.07,66.41L317.26,67.41L323.82,71.31L326.01,72.72L330.38,74.35L332.57,74.98L336.95,77.25L339.14,79.03L343.51,82.17L345.7,83.66L347.89,84.77L350.08,84.37L352.26,85.26L354.45,87.56L361.02,87.98L363.2,89.34L371.95,94.15L374.14,95.1L382.89,101.63L385.08,102.46L387.27,103.32L389.46,103.15L396.02,99.79L398.21,98.01L402.59,94.8L404.77,92.61L411.34,86.53L413.53,85.2L417.9,84.83L420.09,83.44L426.65,79.98L428.84,77.8L435.41,71.63L437.59,70.65L441.97,69.84L444.16,69.64L450.72,70.42L452.91,69.24L457.29,68.19L459.47,68.79L468.23,69.43L470.41,69.12L476.98,68.01L479.17,68.12L487.92,71.12L490.11,72.09L496.67,74.52L498.86,74.85L503.23,76.54L505.42,77.89L511.98,81.32L514.17,82.83L520.74,87.27L522.92,89.24L540.43,102.44L542.62,103.58L555.74,111.22L557.93,112.11L564.5,113.79L566.68,113.55L586.38,100.49L588.56,98.47L606.07,84L608.26,82.97L617.01,78.19L619.2,76.97L627.95,70.16L630.14,69.2L634.51,67.04L636.7,65.89L647.64,58.65L649.83,56.99L656.39,50.85L658.58,48.56L669.52,37.46L671.71,35.81L680.46,28.45L682.65,27.48L687.02,28.59L689.21,28.85L693.59,28.25L695.77,28.43L700.15,28.04L702.34,29.72L713.28,40.6L715.47,43.14L728.59,55.51L730.78,56.55L737.35,61.93L739.53,62.84L743.91,64.56L746.1,65.09L752.66,64.63L754.85,63.76L765.79,59.11L767.98,58.8L772.35,56.03L774.54,54.76L781.11,48.92L783.29,46.85L794.23,35.52L796.42,33.99L800.8,31.03L802.98,29.61L811.74,22.34L813.92,20.95L824.86,13.52L827.05,12.6L829.24,11.33L831.43,10.98L851.12,8.22L853.31,7.67L857.68,6.84L859.87,7.72L862.06,8.15L864.25,9.38L873,11.41" style="vector-effect: none; fill: none; stroke: rgb(128, 0, 128); stroke-opacity: 1; stroke-width: 1.5px; opacity: 1;"/></g><g class="points"/><g class="text"/></g></g></g></g><g class="zerolinelayer-above"/><path class="xlines-above crisp" d="M0,0" style="fill: none;"/><path class="ylines-above crisp" d="M0,0" style="fill: none;"/><g class="overlines-above"/><g class="xaxislayer-above"><g class="x4tick"><text text-anchor="middle" x="0" y="833" transform="translate(80,0)" style="font-family: 'Open Sans', verdana, arial, sans-serif; font-size: 12px; fill: rgb(42, 63, 95); fill-opacity: 1; white-space: pre;">0</text></g><g class="x4tick"><text text-anchor="middle" x="0" y="833" style="font-family: 'Open Sans', verdana, arial, sans-serif; font-size: 12px; fill: rgb(42, 63, 95); fill-opacity: 1; white-space: pre;" transform="translate(167.51999999999998,0)">2</text></g><g class="x4tick"><text text-anchor="middle" x="0" y="833" style="font-family: 'Open Sans', verdana, arial, sans-serif; font-size: 12px; fill: rgb(42, 63, 95); fill-opacity: 1; white-space: pre;" transform="translate(255.04,0)">4</text></g><g class="x4tick"><text text-anchor="middle" x="0" y="833" style="font-family: 'Open Sans', verdana, arial, sans-serif; font-size: 12px; fill: rgb(42, 63, 95); fill-opacity: 1; white-space: pre;" transform="translate(342.56,0)">6</text></g><g class="x4tick"><text text-anchor="middle" x="0" y="833" style="font-family: 'Open Sans', verdana, arial, sans-serif; font-size: 12px; fill: rgb(42, 63, 95); fill-opacity: 1; white-space: pre;" transform="translate(430.08,0)">8</text></g><g class="x4tick"><text text-anchor="middle" x="0" y="833" style="font-family: 'Open Sans', verdana, arial, sans-serif; font-size: 12px; fill: rgb(42, 63, 95); fill-opacity: 1; white-space: pre;" transform="translate(517.5899999999999,0)">10</text></g><g class="x4tick"><text text-anchor="middle" x="0" y="833" style="font-family: 'Open Sans', verdana, arial, sans-serif; font-size: 12px; fill: rgb(42, 63, 95); fill-opacity: 1; white-space: pre;" transform="translate(605.11,0)">12</text></g><g class="x4tick"><text text-anchor="middle" x="0" y="833" style="font-family: 'Open Sans', verdana, arial, sans-serif; font-size: 12px; fill: rgb(42, 63, 95); fill-opacity: 1; white-space: pre;" transform="translate(692.63,0)">14</text></g><g class="x4tick"><text text-anchor="middle" x="0" y="833" style="font-family: 'Open Sans', verdana, arial, sans-serif; font-size: 12px; fill: rgb(42, 63, 95); fill-opacity: 1; white-space: pre;" transform="translate(780.15,0)">16</text></g><g class="x4tick"><text text-anchor="middle" x="0" y="833" style="font-family: 'Open Sans', verdana, arial, sans-serif; font-size: 12px; fill: rgb(42, 63, 95); fill-opacity: 1; white-space: pre;" transform="translate(867.67,0)">18</text></g></g><g class="yaxislayer-above"><g class="y4tick"><text text-anchor="end" x="79" y="4.199999999999999" transform="translate(0,814.4300000000001)" style="font-family: 'Open Sans', verdana, arial, sans-serif; font-size: 12px; fill: rgb(42, 63, 95); fill-opacity: 1; white-space: pre;">0</text></g><g class="y4tick"><text text-anchor="end" x="79" y="4.199999999999999" style="font-family: 'Open Sans', verdana, arial, sans-serif; font-size: 12px; fill: rgb(42, 63, 95); fill-opacity: 1; white-space: pre;" transform="translate(0,776.23)">2</text></g><g class="y4tick"><text text-anchor="end" x="79" y="4.199999999999999" style="font-family: 'Open Sans', verdana, arial, sans-serif; font-size: 12px; fill: rgb(42, 63, 95); fill-opacity: 1; white-space: pre;" transform="translate(0,738.0300000000001)">4</text></g><g class="y4tick"><text text-anchor="end" x="79" y="4.199999999999999" style="font-family: 'Open Sans', verdana, arial, sans-serif; font-size: 12px; fill: rgb(42, 63, 95); fill-opacity: 1; white-space: pre;" transform="translate(0,699.82)">6</text></g></g><g class="overaxes-above"/></g></g><g class="polarlayer"/><g class="smithlayer"/><g class="ternarylayer"/><g class="geolayer"/><g class="funnelarealayer"/><g class="pielayer"/><g class="iciclelayer"/><g class="treemaplayer"/><g class="sunburstlayer"/><g class="glimages"/><defs id="topdefs-77708d"><g class="clips"/><clipPath id="legend77708d"><rect width="118" height="48" x="0" y="0"/></clipPath></defs><g class="layer-above"><g class="imagelayer"/><g class="shapelayer"/></g><g class="infolayer"><g class="legend" pointer-events="all" transform="translate(970.46,100)"><rect class="bg" shape-rendering="crispEdges" style="stroke: rgb(68, 68, 68); stroke-opacity: 1; fill: rgb(255, 255, 255); fill-opacity: 1; stroke-width: 0px;" width="118" height="48" x="0" y="0"/><g class="scrollbox" transform="" clip-path="url(#legend77708d)"><g class="groups"><g class="traces" transform="translate(0,14.5)" style="opacity: 1;"><text class="legendtext" text-anchor="start" x="40" y="4.680000000000001" style="font-family: 'Open Sans', verdana, arial, sans-serif; font-size: 12px; fill: rgb(42, 63, 95); fill-opacity: 1; white-space: pre;">GT Vx_mps</text><g class="layers" style="opacity: 1;"><g class="legendfill"/><g class="legendlines"><path class="js-line" d="M5,0h30" style="fill: none; stroke: rgb(0, 0, 255); stroke-opacity: 1; stroke-width: 1.5px;"/></g><g class="legendsymbols"><g class="legendpoints"/></g></g><rect class="legendtoggle" x="0" y="-9.5" width="112.03125" height="19" style="fill: rgb(0, 0, 0); fill-opacity: 0;"/></g><g class="traces" transform="translate(0,33.5)" style="opacity: 1;"><text class="legendtext" text-anchor="start" x="40" y="4.680000000000001" style="font-family: 'Open Sans', verdana, arial, sans-serif; font-size: 12px; fill: rgb(42, 63, 95); fill-opacity: 1; white-space: pre;">Pred Vx_mps</text><g class="layers" style="opacity: 1;"><g class="legendfill"/><g class="legendlines"><path class="js-line" d="M5,0h30" style="fill: none; stroke: rgb(255, 0, 0); stroke-opacity: 1; stroke-dasharray: 9px, 9px; stroke-width: 1.5px;"/></g><g class="legendsymbols"><g class="legendpoints"/></g></g><rect class="legendtoggle" x="0" y="-9.5" width="112.03125" height="19" style="fill: rgb(0, 0, 0); fill-opacity: 0;"/></g></g></g><rect class="scrollbar" rx="20" ry="3" width="0" height="0" style="fill: rgb(128, 139, 164); fill-opacity: 1;" x="0" y="0"/></g><g class="g-gtitle"><text class="gtitle" x="55" y="50" text-anchor="start" dy="0em" style="opacity: 1; font-family: 'Open Sans', verdana, arial, sans-serif; font-size: 17px; fill: rgb(42, 63, 95); fill-opacity: 1; white-space: pre;">WAM v2 Dream: Velocity Prediction vs Ground Truth — Lap_11</text></g><g class="g-xtitle"/><g class="g-x2title"/><g class="g-x3title"/><g class="g-x4title"/><g class="g-ytitle"/><g class="g-y2title"/><g class="g-y3title"/><g class="g-y4title"/><g class="annotation" data-index="0" style="opacity: 1;"><g class="annotation-text-g" transform="rotate(0,516.5,89.5)"><g class="cursor-pointer" transform="translate(485,79)"><rect class="bg" x="0.5" y="0.5" width="63" height="20" style="stroke-width: 1px; stroke: rgb(0, 0, 0); stroke-opacity: 0; fill: rgb(0, 0, 0); fill-opacity: 0;"/><text class="annotation-text" text-anchor="middle" x="31.7734375" y="16" style="font-family: 'Open Sans', verdana, arial, sans-serif; font-size: 16px; fill: rgb(42, 63, 95); fill-opacity: 1; white-space: pre;">Vx (m/s)</text></g></g></g><g class="annotation" data-index="1" style="opacity: 1;"><g class="annotation-text-g" transform="rotate(0,516.5,283.9)"><g class="cursor-pointer" transform="translate(485,273)"><rect class="bg" x="0.5" y="0.5" width="62" height="20" style="stroke-width: 1px; stroke: rgb(0, 0, 0); stroke-opacity: 0; fill: rgb(0, 0, 0); fill-opacity: 0;"/><text class="annotation-text" text-anchor="middle" x="31.4765625" y="16" style="font-family: 'Open Sans', verdana, arial, sans-serif; font-size: 16px; fill: rgb(42, 63, 95); fill-opacity: 1; white-space: pre;">Vy (m/s)</text></g></g></g><g class="annotation" data-index="2" style="opacity: 1;"><g class="annotation-text-g" transform="rotate(0,516.5,478.3)"><g class="cursor-pointer" transform="translate(485,468)"><rect class="bg" x="0.5" y="0.5" width="63" height="20" style="stroke-width: 1px; stroke: rgb(0, 0, 0); stroke-opacity: 0; fill: rgb(0, 0, 0); fill-opacity: 0;"/><text class="annotation-text" text-anchor="middle" x="31.7734375" y="16" style="font-family: 'Open Sans', verdana, arial, sans-serif; font-size: 16px; fill: rgb(42, 63, 95); fill-opacity: 1; white-space: pre;">Vz (m/s)</text></g></g></g><g class="annotation" data-index="3" style="opacity: 1;"><g class="annotation-text-g" transform="rotate(0,516.5,672.7)"><g class="cursor-pointer" transform="translate(451,662)"><rect class="bg" x="0.5" y="0.5" width="130" height="20" style="stroke-width: 1px; stroke: rgb(0, 0, 0); stroke-opacity: 0; fill: rgb(0, 0, 0); fill-opacity: 0;"/><text class="annotation-text" text-anchor="middle" x="65.5703125" y="16" style="font-family: 'Open Sans', verdana, arial, sans-serif; font-size: 16px; fill: rgb(42, 63, 95); fill-opacity: 1; white-space: pre;">Speed Error (m/s)</text></g></g></g></g></svg>