<svg class="main-svg" xmlns="http://www.w3.org/2000/svg" xmlns:xlink="http://www.w3.org/1999/xlink" width="1100" height="900" style="" viewBox="0 0 1100 900"><rect x="0" y="0" width="1100" height="900" style="fill: rgb(255, 255, 255); fill-opacity: 1;"/><defs id="defs-ec0305"><g class="clips"><clipPath id="clipec0305xyplot" class="plotclip"><rect width="873" height="136.79999999999995"/></clipPath><clipPath id="clipec0305x2y2plot" class="plotclip"><rect width="873" height="136.79999999999995"/></clipPath><clipPath id="clipec0305x3y3plot" class="plotclip"><rect width="873" height="136.8"/></clipPath><clipPath id="clipec0305x4y4plot" class="plotclip"><rect width="873" height="136.8"/></clipPath><clipPath class="axesclip" id="clipec0305x"><rect x="80" y="0" width="873" height="900"/></clipPath><clipPath class="axesclip" id="clipec0305y"><rect x="0" y="100" width="1100" height="136.79999999999995"/></clipPath><clipPath class="axesclip" id="clipec0305xy"><rect x="80" y="100" width="873" height="136.79999999999995"/></clipPath><clipPath class="axesclip" id="clipec0305y2"><rect x="0" y="294.4" width="1100" height="136.79999999999995"/></clipPath><clipPath class="axesclip" id="clipec0305xy2"><rect x="80" y="294.4" width="873" height="136.79999999999995"/></clipPath><clipPath class="axesclip" id="clipec0305y3"><rect x="0" y="488.8" width="1100" height="136.8"/></clipPath><clipPath class="axesclip" id="clipec0305xy3"><rect x="80" y="488.8" width="873" height="136.8"/></clipPath><clipPath class="axesclip" id="clipec0305y4"><rect x="0" y="683.2" width="1100" height="136.8"/></clipPath><clipPath class="axesclip" id="clipec0305xy4"><rect x="80" y="683.2" width="873" height="136.8"/></clipPath><clipPath class="axesclip" id="clipec0305x2"><rect x="80" y="0" width="873" height="900"/></clipPath><clipPath class="axesclip" id="clipec0305x2y"><rect x="80" y="100" width="873" height="136.79999999999995"/></clipPath><clipPath class="axesclip" id="clipec0305x2y2"><rect x="80" y="294.4" width="873" height="136.79999999999995"/></clipPath><clipPath class="axesclip" id="clipec0305x2y3"><rect x="80" y="488.8" width="873" height="136.8"/></clipPath><clipPath class="axesclip" id="clipec0305x2y4"><rect x="80" y="683.2" width="873" height="136.8"/></clipPath><clipPath class="axesclip" id="clipec0305x3"><rect x="80" y="0" width="873" height="900"/></clipPath><clipPath class="axesclip" id="clipec0305x3y"><rect x="80" y="100" width="873" height="136.79999999999995"/></clipPath><clipPath class="axesclip" id="clipec0305x3y2"><rect x="80" y="294.4" width="873" height="136.79999999999995"/></clipPath><clipPath class="axesclip" id="clipec0305x3y3"><rect x="80" y="488.8" width="873" height="136.8"/></clipPath><clipPath class="axesclip" id="clipec0305x3y4"><rect x="80" y="683.2" width="873" height="136.8"/></clipPath><clipPath class="axesclip" id="clipec0305x4"><rect x="80" y="0" width="873" height="900"/></clipPath><clipPath class="axesclip" id="clipec0305x4y"><rect x="80" y="100" width="873" height="136.79999999999995"/></clipPath><clipPath class="axesclip" id="clipec0305x4y2"><rect x="80" y="294.4" width="873" height="136.79999999999995"/></clipPath><clipPath class="axesclip" id="clipec0305x4y3"><rect x="80" y="488.8" width="873" height="136.8"/></clipPath><clipPath class="axesclip" id="clipec0305x4y4"><rect x="80" y="683.2" width="873" height="136.8"/></clipPath></g><g class="gradients"/><g class="patterns"/></defs><g class="bglayer"><rect class="bg" x="80" y="100" width="873" height="136.79999999999995" style="fill: rgb(229, 236, 246); fill-opacity: 1; stroke-width: 0;"/><rect class="bg" x="80" y="294.4" width="873" height="136.79999999999995" style="fill: rgb(229, 236, 246); fill-opacity: 1; stroke-width: 0;"/><rect class="bg" x="80" y="488.8" width="873" height="136.8" style="fill: rgb(229, 236, 246); fill-opacity: 1; stroke-width: 0;"/><rect class="bg" x="80" y="683.2" width="873" height="136.8" style="fill: rgb(229, 236, 246); fill-opacity: 1; stroke-width: 0;"/></g><g class="layer-below"><g class="imagelayer"/><g class="shapelayer"/></g><g class="cartesianlayer"><g class="subplot xy"><g class="layer-subplot"><g class="shapelayer"/><g class="imagelayer"/></g><g class="minor-gridlayer"><g class="x"/><g class="y"/></g><g class="gridlayer"><g class="x"><path class="xgrid crisp" transform="translate(167.51999999999998,0)" d="M0,100v136.79999999999995" style="stroke: rgb(255, 255, 255); stroke-opacity: 1; stroke-width: 1px;"/><path class="xgrid crisp" transform="translate(255.04,0)" d="M0,100v136.79999999999995" style="stroke: rgb(255, 255, 255); stroke-opacity: 1; stroke-width: 1px;"/><path class="xgrid crisp" transform="translate(342.56,0)" d="M0,100v136.79999999999995" style="stroke: rgb(255, 255, 255); stroke-opacity: 1; stroke-width: 1px;"/><path class="xgrid crisp" transform="translate(430.08,0)" d="M0,100v136.79999999999995" style="stroke: rgb(255, 255, 255); stroke-opacity: 1; stroke-width: 1px;"/><path class="xgrid crisp" transform="translate(517.5899999999999,0)" d="M0,100v136.79999999999995" style="stroke: rgb(255, 255, 255); stroke-opacity: 1; stroke-width: 1px;"/><path class="xgrid crisp" transform="translate(605.11,0)" d="M0,100v136.79999999999995" style="stroke: rgb(255, 255, 255); stroke-opacity: 1; stroke-width: 1px;"/><path class="xgrid crisp" transform="translate(692.63,0)" d="M0,100v136.79999999999995" style="stroke: rgb(255, 255, 255); stroke-opacity: 1; stroke-width: 1px;"/><path class="xgrid crisp" transform="translate(780.15,0)" d="M0,100v136.79999999999995" style="stroke: rgb(255, 255, 255); stroke-opacity: 1; stroke-width: 1px;"/><path class="xgrid crisp" transform="translate(867.67,0)" d="M0,100v136.79999999999995" style="stroke: rgb(255, 255, 255); stroke-opacity: 1; stroke-width: 1px;"/></g><g class="y"><path class="ygrid crisp" transform="translate(0,217.15)" d="M80,0h873" style="stroke: rgb(255, 255, 255); stroke-opacity: 1; stroke-width: 1px;"/><path class="ygrid crisp" transform="translate(0,184.97)" d="M80,0h873" style="stroke: rgb(255, 255, 255); stroke-opacity: 1; stroke-width: 1px;"/><path class="ygrid crisp" transform="translate(0,152.8)" d="M80,0h873" style="stroke: rgb(255, 255, 255); stroke-opacity: 1; stroke-width: 1px;"/><path class="ygrid crisp" transform="translate(0,120.63)" d="M80,0h873" style="stroke: rgb(255, 255, 255); stroke-opacity: 1; stroke-width: 1px;"/></g></g><g class="zerolinelayer"><path class="xzl zl crisp" transform="translate(80,0)" d="M0,100v136.79999999999995" style="stroke: rgb(255, 255, 255); stroke-opacity: 1; stroke-width: 2px;"/></g><g class="layer-between"><g class="shapelayer"/><g class="imagelayer"/></g><path class="xlines-below"/><path class="ylines-below"/><g class="overlines-below"/><g class="xaxislayer-below"/><g class="yaxislayer-below"/><g class="overaxes-below"/><g class="overplot"><g class="xy" transform="translate(80,100)" clip-path="url(#clipec0305xyplot)"><g class="scatterlayer mlayer"><g class="trace scatter tracec38c57" style="stroke-miterlimit: 2; opacity: 1;"><g class="fills"/><g class="errorbars"/><g class="lines"><path class="js-line" d="M0,128.83L26.26,119.65L28.44,118.66L48.14,109.48L50.32,108.35L120.34,74.65L122.53,73.75L142.22,65.45L144.41,64.73L161.91,58L164.1,56.99L179.41,50.53L181.6,49.62L231.92,29.34L234.11,28.45L273.5,15.59L275.68,14.97L295.38,10.37L297.56,9.89L310.69,7.92L312.88,7.73L330.38,6.84L332.57,6.9L354.45,8.48L356.64,8.75L406.96,13.64L409.15,13.69L435.41,16.04L437.59,16.35L463.85,20.87L466.04,21.38L481.35,26.03L483.54,26.84L496.67,32.1L498.86,33L516.36,42.21L518.55,43.58L531.68,51.96L533.86,53.43L560.12,73.07L562.31,74.96L597.32,101.43L599.5,102.95L617.01,113.09L619.2,114.2L630.14,119.46L632.32,120.34L641.08,123.67L643.26,124.16L654.2,126.39L656.39,126.68L673.89,129.14L676.08,129.42L682.65,129.86L684.83,129.45L702.34,126.51L704.53,126.08L715.47,123.31L717.65,122.67L741.72,114.59L743.91,113.65L809.55,82.47L811.74,81.58L831.43,73.42L833.62,72.78L859.87,66.09L862.06,66.07L873,66.8" style="vector-effect: none; fill: none; stroke: rgb(0, 0, 255); stroke-opacity: 1; stroke-width: 1.5px; opacity: 1;"/></g><g class="points"/><g class="text"/></g><g class="trace scatter trace8696c5" style="stroke-miterlimit: 2; opacity: 1;"><g class="fills"/><g class="errorbars"/><g class="lines"><path class="js-line" d="M0,129.12L17.5,124.99L19.69,124.19L32.82,119.15L35.01,118.62L78.77,101.74L80.95,101.2L91.89,98.17L94.08,97.35L105.02,93.95L107.21,92.97L183.79,71.11L185.98,70.64L192.54,69.08L194.73,68.4L236.3,55.67L238.49,54.97L255.99,49.45L258.18,48.85L271.31,45.61L273.5,45.19L293.19,41.15L295.38,40.81L332.57,36.21L334.76,35.68L347.89,33.16L350.08,33L361.02,32.92L363.2,33.36L376.33,35.17L378.52,35.46L382.89,36.13L385.08,35.98L391.65,37.6L393.83,37.83L402.59,39.21L404.77,39.02L411.34,39.23L413.53,39.67L417.9,40.7L420.09,40.43L424.47,41.68L426.65,42.03L433.22,42.83L435.41,43.25L450.72,46.07L452.91,46.19L479.17,50.26L481.35,50.76L498.86,54.79L501.05,55.22L516.36,58.46L518.55,59.1L529.49,61.57L531.68,61.97L560.12,67.8L562.31,68.23L632.32,82.78L634.51,83.52L641.08,85.18L643.26,85.46L652.02,85.79L654.2,86.5L660.77,88.43L662.95,89.07L715.47,103.77L717.65,104.42L728.59,106.99L730.78,107.27L737.35,107.86L739.53,107.98L761.41,107.73L763.6,107.63L789.86,105.26L792.05,104.81L798.61,102.99L800.8,102.52L809.55,100.24L811.74,99.94L820.49,97.99L822.68,97.17L846.74,89.18L848.93,88.74L868.62,86.23L870.81,86.29L873,86.61" style="vector-effect: none; fill: none; stroke: rgb(255, 0, 0); stroke-opacity: 1; stroke-dasharray: 9px, 9px; stroke-width: 1.5px; opacity: 1;"/></g><g class="points"/><g class="text"/></g></g></g></g><g class="zerolinelayer-above"/><path class="xlines-above crisp" d="M0,0" style="fill: none;"/><path class="ylines-above crisp" d="M0,0" style="fill: none;"/><g class="overlines-above"/><g class="xaxislayer-above"/><g class="yaxislayer-above"><g class="ytick"><text text-anchor="end" x="79" y="4.199999999999999" transform="translate(0,217.15)" style="font-family: 'Open Sans', verdana, arial, sans-serif; font-size: 12px; fill: rgb(42, 63, 95); fill-opacity: 1; white-space: pre;">15</text></g><g class="ytick"><text text-anchor="end" x="79" y="4.199999999999999" style="font-family: 'Open Sans', verdana, arial, sans-serif; font-size: 12px; fill: rgb(42, 63, 95); fill-opacity: 1; white-space: pre;" transform="translate(0,184.97)">20</text></g><g class="ytick"><text text-anchor="end" x="79" y="4.199999999999999" style="font-family: 'Open Sans', verdana, arial, sans-serif; font-size: 12px; fill: rgb(42, 63, 95); fill-opacity: 1; white-space: pre;" transform="translate(0,152.8)">25</text></g><g class="ytick"><text text-anchor="end" x="79" y="4.199999999999999" style="font-family: 'Open Sans', verdana, arial, sans-serif; font-size: 12px; fill: rgb(42, 63, 95); fill-opacity: 1; white-space: pre;" transform="translate(0,120.63)">30</text></g></g><g class="overaxes-above"/></g><g class="subplot x2y2"><g class="layer-subplot"><g class="shapelayer"/><g class="imagelayer"/></g><g class="minor-gridlayer"><g class="x2"/><g class="y2"/></g><g class="gridlayer"><g class="x2"><path class="x2grid crisp" transform="translate(167.51999999999998,0)" d="M0,294.4v136.79999999999995" style="stroke: rgb(255, 255, 255); stroke-opacity: 1; stroke-width: 1px;"/><path class="x2grid crisp" transform="translate(255.04,0)" d="M0,294.4v136.79999999999995" style="stroke: rgb(255, 255, 255); stroke-opacity: 1; stroke-width: 1px;"/><path class="x2grid crisp" transform="translate(342.56,0)" d="M0,294.4v136.79999999999995" style="stroke: rgb(255, 255, 255); stroke-opacity: 1; stroke-width: 1px;"/><path class="x2grid crisp" transform="translate(430.08,0)" d="M0,294.4v136.79999999999995" style="stroke: rgb(255, 255, 255); stroke-opacity: 1; stroke-width: 1px;"/><path class="x2grid crisp" transform="translate(517.5899999999999,0)" d="M0,294.4v136.79999999999995" style="stroke: rgb(255, 255, 255); stroke-opacity: 1; stroke-width: 1px;"/><path class="x2grid crisp" transform="translate(605.11,0)" d="M0,294.4v136.79999999999995" style="stroke: rgb(255, 255, 255); stroke-opacity: 1; stroke-width: 1px;"/><path class="x2grid crisp" transform="translate(692.63,0)" d="M0,294.4v136.79999999999995" style="stroke: rgb(255, 255, 255); stroke-opacity: 1; stroke-width: 1px;"/><path class="x2grid crisp" transform="translate(780.15,0)" d="M0,294.4v136.79999999999995" style="stroke: rgb(255, 255, 255); stroke-opacity: 1; stroke-width: 1px;"/><path class="x2grid crisp" transform="translate(867.67,0)" d="M0,294.4v136.79999999999995" style="stroke: rgb(255, 255, 255); stroke-opacity: 1; stroke-width: 1px;"/></g><g class="y2"><path class="y2grid crisp" transform="translate(0,380.57)" d="M80,0h873" style="stroke: rgb(255, 255, 255); stroke-opacity: 1; stroke-width: 1px;"/><path class="y2grid crisp" transform="translate(0,348.12)" d="M80,0h873" style="stroke: rgb(255, 255, 255); stroke-opacity: 1; stroke-width: 1px;"/><path class="y2grid crisp" transform="translate(0,315.65999999999997)" d="M80,0h873" style="stroke: rgb(255, 255, 255); stroke-opacity: 1; stroke-width: 1px;"/></g></g><g class="zerolinelayer"><path class="x2zl zl crisp" transform="translate(80,0)" d="M0,294.4v136.79999999999995" style="stroke: rgb(255, 255, 255); stroke-opacity: 1; stroke-width: 2px;"/><path class="y2zl zl crisp" transform="translate(0,413.03)" d="M80,0h873" style="stroke: rgb(255, 255, 255); stroke-opacity: 1; stroke-width: 2px;"/></g><g class="layer-between"><g class="shapelayer"/><g class="imagelayer"/></g><path class="xlines-below"/><path class="ylines-below"/><g class="overlines-below"/><g class="xaxislayer-below"/><g class="yaxislayer-below"/><g class="overaxes-below"/><g class="overplot"><g class="x2y2" transform="translate(80,294.4)" clip-path="url(#clipec0305x2y2plot)"><g class="scatterlayer mlayer"><g class="trace scatter trace188112" style="stroke-miterlimit: 2; opacity: 1;"><g class="fills"/><g class="errorbars"/><g class="lines"><path class="js-line" d="M0,109.59L4.38,111.58L6.56,112.01L8.75,112.88L10.94,112.69L15.32,112.82L17.5,113.38L24.07,114.72L26.26,114.28L32.82,116.28L35.01,116.96L48.14,117.96L50.32,118.81L54.7,120.14L56.89,120.15L63.45,120.47L65.64,120.82L70.02,120.71L72.2,120.56L74.39,120.34L76.58,121.09L78.77,121.26L80.95,120.36L85.33,120.7L87.52,120.78L98.46,121.34L100.65,120.57L102.83,120.77L105.02,120.16L109.4,120.31L111.59,119.17L113.77,119.41L115.96,118.5L135.65,116.87L137.84,116.24L142.22,116.15L144.41,116.08L155.35,115.96L157.53,116.69L159.72,115.56L161.91,115.72L166.29,114.73L168.47,115.29L172.85,113.75L175.04,114.8L177.23,114.45L179.41,114.87L181.6,114.67L183.79,115.33L192.54,115.91L194.73,115.49L196.92,115.84L199.11,115.09L203.48,113.96L205.67,113.59L207.86,112.81L210.05,113.86L214.42,114.92L216.61,115.32L218.8,116.14L220.98,115.47L223.17,116.19L225.36,115.52L231.92,115.77L234.11,115.01L238.49,114.87L240.68,114.47L253.8,114.73L255.99,114.25L258.18,113.97L260.37,114.65L269.12,113.64L271.31,113.81L275.68,112.87L277.87,112.95L282.25,111.99L284.44,110.33L286.62,110.08L288.81,109.04L295.38,104.01L297.56,103.84L299.75,103.71L301.94,104.67L315.07,102.81L317.26,101.9L321.63,96L323.82,92.67L330.38,88.78L332.57,87.68L336.95,86.16L339.14,86.5L341.32,87.1L343.51,86.56L347.89,86.38L350.08,84.98L352.26,84.8L354.45,83.68L365.39,83.42L367.58,84.66L369.77,84.8L371.95,83.93L380.71,78.86L382.89,77.31L387.27,71.08L389.46,69.28L391.65,65.87L393.83,64.17L396.02,63.58L398.21,61.82L400.4,61.61L402.59,62.71L406.96,68.05L409.15,71.53L411.34,73.91L413.53,75.06L415.71,77.46L417.9,78.35L424.47,82.12L426.65,82.09L433.22,81.66L435.41,80.99L437.59,80.71L439.78,81.28L441.97,82.68L444.16,85.14L455.1,106.61L457.29,109.75L459.47,110.04L461.66,109.16L463.85,107.52L466.04,107.18L470.41,105.66L472.6,106.11L476.98,106.41L479.17,107.39L481.35,107.3L483.54,108.23L492.29,113.54L494.48,113.7L496.67,113.93L498.86,112.71L505.42,109.79L507.61,109.02L509.8,108.67L511.98,109.51L522.92,114.95L525.11,114.94L529.49,114.61L531.68,113.77L536.05,112.36L538.24,112.7L542.62,109.96L544.8,109.11L546.99,108.36L549.18,108.59L551.37,108.65L553.56,107.56L557.93,107.96L560.12,108.98L566.68,110.35L568.87,109.72L573.25,109.84L575.44,109.21L579.81,108.13L582,109.26L584.19,108.79L586.38,109.8L588.56,110.3L590.75,111.86L595.13,116.16L597.32,117.25L599.5,119.47L601.69,118.42L606.07,118.79L608.26,119.62L610.44,119.23L612.63,120.16L619.2,119.79L621.38,121.66L623.57,121.4L625.76,122.6L630.14,122.08L632.32,122.39L634.51,124.53L636.7,125.05L638.89,126.05L641.08,124.15L643.26,123.31L645.45,123.63L647.64,124.53L649.83,123.56L652.02,123.58L654.2,124.36L658.58,124.43L660.77,125.8L662.95,125.36L665.14,127.21L669.52,128.13L671.71,127.56L673.89,127.53L676.08,126.63L682.65,129.96L684.83,128.32L689.21,128.03L691.4,129.28L697.96,128.46L700.15,127.92L702.34,127.93L704.53,127.04L706.71,126.19L708.9,126.58L711.09,124.4L713.28,124.88L715.47,124.1L717.65,124.34L724.22,122.89L726.41,123.47L728.59,122.53L730.78,123.69L737.35,120.74L739.53,120.76L746.1,119.13L748.29,119.16L752.66,118.03L754.85,118.03L759.23,117.35L761.41,117.26L767.98,115.71L770.17,115.68L772.35,116.08L774.54,115.05L792.05,114.04L794.23,114.45L800.8,114.57L802.98,114.23L809.55,115.49L811.74,115.22L818.3,116.61L820.49,116.17L824.86,116.59L827.05,116.89L833.62,117.27L835.8,116.6L837.99,117.29L840.18,116.79L844.56,117.77L846.74,117.59L851.12,119.13L853.31,119.85L855.5,121.81L857.68,121.37L859.87,123.94L862.06,125.18L864.25,124.21L866.44,125.42L868.62,127.07L870.81,126.67L873,126.32" style="vector-effect: none; fill: none; stroke: rgb(0, 0, 255); stroke-opacity: 1; stroke-width: 1.5px; opacity: 1;"/></g><g class="points"/><g class="text"/></g><g class="trace scatter tracec35f6d" style="stroke-miterlimit: 2; opacity: 1;"><g class="fills"/><g class="errorbars"/><g class="lines"><path class="js-line" d="M0,109.52L6.56,111.18L8.75,112.09L10.94,112.14L13.13,113.67L17.5,114.46L19.69,114.88L21.88,116.13L24.07,116.39L28.44,117.91L30.63,118.67L50.32,122.12L52.51,122.71L59.08,122.7L61.26,122.55L72.2,122.06L74.39,121.51L83.14,119L85.33,118.43L96.27,115.84L98.46,114.81L102.83,113.01L105.02,113L111.59,110.43L113.77,109.62L120.34,108.35L122.53,107.21L126.9,105.22L129.09,105.12L137.84,104.51L140.03,104.7L146.59,103.67L148.78,103.16L155.35,102.41L157.53,102.67L164.1,102.79L166.29,102.65L177.23,101.4L179.41,100.98L185.98,100L188.17,100.08L212.23,101.52L214.42,101.62L240.68,102.7L242.86,102.59L249.43,102.14L251.62,101.9L269.12,99.52L271.31,99.42L284.44,98.14L286.62,97.42L293.19,94.24L295.38,92.77L306.32,85.95L308.5,84.97L317.26,82.04L319.44,80.49L328.2,73.72L330.38,73.19L334.76,72.89L336.95,73.21L343.51,73.83L345.7,73.63L363.2,70.9L365.39,70.74L367.58,69.5L369.77,67.06L376.33,60.32L378.52,58.34L382.89,55.39L385.08,55.06L389.46,56.52L391.65,55.8L398.21,54.56L400.4,54.57L402.59,55.33L404.77,57.85L415.71,73.06L417.9,75.85L428.84,88.16L431.03,90.23L433.22,91.03L435.41,90.69L439.78,90.49L441.97,91.11L446.35,89.77L448.53,90.22L450.72,91.51L452.91,93.8L459.47,101.4L461.66,102.87L466.04,104.34L468.23,104.49L474.79,105.63L476.98,106.16L498.86,112.11L501.05,112.45L536.05,117.95L538.24,118.15L562.31,119.56L564.5,119.65L612.63,120.97L614.82,120.8L621.38,119.41L623.57,118.5L627.95,115.45L630.14,113.08L634.51,107.39L636.7,103.6L641.08,93.11L643.26,86.36L652.02,56.88L654.2,49.24L662.95,20.6L665.14,14.88L667.33,8.25L669.52,6.84L754.85,6.93L757.04,7.92L761.41,11.81L763.6,14.23L770.17,23.12L772.35,27.34L776.73,37.81L778.92,44.38L785.48,62.62L787.67,67.57L794.23,82.72L796.42,85.92L798.61,88.45L800.8,89.05L802.98,88.99L805.17,89.89L813.92,95.5L816.11,95.68L822.68,96.46L824.86,97.52L829.24,99.17L831.43,100.29L833.62,100.77L835.8,102.19L837.99,103.21L840.18,103.35L844.56,103.92L846.74,104.59L853.31,106.66L855.5,107.61L859.87,110.07L862.06,110.89L866.44,112.23L868.62,112.29L870.81,111.92L873,112.48" style="vector-effect: none; fill: none; stroke: rgb(255, 0, 0); stroke-opacity: 1; stroke-dasharray: 9px, 9px; stroke-width: 1.5px; opacity: 1;"/></g><g class="points"/><g class="text"/></g></g></g></g><g class="zerolinelayer-above"/><path class="xlines-above crisp" d="M0,0" style="fill: none;"/><path class="ylines-above crisp" d="M0,0" style="fill: none;"/><g class="overlines-above"/><g class="xaxislayer-above"/><g class="yaxislayer-above"><g class="y2tick"><text text-anchor="end" x="79" y="4.199999999999999" transform="translate(0,413.03)" style="font-family: 'Open Sans', verdana, arial, sans-serif; font-size: 12px; fill: rgb(42, 63, 95); fill-opacity: 1; white-space: pre;">0</text></g><g class="y2tick"><text text-anchor="end" x="79" y="4.199999999999999" style="font-family: 'Open Sans', verdana, arial, sans-serif; font-size: 12px; fill: rgb(42, 63, 95); fill-opacity: 1; white-space: pre;" transform="translate(0,380.57)">1</text></g><g class="y2tick"><text text-anchor="end" x="79" y="4.199999999999999" style="font-family: 'Open Sans', verdana, arial, sans-serif; font-size: 12px; fill: rgb(42, 63, 95); fill-opacity: 1; white-space: pre;" transform="translate(0,348.12)">2</text></g><g class="y2tick"><text text-anchor="end" x="79" y="4.199999999999999" style="font-family: 'Open Sans', verdana, arial, sans-serif; font-size: 12px; fill: rgb(42, 63, 95); fill-opacity: 1; white-space: pre;" transform="translate(0,315.65999999999997)">3</text></g></g><g class="overaxes-above"/></g><g class="subplot x3y3"><g class="layer-subplot"><g class="shapelayer"/><g class="imagelayer"/></g><g class="minor-gridlayer"><g class="x3"/><g class="y3"/></g><g class="gridlayer"><g class="x3"><path class="x3grid crisp" transform="translate(167.51999999999998,0)" d="M0,488.8v136.8" style="stroke: rgb(255, 255, 255); stroke-opacity: 1; stroke-width: 1px;"/><path class="x3grid crisp" transform="translate(255.04,0)" d="M0,488.8v136.8" style="stroke: rgb(255, 255, 255); stroke-opacity: 1; stroke-width: 1px;"/><path class="x3grid crisp" transform="translate(342.56,0)" d="M0,488.8v136.8" style="stroke: rgb(255, 255, 255); stroke-opacity: 1; stroke-width: 1px;"/><path class="x3grid crisp" transform="translate(430.08,0)" d="M0,488.8v136.8" style="stroke: rgb(255, 255, 255); stroke-opacity: 1; stroke-width: 1px;"/><path class="x3grid crisp" transform="translate(517.5899999999999,0)" d="M0,488.8v136.8" style="stroke: rgb(255, 255, 255); stroke-opacity: 1; stroke-width: 1px;"/><path class="x3grid crisp" transform="translate(605.11,0)" d="M0,488.8v136.8" style="stroke: rgb(255, 255, 255); stroke-opacity: 1; stroke-width: 1px;"/><path class="x3grid crisp" transform="translate(692.63,0)" d="M0,488.8v136.8" style="stroke: rgb(255, 255, 255); stroke-opacity: 1; stroke-width: 1px;"/><path class="x3grid crisp" transform="translate(780.15,0)" d="M0,488.8v136.8" style="stroke: rgb(255, 255, 255); stroke-opacity: 1; stroke-width: 1px;"/><path class="x3grid crisp" transform="translate(867.67,0)" d="M0,488.8v136.8" style="stroke: rgb(255, 255, 255); stroke-opacity: 1; stroke-width: 1px;"/></g><g class="y3"><path class="y3grid crisp" transform="translate(0,595.26)" d="M80,0h873" style="stroke: rgb(255, 255, 255); stroke-opacity: 1; stroke-width: 1px;"/><path class="y3grid crisp" transform="translate(0,529.07)" d="M80,0h873" style="stroke: rgb(255, 255, 255); stroke-opacity: 1; stroke-width: 1px;"/><path class="y3grid crisp" transform="translate(0,495.97)" d="M80,0h873" style="stroke: rgb(255, 255, 255); stroke-opacity: 1; stroke-width: 1px;"/></g></g><g class="zerolinelayer"><path class="x3zl zl crisp" transform="translate(80,0)" d="M0,488.8v136.8" style="stroke: rgb(255, 255, 255); stroke-opacity: 1; stroke-width: 2px;"/><path class="y3zl zl crisp" transform="translate(0,562.16)" d="M80,0h873" style="stroke: rgb(255, 255, 255); stroke-opacity: 1; stroke-width: 2px;"/></g><g class="layer-between"><g class="shapelayer"/><g class="imagelayer"/></g><path class="xlines-below"/><path class="ylines-below"/><g class="overlines-below"/><g class="xaxislayer-below"/><g class="yaxislayer-below"/><g class="overaxes-below"/><g class="overplot"><g class="x3y3" transform="translate(80,488.8)" clip-path="url(#clipec0305x3y3plot)"><g class="scatterlayer mlayer"><g class="trace scatter trace42ec2e" style="stroke-miterlimit: 2; opacity: 1;"><g class="fills"/><g class="errorbars"/><g class="lines"><path class="js-line" d="M0,67.74L6.56,66.75L8.75,68.07L13.13,68.4L15.32,67.41L24.07,67.41L26.26,68.4L37.2,67.41L39.38,68.07L41.57,68.07L43.76,67.08L48.14,69.06L50.32,69.06L54.7,69.39L56.89,70.72L59.08,71.05L61.26,70.05L63.45,70.05L65.64,69.06L70.02,69.39L72.2,70.39L74.39,70.05L76.58,70.72L78.77,70.05L80.95,71.71L87.52,72.7L89.71,72.04L91.89,69.39L94.08,70.39L96.27,69.72L98.46,70.39L100.65,71.05L102.83,70.05L107.21,69.72L109.4,70.72L111.59,69.72L113.77,71.05L115.96,71.71L118.15,71.38L122.53,70.39L124.71,70.72L129.09,71.38L131.28,70.39L137.84,72.7L140.03,72.37L142.22,72.7L144.41,72.04L146.59,71.05L148.78,71.05L153.16,72.37L155.35,71.71L157.53,73.03L159.72,73.03L164.1,73.03L166.29,73.03L170.66,73.36L172.85,74.03L179.41,74.36L181.6,75.02L183.79,74.03L185.98,75.35L190.35,74.69L192.54,74.36L196.92,75.02L199.11,75.35L203.48,71.71L205.67,70.05L212.23,66.75L214.42,65.09L216.61,64.1L218.8,64.76L225.36,63.1L227.55,61.12L229.74,60.13L231.92,58.14L238.49,55.82L240.68,52.18L247.24,40.93L249.43,40.27L251.62,38.28L253.8,38.94L262.56,30.34L264.74,28.68L271.31,25.04L273.5,22.06L282.25,14.45L284.44,13.79L288.81,15.45L291,13.79L295.38,9.49L297.56,8.49L299.75,9.16L301.94,8.83L304.13,9.49L306.32,7.5L310.69,6.84L312.88,9.82L315.07,13.13L317.26,12.8L326.01,14.78L328.2,14.45L330.38,13.79L332.57,14.12L334.76,14.45L336.95,16.44L339.14,17.43L341.32,20.08L345.7,23.39L347.89,23.06L350.08,21.4L352.26,21.07L354.45,24.38L356.64,22.4L361.02,20.08L363.2,21.4L367.58,25.37L369.77,25.37L371.95,27.69L374.14,28.68L385.08,49.53L387.27,55.82L396.02,75.35L398.21,78.33L400.4,79.32L402.59,82.96L409.15,99.84L411.34,104.14L420.09,116.39L422.28,118.71L426.65,121.69L428.84,125.33L435.41,129.63L437.59,129.63L439.78,129.96L441.97,128.64L444.16,127.97L446.35,125.99L448.53,123.34L450.72,122.02L452.91,123.34L455.1,122.02L457.29,120.03L459.47,114.74L468.23,97.86L470.41,95.21L472.6,94.55L474.79,92.89L476.98,92.23L479.17,90.57L481.35,86.93L483.54,81.31L490.11,72.7L492.29,70.05L494.48,67.74L496.67,66.75L501.05,65.42L503.23,62.77L507.61,55.16L509.8,51.85L516.36,42.58L518.55,41.92L520.74,41.59L522.92,39.94L525.11,40.27L527.3,39.61L529.49,38.94L531.68,39.94L540.43,44.24L542.62,45.89L544.8,46.89L546.99,49.87L549.18,50.86L551.37,50.86L555.74,50.2L557.93,51.19L564.5,53.51L566.68,54.17L568.87,56.49L571.06,56.82L575.44,60.13L577.62,60.13L579.81,61.78L582,62.44L588.56,62.11L590.75,63.77L597.32,63.44L599.5,62.44L606.07,62.77L608.26,61.12L614.82,60.46L617.01,60.79L619.2,59.79L621.38,59.79L627.95,58.47L630.14,59.13L634.51,60.46L636.7,59.79L638.89,58.8L641.08,59.79L647.64,61.78L649.83,60.46L652.02,61.78L654.2,60.79L656.39,61.12L658.58,60.46L665.14,61.78L667.33,61.78L669.52,61.12L671.71,62.77L673.89,62.11L676.08,63.77L680.46,62.44L682.65,62.77L684.83,63.77L687.02,62.77L691.4,64.1L693.59,63.44L695.77,63.1L697.96,64.43L702.34,65.09L704.53,65.42L706.71,65.42L708.9,64.43L713.28,67.08L715.47,66.41L719.84,67.41L722.03,67.41L726.41,69.06L728.59,68.07L739.53,69.06L741.72,69.06L746.1,70.39L748.29,69.72L750.47,69.06L752.66,69.72L763.6,69.72L765.79,70.39L770.17,72.37L772.35,72.7L776.73,73.36L778.92,72.04L785.48,71.71L787.67,71.05L789.86,72.04L792.05,71.05L796.42,71.71L798.61,71.71L802.98,71.71L805.17,71.71L809.55,74.03L811.74,74.36L813.92,75.68L816.11,75.35L824.86,75.68L827.05,76.34L829.24,75.02L831.43,74.69L837.99,73.03L840.18,71.71L848.93,70.72L851.12,71.38L853.31,72.04L855.5,71.71L859.87,72.37L862.06,71.05L864.25,71.38L866.44,70.72L868.62,68.73L870.81,68.4L873,66.75" style="vector-effect: none; fill: none; stroke: rgb(0, 0, 255); stroke-opacity: 1; stroke-width: 1.5px; opacity: 1;"/></g><g class="points"/><g class="text"/></g><g class="trace scatter traced8c09d" style="stroke-miterlimit: 2; opacity: 1;"><g class="fills"/><g class="errorbars"/><g class="lines"><path class="js-line" d="M0,67.5L6.56,68.09L8.75,67.76L19.69,67.65L21.88,68.08L28.44,69.99L30.63,70.6L32.82,70.7L35.01,69.82L39.38,69.75L41.57,70.51L54.7,73.3L56.89,74.68L67.83,77.99L70.02,78.37L80.95,81.56L83.14,81.96L87.52,83.25L89.71,82.98L94.08,83.78L96.27,84.46L98.46,84.93L100.65,84.54L102.83,83.99L105.02,84.53L109.4,85.53L111.59,85.24L115.96,85.93L118.15,86.4L122.53,87.1L124.71,86.69L129.09,85.33L131.28,85.03L137.84,84.54L140.03,84.57L148.78,84.6L150.97,84.41L159.72,82.7L161.91,82.66L170.66,83.4L172.85,83.83L183.79,86.46L185.98,86.3L194.73,84.06L196.92,84.41L216.61,85.2L218.8,85.41L229.74,85.31L231.92,85.22L240.68,84.17L242.86,83.67L264.74,80.55L266.93,80.19L280.06,77.56L282.25,76.52L286.62,74.56L288.81,73.35L293.19,70.13L295.38,68.02L301.94,62.24L304.13,60.93L310.69,57.4L312.88,56.79L321.63,54.31L323.82,53L328.2,49.95L330.38,48.03L334.76,44.17L336.95,43.02L345.7,40.32L347.89,39.73L358.83,35.22L361.02,36.14L367.58,40.2L369.77,41.27L374.14,41.96L376.33,41.56L382.89,38.26L385.08,38.02L391.65,45.85L393.83,46.97L396.02,47.06L398.21,45.71L402.59,42.48L404.77,42.57L406.96,43.4L409.15,45.22L413.53,49.42L415.71,49.42L422.28,45.33L424.47,43.15L426.65,42.58L428.84,43.74L435.41,49.17L437.59,49.03L450.72,41.48L452.91,41.95L459.47,44.66L461.66,44.82L481.35,42.17L483.54,41.69L492.29,39.54L494.48,39.38L507.61,38.56L509.8,38.91L518.55,40.28L520.74,39.97L527.3,38.72L529.49,38.62L549.18,39.11L551.37,39.04L568.87,38.2L571.06,37.93L584.19,35.48L586.38,34.99L625.76,25.56L627.95,24.3L634.51,19.72L636.7,19.4L641.08,20.42L643.26,22L649.83,29.2L652.02,30.38L654.2,30.54L656.39,31.62L662.95,36.93L665.14,37.31L669.52,38.17L671.71,39.19L678.27,43.41L680.46,43.97L687.02,45.66L689.21,46.81L693.59,48.92L695.77,49.5L704.53,52.75L706.71,53.56L719.84,59.42L722.03,60.48L735.16,68.03L737.35,69.38L743.91,73.38L746.1,74.37L754.85,77.01L757.04,77.51L765.79,78.37L767.98,78.34L774.54,77.51L776.73,76.86L785.48,71.84L787.67,71.25L789.86,71.5L792.05,70.68L796.42,69.18L798.61,69.77L802.98,69.53L805.17,69.32L809.55,68.15L811.74,68.25L813.92,67.56L816.11,67.81L820.49,69.57L822.68,70.21L829.24,67.44L831.43,66.61L833.62,66.08L835.8,66.81L840.18,65.72L842.37,64.62L848.93,60.97L851.12,60.9L855.5,60.46L857.68,60.43L864.25,60.53L866.44,61.27L870.81,60.74L873,61.12" style="vector-effect: none; fill: none; stroke: rgb(255, 0, 0); stroke-opacity: 1; stroke-dasharray: 9px, 9px; stroke-width: 1.5px; opacity: 1;"/></g><g class="points"/><g class="text"/></g></g></g></g><g class="zerolinelayer-above"/><path class="xlines-above crisp" d="M0,0" style="fill: none;"/><path class="ylines-above crisp" d="M0,0" style="fill: none;"/><g class="overlines-above"/><g class="xaxislayer-above"/><g class="yaxislayer-above"><g class="y3tick"><text text-anchor="end" x="79" y="4.199999999999999" transform="translate(0,595.26)" style="font-family: 'Open Sans', verdana, arial, sans-serif; font-size: 12px; fill: rgb(42, 63, 95); fill-opacity: 1; white-space: pre;">−1</text></g><g class="y3tick"><text text-anchor="end" x="79" y="4.199999999999999" style="font-family: 'Open Sans', verdana, arial, sans-serif; font-size: 12px; fill: rgb(42, 63, 95); fill-opacity: 1; white-space: pre;" transform="translate(0,562.16)">0</text></g><g class="y3tick"><text text-anchor="end" x="79" y="4.199999999999999" style="font-family: 'Open Sans', verdana, arial, sans-serif; font-size: 12px; fill: rgb(42, 63, 95); fill-opacity: 1; white-space: pre;" transform="translate(0,529.07)">1</text></g><g class="y3tick"><text text-anchor="end" x="79" y="4.199999999999999" style="font-family: 'Open Sans', verdana, arial, sans-serif; font-size: 12px; fill: rgb(42, 63, 95); fill-opacity: 1; white-space: pre;" transform="translate(0,495.97)">2</text></g></g><g class="overaxes-above"/></g><g class="subplot x4y4"><g class="layer-subplot"><g class="shapelayer"/><g class="imagelayer"/></g><g class="minor-gridlayer"><g class="x4"/><g class="y4"/></g><g class="gridlayer"><g class="x4"><path class="x4grid crisp" transform="translate(167.51999999999998,0)" d="M0,683.2v136.8" style="stroke: rgb(255, 255, 255); stroke-opacity: 1; stroke-width: 1px;"/><path class="x4grid crisp" transform="translate(255.04,0)" d="M0,683.2v136.8" style="stroke: rgb(255, 255, 255); stroke-opacity: 1; stroke-width: 1px;"/><path class="x4grid crisp" transform="translate(342.56,0)" d="M0,683.2v136.8" style="stroke: rgb(255, 255, 255); stroke-opacity: 1; stroke-width: 1px;"/><path class="x4grid crisp" transform="translate(430.08,0)" d="M0,683.2v136.8" style="stroke: rgb(255, 255, 255); stroke-opacity: 1; stroke-width: 1px;"/><path class="x4grid crisp" transform="translate(517.5899999999999,0)" d="M0,683.2v136.8" style="stroke: rgb(255, 255, 255); stroke-opacity: 1; stroke-width: 1px;"/><path class="x4grid crisp" transform="translate(605.11,0)" d="M0,683.2v136.8" style="stroke: rgb(255, 255, 255); stroke-opacity: 1; stroke-width: 1px;"/><path class="x4grid crisp" transform="translate(692.63,0)" d="M0,683.2v136.8" style="stroke: rgb(255, 255, 255); stroke-opacity: 1; stroke-width: 1px;"/><path class="x4grid crisp" transform="translate(780.15,0)" d="M0,683.2v136.8" style="stroke: rgb(255, 255, 255); stroke-opacity: 1; stroke-width: 1px;"/><path class="x4grid crisp" transform="translate(867.67,0)" d="M0,683.2v136.8" style="stroke: rgb(255, 255, 255); stroke-opacity: 1; stroke-width: 1px;"/></g><g class="y4"><path class="y4grid crisp" transform="translate(0,778.5600000000001)" d="M80,0h873" style="stroke: rgb(255, 255, 255); stroke-opacity: 1; stroke-width: 1px;"/><path class="y4grid crisp" transform="translate(0,743.1600000000001)" d="M80,0h873" style="stroke: rgb(255, 255, 255); stroke-opacity: 1; stroke-width: 1px;"/><path class="y4grid crisp" transform="translate(0,707.75)" d="M80,0h873" style="stroke: rgb(255, 255, 255); stroke-opacity: 1; stroke-width: 1px;"/></g></g><g class="zerolinelayer"><path class="x4zl zl crisp" transform="translate(80,0)" d="M0,683.2v136.8" style="stroke: rgb(255, 255, 255); stroke-opacity: 1; stroke-width: 2px;"/><path class="y4zl zl crisp" transform="translate(0,813.97)" d="M80,0h873" style="stroke: rgb(255, 255, 255); stroke-opacity: 1; stroke-width: 2px;"/></g><g class="layer-between"><g class="shapelayer"/><g class="imagelayer"/></g><path class="xlines-below"/><path class="ylines-below"/><g class="overlines-below"/><g class="xaxislayer-below"/><g class="yaxislayer-below"/><g class="overaxes-below"/><g class="overplot"><g class="x4y4" transform="translate(80,683.2)" clip-path="url(#clipec0305x4y4plot)"><g class="scatterlayer mlayer"><g class="trace scatter trace22280c" style="stroke-miterlimit: 2; opacity: 1;"><g class="fills"/><g class="errorbars"/><g class="lines"><path class="js-line" d="M0,129.96L4.38,128.18L6.56,128.17L19.69,125.44L21.88,125.62L26.26,125.58L28.44,125.31L35.01,122.59L37.2,122.12L54.7,116.61L56.89,116.86L59.08,115.23L61.26,114.86L65.64,112.82L67.83,112.2L70.02,112.35L72.2,111.44L78.77,109.2L80.95,108.06L91.89,101.4L94.08,101.09L105.02,96.21L107.21,96.31L118.15,91.64L120.34,90.31L129.09,86.36L131.28,85.41L137.84,83.87L140.03,83.44L148.78,81.92L150.97,81L157.53,79.7L159.72,78.76L172.85,74.17L175.04,73.17L190.35,64.37L192.54,63.77L223.17,54.97L225.36,54.23L240.68,51.07L242.86,50.63L255.99,48.06L258.18,47.77L266.93,45.65L269.12,45L280.06,42L282.25,42.02L291,41.38L293.19,41.28L304.13,40.2L306.32,39.45L310.69,39.25L312.88,39.88L326.01,44.12L328.2,44.72L332.57,47.96L334.76,49.86L343.51,57.45L345.7,58.94L352.26,62.24L354.45,63.31L358.83,65.15L361.02,64.53L369.77,62.5L371.95,62.17L382.89,61.18L385.08,62.45L389.46,60.69L391.65,59.88L396.02,58.78L398.21,57.74L402.59,56.3L404.77,56.28L411.34,54.63L413.53,53.38L417.9,50.13L420.09,49.82L424.47,45.81L426.65,45.02L433.22,44.18L435.41,44.26L441.97,42.4L444.16,41.25L448.53,42.06L450.72,42.68L455.1,43.78L457.29,44.82L468.23,51.89L470.41,53.17L474.79,55.02L476.98,56.08L492.29,64.78L494.48,66.34L501.05,70.83L503.23,72.91L511.98,82.09L514.17,84.19L522.92,92.2L525.11,94.57L540.43,114.54L542.62,116.85L546.99,120.49L549.18,121.82L551.37,122.26L553.56,121.08L555.74,119.32L557.93,116.47L564.5,106.84L566.68,103.33L579.81,81.9L582,79.03L592.94,63.47L595.13,60.88L601.69,52.4L603.88,49.89L610.44,42.73L612.63,40.68L623.57,30.73L625.76,28.89L630.14,26.05L632.32,25.2L636.7,23.48L638.89,22.7L645.45,18.67L647.64,16.16L652.02,13.26L654.2,12.51L658.58,11.88L660.77,10.12L662.95,9.48L665.14,7.94L667.33,6.98L669.52,6.84L682.65,11.59L684.83,14.1L706.71,36.83L708.9,39.21L713.28,44.45L715.47,47.08L726.41,57.2L728.59,59.06L730.78,59.86L732.97,61.63L741.72,66.38L743.91,67.26L748.29,68.73L750.47,69.41L759.23,71.7L761.41,72.65L776.73,81.82L778.92,83.31L783.29,86.01L785.48,86.01L787.67,85.62L789.86,86.35L792.05,85.77L794.23,86.44L798.61,85.13L800.8,83.96L807.36,81.51L809.55,80.21L816.11,75.67L818.3,74.34L837.99,73.96L840.18,74.56L844.56,75.28L846.74,74.98L851.12,73.17L853.31,72.38L855.5,72.94L857.68,72.58L870.81,76.02L873,75.68" style="vector-effect: none; fill: none; stroke: rgb(128, 0, 128); stroke-opacity: 1; stroke-width: 1.5px; opacity: 1;"/></g><g class="points"/><g class="text"/></g></g></g></g><g class="zerolinelayer-above"/><path class="xlines-above crisp" d="M0,0" style="fill: none;"/><path class="ylines-above crisp" d="M0,0" style="fill: none;"/><g class="overlines-above"/><g class="xaxislayer-above"><g class="x4tick"><text text-anchor="middle" x="0" y="833" transform="translate(80,0)" style="font-family: 'Open Sans', verdana, arial, sans-serif; font-size: 12px; fill: rgb(42, 63, 95); fill-opacity: 1; white-space: pre;">0</text></g><g class="x4tick"><text text-anchor="middle" x="0" y="833" style="font-family: 'Open Sans', verdana, arial, sans-serif; font-size: 12px; fill: rgb(42, 63, 95); fill-opacity: 1; white-space: pre;" transform="translate(167.51999999999998,0)">2</text></g><g class="x4tick"><text text-anchor="middle" x="0" y="833" style="font-family: 'Open Sans', verdana, arial, sans-serif; font-size: 12px; fill: rgb(42, 63, 95); fill-opacity: 1; white-space: pre;" transform="translate(255.04,0)">4</text></g><g class="x4tick"><text text-anchor="middle" x="0" y="833" style="font-family: 'Open Sans', verdana, arial, sans-serif; font-size: 12px; fill: rgb(42, 63, 95); fill-opacity: 1; white-space: pre;" transform="translate(342.56,0)">6</text></g><g class="x4tick"><text text-anchor="middle" x="0" y="833" style="font-family: 'Open Sans', verdana, arial, sans-serif; font-size: 12px; fill: rgb(42, 63, 95); fill-opacity: 1; white-space: pre;" transform="translate(430.08,0)">8</text></g><g class="x4tick"><text text-anchor="middle" x="0" y="833" style="font-family: 'Open Sans', verdana, arial, sans-serif; font-size: 12px; fill: rgb(42, 63, 95); fill-opacity: 1; white-space: pre;" transform="translate(517.5899999999999,0)">10</text></g><g class="x4tick"><text text-anchor="middle" x="0" y="833" style="font-family: 'Open Sans', verdana, arial, sans-serif; font-size: 12px; fill: rgb(42, 63, 95); fill-opacity: 1; white-space: pre;" transform="translate(605.11,0)">12</text></g><g class="x4tick"><text text-anchor="middle" x="0" y="833" style="font-family: 'Open Sans', verdana, arial, sans-serif; font-size: 12px; fill: rgb(42, 63, 95); fill-opacity: 1; white-space: pre;" transform="translate(692.63,0)">14</text></g><g class="x4tick"><text text-anchor="middle" x="0" y="833" style="font-family: 'Open Sans', verdana, arial, sans-serif; font-size: 12px; fill: rgb(42, 63, 95); fill-opacity: 1; white-space: pre;" transform="translate(780.15,0)">16</text></g><g class="x4tick"><text text-anchor="middle" x="0" y="833" style="font-family: 'Open Sans', verdana, arial, sans-serif; font-size: 12px; fill: rgb(42, 63, 95); fill-opacity: 1; white-space: pre;" transform="translate(867.67,0)">18</text></g></g><g class="yaxislayer-above"><g class="y4tick"><text text-anchor="end" x="79" y="4.199999999999999" transform="translate(0,813.97)" style="font-family: 'Open Sans', verdana, arial, sans-serif; font-size: 12px; fill: rgb(42, 63, 95); fill-opacity: 1; white-space: pre;">0</text></g><g class="y4tick"><text text-anchor="end" x="79" y="4.199999999999999" style="font-family: 'Open Sans', verdana, arial, sans-serif; font-size: 12px; fill: rgb(42, 63, 95); fill-opacity: 1; white-space: pre;" transform="translate(0,778.5600000000001)">2</text></g><g class="y4tick"><text text-anchor="end" x="79" y="4.199999999999999" style="font-family: 'Open Sans', verdana, arial, sans-serif; font-size: 12px; fill: rgb(42, 63, 95); fill-opacity: 1; white-space: pre;" transform="translate(0,743.1600000000001)">4</text></g><g class="y4tick"><text text-anchor="end" x="79" y="4.199999999999999" style="font-family: 'Open Sans', verdana, arial, sans-serif; font-size: 12px; fill: rgb(42, 63, 95); fill-opacity: 1; white-space: pre;" transform="translate(0,707.75)">6</text></g></g><g class="overaxes-above"/></g></g><g class="polarlayer"/><g class="smithlayer"/><g class="ternarylayer"/><g class="geolayer"/><g class="funnelarealayer"/><g class="pielayer"/><g class="iciclelayer"/><g class="treemaplayer"/><g class="sunburstlayer"/><g class="glimages"/><defs id="topdefs-ec0305"><g class="clips"/><clipPath id="legendec0305"><rect width="118" height="48" x="0" y="0"/></clipPath></defs><g class="layer-above"><g class="imagelayer"/><g class="shapelayer"/></g><g class="infolayer"><g class="legend" pointer-events="all" transform="translate(970.46,100)"><rect class="bg" shape-rendering="crispEdges" style="stroke: rgb(68, 68, 68); stroke-opacity: 1; fill: rgb(255, 255, 255); fill-opacity: 1; stroke-width: 0px;" width="118" height="48" x="0" y="0"/><g class="scrollbox" transform="" clip-path="url(#legendec0305)"><g class="groups"><g class="traces" transform="translate(0,14.5)" style="opacity: 1;"><text class="legendtext" text-anchor="start" x="40" y="4.680000000000001" style="font-family: 'Open Sans', verdana, arial, sans-serif; font-size: 12px; fill: rgb(42, 63, 95); fill-opacity: 1; white-space: pre;">GT Vx_mps</text><g class="layers" style="opacity: 1;"><g class="legendfill"/><g class="legendlines"><path class="js-line" d="M5,0h30" style="fill: none; stroke: rgb(0, 0, 255); stroke-opacity: 1; stroke-width: 1.5px;"/></g><g class="legendsymbols"><g class="legendpoints"/></g></g><rect class="legendtoggle" x="0" y="-9.5" width="112.03125" height="19" style="fill: rgb(0, 0, 0); fill-opacity: 0;"/></g><g class="traces" transform="translate(0,33.5)" style="opacity: 1;"><text class="legendtext" text-anchor="start" x="40" y="4.680000000000001" style="font-family: 'Open Sans', verdana, arial, sans-serif; font-size: 12px; fill: rgb(42, 63, 95); fill-opacity: 1; white-space: pre;">Pred Vx_mps</text><g class="layers" style="opacity: 1;"><g class="legendfill"/><g class="legendlines"><path class="js-line" d="M5,0h30" style="fill: none; stroke: rgb(255, 0, 0); stroke-opacity: 1; stroke-dasharray: 9px, 9px; stroke-width: 1.5px;"/></g><g class="legendsymbols"><g class="legendpoints"/></g></g><rect class="legendtoggle" x="0" y="-9.5" width="112.03125" height="19" style="fill: rgb(0, 0, 0); fill-opacity: 0;"/></g></g></g><rect class="scrollbar" rx="20" ry="3" width="0" height="0" style="fill: rgb(128, 139, 164); fill-opacity: 1;" x="0" y="0"/></g><g class="g-gtitle"><text class="gtitle" x="55" y="50" text-anchor="start" dy="0em" style="opacity: 1; font-family: 'Open Sans', verdana, arial, sans-serif; font-size: 17px; fill: rgb(42, 63, 95); fill-opacity: 1; white-space: pre;">WAM v2 Dream: Velocity Prediction vs Ground Truth — Lap_11</text></g><g class="g-xtitle"/><g class="g-x2title"/><g class="g-x3title"/><g class="g-x4title"/><g class="g-ytitle"/><g class="g-y2title"/><g class="g-y3title"/><g class="g-y4title"/><g class="annotation" data-index="0" style="opacity: 1;"><g class="annotation-text-g" transform="rotate(0,516.5,89.5)"><g class="cursor-pointer" transform="translate(485,79)"><rect class="bg" x="0.5" y="0.5" width="63" height="20" style="stroke-width: 1px; stroke: rgb(0, 0, 0); stroke-opacity: 0; fill: rgb(0, 0, 0); fill-opacity: 0;"/><text class="annotation-text" text-anchor="middle" x="31.7734375" y="16" style="font-family: 'Open Sans', verdana, arial, sans-serif; font-size: 16px; fill: rgb(42, 63, 95); fill-opacity: 1; white-space: pre;">Vx (m/s)</text></g></g></g><g class="annotation" data-index="1" style="opacity: 1;"><g class="annotation-text-g" transform="rotate(0,516.5,283.9)"><g class="cursor-pointer" transform="translate(485,273)"><rect class="bg" x="0.5" y="0.5" width="62" height="20" style="stroke-width: 1px; stroke: rgb(0, 0, 0); stroke-opacity: 0; fill: rgb(0, 0, 0); fill-opacity: 0;"/><text class="annotation-text" text-anchor="middle" x="31.4765625" y="16" style="font-family: 'Open Sans', verdana, arial, sans-serif; font-size: 16px; fill: rgb(42, 63, 95); fill-opacity: 1; white-space: pre;">Vy (m/s)</text></g></g></g><g class="annotation" data-index="2" style="opacity: 1;"><g class="annotation-text-g" transform="rotate(0,516.5,478.3)"><g class="cursor-pointer" transform="translate(485,468)"><rect class="bg" x="0.5" y="0.5" width="63" height="20" style="stroke-width: 1px; stroke: rgb(0, 0, 0); stroke-opacity: 0; fill: rgb(0, 0, 0); fill-opacity: 0;"/><text class="annotation-text" text-anchor="middle" x="31.7734375" y="16" style="font-family: 'Open Sans', verdana, arial, sans-serif; font-size: 16px; fill: rgb(42, 63, 95); fill-opacity: 1; white-space: pre;">Vz (m/s)</text></g></g></g><g class="annotation" data-index="3" style="opacity: 1;"><g class="annotation-text-g" transform="rotate(0,516.5,672.7)"><g class="cursor-pointer" transform="translate(451,662)"><rect class="bg" x="0.5" y="0.5" width="130" height="20" style="stroke-width: 1px; stroke: rgb(0, 0, 0); stroke-opacity: 0; fill: rgb(0, 0, 0); fill-opacity: 0;"/><text class="annotation-text" text-anchor="middle" x="65.5703125" y="16" style="font-family: 'Open Sans', verdana, arial, sans-serif; font-size: 16px; fill: rgb(42, 63, 95); fill-opacity: 1; white-space: pre;">Speed Error (m/s)</text></g></g></g></g></svg>