<svg class="main-svg" xmlns="http://www.w3.org/2000/svg" xmlns:xlink="http://www.w3.org/1999/xlink" width="900" height="600" style="" viewBox="0 0 900 600"><rect x="0" y="0" width="900" height="600" style="fill: rgb(255, 255, 255); fill-opacity: 1;"/><defs id="defs-6c99f5"><g class="clips"><clipPath id="clip6c99f5xyplot" class="plotclip"><rect width="722" height="193.2"/></clipPath><clipPath id="clip6c99f5x2y2plot" class="plotclip"><rect width="722" height="193.20000000000002"/></clipPath><clipPath class="axesclip" id="clip6c99f5x"><rect x="80" y="0" width="722" height="600"/></clipPath><clipPath class="axesclip" id="clip6c99f5y"><rect x="0" y="100" width="900" height="193.2"/></clipPath><clipPath class="axesclip" id="clip6c99f5xy"><rect x="80" y="100" width="722" height="193.2"/></clipPath><clipPath class="axesclip" id="clip6c99f5y2"><rect x="0" y="326.8" width="900" height="193.20000000000002"/></clipPath><clipPath class="axesclip" id="clip6c99f5xy2"><rect x="80" y="326.8" width="722" height="193.20000000000002"/></clipPath><clipPath class="axesclip" id="clip6c99f5x2"><rect x="80" y="0" width="722" height="600"/></clipPath><clipPath class="axesclip" id="clip6c99f5x2y"><rect x="80" y="100" width="722" height="193.2"/></clipPath><clipPath class="axesclip" id="clip6c99f5x2y2"><rect x="80" y="326.8" width="722" height="193.20000000000002"/></clipPath></g><g class="gradients"/><g class="patterns"/></defs><g class="bglayer"><rect class="bg" x="80" y="100" width="722" height="193.2" style="fill: rgb(229, 236, 246); fill-opacity: 1; stroke-width: 0;"/><rect class="bg" x="80" y="326.8" width="722" height="193.20000000000002" style="fill: rgb(229, 236, 246); fill-opacity: 1; stroke-width: 0;"/></g><g class="layer-below"><g class="imagelayer"/><g class="shapelayer"/></g><g class="cartesianlayer"><g class="subplot xy"><g class="layer-subplot"><g class="shapelayer"/><g class="imagelayer"/></g><g class="minor-gridlayer"><g class="x"/><g class="y"/></g><g class="gridlayer"><g class="x"><path class="xgrid crisp" transform="translate(150.9,0)" d="M0,100v193.2" style="stroke: rgb(255, 255, 255); stroke-opacity: 1; stroke-width: 1px;"/><path class="xgrid crisp" transform="translate(223.24,0)" d="M0,100v193.2" style="stroke: rgb(255, 255, 255); stroke-opacity: 1; stroke-width: 1px;"/><path class="xgrid crisp" transform="translate(295.59000000000003,0)" d="M0,100v193.2" style="stroke: rgb(255, 255, 255); stroke-opacity: 1; stroke-width: 1px;"/><path class="xgrid crisp" transform="translate(367.93,0)" d="M0,100v193.2" style="stroke: rgb(255, 255, 255); stroke-opacity: 1; stroke-width: 1px;"/><path class="xgrid crisp" transform="translate(440.28,0)" d="M0,100v193.2" style="stroke: rgb(255, 255, 255); stroke-opacity: 1; stroke-width: 1px;"/><path class="xgrid crisp" transform="translate(512.62,0)" d="M0,100v193.2" style="stroke: rgb(255, 255, 255); stroke-opacity: 1; stroke-width: 1px;"/><path class="xgrid crisp" transform="translate(584.97,0)" d="M0,100v193.2" style="stroke: rgb(255, 255, 255); stroke-opacity: 1; stroke-width: 1px;"/><path class="xgrid crisp" transform="translate(657.31,0)" d="M0,100v193.2" style="stroke: rgb(255, 255, 255); stroke-opacity: 1; stroke-width: 1px;"/><path class="xgrid crisp" transform="translate(729.66,0)" d="M0,100v193.2" style="stroke: rgb(255, 255, 255); stroke-opacity: 1; stroke-width: 1px;"/></g><g class="y"><path class="ygrid crisp" transform="translate(0,291.87)" d="M80,0h722" style="stroke: rgb(255, 255, 255); stroke-opacity: 1; stroke-width: 1px;"/><path class="ygrid crisp" transform="translate(0,264.19)" d="M80,0h722" style="stroke: rgb(255, 255, 255); stroke-opacity: 1; stroke-width: 1px;"/><path class="ygrid crisp" transform="translate(0,244.56)" d="M80,0h722" style="stroke: rgb(255, 255, 255); stroke-opacity: 1; stroke-width: 1px;"/><path class="ygrid crisp" transform="translate(0,229.33)" d="M80,0h722" style="stroke: rgb(255, 255, 255); stroke-opacity: 1; stroke-width: 1px;"/><path class="ygrid crisp" transform="translate(0,216.88)" d="M80,0h722" style="stroke: rgb(255, 255, 255); stroke-opacity: 1; stroke-width: 1px;"/><path class="ygrid crisp" transform="translate(0,206.36)" d="M80,0h722" style="stroke: rgb(255, 255, 255); stroke-opacity: 1; stroke-width: 1px;"/><path class="ygrid crisp" transform="translate(0,197.25)" d="M80,0h722" style="stroke: rgb(255, 255, 255); stroke-opacity: 1; stroke-width: 1px;"/><path class="ygrid crisp" transform="translate(0,189.20999999999998)" d="M80,0h722" style="stroke: rgb(255, 255, 255); stroke-opacity: 1; stroke-width: 1px;"/><path class="ygrid crisp" transform="translate(0,182.01999999999998)" d="M80,0h722" style="stroke: rgb(255, 255, 255); stroke-opacity: 1; stroke-width: 1px;"/><path class="ygrid crisp" transform="translate(0,134.71)" d="M80,0h722" style="stroke: rgb(255, 255, 255); stroke-opacity: 1; stroke-width: 1px;"/><path class="ygrid crisp" transform="translate(0,107.03)" d="M80,0h722" style="stroke: rgb(255, 255, 255); stroke-opacity: 1; stroke-width: 1px;"/></g></g><g class="zerolinelayer"/><g class="layer-between"><g class="shapelayer"/><g class="imagelayer"/></g><path class="xlines-below"/><path class="ylines-below"/><g class="overlines-below"/><g class="xaxislayer-below"/><g class="yaxislayer-below"/><g class="overaxes-below"/><g class="overplot"><g class="xy" transform="translate(80,100)" clip-path="url(#clip6c99f5xyplot)"><g class="scatterlayer mlayer"><g class="trace scatter trace91749f" style="stroke-miterlimit: 2; opacity: 1;"><g class="fills"/><g class="errorbars"/><g class="lines"><path class="js-line" d="M0,10.52L2.89,18.86L4.34,27L5.79,34.9L7.23,38L11.58,47.63L13.02,49.45L18.81,54.43L20.26,55.14L23.15,57.72L24.6,58.18L26.04,58.1L27.49,59.74L30.38,62.11L31.83,62.86L36.17,66.25L37.62,67.12L39.07,67.35L40.51,68.51L41.96,68.95L43.41,70.65L44.85,69.35L46.3,72.33L54.98,79.52L56.43,81.22L60.77,84.35L62.22,82.9L65.11,86.23L66.56,86.44L69.45,90.08L70.9,90.94L72.34,89.97L73.79,91.46L78.13,95.59L79.58,95.56L82.47,98L83.92,98.2L86.81,100.35L88.26,100.78L89.71,100.09L91.15,102.02L92.6,103.46L94.05,103.75L95.49,104.91L96.94,104.16L99.84,106.66L101.28,106.9L105.62,108.87L107.07,110.22L108.52,109.4L109.96,110.34L114.3,112.73L115.75,114.27L118.65,113.53L120.09,114.51L122.99,115.91L124.43,116.01L127.33,118.92L128.77,119.16L141.8,123.66L143.24,121.82L146.14,125.13L147.58,125.85L149.03,124.14L150.48,126.61L153.37,126.91L154.82,126.34L156.26,125.27L157.71,128.13L160.61,130.33L162.05,130.25L163.5,131.56L164.95,131.69L167.84,131.82L169.29,133.37L177.97,134.85L179.41,134.53L182.31,136.21L183.76,137.08L185.2,136.62L186.65,137.21L188.1,135.23L189.54,137.8L192.44,135.99L193.88,139.33L198.22,141.07L199.67,140.97L201.12,140.6L202.57,137.89L204.01,141.54L205.46,142.89L208.35,143.13L209.8,144.68L211.25,144.24L212.69,141.88L215.59,144.53L217.03,144L218.48,145.83L219.93,146.07L221.37,145.73L222.82,146.22L224.27,146.15L225.72,147.61L227.16,147.18L228.61,148.39L231.5,147.75L232.95,148.72L235.84,149.75L237.29,148.77L238.74,148.43L240.18,149.6L243.08,151.17L244.53,148.75L245.97,147.61L247.42,151.23L248.87,152.25L250.31,150.98L251.76,152.47L253.21,152.88L258.99,153.07L260.44,153.08L261.89,152.78L263.33,153.46L264.78,153.59L266.23,154.66L267.68,154.62L269.12,155.73L272.02,154.86L273.46,156.14L274.91,156.95L276.36,156.14L279.25,156.61L280.7,157.62L282.14,156.78L283.59,156.85L285.04,156.22L286.48,157.75L287.93,155.87L289.38,158.85L292.27,158.77L293.72,157.6L295.17,157.37L296.61,159.33L299.51,160.46L300.95,160.45L308.19,161.21L309.64,162.24L311.08,162.09L312.53,161.06L313.98,160.83L315.42,163.02L318.32,161.64L319.76,157.88L322.66,162.46L324.1,163.61L328.44,163.45L329.89,162.96L337.13,165.27L338.57,165.34L342.91,166.14L344.36,165.64L347.25,165.56L348.7,165.97L351.6,166.79L353.04,166.15L355.94,167.14L357.38,167.53L360.28,167.46L361.72,168.05L364.62,168.45L366.06,166.59L367.51,168.57L368.96,168.73L374.75,169.46L376.19,167.88L377.64,166.89L379.09,169.77L383.43,169.92L384.87,168.41L386.32,170.3L387.77,170.77L389.21,170.16L390.66,171.16L392.11,170.33L393.56,171.14L396.45,169.94L397.9,171.31L405.13,172.36L406.58,171.86L409.47,172.79L410.92,172.88L413.81,172.6L415.26,173.02L418.15,173.25L419.6,173.66L434.07,175.03L435.52,174.97L439.86,175.44L441.3,175.57L444.2,175.79L445.64,176.01L451.43,175.71L452.88,174.87L455.77,175.43L457.22,176.51L461.56,176.38L463.01,176.52L481.82,177.89L483.26,178.12L487.6,176.99L489.05,177.92L494.84,178.58L496.28,178.7L507.86,179.3L509.31,178.99L515.09,179.83L516.54,179.77L531.01,180.25L532.46,180.52L546.93,180.95L548.37,181.09L668.46,183.35L669.91,183.25L691.62,183.4L693.06,183.45L722,183.5" style="vector-effect: none; fill: none; stroke: rgb(0, 0, 255); stroke-opacity: 1; stroke-width: 2px; opacity: 1;"/></g><g class="points"/><g class="text"/></g><g class="trace scatter trace2c3d6b" style="stroke-miterlimit: 2; opacity: 1;"><g class="fills"/><g class="errorbars"/><g class="lines"><path class="js-line" d="M0,16.34L1.45,16.9L2.89,19.32L4.34,30.51L5.79,33.13L10.13,39.1L11.58,40.28L14.47,42.13L15.92,42.79L23.15,43.81L24.6,44.5L26.04,43.65L27.49,44.55L37.62,41.82L39.07,40.73L40.51,41.59L41.96,39.93L43.41,39.05L44.85,42.46L46.3,38.2L47.75,38.88L50.64,36.58L52.09,34.38L53.54,35.76L54.98,34.46L60.77,29.46L62.22,32.5L63.66,30.34L65.11,29.57L68,27.92L69.45,25.31L70.9,27.02L72.34,27.46L73.79,27.65L75.24,25.81L76.69,23.65L78.13,24.03L81.03,22.8L82.47,22.23L86.81,20.84L88.26,21.52L92.6,19.43L94.05,21.01L96.94,18.55L98.39,19.16L99.84,18.65L101.28,16.62L102.73,19.58L104.18,19.57L105.62,17.15L107.07,16.63L108.52,18.73L109.96,17.1L111.41,16.78L112.86,17.71L114.3,17.26L115.75,15.72L118.65,17.53L120.09,16.67L121.54,16.49L122.99,17.27L125.88,15.71L127.33,17.37L128.77,14.24L130.22,14.63L133.11,15.9L134.56,18.26L136.01,13.54L137.45,15.2L140.35,15.55L141.8,15.52L143.24,16.96L144.69,14.44L146.14,14.69L147.58,13.18L150.48,15.52L151.92,13.81L154.82,15.71L156.26,14.78L157.71,15.39L159.16,13.31L162.05,13.69L163.5,12.85L164.95,14.69L166.39,14.03L167.84,13.41L169.29,13.84L170.73,12.72L172.18,12.77L173.63,15.34L175.07,13.64L176.52,13.91L177.97,11.06L179.41,13.33L180.86,11.01L183.76,13.33L185.2,12.41L186.65,14.56L188.1,12.17L190.99,14.02L192.44,13.71L193.88,11.85L195.33,12.69L196.78,11.42L198.22,12.8L199.67,10.67L201.12,13.41L202.57,14.45L204.01,13.15L208.35,11.78L209.8,12.14L211.25,11.85L212.69,13.47L214.14,11.46L215.59,13.94L217.03,13.21L218.48,11.45L224.27,11.9L225.72,14L227.16,11.91L228.61,12.39L230.06,11.65L231.5,12.09L235.84,11.2L237.29,11.84L240.18,11.28L241.63,12.05L243.08,11.73L244.53,12.84L247.42,12.15L248.87,9.9L250.31,12.34L251.76,10.6L254.65,12.39L256.1,11.32L258.99,12.1L260.44,12.23L263.33,10.86L264.78,11.71L266.23,10.69L267.68,10.65L269.12,11.56L270.57,10.45L272.02,10.09L273.46,11.62L274.91,11.84L276.36,10.54L277.8,12.28L279.25,11.04L280.7,11.75L282.14,11.56L285.04,12.32L286.48,10.6L289.38,11.51L290.83,10.95L292.27,10.08L293.72,12.09L295.17,12.51L296.61,12.03L298.06,10.38L299.51,11.45L302.4,12.36L303.85,11.72L305.29,11.18L306.74,11.47L309.64,12.02L311.08,10.74L313.98,11.83L315.42,11.28L316.87,11.82L318.32,9.66L319.76,11.63L321.21,10.7L322.66,10.09L324.1,11.59L325.55,10.91L327,11.48L328.44,10.17L329.89,11.87L331.34,10.37L332.79,11.47L335.68,10.59L337.13,11.16L338.57,10.39L340.02,10.7L342.91,11.49L344.36,10.98L345.81,10.1L347.25,11.98L348.7,10.14L350.15,11.44L351.6,10.92L353.04,11.42L358.83,11.65L360.28,12.02L361.72,10.42L363.17,12.04L364.62,10.95L366.06,10.91L370.4,11.73L371.85,10.67L374.75,11.69L376.19,9.92L377.64,12L379.09,10.73L380.53,11.88L381.98,10.95L383.43,10.84L384.87,11.8L389.21,11.19L390.66,11.28L397.9,11.19L399.34,11.4L400.79,11.53L402.24,10.76L403.68,11.87L405.13,10.31L406.58,11.94L408.02,10.24L409.47,11.64L410.92,10.31L412.36,11.27L413.81,11.2L416.71,11.33L418.15,11.23L419.6,11.43L421.05,10.86L423.94,11.25L425.39,10.72L431.17,11.15L432.62,10.87L434.07,11.47L435.52,10.95L441.3,10.94L442.75,11.17L447.09,10.85L448.54,10.93L452.88,10.86L454.32,11.68L455.77,10.68L457.22,11.04L458.67,11.58L460.11,10.86L461.56,11.47L463.01,11.01L464.45,11.53L465.9,11.03L473.13,11.28L474.58,10.98L476.03,11.36L477.47,10.77L481.82,11.4L483.26,11.08L489.05,10.49L490.5,11.46L491.94,10.52L493.39,10.92L497.73,11.04L499.18,11.45L502.07,10.79L503.52,11.23L504.97,10.91L506.41,11.44L507.86,10.93L509.31,11.47L512.2,11.34L513.65,11.43L522.33,11.25L523.78,11.24L529.56,11.22L531.01,11.25L535.35,11.21L536.8,11.4L548.37,11.08L549.82,11.12L551.27,11.57L552.71,11.23L574.42,11.14L575.86,11.31L581.65,10.91L583.1,11.15L588.89,11.16L590.33,11.19L625.06,11.18L626.51,11.17L681.49,11.23L682.93,11.2L722,11.17" style="vector-effect: none; fill: none; stroke: rgb(255, 0, 0); stroke-opacity: 1; stroke-width: 2px; opacity: 1;"/></g><g class="points"/><g class="text"/></g></g></g></g><g class="zerolinelayer-above"/><path class="xlines-above crisp" d="M0,0" style="fill: none;"/><path class="ylines-above crisp" d="M0,0" style="fill: none;"/><g class="overlines-above"/><g class="xaxislayer-above"/><g class="yaxislayer-above"><g class="ytick"><text text-anchor="end" x="79" y="3.15" transform="translate(0,291.87)" style="font-family: 'Open Sans', verdana, arial, sans-serif; font-size: 9px; fill: rgb(42, 63, 95); fill-opacity: 1; white-space: pre;">2</text></g><g class="ytick"><text text-anchor="end" x="79" y="3.15" style="font-family: 'Open Sans', verdana, arial, sans-serif; font-size: 9px; fill: rgb(42, 63, 95); fill-opacity: 1; white-space: pre;" transform="translate(0,264.19)">3</text></g><g class="ytick"><text text-anchor="end" x="79" y="3.15" style="font-family: 'Open Sans', verdana, arial, sans-serif; font-size: 9px; fill: rgb(42, 63, 95); fill-opacity: 1; white-space: pre;" transform="translate(0,244.56)">4</text></g><g class="ytick"><text text-anchor="end" x="79" y="3.15" style="font-family: 'Open Sans', verdana, arial, sans-serif; font-size: 9px; fill: rgb(42, 63, 95); fill-opacity: 1; white-space: pre;" transform="translate(0,229.33)">5</text></g><g class="ytick"><text text-anchor="end" x="79" y="3.15" style="font-family: 'Open Sans', verdana, arial, sans-serif; font-size: 9px; fill: rgb(42, 63, 95); fill-opacity: 1; white-space: pre;" transform="translate(0,216.88)">6</text></g><g class="ytick"><text text-anchor="end" x="79" y="3.15" style="font-family: 'Open Sans', verdana, arial, sans-serif; font-size: 9px; fill: rgb(42, 63, 95); fill-opacity: 1; white-space: pre;" transform="translate(0,206.36)">7</text></g><g class="ytick"><text text-anchor="end" x="79" y="3.15" style="font-family: 'Open Sans', verdana, arial, sans-serif; font-size: 9px; fill: rgb(42, 63, 95); fill-opacity: 1; white-space: pre;" transform="translate(0,197.25)">8</text></g><g class="ytick"><text text-anchor="end" x="79" y="3.15" style="font-family: 'Open Sans', verdana, arial, sans-serif; font-size: 9px; fill: rgb(42, 63, 95); fill-opacity: 1; white-space: pre;" transform="translate(0,189.20999999999998)">9</text></g><g class="ytick"><text text-anchor="end" x="76" y="2.1999999999999993" style="font-family: 'Open Sans', verdana, arial, sans-serif; font-size: 12px; fill: rgb(42, 63, 95); fill-opacity: 1; white-space: pre;" transform="translate(0,182.01999999999998)">0.1</text></g><g class="ytick"><text text-anchor="end" x="79" y="3.15" style="font-family: 'Open Sans', verdana, arial, sans-serif; font-size: 9px; fill: rgb(42, 63, 95); fill-opacity: 1; white-space: pre;" transform="translate(0,134.71)">2</text></g><g class="ytick"><text text-anchor="end" x="79" y="3.15" style="font-family: 'Open Sans', verdana, arial, sans-serif; font-size: 9px; fill: rgb(42, 63, 95); fill-opacity: 1; white-space: pre;" transform="translate(0,107.03)">3</text></g></g><g class="overaxes-above"/></g><g class="subplot x2y2"><g class="layer-subplot"><g class="shapelayer"/><g class="imagelayer"/></g><g class="minor-gridlayer"><g class="x2"/><g class="y2"/></g><g class="gridlayer"><g class="x2"><path class="x2grid crisp" transform="translate(150.9,0)" d="M0,326.8v193.20000000000002" style="stroke: rgb(255, 255, 255); stroke-opacity: 1; stroke-width: 1px;"/><path class="x2grid crisp" transform="translate(223.24,0)" d="M0,326.8v193.20000000000002" style="stroke: rgb(255, 255, 255); stroke-opacity: 1; stroke-width: 1px;"/><path class="x2grid crisp" transform="translate(295.59000000000003,0)" d="M0,326.8v193.20000000000002" style="stroke: rgb(255, 255, 255); stroke-opacity: 1; stroke-width: 1px;"/><path class="x2grid crisp" transform="translate(367.93,0)" d="M0,326.8v193.20000000000002" style="stroke: rgb(255, 255, 255); stroke-opacity: 1; stroke-width: 1px;"/><path class="x2grid crisp" transform="translate(440.28,0)" d="M0,326.8v193.20000000000002" style="stroke: rgb(255, 255, 255); stroke-opacity: 1; stroke-width: 1px;"/><path class="x2grid crisp" transform="translate(512.62,0)" d="M0,326.8v193.20000000000002" style="stroke: rgb(255, 255, 255); stroke-opacity: 1; stroke-width: 1px;"/><path class="x2grid crisp" transform="translate(584.97,0)" d="M0,326.8v193.20000000000002" style="stroke: rgb(255, 255, 255); stroke-opacity: 1; stroke-width: 1px;"/><path class="x2grid crisp" transform="translate(657.31,0)" d="M0,326.8v193.20000000000002" style="stroke: rgb(255, 255, 255); stroke-opacity: 1; stroke-width: 1px;"/><path class="x2grid crisp" transform="translate(729.66,0)" d="M0,326.8v193.20000000000002" style="stroke: rgb(255, 255, 255); stroke-opacity: 1; stroke-width: 1px;"/></g><g class="y2"><path class="y2grid crisp" transform="translate(0,492.53)" d="M80,0h722" style="stroke: rgb(255, 255, 255); stroke-opacity: 1; stroke-width: 1px;"/><path class="y2grid crisp" transform="translate(0,457.67)" d="M80,0h722" style="stroke: rgb(255, 255, 255); stroke-opacity: 1; stroke-width: 1px;"/><path class="y2grid crisp" transform="translate(0,422.81)" d="M80,0h722" style="stroke: rgb(255, 255, 255); stroke-opacity: 1; stroke-width: 1px;"/><path class="y2grid crisp" transform="translate(0,387.95)" d="M80,0h722" style="stroke: rgb(255, 255, 255); stroke-opacity: 1; stroke-width: 1px;"/><path class="y2grid crisp" transform="translate(0,353.09000000000003)" d="M80,0h722" style="stroke: rgb(255, 255, 255); stroke-opacity: 1; stroke-width: 1px;"/></g></g><g class="zerolinelayer"/><g class="layer-between"><g class="shapelayer"/><g class="imagelayer"/></g><path class="xlines-below"/><path class="ylines-below"/><g class="overlines-below"/><g class="xaxislayer-below"/><g class="yaxislayer-below"/><g class="overaxes-below"/><g class="overplot"><g class="x2y2" transform="translate(80,326.8)" clip-path="url(#clip6c99f5x2y2plot)"><g class="scatterlayer mlayer"><g class="trace scatter trace5a6cfc" style="stroke-miterlimit: 2; opacity: 1;"><g class="fills"/><g class="errorbars"/><g class="lines"><path class="js-line" d="M0,34.03L2.89,23.53L4.34,20.15L8.68,13.04L10.13,11.26L11.58,9.66L13.02,9.66L112.86,10.41L114.3,10.43L201.12,12.37L202.57,12.41L313.98,16.96L315.42,17.03L396.45,22.22L397.9,22.34L458.67,27.71L460.11,27.86L513.65,34.15L515.09,34.34L558.5,41.07L559.95,41.33L593.23,48.05L594.67,48.38L622.16,55.59L623.61,56.02L643.87,62.91L645.31,63.47L662.68,71.19L664.12,71.93L675.7,78.66L677.15,79.62L687.27,87.35L688.72,88.63L695.96,96.04L697.4,97.77L703.19,105.89L704.64,108.31L708.98,117.02L710.42,120.58L714.77,134.81L716.21,141.57L719.11,162.55L720.55,183.54L720.5527690600578,4057.2000000000003L722,4057.2000000000003" style="vector-effect: none; fill: none; stroke: rgb(0, 128, 0); stroke-opacity: 1; stroke-width: 2px; opacity: 1;"/></g><g class="points"/><g class="text"/></g></g></g></g><g class="zerolinelayer-above"/><path class="xlines-above crisp" d="M0,0" style="fill: none;"/><path class="ylines-above crisp" d="M0,0" style="fill: none;"/><g class="overlines-above"/><g class="xaxislayer-above"><g class="x2tick"><text text-anchor="middle" x="0" y="533" transform="translate(150.9,0)" style="font-family: 'Open Sans', verdana, arial, sans-serif; font-size: 12px; fill: rgb(42, 63, 95); fill-opacity: 1; white-space: pre;">50</text></g><g class="x2tick"><text text-anchor="middle" x="0" y="533" style="font-family: 'Open Sans', verdana, arial, sans-serif; font-size: 12px; fill: rgb(42, 63, 95); fill-opacity: 1; white-space: pre;" transform="translate(223.24,0)">100</text></g><g class="x2tick"><text text-anchor="middle" x="0" y="533" style="font-family: 'Open Sans', verdana, arial, sans-serif; font-size: 12px; fill: rgb(42, 63, 95); fill-opacity: 1; white-space: pre;" transform="translate(295.59000000000003,0)">150</text></g><g class="x2tick"><text text-anchor="middle" x="0" y="533" style="font-family: 'Open Sans', verdana, arial, sans-serif; font-size: 12px; fill: rgb(42, 63, 95); fill-opacity: 1; white-space: pre;" transform="translate(367.93,0)">200</text></g><g class="x2tick"><text text-anchor="middle" x="0" y="533" style="font-family: 'Open Sans', verdana, arial, sans-serif; font-size: 12px; fill: rgb(42, 63, 95); fill-opacity: 1; white-space: pre;" transform="translate(440.28,0)">250</text></g><g class="x2tick"><text text-anchor="middle" x="0" y="533" style="font-family: 'Open Sans', verdana, arial, sans-serif; font-size: 12px; fill: rgb(42, 63, 95); fill-opacity: 1; white-space: pre;" transform="translate(512.62,0)">300</text></g><g class="x2tick"><text text-anchor="middle" x="0" y="533" style="font-family: 'Open Sans', verdana, arial, sans-serif; font-size: 12px; fill: rgb(42, 63, 95); fill-opacity: 1; white-space: pre;" transform="translate(584.97,0)">350</text></g><g class="x2tick"><text text-anchor="middle" x="0" y="533" style="font-family: 'Open Sans', verdana, arial, sans-serif; font-size: 12px; fill: rgb(42, 63, 95); fill-opacity: 1; white-space: pre;" transform="translate(657.31,0)">400</text></g><g class="x2tick"><text text-anchor="middle" x="0" y="533" style="font-family: 'Open Sans', verdana, arial, sans-serif; font-size: 12px; fill: rgb(42, 63, 95); fill-opacity: 1; white-space: pre;" transform="translate(729.66,0)">450</text></g><g class="x2tick"><text text-anchor="middle" x="0" y="533" style="font-family: 'Open Sans', verdana, arial, sans-serif; font-size: 12px; fill: rgb(42, 63, 95); fill-opacity: 1; white-space: pre;" transform="translate(802,0)">500</text></g></g><g class="yaxislayer-above"><g class="y2tick"><text text-anchor="end" x="79" y="4.199999999999999" transform="translate(0,492.53)" style="font-family: 'Open Sans', verdana, arial, sans-serif; font-size: 12px; fill: rgb(42, 63, 95); fill-opacity: 1; white-space: pre;">10n</text></g><g class="y2tick"><text text-anchor="end" x="79" y="4.199999999999999" style="font-family: 'Open Sans', verdana, arial, sans-serif; font-size: 12px; fill: rgb(42, 63, 95); fill-opacity: 1; white-space: pre;" transform="translate(0,457.67)">100n</text></g><g class="y2tick"><text text-anchor="end" x="79" y="4.199999999999999" style="font-family: 'Open Sans', verdana, arial, sans-serif; font-size: 12px; fill: rgb(42, 63, 95); fill-opacity: 1; white-space: pre;" transform="translate(0,422.81)">1μ</text></g><g class="y2tick"><text text-anchor="end" x="79" y="4.199999999999999" style="font-family: 'Open Sans', verdana, arial, sans-serif; font-size: 12px; fill: rgb(42, 63, 95); fill-opacity: 1; white-space: pre;" transform="translate(0,387.95)">10μ</text></g><g class="y2tick"><text text-anchor="end" x="79" y="4.199999999999999" style="font-family: 'Open Sans', verdana, arial, sans-serif; font-size: 12px; fill: rgb(42, 63, 95); fill-opacity: 1; white-space: pre;" transform="translate(0,353.09000000000003)">100μ</text></g></g><g class="overaxes-above"/></g></g><g class="polarlayer"/><g class="smithlayer"/><g class="ternarylayer"/><g class="geolayer"/><g class="funnelarealayer"/><g class="pielayer"/><g class="iciclelayer"/><g class="treemaplayer"/><g class="sunburstlayer"/><g class="glimages"/><defs id="topdefs-6c99f5"><g class="clips"/><clipPath id="legend6c99f5"><rect width="72" height="67" x="0" y="0"/></clipPath></defs><g class="layer-above"><g class="imagelayer"/><g class="shapelayer"/></g><g class="infolayer"><g class="legend" pointer-events="all" transform="translate(816.44,100)"><rect class="bg" shape-rendering="crispEdges" style="stroke: rgb(68, 68, 68); stroke-opacity: 1; fill: rgb(255, 255, 255); fill-opacity: 1; stroke-width: 0px;" width="72" height="67" x="0" y="0"/><g class="scrollbox" transform="" clip-path="url(#legend6c99f5)"><g class="groups"><g class="traces" transform="translate(0,14.5)" style="opacity: 1;"><text class="legendtext" text-anchor="start" x="40" y="4.680000000000001" style="font-family: 'Open Sans', verdana, arial, sans-serif; font-size: 12px; fill: rgb(42, 63, 95); fill-opacity: 1; white-space: pre;">Train</text><g class="layers" style="opacity: 1;"><g class="legendfill"/><g class="legendlines"><path class="js-line" d="M5,0h30" style="fill: none; stroke: rgb(0, 0, 255); stroke-opacity: 1; stroke-width: 2px;"/></g><g class="legendsymbols"><g class="legendpoints"/></g></g><rect class="legendtoggle" x="0" y="-9.5" width="66.90625" height="19" style="fill: rgb(0, 0, 0); fill-opacity: 0;"/></g><g class="traces" transform="translate(0,33.5)" style="opacity: 1;"><text class="legendtext" text-anchor="start" x="40" y="4.680000000000001" style="font-family: 'Open Sans', verdana, arial, sans-serif; font-size: 12px; fill: rgb(42, 63, 95); fill-opacity: 1; white-space: pre;">Val</text><g class="layers" style="opacity: 1;"><g class="legendfill"/><g class="legendlines"><path class="js-line" d="M5,0h30" style="fill: none; stroke: rgb(255, 0, 0); stroke-opacity: 1; stroke-width: 2px;"/></g><g class="legendsymbols"><g class="legendpoints"/></g></g><rect class="legendtoggle" x="0" y="-9.5" width="66.90625" height="19" style="fill: rgb(0, 0, 0); fill-opacity: 0;"/></g><g class="traces" transform="translate(0,52.5)" style="opacity: 1;"><text class="legendtext" text-anchor="start" x="40" y="4.680000000000001" style="font-family: 'Open Sans', verdana, arial, sans-serif; font-size: 12px; fill: rgb(42, 63, 95); fill-opacity: 1; white-space: pre;">LR</text><g class="layers" style="opacity: 1;"><g class="legendfill"/><g class="legendlines"><path class="js-line" d="M5,0h30" style="fill: none; stroke: rgb(0, 128, 0); stroke-opacity: 1; stroke-width: 2px;"/></g><g class="legendsymbols"><g class="legendpoints"/></g></g><rect class="legendtoggle" x="0" y="-9.5" width="66.90625" height="19" style="fill: rgb(0, 0, 0); fill-opacity: 0;"/></g></g></g><rect class="scrollbar" rx="20" ry="3" width="0" height="0" style="fill: rgb(128, 139, 164); fill-opacity: 1;" x="0" y="0"/></g><g class="g-gtitle"><text class="gtitle" x="45" y="50" text-anchor="start" dy="0em" style="opacity: 1; font-family: 'Open Sans', verdana, arial, sans-serif; font-size: 17px; fill: rgb(42, 63, 95); fill-opacity: 1; white-space: pre;">WAM v2 Training History</text></g><g class="g-xtitle"/><g class="g-x2title"/><g class="g-ytitle"/><g class="g-y2title"/><g class="annotation" data-index="0" style="opacity: 1;"><g class="annotation-text-g" transform="rotate(0,441,89.5)"><g class="cursor-pointer" transform="translate(383,79)"><rect class="bg" x="0.5" y="0.5" width="115" height="20" style="stroke-width: 1px; stroke: rgb(0, 0, 0); stroke-opacity: 0; fill: rgb(0, 0, 0); fill-opacity: 0;"/><text class="annotation-text" text-anchor="middle" x="58.0234375" y="16" style="font-family: 'Open Sans', verdana, arial, sans-serif; font-size: 16px; fill: rgb(42, 63, 95); fill-opacity: 1; white-space: pre;">Loss (log scale)</text></g></g></g><g class="annotation" data-index="1" style="opacity: 1;"><g class="annotation-text-g" transform="rotate(0,441,316.3)"><g class="cursor-pointer" transform="translate(389,306)"><rect class="bg" x="0.5" y="0.5" width="104" height="20" style="stroke-width: 1px; stroke: rgb(0, 0, 0); stroke-opacity: 0; fill: rgb(0, 0, 0); fill-opacity: 0;"/><text class="annotation-text" text-anchor="middle" x="52.2578125" y="16" style="font-family: 'Open Sans', verdana, arial, sans-serif; font-size: 16px; fill: rgb(42, 63, 95); fill-opacity: 1; white-space: pre;">Learning Rate</text></g></g></g></g></svg>