<svg class="main-svg" xmlns="http://www.w3.org/2000/svg" xmlns:xlink="http://www.w3.org/1999/xlink" width="900" height="600" style="" viewBox="0 0 900 600"><rect x="0" y="0" width="900" height="600" style="fill: rgb(255, 255, 255); fill-opacity: 1;"/><defs id="defs-b103c9"><g class="clips"><clipPath id="clipb103c9xyplot" class="plotclip"><rect width="722" height="193.2"/></clipPath><clipPath id="clipb103c9x2y2plot" class="plotclip"><rect width="722" height="193.20000000000002"/></clipPath><clipPath class="axesclip" id="clipb103c9x"><rect x="80" y="0" width="722" height="600"/></clipPath><clipPath class="axesclip" id="clipb103c9y"><rect x="0" y="100" width="900" height="193.2"/></clipPath><clipPath class="axesclip" id="clipb103c9xy"><rect x="80" y="100" width="722" height="193.2"/></clipPath><clipPath class="axesclip" id="clipb103c9y2"><rect x="0" y="326.8" width="900" height="193.20000000000002"/></clipPath><clipPath class="axesclip" id="clipb103c9xy2"><rect x="80" y="326.8" width="722" height="193.20000000000002"/></clipPath><clipPath class="axesclip" id="clipb103c9x2"><rect x="80" y="0" width="722" height="600"/></clipPath><clipPath class="axesclip" id="clipb103c9x2y"><rect x="80" y="100" width="722" height="193.2"/></clipPath><clipPath class="axesclip" id="clipb103c9x2y2"><rect x="80" y="326.8" width="722" height="193.20000000000002"/></clipPath></g><g class="gradients"/><g class="patterns"/></defs><g class="bglayer"><rect class="bg" x="80" y="100" width="722" height="193.2" style="fill: rgb(229, 236, 246); fill-opacity: 1; stroke-width: 0;"/><rect class="bg" x="80" y="326.8" width="722" height="193.20000000000002" style="fill: rgb(229, 236, 246); fill-opacity: 1; stroke-width: 0;"/></g><g class="layer-below"><g class="imagelayer"/><g class="shapelayer"/></g><g class="cartesianlayer"><g class="subplot xy"><g class="layer-subplot"><g class="shapelayer"/><g class="imagelayer"/></g><g class="minor-gridlayer"><g class="x"/><g class="y"/></g><g class="gridlayer"><g class="x"><path class="xgrid crisp" transform="translate(148.93,0)" d="M0,100v193.2" style="stroke: rgb(255, 255, 255); stroke-opacity: 1; stroke-width: 1px;"/><path class="xgrid crisp" transform="translate(221.5,0)" d="M0,100v193.2" style="stroke: rgb(255, 255, 255); stroke-opacity: 1; stroke-width: 1px;"/><path class="xgrid crisp" transform="translate(294.06,0)" d="M0,100v193.2" style="stroke: rgb(255, 255, 255); stroke-opacity: 1; stroke-width: 1px;"/><path class="xgrid crisp" transform="translate(366.62,0)" d="M0,100v193.2" style="stroke: rgb(255, 255, 255); stroke-opacity: 1; stroke-width: 1px;"/><path class="xgrid crisp" transform="translate(439.19,0)" d="M0,100v193.2" style="stroke: rgb(255, 255, 255); stroke-opacity: 1; stroke-width: 1px;"/><path class="xgrid crisp" transform="translate(511.75,0)" d="M0,100v193.2" style="stroke: rgb(255, 255, 255); stroke-opacity: 1; stroke-width: 1px;"/><path class="xgrid crisp" transform="translate(584.31,0)" d="M0,100v193.2" style="stroke: rgb(255, 255, 255); stroke-opacity: 1; stroke-width: 1px;"/><path class="xgrid crisp" transform="translate(656.87,0)" d="M0,100v193.2" style="stroke: rgb(255, 255, 255); stroke-opacity: 1; stroke-width: 1px;"/><path class="xgrid crisp" transform="translate(729.44,0)" d="M0,100v193.2" style="stroke: rgb(255, 255, 255); stroke-opacity: 1; stroke-width: 1px;"/></g><g class="y"><path class="ygrid crisp" transform="translate(0,251.73)" d="M80,0h722" style="stroke: rgb(255, 255, 255); stroke-opacity: 1; stroke-width: 1px;"/><path class="ygrid crisp" transform="translate(0,213.93)" d="M80,0h722" style="stroke: rgb(255, 255, 255); stroke-opacity: 1; stroke-width: 1px;"/><path class="ygrid crisp" transform="translate(0,181.19)" d="M80,0h722" style="stroke: rgb(255, 255, 255); stroke-opacity: 1; stroke-width: 1px;"/><path class="ygrid crisp" transform="translate(0,152.31)" d="M80,0h722" style="stroke: rgb(255, 255, 255); stroke-opacity: 1; stroke-width: 1px;"/><path class="ygrid crisp" transform="translate(0,126.48)" d="M80,0h722" style="stroke: rgb(255, 255, 255); stroke-opacity: 1; stroke-width: 1px;"/><path class="ygrid crisp" transform="translate(0,103.11)" d="M80,0h722" style="stroke: rgb(255, 255, 255); stroke-opacity: 1; stroke-width: 1px;"/></g></g><g class="zerolinelayer"/><g class="layer-between"><g class="shapelayer"/><g class="imagelayer"/></g><path class="xlines-below"/><path class="ylines-below"/><g class="overlines-below"/><g class="xaxislayer-below"/><g class="yaxislayer-below"/><g class="overaxes-below"/><g class="overplot"><g class="xy" transform="translate(80,100)" clip-path="url(#clipb103c9xyplot)"><g class="scatterlayer mlayer"><g class="trace scatter trace451c68" style="stroke-miterlimit: 2; opacity: 1;"><g class="fills"/><g class="errorbars"/><g class="lines"><path class="js-line" d="M0,9.66L7.26,24.51L10.88,34.52L14.51,43.61L18.14,61.22L25.4,111.23L29.03,120.54L36.28,146.94L39.91,136.14L43.54,132.15L47.17,152.91L50.79,164.38L54.42,166.41L58.05,166.47L61.68,171.64L65.31,173.53L68.93,168.69L76.19,173.67L79.82,172.04L83.45,173.69L87.08,173.29L90.7,174.56L94.33,173.45L101.59,173.79L105.22,174.7L108.84,174.63L112.47,173.41L116.1,170.64L119.73,170.82L123.36,171.99L126.98,174.31L130.61,171.15L134.24,171.82L137.87,171.45L141.5,162.02L145.13,164.59L148.75,169.39L152.38,170.24L156.01,173.68L159.64,169.02L163.27,170.31L166.89,171.19L170.52,167.92L174.15,169.39L177.78,168.89L185.04,168.06L188.66,168.72L192.29,170.62L195.92,169.32L199.55,169.75L203.18,167.5L206.8,164.97L210.43,166.06L214.06,164.9L217.69,165.3L224.94,167.17L228.57,164.8L232.2,165.23L235.83,163.96L243.09,166.46L246.71,165.44L250.34,165.43L253.97,162.03L257.6,155.31L261.23,160.88L264.85,163.61L268.48,163.07L272.11,160.8L275.74,162.31L279.37,161.73L282.99,162.25L286.62,162.2L290.25,159.84L293.88,159.27L297.51,159.6L301.14,160.35L304.76,159.5L308.39,160.38L312.02,159.91L315.65,158.01L319.28,157.43L322.9,158.6L326.53,158.14L330.16,156.93L333.79,157.98L337.42,158L341.05,157.09L344.67,155.95L348.3,156.15L366.44,154.86L370.07,155.7L373.7,154.59L377.33,154.35L380.95,154.97L384.58,154.6L388.21,155.13L391.84,156.8L395.47,154.97L399.1,155.55L402.72,155.46L406.35,156.29L409.98,155.36L413.61,156.14L417.24,154.63L420.86,155.55L424.49,157.06L428.12,157.14L431.75,156.25L435.38,156.22L439.01,154.3L442.63,155.57L446.26,157.35L449.89,153.99L453.52,156.92L457.15,157.05L464.4,156.58L468.03,153.8L471.66,158.13L475.29,156.24L478.91,156.91L482.54,156.34L486.17,156.2L489.8,157.3L493.43,157.21L497.06,155.07L500.68,158.33L504.31,156.79L511.57,157.73L515.2,154.36L518.82,157.55L522.45,157.67L526.08,155.76L529.71,159.03L533.34,156.89L536.96,156.97L547.85,158.82L551.48,157.29L562.36,158.82L565.99,157.16L573.25,158.93L576.87,158.22L580.5,157.54L584.13,159.6L591.39,157.58L595.02,158.26L598.64,157.11L602.27,158.27L605.9,158.85L609.53,158.17L620.41,157.63L624.04,158.64L631.3,158.76L634.92,157.52L638.55,158.6L642.18,158.16L645.81,159.21L649.44,156.98L653.07,158.75L656.69,157.08L663.95,157.61L667.58,160.08L671.21,159.57L674.83,155.81L678.46,158.17L682.09,158.45L685.72,157.96L689.35,158.59L696.6,157.66L700.23,159.09L703.86,158.13L707.49,158.02L711.12,158.84L714.74,157.64L722,158.48" style="vector-effect: none; fill: none; stroke: rgb(0, 0, 255); stroke-opacity: 1; stroke-width: 2px; opacity: 1;"/></g><g class="points"/><g class="text"/></g><g class="trace scatter tracef03a29" style="stroke-miterlimit: 2; opacity: 1;"><g class="fills"/><g class="errorbars"/><g class="lines"><path class="js-line" d="M0,30.83L3.63,35.25L7.26,41.59L10.88,48.18L14.51,57.46L18.14,77.44L21.77,102.22L25.4,125.71L29.03,131.44L32.65,150.77L36.28,160.29L39.91,147.87L43.54,163.96L47.17,166.37L50.79,170.71L54.42,173.83L58.05,173.17L61.68,175.7L65.31,177.17L68.93,180.55L72.56,180.03L76.19,181.63L79.82,181.13L83.45,181.19L87.08,183.02L90.7,183.01L94.33,182.04L97.96,181.71L101.59,182.37L105.22,182.86L108.84,181.56L112.47,183.19L116.1,182.04L119.73,181.09L123.36,182.51L126.98,181.75L130.61,182.37L137.87,179.77L141.5,169.78L145.13,181.42L148.75,180.37L152.38,182.61L156.01,181.12L163.27,181.99L166.89,182.29L170.52,181.65L174.15,181.99L181.41,181.65L185.04,183.54L188.66,182.19L192.29,182.25L195.92,182.59L199.55,181.88L203.18,182.68L206.8,179.78L210.43,180.5L214.06,182.59L217.69,181.4L221.32,182.78L232.2,181.58L235.83,183.14L239.46,182.21L243.09,183.18L250.34,182.55L253.97,153.31L257.6,169.35L261.23,181.52L264.85,183.22L268.48,182.43L272.11,183.06L275.74,182.44L286.62,183.41L290.25,182.9L301.14,182.59L304.76,182.82L308.39,182.52L312.02,183.33L319.28,182.54L322.9,182.87L344.67,182.57L348.3,182.97L359.19,182.6L362.81,182.46L370.07,182.89L373.7,182.99L391.84,182.18L395.47,182.85L402.72,181.88L406.35,183L420.86,182.54L424.49,182.68L431.75,182.46L435.38,182.51L446.26,182.88L449.89,182.99L457.15,182.78L460.77,182.92L464.4,182.07L468.03,182.6L471.66,183.09L475.29,182.71L482.54,182.68L486.17,182.88L500.68,182.69L504.31,182.84L540.59,182.56L544.22,182.63L722,182.59" style="vector-effect: none; fill: none; stroke: rgb(255, 0, 0); stroke-opacity: 1; stroke-width: 2px; opacity: 1;"/></g><g class="points"/><g class="text"/></g></g></g></g><g class="zerolinelayer-above"/><path class="xlines-above crisp" d="M0,0" style="fill: none;"/><path class="ylines-above crisp" d="M0,0" style="fill: none;"/><g class="overlines-above"/><g class="xaxislayer-above"/><g class="yaxislayer-above"><g class="ytick"><text text-anchor="end" x="79" y="4.199999999999999" transform="translate(0,251.73)" style="font-family: 'Open Sans', verdana, arial, sans-serif; font-size: 12px; fill: rgb(42, 63, 95); fill-opacity: 1; white-space: pre;">0.3</text></g><g class="ytick"><text text-anchor="end" x="79" y="4.199999999999999" style="font-family: 'Open Sans', verdana, arial, sans-serif; font-size: 12px; fill: rgb(42, 63, 95); fill-opacity: 1; white-space: pre;" transform="translate(0,213.93)">0.35</text></g><g class="ytick"><text text-anchor="end" x="79" y="4.199999999999999" style="font-family: 'Open Sans', verdana, arial, sans-serif; font-size: 12px; fill: rgb(42, 63, 95); fill-opacity: 1; white-space: pre;" transform="translate(0,181.19)">0.4</text></g><g class="ytick"><text text-anchor="end" x="79" y="4.199999999999999" style="font-family: 'Open Sans', verdana, arial, sans-serif; font-size: 12px; fill: rgb(42, 63, 95); fill-opacity: 1; white-space: pre;" transform="translate(0,152.31)">0.45</text></g><g class="ytick"><text text-anchor="end" x="79" y="4.199999999999999" style="font-family: 'Open Sans', verdana, arial, sans-serif; font-size: 12px; fill: rgb(42, 63, 95); fill-opacity: 1; white-space: pre;" transform="translate(0,126.48)">0.5</text></g><g class="ytick"><text text-anchor="end" x="79" y="4.199999999999999" style="font-family: 'Open Sans', verdana, arial, sans-serif; font-size: 12px; fill: rgb(42, 63, 95); fill-opacity: 1; white-space: pre;" transform="translate(0,103.11)">0.55</text></g></g><g class="overaxes-above"/></g><g class="subplot x2y2"><g class="layer-subplot"><g class="shapelayer"/><g class="imagelayer"/></g><g class="minor-gridlayer"><g class="x2"/><g class="y2"/></g><g class="gridlayer"><g class="x2"><path class="x2grid crisp" transform="translate(148.93,0)" d="M0,326.8v193.20000000000002" style="stroke: rgb(255, 255, 255); stroke-opacity: 1; stroke-width: 1px;"/><path class="x2grid crisp" transform="translate(221.5,0)" d="M0,326.8v193.20000000000002" style="stroke: rgb(255, 255, 255); stroke-opacity: 1; stroke-width: 1px;"/><path class="x2grid crisp" transform="translate(294.06,0)" d="M0,326.8v193.20000000000002" style="stroke: rgb(255, 255, 255); stroke-opacity: 1; stroke-width: 1px;"/><path class="x2grid crisp" transform="translate(366.62,0)" d="M0,326.8v193.20000000000002" style="stroke: rgb(255, 255, 255); stroke-opacity: 1; stroke-width: 1px;"/><path class="x2grid crisp" transform="translate(439.19,0)" d="M0,326.8v193.20000000000002" style="stroke: rgb(255, 255, 255); stroke-opacity: 1; stroke-width: 1px;"/><path class="x2grid crisp" transform="translate(511.75,0)" d="M0,326.8v193.20000000000002" style="stroke: rgb(255, 255, 255); stroke-opacity: 1; stroke-width: 1px;"/><path class="x2grid crisp" transform="translate(584.31,0)" d="M0,326.8v193.20000000000002" style="stroke: rgb(255, 255, 255); stroke-opacity: 1; stroke-width: 1px;"/><path class="x2grid crisp" transform="translate(656.87,0)" d="M0,326.8v193.20000000000002" style="stroke: rgb(255, 255, 255); stroke-opacity: 1; stroke-width: 1px;"/><path class="x2grid crisp" transform="translate(729.44,0)" d="M0,326.8v193.20000000000002" style="stroke: rgb(255, 255, 255); stroke-opacity: 1; stroke-width: 1px;"/></g><g class="y2"><path class="y2grid crisp" transform="translate(0,481.61)" d="M80,0h722" style="stroke: rgb(255, 255, 255); stroke-opacity: 1; stroke-width: 1px;"/><path class="y2grid crisp" transform="translate(0,439.87)" d="M80,0h722" style="stroke: rgb(255, 255, 255); stroke-opacity: 1; stroke-width: 1px;"/><path class="y2grid crisp" transform="translate(0,398.12)" d="M80,0h722" style="stroke: rgb(255, 255, 255); stroke-opacity: 1; stroke-width: 1px;"/><path class="y2grid crisp" transform="translate(0,356.38)" d="M80,0h722" style="stroke: rgb(255, 255, 255); stroke-opacity: 1; stroke-width: 1px;"/></g></g><g class="zerolinelayer"/><g class="layer-between"><g class="shapelayer"/><g class="imagelayer"/></g><path class="xlines-below"/><path class="ylines-below"/><g class="overlines-below"/><g class="xaxislayer-below"/><g class="yaxislayer-below"/><g class="overaxes-below"/><g class="overplot"><g class="x2y2" transform="translate(80,326.8)" clip-path="url(#clipb103c9x2y2plot)"><g class="scatterlayer mlayer"><g class="trace scatter tracea00a18" style="stroke-miterlimit: 2; opacity: 1;"><g class="fills"/><g class="errorbars"/><g class="lines"><path class="js-line" d="M0,38.84L3.63,31.49L7.26,26.27L14.51,18.92L18.14,16.13L29.03,9.66L32.65,9.66L119.73,10.38L123.36,10.44L203.18,12.47L206.8,12.59L290.25,16.3L293.88,16.5L370.07,21.64L373.7,21.93L435.38,27.72L439.01,28.12L489.8,34.45L493.43,34.97L533.34,41.39L536.96,42.05L573.25,49.58L576.87,50.45L602.27,57.21L605.9,58.3L627.67,65.68L631.3,67.08L649.44,75.08L653.07,76.93L667.58,85.44L671.21,87.93L682.09,96.64L685.72,100.09L692.97,108.17L696.6,113L703.86,125.19L707.49,133.28L711.12,143.71L714.74,158.41L718.37,183.54L718.3769321986275,4057.2000000000003L722,4057.2000000000003" style="vector-effect: none; fill: none; stroke: rgb(0, 128, 0); stroke-opacity: 1; stroke-width: 2px; opacity: 1;"/></g><g class="points"/><g class="text"/></g></g></g></g><g class="zerolinelayer-above"/><path class="xlines-above crisp" d="M0,0" style="fill: none;"/><path class="ylines-above crisp" d="M0,0" style="fill: none;"/><g class="overlines-above"/><g class="xaxislayer-above"><g class="x2tick"><text text-anchor="middle" x="0" y="533" transform="translate(148.93,0)" style="font-family: 'Open Sans', verdana, arial, sans-serif; font-size: 12px; fill: rgb(42, 63, 95); fill-opacity: 1; white-space: pre;">20</text></g><g class="x2tick"><text text-anchor="middle" x="0" y="533" style="font-family: 'Open Sans', verdana, arial, sans-serif; font-size: 12px; fill: rgb(42, 63, 95); fill-opacity: 1; white-space: pre;" transform="translate(221.5,0)">40</text></g><g class="x2tick"><text text-anchor="middle" x="0" y="533" style="font-family: 'Open Sans', verdana, arial, sans-serif; font-size: 12px; fill: rgb(42, 63, 95); fill-opacity: 1; white-space: pre;" transform="translate(294.06,0)">60</text></g><g class="x2tick"><text text-anchor="middle" x="0" y="533" style="font-family: 'Open Sans', verdana, arial, sans-serif; font-size: 12px; fill: rgb(42, 63, 95); fill-opacity: 1; white-space: pre;" transform="translate(366.62,0)">80</text></g><g class="x2tick"><text text-anchor="middle" x="0" y="533" style="font-family: 'Open Sans', verdana, arial, sans-serif; font-size: 12px; fill: rgb(42, 63, 95); fill-opacity: 1; white-space: pre;" transform="translate(439.19,0)">100</text></g><g class="x2tick"><text text-anchor="middle" x="0" y="533" style="font-family: 'Open Sans', verdana, arial, sans-serif; font-size: 12px; fill: rgb(42, 63, 95); fill-opacity: 1; white-space: pre;" transform="translate(511.75,0)">120</text></g><g class="x2tick"><text text-anchor="middle" x="0" y="533" style="font-family: 'Open Sans', verdana, arial, sans-serif; font-size: 12px; fill: rgb(42, 63, 95); fill-opacity: 1; white-space: pre;" transform="translate(584.31,0)">140</text></g><g class="x2tick"><text text-anchor="middle" x="0" y="533" style="font-family: 'Open Sans', verdana, arial, sans-serif; font-size: 12px; fill: rgb(42, 63, 95); fill-opacity: 1; white-space: pre;" transform="translate(656.87,0)">160</text></g><g class="x2tick"><text text-anchor="middle" x="0" y="533" style="font-family: 'Open Sans', verdana, arial, sans-serif; font-size: 12px; fill: rgb(42, 63, 95); fill-opacity: 1; white-space: pre;" transform="translate(729.44,0)">180</text></g><g class="x2tick"><text text-anchor="middle" x="0" y="533" style="font-family: 'Open Sans', verdana, arial, sans-serif; font-size: 12px; fill: rgb(42, 63, 95); fill-opacity: 1; white-space: pre;" transform="translate(802,0)">200</text></g></g><g class="yaxislayer-above"><g class="y2tick"><text text-anchor="end" x="79" y="4.199999999999999" transform="translate(0,481.61)" style="font-family: 'Open Sans', verdana, arial, sans-serif; font-size: 12px; fill: rgb(42, 63, 95); fill-opacity: 1; white-space: pre;">100n</text></g><g class="y2tick"><text text-anchor="end" x="79" y="4.199999999999999" style="font-family: 'Open Sans', verdana, arial, sans-serif; font-size: 12px; fill: rgb(42, 63, 95); fill-opacity: 1; white-space: pre;" transform="translate(0,439.87)">1μ</text></g><g class="y2tick"><text text-anchor="end" x="79" y="4.199999999999999" style="font-family: 'Open Sans', verdana, arial, sans-serif; font-size: 12px; fill: rgb(42, 63, 95); fill-opacity: 1; white-space: pre;" transform="translate(0,398.12)">10μ</text></g><g class="y2tick"><text text-anchor="end" x="79" y="4.199999999999999" style="font-family: 'Open Sans', verdana, arial, sans-serif; font-size: 12px; fill: rgb(42, 63, 95); fill-opacity: 1; white-space: pre;" transform="translate(0,356.38)">100μ</text></g></g><g class="overaxes-above"/></g></g><g class="polarlayer"/><g class="smithlayer"/><g class="ternarylayer"/><g class="geolayer"/><g class="funnelarealayer"/><g class="pielayer"/><g class="iciclelayer"/><g class="treemaplayer"/><g class="sunburstlayer"/><g class="glimages"/><defs id="topdefs-b103c9"><g class="clips"/><clipPath id="legendb103c9"><rect width="72" height="67" x="0" y="0"/></clipPath></defs><g class="layer-above"><g class="imagelayer"/><g class="shapelayer"/></g><g class="infolayer"><g class="legend" pointer-events="all" transform="translate(816.44,100)"><rect class="bg" shape-rendering="crispEdges" style="stroke: rgb(68, 68, 68); stroke-opacity: 1; fill: rgb(255, 255, 255); fill-opacity: 1; stroke-width: 0px;" width="72" height="67" x="0" y="0"/><g class="scrollbox" transform="" clip-path="url(#legendb103c9)"><g class="groups"><g class="traces" transform="translate(0,14.5)" style="opacity: 1;"><text class="legendtext" text-anchor="start" x="40" y="4.680000000000001" style="font-family: 'Open Sans', verdana, arial, sans-serif; font-size: 12px; fill: rgb(42, 63, 95); fill-opacity: 1; white-space: pre;">Train</text><g class="layers" style="opacity: 1;"><g class="legendfill"/><g class="legendlines"><path class="js-line" d="M5,0h30" style="fill: none; stroke: rgb(0, 0, 255); stroke-opacity: 1; stroke-width: 2px;"/></g><g class="legendsymbols"><g class="legendpoints"/></g></g><rect class="legendtoggle" x="0" y="-9.5" width="66.90625" height="19" style="fill: rgb(0, 0, 0); fill-opacity: 0;"/></g><g class="traces" transform="translate(0,33.5)" style="opacity: 1;"><text class="legendtext" text-anchor="start" x="40" y="4.680000000000001" style="font-family: 'Open Sans', verdana, arial, sans-serif; font-size: 12px; fill: rgb(42, 63, 95); fill-opacity: 1; white-space: pre;">Val</text><g class="layers" style="opacity: 1;"><g class="legendfill"/><g class="legendlines"><path class="js-line" d="M5,0h30" style="fill: none; stroke: rgb(255, 0, 0); stroke-opacity: 1; stroke-width: 2px;"/></g><g class="legendsymbols"><g class="legendpoints"/></g></g><rect class="legendtoggle" x="0" y="-9.5" width="66.90625" height="19" style="fill: rgb(0, 0, 0); fill-opacity: 0;"/></g><g class="traces" transform="translate(0,52.5)" style="opacity: 1;"><text class="legendtext" text-anchor="start" x="40" y="4.680000000000001" style="font-family: 'Open Sans', verdana, arial, sans-serif; font-size: 12px; fill: rgb(42, 63, 95); fill-opacity: 1; white-space: pre;">LR</text><g class="layers" style="opacity: 1;"><g class="legendfill"/><g class="legendlines"><path class="js-line" d="M5,0h30" style="fill: none; stroke: rgb(0, 128, 0); stroke-opacity: 1; stroke-width: 2px;"/></g><g class="legendsymbols"><g class="legendpoints"/></g></g><rect class="legendtoggle" x="0" y="-9.5" width="66.90625" height="19" style="fill: rgb(0, 0, 0); fill-opacity: 0;"/></g></g></g><rect class="scrollbar" rx="20" ry="3" width="0" height="0" style="fill: rgb(128, 139, 164); fill-opacity: 1;" x="0" y="0"/></g><g class="g-gtitle"><text class="gtitle" x="45" y="50" text-anchor="start" dy="0em" style="opacity: 1; font-family: 'Open Sans', verdana, arial, sans-serif; font-size: 17px; fill: rgb(42, 63, 95); fill-opacity: 1; white-space: pre;">WAM v2 Training History</text></g><g class="g-xtitle"/><g class="g-x2title"/><g class="g-ytitle"/><g class="g-y2title"/><g class="annotation" data-index="0" style="opacity: 1;"><g class="annotation-text-g" transform="rotate(0,441,89.5)"><g class="cursor-pointer" transform="translate(383,79)"><rect class="bg" x="0.5" y="0.5" width="115" height="20" style="stroke-width: 1px; stroke: rgb(0, 0, 0); stroke-opacity: 0; fill: rgb(0, 0, 0); fill-opacity: 0;"/><text class="annotation-text" text-anchor="middle" x="58.0234375" y="16" style="font-family: 'Open Sans', verdana, arial, sans-serif; font-size: 16px; fill: rgb(42, 63, 95); fill-opacity: 1; white-space: pre;">Loss (log scale)</text></g></g></g><g class="annotation" data-index="1" style="opacity: 1;"><g class="annotation-text-g" transform="rotate(0,441,316.3)"><g class="cursor-pointer" transform="translate(389,306)"><rect class="bg" x="0.5" y="0.5" width="104" height="20" style="stroke-width: 1px; stroke: rgb(0, 0, 0); stroke-opacity: 0; fill: rgb(0, 0, 0); fill-opacity: 0;"/><text class="annotation-text" text-anchor="middle" x="52.2578125" y="16" style="font-family: 'Open Sans', verdana, arial, sans-serif; font-size: 16px; fill: rgb(42, 63, 95); fill-opacity: 1; white-space: pre;">Learning Rate</text></g></g></g></g></svg>