<svg class="main-svg" xmlns="http://www.w3.org/2000/svg" xmlns:xlink="http://www.w3.org/1999/xlink" width="1100" height="900" style="" viewBox="0 0 1100 900"><rect x="0" y="0" width="1100" height="900" style="fill: rgb(255, 255, 255); fill-opacity: 1;"/><defs id="defs-530bf2"><g class="clips"><clipPath id="clip530bf2xyplot" class="plotclip"><rect width="873" height="136.79999999999995"/></clipPath><clipPath id="clip530bf2x2y2plot" class="plotclip"><rect width="873" height="136.79999999999995"/></clipPath><clipPath id="clip530bf2x3y3plot" class="plotclip"><rect width="873" height="136.8"/></clipPath><clipPath id="clip530bf2x4y4plot" class="plotclip"><rect width="873" height="136.8"/></clipPath><clipPath class="axesclip" id="clip530bf2x"><rect x="80" y="0" width="873" height="900"/></clipPath><clipPath class="axesclip" id="clip530bf2y"><rect x="0" y="100" width="1100" height="136.79999999999995"/></clipPath><clipPath class="axesclip" id="clip530bf2xy"><rect x="80" y="100" width="873" height="136.79999999999995"/></clipPath><clipPath class="axesclip" id="clip530bf2y2"><rect x="0" y="294.4" width="1100" height="136.79999999999995"/></clipPath><clipPath class="axesclip" id="clip530bf2xy2"><rect x="80" y="294.4" width="873" height="136.79999999999995"/></clipPath><clipPath class="axesclip" id="clip530bf2y3"><rect x="0" y="488.8" width="1100" height="136.8"/></clipPath><clipPath class="axesclip" id="clip530bf2xy3"><rect x="80" y="488.8" width="873" height="136.8"/></clipPath><clipPath class="axesclip" id="clip530bf2y4"><rect x="0" y="683.2" width="1100" height="136.8"/></clipPath><clipPath class="axesclip" id="clip530bf2xy4"><rect x="80" y="683.2" width="873" height="136.8"/></clipPath><clipPath class="axesclip" id="clip530bf2x2"><rect x="80" y="0" width="873" height="900"/></clipPath><clipPath class="axesclip" id="clip530bf2x2y"><rect x="80" y="100" width="873" height="136.79999999999995"/></clipPath><clipPath class="axesclip" id="clip530bf2x2y2"><rect x="80" y="294.4" width="873" height="136.79999999999995"/></clipPath><clipPath class="axesclip" id="clip530bf2x2y3"><rect x="80" y="488.8" width="873" height="136.8"/></clipPath><clipPath class="axesclip" id="clip530bf2x2y4"><rect x="80" y="683.2" width="873" height="136.8"/></clipPath><clipPath class="axesclip" id="clip530bf2x3"><rect x="80" y="0" width="873" height="900"/></clipPath><clipPath class="axesclip" id="clip530bf2x3y"><rect x="80" y="100" width="873" height="136.79999999999995"/></clipPath><clipPath class="axesclip" id="clip530bf2x3y2"><rect x="80" y="294.4" width="873" height="136.79999999999995"/></clipPath><clipPath class="axesclip" id="clip530bf2x3y3"><rect x="80" y="488.8" width="873" height="136.8"/></clipPath><clipPath class="axesclip" id="clip530bf2x3y4"><rect x="80" y="683.2" width="873" height="136.8"/></clipPath><clipPath class="axesclip" id="clip530bf2x4"><rect x="80" y="0" width="873" height="900"/></clipPath><clipPath class="axesclip" id="clip530bf2x4y"><rect x="80" y="100" width="873" height="136.79999999999995"/></clipPath><clipPath class="axesclip" id="clip530bf2x4y2"><rect x="80" y="294.4" width="873" height="136.79999999999995"/></clipPath><clipPath class="axesclip" id="clip530bf2x4y3"><rect x="80" y="488.8" width="873" height="136.8"/></clipPath><clipPath class="axesclip" id="clip530bf2x4y4"><rect x="80" y="683.2" width="873" height="136.8"/></clipPath></g><g class="gradients"/><g class="patterns"/></defs><g class="bglayer"><rect class="bg" x="80" y="100" width="873" height="136.79999999999995" style="fill: rgb(229, 236, 246); fill-opacity: 1; stroke-width: 0;"/><rect class="bg" x="80" y="294.4" width="873" height="136.79999999999995" style="fill: rgb(229, 236, 246); fill-opacity: 1; stroke-width: 0;"/><rect class="bg" x="80" y="488.8" width="873" height="136.8" style="fill: rgb(229, 236, 246); fill-opacity: 1; stroke-width: 0;"/><rect class="bg" x="80" y="683.2" width="873" height="136.8" style="fill: rgb(229, 236, 246); fill-opacity: 1; stroke-width: 0;"/></g><g class="layer-below"><g class="imagelayer"/><g class="shapelayer"/></g><g class="cartesianlayer"><g class="subplot xy"><g class="layer-subplot"><g class="shapelayer"/><g class="imagelayer"/></g><g class="minor-gridlayer"><g class="x"/><g class="y"/></g><g class="gridlayer"><g class="x"><path class="xgrid crisp" transform="translate(167.51999999999998,0)" d="M0,100v136.79999999999995" style="stroke: rgb(255, 255, 255); stroke-opacity: 1; stroke-width: 1px;"/><path class="xgrid crisp" transform="translate(255.04,0)" d="M0,100v136.79999999999995" style="stroke: rgb(255, 255, 255); stroke-opacity: 1; stroke-width: 1px;"/><path class="xgrid crisp" transform="translate(342.56,0)" d="M0,100v136.79999999999995" style="stroke: rgb(255, 255, 255); stroke-opacity: 1; stroke-width: 1px;"/><path class="xgrid crisp" transform="translate(430.08,0)" d="M0,100v136.79999999999995" style="stroke: rgb(255, 255, 255); stroke-opacity: 1; stroke-width: 1px;"/><path class="xgrid crisp" transform="translate(517.5899999999999,0)" d="M0,100v136.79999999999995" style="stroke: rgb(255, 255, 255); stroke-opacity: 1; stroke-width: 1px;"/><path class="xgrid crisp" transform="translate(605.11,0)" d="M0,100v136.79999999999995" style="stroke: rgb(255, 255, 255); stroke-opacity: 1; stroke-width: 1px;"/><path class="xgrid crisp" transform="translate(692.63,0)" d="M0,100v136.79999999999995" style="stroke: rgb(255, 255, 255); stroke-opacity: 1; stroke-width: 1px;"/><path class="xgrid crisp" transform="translate(780.15,0)" d="M0,100v136.79999999999995" style="stroke: rgb(255, 255, 255); stroke-opacity: 1; stroke-width: 1px;"/><path class="xgrid crisp" transform="translate(867.67,0)" d="M0,100v136.79999999999995" style="stroke: rgb(255, 255, 255); stroke-opacity: 1; stroke-width: 1px;"/></g><g class="y"><path class="ygrid crisp" transform="translate(0,207.26)" d="M80,0h873" style="stroke: rgb(255, 255, 255); stroke-opacity: 1; stroke-width: 1px;"/><path class="ygrid crisp" transform="translate(0,174.3)" d="M80,0h873" style="stroke: rgb(255, 255, 255); stroke-opacity: 1; stroke-width: 1px;"/><path class="ygrid crisp" transform="translate(0,141.34)" d="M80,0h873" style="stroke: rgb(255, 255, 255); stroke-opacity: 1; stroke-width: 1px;"/><path class="ygrid crisp" transform="translate(0,108.39)" d="M80,0h873" style="stroke: rgb(255, 255, 255); stroke-opacity: 1; stroke-width: 1px;"/></g></g><g class="zerolinelayer"><path class="xzl zl crisp" transform="translate(80,0)" d="M0,100v136.79999999999995" style="stroke: rgb(255, 255, 255); stroke-opacity: 1; stroke-width: 2px;"/></g><g class="layer-between"><g class="shapelayer"/><g class="imagelayer"/></g><path class="xlines-below"/><path class="ylines-below"/><g class="overlines-below"/><g class="xaxislayer-below"/><g class="yaxislayer-below"/><g class="overaxes-below"/><g class="overplot"><g class="xy" transform="translate(80,100)" clip-path="url(#clip530bf2xyplot)"><g class="scatterlayer mlayer"><g class="trace scatter trace331a96" style="stroke-miterlimit: 2; opacity: 1;"><g class="fills"/><g class="errorbars"/><g class="lines"><path class="js-line" d="M0,91.15L17.5,102.22L19.69,103.48L45.95,116.58L48.14,117.39L59.08,121.43L61.26,122.1L72.2,125.32L74.39,125.86L91.89,128.93L94.08,129.23L107.21,129.96L109.4,129.95L120.34,128.95L122.53,128.58L135.65,126.04L137.84,125.37L159.72,118.99L161.91,118.32L188.17,108.94L190.35,107.95L205.67,101.03L207.86,99.84L242.86,83.23L245.05,82.33L271.31,71.22L273.5,70.43L293.19,63.17L295.38,62.16L339.14,43.88L341.32,43.09L361.02,35.22L363.2,34.42L382.89,26.67L385.08,26.01L409.15,17.99L411.34,17.34L428.84,12.72L431.03,12.42L463.85,7.84L466.04,7.68L492.29,6.85L494.48,6.87L525.11,7.89L527.3,8.07L562.31,11.04L564.5,11.3L584.19,12.64L586.38,12.75L612.63,14.79L614.82,15.06L632.32,17.92L634.51,18.39L649.83,22.24L652.02,22.87L671.71,30.1L673.89,31.07L689.21,38.72L691.4,39.84L708.9,50.21L711.09,51.71L730.78,65.04L732.97,66.64L763.6,87.72L765.79,89.11L781.11,98.63L783.29,99.79L794.23,105.89L796.42,106.92L809.55,112.5L811.74,113.3L822.68,116.29L824.86,116.84L837.99,118.98L840.18,119.29L848.93,120.08L851.12,120.11L868.62,119.63L870.81,119.42L873,119.21" style="vector-effect: none; fill: none; stroke: rgb(0, 0, 255); stroke-opacity: 1; stroke-width: 1.5px; opacity: 1;"/></g><g class="points"/><g class="text"/></g><g class="trace scatter tracea59c02" style="stroke-miterlimit: 2; opacity: 1;"><g class="fills"/><g class="errorbars"/><g class="lines"><path class="js-line" d="M0,91.13L28.44,109.69L30.63,110.88L45.95,118.27L48.14,119.19L61.26,123.92L63.45,124.56L74.39,127.01L76.58,127.35L91.89,128.94L94.08,129.03L107.21,128.75L109.4,128.55L122.53,126.51L124.71,126.04L142.22,121.32L144.41,120.63L166.29,112.76L168.47,111.92L196.92,102.01L199.11,101.36L216.61,97.07L218.8,96.63L304.13,80.54L306.32,80.15L393.83,64.58L396.02,64.1L437.59,54.46L439.78,53.93L479.17,44.74L481.35,44.3L514.17,38.73L516.36,38.43L544.8,35.36L546.99,35.21L592.94,33.15L595.13,33.16L608.26,34.12L610.44,34.41L632.32,38.38L634.51,38.84L656.39,44.35L658.58,45L739.53,69.77L741.72,70.37L827.05,92.88L829.24,93.32L864.25,99.29L866.44,99.65L873,100.72" style="vector-effect: none; fill: none; stroke: rgb(255, 0, 0); stroke-opacity: 1; stroke-dasharray: 9px, 9px; stroke-width: 1.5px; opacity: 1;"/></g><g class="points"/><g class="text"/></g></g></g></g><g class="zerolinelayer-above"/><path class="xlines-above crisp" d="M0,0" style="fill: none;"/><path class="ylines-above crisp" d="M0,0" style="fill: none;"/><g class="overlines-above"/><g class="xaxislayer-above"/><g class="yaxislayer-above"><g class="ytick"><text text-anchor="end" x="79" y="4.199999999999999" transform="translate(0,207.26)" style="font-family: 'Open Sans', verdana, arial, sans-serif; font-size: 12px; fill: rgb(42, 63, 95); fill-opacity: 1; white-space: pre;">15</text></g><g class="ytick"><text text-anchor="end" x="79" y="4.199999999999999" style="font-family: 'Open Sans', verdana, arial, sans-serif; font-size: 12px; fill: rgb(42, 63, 95); fill-opacity: 1; white-space: pre;" transform="translate(0,174.3)">20</text></g><g class="ytick"><text text-anchor="end" x="79" y="4.199999999999999" style="font-family: 'Open Sans', verdana, arial, sans-serif; font-size: 12px; fill: rgb(42, 63, 95); fill-opacity: 1; white-space: pre;" transform="translate(0,141.34)">25</text></g><g class="ytick"><text text-anchor="end" x="79" y="4.199999999999999" style="font-family: 'Open Sans', verdana, arial, sans-serif; font-size: 12px; fill: rgb(42, 63, 95); fill-opacity: 1; white-space: pre;" transform="translate(0,108.39)">30</text></g></g><g class="overaxes-above"/></g><g class="subplot x2y2"><g class="layer-subplot"><g class="shapelayer"/><g class="imagelayer"/></g><g class="minor-gridlayer"><g class="x2"/><g class="y2"/></g><g class="gridlayer"><g class="x2"><path class="x2grid crisp" transform="translate(167.51999999999998,0)" d="M0,294.4v136.79999999999995" style="stroke: rgb(255, 255, 255); stroke-opacity: 1; stroke-width: 1px;"/><path class="x2grid crisp" transform="translate(255.04,0)" d="M0,294.4v136.79999999999995" style="stroke: rgb(255, 255, 255); stroke-opacity: 1; stroke-width: 1px;"/><path class="x2grid crisp" transform="translate(342.56,0)" d="M0,294.4v136.79999999999995" style="stroke: rgb(255, 255, 255); stroke-opacity: 1; stroke-width: 1px;"/><path class="x2grid crisp" transform="translate(430.08,0)" d="M0,294.4v136.79999999999995" style="stroke: rgb(255, 255, 255); stroke-opacity: 1; stroke-width: 1px;"/><path class="x2grid crisp" transform="translate(517.5899999999999,0)" d="M0,294.4v136.79999999999995" style="stroke: rgb(255, 255, 255); stroke-opacity: 1; stroke-width: 1px;"/><path class="x2grid crisp" transform="translate(605.11,0)" d="M0,294.4v136.79999999999995" style="stroke: rgb(255, 255, 255); stroke-opacity: 1; stroke-width: 1px;"/><path class="x2grid crisp" transform="translate(692.63,0)" d="M0,294.4v136.79999999999995" style="stroke: rgb(255, 255, 255); stroke-opacity: 1; stroke-width: 1px;"/><path class="x2grid crisp" transform="translate(780.15,0)" d="M0,294.4v136.79999999999995" style="stroke: rgb(255, 255, 255); stroke-opacity: 1; stroke-width: 1px;"/><path class="x2grid crisp" transform="translate(867.67,0)" d="M0,294.4v136.79999999999995" style="stroke: rgb(255, 255, 255); stroke-opacity: 1; stroke-width: 1px;"/></g><g class="y2"><path class="y2grid crisp" transform="translate(0,372.99)" d="M80,0h873" style="stroke: rgb(255, 255, 255); stroke-opacity: 1; stroke-width: 1px;"/><path class="y2grid crisp" transform="translate(0,343.64)" d="M80,0h873" style="stroke: rgb(255, 255, 255); stroke-opacity: 1; stroke-width: 1px;"/><path class="y2grid crisp" transform="translate(0,314.28)" d="M80,0h873" style="stroke: rgb(255, 255, 255); stroke-opacity: 1; stroke-width: 1px;"/></g></g><g class="zerolinelayer"><path class="x2zl zl crisp" transform="translate(80,0)" d="M0,294.4v136.79999999999995" style="stroke: rgb(255, 255, 255); stroke-opacity: 1; stroke-width: 2px;"/><path class="y2zl zl crisp" transform="translate(0,402.34999999999997)" d="M80,0h873" style="stroke: rgb(255, 255, 255); stroke-opacity: 1; stroke-width: 2px;"/></g><g class="layer-between"><g class="shapelayer"/><g class="imagelayer"/></g><path class="xlines-below"/><path class="ylines-below"/><g class="overlines-below"/><g class="xaxislayer-below"/><g class="yaxislayer-below"/><g class="overaxes-below"/><g class="overplot"><g class="x2y2" transform="translate(80,294.4)" clip-path="url(#clip530bf2x2y2plot)"><g class="scatterlayer mlayer"><g class="trace scatter trace7c28b9" style="stroke-miterlimit: 2; opacity: 1;"><g class="fills"/><g class="errorbars"/><g class="lines"><path class="js-line" d="M0,115.94L2.19,114.83L4.38,115.87L6.56,113.89L8.75,114.07L13.13,113.46L15.32,114.02L17.5,114.8L19.69,113.72L21.88,113.14L24.07,111.36L26.26,111.58L28.44,110.32L32.82,111.37L35.01,110.8L41.57,106.95L43.76,107.37L45.95,104.78L48.14,105.18L54.7,102.92L56.89,103.55L59.08,102.37L61.26,103.57L63.45,101.78L65.64,103.84L67.83,102.19L70.02,104.84L72.2,105.19L74.39,104.68L78.77,102.99L80.95,103.8L83.14,104.42L85.33,102.99L89.71,103.19L91.89,102.38L94.08,102.44L96.27,101.52L98.46,101.38L100.65,100.21L102.83,99L105.02,100.29L107.21,98.53L109.4,100.07L115.96,99.49L118.15,100.18L120.34,99.38L122.53,99.55L126.9,99.92L129.09,98.95L131.28,100.57L133.47,99.71L137.84,101.85L140.03,102.22L142.22,102.34L144.41,104L148.78,105.04L150.97,105.27L153.16,106.55L155.35,106.62L157.53,107.72L159.72,107.16L161.91,108.27L164.1,108.27L172.85,108.89L175.04,109.74L177.23,109.52L179.41,110.11L185.98,111.39L188.17,111.57L192.54,112.42L194.73,112.32L201.29,114.36L203.48,114.7L212.23,115.31L214.42,115.84L218.8,115.1L220.98,115.28L229.74,116.33L231.92,115.71L236.3,115.9L238.49,116.2L242.86,116.04L245.05,116.21L249.43,115.8L251.62,116.81L258.18,115.68L260.37,116.07L266.93,115.2L269.12,115.41L271.31,114.6L273.5,115.51L275.68,114.49L277.87,114.7L284.44,114.33L286.62,114.22L293.19,113.49L295.38,114.13L299.75,111.68L301.94,111.46L304.13,111.96L306.32,111.45L315.07,112.39L317.26,113.62L323.82,113.62L326.01,113.54L330.38,113.4L332.57,112.52L334.76,112.5L336.95,111.58L339.14,112.27L341.32,111.72L343.51,110.86L345.7,111.23L347.89,110.84L350.08,111.25L352.26,111.03L354.45,112.28L356.64,111.35L358.83,112.12L365.39,113.59L367.58,113.38L371.95,114.28L374.14,113.97L376.33,114.23L378.52,113.7L387.27,112.02L389.46,112.31L393.83,112.03L396.02,112.6L400.4,112.47L402.59,113.44L409.15,114.19L411.34,113.88L413.53,114.07L415.71,112.77L420.09,112.6L422.28,111.84L424.47,112.16L426.65,111.44L433.22,110.53L435.41,110.34L441.97,109.96L444.16,109.95L446.35,109.11L448.53,109.56L450.72,107.61L452.91,107.75L457.29,106.89L459.47,107.27L463.85,106.88L466.04,106.2L474.79,106.82L476.98,104.96L483.54,98.89L485.73,98.48L492.29,95.71L494.48,95.55L496.67,94.62L498.86,94.61L501.05,95.44L503.23,94.29L505.42,94.57L507.61,93.99L509.8,93.4L511.98,92.03L516.36,90.36L518.55,90.34L533.86,96.36L536.05,95.74L540.43,94.42L542.62,93.61L546.99,90.94L549.18,87.94L553.56,83.96L555.74,81.8L557.93,79.55L560.12,79.36L564.5,75.52L566.68,75.43L571.06,79.81L573.25,81.86L577.62,84.52L579.81,85.78L590.75,88.25L592.94,87.74L603.88,87.84L606.07,88.89L610.44,94.16L612.63,97.2L619.2,105.8L621.38,107.12L625.76,107.9L627.95,106.34L634.51,105.23L636.7,105.27L641.08,106.6L643.26,107.3L649.83,107.48L652.02,108.05L654.2,107.37L656.39,107.87L658.58,109.34L660.77,109L662.95,108.81L665.14,109.92L669.52,108.42L671.71,108.69L678.27,108.3L680.46,109.24L689.21,112.14L691.4,111.72L695.77,111.54L697.96,110.25L708.9,108.32L711.09,106.66L713.28,107.23L715.47,106.41L717.65,105.68L719.84,106.41L728.59,105.2L730.78,105.92L732.97,106.7L735.16,106.18L739.53,106.32L741.72,105.72L748.29,105.37L750.47,104.48L757.04,103.91L759.23,104.62L761.41,104.94L763.6,106.99L770.17,111.66L772.35,112.33L781.11,112.67L783.29,113.61L789.86,112.83L792.05,112.1L798.61,112.61L800.8,113.43L805.17,112.99L807.36,114.54L811.74,116.4L813.92,116.49L816.11,115.45L818.3,115.28L820.49,116.09L822.68,115.69L829.24,116.2L831.43,114.98L844.56,118.95L846.74,118.41L848.93,119L851.12,118.64L855.5,119.98L857.68,120.36L868.62,119.72L870.81,119.44L873,119.49" style="vector-effect: none; fill: none; stroke: rgb(0, 0, 255); stroke-opacity: 1; stroke-width: 1.5px; opacity: 1;"/></g><g class="points"/><g class="text"/></g><g class="trace scatter tracee8519c" style="stroke-miterlimit: 2; opacity: 1;"><g class="fills"/><g class="errorbars"/><g class="lines"><path class="js-line" d="M0,112.17L10.94,92.53L13.13,88.78L21.88,71.21L24.07,66.57L37.2,36.31L39.38,30.97L48.14,8.94L50.32,6.84L315.07,7.52L317.26,7.62L350.08,8.56L352.26,8.47L385.08,6.84L387.27,6.84L463.85,7.48L466.04,7.79L474.79,9.76L476.98,10.49L487.92,15.38L490.11,16.58L501.05,23.57L503.23,25.17L514.17,34.42L516.36,36.5L529.49,50.29L531.68,52.75L566.68,91.86L568.87,94.02L584.19,107.91L586.38,109.79L599.5,121.12L601.69,122.6L610.44,127.48L612.63,128.28L619.2,129.65L621.38,129.87L630.14,129.5L632.32,129.12L641.08,126.48L643.26,125.53L652.02,120.46L654.2,118.86L662.95,110.92L665.14,108.54L673.89,97.66L676.08,94.66L693.59,68.86L695.77,65.6L713.28,40.88L715.47,38.03L728.59,22.33L730.78,19.92L743.91,6.84L746.1,6.84L873,6.84" style="vector-effect: none; fill: none; stroke: rgb(255, 0, 0); stroke-opacity: 1; stroke-dasharray: 9px, 9px; stroke-width: 1.5px; opacity: 1;"/></g><g class="points"/><g class="text"/></g></g></g></g><g class="zerolinelayer-above"/><path class="xlines-above crisp" d="M0,0" style="fill: none;"/><path class="ylines-above crisp" d="M0,0" style="fill: none;"/><g class="overlines-above"/><g class="xaxislayer-above"/><g class="yaxislayer-above"><g class="y2tick"><text text-anchor="end" x="79" y="4.199999999999999" transform="translate(0,402.34999999999997)" style="font-family: 'Open Sans', verdana, arial, sans-serif; font-size: 12px; fill: rgb(42, 63, 95); fill-opacity: 1; white-space: pre;">0</text></g><g class="y2tick"><text text-anchor="end" x="79" y="4.199999999999999" style="font-family: 'Open Sans', verdana, arial, sans-serif; font-size: 12px; fill: rgb(42, 63, 95); fill-opacity: 1; white-space: pre;" transform="translate(0,372.99)">1</text></g><g class="y2tick"><text text-anchor="end" x="79" y="4.199999999999999" style="font-family: 'Open Sans', verdana, arial, sans-serif; font-size: 12px; fill: rgb(42, 63, 95); fill-opacity: 1; white-space: pre;" transform="translate(0,343.64)">2</text></g><g class="y2tick"><text text-anchor="end" x="79" y="4.199999999999999" style="font-family: 'Open Sans', verdana, arial, sans-serif; font-size: 12px; fill: rgb(42, 63, 95); fill-opacity: 1; white-space: pre;" transform="translate(0,314.28)">3</text></g></g><g class="overaxes-above"/></g><g class="subplot x3y3"><g class="layer-subplot"><g class="shapelayer"/><g class="imagelayer"/></g><g class="minor-gridlayer"><g class="x3"/><g class="y3"/></g><g class="gridlayer"><g class="x3"><path class="x3grid crisp" transform="translate(167.51999999999998,0)" d="M0,488.8v136.8" style="stroke: rgb(255, 255, 255); stroke-opacity: 1; stroke-width: 1px;"/><path class="x3grid crisp" transform="translate(255.04,0)" d="M0,488.8v136.8" style="stroke: rgb(255, 255, 255); stroke-opacity: 1; stroke-width: 1px;"/><path class="x3grid crisp" transform="translate(342.56,0)" d="M0,488.8v136.8" style="stroke: rgb(255, 255, 255); stroke-opacity: 1; stroke-width: 1px;"/><path class="x3grid crisp" transform="translate(430.08,0)" d="M0,488.8v136.8" style="stroke: rgb(255, 255, 255); stroke-opacity: 1; stroke-width: 1px;"/><path class="x3grid crisp" transform="translate(517.5899999999999,0)" d="M0,488.8v136.8" style="stroke: rgb(255, 255, 255); stroke-opacity: 1; stroke-width: 1px;"/><path class="x3grid crisp" transform="translate(605.11,0)" d="M0,488.8v136.8" style="stroke: rgb(255, 255, 255); stroke-opacity: 1; stroke-width: 1px;"/><path class="x3grid crisp" transform="translate(692.63,0)" d="M0,488.8v136.8" style="stroke: rgb(255, 255, 255); stroke-opacity: 1; stroke-width: 1px;"/><path class="x3grid crisp" transform="translate(780.15,0)" d="M0,488.8v136.8" style="stroke: rgb(255, 255, 255); stroke-opacity: 1; stroke-width: 1px;"/><path class="x3grid crisp" transform="translate(867.67,0)" d="M0,488.8v136.8" style="stroke: rgb(255, 255, 255); stroke-opacity: 1; stroke-width: 1px;"/></g><g class="y3"><path class="y3grid crisp" transform="translate(0,599.95)" d="M80,0h873" style="stroke: rgb(255, 255, 255); stroke-opacity: 1; stroke-width: 1px;"/><path class="y3grid crisp" transform="translate(0,540.22)" d="M80,0h873" style="stroke: rgb(255, 255, 255); stroke-opacity: 1; stroke-width: 1px;"/><path class="y3grid crisp" transform="translate(0,510.36)" d="M80,0h873" style="stroke: rgb(255, 255, 255); stroke-opacity: 1; stroke-width: 1px;"/></g></g><g class="zerolinelayer"><path class="x3zl zl crisp" transform="translate(80,0)" d="M0,488.8v136.8" style="stroke: rgb(255, 255, 255); stroke-opacity: 1; stroke-width: 2px;"/><path class="y3zl zl crisp" transform="translate(0,570.09)" d="M80,0h873" style="stroke: rgb(255, 255, 255); stroke-opacity: 1; stroke-width: 2px;"/></g><g class="layer-between"><g class="shapelayer"/><g class="imagelayer"/></g><path class="xlines-below"/><path class="ylines-below"/><g class="overlines-below"/><g class="xaxislayer-below"/><g class="yaxislayer-below"/><g class="overaxes-below"/><g class="overplot"><g class="x3y3" transform="translate(80,488.8)" clip-path="url(#clip530bf2x3y3plot)"><g class="scatterlayer mlayer"><g class="trace scatter trace832978" style="stroke-miterlimit: 2; opacity: 1;"><g class="fills"/><g class="errorbars"/><g class="lines"><path class="js-line" d="M0,68.74L4.38,71.13L6.56,72.33L10.94,73.22L13.13,72.63L19.69,76.81L21.88,77.7L24.07,78.6L26.26,78.6L30.63,77.4L32.82,78.3L35.01,78.9L37.2,78.6L48.14,77.1L50.32,77.7L54.7,77.1L56.89,76.81L59.08,78L61.26,76.51L63.45,77.4L65.64,76.21L72.2,78.3L74.39,76.81L76.58,77.7L78.77,77.4L80.95,78.3L83.14,78.3L87.52,78.9L89.71,77.7L98.46,78.6L100.65,77.7L105.02,78.3L107.21,77.7L109.4,76.81L111.59,77.7L113.77,77.1L115.96,77.7L120.34,77.1L122.53,75.91L124.71,75.31L126.9,75.61L129.09,75.01L131.28,75.91L133.47,75.61L135.65,76.21L140.03,75.61L142.22,76.51L148.78,75.61L150.97,76.51L155.35,77.1L157.53,76.51L161.91,76.51L164.1,76.51L170.66,76.81L172.85,77.4L185.98,76.21L188.17,76.21L194.73,78L196.92,77.4L201.29,78.6L203.48,78.3L205.67,79.49L207.86,79.49L212.23,77.7L214.42,78L218.8,77.4L220.98,78.6L225.36,79.49L227.55,78.9L231.92,80.69L234.11,80.99L236.3,80.69L238.49,79.49L242.86,78.9L245.05,78.9L247.24,78.3L249.43,79.49L253.8,78L255.99,78.3L258.18,78.3L260.37,79.2L262.56,78.3L264.74,79.2L271.31,79.79L273.5,78.3L275.68,79.2L277.87,78.9L280.06,79.49L282.25,79.2L284.44,80.09L286.62,79.49L288.81,80.69L291,80.39L295.38,80.69L297.56,80.09L299.75,79.49L301.94,79.79L310.69,80.69L312.88,81.88L317.26,80.99L319.44,80.99L323.82,81.58L326.01,81.88L330.38,83.08L332.57,82.18L341.32,81.58L343.51,82.48L347.89,81.58L350.08,82.48L354.45,82.78L356.64,80.99L363.2,77.7L365.39,76.21L369.77,75.31L371.95,74.42L380.71,72.92L382.89,71.43L385.08,69.34L387.27,69.04L389.46,67.55L391.65,67.25L393.83,66.06L396.02,63.97L400.4,59.49L402.59,55.31L406.96,52.62L409.15,52.02L411.34,51.42L413.53,49.03L415.71,48.14L417.9,46.05L422.28,42.47L424.47,41.87L426.65,40.67L428.84,38.58L435.41,34.4L437.59,32.31L439.78,30.22L441.97,31.42L446.35,32.31L448.53,29.92L452.91,27.24L455.1,26.94L457.29,25.44L459.47,26.34L461.66,27.83L463.85,27.24L468.23,24.55L470.41,25.44L474.79,29.62L476.98,30.22L479.17,29.62L481.35,30.22L485.73,31.42L487.92,32.01L492.29,30.82L494.48,32.61L496.67,32.31L498.86,33.21L501.05,33.81L503.23,35.9L507.61,39.78L509.8,37.99L514.17,37.99L516.36,38.88L518.55,37.39L520.74,37.09L527.3,36.19L529.49,37.69L533.86,40.97L536.05,41.87L538.24,42.76L540.43,45.75L544.8,53.22L546.99,56.5L551.37,64.26L553.56,69.64L555.74,72.92L557.93,78L562.31,84.27L564.5,84.57L566.68,87.26L568.87,91.44L575.44,105.17L577.62,107.27L586.38,118.31L588.56,120.7L592.94,123.09L595.13,125.18L599.5,127.87L601.69,129.36L603.88,129.96L606.07,129.36L612.63,126.97L614.82,126.68L619.2,122.49L621.38,123.09L625.76,121.6L627.95,118.31L634.51,105.47L636.7,103.08L641.08,99.5L643.26,98.9L645.45,98.01L647.64,96.22L652.02,90.84L654.2,86.36L660.77,79.79L662.95,78.6L665.14,76.81L667.33,76.51L669.52,75.91L671.71,74.12L676.08,68.15L678.27,65.46L680.46,62.47L682.65,60.98L684.83,57.1L687.02,55.31L689.21,53.51L691.4,53.81L695.77,52.32L697.96,50.53L700.15,50.53L702.34,51.72L708.9,54.71L711.09,55.31L719.84,60.98L722.03,61.58L724.22,60.98L726.41,61.28L730.78,61.28L732.97,62.47L739.53,63.67L741.72,64.56L746.1,67.85L748.29,68.74L750.47,70.54L752.66,69.94L757.04,71.13L759.23,71.43L763.6,72.63L765.79,73.22L767.98,72.03L770.17,73.52L772.35,72.03L774.54,71.73L783.29,70.24L785.48,69.34L794.23,68.44L796.42,69.34L800.8,67.25L802.98,67.25L805.17,68.74L807.36,69.04L813.92,67.85L816.11,68.74L818.3,69.94L820.49,69.94L822.68,70.24L824.86,69.64L827.05,68.74L829.24,69.34L831.43,69.94L833.62,69.64L835.8,70.54L837.99,70.54L842.37,70.54L844.56,70.54L846.74,71.43L848.93,70.83L855.5,71.43L857.68,70.54L859.87,71.73L862.06,71.13L870.81,72.92L873,73.22" style="vector-effect: none; fill: none; stroke: rgb(0, 0, 255); stroke-opacity: 1; stroke-width: 1.5px; opacity: 1;"/></g><g class="points"/><g class="text"/></g><g class="trace scatter traceed4ca6" style="stroke-miterlimit: 2; opacity: 1;"><g class="fills"/><g class="errorbars"/><g class="lines"><path class="js-line" d="M0,62.76L8.75,39.96L10.94,33.53L19.69,8.68L21.88,6.84L873,6.84" style="vector-effect: none; fill: none; stroke: rgb(255, 0, 0); stroke-opacity: 1; stroke-dasharray: 9px, 9px; stroke-width: 1.5px; opacity: 1;"/></g><g class="points"/><g class="text"/></g></g></g></g><g class="zerolinelayer-above"/><path class="xlines-above crisp" d="M0,0" style="fill: none;"/><path class="ylines-above crisp" d="M0,0" style="fill: none;"/><g class="overlines-above"/><g class="xaxislayer-above"/><g class="yaxislayer-above"><g class="y3tick"><text text-anchor="end" x="79" y="4.199999999999999" transform="translate(0,599.95)" style="font-family: 'Open Sans', verdana, arial, sans-serif; font-size: 12px; fill: rgb(42, 63, 95); fill-opacity: 1; white-space: pre;">−1</text></g><g class="y3tick"><text text-anchor="end" x="79" y="4.199999999999999" style="font-family: 'Open Sans', verdana, arial, sans-serif; font-size: 12px; fill: rgb(42, 63, 95); fill-opacity: 1; white-space: pre;" transform="translate(0,570.09)">0</text></g><g class="y3tick"><text text-anchor="end" x="79" y="4.199999999999999" style="font-family: 'Open Sans', verdana, arial, sans-serif; font-size: 12px; fill: rgb(42, 63, 95); fill-opacity: 1; white-space: pre;" transform="translate(0,540.22)">1</text></g><g class="y3tick"><text text-anchor="end" x="79" y="4.199999999999999" style="font-family: 'Open Sans', verdana, arial, sans-serif; font-size: 12px; fill: rgb(42, 63, 95); fill-opacity: 1; white-space: pre;" transform="translate(0,510.36)">2</text></g></g><g class="overaxes-above"/></g><g class="subplot x4y4"><g class="layer-subplot"><g class="shapelayer"/><g class="imagelayer"/></g><g class="minor-gridlayer"><g class="x4"/><g class="y4"/></g><g class="gridlayer"><g class="x4"><path class="x4grid crisp" transform="translate(167.51999999999998,0)" d="M0,683.2v136.8" style="stroke: rgb(255, 255, 255); stroke-opacity: 1; stroke-width: 1px;"/><path class="x4grid crisp" transform="translate(255.04,0)" d="M0,683.2v136.8" style="stroke: rgb(255, 255, 255); stroke-opacity: 1; stroke-width: 1px;"/><path class="x4grid crisp" transform="translate(342.56,0)" d="M0,683.2v136.8" style="stroke: rgb(255, 255, 255); stroke-opacity: 1; stroke-width: 1px;"/><path class="x4grid crisp" transform="translate(430.08,0)" d="M0,683.2v136.8" style="stroke: rgb(255, 255, 255); stroke-opacity: 1; stroke-width: 1px;"/><path class="x4grid crisp" transform="translate(517.5899999999999,0)" d="M0,683.2v136.8" style="stroke: rgb(255, 255, 255); stroke-opacity: 1; stroke-width: 1px;"/><path class="x4grid crisp" transform="translate(605.11,0)" d="M0,683.2v136.8" style="stroke: rgb(255, 255, 255); stroke-opacity: 1; stroke-width: 1px;"/><path class="x4grid crisp" transform="translate(692.63,0)" d="M0,683.2v136.8" style="stroke: rgb(255, 255, 255); stroke-opacity: 1; stroke-width: 1px;"/><path class="x4grid crisp" transform="translate(780.15,0)" d="M0,683.2v136.8" style="stroke: rgb(255, 255, 255); stroke-opacity: 1; stroke-width: 1px;"/><path class="x4grid crisp" transform="translate(867.67,0)" d="M0,683.2v136.8" style="stroke: rgb(255, 255, 255); stroke-opacity: 1; stroke-width: 1px;"/></g><g class="y4"><path class="y4grid crisp" transform="translate(0,783.96)" d="M80,0h873" style="stroke: rgb(255, 255, 255); stroke-opacity: 1; stroke-width: 1px;"/><path class="y4grid crisp" transform="translate(0,750.82)" d="M80,0h873" style="stroke: rgb(255, 255, 255); stroke-opacity: 1; stroke-width: 1px;"/><path class="y4grid crisp" transform="translate(0,717.6800000000001)" d="M80,0h873" style="stroke: rgb(255, 255, 255); stroke-opacity: 1; stroke-width: 1px;"/><path class="y4grid crisp" transform="translate(0,684.5300000000001)" d="M80,0h873" style="stroke: rgb(255, 255, 255); stroke-opacity: 1; stroke-width: 1px;"/></g></g><g class="zerolinelayer"><path class="x4zl zl crisp" transform="translate(80,0)" d="M0,683.2v136.8" style="stroke: rgb(255, 255, 255); stroke-opacity: 1; stroke-width: 2px;"/><path class="y4zl zl crisp" transform="translate(0,817.11)" d="M80,0h873" style="stroke: rgb(255, 255, 255); stroke-opacity: 1; stroke-width: 2px;"/></g><g class="layer-between"><g class="shapelayer"/><g class="imagelayer"/></g><path class="xlines-below"/><path class="ylines-below"/><g class="overlines-below"/><g class="xaxislayer-below"/><g class="yaxislayer-below"/><g class="overaxes-below"/><g class="overplot"><g class="x4y4" transform="translate(80,683.2)" clip-path="url(#clip530bf2x4y4plot)"><g class="scatterlayer mlayer"><g class="trace scatter tracebac0f8" style="stroke-miterlimit: 2; opacity: 1;"><g class="fills"/><g class="errorbars"/><g class="lines"><path class="js-line" d="M0,129.96L6.56,117.49L8.75,112.98L15.32,100.16L17.5,94.67L19.69,90.38L21.88,87.89L30.63,82.3L32.82,79.9L39.38,74.56L41.57,73.08L43.76,70.62L45.95,69.32L48.14,66.88L50.32,66.06L59.08,66.91L61.26,66.84L63.45,67.4L65.64,66.85L67.83,67.43L70.02,66.04L72.2,65.6L74.39,66.33L80.95,66.29L83.14,66L85.33,66.57L87.52,66.29L94.08,67.13L96.27,67.35L98.46,67.3L100.65,68.11L102.83,68.55L105.02,67.86L107.21,68.83L109.4,68.41L118.15,68.08L120.34,68.52L129.09,69.3L131.28,68.23L133.47,68.69L135.65,67.95L161.91,64.12L164.1,64.09L196.92,61.88L199.11,61.3L207.86,60.97L210.05,61.03L218.8,61.14L220.98,60.55L231.92,58.48L234.11,58.05L249.43,55.57L251.62,54.7L255.99,54.48L258.18,54.09L260.37,53.1L262.56,52.94L266.93,51.86L269.12,51.13L286.62,48.24L288.81,47.52L304.13,42.76L306.32,42.12L317.26,36.86L319.44,36.23L334.76,29.91L336.95,29.33L343.51,26.57L345.7,25.64L352.26,22.58L354.45,21.21L358.83,20L361.02,19L365.39,17.35L367.58,16.48L371.95,14.66L374.14,13.82L380.71,11.67L382.89,11.3L387.27,10.6L389.46,10L400.4,8.28L402.59,8.18L413.53,6.84L415.71,7.08L422.28,7.29L424.47,7.15L428.84,7.84L431.03,8.48L446.35,11.85L448.53,12.14L474.79,21.8L476.98,23.32L487.92,30.9L490.11,32.2L498.86,37.57L501.05,38.54L511.98,45.5L514.17,47.12L529.49,55.88L531.68,56.61L540.43,61.02L542.62,61.49L549.18,63.16L551.37,63.17L562.31,60.86L564.5,61.27L568.87,60.04L571.06,58.99L577.62,55.71L579.81,54.92L582,54.52L584.19,53.3L588.56,51.42L590.75,51.12L603.88,47.26L606.07,47.48L614.82,48.91L617.01,50.17L619.2,51.01L621.38,50.71L625.76,51.29L627.95,52.5L634.51,57.65L636.7,58.63L643.26,60.61L645.45,61.13L649.83,63.24L652.02,64.55L656.39,67.55L658.58,68.49L665.14,71.27L667.33,71.6L671.71,72.83L673.89,74.35L687.02,80.25L689.21,81.09L695.77,81.82L697.96,82.9L706.71,82.48L708.9,82.27L711.09,82.69L713.28,81.77L717.65,80.79L719.84,79.72L728.59,77.74L730.78,76.43L735.16,73.92L737.35,72.59L746.1,67.87L748.29,67.23L757.04,64.9L759.23,63.7L761.41,62.8L763.6,60.75L770.17,55.87L772.35,54.96L789.86,48.51L792.05,48.05L800.8,44.78L802.98,44.3L807.36,42.6L809.55,41.62L813.92,40.72L816.11,40.71L822.68,40.25L824.86,40.32L835.8,40.55L837.99,40.22L844.56,39.92L846.74,40.21L864.25,43.98L866.44,44.66L873,46.94" style="vector-effect: none; fill: none; stroke: rgb(128, 0, 128); stroke-opacity: 1; stroke-width: 1.5px; opacity: 1;"/></g><g class="points"/><g class="text"/></g></g></g></g><g class="zerolinelayer-above"/><path class="xlines-above crisp" d="M0,0" style="fill: none;"/><path class="ylines-above crisp" d="M0,0" style="fill: none;"/><g class="overlines-above"/><g class="xaxislayer-above"><g class="x4tick"><text text-anchor="middle" x="0" y="833" transform="translate(80,0)" style="font-family: 'Open Sans', verdana, arial, sans-serif; font-size: 12px; fill: rgb(42, 63, 95); fill-opacity: 1; white-space: pre;">0</text></g><g class="x4tick"><text text-anchor="middle" x="0" y="833" style="font-family: 'Open Sans', verdana, arial, sans-serif; font-size: 12px; fill: rgb(42, 63, 95); fill-opacity: 1; white-space: pre;" transform="translate(167.51999999999998,0)">2</text></g><g class="x4tick"><text text-anchor="middle" x="0" y="833" style="font-family: 'Open Sans', verdana, arial, sans-serif; font-size: 12px; fill: rgb(42, 63, 95); fill-opacity: 1; white-space: pre;" transform="translate(255.04,0)">4</text></g><g class="x4tick"><text text-anchor="middle" x="0" y="833" style="font-family: 'Open Sans', verdana, arial, sans-serif; font-size: 12px; fill: rgb(42, 63, 95); fill-opacity: 1; white-space: pre;" transform="translate(342.56,0)">6</text></g><g class="x4tick"><text text-anchor="middle" x="0" y="833" style="font-family: 'Open Sans', verdana, arial, sans-serif; font-size: 12px; fill: rgb(42, 63, 95); fill-opacity: 1; white-space: pre;" transform="translate(430.08,0)">8</text></g><g class="x4tick"><text text-anchor="middle" x="0" y="833" style="font-family: 'Open Sans', verdana, arial, sans-serif; font-size: 12px; fill: rgb(42, 63, 95); fill-opacity: 1; white-space: pre;" transform="translate(517.5899999999999,0)">10</text></g><g class="x4tick"><text text-anchor="middle" x="0" y="833" style="font-family: 'Open Sans', verdana, arial, sans-serif; font-size: 12px; fill: rgb(42, 63, 95); fill-opacity: 1; white-space: pre;" transform="translate(605.11,0)">12</text></g><g class="x4tick"><text text-anchor="middle" x="0" y="833" style="font-family: 'Open Sans', verdana, arial, sans-serif; font-size: 12px; fill: rgb(42, 63, 95); fill-opacity: 1; white-space: pre;" transform="translate(692.63,0)">14</text></g><g class="x4tick"><text text-anchor="middle" x="0" y="833" style="font-family: 'Open Sans', verdana, arial, sans-serif; font-size: 12px; fill: rgb(42, 63, 95); fill-opacity: 1; white-space: pre;" transform="translate(780.15,0)">16</text></g><g class="x4tick"><text text-anchor="middle" x="0" y="833" style="font-family: 'Open Sans', verdana, arial, sans-serif; font-size: 12px; fill: rgb(42, 63, 95); fill-opacity: 1; white-space: pre;" transform="translate(867.67,0)">18</text></g></g><g class="yaxislayer-above"><g class="y4tick"><text text-anchor="end" x="79" y="4.199999999999999" transform="translate(0,817.11)" style="font-family: 'Open Sans', verdana, arial, sans-serif; font-size: 12px; fill: rgb(42, 63, 95); fill-opacity: 1; white-space: pre;">0</text></g><g class="y4tick"><text text-anchor="end" x="79" y="4.199999999999999" style="font-family: 'Open Sans', verdana, arial, sans-serif; font-size: 12px; fill: rgb(42, 63, 95); fill-opacity: 1; white-space: pre;" transform="translate(0,783.96)">2</text></g><g class="y4tick"><text text-anchor="end" x="79" y="4.199999999999999" style="font-family: 'Open Sans', verdana, arial, sans-serif; font-size: 12px; fill: rgb(42, 63, 95); fill-opacity: 1; white-space: pre;" transform="translate(0,750.82)">4</text></g><g class="y4tick"><text text-anchor="end" x="79" y="4.199999999999999" style="font-family: 'Open Sans', verdana, arial, sans-serif; font-size: 12px; fill: rgb(42, 63, 95); fill-opacity: 1; white-space: pre;" transform="translate(0,717.6800000000001)">6</text></g><g class="y4tick"><text text-anchor="end" x="79" y="4.199999999999999" style="font-family: 'Open Sans', verdana, arial, sans-serif; font-size: 12px; fill: rgb(42, 63, 95); fill-opacity: 1; white-space: pre;" transform="translate(0,684.5300000000001)">8</text></g></g><g class="overaxes-above"/></g></g><g class="polarlayer"/><g class="smithlayer"/><g class="ternarylayer"/><g class="geolayer"/><g class="funnelarealayer"/><g class="pielayer"/><g class="iciclelayer"/><g class="treemaplayer"/><g class="sunburstlayer"/><g class="glimages"/><defs id="topdefs-530bf2"><g class="clips"/><clipPath id="legend530bf2"><rect width="118" height="48" x="0" y="0"/></clipPath></defs><g class="layer-above"><g class="imagelayer"/><g class="shapelayer"/></g><g class="infolayer"><g class="legend" pointer-events="all" transform="translate(970.46,100)"><rect class="bg" shape-rendering="crispEdges" style="stroke: rgb(68, 68, 68); stroke-opacity: 1; fill: rgb(255, 255, 255); fill-opacity: 1; stroke-width: 0px;" width="118" height="48" x="0" y="0"/><g class="scrollbox" transform="" clip-path="url(#legend530bf2)"><g class="groups"><g class="traces" transform="translate(0,14.5)" style="opacity: 1;"><text class="legendtext" text-anchor="start" x="40" y="4.680000000000001" style="font-family: 'Open Sans', verdana, arial, sans-serif; font-size: 12px; fill: rgb(42, 63, 95); fill-opacity: 1; white-space: pre;">GT Vx_mps</text><g class="layers" style="opacity: 1;"><g class="legendfill"/><g class="legendlines"><path class="js-line" d="M5,0h30" style="fill: none; stroke: rgb(0, 0, 255); stroke-opacity: 1; stroke-width: 1.5px;"/></g><g class="legendsymbols"><g class="legendpoints"/></g></g><rect class="legendtoggle" x="0" y="-9.5" width="112.03125" height="19" style="fill: rgb(0, 0, 0); fill-opacity: 0;"/></g><g class="traces" transform="translate(0,33.5)" style="opacity: 1;"><text class="legendtext" text-anchor="start" x="40" y="4.680000000000001" style="font-family: 'Open Sans', verdana, arial, sans-serif; font-size: 12px; fill: rgb(42, 63, 95); fill-opacity: 1; white-space: pre;">Pred Vx_mps</text><g class="layers" style="opacity: 1;"><g class="legendfill"/><g class="legendlines"><path class="js-line" d="M5,0h30" style="fill: none; stroke: rgb(255, 0, 0); stroke-opacity: 1; stroke-dasharray: 9px, 9px; stroke-width: 1.5px;"/></g><g class="legendsymbols"><g class="legendpoints"/></g></g><rect class="legendtoggle" x="0" y="-9.5" width="112.03125" height="19" style="fill: rgb(0, 0, 0); fill-opacity: 0;"/></g></g></g><rect class="scrollbar" rx="20" ry="3" width="0" height="0" style="fill: rgb(128, 139, 164); fill-opacity: 1;" x="0" y="0"/></g><g class="g-gtitle"><text class="gtitle" x="55" y="50" text-anchor="start" dy="0em" style="opacity: 1; font-family: 'Open Sans', verdana, arial, sans-serif; font-size: 17px; fill: rgb(42, 63, 95); fill-opacity: 1; white-space: pre;">WAM v2 Dream: Velocity Prediction vs Ground Truth</text></g><g class="g-xtitle"/><g class="g-x2title"/><g class="g-x3title"/><g class="g-x4title"/><g class="g-ytitle"/><g class="g-y2title"/><g class="g-y3title"/><g class="g-y4title"/><g class="annotation" data-index="0" style="opacity: 1;"><g class="annotation-text-g" transform="rotate(0,516.5,89.5)"><g class="cursor-pointer" transform="translate(485,79)"><rect class="bg" x="0.5" y="0.5" width="63" height="20" style="stroke-width: 1px; stroke: rgb(0, 0, 0); stroke-opacity: 0; fill: rgb(0, 0, 0); fill-opacity: 0;"/><text class="annotation-text" text-anchor="middle" x="31.7734375" y="16" style="font-family: 'Open Sans', verdana, arial, sans-serif; font-size: 16px; fill: rgb(42, 63, 95); fill-opacity: 1; white-space: pre;">Vx (m/s)</text></g></g></g><g class="annotation" data-index="1" style="opacity: 1;"><g class="annotation-text-g" transform="rotate(0,516.5,283.9)"><g class="cursor-pointer" transform="translate(485,273)"><rect class="bg" x="0.5" y="0.5" width="62" height="20" style="stroke-width: 1px; stroke: rgb(0, 0, 0); stroke-opacity: 0; fill: rgb(0, 0, 0); fill-opacity: 0;"/><text class="annotation-text" text-anchor="middle" x="31.4765625" y="16" style="font-family: 'Open Sans', verdana, arial, sans-serif; font-size: 16px; fill: rgb(42, 63, 95); fill-opacity: 1; white-space: pre;">Vy (m/s)</text></g></g></g><g class="annotation" data-index="2" style="opacity: 1;"><g class="annotation-text-g" transform="rotate(0,516.5,478.3)"><g class="cursor-pointer" transform="translate(485,468)"><rect class="bg" x="0.5" y="0.5" width="63" height="20" style="stroke-width: 1px; stroke: rgb(0, 0, 0); stroke-opacity: 0; fill: rgb(0, 0, 0); fill-opacity: 0;"/><text class="annotation-text" text-anchor="middle" x="31.7734375" y="16" style="font-family: 'Open Sans', verdana, arial, sans-serif; font-size: 16px; fill: rgb(42, 63, 95); fill-opacity: 1; white-space: pre;">Vz (m/s)</text></g></g></g><g class="annotation" data-index="3" style="opacity: 1;"><g class="annotation-text-g" transform="rotate(0,516.5,672.7)"><g class="cursor-pointer" transform="translate(451,662)"><rect class="bg" x="0.5" y="0.5" width="130" height="20" style="stroke-width: 1px; stroke: rgb(0, 0, 0); stroke-opacity: 0; fill: rgb(0, 0, 0); fill-opacity: 0;"/><text class="annotation-text" text-anchor="middle" x="65.5703125" y="16" style="font-family: 'Open Sans', verdana, arial, sans-serif; font-size: 16px; fill: rgb(42, 63, 95); fill-opacity: 1; white-space: pre;">Speed Error (m/s)</text></g></g></g></g></svg>