<svg class="main-svg" xmlns="http://www.w3.org/2000/svg" xmlns:xlink="http://www.w3.org/1999/xlink" width="1000" height="800" style="" viewBox="0 0 1000 800"><rect x="0" y="0" width="1000" height="800" style="fill: rgb(255, 255, 255); fill-opacity: 1;"/><defs id="defs-b92526"><g class="clips"><clipPath id="clipb92526xyplot" class="plotclip"><rect width="764" height="620"/></clipPath><clipPath class="axesclip" id="clipb92526x"><rect x="80" y="0" width="764" height="800"/></clipPath><clipPath class="axesclip" id="clipb92526y"><rect x="0" y="100" width="1000" height="620"/></clipPath><clipPath class="axesclip" id="clipb92526xy"><rect x="80" y="100" width="764" height="620"/></clipPath></g><g class="gradients"/><g class="patterns"/></defs><g class="bglayer"><rect class="bg" x="80" y="100" width="764" height="620" style="fill: rgb(229, 236, 246); fill-opacity: 1; stroke-width: 0;"/></g><g class="layer-below"><g class="imagelayer"/><g class="shapelayer"/></g><g class="cartesianlayer"><g class="subplot xy"><g class="layer-subplot"><g class="shapelayer"/><g class="imagelayer"/></g><g class="minor-gridlayer"><g class="x"/><g class="y"/></g><g class="gridlayer"><g class="x"><path class="xgrid crisp" transform="translate(126.37,0)" d="M0,100v620" style="stroke: rgb(255, 255, 255); stroke-opacity: 1; stroke-width: 1px;"/><path class="xgrid crisp" transform="translate(229.03,0)" d="M0,100v620" style="stroke: rgb(255, 255, 255); stroke-opacity: 1; stroke-width: 1px;"/><path class="xgrid crisp" transform="translate(331.68,0)" d="M0,100v620" style="stroke: rgb(255, 255, 255); stroke-opacity: 1; stroke-width: 1px;"/><path class="xgrid crisp" transform="translate(434.34,0)" d="M0,100v620" style="stroke: rgb(255, 255, 255); stroke-opacity: 1; stroke-width: 1px;"/><path class="xgrid crisp" transform="translate(537,0)" d="M0,100v620" style="stroke: rgb(255, 255, 255); stroke-opacity: 1; stroke-width: 1px;"/><path class="xgrid crisp" transform="translate(639.65,0)" d="M0,100v620" style="stroke: rgb(255, 255, 255); stroke-opacity: 1; stroke-width: 1px;"/><path class="xgrid crisp" transform="translate(742.31,0)" d="M0,100v620" style="stroke: rgb(255, 255, 255); stroke-opacity: 1; stroke-width: 1px;"/></g><g class="y"><path class="ygrid crisp" transform="translate(0,653.64)" d="M80,0h764" style="stroke: rgb(255, 255, 255); stroke-opacity: 1; stroke-width: 1px;"/><path class="ygrid crisp" transform="translate(0,550.98)" d="M80,0h764" style="stroke: rgb(255, 255, 255); stroke-opacity: 1; stroke-width: 1px;"/><path class="ygrid crisp" transform="translate(0,448.33)" d="M80,0h764" style="stroke: rgb(255, 255, 255); stroke-opacity: 1; stroke-width: 1px;"/><path class="ygrid crisp" transform="translate(0,345.66999999999996)" d="M80,0h764" style="stroke: rgb(255, 255, 255); stroke-opacity: 1; stroke-width: 1px;"/><path class="ygrid crisp" transform="translate(0,243.01)" d="M80,0h764" style="stroke: rgb(255, 255, 255); stroke-opacity: 1; stroke-width: 1px;"/><path class="ygrid crisp" transform="translate(0,140.36)" d="M80,0h764" style="stroke: rgb(255, 255, 255); stroke-opacity: 1; stroke-width: 1px;"/></g></g><g class="zerolinelayer"/><g class="layer-between"><g class="shapelayer"/><g class="imagelayer"/></g><path class="xlines-below"/><path class="ylines-below"/><g class="overlines-below"/><g class="xaxislayer-below"/><g class="yaxislayer-below"/><g class="overaxes-below"/><g class="overplot"><g class="xy" transform="translate(80,100)" clip-path="url(#clipb92526xyplot)"><g class="scatterlayer mlayer"><g class="trace scatter tracebd2407" style="stroke-miterlimit: 2; opacity: 1;"><g class="fills"/><g class="errorbars"/><g class="lines"><path class="js-line" d="M604.39,562.89L608.51,570.43L609.43,571.8L614.56,577.83L615.69,578.87L621.76,583.08L623.05,583.72L629.75,585.8L631.11,586.01L637.79,586.17L639.09,586.03L645.34,584.5L646.52,584.04L652.05,581.03L653.07,580.3L657.67,576.08L658.49,575.13L662.67,568.8L663.24,567.66L665.93,560.29L666.25,558.99L667.48,550.86L667.57,549.45L667.22,539.25L667.04,537.75L664.83,527.08L664.38,525.54L660.4,514.71L659.71,513.17L653.32,500.96L652.42,499.45L642.58,484.54L641.52,483.05L623.4,459.17L622.2,457.66L599.49,429.98L598.16,428.43L578.57,406.81L577.1,405.28L558.53,387.04L556.91,385.53L533.07,364.6L531.28,363.11L499.51,337.58L497.57,336.06L464.01,309.06L462.05,307.36L444.88,291.33L443.04,289.45L428.88,273.72L427.19,271.66L415.93,256.78L414.4,254.59L401.4,234.28L400.02,231.98L385.66,206.09L384.42,203.71L356.47,150.63L355.16,148.49L345.57,134.15L344.13,132.2L333.69,119.25L332.14,117.5L319.31,104.42L317.65,102.89L304.04,91.59L302.29,90.29L288.07,80.81L286.27,79.73L271.78,71.93L269.96,71.07L255.36,65.06L253.53,64.43L238.99,60.26L237.18,59.84L217.62,56.29L215.88,56.01L188.72,51.51" style="vector-effect: none; fill: none; stroke: rgb(0, 0, 255); stroke-opacity: 1; stroke-width: 2px; opacity: 1;"/></g><g class="points"/><g class="text"/></g><g class="trace scatter tracef3c7a3" style="stroke-miterlimit: 2; opacity: 1;"><g class="fills"/><g class="errorbars"/><g class="lines"><path class="js-line" d="M604.39,562.89L608.52,570.43L609.45,571.79L614.61,577.81L615.74,578.84L621.88,582.99L623.19,583.6L629.97,585.55L631.33,585.73L638.06,585.76L639.37,585.58L645.66,583.89L646.85,583.39L652.39,580.2L653.41,579.43L658.01,575L658.83,574.01L662.95,567.43L663.5,566.24L666.04,558.63L666.33,557.29L667.27,548.96L667.29,547.52L666.68,538.72L666.45,537.22L663.86,526.58L663.35,525.05L658.84,514.34L658.07,512.82L650.89,500.9L649.89,499.44L638.98,485.17L637.82,483.76L608.21,449.45L606.93,447.98L555.66,390.14L554.2,388.6L529.78,363.88L528.18,362.32L476.89,311.83L475.27,310.05L462.84,295.19L461.37,293.25L451.68,279.14L450.39,277.05L442.07,261.98L440.99,259.77L433.18,241.72L432.31,239.42L426.09,220.73L425.4,218.36L419.31,194.43L418.75,192.03L406.13,140.86L405.45,138.65L399.44,121.54L398.61,119.48L391.37,103.67L390.39,101.79L381.96,87.49L380.84,85.81L372.58,74.69L371.34,73.2L360.98,62.24L359.62,61L349.85,53.12L348.41,52.12L338.15,46.01L336.66,45.26L326.15,40.94L324.64,40.44L312.64,37.29L311.15,36.97L282.76,31" style="vector-effect: none; fill: none; stroke: rgb(255, 0, 0); stroke-opacity: 1; stroke-width: 2px; opacity: 1;"/></g><g class="points"/><g class="text"/></g><g class="trace scatter trace80269b" style="stroke-miterlimit: 2; opacity: 1;"><g class="fills"/><g class="errorbars"/><g class="lines"><path class="js-line" d="M604.39,562.89L608.5,570.43L609.42,571.8L614.52,577.85L615.63,578.9L621.63,583.2L622.9,583.86L629.51,586.15L630.86,586.4L637.51,586.8L638.81,586.71L645.05,585.5L646.24,585.11L652.87,581.84L653.87,581.16L659.28,576.32L660.08,575.41L664.22,569.35L664.81,568.25L668.17,559.96L668.54,558.69L670.41,549.32L670.57,547.92L670.94,537.69L670.89,536.18L669.54,523.77L669.26,522.18L665.76,507.65L665.28,506.01L658.92,487.61L658.26,485.91L648.03,461.41L647.23,459.61L634.13,432.11L633.17,430.25L621.75,409.65L620.62,407.78L608.45,389.05L607.14,387.19L593.05,368.69L591.54,366.86L575.5,348.67L573.8,346.86L554,327.12L552.1,325.33L528.24,303.92L526.16,302.13L430.15,221.72L427.8,219.82L406.19,203.23L403.72,201.46L381.05,186.18L378.49,184.55L355.28,170.76L352.68,169.33L331.67,158.8L329.03,157.61L310.44,150.13L307.78,149.18L289.18,143.36L286.52,142.64L268,138.34L265.37,137.83L247.01,135.07L244.4,134.79L226.31,133.68L223.75,133.65L206.11,134.26L203.63,134.48L186.62,136.8L184.25,137.25L168.08,141.17L165.84,141.84L150.67,147.21L148.58,148.07L132.52,155.61L130.58,156.61L98.76,174.1L96.92,175.13L89.58,179.16" style="vector-effect: none; fill: none; stroke: rgb(0, 128, 0); stroke-opacity: 1; stroke-width: 2px; opacity: 1;"/></g><g class="points"/><g class="text"/></g><g class="trace scatter trace682dd0" style="stroke-miterlimit: 2; opacity: 1;"><g class="fills"/><g class="errorbars"/><g class="lines"><path class="js-line" d="M604.39,562.89L608.55,570.43L609.48,571.79L614.61,577.86L615.73,578.91L621.63,583.27L622.87,583.96L629.22,586.48L630.49,586.82L637.89,587.87L639.07,587.89L645.71,587.2L646.73,586.96L653.11,584.5L653.9,584.05L658.55,580.49L659.09,579.94L662.3,575.37L662.57,574.8L663.77,570.44L663.81,569.94L663.18,565.95L663.01,565.58L661.1,563.31L660.8,563.11L658.07,562.4L657.7,562.42L655.08,563.29L654.72,563.52L652.07,566.23L651.79,566.62L649.47,571.45L649.35,571.92L648.89,576.28L648.93,576.76L649.96,581.02L650.16,581.47L652.63,585.08L652.98,585.42L656.6,587.87L657.05,588.07L661.33,588.99L661.82,589L666.13,588.25L666.59,588.08L670.3,585.76L670.66,585.43L673.21,581.88L673.41,581.43L674.4,577.17L674.42,576.68L673.64,572.38L673.46,571.92L671.01,568.3L670.66,567.96L667.41,565.83L666.96,565.64L662.66,564.83L662.17,564.84L657.9,565.81L657.46,566.01L653.91,568.57L653.58,568.93L651.3,572.66L651.13,573.12L650.5,577.45L650.53,577.93L651.47,581.71L651.67,582.15L653.93,585.32L654.28,585.66L658,587.97L658.46,588.13L662.3,588.75L662.79,588.74L667.04,587.73L667.49,587.53L671,584.92L671.32,584.55L673.52,580.77L673.68,580.31L674.21,575.97L674.17,575.48L672.94,571.29L672.71,570.85L669.91,567.49L669.53,567.19L667.89,566.12" style="vector-effect: none; fill: none; stroke: rgb(255, 165, 0); stroke-opacity: 1; stroke-width: 2px; opacity: 1;"/></g><g class="points"/><g class="text"/></g><g class="trace scatter trace07f165" style="stroke-miterlimit: 2; opacity: 1;"><g class="fills"/><g class="errorbars"/><g class="lines"/><g class="points"><path class="point" transform="translate(603.67,561.25)" d="M7.8,0L0,7.8L-7.8,0L0,-7.8Z" style="opacity: 1; stroke-width: 0px; fill: rgb(0, 0, 0); fill-opacity: 1;"/></g><g class="text"><g class="textpoint" transform="translate(0,-11.5)"><text x="603.67" y="561.25" text-anchor="middle" style="font-family: 'Open Sans', verdana, arial, sans-serif; font-size: 12px; fill: rgb(42, 63, 95); fill-opacity: 1; white-space: pre;">START</text></g></g></g></g></g></g><g class="zerolinelayer-above"/><path class="xlines-above crisp" d="M0,0" style="fill: none;"/><path class="ylines-above crisp" d="M0,0" style="fill: none;"/><g class="overlines-above"/><g class="xaxislayer-above"><g class="xtick"><text text-anchor="middle" x="0" y="733" transform="translate(126.37,0)" style="font-family: 'Open Sans', verdana, arial, sans-serif; font-size: 12px; fill: rgb(42, 63, 95); fill-opacity: 1; white-space: pre;">−900</text></g><g class="xtick"><text text-anchor="middle" x="0" y="733" style="font-family: 'Open Sans', verdana, arial, sans-serif; font-size: 12px; fill: rgb(42, 63, 95); fill-opacity: 1; white-space: pre;" transform="translate(229.03,0)">−850</text></g><g class="xtick"><text text-anchor="middle" x="0" y="733" style="font-family: 'Open Sans', verdana, arial, sans-serif; font-size: 12px; fill: rgb(42, 63, 95); fill-opacity: 1; white-space: pre;" transform="translate(331.68,0)">−800</text></g><g class="xtick"><text text-anchor="middle" x="0" y="733" style="font-family: 'Open Sans', verdana, arial, sans-serif; font-size: 12px; fill: rgb(42, 63, 95); fill-opacity: 1; white-space: pre;" transform="translate(434.34,0)">−750</text></g><g class="xtick"><text text-anchor="middle" x="0" y="733" style="font-family: 'Open Sans', verdana, arial, sans-serif; font-size: 12px; fill: rgb(42, 63, 95); fill-opacity: 1; white-space: pre;" transform="translate(537,0)">−700</text></g><g class="xtick"><text text-anchor="middle" x="0" y="733" style="font-family: 'Open Sans', verdana, arial, sans-serif; font-size: 12px; fill: rgb(42, 63, 95); fill-opacity: 1; white-space: pre;" transform="translate(639.65,0)">−650</text></g><g class="xtick"><text text-anchor="middle" x="0" y="733" style="font-family: 'Open Sans', verdana, arial, sans-serif; font-size: 12px; fill: rgb(42, 63, 95); fill-opacity: 1; white-space: pre;" transform="translate(742.31,0)">−600</text></g></g><g class="yaxislayer-above"><g class="ytick"><text text-anchor="end" x="79" y="4.199999999999999" transform="translate(0,653.64)" style="font-family: 'Open Sans', verdana, arial, sans-serif; font-size: 12px; fill: rgb(42, 63, 95); fill-opacity: 1; white-space: pre;">−600</text></g><g class="ytick"><text text-anchor="end" x="79" y="4.199999999999999" style="font-family: 'Open Sans', verdana, arial, sans-serif; font-size: 12px; fill: rgb(42, 63, 95); fill-opacity: 1; white-space: pre;" transform="translate(0,550.98)">−550</text></g><g class="ytick"><text text-anchor="end" x="79" y="4.199999999999999" style="font-family: 'Open Sans', verdana, arial, sans-serif; font-size: 12px; fill: rgb(42, 63, 95); fill-opacity: 1; white-space: pre;" transform="translate(0,448.33)">−500</text></g><g class="ytick"><text text-anchor="end" x="79" y="4.199999999999999" style="font-family: 'Open Sans', verdana, arial, sans-serif; font-size: 12px; fill: rgb(42, 63, 95); fill-opacity: 1; white-space: pre;" transform="translate(0,345.66999999999996)">−450</text></g><g class="ytick"><text text-anchor="end" x="79" y="4.199999999999999" style="font-family: 'Open Sans', verdana, arial, sans-serif; font-size: 12px; fill: rgb(42, 63, 95); fill-opacity: 1; white-space: pre;" transform="translate(0,243.01)">−400</text></g><g class="ytick"><text text-anchor="end" x="79" y="4.199999999999999" style="font-family: 'Open Sans', verdana, arial, sans-serif; font-size: 12px; fill: rgb(42, 63, 95); fill-opacity: 1; white-space: pre;" transform="translate(0,140.36)">−350</text></g></g><g class="overaxes-above"/></g></g><g class="polarlayer"/><g class="smithlayer"/><g class="ternarylayer"/><g class="geolayer"/><g class="funnelarealayer"/><g class="pielayer"/><g class="iciclelayer"/><g class="treemaplayer"/><g class="sunburstlayer"/><g class="glimages"/><defs id="topdefs-b92526"><g class="clips"/><clipPath id="legendb92526"><rect width="129" height="105" x="0" y="0"/></clipPath></defs><g class="layer-above"><g class="imagelayer"/><g class="shapelayer"/></g><g class="infolayer"><g class="legend" pointer-events="all" transform="translate(859.28,100)"><rect class="bg" shape-rendering="crispEdges" style="stroke: rgb(68, 68, 68); stroke-opacity: 1; fill: rgb(255, 255, 255); fill-opacity: 1; stroke-width: 0px;" width="129" height="105" x="0" y="0"/><g class="scrollbox" transform="" clip-path="url(#legendb92526)"><g class="groups"><g class="traces" transform="translate(0,14.5)" style="opacity: 1;"><text class="legendtext" text-anchor="start" x="40" y="4.680000000000001" style="font-family: 'Open Sans', verdana, arial, sans-serif; font-size: 12px; fill: rgb(42, 63, 95); fill-opacity: 1; white-space: pre;">Original Actions</text><g class="layers" style="opacity: 1;"><g class="legendfill"/><g class="legendlines"><path class="js-line" d="M5,0h30" style="fill: none; stroke: rgb(0, 0, 255); stroke-opacity: 1; stroke-width: 2px;"/></g><g class="legendsymbols"><g class="legendpoints"/></g></g><rect class="legendtoggle" x="0" y="-9.5" width="123.375" height="19" style="fill: rgb(0, 0, 0); fill-opacity: 0;"/></g><g class="traces" transform="translate(0,33.5)" style="opacity: 1;"><text class="legendtext" text-anchor="start" x="40" y="4.680000000000001" style="font-family: 'Open Sans', verdana, arial, sans-serif; font-size: 12px; fill: rgb(42, 63, 95); fill-opacity: 1; white-space: pre;">Steering +50%</text><g class="layers" style="opacity: 1;"><g class="legendfill"/><g class="legendlines"><path class="js-line" d="M5,0h30" style="fill: none; stroke: rgb(255, 0, 0); stroke-opacity: 1; stroke-width: 2px;"/></g><g class="legendsymbols"><g class="legendpoints"/></g></g><rect class="legendtoggle" x="0" y="-9.5" width="123.375" height="19" style="fill: rgb(0, 0, 0); fill-opacity: 0;"/></g><g class="traces" transform="translate(0,52.5)" style="opacity: 1;"><text class="legendtext" text-anchor="start" x="40" y="4.680000000000001" style="font-family: 'Open Sans', verdana, arial, sans-serif; font-size: 12px; fill: rgb(42, 63, 95); fill-opacity: 1; white-space: pre;">Steering -50%</text><g class="layers" style="opacity: 1;"><g class="legendfill"/><g class="legendlines"><path class="js-line" d="M5,0h30" style="fill: none; stroke: rgb(0, 128, 0); stroke-opacity: 1; stroke-width: 2px;"/></g><g class="legendsymbols"><g class="legendpoints"/></g></g><rect class="legendtoggle" x="0" y="-9.5" width="123.375" height="19" style="fill: rgb(0, 0, 0); fill-opacity: 0;"/></g><g class="traces" transform="translate(0,71.5)" style="opacity: 1;"><text class="legendtext" text-anchor="start" x="40" y="4.680000000000001" style="font-family: 'Open Sans', verdana, arial, sans-serif; font-size: 12px; fill: rgb(42, 63, 95); fill-opacity: 1; white-space: pre;">Full Brake</text><g class="layers" style="opacity: 1;"><g class="legendfill"/><g class="legendlines"><path class="js-line" d="M5,0h30" style="fill: none; stroke: rgb(255, 165, 0); stroke-opacity: 1; stroke-width: 2px;"/></g><g class="legendsymbols"><g class="legendpoints"/></g></g><rect class="legendtoggle" x="0" y="-9.5" width="123.375" height="19" style="fill: rgb(0, 0, 0); fill-opacity: 0;"/></g><g class="traces" transform="translate(0,90.5)" style="opacity: 1;"><text class="legendtext" text-anchor="start" x="40" y="4.680000000000001" style="font-family: 'Open Sans', verdana, arial, sans-serif; font-size: 12px; fill: rgb(42, 63, 95); fill-opacity: 1; white-space: pre;">Start</text><g class="layers" style="opacity: 1;"><g class="legendfill"/><g class="legendlines"/><g class="legendsymbols"><g class="legendpoints"><path class="scatterpts" transform="translate(20,0)" d="M7.8,0L0,7.8L-7.8,0L0,-7.8Z" style="opacity: 1; stroke-width: 0px; fill: rgb(0, 0, 0); fill-opacity: 1;"/></g></g></g><rect class="legendtoggle" x="0" y="-9.5" width="123.375" height="19" style="fill: rgb(0, 0, 0); fill-opacity: 0;"/></g></g></g><rect class="scrollbar" rx="20" ry="3" width="0" height="0" style="fill: rgb(128, 139, 164); fill-opacity: 1;" x="0" y="0"/></g><g class="g-gtitle"><text class="gtitle" x="50" y="50" text-anchor="start" dy="0em" style="opacity: 1; font-family: 'Open Sans', verdana, arial, sans-serif; font-size: 17px; fill: rgb(42, 63, 95); fill-opacity: 1; white-space: pre;">Action Intervention: Same Start, Different Actions (2s Dream)</text></g><g class="g-xtitle"><text class="xtitle" x="462" y="760.3" text-anchor="middle" style="opacity: 1; font-family: 'Open Sans', verdana, arial, sans-serif; font-size: 14px; fill: rgb(42, 63, 95); fill-opacity: 1; white-space: pre;">East (m)</text></g><g class="g-ytitle"><text class="ytitle" transform="rotate(-90,32.56875,410)" x="32.56875" y="410" text-anchor="middle" style="opacity: 1; font-family: 'Open Sans', verdana, arial, sans-serif; font-size: 14px; fill: rgb(42, 63, 95); fill-opacity: 1; white-space: pre;">North (m)</text></g></g></svg>