<svg class="main-svg" xmlns="http://www.w3.org/2000/svg" xmlns:xlink="http://www.w3.org/1999/xlink" width="900" height="600" style="" viewBox="0 0 900 600"><rect x="0" y="0" width="900" height="600" style="fill: rgb(255, 255, 255); fill-opacity: 1;"/><defs id="defs-f1983f"><g class="clips"><clipPath id="clipf1983fxyplot" class="plotclip"><rect width="722" height="193.2"/></clipPath><clipPath id="clipf1983fx2y2plot" class="plotclip"><rect width="722" height="193.20000000000002"/></clipPath><clipPath class="axesclip" id="clipf1983fx"><rect x="80" y="0" width="722" height="600"/></clipPath><clipPath class="axesclip" id="clipf1983fy"><rect x="0" y="100" width="900" height="193.2"/></clipPath><clipPath class="axesclip" id="clipf1983fxy"><rect x="80" y="100" width="722" height="193.2"/></clipPath><clipPath class="axesclip" id="clipf1983fy2"><rect x="0" y="326.8" width="900" height="193.20000000000002"/></clipPath><clipPath class="axesclip" id="clipf1983fxy2"><rect x="80" y="326.8" width="722" height="193.20000000000002"/></clipPath><clipPath class="axesclip" id="clipf1983fx2"><rect x="80" y="0" width="722" height="600"/></clipPath><clipPath class="axesclip" id="clipf1983fx2y"><rect x="80" y="100" width="722" height="193.2"/></clipPath><clipPath class="axesclip" id="clipf1983fx2y2"><rect x="80" y="326.8" width="722" height="193.20000000000002"/></clipPath></g><g class="gradients"/><g class="patterns"/></defs><g class="bglayer"><rect class="bg" x="80" y="100" width="722" height="193.2" style="fill: rgb(229, 236, 246); fill-opacity: 1; stroke-width: 0;"/><rect class="bg" x="80" y="326.8" width="722" height="193.20000000000002" style="fill: rgb(229, 236, 246); fill-opacity: 1; stroke-width: 0;"/></g><g class="layer-below"><g class="imagelayer"/><g class="shapelayer"/></g><g class="cartesianlayer"><g class="subplot xy"><g class="layer-subplot"><g class="shapelayer"/><g class="imagelayer"/></g><g class="minor-gridlayer"><g class="x"/><g class="y"/></g><g class="gridlayer"><g class="x"><path class="xgrid crisp" transform="translate(151.87,0)" d="M0,100v193.2" style="stroke: rgb(255, 255, 255); stroke-opacity: 1; stroke-width: 1px;"/><path class="xgrid crisp" transform="translate(224.11,0)" d="M0,100v193.2" style="stroke: rgb(255, 255, 255); stroke-opacity: 1; stroke-width: 1px;"/><path class="xgrid crisp" transform="translate(296.35,0)" d="M0,100v193.2" style="stroke: rgb(255, 255, 255); stroke-opacity: 1; stroke-width: 1px;"/><path class="xgrid crisp" transform="translate(368.58,0)" d="M0,100v193.2" style="stroke: rgb(255, 255, 255); stroke-opacity: 1; stroke-width: 1px;"/><path class="xgrid crisp" transform="translate(440.82,0)" d="M0,100v193.2" style="stroke: rgb(255, 255, 255); stroke-opacity: 1; stroke-width: 1px;"/><path class="xgrid crisp" transform="translate(513.06,0)" d="M0,100v193.2" style="stroke: rgb(255, 255, 255); stroke-opacity: 1; stroke-width: 1px;"/><path class="xgrid crisp" transform="translate(585.29,0)" d="M0,100v193.2" style="stroke: rgb(255, 255, 255); stroke-opacity: 1; stroke-width: 1px;"/><path class="xgrid crisp" transform="translate(657.53,0)" d="M0,100v193.2" style="stroke: rgb(255, 255, 255); stroke-opacity: 1; stroke-width: 1px;"/><path class="xgrid crisp" transform="translate(729.76,0)" d="M0,100v193.2" style="stroke: rgb(255, 255, 255); stroke-opacity: 1; stroke-width: 1px;"/></g><g class="y"><path class="ygrid crisp" transform="translate(0,257.81)" d="M80,0h722" style="stroke: rgb(255, 255, 255); stroke-opacity: 1; stroke-width: 1px;"/><path class="ygrid crisp" transform="translate(0,235.18)" d="M80,0h722" style="stroke: rgb(255, 255, 255); stroke-opacity: 1; stroke-width: 1px;"/><path class="ygrid crisp" transform="translate(0,219.12)" d="M80,0h722" style="stroke: rgb(255, 255, 255); stroke-opacity: 1; stroke-width: 1px;"/><path class="ygrid crisp" transform="translate(0,206.67000000000002)" d="M80,0h722" style="stroke: rgb(255, 255, 255); stroke-opacity: 1; stroke-width: 1px;"/><path class="ygrid crisp" transform="translate(0,196.49)" d="M80,0h722" style="stroke: rgb(255, 255, 255); stroke-opacity: 1; stroke-width: 1px;"/><path class="ygrid crisp" transform="translate(0,187.89)" d="M80,0h722" style="stroke: rgb(255, 255, 255); stroke-opacity: 1; stroke-width: 1px;"/><path class="ygrid crisp" transform="translate(0,180.43)" d="M80,0h722" style="stroke: rgb(255, 255, 255); stroke-opacity: 1; stroke-width: 1px;"/><path class="ygrid crisp" transform="translate(0,173.86)" d="M80,0h722" style="stroke: rgb(255, 255, 255); stroke-opacity: 1; stroke-width: 1px;"/><path class="ygrid crisp" transform="translate(0,167.98000000000002)" d="M80,0h722" style="stroke: rgb(255, 255, 255); stroke-opacity: 1; stroke-width: 1px;"/><path class="ygrid crisp" transform="translate(0,129.29)" d="M80,0h722" style="stroke: rgb(255, 255, 255); stroke-opacity: 1; stroke-width: 1px;"/><path class="ygrid crisp" transform="translate(0,106.66)" d="M80,0h722" style="stroke: rgb(255, 255, 255); stroke-opacity: 1; stroke-width: 1px;"/></g></g><g class="zerolinelayer"/><g class="layer-between"><g class="shapelayer"/><g class="imagelayer"/></g><path class="xlines-below"/><path class="ylines-below"/><g class="overlines-below"/><g class="xaxislayer-below"/><g class="yaxislayer-below"/><g class="overaxes-below"/><g class="overplot"><g class="xy" transform="translate(80,100)" clip-path="url(#clipf1983fxyplot)"><g class="scatterlayer mlayer"><g class="trace scatter trace5efc7b" style="stroke-miterlimit: 2; opacity: 1;"><g class="fills"/><g class="errorbars"/><g class="lines"><path class="js-line" d="M0,9.66L2.89,38.83L3.25,40.59L5.42,46.27L5.78,46.44L13.36,63.93L13.72,63.91L15.89,70.75L16.25,70.94L16.61,69.85L16.98,72.63L17.7,74.07L18.06,75.43L19.5,78.45L19.86,79.81L20.23,79.93L20.59,81.08L20.95,80.41L21.31,82.28L23.12,85.23L23.48,85.35L24.92,88.23L25.28,87.47L26.73,90.66L27.09,90.93L27.45,91.86L27.81,90.32L28.53,92.99L28.89,92.69L29.26,93.74L29.62,93.75L29.98,94.65L30.7,94.15L31.06,95.1L32.15,97.34L32.51,97.58L34.31,100.27L34.67,100.21L36.12,101.46L36.48,102.08L37.2,102.82L37.56,101.64L39.73,105.84L40.09,104.36L40.81,106.99L41.17,106.75L41.54,106.68L42.26,108.48L42.62,107.54L42.98,108.23L43.7,110.05L44.06,108.76L44.43,110.62L45.15,110.43L45.51,110.99L48.04,113.57L48.4,113.12L48.76,113.21L49.12,114.14L49.48,111.41L49.84,113.97L50.2,115.26L50.57,114.28L50.93,115.23L51.29,115.64L51.65,115.96L52.01,115.24L52.37,112.36L52.73,115.36L53.09,116.86L53.82,118.02L54.18,117.42L54.54,116.49L55.98,119.98L56.34,118.51L56.71,118.48L57.07,120.14L58.15,120.73L58.51,117.62L58.87,117.27L59.23,120.13L60.32,122.56L60.68,121.43L61.04,121.12L61.4,122.1L61.76,123.83L62.12,123.74L62.48,123.2L63.21,124.73L63.57,122.85L64.29,121.72L64.65,123.13L65.37,126.09L65.73,125.91L66.1,125.84L66.82,126.73L67.18,125.65L67.54,125.14L67.9,126.79L68.26,126.49L68.62,127.58L68.99,127.91L69.35,126.23L70.79,128.99L71.15,128.13L72.24,129.78L72.6,129.55L72.96,129.87L73.32,128.47L74.4,129.54L74.76,127.04L75.13,128.42L75.49,127.62L75.85,128.18L76.21,127.33L76.57,128.34L76.93,131.24L77.29,131.03L77.65,129.09L78.02,131.73L78.74,131.5L79.1,131.17L79.46,133.23L79.82,132.89L80.18,132.5L80.9,133.08L81.27,134.34L81.63,134.93L81.99,132.94L82.35,133.86L82.71,131.67L83.07,131.86L83.43,133.56L83.79,134.32L84.16,129.76L84.52,130.19L84.88,132.85L85.6,134.85L85.96,132.99L87.04,135.24L87.41,135.84L88.13,136.19L88.49,135.19L88.85,137.17L89.21,136.56L89.57,136.78L89.93,136.11L90.3,137.44L91.02,137.76L91.38,137.93L91.74,138.93L92.1,137.94L92.46,138.38L92.82,138.56L93.18,137.67L93.55,138.92L93.91,136.15L94.63,137.04L94.99,139.38L95.35,139.45L95.71,137.76L96.07,139.53L96.44,138.18L96.8,137.64L97.52,140.78L97.88,140.58L98.24,140.38L98.6,141.76L98.96,139.85L99.69,141.21L100.05,137.18L101.49,140.7L101.85,140.86L102.21,139.76L102.58,140.78L102.94,141.88L103.3,143.37L103.66,140.08L104.38,143L104.74,142.11L105.1,141.31L105.46,141.47L105.83,143.32L106.19,144.28L106.55,142.74L106.91,142.3L107.27,144.33L107.63,140.96L107.99,141.72L108.35,142.05L108.72,141.97L109.08,143.78L109.44,144.63L109.8,142.81L110.16,143.74L110.52,142.94L110.88,139.25L111.97,144.91L112.33,144.6L112.69,145.7L113.05,145.57L113.41,143.33L113.77,141.63L114.13,144.8L115.94,146.28L116.3,143.67L116.66,139.28L117.02,144.89L117.38,143.86L117.74,145.92L118.11,145.56L118.47,147.02L119.19,146.25L119.55,148.43L120.27,147.13L120.63,146.3L121,148.28L121.36,148.15L121.72,147.62L122.08,147.57L122.44,145.19L123.16,149.27L123.52,149.03L123.88,147.49L124.25,147.82L124.61,144.04L125.33,148.82L125.69,148.72L126.05,146.78L126.77,149.24L127.14,148.86L127.5,149.36L128.22,149.92L128.58,150.21L129.66,145.12L130.03,148.48L130.39,150.43L130.75,149.01L131.11,148.86L131.47,148.04L131.83,148.72L132.19,150.43L132.55,151.32L132.91,150.1L133.28,151.3L133.64,150.2L134,150.3L134.36,149.2L134.72,150.71L135.08,150.32L135.44,152.13L136.53,151.62L136.89,150.65L137.61,152.68L137.97,152.52L138.33,151.76L138.69,151.11L139.05,152.82L139.42,152.87L139.78,150.7L140.14,150.28L140.5,152.24L141.58,152.5L141.94,152.36L142.67,151.84L143.03,148.5L144.11,153.18L144.47,153.17L145.19,148.25L145.56,151.47L145.92,151.77L146.28,149.68L147.72,153.81L148.08,154.14L148.45,154.43L148.81,153.59L149.53,154.36L149.89,155.18L150.97,153.92L151.33,151.69L152.06,154.76L152.42,154.59L152.78,151.79L153.14,150.56L153.5,152.97L153.86,152L154.22,152.74L154.59,154.25L156.03,156.53L156.39,155.01L156.75,155.98L157.11,153.51L157.47,152.54L157.84,147.61L158.2,154.32L158.56,152.33L158.92,153.36L159.28,155.72L159.64,154.84L160,154.49L160.73,156.89L161.09,153.9L161.81,149.74L162.17,155.85L162.53,156.71L162.89,155.25L163.25,155.98L163.61,151.62L164.34,157.23L164.7,155.59L165.06,156.26L165.42,154.67L166.5,157.76L166.87,156.93L167.95,157.65L168.31,155.23L168.67,153.88L169.03,157.92L169.39,157.79L169.75,153.16L170.12,150.09L170.48,153.59L170.84,156.78L171.56,156.61L171.92,156.04L172.28,156.3L172.64,157.91L173.37,158.21L173.73,158.5L174.09,159.39L174.45,158.12L174.81,158.99L175.17,158.11L175.53,157.67L176.62,158.97L176.98,158.45L177.34,158.28L177.7,159.29L178.06,158.64L178.42,160.46L178.78,157.54L179.15,159.48L179.51,158.52L180.59,159.04L180.95,156.9L181.31,157.07L181.67,154.71L182.4,157.67L182.76,155.38L183.48,159.48L183.84,159.35L184.2,159.82L185.65,159.03L186.01,159.99L186.37,154.91L186.73,158.15L187.09,158.8L187.45,158.21L187.81,158.59L188.18,160.07L188.54,158.66L188.9,159.75L189.26,159.13L189.98,152.29L190.34,157L191.06,161.25L191.43,160.71L191.79,158.59L192.15,158.87L192.51,160.72L193.23,160.11L193.59,157.76L193.95,161.57L194.32,160.51L194.68,160.16L195.04,161.66L195.4,160.95L195.76,161.17L197.2,156.44L197.57,158.2L197.93,158.47L198.29,155.48L198.65,154.25L199.01,155.97L200.46,161.34L200.82,162.27L201.54,161.39L201.9,159.59L203.71,162.39L204.07,162.12L204.43,161.89L205.15,162.06L205.51,160.89L206.23,158.06L206.6,160.43L208.04,162.14L208.4,160.95L208.76,158.85L209.12,159.66L209.48,160.56L210.57,162.44L210.93,161.13L211.65,149.77L212.01,156.94L214.18,163.77L214.54,160.56L214.9,160.41L215.26,162.56L216.35,163.23L216.71,161.09L217.07,159.18L217.43,161.55L217.79,160.45L218.15,162.13L218.88,162.35L219.24,163.25L219.6,162.77L219.96,164.03L220.32,164.72L220.68,160.67L221.76,159.27L222.13,164.24L222.49,164.35L222.85,163.55L223.57,160.98L223.93,161.92L224.29,162.08L225.02,164.8L225.38,162.82L226.1,161.08L226.46,163.51L227.18,160.51L227.54,163.68L228.99,164.47L229.35,164.26L229.71,164.96L230.07,164.7L230.43,164.12L230.79,164.61L231.16,163.69L231.52,163.8L231.88,165.2L232.24,163.83L232.6,164.52L232.96,164.51L233.68,159.27L234.05,160.9L234.41,164.43L234.77,163.3L235.13,161.11L235.85,161.49L236.21,164.86L236.57,164.03L236.93,164.84L237.3,165.05L238.74,162.48L239.1,162.77L239.82,165.61L240.19,164.38L240.55,165.29L241.63,165.35L241.99,165.74L242.71,159.4L243.07,165L243.8,165.76L244.16,165.54L244.52,164.56L244.88,165.98L245.24,164.05L245.6,162.68L245.96,165.48L247.05,166.38L247.41,164.74L247.77,164.34L248.13,165.86L248.85,166.45L249.21,164.78L249.58,166.33L249.94,165.02L250.3,163.29L251.02,165.97L251.38,164.27L252.1,162.47L252.47,164.97L252.83,166.12L253.19,164.55L254.27,166.3L254.63,166.25L255.35,165.6L255.72,166.06L256.44,165.89L256.8,166.8L257.16,164.82L257.52,166.18L257.88,165.27L258.24,165.23L258.61,166.62L258.97,164.55L259.33,164.87L259.69,166.08L260.05,165.59L260.41,163.54L261.49,167.31L261.86,168.02L262.58,166.24L262.94,167.07L263.3,166.99L263.66,167.72L264.75,167.84L265.11,166.86L265.47,165.09L265.83,166.84L266.19,168.02L267.63,167.45L268,165.84L269.08,167.35L269.44,166.66L270.52,167.11L270.89,167.57L271.61,166.81L271.97,168.17L272.33,168.48L272.69,167.86L273.05,167.42L273.41,165.95L273.77,166.23L274.14,166.32L274.5,167.09L274.86,166.38L275.22,165.3L275.94,168.52L276.3,167.71L276.66,166.42L277.75,168.24L278.11,167.7L278.47,166.98L278.83,168.58L279.19,165.29L279.55,164.07L279.91,167.19L280.28,169.28L280.64,168.35L281,168.27L282.08,169.21L282.44,167.92L283.17,168.36L283.53,167.71L284.61,168.01L284.97,167.45L285.33,168.99L285.69,168.57L286.06,167.86L286.42,167.75L286.78,168.83L287.14,166.63L287.5,168.89L287.86,169.2L288.22,168.19L288.58,168.52L288.94,168.71L289.31,167.42L289.67,169.53L290.03,168.44L290.39,168.97L290.75,169.42L291.11,167.97L291.47,169.09L291.83,169.53L292.2,170.03L292.56,168.51L292.92,169.14L293.28,168.06L294.36,169.2L294.72,169.34L295.08,168.27L295.45,169L295.81,170.85L296.53,169.78L296.89,170.19L297.61,168.26L297.97,170.03L298.34,168.65L298.7,170.02L299.06,170.08L300.14,169.07L300.5,170.18L301.59,168.34L301.95,169.15L302.67,169.69L303.03,169.2L303.39,168.33L303.75,169.47L304.11,170.05L304.48,169.65L304.84,169.51L305.92,170.67L306.28,169.37L306.64,170.68L307,168.95L307.73,169.19L308.09,168.83L309.17,171.22L309.53,171.11L311.34,169.71L311.7,170.9L312.42,169.29L312.78,170.23L313.14,170.46L313.87,171.29L314.23,170.17L314.95,171.73L315.31,169.82L316.39,171.4L316.76,169.84L317.12,168.71L317.48,170.8L318.2,169.71L318.56,170.74L318.92,169.69L319.28,170.82L319.64,170.81L320.01,171.21L320.37,169.87L321.09,172.38L321.45,170.91L322.17,171.8L322.53,170.86L323.26,172.65L323.62,171.69L324.7,170.93L325.06,171.07L325.42,172.77L325.78,171.58L326.15,172.35L327.59,169.9L327.95,170.45L329.04,172.13L329.4,172.35L329.76,172.42L330.12,171.07L330.48,171.23L330.84,172.7L331.2,172.89L331.56,172.08L331.92,171.22L332.29,171.51L332.65,171.72L333.01,172.56L333.37,171.84L333.73,172.16L334.09,170.73L334.45,171.88L334.81,171.79L335.18,170.33L335.54,172.16L336.62,172.47L336.98,171.64L338.07,172.08L338.43,172.57L339.51,172.48L339.87,172.6L340.23,173.46L340.59,172.05L341.32,172.74L341.68,170.76L342.76,172.32L343.12,172.61L343.48,172.45L343.84,173.25L344.57,171.42L344.93,172.53L345.65,172.84L346.01,171.79L346.37,170.91L346.73,172.33L348.18,172.72L348.54,172.39L348.9,173.23L349.26,172.7L349.62,172.3L350.35,173.24L350.71,172.85L351.07,172.98L351.43,172.38L351.79,173.33L352.87,171.78L353.23,172.48L353.96,173.17L354.32,172.33L355.4,172.75L355.76,173.66L356.85,172.41L357.21,169.68L358.29,173.79L358.65,173.15L359.01,173.05L359.37,171.35L359.74,171.18L360.1,172.57L361.9,174.38L362.26,173.52L362.63,173.79L362.99,171.7L363.35,173.6L363.71,172.63L364.07,173L364.79,174.17L365.15,172.83L365.88,174.2L366.24,172.95L366.96,173.92L367.32,172.49L368.04,173.95L368.4,173.64L368.77,173.1L369.85,174.54L370.21,173.7L371.29,173.87L371.65,173.77L372.02,173.21L372.38,174.5L373.82,172.84L374.18,174.72L374.91,173.87L375.27,172.53L375.99,174.69L376.35,173.32L377.79,174.91L378.16,174.66L378.88,173.09L379.24,174.26L379.96,173.5L380.32,174.4L380.68,174.81L381.05,173.52L382.13,174.27L382.49,174.52L382.85,174.56L383.21,175.46L384.3,173.85L384.66,175.2L385.74,174.42L386.1,173.57L387.19,175.38L387.55,174.95L388.27,175.41L388.63,174.79L388.99,174.52L389.35,175.25L390.08,175.16L390.44,175.59L391.88,175.52L392.24,174.93L392.6,174.83L392.96,175.6L393.69,175.37L394.05,175.05L395.13,175.19L395.49,175.04L396.22,175.99L396.58,175.4L396.94,175.25L397.66,175.29L398.02,175.53L398.38,174.1L398.74,174.87L399.1,175.79L399.47,174.98L399.83,175.8L400.19,175.44L401.27,175.84L401.63,174.51L402.72,176.4L403.08,175.88L404.16,174.68L404.52,175.12L404.88,174.56L405.24,175.9L405.61,176.51L405.97,175.9L406.33,175.95L407.41,176.09L407.77,176.46L408.86,175.71L409.22,175.39L409.94,176.7L410.3,175.46L410.66,175.17L411.02,175.89L412.47,175.61L412.83,177.02L413.55,175.45L413.91,175.88L414.27,175.89L415.36,176.47L415.72,176.09L416.8,177.18L417.16,176.23L417.52,175.88L417.89,176.75L418.61,176.58L418.97,177.12L420.41,176.65L420.78,176.67L421.14,176.56L421.5,175.61L422.22,176.71L422.58,176.45L422.94,176.33L424.03,175.96L424.39,176.68L425.83,176.96L426.19,176.76L426.55,177.17L426.92,176.8L427.28,176.51L428,177.3L428.36,176.67L429.8,177.48L430.17,176.77L430.53,177.55L430.89,176.93L431.25,176.69L432.33,177.33L432.69,176.08L433.78,177.11L434.14,177.3L434.5,177.3L434.86,176.4L435.94,176.97L436.31,177.25L437.39,177.24L437.75,177.51L438.83,176.26L439.2,176.94L440.28,177.82L440.64,177.22L441.36,176.9L441.72,177.76L442.81,177.79L443.17,177.67L444.61,177.68L444.97,177.74L446.06,177.69L446.42,177.43L446.78,176.96L447.14,178.24L449.67,177.84L450.03,178.05L451.48,178.01L451.84,178.26L453.28,178.43L453.64,177.45L454.37,177.9L454.73,177.21L455.81,178.43L456.17,178.19L457.25,178.46L457.62,178.18L458.7,177.62L459.06,178.02L461.23,178.44L461.59,178.04L463.39,178.55L463.76,178.6L464.12,177.58L464.48,178.67L464.84,178.82L465.92,178.23L466.28,178.28L467.37,178.48L467.73,178.83L468.81,178.68L469.17,178.83L469.9,178.47L470.26,178.94L471.7,178.64L472.06,178.56L473.15,179L473.51,178.73L474.23,178.67L474.59,178.78L478.2,178.88L478.56,178.95L479.65,179.15L480.01,178.73L481.09,179.22L481.45,179.37L482.54,179.19L482.9,179.1L483.26,179.55L483.62,178.87L483.98,178.8L485.79,179.58L486.15,179.39L487.23,179.08L487.59,179.59L489.04,178.89L489.4,179.28L490.84,179.44L491.21,179.58L492.29,179.43L492.65,179.45L494.1,179.59L494.46,179.65L494.82,180.14L495.18,179.56L495.54,179.27L495.9,178.87L496.26,179.39L496.62,179.21L497.71,179.65L498.07,179.57L500.96,179.92L501.32,179.36L502.76,180.32L503.12,179.95L503.49,180.29L503.85,179.52L504.93,180.23L505.29,180.22L507.46,179.9L507.82,180.17L511.07,179.84L511.43,180.22L513.6,180.47L513.96,180.63L515.77,180.55L516.13,180.75L517.93,180.47L518.29,180.43L520.46,180.45L520.82,180.55L521.91,180.43L522.27,180.32L526.96,180.93L527.32,180.48L528.41,180.65L528.77,180.63L529.85,180.72L530.21,180.47L532.74,180.88L533.1,180.74L534.91,180.63L535.27,180.93L538.16,180.95L538.52,180.21L539.24,180.93L539.6,180.61L541.77,180.95L542.13,181.19L543.58,181.19L543.94,181.19L545.74,181.13L546.11,181.32L547.91,181.15L548.27,180.54L549.36,181.26L549.72,181.21L551.52,181.22L551.88,181.38L553.33,181.31L553.69,181.31L568.14,181.9L568.5,181.52L569.94,181.89L570.3,181.63L571.75,181.63L572.11,181.8L576.44,181.85L576.81,181.8L592.34,182.33L592.7,182.09L594.14,182.26L594.5,182.13L596.31,182.48L596.67,182.21L599.2,182.34L599.56,182.3L602.09,182.49L602.45,182.54L607.14,182.48L607.51,182.65L658.07,183.17L658.43,183.24L660.96,183.25L661.32,183.19L669.27,183.25L669.63,183.34L682.63,183.36L682.99,183.32L722,183.47" style="vector-effect: none; fill: none; stroke: rgb(0, 0, 255); stroke-opacity: 1; stroke-width: 2px; opacity: 1;"/></g><g class="points"/><g class="text"/></g><g class="trace scatter trace3b0f9f" style="stroke-miterlimit: 2; opacity: 1;"><g class="fills"/><g class="errorbars"/><g class="lines"><path class="js-line" d="M0,13.99L0.36,14.28L0.72,15.76L2.17,30.3L2.53,31.68L3.97,34.78L4.33,34.05L5.06,35.32L5.42,34.32L7.22,35.89L7.58,34.53L7.95,35.04L8.31,33.83L9.39,33.16L9.75,32.8L10.84,31L11.2,31.04L11.56,30.77L11.92,29.09L13,27.25L13.36,27.61L13.72,28.16L14.45,25.49L14.81,25.86L15.17,25L15.89,23.67L16.25,25.18L16.61,25.89L16.98,22.64L17.7,23.85L18.06,22.53L18.42,24.15L18.78,20.83L19.5,22.13L19.86,18.5L20.23,19.7L20.59,17.63L20.95,20.1L21.31,19.94L21.67,19.55L22.03,18.21L22.39,19.06L22.75,19.38L23.48,17.1L23.84,17.46L24.2,18.99L24.92,15.91L25.28,18.02L26.37,16.6L26.73,17.57L27.09,15.96L27.45,16.23L27.81,16.55L28.53,15.17L28.89,16.31L29.26,16.38L29.62,17.91L30.7,16.49L31.06,17.14L31.42,14.28L31.78,16.49L32.15,15.76L33.59,16.53L33.95,15.85L35.03,15.37L35.4,15.44L35.76,15.14L36.12,16.4L36.48,15.15L36.84,15.75L37.2,17.09L37.56,17.79L37.92,14.89L38.65,16.36L39.01,15.56L39.37,14.85L39.73,16.51L40.09,14.32L40.45,16.72L40.81,16.23L41.17,14.58L41.9,15.38L42.26,14.79L42.62,14.89L42.98,15.36L43.34,14.01L43.7,12.89L44.06,15.86L44.79,14.36L45.15,15.47L45.87,16.54L46.23,14.55L46.59,16.36L46.95,15.36L47.31,14.63L47.68,14.36L48.04,15.09L48.4,14.83L48.76,13.17L49.12,16.19L49.48,13.81L49.84,14.57L50.2,15.36L50.57,15L50.93,14.46L51.65,13.65L52.01,18.66L52.37,14.21L52.73,14.79L53.09,15.33L53.82,14.98L54.18,13.6L55.26,15.63L55.62,14.7L55.98,15.62L56.34,14.22L57.07,15.68L57.43,15.32L57.79,13.87L58.15,15.71L58.51,13.64L59.23,14.89L59.59,14.73L59.96,14.53L60.68,14.86L61.04,13.73L61.4,14.83L61.76,14.35L62.12,14.42L62.85,14.04L63.21,15.45L64.29,14.12L64.65,14.53L66.46,13.44L66.82,15.35L68.26,14.93L68.62,14.45L68.99,14.21L69.35,14.97L69.71,12.31L70.07,14.69L70.43,14.46L70.79,14.93L71.15,14.16L71.51,16.49L71.87,14.43L72.24,14.42L72.6,14.12L72.96,12.78L74.4,14.51L74.76,14.42L75.85,13.37L76.21,15.63L76.57,14.19L76.93,15.04L77.29,16.14L77.65,13.9L78.02,14.44L78.38,14.21L78.74,13.6L79.1,14.48L80.18,13.31L80.54,14.18L80.9,15.44L81.27,13.72L81.63,13.79L81.99,15.09L82.35,15.78L82.71,13.77L84.16,15.42L84.52,14.1L85.6,14.05L85.96,13.58L87.04,15.39L87.41,15.18L87.77,14.58L88.13,15.3L88.49,15.78L89.21,15.15L89.57,15.43L89.93,15.41L90.3,14.3L90.66,15.01L91.02,15.82L91.38,14.82L91.74,15.02L92.1,15.06L92.46,13.92L92.82,14.74L93.18,15.32L93.55,13.38L93.91,14.05L94.27,16.57L94.63,14.05L94.99,14.66L95.35,14.87L95.71,14.26L96.07,15.61L96.44,12.98L96.8,15.52L97.16,14.86L98.24,14.44L98.6,15.03L98.96,15.92L99.32,14.6L99.69,12.87L100.05,15.1L100.41,15.52L100.77,14.12L101.85,15.18L102.21,15.11L102.94,14.48L103.3,15.17L104.02,15.04L104.38,13.92L104.74,17.06L105.1,13.64L105.46,14.67L106.55,15.33L106.91,15.64L107.63,14.41L107.99,15.38L108.35,16.09L108.72,13.72L109.08,15.17L109.44,14.95L109.8,14.02L110.88,15.09L111.24,15.25L113.05,15.07L113.41,13.55L114.13,15.71L114.49,14.75L114.86,14.99L115.94,15.13L116.3,15.47L117.74,15.59L118.11,15L118.47,15.84L118.83,14.87L119.19,15.24L120.27,13.8L120.63,14.99L121.36,14.19L121.72,14.92L122.08,14.31L122.44,15.61L123.88,14.45L124.25,15.67L127.5,15.06L127.86,15.14L128.58,15.21L128.94,14L129.66,15.25L130.03,14.83L130.39,15.11L130.75,15.43L131.11,14.72L131.83,14.71L132.19,15.36L133.64,14.79L134,16.17L134.36,13.8L134.72,14.69L135.08,15.4L136.17,14.95L136.53,15.86L137.25,14.2L137.61,15.35L138.69,14.33L139.05,15.23L140.5,14.12L140.86,14.42L141.58,14.1L141.94,15.26L142.67,14.28L143.03,14.71L143.39,15.14L144.83,14.73L145.19,15.44L145.92,14.35L146.28,15.36L146.64,14.44L147,15.3L147.36,14.84L149.89,15.46L150.25,14.2L150.61,13.92L150.97,14.66L151.7,15.5L152.06,15.09L153.86,15.59L154.22,14.46L154.59,14.59L154.95,15.66L156.75,14.39L157.11,15.07L158.2,14.83L158.56,15.58L159.28,15.73L159.64,14.41L160,16.28L160.36,14.97L160.73,15.09L161.45,16.3L161.81,15L162.17,16.24L162.53,15.59L162.89,15.45L163.25,16.04L163.61,15.32L163.98,15.78L165.06,15.31L165.42,15.02L165.78,14.64L166.14,15.52L166.5,14.71L166.87,15.84L167.23,15.26L167.59,15.73L167.95,15.86L169.39,15.87L169.75,14.73L171.2,16.38L171.56,14.81L171.92,16.14L172.28,15.57L172.64,15.25L173.73,15.47L174.09,14.96L175.17,16.22L175.53,15.68L178.42,15.21L178.78,15.16L179.51,14.67L179.87,15.53L180.59,14.87L180.95,15.44L181.67,14.94L182.04,16.09L182.4,14.07L182.76,15.38L183.12,15.51L183.48,14.84L183.84,15.87L184.2,14.74L184.56,15.69L184.92,15.53L186.37,15.94L186.73,15.25L187.81,16.6L188.18,15.64L189.26,15.73L189.62,15.44L190.7,16.52L191.06,15.95L191.43,16.33L191.79,15.84L192.15,15.62L193.23,16.34L193.59,15.49L194.32,15.81L194.68,15.16L196.12,16.17L196.48,15.08L197.93,16.13L198.29,15.1L198.65,16.68L199.01,15.12L199.37,15.6L199.73,15.12L200.09,16.04L200.82,15.9L201.18,15.69L201.54,16.57L201.9,14.36L202.98,16.02L203.34,15.69L204.43,15.92L204.79,15.37L205.15,16.28L205.51,16.1L205.87,15.14L206.23,15.12L206.6,16.23L207.32,15.3L207.68,16.36L208.76,15.05L209.12,15.93L210.57,15.42L210.93,15.97L211.65,17.14L212.01,15.11L213.1,16.41L213.46,15.58L214.18,15.93L214.54,15.67L214.9,15.34L215.26,16.63L215.62,15.42L215.99,15.81L216.35,15.69L216.71,15.23L217.07,16.35L217.43,14.82L217.79,15.74L218.15,16.25L219.24,15.14L219.6,15.94L219.96,15.86L220.32,14.97L221.04,16.23L221.4,15.86L221.76,16.04L223.21,15.01L223.57,16.02L224.65,15.62L225.02,16.18L225.38,14.82L225.74,15.33L226.1,15.65L227.54,16.04L227.9,15.5L228.63,16.23L228.99,15.98L229.35,16.3L230.07,15.66L230.43,16.23L231.16,15.8L231.52,16.08L231.88,15.96L232.24,16.64L233.32,15.72L233.68,15.33L238.38,15.91L238.74,15.33L239.1,15.91L239.46,14.91L240.55,15.94L240.91,15.81L241.99,16.08L242.35,15.28L243.44,16.22L243.8,15.63L244.52,16.71L244.88,16.16L245.24,15.6L245.96,16.29L246.33,15.96L246.69,15.78L247.41,16.81L247.77,15.9L248.49,16.03L248.85,16.22L249.58,15.45L249.94,17.02L251.02,15.29L251.38,16.41L251.74,15.09L252.1,16.44L252.47,15.87L252.83,16.15L253.19,15L254.27,16.45L254.63,15.94L255.72,14.88L256.08,16.73L257.16,15.24L257.52,16.2L258.24,15.17L258.61,16.05L260.05,15.32L260.41,16.25L262.58,15.08L262.94,15.62L264.38,15.51L264.75,15.28L265.11,16.27L265.47,15.73L265.83,15.76L267.63,16.32L268,15.82L269.08,16.21L269.44,15.31L270.52,16.24L270.89,16.46L273.41,15.89L273.77,15.41L274.86,16.4L275.22,15.65L275.94,16.23L276.3,15.43L276.66,16.39L277.03,15.41L277.39,16.08L279.55,15.28L279.91,16.32L281,16.07L281.36,16.32L282.8,15.43L283.17,15.95L283.89,16.46L284.25,16.06L284.61,15.98L284.97,16.02L285.33,15.26L286.42,16.42L286.78,15.35L287.86,17.37L288.22,16.21L289.31,16.29L289.67,16.68L290.75,15.08L291.11,16.05L291.47,15.33L291.83,15.79L292.2,16.07L292.92,15.39L293.28,16.19L294.36,15.71L294.72,15.99L296.17,16.48L296.53,15.62L297.97,15.73L298.34,15.35L299.06,16.64L299.42,16.31L299.78,16.07L300.86,15.69L301.22,16.34L302.31,15.43L302.67,16.13L303.03,15.49L303.39,16.05L303.75,15.96L304.11,16.3L304.48,15.77L304.84,15.68L306.28,16.67L306.64,16.2L307.73,16.97L308.09,16.06L310.25,15.95L310.62,15.95L312.06,16.34L312.42,16.79L313.87,16.18L314.23,16.13L315.31,16.93L315.67,16.24L317.12,15.51L317.48,16.26L318.2,16.14L318.56,16.54L320.37,15.6L320.73,16.19L321.09,15.67L321.45,16.17L321.81,16.08L322.53,16.67L322.9,15.62L323.62,16.55L323.98,15.91L324.34,15.51L324.7,16.45L326.87,15.6L327.23,16.45L328.31,16.36L328.67,16.33L331.56,15.7L331.92,16.18L333.01,15.78L333.37,16.01L334.09,15.31L334.45,16.04L336.26,15.88L336.62,16.34L338.79,15.84L339.15,15.91L339.87,15.95L340.23,15.65L340.95,15.91L341.32,15.67L342.76,15.94L343.12,15.71L345.29,15.81L345.65,15.31L347.09,16.26L347.46,15.9L349.26,15.2L349.62,16.15L351.07,15.55L351.43,15.92L351.79,15.52L352.15,16.08L352.51,16.2L353.6,15.91L353.96,15.82L355.76,15.87L356.12,16L356.85,15.81L357.21,15.3L358.29,15.95L358.65,15.94L359.37,15.23L359.74,16.1L360.1,15.53L360.46,15.96L360.82,15.83L361.54,16.21L361.9,15.51L362.99,15.36L363.35,16.25L364.79,15.26L365.15,15.98L366.24,15.16L366.6,16.19L367.68,15.65L368.04,16.07L369.13,15.55L369.49,15.74L371.29,15.99L371.65,15.65L373.1,16.29L373.46,15.86L376.71,15.68L377.07,16.51L378.88,16.05L379.24,16.02L379.6,15.98L379.96,16.71L381.05,16.26L381.41,15.94L382.13,15.43L382.49,15.92L383.57,15.76L383.93,15.58L385.02,16.24L385.38,15.75L386.1,15.18L386.46,16.01L388.63,15.13L388.99,15.87L390.08,15.82L390.44,16.74L391.52,15.82L391.88,15.67L392.96,16.17L393.33,15.84L395.85,15.83L396.22,15.6L397.3,16.22L397.66,15.81L399.1,15.78L399.47,15.72L400.55,15.96L400.91,16.14L401.27,15.9L401.63,16.6L402.72,15.87L403.08,15.68L404.16,15.26L404.52,15.63L409.22,15.78L409.58,15.69L410.66,15.08L411.02,15.56L412.11,15.99L412.47,15.75L413.55,16.18L413.91,15.59L415,15.83L415.36,15.81L416.08,15.37L416.44,16.04L417.89,15.54L418.25,15.89L422.94,16.26L423.3,15.61L426.19,16.1L426.55,15.91L428.36,15.8L428.72,16.36L430.17,15.18L430.53,15.59L431.25,15.79L431.61,15.53L431.97,16.14L432.33,15.26L434.5,15.95L434.86,15.62L436.31,15.86L436.67,15.69L438.11,15.54L438.47,14.8L440.28,15.85L440.64,15.53L444.61,16.22L444.97,15.74L447.14,15.92L447.5,15.75L450.75,15.73L451.11,15.59L453.28,15.67L453.64,16.01L455.09,15.81L455.45,16.01L456.53,15.53L456.89,15.58L458.7,15.89L459.06,16.01L460.51,15.66L460.87,15.87L461.95,15.8L462.31,15.79L464.12,15.61L464.48,15.68L466.65,16.08L467.01,15.38L468.45,15.93L468.81,15.49L469.53,15.73L469.9,15.35L470.98,15.48L471.34,15.59L472.42,15.75L472.79,15.53L473.87,15.69L474.23,15.41L476.76,15.94L477.12,15.71L478.2,15.29L478.56,15.61L479.65,15.65L480.01,15.72L494.82,15.81L495.18,15.21L496.26,15.53L496.62,15.65L509.26,15.52L509.63,15.04L510.71,15.56L511.07,15.14L511.43,14.81L511.79,15.52L513.24,15.63L513.6,15.69L514.68,15.56L515.04,15.75L516.49,15.44L516.85,15.45L518.29,15.33L518.66,15.08L522.27,15.52L522.63,15.4L524.43,15.7L524.8,15.42L526.24,15.65L526.6,15.41L528.05,15.25L528.41,15.49L530.21,15.27L530.57,15.22L532.38,15.38L532.74,15.39L534.55,15.51L534.91,15.32L537.44,15.72L537.8,15.52L538.52,15.58L538.88,15.62L542.85,15.13L543.22,15.75L543.94,15.05L544.3,15.51L544.66,15.64L545.74,15.45L546.11,15.4L547.55,15.45L547.91,15.3L548.99,15.21L549.36,15.35L554.05,15.56L554.41,15.21L555.5,15.48L555.86,15.43L558.02,15.19L558.39,15.44L560.19,15.07L560.55,15.33L562.36,15.12L562.72,15.47L564.16,15.28L564.53,15.28L569.58,15.51L569.94,15.26L573.55,15.33L573.92,15.6L577.53,15.2L577.89,15.28L585.83,15.32L586.2,15.4L591.61,15.29L591.97,15.3L595.23,15.3L595.59,15.43L598.48,15.37L598.84,15.45L601.73,15.33L602.09,15.37L605.34,15.29L605.7,15.38L613.28,15.36L613.65,15.23L617.98,15.23L618.34,15.02L620.15,15.4L620.51,15.28L622.31,15.28L622.68,15.31L626.65,15.3L627.01,15.29L633.87,15.14L634.23,15.12L639.29,15.16L639.65,15.33L643.98,15.15L644.35,15.23L670.71,15.26L671.07,15.22L676.13,15.24L676.49,15.21L689.85,15.23L690.22,15.19L699.61,15.23L699.97,15.21L713.33,15.21L713.69,15.21L722,15.21" style="vector-effect: none; fill: none; stroke: rgb(255, 0, 0); stroke-opacity: 1; stroke-width: 2px; opacity: 1;"/></g><g class="points"/><g class="text"/></g></g></g></g><g class="zerolinelayer-above"/><path class="xlines-above crisp" d="M0,0" style="fill: none;"/><path class="ylines-above crisp" d="M0,0" style="fill: none;"/><g class="overlines-above"/><g class="xaxislayer-above"/><g class="yaxislayer-above"><g class="ytick"><text text-anchor="end" x="79" y="3.15" transform="translate(0,257.81)" style="font-family: 'Open Sans', verdana, arial, sans-serif; font-size: 9px; fill: rgb(42, 63, 95); fill-opacity: 1; white-space: pre;">2</text></g><g class="ytick"><text text-anchor="end" x="79" y="3.15" style="font-family: 'Open Sans', verdana, arial, sans-serif; font-size: 9px; fill: rgb(42, 63, 95); fill-opacity: 1; white-space: pre;" transform="translate(0,235.18)">3</text></g><g class="ytick"><text text-anchor="end" x="79" y="3.15" style="font-family: 'Open Sans', verdana, arial, sans-serif; font-size: 9px; fill: rgb(42, 63, 95); fill-opacity: 1; white-space: pre;" transform="translate(0,219.12)">4</text></g><g class="ytick"><text text-anchor="end" x="79" y="3.15" style="font-family: 'Open Sans', verdana, arial, sans-serif; font-size: 9px; fill: rgb(42, 63, 95); fill-opacity: 1; white-space: pre;" transform="translate(0,206.67000000000002)">5</text></g><g class="ytick"><text text-anchor="end" x="79" y="3.15" style="font-family: 'Open Sans', verdana, arial, sans-serif; font-size: 9px; fill: rgb(42, 63, 95); fill-opacity: 1; white-space: pre;" transform="translate(0,196.49)">6</text></g><g class="ytick"><text text-anchor="end" x="79" y="3.15" style="font-family: 'Open Sans', verdana, arial, sans-serif; font-size: 9px; fill: rgb(42, 63, 95); fill-opacity: 1; white-space: pre;" transform="translate(0,187.89)">7</text></g><g class="ytick"><text text-anchor="end" x="79" y="3.15" style="font-family: 'Open Sans', verdana, arial, sans-serif; font-size: 9px; fill: rgb(42, 63, 95); fill-opacity: 1; white-space: pre;" transform="translate(0,180.43)">8</text></g><g class="ytick"><text text-anchor="end" x="79" y="3.15" style="font-family: 'Open Sans', verdana, arial, sans-serif; font-size: 9px; fill: rgb(42, 63, 95); fill-opacity: 1; white-space: pre;" transform="translate(0,173.86)">9</text></g><g class="ytick"><text text-anchor="end" x="76" y="2.1999999999999993" style="font-family: 'Open Sans', verdana, arial, sans-serif; font-size: 12px; fill: rgb(42, 63, 95); fill-opacity: 1; white-space: pre;" transform="translate(0,167.98000000000002)">0.1</text></g><g class="ytick"><text text-anchor="end" x="79" y="3.15" style="font-family: 'Open Sans', verdana, arial, sans-serif; font-size: 9px; fill: rgb(42, 63, 95); fill-opacity: 1; white-space: pre;" transform="translate(0,129.29)">2</text></g><g class="ytick"><text text-anchor="end" x="79" y="3.15" style="font-family: 'Open Sans', verdana, arial, sans-serif; font-size: 9px; fill: rgb(42, 63, 95); fill-opacity: 1; white-space: pre;" transform="translate(0,106.66)">3</text></g></g><g class="overaxes-above"/></g><g class="subplot x2y2"><g class="layer-subplot"><g class="shapelayer"/><g class="imagelayer"/></g><g class="minor-gridlayer"><g class="x2"/><g class="y2"/></g><g class="gridlayer"><g class="x2"><path class="x2grid crisp" transform="translate(151.87,0)" d="M0,326.8v193.20000000000002" style="stroke: rgb(255, 255, 255); stroke-opacity: 1; stroke-width: 1px;"/><path class="x2grid crisp" transform="translate(224.11,0)" d="M0,326.8v193.20000000000002" style="stroke: rgb(255, 255, 255); stroke-opacity: 1; stroke-width: 1px;"/><path class="x2grid crisp" transform="translate(296.35,0)" d="M0,326.8v193.20000000000002" style="stroke: rgb(255, 255, 255); stroke-opacity: 1; stroke-width: 1px;"/><path class="x2grid crisp" transform="translate(368.58,0)" d="M0,326.8v193.20000000000002" style="stroke: rgb(255, 255, 255); stroke-opacity: 1; stroke-width: 1px;"/><path class="x2grid crisp" transform="translate(440.82,0)" d="M0,326.8v193.20000000000002" style="stroke: rgb(255, 255, 255); stroke-opacity: 1; stroke-width: 1px;"/><path class="x2grid crisp" transform="translate(513.06,0)" d="M0,326.8v193.20000000000002" style="stroke: rgb(255, 255, 255); stroke-opacity: 1; stroke-width: 1px;"/><path class="x2grid crisp" transform="translate(585.29,0)" d="M0,326.8v193.20000000000002" style="stroke: rgb(255, 255, 255); stroke-opacity: 1; stroke-width: 1px;"/><path class="x2grid crisp" transform="translate(657.53,0)" d="M0,326.8v193.20000000000002" style="stroke: rgb(255, 255, 255); stroke-opacity: 1; stroke-width: 1px;"/><path class="x2grid crisp" transform="translate(729.76,0)" d="M0,326.8v193.20000000000002" style="stroke: rgb(255, 255, 255); stroke-opacity: 1; stroke-width: 1px;"/></g><g class="y2"><path class="y2grid crisp" transform="translate(0,517.95)" d="M80,0h722" style="stroke: rgb(255, 255, 255); stroke-opacity: 1; stroke-width: 1px;"/><path class="y2grid crisp" transform="translate(0,461.91)" d="M80,0h722" style="stroke: rgb(255, 255, 255); stroke-opacity: 1; stroke-width: 1px;"/><path class="y2grid crisp" transform="translate(0,405.87)" d="M80,0h722" style="stroke: rgb(255, 255, 255); stroke-opacity: 1; stroke-width: 1px;"/><path class="y2grid crisp" transform="translate(0,349.83000000000004)" d="M80,0h722" style="stroke: rgb(255, 255, 255); stroke-opacity: 1; stroke-width: 1px;"/></g></g><g class="zerolinelayer"/><g class="layer-between"><g class="shapelayer"/><g class="imagelayer"/></g><path class="xlines-below"/><path class="ylines-below"/><g class="overlines-below"/><g class="xaxislayer-below"/><g class="yaxislayer-below"/><g class="overaxes-below"/><g class="overplot"><g class="x2y2" transform="translate(80,326.8)" clip-path="url(#clipf1983fx2y2plot)"><g class="scatterlayer mlayer"><g class="trace scatter trace319cd7" style="stroke-miterlimit: 2; opacity: 1;"><g class="fills"/><g class="errorbars"/><g class="lines"><path class="js-line" d="M0,29.25L1.81,14L2.17,12.38L3.61,9.66L3.97,9.66L116.3,10.41L116.66,10.42L162.89,11.17L163.25,11.18L319.64,16.01L320.01,16.03L357.21,17.81L357.57,17.83L446.06,23.46L446.42,23.49L518.66,30.21L519.02,30.25L563.08,35.89L563.44,35.94L612.56,44.71L612.92,44.79L638.93,51.32L639.29,51.43L655.54,56.7L655.9,56.83L672.88,64.02L673.24,64.2L684.8,70.77L685.16,71L694.55,78.15L694.91,78.47L702.14,86.02L702.5,86.46L708.28,95.01L708.64,95.66L712.97,105.2L713.33,106.19L716.58,117.63L716.94,119.31L719.11,132.93L719.47,136.18L720.92,156.8L721.28,166.67L721.2813809581802,4057.2L722,4057.2000000000003" style="vector-effect: none; fill: none; stroke: rgb(0, 128, 0); stroke-opacity: 1; stroke-width: 2px; opacity: 1;"/></g><g class="points"/><g class="text"/></g></g></g></g><g class="zerolinelayer-above"/><path class="xlines-above crisp" d="M0,0" style="fill: none;"/><path class="ylines-above crisp" d="M0,0" style="fill: none;"/><g class="overlines-above"/><g class="xaxislayer-above"><g class="x2tick"><text text-anchor="middle" x="0" y="533" transform="translate(151.87,0)" style="font-family: 'Open Sans', verdana, arial, sans-serif; font-size: 12px; fill: rgb(42, 63, 95); fill-opacity: 1; white-space: pre;">200</text></g><g class="x2tick"><text text-anchor="middle" x="0" y="533" style="font-family: 'Open Sans', verdana, arial, sans-serif; font-size: 12px; fill: rgb(42, 63, 95); fill-opacity: 1; white-space: pre;" transform="translate(224.11,0)">400</text></g><g class="x2tick"><text text-anchor="middle" x="0" y="533" style="font-family: 'Open Sans', verdana, arial, sans-serif; font-size: 12px; fill: rgb(42, 63, 95); fill-opacity: 1; white-space: pre;" transform="translate(296.35,0)">600</text></g><g class="x2tick"><text text-anchor="middle" x="0" y="533" style="font-family: 'Open Sans', verdana, arial, sans-serif; font-size: 12px; fill: rgb(42, 63, 95); fill-opacity: 1; white-space: pre;" transform="translate(368.58,0)">800</text></g><g class="x2tick"><text text-anchor="middle" x="0" y="533" style="font-family: 'Open Sans', verdana, arial, sans-serif; font-size: 12px; fill: rgb(42, 63, 95); fill-opacity: 1; white-space: pre;" transform="translate(440.82,0)">1000</text></g><g class="x2tick"><text text-anchor="middle" x="0" y="533" style="font-family: 'Open Sans', verdana, arial, sans-serif; font-size: 12px; fill: rgb(42, 63, 95); fill-opacity: 1; white-space: pre;" transform="translate(513.06,0)">1200</text></g><g class="x2tick"><text text-anchor="middle" x="0" y="533" style="font-family: 'Open Sans', verdana, arial, sans-serif; font-size: 12px; fill: rgb(42, 63, 95); fill-opacity: 1; white-space: pre;" transform="translate(585.29,0)">1400</text></g><g class="x2tick"><text text-anchor="middle" x="0" y="533" style="font-family: 'Open Sans', verdana, arial, sans-serif; font-size: 12px; fill: rgb(42, 63, 95); fill-opacity: 1; white-space: pre;" transform="translate(657.53,0)">1600</text></g><g class="x2tick"><text text-anchor="middle" x="0" y="533" style="font-family: 'Open Sans', verdana, arial, sans-serif; font-size: 12px; fill: rgb(42, 63, 95); fill-opacity: 1; white-space: pre;" transform="translate(729.76,0)">1800</text></g><g class="x2tick"><text text-anchor="middle" x="0" y="533" style="font-family: 'Open Sans', verdana, arial, sans-serif; font-size: 12px; fill: rgb(42, 63, 95); fill-opacity: 1; white-space: pre;" transform="translate(802,0)">2000</text></g></g><g class="yaxislayer-above"><g class="y2tick"><text text-anchor="end" x="79" y="4.199999999999999" transform="translate(0,517.95)" style="font-family: 'Open Sans', verdana, arial, sans-serif; font-size: 12px; fill: rgb(42, 63, 95); fill-opacity: 1; white-space: pre;">100p</text></g><g class="y2tick"><text text-anchor="end" x="79" y="4.199999999999999" style="font-family: 'Open Sans', verdana, arial, sans-serif; font-size: 12px; fill: rgb(42, 63, 95); fill-opacity: 1; white-space: pre;" transform="translate(0,461.91)">10n</text></g><g class="y2tick"><text text-anchor="end" x="79" y="4.199999999999999" style="font-family: 'Open Sans', verdana, arial, sans-serif; font-size: 12px; fill: rgb(42, 63, 95); fill-opacity: 1; white-space: pre;" transform="translate(0,405.87)">1μ</text></g><g class="y2tick"><text text-anchor="end" x="79" y="4.199999999999999" style="font-family: 'Open Sans', verdana, arial, sans-serif; font-size: 12px; fill: rgb(42, 63, 95); fill-opacity: 1; white-space: pre;" transform="translate(0,349.83000000000004)">100μ</text></g></g><g class="overaxes-above"/></g></g><g class="polarlayer"/><g class="smithlayer"/><g class="ternarylayer"/><g class="geolayer"/><g class="funnelarealayer"/><g class="pielayer"/><g class="iciclelayer"/><g class="treemaplayer"/><g class="sunburstlayer"/><g class="glimages"/><defs id="topdefs-f1983f"><g class="clips"/><clipPath id="legendf1983f"><rect width="72" height="67" x="0" y="0"/></clipPath></defs><g class="layer-above"><g class="imagelayer"/><g class="shapelayer"/></g><g class="infolayer"><g class="legend" pointer-events="all" transform="translate(816.44,100)"><rect class="bg" shape-rendering="crispEdges" style="stroke: rgb(68, 68, 68); stroke-opacity: 1; fill: rgb(255, 255, 255); fill-opacity: 1; stroke-width: 0px;" width="72" height="67" x="0" y="0"/><g class="scrollbox" transform="" clip-path="url(#legendf1983f)"><g class="groups"><g class="traces" transform="translate(0,14.5)" style="opacity: 1;"><text class="legendtext" text-anchor="start" x="40" y="4.680000000000001" style="font-family: 'Open Sans', verdana, arial, sans-serif; font-size: 12px; fill: rgb(42, 63, 95); fill-opacity: 1; white-space: pre;">Train</text><g class="layers" style="opacity: 1;"><g class="legendfill"/><g class="legendlines"><path class="js-line" d="M5,0h30" style="fill: none; stroke: rgb(0, 0, 255); stroke-opacity: 1; stroke-width: 2px;"/></g><g class="legendsymbols"><g class="legendpoints"/></g></g><rect class="legendtoggle" x="0" y="-9.5" width="66.90625" height="19" style="fill: rgb(0, 0, 0); fill-opacity: 0;"/></g><g class="traces" transform="translate(0,33.5)" style="opacity: 1;"><text class="legendtext" text-anchor="start" x="40" y="4.680000000000001" style="font-family: 'Open Sans', verdana, arial, sans-serif; font-size: 12px; fill: rgb(42, 63, 95); fill-opacity: 1; white-space: pre;">Val</text><g class="layers" style="opacity: 1;"><g class="legendfill"/><g class="legendlines"><path class="js-line" d="M5,0h30" style="fill: none; stroke: rgb(255, 0, 0); stroke-opacity: 1; stroke-width: 2px;"/></g><g class="legendsymbols"><g class="legendpoints"/></g></g><rect class="legendtoggle" x="0" y="-9.5" width="66.90625" height="19" style="fill: rgb(0, 0, 0); fill-opacity: 0;"/></g><g class="traces" transform="translate(0,52.5)" style="opacity: 1;"><text class="legendtext" text-anchor="start" x="40" y="4.680000000000001" style="font-family: 'Open Sans', verdana, arial, sans-serif; font-size: 12px; fill: rgb(42, 63, 95); fill-opacity: 1; white-space: pre;">LR</text><g class="layers" style="opacity: 1;"><g class="legendfill"/><g class="legendlines"><path class="js-line" d="M5,0h30" style="fill: none; stroke: rgb(0, 128, 0); stroke-opacity: 1; stroke-width: 2px;"/></g><g class="legendsymbols"><g class="legendpoints"/></g></g><rect class="legendtoggle" x="0" y="-9.5" width="66.90625" height="19" style="fill: rgb(0, 0, 0); fill-opacity: 0;"/></g></g></g><rect class="scrollbar" rx="20" ry="3" width="0" height="0" style="fill: rgb(128, 139, 164); fill-opacity: 1;" x="0" y="0"/></g><g class="g-gtitle"><text class="gtitle" x="45" y="50" text-anchor="start" dy="0em" style="opacity: 1; font-family: 'Open Sans', verdana, arial, sans-serif; font-size: 17px; fill: rgb(42, 63, 95); fill-opacity: 1; white-space: pre;">WAM v2 Training History</text></g><g class="g-xtitle"/><g class="g-x2title"/><g class="g-ytitle"/><g class="g-y2title"/><g class="annotation" data-index="0" style="opacity: 1;"><g class="annotation-text-g" transform="rotate(0,441,89.5)"><g class="cursor-pointer" transform="translate(383,79)"><rect class="bg" x="0.5" y="0.5" width="115" height="20" style="stroke-width: 1px; stroke: rgb(0, 0, 0); stroke-opacity: 0; fill: rgb(0, 0, 0); fill-opacity: 0;"/><text class="annotation-text" text-anchor="middle" x="58.0234375" y="16" style="font-family: 'Open Sans', verdana, arial, sans-serif; font-size: 16px; fill: rgb(42, 63, 95); fill-opacity: 1; white-space: pre;">Loss (log scale)</text></g></g></g><g class="annotation" data-index="1" style="opacity: 1;"><g class="annotation-text-g" transform="rotate(0,441,316.3)"><g class="cursor-pointer" transform="translate(389,306)"><rect class="bg" x="0.5" y="0.5" width="104" height="20" style="stroke-width: 1px; stroke: rgb(0, 0, 0); stroke-opacity: 0; fill: rgb(0, 0, 0); fill-opacity: 0;"/><text class="annotation-text" text-anchor="middle" x="52.2578125" y="16" style="font-family: 'Open Sans', verdana, arial, sans-serif; font-size: 16px; fill: rgb(42, 63, 95); fill-opacity: 1; white-space: pre;">Learning Rate</text></g></g></g></g></svg>