<svg class="main-svg" xmlns="http://www.w3.org/2000/svg" xmlns:xlink="http://www.w3.org/1999/xlink" width="1100" height="900" style="" viewBox="0 0 1100 900"><rect x="0" y="0" width="1100" height="900" style="fill: rgb(255, 255, 255); fill-opacity: 1;"/><defs id="defs-23dd49"><g class="clips"><clipPath id="clip23dd49xyplot" class="plotclip"><rect width="873" height="136.79999999999995"/></clipPath><clipPath id="clip23dd49x2y2plot" class="plotclip"><rect width="873" height="136.79999999999995"/></clipPath><clipPath id="clip23dd49x3y3plot" class="plotclip"><rect width="873" height="136.8"/></clipPath><clipPath id="clip23dd49x4y4plot" class="plotclip"><rect width="873" height="136.8"/></clipPath><clipPath class="axesclip" id="clip23dd49x"><rect x="80" y="0" width="873" height="900"/></clipPath><clipPath class="axesclip" id="clip23dd49y"><rect x="0" y="100" width="1100" height="136.79999999999995"/></clipPath><clipPath class="axesclip" id="clip23dd49xy"><rect x="80" y="100" width="873" height="136.79999999999995"/></clipPath><clipPath class="axesclip" id="clip23dd49y2"><rect x="0" y="294.4" width="1100" height="136.79999999999995"/></clipPath><clipPath class="axesclip" id="clip23dd49xy2"><rect x="80" y="294.4" width="873" height="136.79999999999995"/></clipPath><clipPath class="axesclip" id="clip23dd49y3"><rect x="0" y="488.8" width="1100" height="136.8"/></clipPath><clipPath class="axesclip" id="clip23dd49xy3"><rect x="80" y="488.8" width="873" height="136.8"/></clipPath><clipPath class="axesclip" id="clip23dd49y4"><rect x="0" y="683.2" width="1100" height="136.8"/></clipPath><clipPath class="axesclip" id="clip23dd49xy4"><rect x="80" y="683.2" width="873" height="136.8"/></clipPath><clipPath class="axesclip" id="clip23dd49x2"><rect x="80" y="0" width="873" height="900"/></clipPath><clipPath class="axesclip" id="clip23dd49x2y"><rect x="80" y="100" width="873" height="136.79999999999995"/></clipPath><clipPath class="axesclip" id="clip23dd49x2y2"><rect x="80" y="294.4" width="873" height="136.79999999999995"/></clipPath><clipPath class="axesclip" id="clip23dd49x2y3"><rect x="80" y="488.8" width="873" height="136.8"/></clipPath><clipPath class="axesclip" id="clip23dd49x2y4"><rect x="80" y="683.2" width="873" height="136.8"/></clipPath><clipPath class="axesclip" id="clip23dd49x3"><rect x="80" y="0" width="873" height="900"/></clipPath><clipPath class="axesclip" id="clip23dd49x3y"><rect x="80" y="100" width="873" height="136.79999999999995"/></clipPath><clipPath class="axesclip" id="clip23dd49x3y2"><rect x="80" y="294.4" width="873" height="136.79999999999995"/></clipPath><clipPath class="axesclip" id="clip23dd49x3y3"><rect x="80" y="488.8" width="873" height="136.8"/></clipPath><clipPath class="axesclip" id="clip23dd49x3y4"><rect x="80" y="683.2" width="873" height="136.8"/></clipPath><clipPath class="axesclip" id="clip23dd49x4"><rect x="80" y="0" width="873" height="900"/></clipPath><clipPath class="axesclip" id="clip23dd49x4y"><rect x="80" y="100" width="873" height="136.79999999999995"/></clipPath><clipPath class="axesclip" id="clip23dd49x4y2"><rect x="80" y="294.4" width="873" height="136.79999999999995"/></clipPath><clipPath class="axesclip" id="clip23dd49x4y3"><rect x="80" y="488.8" width="873" height="136.8"/></clipPath><clipPath class="axesclip" id="clip23dd49x4y4"><rect x="80" y="683.2" width="873" height="136.8"/></clipPath></g><g class="gradients"/><g class="patterns"/></defs><g class="bglayer"><rect class="bg" x="80" y="100" width="873" height="136.79999999999995" style="fill: rgb(229, 236, 246); fill-opacity: 1; stroke-width: 0;"/><rect class="bg" x="80" y="294.4" width="873" height="136.79999999999995" style="fill: rgb(229, 236, 246); fill-opacity: 1; stroke-width: 0;"/><rect class="bg" x="80" y="488.8" width="873" height="136.8" style="fill: rgb(229, 236, 246); fill-opacity: 1; stroke-width: 0;"/><rect class="bg" x="80" y="683.2" width="873" height="136.8" style="fill: rgb(229, 236, 246); fill-opacity: 1; stroke-width: 0;"/></g><g class="layer-below"><g class="imagelayer"/><g class="shapelayer"/></g><g class="cartesianlayer"><g class="subplot xy"><g class="layer-subplot"><g class="shapelayer"/><g class="imagelayer"/></g><g class="minor-gridlayer"><g class="x"/><g class="y"/></g><g class="gridlayer"><g class="x"><path class="xgrid crisp" transform="translate(167.51999999999998,0)" d="M0,100v136.79999999999995" style="stroke: rgb(255, 255, 255); stroke-opacity: 1; stroke-width: 1px;"/><path class="xgrid crisp" transform="translate(255.04,0)" d="M0,100v136.79999999999995" style="stroke: rgb(255, 255, 255); stroke-opacity: 1; stroke-width: 1px;"/><path class="xgrid crisp" transform="translate(342.56,0)" d="M0,100v136.79999999999995" style="stroke: rgb(255, 255, 255); stroke-opacity: 1; stroke-width: 1px;"/><path class="xgrid crisp" transform="translate(430.08,0)" d="M0,100v136.79999999999995" style="stroke: rgb(255, 255, 255); stroke-opacity: 1; stroke-width: 1px;"/><path class="xgrid crisp" transform="translate(517.5899999999999,0)" d="M0,100v136.79999999999995" style="stroke: rgb(255, 255, 255); stroke-opacity: 1; stroke-width: 1px;"/><path class="xgrid crisp" transform="translate(605.11,0)" d="M0,100v136.79999999999995" style="stroke: rgb(255, 255, 255); stroke-opacity: 1; stroke-width: 1px;"/><path class="xgrid crisp" transform="translate(692.63,0)" d="M0,100v136.79999999999995" style="stroke: rgb(255, 255, 255); stroke-opacity: 1; stroke-width: 1px;"/><path class="xgrid crisp" transform="translate(780.15,0)" d="M0,100v136.79999999999995" style="stroke: rgb(255, 255, 255); stroke-opacity: 1; stroke-width: 1px;"/><path class="xgrid crisp" transform="translate(867.67,0)" d="M0,100v136.79999999999995" style="stroke: rgb(255, 255, 255); stroke-opacity: 1; stroke-width: 1px;"/></g><g class="y"><path class="ygrid crisp" transform="translate(0,211.29000000000002)" d="M80,0h873" style="stroke: rgb(255, 255, 255); stroke-opacity: 1; stroke-width: 1px;"/><path class="ygrid crisp" transform="translate(0,180.68)" d="M80,0h873" style="stroke: rgb(255, 255, 255); stroke-opacity: 1; stroke-width: 1px;"/><path class="ygrid crisp" transform="translate(0,150.06)" d="M80,0h873" style="stroke: rgb(255, 255, 255); stroke-opacity: 1; stroke-width: 1px;"/><path class="ygrid crisp" transform="translate(0,119.44)" d="M80,0h873" style="stroke: rgb(255, 255, 255); stroke-opacity: 1; stroke-width: 1px;"/></g></g><g class="zerolinelayer"><path class="xzl zl crisp" transform="translate(80,0)" d="M0,100v136.79999999999995" style="stroke: rgb(255, 255, 255); stroke-opacity: 1; stroke-width: 2px;"/></g><g class="layer-between"><g class="shapelayer"/><g class="imagelayer"/></g><path class="xlines-below"/><path class="ylines-below"/><g class="overlines-below"/><g class="xaxislayer-below"/><g class="yaxislayer-below"/><g class="overaxes-below"/><g class="overplot"><g class="xy" transform="translate(80,100)" clip-path="url(#clip23dd49xyplot)"><g class="scatterlayer mlayer"><g class="trace scatter trace29018d" style="stroke-miterlimit: 2; opacity: 1;"><g class="fills"/><g class="errorbars"/><g class="lines"><path class="js-line" d="M0,113.64L15.32,119.17L17.5,119.89L43.76,127.45L45.95,127.93L54.7,129.61L56.89,129.78L65.64,129.7L67.83,129.51L80.95,127.44L83.14,126.9L98.46,123.15L100.65,122.52L124.71,115.41L126.9,114.59L137.84,110.47L140.03,109.52L148.78,105.76L150.97,104.8L192.54,84.13L194.73,83.17L238.49,63.95L240.68,63.34L253.8,59.81L255.99,58.89L280.06,48.98L282.25,48.03L343.51,24.88L345.7,24.15L380.71,13.94L382.89,13.36L402.59,9.28L404.77,8.92L417.9,7.34L420.09,7.22L433.22,6.84L435.41,6.88L455.1,7.82L457.29,7.94L522.92,11.97L525.11,12.03L542.62,13.1L544.8,13.36L560.12,15.56L562.31,16.03L579.81,20.39L582,21.14L597.32,26.98L599.5,27.99L608.26,32.31L610.44,33.41L632.32,46.6L634.51,48.08L649.83,58.79L652.02,60.44L689.21,87.59L691.4,89.05L713.28,101.58L715.47,102.67L728.59,109.1L730.78,110.02L746.1,115.09L748.29,115.55L765.79,118.8L767.98,119.1L785.48,121.21L787.67,120.79L816.11,115.45L818.3,114.81L833.62,110.46L835.8,109.72L846.74,105.87L848.93,104.94L873,93.91" style="vector-effect: none; fill: none; stroke: rgb(0, 0, 255); stroke-opacity: 1; stroke-width: 1.5px; opacity: 1;"/></g><g class="points"/><g class="text"/></g><g class="trace scatter trace0c63dd" style="stroke-miterlimit: 2; opacity: 1;"><g class="fills"/><g class="errorbars"/><g class="lines"><path class="js-line" d="M0,112.77L13.13,114.01L15.32,114.53L24.07,116.79L26.26,117.46L30.63,118.99L32.82,119.17L41.57,118.85L43.76,118.54L91.89,112.62L94.08,112.1L126.9,104.68L129.09,103.86L142.22,99.06L144.41,98.21L168.47,91.05L170.66,90.69L190.35,85L192.54,84.28L220.98,72.99L223.17,71.97L284.44,47.27L286.62,46.22L328.2,30.05L330.38,29.45L343.51,25.5L345.7,24.87L354.45,22.82L356.64,22.28L378.52,16.69L380.71,16.31L396.02,14.34L398.21,14.37L411.34,15.57L413.53,15.83L470.41,21.65L472.6,21.73L496.67,26.15L498.86,26.67L505.42,27.31L507.61,27.24L536.05,25.65L538.24,25.99L549.18,28.54L551.37,29.27L562.31,32.45L564.5,33L595.13,39.26L597.32,39.98L612.63,44.67L614.82,45.29L654.2,60.19L656.39,61.16L687.02,75.68L689.21,76.64L704.53,83.81L706.71,84.84L728.59,94.4L730.78,95.22L741.72,97.67L743.91,97.92L763.6,98.33L765.79,98.16L783.29,96.4L785.48,96.15L807.36,92.94L809.55,92.53L833.62,87.21L835.8,86.63L859.87,79.27L862.06,78.36L873,75.37" style="vector-effect: none; fill: none; stroke: rgb(255, 0, 0); stroke-opacity: 1; stroke-dasharray: 9px, 9px; stroke-width: 1.5px; opacity: 1;"/></g><g class="points"/><g class="text"/></g></g></g></g><g class="zerolinelayer-above"/><path class="xlines-above crisp" d="M0,0" style="fill: none;"/><path class="ylines-above crisp" d="M0,0" style="fill: none;"/><g class="overlines-above"/><g class="xaxislayer-above"/><g class="yaxislayer-above"><g class="ytick"><text text-anchor="end" x="79" y="4.199999999999999" transform="translate(0,211.29000000000002)" style="font-family: 'Open Sans', verdana, arial, sans-serif; font-size: 12px; fill: rgb(42, 63, 95); fill-opacity: 1; white-space: pre;">15</text></g><g class="ytick"><text text-anchor="end" x="79" y="4.199999999999999" style="font-family: 'Open Sans', verdana, arial, sans-serif; font-size: 12px; fill: rgb(42, 63, 95); fill-opacity: 1; white-space: pre;" transform="translate(0,180.68)">20</text></g><g class="ytick"><text text-anchor="end" x="79" y="4.199999999999999" style="font-family: 'Open Sans', verdana, arial, sans-serif; font-size: 12px; fill: rgb(42, 63, 95); fill-opacity: 1; white-space: pre;" transform="translate(0,150.06)">25</text></g><g class="ytick"><text text-anchor="end" x="79" y="4.199999999999999" style="font-family: 'Open Sans', verdana, arial, sans-serif; font-size: 12px; fill: rgb(42, 63, 95); fill-opacity: 1; white-space: pre;" transform="translate(0,119.44)">30</text></g></g><g class="overaxes-above"/></g><g class="subplot x2y2"><g class="layer-subplot"><g class="shapelayer"/><g class="imagelayer"/></g><g class="minor-gridlayer"><g class="x2"/><g class="y2"/></g><g class="gridlayer"><g class="x2"><path class="x2grid crisp" transform="translate(167.51999999999998,0)" d="M0,294.4v136.79999999999995" style="stroke: rgb(255, 255, 255); stroke-opacity: 1; stroke-width: 1px;"/><path class="x2grid crisp" transform="translate(255.04,0)" d="M0,294.4v136.79999999999995" style="stroke: rgb(255, 255, 255); stroke-opacity: 1; stroke-width: 1px;"/><path class="x2grid crisp" transform="translate(342.56,0)" d="M0,294.4v136.79999999999995" style="stroke: rgb(255, 255, 255); stroke-opacity: 1; stroke-width: 1px;"/><path class="x2grid crisp" transform="translate(430.08,0)" d="M0,294.4v136.79999999999995" style="stroke: rgb(255, 255, 255); stroke-opacity: 1; stroke-width: 1px;"/><path class="x2grid crisp" transform="translate(517.5899999999999,0)" d="M0,294.4v136.79999999999995" style="stroke: rgb(255, 255, 255); stroke-opacity: 1; stroke-width: 1px;"/><path class="x2grid crisp" transform="translate(605.11,0)" d="M0,294.4v136.79999999999995" style="stroke: rgb(255, 255, 255); stroke-opacity: 1; stroke-width: 1px;"/><path class="x2grid crisp" transform="translate(692.63,0)" d="M0,294.4v136.79999999999995" style="stroke: rgb(255, 255, 255); stroke-opacity: 1; stroke-width: 1px;"/><path class="x2grid crisp" transform="translate(780.15,0)" d="M0,294.4v136.79999999999995" style="stroke: rgb(255, 255, 255); stroke-opacity: 1; stroke-width: 1px;"/><path class="x2grid crisp" transform="translate(867.67,0)" d="M0,294.4v136.79999999999995" style="stroke: rgb(255, 255, 255); stroke-opacity: 1; stroke-width: 1px;"/></g><g class="y2"><path class="y2grid crisp" transform="translate(0,427.88)" d="M80,0h873" style="stroke: rgb(255, 255, 255); stroke-opacity: 1; stroke-width: 1px;"/><path class="y2grid crisp" transform="translate(0,354.5)" d="M80,0h873" style="stroke: rgb(255, 255, 255); stroke-opacity: 1; stroke-width: 1px;"/><path class="y2grid crisp" transform="translate(0,317.79999999999995)" d="M80,0h873" style="stroke: rgb(255, 255, 255); stroke-opacity: 1; stroke-width: 1px;"/></g></g><g class="zerolinelayer"><path class="x2zl zl crisp" transform="translate(80,0)" d="M0,294.4v136.79999999999995" style="stroke: rgb(255, 255, 255); stroke-opacity: 1; stroke-width: 2px;"/><path class="y2zl zl crisp" transform="translate(0,391.19)" d="M80,0h873" style="stroke: rgb(255, 255, 255); stroke-opacity: 1; stroke-width: 2px;"/></g><g class="layer-between"><g class="shapelayer"/><g class="imagelayer"/></g><path class="xlines-below"/><path class="ylines-below"/><g class="overlines-below"/><g class="xaxislayer-below"/><g class="yaxislayer-below"/><g class="overaxes-below"/><g class="overplot"><g class="x2y2" transform="translate(80,294.4)" clip-path="url(#clip23dd49x2y2plot)"><g class="scatterlayer mlayer"><g class="trace scatter trace94d78c" style="stroke-miterlimit: 2; opacity: 1;"><g class="fills"/><g class="errorbars"/><g class="lines"><path class="js-line" d="M0,99.85L2.19,99.53L4.38,98.05L6.56,96.79L8.75,97.03L13.13,97.61L15.32,96.29L19.69,94.54L21.88,94.95L24.07,95.35L26.26,94.96L32.82,95.98L35.01,95.73L41.57,94.17L43.76,94.15L45.95,94.66L48.14,93.68L50.32,92.82L52.51,90.23L56.89,91.01L59.08,90.07L65.64,87.91L67.83,87.77L70.02,87.32L72.2,88.03L76.58,88.94L78.77,88.91L83.14,86.62L85.33,86.66L89.71,86.42L91.89,87.39L94.08,88.19L96.27,88.04L105.02,91.97L107.21,92.3L109.4,93.94L111.59,94.23L113.77,94.38L115.96,95.57L118.15,94.81L120.34,95.65L133.47,97.05L135.65,97.72L146.59,98.31L148.78,98.75L153.16,99.5L155.35,101.24L157.53,100.89L159.72,101.58L164.1,102.44L166.29,101.28L172.85,101.22L175.04,100.38L179.41,101.14L181.6,100.45L196.92,99.68L199.11,98.89L203.48,99.37L205.67,98.83L207.86,99.05L210.05,97.59L214.42,98.02L216.61,97.34L218.8,96.56L220.98,96.66L223.17,95.14L225.36,95.17L231.92,94.26L234.11,94.81L236.3,93.54L238.49,93.51L240.68,93.43L242.86,92.27L249.43,91.57L251.62,91.53L258.18,91.73L260.37,92.87L264.74,91.92L266.93,92.35L273.5,90.08L275.68,90.24L277.87,89.72L280.06,90.59L282.25,89.69L284.44,89.68L288.81,90.34L291,90.73L295.38,92.61L297.56,93.31L301.94,93.9L304.13,92.57L319.44,89.71L321.63,89.04L328.2,90.72L330.38,91.02L332.57,92.24L334.76,91.71L336.95,92.92L339.14,93.08L341.32,94.1L343.51,93.27L347.89,93.28L350.08,92.66L356.64,90.99L358.83,89.59L361.02,89.44L363.2,88.09L367.58,87.55L369.77,87.9L378.52,88.56L380.71,88.07L382.89,89.51L385.08,89.05L387.27,89.28L389.46,88.66L396.02,84.38L398.21,82.49L406.96,77.64L409.15,76.14L413.53,73.03L415.71,73.32L417.9,73.89L420.09,72.78L422.28,71.45L424.47,68.33L435.41,58.9L437.59,56.23L441.97,51.99L444.16,51.16L455.1,46.06L457.29,46.44L459.47,47.5L461.66,49.59L470.41,53.8L472.6,53.71L474.79,53.97L476.98,51.01L479.17,49.05L481.35,45.52L485.73,38.72L487.92,33.66L496.67,16.29L498.86,12.31L505.42,6.84L507.61,8.55L511.98,16.19L514.17,20.36L520.74,35.6L522.92,42.9L527.3,51.52L529.49,54.34L531.68,54.92L533.86,53.3L536.05,51.36L538.24,50.75L542.62,45.45L544.8,45.45L546.99,47.02L549.18,49.82L553.56,62.3L555.74,69.74L562.31,86.52L564.5,88.35L566.68,88.09L568.87,86.29L579.81,72.79L582,71.71L584.19,71.67L586.38,72.89L588.56,75.96L590.75,80.53L595.13,88.47L597.32,90.69L599.5,91.92L601.69,91.45L610.44,82.86L612.63,82.12L614.82,82.02L617.01,82.71L621.38,85.36L623.57,86.65L630.14,91.11L632.32,91.76L634.51,91.83L636.7,90.95L641.08,88.46L643.26,85.78L649.83,80.23L652.02,80.1L654.2,78.79L656.39,78.46L660.77,79.85L662.95,81.38L665.14,83.25L667.33,83.88L669.52,83.11L671.71,84.39L676.08,83.27L678.27,83.48L682.65,81.64L684.83,81.66L689.21,79.77L691.4,81.5L697.96,85.3L700.15,85.56L706.71,86.22L708.9,87.3L711.09,87.02L713.28,87.6L715.47,88.41L717.65,86.9L719.84,86.05L722.03,87.09L728.59,88.11L730.78,86.94L732.97,87.1L735.16,88.2L737.35,89.68L739.53,89.94L741.72,90L743.91,89.2L746.1,88.16L748.29,88.17L750.47,89.27L752.66,89.42L754.85,90.66L757.04,89.93L763.6,92L765.79,93.81L770.17,96.79L772.35,97.96L778.92,100.27L781.11,101.83L783.29,102.57L785.48,101.98L792.05,101.71L794.23,102.12L800.8,101.98L802.98,101.5L813.92,97.7L816.11,97.43L820.49,96L822.68,96.94L824.86,95.81L827.05,96.75L829.24,95.75L831.43,96.66L835.8,95.69L837.99,95.77L840.18,94.28L842.37,94.31L844.56,93.26L846.74,93.38L848.93,92.88L851.12,93.26L864.25,91.31L866.44,89.91L870.81,91.04L873,90.16" style="vector-effect: none; fill: none; stroke: rgb(0, 0, 255); stroke-opacity: 1; stroke-width: 1.5px; opacity: 1;"/></g><g class="points"/><g class="text"/></g><g class="trace scatter tracee876ea" style="stroke-miterlimit: 2; opacity: 1;"><g class="fills"/><g class="errorbars"/><g class="lines"><path class="js-line" d="M0,100.9L4.38,102.13L6.56,101.35L15.32,96.84L17.5,96.74L19.69,96L21.88,94.42L26.26,90.8L28.44,89.55L35.01,87.52L37.2,87.51L43.76,86.2L45.95,86.22L48.14,86.19L50.32,85.32L65.64,79.67L67.83,78.07L70.02,75.83L72.2,74.89L80.95,74L83.14,74.26L91.89,73.97L94.08,74.69L115.96,82.57L118.15,83.52L126.9,87.53L129.09,88.11L137.84,91.7L140.03,91.91L146.59,93.02L148.78,93.72L166.29,96.65L168.47,96.7L175.04,96.64L177.23,96.64L185.98,97.28L188.17,97.61L210.05,99.02L212.23,98.74L223.17,98.09L225.36,97.92L234.11,96.58L236.3,96.46L240.68,96.1L242.86,96.3L255.99,95.87L258.18,96.18L269.12,96.43L271.31,96.23L277.87,95.41L280.06,94.98L286.62,95.01L288.81,95.02L293.19,95.08L295.38,95.38L304.13,96.78L306.32,96.58L315.07,95.53L317.26,94.94L323.82,93.36L326.01,93.31L332.57,93.09L334.76,92.59L356.64,91.66L358.83,91.74L371.95,90.95L374.14,90.82L391.65,88.06L393.83,87.6L400.4,85.92L402.59,85.36L420.09,80.07L422.28,78.06L428.84,70.86L431.03,69.38L435.41,65.03L437.59,62.42L441.97,58.61L444.16,57.15L448.53,54.24L450.72,53.89L463.85,50.19L466.04,48.69L472.6,46.1L474.79,44.2L485.73,32.44L487.92,29.67L494.48,22.71L496.67,21.74L498.86,21.52L501.05,22.2L505.42,27.13L507.61,30.94L511.98,43.07L514.17,49.84L522.92,75.79L525.11,79.86L527.3,81.75L529.49,81.57L533.86,77.94L536.05,75.43L546.99,62.36L549.18,61.64L553.56,61.82L555.74,62.6L560.12,67.02L562.31,70.49L577.62,94.15L579.81,96.69L588.56,104.94L590.75,105.64L595.13,106.87L597.32,106.47L599.5,105.6L601.69,106.11L608.26,106.37L610.44,107.49L617.01,110L619.2,110.97L621.38,111.66L623.57,111.24L627.95,113.01L630.14,112.95L645.45,118.52L647.64,119.27L658.58,121.14L660.77,122L662.95,122.27L665.14,123.31L671.71,125.18L673.89,126.06L684.83,127.74L687.02,128.33L689.21,128.36L691.4,129.16L702.34,129.75L704.53,129.44L706.71,129.01L708.9,129.53L722.03,129.04L724.22,128.36L728.59,127.97L730.78,127.3L737.35,124.39L739.53,122.97L748.29,116.41L750.47,114.23L759.23,108.78L761.41,107.9L774.54,103.89L776.73,103.8L798.61,102.06L800.8,101.77L813.92,100.58L816.11,100.59L829.24,101.9L831.43,102.3L840.18,104.32L842.37,105.13L851.12,109.09L853.31,110.5L857.68,113.06L859.87,113.85L862.06,114.54L864.25,116.13L870.81,118.53L873,118.95" style="vector-effect: none; fill: none; stroke: rgb(255, 0, 0); stroke-opacity: 1; stroke-dasharray: 9px, 9px; stroke-width: 1.5px; opacity: 1;"/></g><g class="points"/><g class="text"/></g></g></g></g><g class="zerolinelayer-above"/><path class="xlines-above crisp" d="M0,0" style="fill: none;"/><path class="ylines-above crisp" d="M0,0" style="fill: none;"/><g class="overlines-above"/><g class="xaxislayer-above"/><g class="yaxislayer-above"><g class="y2tick"><text text-anchor="end" x="79" y="4.199999999999999" transform="translate(0,427.88)" style="font-family: 'Open Sans', verdana, arial, sans-serif; font-size: 12px; fill: rgb(42, 63, 95); fill-opacity: 1; white-space: pre;">−1</text></g><g class="y2tick"><text text-anchor="end" x="79" y="4.199999999999999" style="font-family: 'Open Sans', verdana, arial, sans-serif; font-size: 12px; fill: rgb(42, 63, 95); fill-opacity: 1; white-space: pre;" transform="translate(0,391.19)">0</text></g><g class="y2tick"><text text-anchor="end" x="79" y="4.199999999999999" style="font-family: 'Open Sans', verdana, arial, sans-serif; font-size: 12px; fill: rgb(42, 63, 95); fill-opacity: 1; white-space: pre;" transform="translate(0,354.5)">1</text></g><g class="y2tick"><text text-anchor="end" x="79" y="4.199999999999999" style="font-family: 'Open Sans', verdana, arial, sans-serif; font-size: 12px; fill: rgb(42, 63, 95); fill-opacity: 1; white-space: pre;" transform="translate(0,317.79999999999995)">2</text></g></g><g class="overaxes-above"/></g><g class="subplot x3y3"><g class="layer-subplot"><g class="shapelayer"/><g class="imagelayer"/></g><g class="minor-gridlayer"><g class="x3"/><g class="y3"/></g><g class="gridlayer"><g class="x3"><path class="x3grid crisp" transform="translate(167.51999999999998,0)" d="M0,488.8v136.8" style="stroke: rgb(255, 255, 255); stroke-opacity: 1; stroke-width: 1px;"/><path class="x3grid crisp" transform="translate(255.04,0)" d="M0,488.8v136.8" style="stroke: rgb(255, 255, 255); stroke-opacity: 1; stroke-width: 1px;"/><path class="x3grid crisp" transform="translate(342.56,0)" d="M0,488.8v136.8" style="stroke: rgb(255, 255, 255); stroke-opacity: 1; stroke-width: 1px;"/><path class="x3grid crisp" transform="translate(430.08,0)" d="M0,488.8v136.8" style="stroke: rgb(255, 255, 255); stroke-opacity: 1; stroke-width: 1px;"/><path class="x3grid crisp" transform="translate(517.5899999999999,0)" d="M0,488.8v136.8" style="stroke: rgb(255, 255, 255); stroke-opacity: 1; stroke-width: 1px;"/><path class="x3grid crisp" transform="translate(605.11,0)" d="M0,488.8v136.8" style="stroke: rgb(255, 255, 255); stroke-opacity: 1; stroke-width: 1px;"/><path class="x3grid crisp" transform="translate(692.63,0)" d="M0,488.8v136.8" style="stroke: rgb(255, 255, 255); stroke-opacity: 1; stroke-width: 1px;"/><path class="x3grid crisp" transform="translate(780.15,0)" d="M0,488.8v136.8" style="stroke: rgb(255, 255, 255); stroke-opacity: 1; stroke-width: 1px;"/><path class="x3grid crisp" transform="translate(867.67,0)" d="M0,488.8v136.8" style="stroke: rgb(255, 255, 255); stroke-opacity: 1; stroke-width: 1px;"/></g><g class="y3"><path class="y3grid crisp" transform="translate(0,594.46)" d="M80,0h873" style="stroke: rgb(255, 255, 255); stroke-opacity: 1; stroke-width: 1px;"/><path class="y3grid crisp" transform="translate(0,528.8)" d="M80,0h873" style="stroke: rgb(255, 255, 255); stroke-opacity: 1; stroke-width: 1px;"/><path class="y3grid crisp" transform="translate(0,495.97)" d="M80,0h873" style="stroke: rgb(255, 255, 255); stroke-opacity: 1; stroke-width: 1px;"/></g></g><g class="zerolinelayer"><path class="x3zl zl crisp" transform="translate(80,0)" d="M0,488.8v136.8" style="stroke: rgb(255, 255, 255); stroke-opacity: 1; stroke-width: 2px;"/><path class="y3zl zl crisp" transform="translate(0,561.63)" d="M80,0h873" style="stroke: rgb(255, 255, 255); stroke-opacity: 1; stroke-width: 2px;"/></g><g class="layer-between"><g class="shapelayer"/><g class="imagelayer"/></g><path class="xlines-below"/><path class="ylines-below"/><g class="overlines-below"/><g class="xaxislayer-below"/><g class="yaxislayer-below"/><g class="overaxes-below"/><g class="overplot"><g class="x3y3" transform="translate(80,488.8)" clip-path="url(#clip23dd49x3y3plot)"><g class="scatterlayer mlayer"><g class="trace scatter tracef748f9" style="stroke-miterlimit: 2; opacity: 1;"><g class="fills"/><g class="errorbars"/><g class="lines"><path class="js-line" d="M0,70.53L6.56,68.24L8.75,67.91L10.94,68.24L13.13,69.55L21.88,68.56L24.07,68.56L28.44,67.91L30.63,68.89L35.01,69.22L37.2,68.24L39.38,68.24L41.57,69.22L43.76,69.22L45.95,70.21L48.14,69.88L50.32,68.56L54.7,68.24L56.89,69.22L61.26,70.53L63.45,69.55L70.02,70.53L72.2,68.89L76.58,70.21L78.77,68.56L83.14,68.56L85.33,66.92L89.71,66.27L91.89,66.92L94.08,66.92L96.27,65.94L100.65,66.92L102.83,66.92L105.02,67.91L107.21,67.58L111.59,67.25L113.77,68.24L120.34,67.58L122.53,66.27L129.09,67.58L131.28,67.58L135.65,68.24L137.84,67.91L140.03,67.25L142.22,67.91L144.41,67.25L146.59,67.91L159.72,69.88L161.91,70.86L168.47,69.22L170.66,69.22L175.04,68.89L177.23,69.88L183.79,70.86L185.98,72.18L190.35,72.18L192.54,71.19L194.73,69.55L196.92,69.88L201.29,69.22L203.48,69.88L205.67,69.55L207.86,68.24L212.23,68.56L214.42,70.21L216.61,69.88L218.8,70.53L220.98,71.19L223.17,69.88L229.74,69.88L231.92,71.19L234.11,70.86L236.3,71.85L242.86,72.18L245.05,73.49L247.24,72.18L249.43,71.85L255.99,71.52L258.18,72.5L275.68,72.5L277.87,73.82L284.44,72.83L286.62,73.49L293.19,73.82L295.38,73.49L299.75,74.15L301.94,74.15L304.13,73.49L306.32,71.19L308.5,70.86L310.69,68.56L317.26,65.94L319.44,63.97L328.2,62.33L330.38,60.68L336.95,57.07L339.14,55.43L341.32,55.43L343.51,53.13L350.08,41.97L352.26,40L354.45,39.67L356.64,38.36L361.02,35.08L363.2,32.45L365.39,30.15L367.58,29.17L376.33,22.27L378.52,20.63L380.71,18.99L382.89,16.03L385.08,14.06L387.27,14.39L389.46,15.7L391.65,15.05L393.83,13.41L396.02,10.78L398.21,10.12L400.4,8.15L411.34,6.84L413.53,7.82L415.71,8.81L417.9,10.78L420.09,12.75L422.28,13.08L428.84,13.73L431.03,14.72L437.59,15.38L439.78,16.36L444.16,18.33L446.35,20.96L448.53,22.6L450.72,22.93L452.91,22.27L455.1,23.26L466.04,21.29L468.23,21.94L470.41,22.93L472.6,25.55L474.79,26.21L476.98,27.85L481.35,34.09L483.54,38.36L494.48,62.98L496.67,68.24L498.86,73.82L501.05,76.77L505.42,81.7L507.61,85.31L514.17,103.37L516.36,106.32L518.55,107.96L520.74,111.9L527.3,119.78L529.49,122.08L531.68,123.39L533.86,127.66L536.05,127.99L538.24,129.96L544.8,128.98L546.99,127.33L551.37,123.72L553.56,124.05L557.93,122.08L560.12,119.45L562.31,116.17L564.5,111.25L568.87,101.72L571.06,97.46L573.25,94.5L575.44,93.52L577.62,93.84L579.81,92.2L582,90.23L584.19,85.97L588.56,76.44L590.75,75.13L597.32,67.58L599.5,66.92L603.88,64.3L606.07,61.01L610.44,53.79L612.63,50.83L614.82,48.21L617.01,44.27L627.95,39.34L630.14,38.69L632.32,38.03L634.51,39.02L638.89,42.96L641.08,42.96L645.45,45.58L647.64,48.86L649.83,49.85L652.02,49.85L654.2,49.52L656.39,50.18L658.58,49.85L660.77,51.49L665.14,51.49L667.33,52.8L671.71,54.45L673.89,57.07L678.27,58.71L680.46,60.03L684.83,60.68L687.02,60.36L689.21,61.67L691.4,62L695.77,62.65L697.96,61.34L700.15,62L702.34,61.34L708.9,60.68L711.09,60.03L713.28,60.03L715.47,58.71L717.65,59.37L719.84,58.71L724.22,58.39L726.41,57.4L730.78,58.06L732.97,58.39L735.16,59.7L737.35,57.73L739.53,57.4L741.72,58.06L743.91,59.7L746.1,59.37L752.66,59.7L754.85,60.03L759.23,59.7L761.41,60.36L765.79,61.67L767.98,61.01L778.92,62.65L781.11,62.33L785.48,62L787.67,62.98L794.23,63.64L796.42,63.31L809.55,65.28L811.74,66.27L824.86,68.24L827.05,67.91L835.8,69.55L837.99,68.89L851.12,70.21L853.31,69.88L857.68,70.21L859.87,69.88L864.25,70.53L866.44,72.18L873,73.16" style="vector-effect: none; fill: none; stroke: rgb(0, 0, 255); stroke-opacity: 1; stroke-width: 1.5px; opacity: 1;"/></g><g class="points"/><g class="text"/></g><g class="trace scatter tracee72338" style="stroke-miterlimit: 2; opacity: 1;"><g class="fills"/><g class="errorbars"/><g class="lines"><path class="js-line" d="M0,69.83L4.38,70.52L6.56,71.51L13.13,73.71L15.32,74.33L21.88,76.9L24.07,77.86L32.82,80.54L35.01,81L41.57,80.94L43.76,80.75L48.14,81.1L50.32,80.49L54.7,81.25L56.89,80.36L61.26,79.07L63.45,78.56L72.2,77.66L74.39,76.89L78.77,75.55L80.95,75.58L96.27,73.74L98.46,73.18L111.59,72.4L113.77,72.68L122.53,72.73L124.71,72.15L137.84,69.44L140.03,69.99L150.97,72.45L153.16,72.53L159.72,71.93L161.91,71.72L170.66,71.74L172.85,72.3L210.05,76.28L212.23,75.86L220.98,76.41L223.17,76.18L229.74,76.55L231.92,76.01L238.49,74.98L240.68,74.59L258.18,71.21L260.37,71.13L271.31,69.67L273.5,69.68L277.87,69.28L280.06,68.15L297.56,64.36L299.75,64.88L306.32,65.71L308.5,64.85L330.38,55.46L332.57,54.87L336.95,53.55L339.14,53.18L345.7,52.67L347.89,51.55L356.64,49.59L358.83,49.18L369.77,43.81L371.95,43.48L393.83,33.14L396.02,32.75L402.59,31.18L404.77,31.52L413.53,34.84L415.71,36.75L420.09,41.03L422.28,42.11L426.65,44.29L428.84,46.17L431.03,47.65L433.22,48.17L439.78,49.67L441.97,50.85L450.72,50.98L452.91,50.07L455.1,49.12L457.29,49.43L461.66,51.42L463.85,51.29L468.23,51.59L470.41,52.3L479.17,51.96L481.35,52.05L487.92,53.41L490.11,53.11L496.67,52.35L498.86,52.73L505.42,54.41L507.61,54.07L511.98,52.63L514.17,52.53L518.55,53.18L520.74,54.18L527.3,59.51L529.49,60.3L531.68,60.44L533.86,61.51L540.43,64.66L542.62,64.52L546.99,64.05L549.18,64.83L553.56,65.15L555.74,64.78L560.12,64.11L562.31,64.22L571.06,64.42L573.25,65.29L579.81,68.41L582,68.45L586.38,68.62L588.56,69.76L592.94,70.9L595.13,70.25L603.88,67.3L606.07,67.63L610.44,68.69L612.63,68.8L617.01,69.35L619.2,69.19L623.57,67.14L625.76,66.03L627.95,65.15L630.14,65.42L636.7,66.56L638.89,66.7L662.95,66.36L665.14,66.14L671.71,65.55L673.89,64.88L684.83,63.57L687.02,64.09L724.22,67.94L726.41,68.18L737.35,70.05L739.53,71.27L750.47,74.57L752.66,74.92L754.85,75.77L757.04,75.19L761.41,75.48L763.6,75.03L767.98,74.55L770.17,74.42L781.11,72.89L783.29,72.54L824.86,66.31L827.05,65.88L851.12,60.52L853.31,59.87L857.68,58.84L859.87,58.65L873,56.23" style="vector-effect: none; fill: none; stroke: rgb(255, 0, 0); stroke-opacity: 1; stroke-dasharray: 9px, 9px; stroke-width: 1.5px; opacity: 1;"/></g><g class="points"/><g class="text"/></g></g></g></g><g class="zerolinelayer-above"/><path class="xlines-above crisp" d="M0,0" style="fill: none;"/><path class="ylines-above crisp" d="M0,0" style="fill: none;"/><g class="overlines-above"/><g class="xaxislayer-above"/><g class="yaxislayer-above"><g class="y3tick"><text text-anchor="end" x="79" y="4.199999999999999" transform="translate(0,594.46)" style="font-family: 'Open Sans', verdana, arial, sans-serif; font-size: 12px; fill: rgb(42, 63, 95); fill-opacity: 1; white-space: pre;">−1</text></g><g class="y3tick"><text text-anchor="end" x="79" y="4.199999999999999" style="font-family: 'Open Sans', verdana, arial, sans-serif; font-size: 12px; fill: rgb(42, 63, 95); fill-opacity: 1; white-space: pre;" transform="translate(0,561.63)">0</text></g><g class="y3tick"><text text-anchor="end" x="79" y="4.199999999999999" style="font-family: 'Open Sans', verdana, arial, sans-serif; font-size: 12px; fill: rgb(42, 63, 95); fill-opacity: 1; white-space: pre;" transform="translate(0,528.8)">1</text></g><g class="y3tick"><text text-anchor="end" x="79" y="4.199999999999999" style="font-family: 'Open Sans', verdana, arial, sans-serif; font-size: 12px; fill: rgb(42, 63, 95); fill-opacity: 1; white-space: pre;" transform="translate(0,495.97)">2</text></g></g><g class="overaxes-above"/></g><g class="subplot x4y4"><g class="layer-subplot"><g class="shapelayer"/><g class="imagelayer"/></g><g class="minor-gridlayer"><g class="x4"/><g class="y4"/></g><g class="gridlayer"><g class="x4"><path class="x4grid crisp" transform="translate(167.51999999999998,0)" d="M0,683.2v136.8" style="stroke: rgb(255, 255, 255); stroke-opacity: 1; stroke-width: 1px;"/><path class="x4grid crisp" transform="translate(255.04,0)" d="M0,683.2v136.8" style="stroke: rgb(255, 255, 255); stroke-opacity: 1; stroke-width: 1px;"/><path class="x4grid crisp" transform="translate(342.56,0)" d="M0,683.2v136.8" style="stroke: rgb(255, 255, 255); stroke-opacity: 1; stroke-width: 1px;"/><path class="x4grid crisp" transform="translate(430.08,0)" d="M0,683.2v136.8" style="stroke: rgb(255, 255, 255); stroke-opacity: 1; stroke-width: 1px;"/><path class="x4grid crisp" transform="translate(517.5899999999999,0)" d="M0,683.2v136.8" style="stroke: rgb(255, 255, 255); stroke-opacity: 1; stroke-width: 1px;"/><path class="x4grid crisp" transform="translate(605.11,0)" d="M0,683.2v136.8" style="stroke: rgb(255, 255, 255); stroke-opacity: 1; stroke-width: 1px;"/><path class="x4grid crisp" transform="translate(692.63,0)" d="M0,683.2v136.8" style="stroke: rgb(255, 255, 255); stroke-opacity: 1; stroke-width: 1px;"/><path class="x4grid crisp" transform="translate(780.15,0)" d="M0,683.2v136.8" style="stroke: rgb(255, 255, 255); stroke-opacity: 1; stroke-width: 1px;"/><path class="x4grid crisp" transform="translate(867.67,0)" d="M0,683.2v136.8" style="stroke: rgb(255, 255, 255); stroke-opacity: 1; stroke-width: 1px;"/></g><g class="y4"><path class="y4grid crisp" transform="translate(0,785.4200000000001)" d="M80,0h873" style="stroke: rgb(255, 255, 255); stroke-opacity: 1; stroke-width: 1px;"/><path class="y4grid crisp" transform="translate(0,754.7)" d="M80,0h873" style="stroke: rgb(255, 255, 255); stroke-opacity: 1; stroke-width: 1px;"/><path class="y4grid crisp" transform="translate(0,723.97)" d="M80,0h873" style="stroke: rgb(255, 255, 255); stroke-opacity: 1; stroke-width: 1px;"/><path class="y4grid crisp" transform="translate(0,693.25)" d="M80,0h873" style="stroke: rgb(255, 255, 255); stroke-opacity: 1; stroke-width: 1px;"/></g></g><g class="zerolinelayer"><path class="x4zl zl crisp" transform="translate(80,0)" d="M0,683.2v136.8" style="stroke: rgb(255, 255, 255); stroke-opacity: 1; stroke-width: 2px;"/><path class="y4zl zl crisp" transform="translate(0,816.1400000000001)" d="M80,0h873" style="stroke: rgb(255, 255, 255); stroke-opacity: 1; stroke-width: 2px;"/></g><g class="layer-between"><g class="shapelayer"/><g class="imagelayer"/></g><path class="xlines-below"/><path class="ylines-below"/><g class="overlines-below"/><g class="xaxislayer-below"/><g class="yaxislayer-below"/><g class="overaxes-below"/><g class="overplot"><g class="x4y4" transform="translate(80,683.2)" clip-path="url(#clip23dd49x4y4plot)"><g class="scatterlayer mlayer"><g class="trace scatter trace870c5f" style="stroke-miterlimit: 2; opacity: 1;"><g class="fills"/><g class="errorbars"/><g class="lines"><path class="js-line" d="M0,128.42L6.56,117.37L8.75,115.06L10.94,111.84L13.13,110.1L15.32,109.21L17.5,107.49L26.26,104.38L28.44,104.65L30.63,104.52L32.82,102.7L41.57,90.36L43.76,86.47L52.51,72.4L54.7,69.95L56.89,68.15L59.08,67.46L61.26,66.84L63.45,65.22L65.64,64.3L67.83,65.25L72.2,64.83L74.39,64.67L78.77,64.08L80.95,64.84L89.71,69.72L91.89,70.01L94.08,70.13L96.27,71.04L100.65,71.16L102.83,71.71L111.59,74.36L113.77,75.96L115.96,77.28L118.15,79.7L122.53,81.87L124.71,82.14L126.9,82.48L129.09,82.05L137.84,84.94L140.03,85.17L142.22,83.95L144.41,84.66L146.59,85.81L148.78,87.96L150.97,89.16L153.16,91.37L159.72,95.66L161.91,98.43L164.1,100.83L166.29,104.64L170.66,111.64L172.85,113.42L179.41,120.11L181.6,123.27L185.98,127.25L188.17,129L190.35,129.96L192.54,129.39L194.73,127.46L196.92,127.35L203.48,126.07L205.67,124.37L207.86,123.09L210.05,123.09L214.42,123.34L216.61,121.38L218.8,120.99L220.98,122.86L225.36,121.72L227.55,121.75L234.11,123.86L236.3,123.76L238.49,124.08L240.68,126.26L249.43,129.06L251.62,128.67L258.18,128.78L260.37,129.21L271.31,127.36L273.5,127.02L275.68,127.54L277.87,126.52L280.06,126.61L282.25,125.41L284.44,125.9L286.62,125.19L293.19,124.37L295.38,124.41L297.56,123.55L299.75,123.97L304.13,124.85L306.32,126.28L308.5,125.53L310.69,126.59L315.07,126.54L317.26,127.03L319.44,127.71L321.63,127.18L328.2,126.5L330.38,127.68L339.14,129.86L341.32,129.59L343.51,129.79L345.7,128.24L352.26,121.85L354.45,121.28L358.83,118.82L361.02,118.21L369.77,114.24L371.95,112.43L378.52,112.04L380.71,110.8L385.08,107.88L387.27,108.07L389.46,108.9L391.65,108.75L398.21,102.65L400.4,99.98L404.77,96.35L406.96,93.27L411.34,86.6L413.53,84.62L417.9,80.46L420.09,79.3L424.47,76L426.65,73.98L431.03,69.73L433.22,68.55L444.16,63.96L446.35,64.47L448.53,64.75L450.72,64.23L452.91,63.51L455.1,63.68L466.04,61.63L468.23,61.68L470.41,62.03L472.6,63.45L476.98,61.85L479.17,61.67L487.92,63.3L490.11,62.48L501.05,49.53L503.23,49.2L509.8,45.66L511.98,42.72L516.36,39.85L518.55,39.33L520.74,38.12L522.92,38.74L529.49,40.37L531.68,41.54L533.86,40.27L536.05,41.23L542.62,38.99L544.8,38.86L549.18,39.21L551.37,39.16L553.56,36.9L555.74,35.78L557.93,34.64L560.12,35.28L562.31,36.38L564.5,38.46L571.06,45.64L573.25,47.52L582,51.66L584.19,53.47L588.56,57.26L590.75,60.29L595.13,64.96L597.32,66.33L599.5,67.92L601.69,68.51L608.26,73.41L610.44,74.32L619.2,79.38L621.38,82.24L630.14,91.91L632.32,93.08L638.89,97.97L641.08,98.18L647.64,97.72L649.83,96.34L652.02,96.06L654.2,93.71L658.58,91.37L660.77,90.45L662.95,89.95L665.14,88.38L667.33,87.17L669.52,84.32L671.71,83.23L673.89,80.72L680.46,75.04L682.65,71.92L689.21,64.52L691.4,63.71L697.96,61.18L700.15,59.55L715.47,54.67L717.65,53.04L719.84,52.32L722.03,52.51L724.22,52.25L726.41,50.89L728.59,51.36L730.78,50.75L732.97,50.52L735.16,49.35L737.35,48.89L739.53,47.27L752.66,38.99L754.85,37.25L763.6,30.48L765.79,28.12L772.35,21.36L774.54,18.66L785.48,6.84L787.67,7.76L792.05,9L794.23,8.7L800.8,9.49L802.98,9.43L807.36,9.52L809.55,9.71L813.92,10.76L816.11,11.46L820.49,12.66L822.68,13.21L835.8,16.78L837.99,17.11L851.12,22.2L853.31,23.48L859.87,26.4L862.06,26.86L866.44,28.04L868.62,29.65L873,35.54" style="vector-effect: none; fill: none; stroke: rgb(128, 0, 128); stroke-opacity: 1; stroke-width: 1.5px; opacity: 1;"/></g><g class="points"/><g class="text"/></g></g></g></g><g class="zerolinelayer-above"/><path class="xlines-above crisp" d="M0,0" style="fill: none;"/><path class="ylines-above crisp" d="M0,0" style="fill: none;"/><g class="overlines-above"/><g class="xaxislayer-above"><g class="x4tick"><text text-anchor="middle" x="0" y="833" transform="translate(80,0)" style="font-family: 'Open Sans', verdana, arial, sans-serif; font-size: 12px; fill: rgb(42, 63, 95); fill-opacity: 1; white-space: pre;">0</text></g><g class="x4tick"><text text-anchor="middle" x="0" y="833" style="font-family: 'Open Sans', verdana, arial, sans-serif; font-size: 12px; fill: rgb(42, 63, 95); fill-opacity: 1; white-space: pre;" transform="translate(167.51999999999998,0)">2</text></g><g class="x4tick"><text text-anchor="middle" x="0" y="833" style="font-family: 'Open Sans', verdana, arial, sans-serif; font-size: 12px; fill: rgb(42, 63, 95); fill-opacity: 1; white-space: pre;" transform="translate(255.04,0)">4</text></g><g class="x4tick"><text text-anchor="middle" x="0" y="833" style="font-family: 'Open Sans', verdana, arial, sans-serif; font-size: 12px; fill: rgb(42, 63, 95); fill-opacity: 1; white-space: pre;" transform="translate(342.56,0)">6</text></g><g class="x4tick"><text text-anchor="middle" x="0" y="833" style="font-family: 'Open Sans', verdana, arial, sans-serif; font-size: 12px; fill: rgb(42, 63, 95); fill-opacity: 1; white-space: pre;" transform="translate(430.08,0)">8</text></g><g class="x4tick"><text text-anchor="middle" x="0" y="833" style="font-family: 'Open Sans', verdana, arial, sans-serif; font-size: 12px; fill: rgb(42, 63, 95); fill-opacity: 1; white-space: pre;" transform="translate(517.5899999999999,0)">10</text></g><g class="x4tick"><text text-anchor="middle" x="0" y="833" style="font-family: 'Open Sans', verdana, arial, sans-serif; font-size: 12px; fill: rgb(42, 63, 95); fill-opacity: 1; white-space: pre;" transform="translate(605.11,0)">12</text></g><g class="x4tick"><text text-anchor="middle" x="0" y="833" style="font-family: 'Open Sans', verdana, arial, sans-serif; font-size: 12px; fill: rgb(42, 63, 95); fill-opacity: 1; white-space: pre;" transform="translate(692.63,0)">14</text></g><g class="x4tick"><text text-anchor="middle" x="0" y="833" style="font-family: 'Open Sans', verdana, arial, sans-serif; font-size: 12px; fill: rgb(42, 63, 95); fill-opacity: 1; white-space: pre;" transform="translate(780.15,0)">16</text></g><g class="x4tick"><text text-anchor="middle" x="0" y="833" style="font-family: 'Open Sans', verdana, arial, sans-serif; font-size: 12px; fill: rgb(42, 63, 95); fill-opacity: 1; white-space: pre;" transform="translate(867.67,0)">18</text></g></g><g class="yaxislayer-above"><g class="y4tick"><text text-anchor="end" x="79" y="4.199999999999999" transform="translate(0,816.1400000000001)" style="font-family: 'Open Sans', verdana, arial, sans-serif; font-size: 12px; fill: rgb(42, 63, 95); fill-opacity: 1; white-space: pre;">0</text></g><g class="y4tick"><text text-anchor="end" x="79" y="4.199999999999999" style="font-family: 'Open Sans', verdana, arial, sans-serif; font-size: 12px; fill: rgb(42, 63, 95); fill-opacity: 1; white-space: pre;" transform="translate(0,785.4200000000001)">1</text></g><g class="y4tick"><text text-anchor="end" x="79" y="4.199999999999999" style="font-family: 'Open Sans', verdana, arial, sans-serif; font-size: 12px; fill: rgb(42, 63, 95); fill-opacity: 1; white-space: pre;" transform="translate(0,754.7)">2</text></g><g class="y4tick"><text text-anchor="end" x="79" y="4.199999999999999" style="font-family: 'Open Sans', verdana, arial, sans-serif; font-size: 12px; fill: rgb(42, 63, 95); fill-opacity: 1; white-space: pre;" transform="translate(0,723.97)">3</text></g><g class="y4tick"><text text-anchor="end" x="79" y="4.199999999999999" style="font-family: 'Open Sans', verdana, arial, sans-serif; font-size: 12px; fill: rgb(42, 63, 95); fill-opacity: 1; white-space: pre;" transform="translate(0,693.25)">4</text></g></g><g class="overaxes-above"/></g></g><g class="polarlayer"/><g class="smithlayer"/><g class="ternarylayer"/><g class="geolayer"/><g class="funnelarealayer"/><g class="pielayer"/><g class="iciclelayer"/><g class="treemaplayer"/><g class="sunburstlayer"/><g class="glimages"/><defs id="topdefs-23dd49"><g class="clips"/><clipPath id="legend23dd49"><rect width="118" height="48" x="0" y="0"/></clipPath></defs><g class="layer-above"><g class="imagelayer"/><g class="shapelayer"/></g><g class="infolayer"><g class="legend" pointer-events="all" transform="translate(970.46,100)"><rect class="bg" shape-rendering="crispEdges" style="stroke: rgb(68, 68, 68); stroke-opacity: 1; fill: rgb(255, 255, 255); fill-opacity: 1; stroke-width: 0px;" width="118" height="48" x="0" y="0"/><g class="scrollbox" transform="" clip-path="url(#legend23dd49)"><g class="groups"><g class="traces" transform="translate(0,14.5)" style="opacity: 1;"><text class="legendtext" text-anchor="start" x="40" y="4.680000000000001" style="font-family: 'Open Sans', verdana, arial, sans-serif; font-size: 12px; fill: rgb(42, 63, 95); fill-opacity: 1; white-space: pre;">GT Vx_mps</text><g class="layers" style="opacity: 1;"><g class="legendfill"/><g class="legendlines"><path class="js-line" d="M5,0h30" style="fill: none; stroke: rgb(0, 0, 255); stroke-opacity: 1; stroke-width: 1.5px;"/></g><g class="legendsymbols"><g class="legendpoints"/></g></g><rect class="legendtoggle" x="0" y="-9.5" width="112.03125" height="19" style="fill: rgb(0, 0, 0); fill-opacity: 0;"/></g><g class="traces" transform="translate(0,33.5)" style="opacity: 1;"><text class="legendtext" text-anchor="start" x="40" y="4.680000000000001" style="font-family: 'Open Sans', verdana, arial, sans-serif; font-size: 12px; fill: rgb(42, 63, 95); fill-opacity: 1; white-space: pre;">Pred Vx_mps</text><g class="layers" style="opacity: 1;"><g class="legendfill"/><g class="legendlines"><path class="js-line" d="M5,0h30" style="fill: none; stroke: rgb(255, 0, 0); stroke-opacity: 1; stroke-dasharray: 9px, 9px; stroke-width: 1.5px;"/></g><g class="legendsymbols"><g class="legendpoints"/></g></g><rect class="legendtoggle" x="0" y="-9.5" width="112.03125" height="19" style="fill: rgb(0, 0, 0); fill-opacity: 0;"/></g></g></g><rect class="scrollbar" rx="20" ry="3" width="0" height="0" style="fill: rgb(128, 139, 164); fill-opacity: 1;" x="0" y="0"/></g><g class="g-gtitle"><text class="gtitle" x="55" y="50" text-anchor="start" dy="0em" style="opacity: 1; font-family: 'Open Sans', verdana, arial, sans-serif; font-size: 17px; fill: rgb(42, 63, 95); fill-opacity: 1; white-space: pre;">WAM v2 Dream: Velocity Prediction vs Ground Truth — Lap_2</text></g><g class="g-xtitle"/><g class="g-x2title"/><g class="g-x3title"/><g class="g-x4title"/><g class="g-ytitle"/><g class="g-y2title"/><g class="g-y3title"/><g class="g-y4title"/><g class="annotation" data-index="0" style="opacity: 1;"><g class="annotation-text-g" transform="rotate(0,516.5,89.5)"><g class="cursor-pointer" transform="translate(485,79)"><rect class="bg" x="0.5" y="0.5" width="63" height="20" style="stroke-width: 1px; stroke: rgb(0, 0, 0); stroke-opacity: 0; fill: rgb(0, 0, 0); fill-opacity: 0;"/><text class="annotation-text" text-anchor="middle" x="31.7734375" y="16" style="font-family: 'Open Sans', verdana, arial, sans-serif; font-size: 16px; fill: rgb(42, 63, 95); fill-opacity: 1; white-space: pre;">Vx (m/s)</text></g></g></g><g class="annotation" data-index="1" style="opacity: 1;"><g class="annotation-text-g" transform="rotate(0,516.5,283.9)"><g class="cursor-pointer" transform="translate(485,273)"><rect class="bg" x="0.5" y="0.5" width="62" height="20" style="stroke-width: 1px; stroke: rgb(0, 0, 0); stroke-opacity: 0; fill: rgb(0, 0, 0); fill-opacity: 0;"/><text class="annotation-text" text-anchor="middle" x="31.4765625" y="16" style="font-family: 'Open Sans', verdana, arial, sans-serif; font-size: 16px; fill: rgb(42, 63, 95); fill-opacity: 1; white-space: pre;">Vy (m/s)</text></g></g></g><g class="annotation" data-index="2" style="opacity: 1;"><g class="annotation-text-g" transform="rotate(0,516.5,478.3)"><g class="cursor-pointer" transform="translate(485,468)"><rect class="bg" x="0.5" y="0.5" width="63" height="20" style="stroke-width: 1px; stroke: rgb(0, 0, 0); stroke-opacity: 0; fill: rgb(0, 0, 0); fill-opacity: 0;"/><text class="annotation-text" text-anchor="middle" x="31.7734375" y="16" style="font-family: 'Open Sans', verdana, arial, sans-serif; font-size: 16px; fill: rgb(42, 63, 95); fill-opacity: 1; white-space: pre;">Vz (m/s)</text></g></g></g><g class="annotation" data-index="3" style="opacity: 1;"><g class="annotation-text-g" transform="rotate(0,516.5,672.7)"><g class="cursor-pointer" transform="translate(451,662)"><rect class="bg" x="0.5" y="0.5" width="130" height="20" style="stroke-width: 1px; stroke: rgb(0, 0, 0); stroke-opacity: 0; fill: rgb(0, 0, 0); fill-opacity: 0;"/><text class="annotation-text" text-anchor="middle" x="65.5703125" y="16" style="font-family: 'Open Sans', verdana, arial, sans-serif; font-size: 16px; fill: rgb(42, 63, 95); fill-opacity: 1; white-space: pre;">Speed Error (m/s)</text></g></g></g></g></svg>