<svg class="main-svg" xmlns="http://www.w3.org/2000/svg" xmlns:xlink="http://www.w3.org/1999/xlink" width="900" height="600" style="" viewBox="0 0 900 600"><rect x="0" y="0" width="900" height="600" style="fill: rgb(255, 255, 255); fill-opacity: 1;"/><defs id="defs-9f7c49"><g class="clips"><clipPath id="clip9f7c49xyplot" class="plotclip"><rect width="722" height="193.2"/></clipPath><clipPath id="clip9f7c49x2y2plot" class="plotclip"><rect width="722" height="193.20000000000002"/></clipPath><clipPath class="axesclip" id="clip9f7c49x"><rect x="80" y="0" width="722" height="600"/></clipPath><clipPath class="axesclip" id="clip9f7c49y"><rect x="0" y="100" width="900" height="193.2"/></clipPath><clipPath class="axesclip" id="clip9f7c49xy"><rect x="80" y="100" width="722" height="193.2"/></clipPath><clipPath class="axesclip" id="clip9f7c49y2"><rect x="0" y="326.8" width="900" height="193.20000000000002"/></clipPath><clipPath class="axesclip" id="clip9f7c49xy2"><rect x="80" y="326.8" width="722" height="193.20000000000002"/></clipPath><clipPath class="axesclip" id="clip9f7c49x2"><rect x="80" y="0" width="722" height="600"/></clipPath><clipPath class="axesclip" id="clip9f7c49x2y"><rect x="80" y="100" width="722" height="193.2"/></clipPath><clipPath class="axesclip" id="clip9f7c49x2y2"><rect x="80" y="326.8" width="722" height="193.20000000000002"/></clipPath></g><g class="gradients"/><g class="patterns"/></defs><g class="bglayer"><rect class="bg" x="80" y="100" width="722" height="193.2" style="fill: rgb(229, 236, 246); fill-opacity: 1; stroke-width: 0;"/><rect class="bg" x="80" y="326.8" width="722" height="193.20000000000002" style="fill: rgb(229, 236, 246); fill-opacity: 1; stroke-width: 0;"/></g><g class="layer-below"><g class="imagelayer"/><g class="shapelayer"/></g><g class="cartesianlayer"><g class="subplot xy"><g class="layer-subplot"><g class="shapelayer"/><g class="imagelayer"/></g><g class="minor-gridlayer"><g class="x"/><g class="y"/></g><g class="gridlayer"><g class="x"><path class="xgrid crisp" transform="translate(168.67000000000002,0)" d="M0,100v193.2" style="stroke: rgb(255, 255, 255); stroke-opacity: 1; stroke-width: 1px;"/><path class="xgrid crisp" transform="translate(259.14,0)" d="M0,100v193.2" style="stroke: rgb(255, 255, 255); stroke-opacity: 1; stroke-width: 1px;"/><path class="xgrid crisp" transform="translate(349.62,0)" d="M0,100v193.2" style="stroke: rgb(255, 255, 255); stroke-opacity: 1; stroke-width: 1px;"/><path class="xgrid crisp" transform="translate(440.1,0)" d="M0,100v193.2" style="stroke: rgb(255, 255, 255); stroke-opacity: 1; stroke-width: 1px;"/><path class="xgrid crisp" transform="translate(530.5699999999999,0)" d="M0,100v193.2" style="stroke: rgb(255, 255, 255); stroke-opacity: 1; stroke-width: 1px;"/><path class="xgrid crisp" transform="translate(621.05,0)" d="M0,100v193.2" style="stroke: rgb(255, 255, 255); stroke-opacity: 1; stroke-width: 1px;"/><path class="xgrid crisp" transform="translate(711.52,0)" d="M0,100v193.2" style="stroke: rgb(255, 255, 255); stroke-opacity: 1; stroke-width: 1px;"/></g><g class="y"><path class="ygrid crisp" transform="translate(0,271.53)" d="M80,0h722" style="stroke: rgb(255, 255, 255); stroke-opacity: 1; stroke-width: 1px;"/><path class="ygrid crisp" transform="translate(0,238.69)" d="M80,0h722" style="stroke: rgb(255, 255, 255); stroke-opacity: 1; stroke-width: 1px;"/><path class="ygrid crisp" transform="translate(0,195.29000000000002)" d="M80,0h722" style="stroke: rgb(255, 255, 255); stroke-opacity: 1; stroke-width: 1px;"/><path class="ygrid crisp" transform="translate(0,162.46)" d="M80,0h722" style="stroke: rgb(255, 255, 255); stroke-opacity: 1; stroke-width: 1px;"/><path class="ygrid crisp" transform="translate(0,129.62)" d="M80,0h722" style="stroke: rgb(255, 255, 255); stroke-opacity: 1; stroke-width: 1px;"/></g></g><g class="zerolinelayer"/><g class="layer-between"><g class="shapelayer"/><g class="imagelayer"/></g><path class="xlines-below"/><path class="ylines-below"/><g class="overlines-below"/><g class="xaxislayer-below"/><g class="yaxislayer-below"/><g class="overaxes-below"/><g class="overplot"><g class="xy" transform="translate(80,100)" clip-path="url(#clip9f7c49xyplot)"><g class="scatterlayer mlayer"><g class="trace scatter trace2b4d2b" style="stroke-miterlimit: 2; opacity: 1;"><g class="fills"/><g class="errorbars"/><g class="lines"><path class="js-line" d="M0,9.66L1.81,14.26L3.62,16.32L5.43,17.41L7.24,19.56L10.86,30.84L12.67,34.38L16.29,40.27L18.1,41.47L21.71,45.82L23.52,46.5L25.33,47.1L27.14,45.85L30.76,50.64L32.57,52.02L34.38,52.33L36.19,53.78L41.62,59.26L43.43,59.45L45.24,60.43L47.05,63.52L48.86,66.88L50.67,68.07L52.48,68.87L54.29,70.8L57.9,72.72L59.71,76.99L61.52,80.33L63.33,81.4L65.14,80.99L66.95,83.88L70.57,88.67L72.38,90.13L76,85.84L77.81,89.67L79.62,90.96L81.43,94.99L83.24,88.97L85.05,94.34L86.86,97.57L88.67,97.95L90.48,98.21L92.29,101.04L94.1,103.03L95.9,102.18L97.71,106.02L99.52,100.94L103.14,109.81L104.95,111.77L108.57,114.92L110.38,116.16L112.19,115.41L114,117.19L115.81,119.47L117.62,110.6L119.43,117.02L121.24,119.63L124.86,123.15L126.67,122.8L128.48,125.17L130.29,123.88L132.1,125.68L133.9,124.75L137.52,128.13L139.33,129L141.14,122.42L142.95,129.75L144.76,123.06L146.57,122.64L148.38,129.15L150.19,129.56L152,122.54L153.81,124.57L155.62,131.76L157.43,130.89L159.24,134.44L161.05,134.03L162.86,132.21L164.67,134.33L166.48,134.74L168.29,132.94L170.1,133.7L171.9,137.12L173.71,138.56L175.52,134.71L177.33,132.31L179.14,133.82L180.95,131.15L182.76,133.54L186.38,132.53L188.19,129.45L190,131.22L191.81,134.95L193.62,136.59L195.43,134.85L199.05,140.25L200.86,141.6L202.67,135.05L204.48,137.53L206.29,133.54L208.1,136.77L209.9,138.71L211.71,133.81L213.52,140.38L215.33,141.2L218.95,142.73L220.76,141.92L222.57,143.31L224.38,139.59L228,146.57L229.81,146.41L233.43,143.3L235.24,146.37L237.05,144.86L238.86,147.1L240.67,148.66L242.48,148.37L244.29,148.8L246.1,147.77L247.9,150.48L249.71,150.8L251.52,149.85L253.33,137.21L256.95,149.87L258.76,150.73L260.57,151.52L262.38,148.79L264.19,146.72L266,146.55L267.81,149.73L269.62,150.93L271.43,152.53L273.24,149.7L275.05,146.16L276.86,150.38L282.29,154.79L284.1,154.37L285.9,155.76L287.71,153.61L289.52,153.15L291.33,155.29L293.14,159.01L294.95,156.61L296.76,155.79L298.57,156.22L302.19,154.12L304,154.28L305.81,154.02L307.62,156.89L309.43,157.44L311.24,157.14L313.05,152.14L314.86,150.9L316.67,143.69L318.48,143.3L320.29,151.38L322.1,151.22L325.71,153.63L327.52,159.11L329.33,158.01L331.14,159.19L334.76,159.9L336.57,155.04L338.38,158.7L340.19,158.7L342,159.27L343.81,157.33L349.24,162.27L351.05,162.45L352.86,161.97L354.67,163.55L356.48,163.56L358.29,162.42L360.1,162.87L361.9,159.9L363.71,154.09L365.52,161.19L367.33,161.75L369.14,154.36L370.95,159.14L372.76,161.01L374.57,163.28L376.38,162.11L380,165.21L381.81,163.23L383.62,166.75L385.43,166.58L387.24,165.53L389.05,165.72L390.86,165.33L392.67,165.89L394.48,163.82L396.29,166.14L398.1,168.16L399.9,167.88L401.71,167.22L403.52,168.39L407.14,169.66L408.95,169.11L412.57,171.54L414.38,170.33L416.19,169.15L418,169.16L419.81,169.86L421.62,167.88L423.43,167.2L425.24,168.57L427.05,169.88L428.86,169.71L430.67,169.95L432.48,168.52L436.1,165.38L437.9,164.56L439.71,164.21L441.52,167.26L443.33,166.64L445.14,171.04L448.76,171.45L450.57,171.7L457.81,173.78L459.62,173.67L461.43,173.38L463.24,174.48L465.05,175.35L466.86,174.82L468.67,172.68L470.48,173.85L474.1,175.79L475.9,176.16L477.71,175.65L479.52,176.31L483.14,175.34L484.95,175.77L486.76,175.21L488.57,175.72L490.38,176.85L492.19,176.83L506.67,177.67L508.48,176.91L512.1,178.2L513.9,177.85L515.71,178.53L517.52,178.4L544.67,179.56L546.48,179.06L551.9,180.37L553.71,179.83L559.14,180.95L560.95,180.13L573.62,180.99L575.43,181.1L586.29,181.5L588.1,181.7L595.33,181.79L597.14,181.98L611.62,182.41L613.43,182.15L620.67,182.49L622.48,182.5L693.05,183.45L694.86,183.38L705.71,183.54L707.52,183.5L722,183.52" style="vector-effect: none; fill: none; stroke: rgb(0, 0, 255); stroke-opacity: 1; stroke-width: 2px; opacity: 1;"/></g><g class="points"/><g class="text"/></g><g class="trace scatter tracef460e3" style="stroke-miterlimit: 2; opacity: 1;"><g class="fills"/><g class="errorbars"/><g class="lines"><path class="js-line" d="M0,15.05L5.43,17.02L7.24,18.74L9.05,26.55L10.86,30.23L12.67,31.02L14.48,33.81L16.29,32.66L18.1,33.61L19.9,35.72L21.71,35.38L23.52,34.55L25.33,36.04L30.76,34.79L32.57,32.1L34.38,35.01L36.19,34.22L38,32.7L39.81,33.93L41.62,32.26L43.43,32.28L45.24,32.84L47.05,30.51L48.86,27.57L50.67,28.83L52.48,27.56L54.29,27.58L56.1,28.31L57.9,26.02L59.71,25.88L61.52,24.82L63.33,23.1L65.14,26.12L68.76,23.18L70.57,22.54L72.38,21.62L74.19,26.79L76,23.21L77.81,22.16L79.62,21.31L81.43,21.39L83.24,23.54L85.05,22.39L86.86,21.55L88.67,22.62L90.48,22.96L92.29,22.25L95.9,22.12L97.71,20.66L99.52,22.69L101.33,20.95L103.14,22.81L104.95,20.81L106.76,21.96L108.57,21.79L112.19,22.82L114,22.02L115.81,21.12L117.62,22.9L121.24,21.41L123.05,21.9L126.67,22.81L128.48,21.69L132.1,23.16L133.9,21.48L135.71,22.58L137.52,22.58L141.14,21.15L142.95,21.89L144.76,22.61L146.57,22.42L148.38,23.4L150.19,22.53L152,23.87L153.81,24.24L159.24,23.09L161.05,23.11L177.33,22.74L179.14,23.38L180.95,22.75L182.76,24.12L186.38,22.8L188.19,23.32L190,24.05L191.81,22.19L193.62,23.74L195.43,23.22L197.24,23.08L199.05,23.9L202.67,24.67L204.48,25.39L206.29,22.7L208.1,24.73L209.9,24.25L211.71,24.56L213.52,23.96L215.33,24.58L217.14,23.69L218.95,23.77L220.76,24.47L222.57,23.71L226.19,23.45L228,24.96L229.81,23.79L231.62,24.28L235.24,23.67L237.05,24.62L238.86,23.56L240.67,24.74L247.9,23.5L249.71,23.91L253.33,24.8L255.14,24.68L256.95,25.1L258.76,23.9L262.38,23.92L264.19,23.88L266,25.17L267.81,24.07L276.86,24.49L278.67,25.37L280.48,22.88L282.29,24.94L285.9,25.34L287.71,24.3L291.33,24.4L293.14,23.86L294.95,25.26L296.76,24.57L300.38,24.11L302.19,24.21L305.81,25.14L307.62,25.29L316.67,24.22L318.48,24.86L320.29,25.04L322.1,24.24L325.71,24.69L327.52,24.94L329.33,25.77L331.14,24.58L332.95,24.14L334.76,25.08L336.57,25.58L338.38,24.03L342,24.45L343.81,23.87L347.43,25.5L349.24,25.36L351.05,25.06L352.86,25.96L354.67,24.64L356.48,25.33L358.29,24.49L360.1,24.96L361.9,24.98L363.71,26.54L365.52,26.04L367.33,24.03L370.95,24.5L372.76,25.15L380,25.32L381.81,25.08L394.48,24.68L396.29,25.03L401.71,24.92L403.52,25.04L410.76,24.89L412.57,24.83L419.81,24.49L421.62,25.37L428.86,24.45L430.67,24.9L434.29,25.69L436.1,25.1L437.9,25.8L439.71,25.29L445.14,25.23L446.95,25.56L454.19,24.8L456,24.89L461.43,24.63L463.24,24.85L479.52,24.61L481.33,25.16L483.14,24.53L484.95,24.7L519.33,24.48L521.14,24.87L528.38,24.48L530.19,24.71L537.43,24.91L539.24,24.71L544.67,24.65L546.48,24.61L559.14,24.6L560.95,24.41L564.57,24.79L566.38,24.61L589.9,24.57L591.71,24.62L602.57,24.59L604.38,24.55L631.52,24.74L633.33,24.74L656.86,24.68L658.67,24.66L693.05,24.67L694.86,24.69L722,24.68" style="vector-effect: none; fill: none; stroke: rgb(255, 0, 0); stroke-opacity: 1; stroke-width: 2px; opacity: 1;"/></g><g class="points"/><g class="text"/></g></g></g></g><g class="zerolinelayer-above"/><path class="xlines-above crisp" d="M0,0" style="fill: none;"/><path class="ylines-above crisp" d="M0,0" style="fill: none;"/><g class="overlines-above"/><g class="xaxislayer-above"/><g class="yaxislayer-above"><g class="ytick"><text text-anchor="end" x="79" y="4.199999999999999" transform="translate(0,271.53)" style="font-family: 'Open Sans', verdana, arial, sans-serif; font-size: 12px; fill: rgb(42, 63, 95); fill-opacity: 1; white-space: pre;">0.01</text></g><g class="ytick"><text text-anchor="end" x="79" y="3.15" style="font-family: 'Open Sans', verdana, arial, sans-serif; font-size: 9px; fill: rgb(42, 63, 95); fill-opacity: 1; white-space: pre;" transform="translate(0,238.69)">2</text></g><g class="ytick"><text text-anchor="end" x="79" y="3.15" style="font-family: 'Open Sans', verdana, arial, sans-serif; font-size: 9px; fill: rgb(42, 63, 95); fill-opacity: 1; white-space: pre;" transform="translate(0,195.29000000000002)">5</text></g><g class="ytick"><text text-anchor="end" x="79" y="4.199999999999999" style="font-family: 'Open Sans', verdana, arial, sans-serif; font-size: 12px; fill: rgb(42, 63, 95); fill-opacity: 1; white-space: pre;" transform="translate(0,162.46)">0.1</text></g><g class="ytick"><text text-anchor="end" x="79" y="3.15" style="font-family: 'Open Sans', verdana, arial, sans-serif; font-size: 9px; fill: rgb(42, 63, 95); fill-opacity: 1; white-space: pre;" transform="translate(0,129.62)">2</text></g></g><g class="overaxes-above"/></g><g class="subplot x2y2"><g class="layer-subplot"><g class="shapelayer"/><g class="imagelayer"/></g><g class="minor-gridlayer"><g class="x2"/><g class="y2"/></g><g class="gridlayer"><g class="x2"><path class="x2grid crisp" transform="translate(168.67000000000002,0)" d="M0,326.8v193.20000000000002" style="stroke: rgb(255, 255, 255); stroke-opacity: 1; stroke-width: 1px;"/><path class="x2grid crisp" transform="translate(259.14,0)" d="M0,326.8v193.20000000000002" style="stroke: rgb(255, 255, 255); stroke-opacity: 1; stroke-width: 1px;"/><path class="x2grid crisp" transform="translate(349.62,0)" d="M0,326.8v193.20000000000002" style="stroke: rgb(255, 255, 255); stroke-opacity: 1; stroke-width: 1px;"/><path class="x2grid crisp" transform="translate(440.1,0)" d="M0,326.8v193.20000000000002" style="stroke: rgb(255, 255, 255); stroke-opacity: 1; stroke-width: 1px;"/><path class="x2grid crisp" transform="translate(530.5699999999999,0)" d="M0,326.8v193.20000000000002" style="stroke: rgb(255, 255, 255); stroke-opacity: 1; stroke-width: 1px;"/><path class="x2grid crisp" transform="translate(621.05,0)" d="M0,326.8v193.20000000000002" style="stroke: rgb(255, 255, 255); stroke-opacity: 1; stroke-width: 1px;"/><path class="x2grid crisp" transform="translate(711.52,0)" d="M0,326.8v193.20000000000002" style="stroke: rgb(255, 255, 255); stroke-opacity: 1; stroke-width: 1px;"/></g><g class="y2"><path class="y2grid crisp" transform="translate(0,498.99)" d="M80,0h722" style="stroke: rgb(255, 255, 255); stroke-opacity: 1; stroke-width: 1px;"/><path class="y2grid crisp" transform="translate(0,462.68)" d="M80,0h722" style="stroke: rgb(255, 255, 255); stroke-opacity: 1; stroke-width: 1px;"/><path class="y2grid crisp" transform="translate(0,426.38)" d="M80,0h722" style="stroke: rgb(255, 255, 255); stroke-opacity: 1; stroke-width: 1px;"/><path class="y2grid crisp" transform="translate(0,390.08000000000004)" d="M80,0h722" style="stroke: rgb(255, 255, 255); stroke-opacity: 1; stroke-width: 1px;"/><path class="y2grid crisp" transform="translate(0,353.78000000000003)" d="M80,0h722" style="stroke: rgb(255, 255, 255); stroke-opacity: 1; stroke-width: 1px;"/></g></g><g class="zerolinelayer"/><g class="layer-between"><g class="shapelayer"/><g class="imagelayer"/></g><path class="xlines-below"/><path class="ylines-below"/><g class="overlines-below"/><g class="xaxislayer-below"/><g class="yaxislayer-below"/><g class="overaxes-below"/><g class="overplot"><g class="x2y2" transform="translate(80,326.8)" clip-path="url(#clip9f7c49x2y2plot)"><g class="scatterlayer mlayer"><g class="trace scatter trace0817cc" style="stroke-miterlimit: 2; opacity: 1;"><g class="fills"/><g class="errorbars"/><g class="lines"><path class="js-line" d="M0,35.03L3.62,24.11L5.43,20.59L10.86,13.18L12.67,11.32L14.48,9.66L16.29,9.66L114,10.41L115.81,10.44L213.52,12.8L215.33,12.86L298.57,16.34L300.38,16.44L369.14,20.59L370.95,20.72L425.24,25.06L427.05,25.23L477.71,30.44L479.52,30.65L524.76,36.64L526.57,36.91L562.76,43.03L564.57,43.37L595.33,50L597.14,50.44L622.48,57.44L624.29,58.01L644.19,65.1L646,65.84L662.29,73.38L664.1,74.35L676.76,82.1L678.57,83.38L687.62,90.73L689.43,92.43L696.67,100.34L698.48,102.68L703.9,110.95L705.71,114.27L711.14,127.05L712.95,132.79L716.57,148.9L718.38,161.68L720.19,183.54L720.1934565508309,4057.2000000000003L722,4057.2000000000003" style="vector-effect: none; fill: none; stroke: rgb(0, 128, 0); stroke-opacity: 1; stroke-width: 2px; opacity: 1;"/></g><g class="points"/><g class="text"/></g></g></g></g><g class="zerolinelayer-above"/><path class="xlines-above crisp" d="M0,0" style="fill: none;"/><path class="ylines-above crisp" d="M0,0" style="fill: none;"/><g class="overlines-above"/><g class="xaxislayer-above"><g class="x2tick"><text text-anchor="middle" x="0" y="533" transform="translate(168.67000000000002,0)" style="font-family: 'Open Sans', verdana, arial, sans-serif; font-size: 12px; fill: rgb(42, 63, 95); fill-opacity: 1; white-space: pre;">50</text></g><g class="x2tick"><text text-anchor="middle" x="0" y="533" style="font-family: 'Open Sans', verdana, arial, sans-serif; font-size: 12px; fill: rgb(42, 63, 95); fill-opacity: 1; white-space: pre;" transform="translate(259.14,0)">100</text></g><g class="x2tick"><text text-anchor="middle" x="0" y="533" style="font-family: 'Open Sans', verdana, arial, sans-serif; font-size: 12px; fill: rgb(42, 63, 95); fill-opacity: 1; white-space: pre;" transform="translate(349.62,0)">150</text></g><g class="x2tick"><text text-anchor="middle" x="0" y="533" style="font-family: 'Open Sans', verdana, arial, sans-serif; font-size: 12px; fill: rgb(42, 63, 95); fill-opacity: 1; white-space: pre;" transform="translate(440.1,0)">200</text></g><g class="x2tick"><text text-anchor="middle" x="0" y="533" style="font-family: 'Open Sans', verdana, arial, sans-serif; font-size: 12px; fill: rgb(42, 63, 95); fill-opacity: 1; white-space: pre;" transform="translate(530.5699999999999,0)">250</text></g><g class="x2tick"><text text-anchor="middle" x="0" y="533" style="font-family: 'Open Sans', verdana, arial, sans-serif; font-size: 12px; fill: rgb(42, 63, 95); fill-opacity: 1; white-space: pre;" transform="translate(621.05,0)">300</text></g><g class="x2tick"><text text-anchor="middle" x="0" y="533" style="font-family: 'Open Sans', verdana, arial, sans-serif; font-size: 12px; fill: rgb(42, 63, 95); fill-opacity: 1; white-space: pre;" transform="translate(711.52,0)">350</text></g><g class="x2tick"><text text-anchor="middle" x="0" y="533" style="font-family: 'Open Sans', verdana, arial, sans-serif; font-size: 12px; fill: rgb(42, 63, 95); fill-opacity: 1; white-space: pre;" transform="translate(802,0)">400</text></g></g><g class="yaxislayer-above"><g class="y2tick"><text text-anchor="end" x="79" y="4.199999999999999" transform="translate(0,498.99)" style="font-family: 'Open Sans', verdana, arial, sans-serif; font-size: 12px; fill: rgb(42, 63, 95); fill-opacity: 1; white-space: pre;">10n</text></g><g class="y2tick"><text text-anchor="end" x="79" y="4.199999999999999" style="font-family: 'Open Sans', verdana, arial, sans-serif; font-size: 12px; fill: rgb(42, 63, 95); fill-opacity: 1; white-space: pre;" transform="translate(0,462.68)">100n</text></g><g class="y2tick"><text text-anchor="end" x="79" y="4.199999999999999" style="font-family: 'Open Sans', verdana, arial, sans-serif; font-size: 12px; fill: rgb(42, 63, 95); fill-opacity: 1; white-space: pre;" transform="translate(0,426.38)">1μ</text></g><g class="y2tick"><text text-anchor="end" x="79" y="4.199999999999999" style="font-family: 'Open Sans', verdana, arial, sans-serif; font-size: 12px; fill: rgb(42, 63, 95); fill-opacity: 1; white-space: pre;" transform="translate(0,390.08000000000004)">10μ</text></g><g class="y2tick"><text text-anchor="end" x="79" y="4.199999999999999" style="font-family: 'Open Sans', verdana, arial, sans-serif; font-size: 12px; fill: rgb(42, 63, 95); fill-opacity: 1; white-space: pre;" transform="translate(0,353.78000000000003)">100μ</text></g></g><g class="overaxes-above"/></g></g><g class="polarlayer"/><g class="smithlayer"/><g class="ternarylayer"/><g class="geolayer"/><g class="funnelarealayer"/><g class="pielayer"/><g class="iciclelayer"/><g class="treemaplayer"/><g class="sunburstlayer"/><g class="glimages"/><defs id="topdefs-9f7c49"><g class="clips"/><clipPath id="legend9f7c49"><rect width="72" height="67" x="0" y="0"/></clipPath></defs><g class="layer-above"><g class="imagelayer"/><g class="shapelayer"/></g><g class="infolayer"><g class="legend" pointer-events="all" transform="translate(816.44,100)"><rect class="bg" shape-rendering="crispEdges" style="stroke: rgb(68, 68, 68); stroke-opacity: 1; fill: rgb(255, 255, 255); fill-opacity: 1; stroke-width: 0px;" width="72" height="67" x="0" y="0"/><g class="scrollbox" transform="" clip-path="url(#legend9f7c49)"><g class="groups"><g class="traces" transform="translate(0,14.5)" style="opacity: 1;"><text class="legendtext" text-anchor="start" x="40" y="4.680000000000001" style="font-family: 'Open Sans', verdana, arial, sans-serif; font-size: 12px; fill: rgb(42, 63, 95); fill-opacity: 1; white-space: pre;">Train</text><g class="layers" style="opacity: 1;"><g class="legendfill"/><g class="legendlines"><path class="js-line" d="M5,0h30" style="fill: none; stroke: rgb(0, 0, 255); stroke-opacity: 1; stroke-width: 2px;"/></g><g class="legendsymbols"><g class="legendpoints"/></g></g><rect class="legendtoggle" x="0" y="-9.5" width="66.90625" height="19" style="fill: rgb(0, 0, 0); fill-opacity: 0;"/></g><g class="traces" transform="translate(0,33.5)" style="opacity: 1;"><text class="legendtext" text-anchor="start" x="40" y="4.680000000000001" style="font-family: 'Open Sans', verdana, arial, sans-serif; font-size: 12px; fill: rgb(42, 63, 95); fill-opacity: 1; white-space: pre;">Val</text><g class="layers" style="opacity: 1;"><g class="legendfill"/><g class="legendlines"><path class="js-line" d="M5,0h30" style="fill: none; stroke: rgb(255, 0, 0); stroke-opacity: 1; stroke-width: 2px;"/></g><g class="legendsymbols"><g class="legendpoints"/></g></g><rect class="legendtoggle" x="0" y="-9.5" width="66.90625" height="19" style="fill: rgb(0, 0, 0); fill-opacity: 0;"/></g><g class="traces" transform="translate(0,52.5)" style="opacity: 1;"><text class="legendtext" text-anchor="start" x="40" y="4.680000000000001" style="font-family: 'Open Sans', verdana, arial, sans-serif; font-size: 12px; fill: rgb(42, 63, 95); fill-opacity: 1; white-space: pre;">LR</text><g class="layers" style="opacity: 1;"><g class="legendfill"/><g class="legendlines"><path class="js-line" d="M5,0h30" style="fill: none; stroke: rgb(0, 128, 0); stroke-opacity: 1; stroke-width: 2px;"/></g><g class="legendsymbols"><g class="legendpoints"/></g></g><rect class="legendtoggle" x="0" y="-9.5" width="66.90625" height="19" style="fill: rgb(0, 0, 0); fill-opacity: 0;"/></g></g></g><rect class="scrollbar" rx="20" ry="3" width="0" height="0" style="fill: rgb(128, 139, 164); fill-opacity: 1;" x="0" y="0"/></g><g class="g-gtitle"><text class="gtitle" x="45" y="50" text-anchor="start" dy="0em" style="opacity: 1; font-family: 'Open Sans', verdana, arial, sans-serif; font-size: 17px; fill: rgb(42, 63, 95); fill-opacity: 1; white-space: pre;">WAM v2 Training History</text></g><g class="g-xtitle"/><g class="g-x2title"/><g class="g-ytitle"/><g class="g-y2title"/><g class="annotation" data-index="0" style="opacity: 1;"><g class="annotation-text-g" transform="rotate(0,441,89.5)"><g class="cursor-pointer" transform="translate(383,79)"><rect class="bg" x="0.5" y="0.5" width="115" height="20" style="stroke-width: 1px; stroke: rgb(0, 0, 0); stroke-opacity: 0; fill: rgb(0, 0, 0); fill-opacity: 0;"/><text class="annotation-text" text-anchor="middle" x="58.0234375" y="16" style="font-family: 'Open Sans', verdana, arial, sans-serif; font-size: 16px; fill: rgb(42, 63, 95); fill-opacity: 1; white-space: pre;">Loss (log scale)</text></g></g></g><g class="annotation" data-index="1" style="opacity: 1;"><g class="annotation-text-g" transform="rotate(0,441,316.3)"><g class="cursor-pointer" transform="translate(389,306)"><rect class="bg" x="0.5" y="0.5" width="104" height="20" style="stroke-width: 1px; stroke: rgb(0, 0, 0); stroke-opacity: 0; fill: rgb(0, 0, 0); fill-opacity: 0;"/><text class="annotation-text" text-anchor="middle" x="52.2578125" y="16" style="font-family: 'Open Sans', verdana, arial, sans-serif; font-size: 16px; fill: rgb(42, 63, 95); fill-opacity: 1; white-space: pre;">Learning Rate</text></g></g></g></g></svg>