<svg class="main-svg" xmlns="http://www.w3.org/2000/svg" xmlns:xlink="http://www.w3.org/1999/xlink" width="1100" height="900" style="" viewBox="0 0 1100 900"><rect x="0" y="0" width="1100" height="900" style="fill: rgb(255, 255, 255); fill-opacity: 1;"/><defs id="defs-f917aa"><g class="clips"><clipPath id="clipf917aaxyplot" class="plotclip"><rect width="873" height="136.79999999999995"/></clipPath><clipPath id="clipf917aax2y2plot" class="plotclip"><rect width="873" height="136.79999999999995"/></clipPath><clipPath id="clipf917aax3y3plot" class="plotclip"><rect width="873" height="136.8"/></clipPath><clipPath id="clipf917aax4y4plot" class="plotclip"><rect width="873" height="136.8"/></clipPath><clipPath class="axesclip" id="clipf917aax"><rect x="80" y="0" width="873" height="900"/></clipPath><clipPath class="axesclip" id="clipf917aay"><rect x="0" y="100" width="1100" height="136.79999999999995"/></clipPath><clipPath class="axesclip" id="clipf917aaxy"><rect x="80" y="100" width="873" height="136.79999999999995"/></clipPath><clipPath class="axesclip" id="clipf917aay2"><rect x="0" y="294.4" width="1100" height="136.79999999999995"/></clipPath><clipPath class="axesclip" id="clipf917aaxy2"><rect x="80" y="294.4" width="873" height="136.79999999999995"/></clipPath><clipPath class="axesclip" id="clipf917aay3"><rect x="0" y="488.8" width="1100" height="136.8"/></clipPath><clipPath class="axesclip" id="clipf917aaxy3"><rect x="80" y="488.8" width="873" height="136.8"/></clipPath><clipPath class="axesclip" id="clipf917aay4"><rect x="0" y="683.2" width="1100" height="136.8"/></clipPath><clipPath class="axesclip" id="clipf917aaxy4"><rect x="80" y="683.2" width="873" height="136.8"/></clipPath><clipPath class="axesclip" id="clipf917aax2"><rect x="80" y="0" width="873" height="900"/></clipPath><clipPath class="axesclip" id="clipf917aax2y"><rect x="80" y="100" width="873" height="136.79999999999995"/></clipPath><clipPath class="axesclip" id="clipf917aax2y2"><rect x="80" y="294.4" width="873" height="136.79999999999995"/></clipPath><clipPath class="axesclip" id="clipf917aax2y3"><rect x="80" y="488.8" width="873" height="136.8"/></clipPath><clipPath class="axesclip" id="clipf917aax2y4"><rect x="80" y="683.2" width="873" height="136.8"/></clipPath><clipPath class="axesclip" id="clipf917aax3"><rect x="80" y="0" width="873" height="900"/></clipPath><clipPath class="axesclip" id="clipf917aax3y"><rect x="80" y="100" width="873" height="136.79999999999995"/></clipPath><clipPath class="axesclip" id="clipf917aax3y2"><rect x="80" y="294.4" width="873" height="136.79999999999995"/></clipPath><clipPath class="axesclip" id="clipf917aax3y3"><rect x="80" y="488.8" width="873" height="136.8"/></clipPath><clipPath class="axesclip" id="clipf917aax3y4"><rect x="80" y="683.2" width="873" height="136.8"/></clipPath><clipPath class="axesclip" id="clipf917aax4"><rect x="80" y="0" width="873" height="900"/></clipPath><clipPath class="axesclip" id="clipf917aax4y"><rect x="80" y="100" width="873" height="136.79999999999995"/></clipPath><clipPath class="axesclip" id="clipf917aax4y2"><rect x="80" y="294.4" width="873" height="136.79999999999995"/></clipPath><clipPath class="axesclip" id="clipf917aax4y3"><rect x="80" y="488.8" width="873" height="136.8"/></clipPath><clipPath class="axesclip" id="clipf917aax4y4"><rect x="80" y="683.2" width="873" height="136.8"/></clipPath></g><g class="gradients"/><g class="patterns"/></defs><g class="bglayer"><rect class="bg" x="80" y="100" width="873" height="136.79999999999995" style="fill: rgb(229, 236, 246); fill-opacity: 1; stroke-width: 0;"/><rect class="bg" x="80" y="294.4" width="873" height="136.79999999999995" style="fill: rgb(229, 236, 246); fill-opacity: 1; stroke-width: 0;"/><rect class="bg" x="80" y="488.8" width="873" height="136.8" style="fill: rgb(229, 236, 246); fill-opacity: 1; stroke-width: 0;"/><rect class="bg" x="80" y="683.2" width="873" height="136.8" style="fill: rgb(229, 236, 246); fill-opacity: 1; stroke-width: 0;"/></g><g class="layer-below"><g class="imagelayer"/><g class="shapelayer"/></g><g class="cartesianlayer"><g class="subplot xy"><g class="layer-subplot"><g class="shapelayer"/><g class="imagelayer"/></g><g class="minor-gridlayer"><g class="x"/><g class="y"/></g><g class="gridlayer"><g class="x"><path class="xgrid crisp" transform="translate(167.51999999999998,0)" d="M0,100v136.79999999999995" style="stroke: rgb(255, 255, 255); stroke-opacity: 1; stroke-width: 1px;"/><path class="xgrid crisp" transform="translate(255.04,0)" d="M0,100v136.79999999999995" style="stroke: rgb(255, 255, 255); stroke-opacity: 1; stroke-width: 1px;"/><path class="xgrid crisp" transform="translate(342.56,0)" d="M0,100v136.79999999999995" style="stroke: rgb(255, 255, 255); stroke-opacity: 1; stroke-width: 1px;"/><path class="xgrid crisp" transform="translate(430.08,0)" d="M0,100v136.79999999999995" style="stroke: rgb(255, 255, 255); stroke-opacity: 1; stroke-width: 1px;"/><path class="xgrid crisp" transform="translate(517.5899999999999,0)" d="M0,100v136.79999999999995" style="stroke: rgb(255, 255, 255); stroke-opacity: 1; stroke-width: 1px;"/><path class="xgrid crisp" transform="translate(605.11,0)" d="M0,100v136.79999999999995" style="stroke: rgb(255, 255, 255); stroke-opacity: 1; stroke-width: 1px;"/><path class="xgrid crisp" transform="translate(692.63,0)" d="M0,100v136.79999999999995" style="stroke: rgb(255, 255, 255); stroke-opacity: 1; stroke-width: 1px;"/><path class="xgrid crisp" transform="translate(780.15,0)" d="M0,100v136.79999999999995" style="stroke: rgb(255, 255, 255); stroke-opacity: 1; stroke-width: 1px;"/><path class="xgrid crisp" transform="translate(867.67,0)" d="M0,100v136.79999999999995" style="stroke: rgb(255, 255, 255); stroke-opacity: 1; stroke-width: 1px;"/></g><g class="y"><path class="ygrid crisp" transform="translate(0,217.15)" d="M80,0h873" style="stroke: rgb(255, 255, 255); stroke-opacity: 1; stroke-width: 1px;"/><path class="ygrid crisp" transform="translate(0,184.97)" d="M80,0h873" style="stroke: rgb(255, 255, 255); stroke-opacity: 1; stroke-width: 1px;"/><path class="ygrid crisp" transform="translate(0,152.8)" d="M80,0h873" style="stroke: rgb(255, 255, 255); stroke-opacity: 1; stroke-width: 1px;"/><path class="ygrid crisp" transform="translate(0,120.63)" d="M80,0h873" style="stroke: rgb(255, 255, 255); stroke-opacity: 1; stroke-width: 1px;"/></g></g><g class="zerolinelayer"><path class="xzl zl crisp" transform="translate(80,0)" d="M0,100v136.79999999999995" style="stroke: rgb(255, 255, 255); stroke-opacity: 1; stroke-width: 2px;"/></g><g class="layer-between"><g class="shapelayer"/><g class="imagelayer"/></g><path class="xlines-below"/><path class="ylines-below"/><g class="overlines-below"/><g class="xaxislayer-below"/><g class="yaxislayer-below"/><g class="overaxes-below"/><g class="overplot"><g class="xy" transform="translate(80,100)" clip-path="url(#clipf917aaxyplot)"><g class="scatterlayer mlayer"><g class="trace scatter traceec4ee5" style="stroke-miterlimit: 2; opacity: 1;"><g class="fills"/><g class="errorbars"/><g class="lines"><path class="js-line" d="M0,128.83L26.26,119.65L28.44,118.66L48.14,109.48L50.32,108.35L120.34,74.65L122.53,73.75L142.22,65.45L144.41,64.73L161.91,58L164.1,56.99L179.41,50.53L181.6,49.62L231.92,29.34L234.11,28.45L273.5,15.59L275.68,14.97L295.38,10.37L297.56,9.89L310.69,7.92L312.88,7.73L330.38,6.84L332.57,6.9L354.45,8.48L356.64,8.75L406.96,13.64L409.15,13.69L435.41,16.04L437.59,16.35L463.85,20.87L466.04,21.38L481.35,26.03L483.54,26.84L496.67,32.1L498.86,33L516.36,42.21L518.55,43.58L531.68,51.96L533.86,53.43L560.12,73.07L562.31,74.96L597.32,101.43L599.5,102.95L617.01,113.09L619.2,114.2L630.14,119.46L632.32,120.34L641.08,123.67L643.26,124.16L654.2,126.39L656.39,126.68L673.89,129.14L676.08,129.42L682.65,129.86L684.83,129.45L702.34,126.51L704.53,126.08L715.47,123.31L717.65,122.67L741.72,114.59L743.91,113.65L809.55,82.47L811.74,81.58L831.43,73.42L833.62,72.78L859.87,66.09L862.06,66.07L873,66.8" style="vector-effect: none; fill: none; stroke: rgb(0, 0, 255); stroke-opacity: 1; stroke-width: 1.5px; opacity: 1;"/></g><g class="points"/><g class="text"/></g><g class="trace scatter trace3e9322" style="stroke-miterlimit: 2; opacity: 1;"><g class="fills"/><g class="errorbars"/><g class="lines"><path class="js-line" d="M0,128.87L21.88,123.21L24.07,122.38L76.58,103.82L78.77,103.2L87.52,100.31L89.71,99.36L100.65,95.64L102.83,95.13L111.59,91.69L113.77,91.02L126.9,85.63L129.09,84.38L142.22,78.2L144.41,77.39L168.47,66.8L170.66,65.96L220.98,48.54L223.17,47.96L245.05,42.56L247.24,42.12L286.62,32.48L288.81,32.16L297.56,31.78L299.75,31.92L315.07,32.85L317.26,33.09L374.14,39.63L376.33,40L391.65,43.28L393.83,43.87L409.15,47.23L411.34,47.42L415.71,47.48L417.9,47.42L428.84,48.36L431.03,48.17L439.78,47.92L441.97,48.05L452.91,49.22L455.1,49.78L470.41,53.79L472.6,54.59L492.29,61.61L494.48,62.16L505.42,65.42L507.61,66.09L518.55,70.31L520.74,71.11L531.68,75.46L533.86,76.5L564.5,93.06L566.68,94.07L595.13,107.05L597.32,108.03L634.51,123.47L636.7,124.23L647.64,126.48L649.83,126.88L658.58,127.26L660.77,127.28L671.71,127.05L673.89,126.88L695.77,124.24L697.96,123.88L724.22,118.75L726.41,118.23L774.54,105.1L776.73,104.47L787.67,102.09L789.86,101.74L813.92,95.24L816.11,94.41L833.62,88.65L835.8,87.69L848.93,82.91L851.12,82.22L859.87,79.88L862.06,79.56L870.81,78.81L873,78.85" style="vector-effect: none; fill: none; stroke: rgb(255, 0, 0); stroke-opacity: 1; stroke-dasharray: 9px, 9px; stroke-width: 1.5px; opacity: 1;"/></g><g class="points"/><g class="text"/></g></g></g></g><g class="zerolinelayer-above"/><path class="xlines-above crisp" d="M0,0" style="fill: none;"/><path class="ylines-above crisp" d="M0,0" style="fill: none;"/><g class="overlines-above"/><g class="xaxislayer-above"/><g class="yaxislayer-above"><g class="ytick"><text text-anchor="end" x="79" y="4.199999999999999" transform="translate(0,217.15)" style="font-family: 'Open Sans', verdana, arial, sans-serif; font-size: 12px; fill: rgb(42, 63, 95); fill-opacity: 1; white-space: pre;">15</text></g><g class="ytick"><text text-anchor="end" x="79" y="4.199999999999999" style="font-family: 'Open Sans', verdana, arial, sans-serif; font-size: 12px; fill: rgb(42, 63, 95); fill-opacity: 1; white-space: pre;" transform="translate(0,184.97)">20</text></g><g class="ytick"><text text-anchor="end" x="79" y="4.199999999999999" style="font-family: 'Open Sans', verdana, arial, sans-serif; font-size: 12px; fill: rgb(42, 63, 95); fill-opacity: 1; white-space: pre;" transform="translate(0,152.8)">25</text></g><g class="ytick"><text text-anchor="end" x="79" y="4.199999999999999" style="font-family: 'Open Sans', verdana, arial, sans-serif; font-size: 12px; fill: rgb(42, 63, 95); fill-opacity: 1; white-space: pre;" transform="translate(0,120.63)">30</text></g></g><g class="overaxes-above"/></g><g class="subplot x2y2"><g class="layer-subplot"><g class="shapelayer"/><g class="imagelayer"/></g><g class="minor-gridlayer"><g class="x2"/><g class="y2"/></g><g class="gridlayer"><g class="x2"><path class="x2grid crisp" transform="translate(167.51999999999998,0)" d="M0,294.4v136.79999999999995" style="stroke: rgb(255, 255, 255); stroke-opacity: 1; stroke-width: 1px;"/><path class="x2grid crisp" transform="translate(255.04,0)" d="M0,294.4v136.79999999999995" style="stroke: rgb(255, 255, 255); stroke-opacity: 1; stroke-width: 1px;"/><path class="x2grid crisp" transform="translate(342.56,0)" d="M0,294.4v136.79999999999995" style="stroke: rgb(255, 255, 255); stroke-opacity: 1; stroke-width: 1px;"/><path class="x2grid crisp" transform="translate(430.08,0)" d="M0,294.4v136.79999999999995" style="stroke: rgb(255, 255, 255); stroke-opacity: 1; stroke-width: 1px;"/><path class="x2grid crisp" transform="translate(517.5899999999999,0)" d="M0,294.4v136.79999999999995" style="stroke: rgb(255, 255, 255); stroke-opacity: 1; stroke-width: 1px;"/><path class="x2grid crisp" transform="translate(605.11,0)" d="M0,294.4v136.79999999999995" style="stroke: rgb(255, 255, 255); stroke-opacity: 1; stroke-width: 1px;"/><path class="x2grid crisp" transform="translate(692.63,0)" d="M0,294.4v136.79999999999995" style="stroke: rgb(255, 255, 255); stroke-opacity: 1; stroke-width: 1px;"/><path class="x2grid crisp" transform="translate(780.15,0)" d="M0,294.4v136.79999999999995" style="stroke: rgb(255, 255, 255); stroke-opacity: 1; stroke-width: 1px;"/><path class="x2grid crisp" transform="translate(867.67,0)" d="M0,294.4v136.79999999999995" style="stroke: rgb(255, 255, 255); stroke-opacity: 1; stroke-width: 1px;"/></g><g class="y2"><path class="y2grid crisp" transform="translate(0,418.4)" d="M80,0h873" style="stroke: rgb(255, 255, 255); stroke-opacity: 1; stroke-width: 1px;"/><path class="y2grid crisp" transform="translate(0,333.4)" d="M80,0h873" style="stroke: rgb(255, 255, 255); stroke-opacity: 1; stroke-width: 1px;"/></g></g><g class="zerolinelayer"><path class="x2zl zl crisp" transform="translate(80,0)" d="M0,294.4v136.79999999999995" style="stroke: rgb(255, 255, 255); stroke-opacity: 1; stroke-width: 2px;"/><path class="y2zl zl crisp" transform="translate(0,375.9)" d="M80,0h873" style="stroke: rgb(255, 255, 255); stroke-opacity: 1; stroke-width: 2px;"/></g><g class="layer-between"><g class="shapelayer"/><g class="imagelayer"/></g><path class="xlines-below"/><path class="ylines-below"/><g class="overlines-below"/><g class="xaxislayer-below"/><g class="yaxislayer-below"/><g class="overaxes-below"/><g class="overplot"><g class="x2y2" transform="translate(80,294.4)" clip-path="url(#clipf917aax2y2plot)"><g class="scatterlayer mlayer"><g class="trace scatter trace18c3c3" style="stroke-miterlimit: 2; opacity: 1;"><g class="fills"/><g class="errorbars"/><g class="lines"><path class="js-line" d="M0,69.67L4.38,72.28L6.56,72.84L8.75,73.98L10.94,73.73L13.13,73.34L15.32,73.9L24.07,76.39L26.26,75.81L32.82,78.43L35.01,79.32L39.38,79.99L41.57,80.42L45.95,80.59L48.14,80.63L54.7,83.49L56.89,83.5L63.45,83.92L65.64,84.38L70.02,84.23L72.2,84.03L74.39,83.75L76.58,84.73L78.77,84.95L80.95,83.77L83.14,84.46L85.33,84.22L94.08,84.9L96.27,84.14L98.46,85.06L100.65,84.04L102.83,84.31L105.02,83.51L109.4,83.71L111.59,82.22L113.77,82.53L115.96,81.33L120.34,80.87L122.53,80.09L126.9,80.06L129.09,80.21L137.84,78.37L140.03,78.8L144.41,78.17L146.59,78.04L155.35,78.01L157.53,78.97L159.72,77.48L161.91,77.7L166.29,76.4L168.47,77.13L172.85,75.12L175.04,76.49L177.23,76.03L179.41,76.58L181.6,76.32L183.79,77.18L192.54,77.94L194.73,77.39L196.92,77.85L199.11,76.87L201.29,75.7L203.48,75.39L207.86,73.88L210.05,75.26L212.23,76.42L214.42,76.65L218.8,78.25L220.98,77.36L223.17,78.31L225.36,77.43L231.92,77.76L234.11,76.77L238.49,76.58L240.68,76.06L245.05,76.44L247.24,75.74L251.62,76.86L253.8,76.4L258.18,75.4L260.37,76.29L269.12,74.98L271.31,75.2L275.68,73.96L277.87,74.07L282.25,72.82L284.44,70.63L286.62,70.31L288.81,68.95L295.38,62.36L297.56,62.14L299.75,61.97L301.94,63.22L306.32,62.95L308.5,61.67L312.88,61.57L315.07,60.79L317.26,59.6L319.44,54.95L321.63,51.88L323.82,47.51L330.38,42.41L332.57,40.97L334.76,40.37L336.95,38.99L341.32,40.21L343.51,39.51L345.7,38.91L347.89,39.28L350.08,37.44L352.26,37.2L354.45,35.74L356.64,35.59L358.83,35.95L361.02,35.25L365.39,35.4L367.58,37.02L369.77,37.2L371.95,36.07L380.71,29.42L382.89,27.39L387.27,19.24L389.46,16.88L391.65,12.41L393.83,10.19L396.02,9.42L398.21,7.11L400.4,6.84L402.59,8.28L406.96,15.27L409.15,19.83L411.34,22.95L413.53,24.45L415.71,27.6L417.9,28.76L424.47,33.7L426.65,33.66L433.22,33.1L435.41,32.22L437.59,31.85L439.78,32.6L441.97,34.43L444.16,37.65L455.1,65.76L457.29,69.87L459.47,70.26L461.66,69.11L463.85,66.95L466.04,66.51L470.41,64.53L472.6,65.11L476.98,65.51L479.17,66.79L481.35,66.66L483.54,67.89L492.29,74.84L494.48,75.05L496.67,75.35L498.86,73.75L503.23,70.52L505.42,69.93L509.8,68.47L511.98,69.57L522.92,76.68L525.11,76.68L529.49,76.24L531.68,75.14L536.05,73.3L538.24,73.74L540.43,71.36L542.62,70.15L546.99,68.06L549.18,68.36L551.37,68.44L553.56,67.01L557.93,67.54L560.12,68.87L566.68,70.66L568.87,69.84L573.25,69.99L575.44,69.17L579.81,67.76L582,69.24L584.19,68.62L586.38,69.94L588.56,70.59L590.75,72.64L595.13,78.27L597.32,79.7L599.5,82.6L601.69,81.23L606.07,81.72L608.26,82.81L610.44,82.29L612.63,83.51L619.2,83.03L621.38,85.48L623.57,85.13L625.76,86.71L630.14,86.02L632.32,86.42L634.51,89.23L636.7,89.91L638.89,91.23L641.08,88.74L643.26,87.64L645.45,88.06L647.64,89.23L649.83,87.97L652.02,87.99L654.2,89L658.58,89.1L660.77,90.9L662.95,90.32L665.14,92.74L669.52,93.95L671.71,93.19L673.89,93.17L676.08,91.98L678.27,93.56L680.46,94.2L682.65,96.34L684.83,94.2L687.02,93.59L689.21,93.81L691.4,95.45L693.59,95.28L695.77,94.36L697.96,94.38L704.53,92.52L706.71,91.41L708.9,91.91L711.09,89.06L713.28,89.69L715.47,88.66L719.84,88.57L722.03,87.75L724.22,87.08L726.41,87.84L728.59,86.62L730.78,88.13L737.35,84.26L739.53,84.29L746.1,82.16L748.29,82.2L752.66,80.71L754.85,80.72L757.04,79.78L759.23,79.83L761.41,79.71L763.6,78.7L765.79,78.57L767.98,77.68L772.35,78.17L774.54,76.81L783.29,76.15L785.48,75.38L792.05,75.49L794.23,76.03L800.8,76.19L802.98,75.75L807.36,77.28L809.55,77.39L811.74,77.04L813.92,77.63L818.3,78.85L820.49,78.29L824.86,78.84L827.05,79.23L833.62,79.73L835.8,78.84L837.99,79.75L840.18,79.09L844.56,80.38L846.74,80.14L848.93,80.72L851.12,82.16L853.31,83.1L855.5,85.67L857.68,85.09L859.87,88.46L862.06,90.09L864.25,88.81L868.62,92.56L870.81,92.04L873,91.58" style="vector-effect: none; fill: none; stroke: rgb(0, 0, 255); stroke-opacity: 1; stroke-width: 1.5px; opacity: 1;"/></g><g class="points"/><g class="text"/></g><g class="trace scatter trace6a43c1" style="stroke-miterlimit: 2; opacity: 1;"><g class="fills"/><g class="errorbars"/><g class="lines"><path class="js-line" d="M0,69.23L13.13,75.99L15.32,77.26L24.07,80.95L26.26,81.84L30.63,83.35L32.82,84.29L39.38,87.79L41.57,88.02L50.32,90.33L52.51,90.78L63.45,91.61L65.64,91.93L72.2,91.87L74.39,92.43L78.77,92.45L80.95,91.76L87.52,93.14L89.71,93.42L98.46,95.73L100.65,95.67L105.02,95.59L107.21,96.32L111.59,95.76L113.77,94.97L124.71,91.87L126.9,92.23L140.03,92.96L142.22,93.23L146.59,94.13L148.78,95.01L155.35,96.14L157.53,96.59L201.29,98.31L203.48,98.41L214.42,98.44L216.61,98.55L220.98,98.49L223.17,98.65L231.92,98.02L234.11,97.82L247.24,96.46L249.43,96.5L255.99,96.9L258.18,96.92L264.74,96.95L266.93,96.71L273.5,95.59L275.68,94.79L282.25,91.14L284.44,89.37L291,85.08L293.19,83.69L299.75,81.78L301.94,81.05L310.69,78.1L312.88,76.97L319.44,72.13L321.63,70.29L339.14,54.37L341.32,52.84L352.26,45.68L354.45,44.58L363.2,41.4L365.39,41L382.89,39.17L385.08,39.14L391.65,40.01L393.83,40.83L398.21,43.46L400.4,45.52L404.77,51.45L406.96,55.2L411.34,61.33L413.53,63.02L422.28,64.94L424.47,66.04L428.84,67.16L431.03,67.22L435.41,67.15L437.59,67.79L444.16,70.72L446.35,70.87L450.72,73.43L452.91,73.59L457.29,76.36L459.47,77.95L461.66,79.53L463.85,82.26L485.73,102.35L487.92,104.04L501.05,109.84L503.23,110.2L507.61,111.5L509.8,112.89L514.17,115.49L516.36,115.95L522.92,115.92L525.11,115.76L529.49,116.6L531.68,117.65L536.05,119.78L538.24,120.16L542.62,120.25L544.8,119.3L549.18,118.67L551.37,118.82L553.56,119.24L555.74,120.53L560.12,120.49L562.31,119.91L568.87,118.74L571.06,118.04L575.44,118.14L577.62,117.6L579.81,116.9L582,117.08L588.56,115.96L590.75,116.6L603.88,116.5L606.07,116.1L610.44,116.93L612.63,116.74L614.82,116.3L617.01,116.88L627.95,116.76L630.14,116.01L634.51,115.43L636.7,113.84L638.89,111.39L641.08,110.36L658.58,96.92L660.77,95.92L662.95,94.81L665.14,94.63L671.71,94.74L673.89,94.97L704.53,93.97L706.71,93.98L719.84,94.5L722.03,94.69L737.35,96.74L739.53,97.11L748.29,99.52L750.47,100.33L770.17,108.87L772.35,108.98L774.54,109.52L776.73,109.25L778.92,109.46L781.11,110.49L787.67,111.81L789.86,112.08L798.61,114.18L800.8,114.42L811.74,116.99L813.92,117.06L822.68,116.55L824.86,116.75L837.99,117.84L840.18,117.79L855.5,119.6L857.68,120.85L868.62,128.09L870.81,129.59L873,129.96" style="vector-effect: none; fill: none; stroke: rgb(255, 0, 0); stroke-opacity: 1; stroke-dasharray: 9px, 9px; stroke-width: 1.5px; opacity: 1;"/></g><g class="points"/><g class="text"/></g></g></g></g><g class="zerolinelayer-above"/><path class="xlines-above crisp" d="M0,0" style="fill: none;"/><path class="ylines-above crisp" d="M0,0" style="fill: none;"/><g class="overlines-above"/><g class="xaxislayer-above"/><g class="yaxislayer-above"><g class="y2tick"><text text-anchor="end" x="79" y="4.199999999999999" transform="translate(0,418.4)" style="font-family: 'Open Sans', verdana, arial, sans-serif; font-size: 12px; fill: rgb(42, 63, 95); fill-opacity: 1; white-space: pre;">−1</text></g><g class="y2tick"><text text-anchor="end" x="79" y="4.199999999999999" style="font-family: 'Open Sans', verdana, arial, sans-serif; font-size: 12px; fill: rgb(42, 63, 95); fill-opacity: 1; white-space: pre;" transform="translate(0,375.9)">0</text></g><g class="y2tick"><text text-anchor="end" x="79" y="4.199999999999999" style="font-family: 'Open Sans', verdana, arial, sans-serif; font-size: 12px; fill: rgb(42, 63, 95); fill-opacity: 1; white-space: pre;" transform="translate(0,333.4)">1</text></g></g><g class="overaxes-above"/></g><g class="subplot x3y3"><g class="layer-subplot"><g class="shapelayer"/><g class="imagelayer"/></g><g class="minor-gridlayer"><g class="x3"/><g class="y3"/></g><g class="gridlayer"><g class="x3"><path class="x3grid crisp" transform="translate(167.51999999999998,0)" d="M0,488.8v136.8" style="stroke: rgb(255, 255, 255); stroke-opacity: 1; stroke-width: 1px;"/><path class="x3grid crisp" transform="translate(255.04,0)" d="M0,488.8v136.8" style="stroke: rgb(255, 255, 255); stroke-opacity: 1; stroke-width: 1px;"/><path class="x3grid crisp" transform="translate(342.56,0)" d="M0,488.8v136.8" style="stroke: rgb(255, 255, 255); stroke-opacity: 1; stroke-width: 1px;"/><path class="x3grid crisp" transform="translate(430.08,0)" d="M0,488.8v136.8" style="stroke: rgb(255, 255, 255); stroke-opacity: 1; stroke-width: 1px;"/><path class="x3grid crisp" transform="translate(517.5899999999999,0)" d="M0,488.8v136.8" style="stroke: rgb(255, 255, 255); stroke-opacity: 1; stroke-width: 1px;"/><path class="x3grid crisp" transform="translate(605.11,0)" d="M0,488.8v136.8" style="stroke: rgb(255, 255, 255); stroke-opacity: 1; stroke-width: 1px;"/><path class="x3grid crisp" transform="translate(692.63,0)" d="M0,488.8v136.8" style="stroke: rgb(255, 255, 255); stroke-opacity: 1; stroke-width: 1px;"/><path class="x3grid crisp" transform="translate(780.15,0)" d="M0,488.8v136.8" style="stroke: rgb(255, 255, 255); stroke-opacity: 1; stroke-width: 1px;"/><path class="x3grid crisp" transform="translate(867.67,0)" d="M0,488.8v136.8" style="stroke: rgb(255, 255, 255); stroke-opacity: 1; stroke-width: 1px;"/></g><g class="y3"><path class="y3grid crisp" transform="translate(0,595.26)" d="M80,0h873" style="stroke: rgb(255, 255, 255); stroke-opacity: 1; stroke-width: 1px;"/><path class="y3grid crisp" transform="translate(0,529.07)" d="M80,0h873" style="stroke: rgb(255, 255, 255); stroke-opacity: 1; stroke-width: 1px;"/><path class="y3grid crisp" transform="translate(0,495.97)" d="M80,0h873" style="stroke: rgb(255, 255, 255); stroke-opacity: 1; stroke-width: 1px;"/></g></g><g class="zerolinelayer"><path class="x3zl zl crisp" transform="translate(80,0)" d="M0,488.8v136.8" style="stroke: rgb(255, 255, 255); stroke-opacity: 1; stroke-width: 2px;"/><path class="y3zl zl crisp" transform="translate(0,562.16)" d="M80,0h873" style="stroke: rgb(255, 255, 255); stroke-opacity: 1; stroke-width: 2px;"/></g><g class="layer-between"><g class="shapelayer"/><g class="imagelayer"/></g><path class="xlines-below"/><path class="ylines-below"/><g class="overlines-below"/><g class="xaxislayer-below"/><g class="yaxislayer-below"/><g class="overaxes-below"/><g class="overplot"><g class="x3y3" transform="translate(80,488.8)" clip-path="url(#clipf917aax3y3plot)"><g class="scatterlayer mlayer"><g class="trace scatter tracec9189c" style="stroke-miterlimit: 2; opacity: 1;"><g class="fills"/><g class="errorbars"/><g class="lines"><path class="js-line" d="M0,67.74L6.56,66.75L8.75,68.07L13.13,68.4L15.32,67.41L24.07,67.41L26.26,68.4L37.2,67.41L39.38,68.07L41.57,68.07L43.76,67.08L48.14,69.06L50.32,69.06L54.7,69.39L56.89,70.72L59.08,71.05L61.26,70.05L63.45,70.05L65.64,69.06L70.02,69.39L72.2,70.39L74.39,70.05L76.58,70.72L78.77,70.05L80.95,71.71L87.52,72.7L89.71,72.04L91.89,69.39L94.08,70.39L96.27,69.72L98.46,70.39L100.65,71.05L102.83,70.05L107.21,69.72L109.4,70.72L111.59,69.72L113.77,71.05L115.96,71.71L118.15,71.38L122.53,70.39L124.71,70.72L129.09,71.38L131.28,70.39L137.84,72.7L140.03,72.37L142.22,72.7L144.41,72.04L146.59,71.05L148.78,71.05L153.16,72.37L155.35,71.71L157.53,73.03L159.72,73.03L164.1,73.03L166.29,73.03L170.66,73.36L172.85,74.03L179.41,74.36L181.6,75.02L183.79,74.03L185.98,75.35L190.35,74.69L192.54,74.36L196.92,75.02L199.11,75.35L203.48,71.71L205.67,70.05L212.23,66.75L214.42,65.09L216.61,64.1L218.8,64.76L225.36,63.1L227.55,61.12L229.74,60.13L231.92,58.14L238.49,55.82L240.68,52.18L247.24,40.93L249.43,40.27L251.62,38.28L253.8,38.94L262.56,30.34L264.74,28.68L271.31,25.04L273.5,22.06L282.25,14.45L284.44,13.79L288.81,15.45L291,13.79L295.38,9.49L297.56,8.49L299.75,9.16L301.94,8.83L304.13,9.49L306.32,7.5L310.69,6.84L312.88,9.82L315.07,13.13L317.26,12.8L326.01,14.78L328.2,14.45L330.38,13.79L332.57,14.12L334.76,14.45L336.95,16.44L339.14,17.43L341.32,20.08L345.7,23.39L347.89,23.06L350.08,21.4L352.26,21.07L354.45,24.38L356.64,22.4L361.02,20.08L363.2,21.4L367.58,25.37L369.77,25.37L371.95,27.69L374.14,28.68L385.08,49.53L387.27,55.82L396.02,75.35L398.21,78.33L400.4,79.32L402.59,82.96L409.15,99.84L411.34,104.14L420.09,116.39L422.28,118.71L426.65,121.69L428.84,125.33L435.41,129.63L437.59,129.63L439.78,129.96L441.97,128.64L444.16,127.97L446.35,125.99L448.53,123.34L450.72,122.02L452.91,123.34L455.1,122.02L457.29,120.03L459.47,114.74L468.23,97.86L470.41,95.21L472.6,94.55L474.79,92.89L476.98,92.23L479.17,90.57L481.35,86.93L483.54,81.31L490.11,72.7L492.29,70.05L494.48,67.74L496.67,66.75L501.05,65.42L503.23,62.77L507.61,55.16L509.8,51.85L516.36,42.58L518.55,41.92L520.74,41.59L522.92,39.94L525.11,40.27L527.3,39.61L529.49,38.94L531.68,39.94L540.43,44.24L542.62,45.89L544.8,46.89L546.99,49.87L549.18,50.86L551.37,50.86L555.74,50.2L557.93,51.19L564.5,53.51L566.68,54.17L568.87,56.49L571.06,56.82L575.44,60.13L577.62,60.13L579.81,61.78L582,62.44L588.56,62.11L590.75,63.77L597.32,63.44L599.5,62.44L606.07,62.77L608.26,61.12L614.82,60.46L617.01,60.79L619.2,59.79L621.38,59.79L627.95,58.47L630.14,59.13L634.51,60.46L636.7,59.79L638.89,58.8L641.08,59.79L647.64,61.78L649.83,60.46L652.02,61.78L654.2,60.79L656.39,61.12L658.58,60.46L665.14,61.78L667.33,61.78L669.52,61.12L671.71,62.77L673.89,62.11L676.08,63.77L680.46,62.44L682.65,62.77L684.83,63.77L687.02,62.77L691.4,64.1L693.59,63.44L695.77,63.1L697.96,64.43L702.34,65.09L704.53,65.42L706.71,65.42L708.9,64.43L713.28,67.08L715.47,66.41L719.84,67.41L722.03,67.41L726.41,69.06L728.59,68.07L739.53,69.06L741.72,69.06L746.1,70.39L748.29,69.72L750.47,69.06L752.66,69.72L763.6,69.72L765.79,70.39L770.17,72.37L772.35,72.7L776.73,73.36L778.92,72.04L785.48,71.71L787.67,71.05L789.86,72.04L792.05,71.05L796.42,71.71L798.61,71.71L802.98,71.71L805.17,71.71L809.55,74.03L811.74,74.36L813.92,75.68L816.11,75.35L824.86,75.68L827.05,76.34L829.24,75.02L831.43,74.69L837.99,73.03L840.18,71.71L848.93,70.72L851.12,71.38L853.31,72.04L855.5,71.71L859.87,72.37L862.06,71.05L864.25,71.38L866.44,70.72L868.62,68.73L870.81,68.4L873,66.75" style="vector-effect: none; fill: none; stroke: rgb(0, 0, 255); stroke-opacity: 1; stroke-width: 1.5px; opacity: 1;"/></g><g class="points"/><g class="text"/></g><g class="trace scatter tracec76e3f" style="stroke-miterlimit: 2; opacity: 1;"><g class="fills"/><g class="errorbars"/><g class="lines"><path class="js-line" d="M0,67.41L6.56,66.81L8.75,67.36L19.69,69.24L21.88,68.89L28.44,68.19L30.63,68.29L41.57,68.97L43.76,69.17L48.14,69.25L50.32,68.85L54.7,68.09L56.89,68.5L61.26,69.28L63.45,68.89L67.83,68.53L70.02,68.81L72.2,69.16L74.39,68.58L78.77,67.16L80.95,67.54L96.27,70.92L98.46,70L105.02,69.75L107.21,69.81L111.59,69.92L113.77,70.57L118.15,70.44L120.34,69.67L124.71,69.82L126.9,70.17L133.47,69.93L135.65,69.84L142.22,68.78L144.41,68.78L157.53,67.16L159.72,67.21L175.04,64.72L177.23,64.32L210.05,59.24L212.23,58.81L247.24,49.98L249.43,49.76L280.06,39.45L282.25,39.25L299.75,34.67L301.94,34.64L306.32,36.24L308.5,37.52L317.26,44.24L319.44,46.31L326.01,51.85L328.2,53.22L332.57,54.79L334.76,55.23L350.08,58.37L352.26,58.53L361.02,58.17L363.2,57.81L389.46,54.55L391.65,54.47L400.4,55.14L402.59,55.81L406.96,58.51L409.15,60.24L411.34,62.09L413.53,62.86L417.9,62.39L420.09,63.33L428.84,65.77L431.03,65.83L437.59,66.11L439.78,66.8L446.35,67.41L448.53,67.45L452.91,66.84L455.1,65.81L463.85,60.52L466.04,59.9L468.23,58.99L470.41,59.05L476.98,59.01L479.17,58.7L485.73,56.47L487.92,56.52L492.29,58.27L494.48,58.27L501.05,56.64L503.23,57.42L509.8,58.39L511.98,58.11L516.36,56.65L518.55,55.5L522.92,54.44L525.11,55.5L533.86,56.71L536.05,56.24L544.8,53.24L546.99,53.63L564.5,57.29L566.68,57.74L573.25,59.32L575.44,59.6L590.75,62.14L592.94,62.46L606.07,63.29L608.26,63.43L619.2,63.86L621.38,63.61L630.14,63.94L632.32,63.92L638.89,64.15L641.08,65.25L654.2,69.18L656.39,69.09L660.77,68.7L662.95,68.16L680.46,66.33L682.65,66.15L700.15,64.34L702.34,64.07L722.03,61.5L724.22,61.15L759.23,55.97L761.41,56.13L794.23,54.66L796.42,54.46L802.98,54.67L805.17,54.71L816.11,56.5L818.3,56.96L833.62,58.81L835.8,58.91L842.37,59.51L844.56,59.71L851.12,60.28L853.31,60.45L857.68,61.33L859.87,62.14L870.81,65.97L873,67.61" style="vector-effect: none; fill: none; stroke: rgb(255, 0, 0); stroke-opacity: 1; stroke-dasharray: 9px, 9px; stroke-width: 1.5px; opacity: 1;"/></g><g class="points"/><g class="text"/></g></g></g></g><g class="zerolinelayer-above"/><path class="xlines-above crisp" d="M0,0" style="fill: none;"/><path class="ylines-above crisp" d="M0,0" style="fill: none;"/><g class="overlines-above"/><g class="xaxislayer-above"/><g class="yaxislayer-above"><g class="y3tick"><text text-anchor="end" x="79" y="4.199999999999999" transform="translate(0,595.26)" style="font-family: 'Open Sans', verdana, arial, sans-serif; font-size: 12px; fill: rgb(42, 63, 95); fill-opacity: 1; white-space: pre;">−1</text></g><g class="y3tick"><text text-anchor="end" x="79" y="4.199999999999999" style="font-family: 'Open Sans', verdana, arial, sans-serif; font-size: 12px; fill: rgb(42, 63, 95); fill-opacity: 1; white-space: pre;" transform="translate(0,562.16)">0</text></g><g class="y3tick"><text text-anchor="end" x="79" y="4.199999999999999" style="font-family: 'Open Sans', verdana, arial, sans-serif; font-size: 12px; fill: rgb(42, 63, 95); fill-opacity: 1; white-space: pre;" transform="translate(0,529.07)">1</text></g><g class="y3tick"><text text-anchor="end" x="79" y="4.199999999999999" style="font-family: 'Open Sans', verdana, arial, sans-serif; font-size: 12px; fill: rgb(42, 63, 95); fill-opacity: 1; white-space: pre;" transform="translate(0,495.97)">2</text></g></g><g class="overaxes-above"/></g><g class="subplot x4y4"><g class="layer-subplot"><g class="shapelayer"/><g class="imagelayer"/></g><g class="minor-gridlayer"><g class="x4"/><g class="y4"/></g><g class="gridlayer"><g class="x4"><path class="x4grid crisp" transform="translate(167.51999999999998,0)" d="M0,683.2v136.8" style="stroke: rgb(255, 255, 255); stroke-opacity: 1; stroke-width: 1px;"/><path class="x4grid crisp" transform="translate(255.04,0)" d="M0,683.2v136.8" style="stroke: rgb(255, 255, 255); stroke-opacity: 1; stroke-width: 1px;"/><path class="x4grid crisp" transform="translate(342.56,0)" d="M0,683.2v136.8" style="stroke: rgb(255, 255, 255); stroke-opacity: 1; stroke-width: 1px;"/><path class="x4grid crisp" transform="translate(430.08,0)" d="M0,683.2v136.8" style="stroke: rgb(255, 255, 255); stroke-opacity: 1; stroke-width: 1px;"/><path class="x4grid crisp" transform="translate(517.5899999999999,0)" d="M0,683.2v136.8" style="stroke: rgb(255, 255, 255); stroke-opacity: 1; stroke-width: 1px;"/><path class="x4grid crisp" transform="translate(605.11,0)" d="M0,683.2v136.8" style="stroke: rgb(255, 255, 255); stroke-opacity: 1; stroke-width: 1px;"/><path class="x4grid crisp" transform="translate(692.63,0)" d="M0,683.2v136.8" style="stroke: rgb(255, 255, 255); stroke-opacity: 1; stroke-width: 1px;"/><path class="x4grid crisp" transform="translate(780.15,0)" d="M0,683.2v136.8" style="stroke: rgb(255, 255, 255); stroke-opacity: 1; stroke-width: 1px;"/><path class="x4grid crisp" transform="translate(867.67,0)" d="M0,683.2v136.8" style="stroke: rgb(255, 255, 255); stroke-opacity: 1; stroke-width: 1px;"/></g><g class="y4"><path class="y4grid crisp" transform="translate(0,769.07)" d="M80,0h873" style="stroke: rgb(255, 255, 255); stroke-opacity: 1; stroke-width: 1px;"/><path class="y4grid crisp" transform="translate(0,724.6400000000001)" d="M80,0h873" style="stroke: rgb(255, 255, 255); stroke-opacity: 1; stroke-width: 1px;"/></g></g><g class="zerolinelayer"><path class="x4zl zl crisp" transform="translate(80,0)" d="M0,683.2v136.8" style="stroke: rgb(255, 255, 255); stroke-opacity: 1; stroke-width: 2px;"/><path class="y4zl zl crisp" transform="translate(0,813.5)" d="M80,0h873" style="stroke: rgb(255, 255, 255); stroke-opacity: 1; stroke-width: 2px;"/></g><g class="layer-between"><g class="shapelayer"/><g class="imagelayer"/></g><path class="xlines-below"/><path class="ylines-below"/><g class="overlines-below"/><g class="xaxislayer-below"/><g class="yaxislayer-below"/><g class="overaxes-below"/><g class="overplot"><g class="x4y4" transform="translate(80,683.2)" clip-path="url(#clipf917aax4y4plot)"><g class="scatterlayer mlayer"><g class="trace scatter trace61ec2c" style="stroke-miterlimit: 2; opacity: 1;"><g class="fills"/><g class="errorbars"/><g class="lines"><path class="js-line" d="M0,129.96L8.75,127.91L10.94,126.64L15.32,124.1L17.5,123.77L24.07,123.58L26.26,122.92L35.01,119L37.2,118L43.76,116.27L45.95,115.37L50.32,113.96L52.51,113.08L59.08,109L61.26,108.18L72.2,102.36L74.39,101.53L87.52,93.94L89.71,93.37L96.27,92.34L98.46,91.05L102.83,87.09L105.02,87.43L111.59,85.32L113.77,84.32L115.96,83.16L118.15,83.62L122.53,82.66L124.71,81.91L131.28,83.02L133.47,82.54L140.03,85.1L142.22,85.5L146.59,86.71L148.78,87.79L155.35,88.86L157.53,89.47L170.66,88.36L172.85,87.37L175.04,87.67L177.23,86.8L192.54,84.33L194.73,83.35L196.92,83.15L199.11,82L203.48,80.83L205.67,81.04L212.23,79.99L214.42,79.46L236.3,70.82L238.49,69.2L255.99,62.6L258.18,62.29L266.93,59.65L269.12,59L280.06,57.77L282.25,57.94L288.81,57.44L291,56.34L297.56,51.93L299.75,50.24L304.13,47.19L306.32,44.96L310.69,42.34L312.88,41.52L317.26,38.64L319.44,36.98L332.57,29.73L334.76,29.39L347.89,29.65L350.08,29.6L380.71,26.98L382.89,26.51L389.46,23.54L391.65,21.84L402.59,14.23L404.77,12.8L409.15,9.76L411.34,9.35L413.53,7.96L415.71,9.31L417.9,9.49L420.09,8.5L424.47,6.84L426.65,7.29L428.84,7.64L431.03,8.8L444.16,14.64L446.35,16.28L452.91,17.67L455.1,17.15L463.85,18.78L466.04,19.49L476.98,17.53L479.17,17.39L487.92,18.08L490.11,19.1L496.67,23.16L498.86,23.7L518.55,34.95L520.74,36.67L525.11,40.71L527.3,42.58L531.68,45.43L533.86,46.66L542.62,50.59L544.8,52.41L546.99,53.66L549.18,55.87L551.37,58.4L553.56,58.73L555.74,59.32L557.93,61.22L562.31,65.67L564.5,68.04L571.06,75.07L573.25,76.64L582,84.91L584.19,86.98L592.94,96.03L595.13,98.26L599.5,102.91L601.69,103.51L608.26,106.8L610.44,107.18L614.82,108.79L617.01,108.54L619.2,109.1L621.38,110.92L623.57,110.95L625.76,111.78L632.32,112.5L634.51,114.58L638.89,117.49L641.08,117.05L643.26,117.32L645.45,118.63L647.64,120.17L649.83,119.71L656.39,122.7L658.58,123.16L662.95,125.3L665.14,125.09L671.71,123.56L673.89,121.86L682.65,116.87L684.83,117.56L700.15,118.36L702.34,118.62L711.09,119.48L713.28,119.81L719.84,121.21L722.03,121.12L732.97,121.23L735.16,120.83L743.91,119.32L746.1,118.09L750.47,116.81L752.66,115.2L757.04,112.45L759.23,110.96L765.79,106.97L767.98,104.93L774.54,99.86L776.73,98.78L781.11,96.38L783.29,94.16L792.05,86.04L794.23,84.99L809.55,75.43L811.74,74.85L816.11,74.12L818.3,73.83L829.24,69.71L831.43,69.88L840.18,74.08L842.37,75.09L846.74,76.08L848.93,76.33L853.31,76.61L855.5,77.8L857.68,77.69L859.87,79.06L868.62,83.21L870.81,83.98L873,84.14" style="vector-effect: none; fill: none; stroke: rgb(128, 0, 128); stroke-opacity: 1; stroke-width: 1.5px; opacity: 1;"/></g><g class="points"/><g class="text"/></g></g></g></g><g class="zerolinelayer-above"/><path class="xlines-above crisp" d="M0,0" style="fill: none;"/><path class="ylines-above crisp" d="M0,0" style="fill: none;"/><g class="overlines-above"/><g class="xaxislayer-above"><g class="x4tick"><text text-anchor="middle" x="0" y="833" transform="translate(80,0)" style="font-family: 'Open Sans', verdana, arial, sans-serif; font-size: 12px; fill: rgb(42, 63, 95); fill-opacity: 1; white-space: pre;">0</text></g><g class="x4tick"><text text-anchor="middle" x="0" y="833" style="font-family: 'Open Sans', verdana, arial, sans-serif; font-size: 12px; fill: rgb(42, 63, 95); fill-opacity: 1; white-space: pre;" transform="translate(167.51999999999998,0)">2</text></g><g class="x4tick"><text text-anchor="middle" x="0" y="833" style="font-family: 'Open Sans', verdana, arial, sans-serif; font-size: 12px; fill: rgb(42, 63, 95); fill-opacity: 1; white-space: pre;" transform="translate(255.04,0)">4</text></g><g class="x4tick"><text text-anchor="middle" x="0" y="833" style="font-family: 'Open Sans', verdana, arial, sans-serif; font-size: 12px; fill: rgb(42, 63, 95); fill-opacity: 1; white-space: pre;" transform="translate(342.56,0)">6</text></g><g class="x4tick"><text text-anchor="middle" x="0" y="833" style="font-family: 'Open Sans', verdana, arial, sans-serif; font-size: 12px; fill: rgb(42, 63, 95); fill-opacity: 1; white-space: pre;" transform="translate(430.08,0)">8</text></g><g class="x4tick"><text text-anchor="middle" x="0" y="833" style="font-family: 'Open Sans', verdana, arial, sans-serif; font-size: 12px; fill: rgb(42, 63, 95); fill-opacity: 1; white-space: pre;" transform="translate(517.5899999999999,0)">10</text></g><g class="x4tick"><text text-anchor="middle" x="0" y="833" style="font-family: 'Open Sans', verdana, arial, sans-serif; font-size: 12px; fill: rgb(42, 63, 95); fill-opacity: 1; white-space: pre;" transform="translate(605.11,0)">12</text></g><g class="x4tick"><text text-anchor="middle" x="0" y="833" style="font-family: 'Open Sans', verdana, arial, sans-serif; font-size: 12px; fill: rgb(42, 63, 95); fill-opacity: 1; white-space: pre;" transform="translate(692.63,0)">14</text></g><g class="x4tick"><text text-anchor="middle" x="0" y="833" style="font-family: 'Open Sans', verdana, arial, sans-serif; font-size: 12px; fill: rgb(42, 63, 95); fill-opacity: 1; white-space: pre;" transform="translate(780.15,0)">16</text></g><g class="x4tick"><text text-anchor="middle" x="0" y="833" style="font-family: 'Open Sans', verdana, arial, sans-serif; font-size: 12px; fill: rgb(42, 63, 95); fill-opacity: 1; white-space: pre;" transform="translate(867.67,0)">18</text></g></g><g class="yaxislayer-above"><g class="y4tick"><text text-anchor="end" x="79" y="4.199999999999999" transform="translate(0,813.5)" style="font-family: 'Open Sans', verdana, arial, sans-serif; font-size: 12px; fill: rgb(42, 63, 95); fill-opacity: 1; white-space: pre;">0</text></g><g class="y4tick"><text text-anchor="end" x="79" y="4.199999999999999" style="font-family: 'Open Sans', verdana, arial, sans-serif; font-size: 12px; fill: rgb(42, 63, 95); fill-opacity: 1; white-space: pre;" transform="translate(0,769.07)">2</text></g><g class="y4tick"><text text-anchor="end" x="79" y="4.199999999999999" style="font-family: 'Open Sans', verdana, arial, sans-serif; font-size: 12px; fill: rgb(42, 63, 95); fill-opacity: 1; white-space: pre;" transform="translate(0,724.6400000000001)">4</text></g></g><g class="overaxes-above"/></g></g><g class="polarlayer"/><g class="smithlayer"/><g class="ternarylayer"/><g class="geolayer"/><g class="funnelarealayer"/><g class="pielayer"/><g class="iciclelayer"/><g class="treemaplayer"/><g class="sunburstlayer"/><g class="glimages"/><defs id="topdefs-f917aa"><g class="clips"/><clipPath id="legendf917aa"><rect width="118" height="48" x="0" y="0"/></clipPath></defs><g class="layer-above"><g class="imagelayer"/><g class="shapelayer"/></g><g class="infolayer"><g class="legend" pointer-events="all" transform="translate(970.46,100)"><rect class="bg" shape-rendering="crispEdges" style="stroke: rgb(68, 68, 68); stroke-opacity: 1; fill: rgb(255, 255, 255); fill-opacity: 1; stroke-width: 0px;" width="118" height="48" x="0" y="0"/><g class="scrollbox" transform="" clip-path="url(#legendf917aa)"><g class="groups"><g class="traces" transform="translate(0,14.5)" style="opacity: 1;"><text class="legendtext" text-anchor="start" x="40" y="4.680000000000001" style="font-family: 'Open Sans', verdana, arial, sans-serif; font-size: 12px; fill: rgb(42, 63, 95); fill-opacity: 1; white-space: pre;">GT Vx_mps</text><g class="layers" style="opacity: 1;"><g class="legendfill"/><g class="legendlines"><path class="js-line" d="M5,0h30" style="fill: none; stroke: rgb(0, 0, 255); stroke-opacity: 1; stroke-width: 1.5px;"/></g><g class="legendsymbols"><g class="legendpoints"/></g></g><rect class="legendtoggle" x="0" y="-9.5" width="112.03125" height="19" style="fill: rgb(0, 0, 0); fill-opacity: 0;"/></g><g class="traces" transform="translate(0,33.5)" style="opacity: 1;"><text class="legendtext" text-anchor="start" x="40" y="4.680000000000001" style="font-family: 'Open Sans', verdana, arial, sans-serif; font-size: 12px; fill: rgb(42, 63, 95); fill-opacity: 1; white-space: pre;">Pred Vx_mps</text><g class="layers" style="opacity: 1;"><g class="legendfill"/><g class="legendlines"><path class="js-line" d="M5,0h30" style="fill: none; stroke: rgb(255, 0, 0); stroke-opacity: 1; stroke-dasharray: 9px, 9px; stroke-width: 1.5px;"/></g><g class="legendsymbols"><g class="legendpoints"/></g></g><rect class="legendtoggle" x="0" y="-9.5" width="112.03125" height="19" style="fill: rgb(0, 0, 0); fill-opacity: 0;"/></g></g></g><rect class="scrollbar" rx="20" ry="3" width="0" height="0" style="fill: rgb(128, 139, 164); fill-opacity: 1;" x="0" y="0"/></g><g class="g-gtitle"><text class="gtitle" x="55" y="50" text-anchor="start" dy="0em" style="opacity: 1; font-family: 'Open Sans', verdana, arial, sans-serif; font-size: 17px; fill: rgb(42, 63, 95); fill-opacity: 1; white-space: pre;">WAM v2 Dream: Velocity Prediction vs Ground Truth — Lap_11</text></g><g class="g-xtitle"/><g class="g-x2title"/><g class="g-x3title"/><g class="g-x4title"/><g class="g-ytitle"/><g class="g-y2title"/><g class="g-y3title"/><g class="g-y4title"/><g class="annotation" data-index="0" style="opacity: 1;"><g class="annotation-text-g" transform="rotate(0,516.5,89.5)"><g class="cursor-pointer" transform="translate(485,79)"><rect class="bg" x="0.5" y="0.5" width="63" height="20" style="stroke-width: 1px; stroke: rgb(0, 0, 0); stroke-opacity: 0; fill: rgb(0, 0, 0); fill-opacity: 0;"/><text class="annotation-text" text-anchor="middle" x="31.7734375" y="16" style="font-family: 'Open Sans', verdana, arial, sans-serif; font-size: 16px; fill: rgb(42, 63, 95); fill-opacity: 1; white-space: pre;">Vx (m/s)</text></g></g></g><g class="annotation" data-index="1" style="opacity: 1;"><g class="annotation-text-g" transform="rotate(0,516.5,283.9)"><g class="cursor-pointer" transform="translate(485,273)"><rect class="bg" x="0.5" y="0.5" width="62" height="20" style="stroke-width: 1px; stroke: rgb(0, 0, 0); stroke-opacity: 0; fill: rgb(0, 0, 0); fill-opacity: 0;"/><text class="annotation-text" text-anchor="middle" x="31.4765625" y="16" style="font-family: 'Open Sans', verdana, arial, sans-serif; font-size: 16px; fill: rgb(42, 63, 95); fill-opacity: 1; white-space: pre;">Vy (m/s)</text></g></g></g><g class="annotation" data-index="2" style="opacity: 1;"><g class="annotation-text-g" transform="rotate(0,516.5,478.3)"><g class="cursor-pointer" transform="translate(485,468)"><rect class="bg" x="0.5" y="0.5" width="63" height="20" style="stroke-width: 1px; stroke: rgb(0, 0, 0); stroke-opacity: 0; fill: rgb(0, 0, 0); fill-opacity: 0;"/><text class="annotation-text" text-anchor="middle" x="31.7734375" y="16" style="font-family: 'Open Sans', verdana, arial, sans-serif; font-size: 16px; fill: rgb(42, 63, 95); fill-opacity: 1; white-space: pre;">Vz (m/s)</text></g></g></g><g class="annotation" data-index="3" style="opacity: 1;"><g class="annotation-text-g" transform="rotate(0,516.5,672.7)"><g class="cursor-pointer" transform="translate(451,662)"><rect class="bg" x="0.5" y="0.5" width="130" height="20" style="stroke-width: 1px; stroke: rgb(0, 0, 0); stroke-opacity: 0; fill: rgb(0, 0, 0); fill-opacity: 0;"/><text class="annotation-text" text-anchor="middle" x="65.5703125" y="16" style="font-family: 'Open Sans', verdana, arial, sans-serif; font-size: 16px; fill: rgb(42, 63, 95); fill-opacity: 1; white-space: pre;">Speed Error (m/s)</text></g></g></g></g></svg>