<svg class="main-svg" xmlns="http://www.w3.org/2000/svg" xmlns:xlink="http://www.w3.org/1999/xlink" width="1100" height="900" style="" viewBox="0 0 1100 900"><rect x="0" y="0" width="1100" height="900" style="fill: rgb(255, 255, 255); fill-opacity: 1;"/><defs id="defs-87ffcf"><g class="clips"><clipPath id="clip87ffcfxyplot" class="plotclip"><rect width="873" height="136.79999999999995"/></clipPath><clipPath id="clip87ffcfx2y2plot" class="plotclip"><rect width="873" height="136.79999999999995"/></clipPath><clipPath id="clip87ffcfx3y3plot" class="plotclip"><rect width="873" height="136.8"/></clipPath><clipPath id="clip87ffcfx4y4plot" class="plotclip"><rect width="873" height="136.8"/></clipPath><clipPath class="axesclip" id="clip87ffcfx"><rect x="80" y="0" width="873" height="900"/></clipPath><clipPath class="axesclip" id="clip87ffcfy"><rect x="0" y="100" width="1100" height="136.79999999999995"/></clipPath><clipPath class="axesclip" id="clip87ffcfxy"><rect x="80" y="100" width="873" height="136.79999999999995"/></clipPath><clipPath class="axesclip" id="clip87ffcfy2"><rect x="0" y="294.4" width="1100" height="136.79999999999995"/></clipPath><clipPath class="axesclip" id="clip87ffcfxy2"><rect x="80" y="294.4" width="873" height="136.79999999999995"/></clipPath><clipPath class="axesclip" id="clip87ffcfy3"><rect x="0" y="488.8" width="1100" height="136.8"/></clipPath><clipPath class="axesclip" id="clip87ffcfxy3"><rect x="80" y="488.8" width="873" height="136.8"/></clipPath><clipPath class="axesclip" id="clip87ffcfy4"><rect x="0" y="683.2" width="1100" height="136.8"/></clipPath><clipPath class="axesclip" id="clip87ffcfxy4"><rect x="80" y="683.2" width="873" height="136.8"/></clipPath><clipPath class="axesclip" id="clip87ffcfx2"><rect x="80" y="0" width="873" height="900"/></clipPath><clipPath class="axesclip" id="clip87ffcfx2y"><rect x="80" y="100" width="873" height="136.79999999999995"/></clipPath><clipPath class="axesclip" id="clip87ffcfx2y2"><rect x="80" y="294.4" width="873" height="136.79999999999995"/></clipPath><clipPath class="axesclip" id="clip87ffcfx2y3"><rect x="80" y="488.8" width="873" height="136.8"/></clipPath><clipPath class="axesclip" id="clip87ffcfx2y4"><rect x="80" y="683.2" width="873" height="136.8"/></clipPath><clipPath class="axesclip" id="clip87ffcfx3"><rect x="80" y="0" width="873" height="900"/></clipPath><clipPath class="axesclip" id="clip87ffcfx3y"><rect x="80" y="100" width="873" height="136.79999999999995"/></clipPath><clipPath class="axesclip" id="clip87ffcfx3y2"><rect x="80" y="294.4" width="873" height="136.79999999999995"/></clipPath><clipPath class="axesclip" id="clip87ffcfx3y3"><rect x="80" y="488.8" width="873" height="136.8"/></clipPath><clipPath class="axesclip" id="clip87ffcfx3y4"><rect x="80" y="683.2" width="873" height="136.8"/></clipPath><clipPath class="axesclip" id="clip87ffcfx4"><rect x="80" y="0" width="873" height="900"/></clipPath><clipPath class="axesclip" id="clip87ffcfx4y"><rect x="80" y="100" width="873" height="136.79999999999995"/></clipPath><clipPath class="axesclip" id="clip87ffcfx4y2"><rect x="80" y="294.4" width="873" height="136.79999999999995"/></clipPath><clipPath class="axesclip" id="clip87ffcfx4y3"><rect x="80" y="488.8" width="873" height="136.8"/></clipPath><clipPath class="axesclip" id="clip87ffcfx4y4"><rect x="80" y="683.2" width="873" height="136.8"/></clipPath></g><g class="gradients"/><g class="patterns"/></defs><g class="bglayer"><rect class="bg" x="80" y="100" width="873" height="136.79999999999995" style="fill: rgb(229, 236, 246); fill-opacity: 1; stroke-width: 0;"/><rect class="bg" x="80" y="294.4" width="873" height="136.79999999999995" style="fill: rgb(229, 236, 246); fill-opacity: 1; stroke-width: 0;"/><rect class="bg" x="80" y="488.8" width="873" height="136.8" style="fill: rgb(229, 236, 246); fill-opacity: 1; stroke-width: 0;"/><rect class="bg" x="80" y="683.2" width="873" height="136.8" style="fill: rgb(229, 236, 246); fill-opacity: 1; stroke-width: 0;"/></g><g class="layer-below"><g class="imagelayer"/><g class="shapelayer"/></g><g class="cartesianlayer"><g class="subplot xy"><g class="layer-subplot"><g class="shapelayer"/><g class="imagelayer"/></g><g class="minor-gridlayer"><g class="x"/><g class="y"/></g><g class="gridlayer"><g class="x"><path class="xgrid crisp" transform="translate(167.51999999999998,0)" d="M0,100v136.79999999999995" style="stroke: rgb(255, 255, 255); stroke-opacity: 1; stroke-width: 1px;"/><path class="xgrid crisp" transform="translate(255.04,0)" d="M0,100v136.79999999999995" style="stroke: rgb(255, 255, 255); stroke-opacity: 1; stroke-width: 1px;"/><path class="xgrid crisp" transform="translate(342.56,0)" d="M0,100v136.79999999999995" style="stroke: rgb(255, 255, 255); stroke-opacity: 1; stroke-width: 1px;"/><path class="xgrid crisp" transform="translate(430.08,0)" d="M0,100v136.79999999999995" style="stroke: rgb(255, 255, 255); stroke-opacity: 1; stroke-width: 1px;"/><path class="xgrid crisp" transform="translate(517.5899999999999,0)" d="M0,100v136.79999999999995" style="stroke: rgb(255, 255, 255); stroke-opacity: 1; stroke-width: 1px;"/><path class="xgrid crisp" transform="translate(605.11,0)" d="M0,100v136.79999999999995" style="stroke: rgb(255, 255, 255); stroke-opacity: 1; stroke-width: 1px;"/><path class="xgrid crisp" transform="translate(692.63,0)" d="M0,100v136.79999999999995" style="stroke: rgb(255, 255, 255); stroke-opacity: 1; stroke-width: 1px;"/><path class="xgrid crisp" transform="translate(780.15,0)" d="M0,100v136.79999999999995" style="stroke: rgb(255, 255, 255); stroke-opacity: 1; stroke-width: 1px;"/><path class="xgrid crisp" transform="translate(867.67,0)" d="M0,100v136.79999999999995" style="stroke: rgb(255, 255, 255); stroke-opacity: 1; stroke-width: 1px;"/></g><g class="y"><path class="ygrid crisp" transform="translate(0,211.29000000000002)" d="M80,0h873" style="stroke: rgb(255, 255, 255); stroke-opacity: 1; stroke-width: 1px;"/><path class="ygrid crisp" transform="translate(0,180.68)" d="M80,0h873" style="stroke: rgb(255, 255, 255); stroke-opacity: 1; stroke-width: 1px;"/><path class="ygrid crisp" transform="translate(0,150.06)" d="M80,0h873" style="stroke: rgb(255, 255, 255); stroke-opacity: 1; stroke-width: 1px;"/><path class="ygrid crisp" transform="translate(0,119.44)" d="M80,0h873" style="stroke: rgb(255, 255, 255); stroke-opacity: 1; stroke-width: 1px;"/></g></g><g class="zerolinelayer"><path class="xzl zl crisp" transform="translate(80,0)" d="M0,100v136.79999999999995" style="stroke: rgb(255, 255, 255); stroke-opacity: 1; stroke-width: 2px;"/></g><g class="layer-between"><g class="shapelayer"/><g class="imagelayer"/></g><path class="xlines-below"/><path class="ylines-below"/><g class="overlines-below"/><g class="xaxislayer-below"/><g class="yaxislayer-below"/><g class="overaxes-below"/><g class="overplot"><g class="xy" transform="translate(80,100)" clip-path="url(#clip87ffcfxyplot)"><g class="scatterlayer mlayer"><g class="trace scatter tracee267b2" style="stroke-miterlimit: 2; opacity: 1;"><g class="fills"/><g class="errorbars"/><g class="lines"><path class="js-line" d="M0,113.64L15.32,119.17L17.5,119.89L43.76,127.45L45.95,127.93L54.7,129.61L56.89,129.78L65.64,129.7L67.83,129.51L80.95,127.44L83.14,126.9L98.46,123.15L100.65,122.52L124.71,115.41L126.9,114.59L137.84,110.47L140.03,109.52L148.78,105.76L150.97,104.8L192.54,84.13L194.73,83.17L238.49,63.95L240.68,63.34L253.8,59.81L255.99,58.89L280.06,48.98L282.25,48.03L343.51,24.88L345.7,24.15L380.71,13.94L382.89,13.36L402.59,9.28L404.77,8.92L417.9,7.34L420.09,7.22L433.22,6.84L435.41,6.88L455.1,7.82L457.29,7.94L522.92,11.97L525.11,12.03L542.62,13.1L544.8,13.36L560.12,15.56L562.31,16.03L579.81,20.39L582,21.14L597.32,26.98L599.5,27.99L608.26,32.31L610.44,33.41L632.32,46.6L634.51,48.08L649.83,58.79L652.02,60.44L689.21,87.59L691.4,89.05L713.28,101.58L715.47,102.67L728.59,109.1L730.78,110.02L746.1,115.09L748.29,115.55L765.79,118.8L767.98,119.1L785.48,121.21L787.67,120.79L816.11,115.45L818.3,114.81L833.62,110.46L835.8,109.72L846.74,105.87L848.93,104.94L873,93.91" style="vector-effect: none; fill: none; stroke: rgb(0, 0, 255); stroke-opacity: 1; stroke-width: 1.5px; opacity: 1;"/></g><g class="points"/><g class="text"/></g><g class="trace scatter tracebf115e" style="stroke-miterlimit: 2; opacity: 1;"><g class="fills"/><g class="errorbars"/><g class="lines"><path class="js-line" d="M0,113.14L6.56,114.47L8.75,115.06L24.07,118.22L26.26,118.35L35.01,118.41L37.2,118.38L59.08,116.5L61.26,116.2L78.77,114.19L80.95,113.38L94.08,110.31L96.27,109.55L120.34,100.61L122.53,99.49L137.84,94.89L140.03,94.27L161.91,86.93L164.1,86.35L177.23,81.39L179.41,81.02L205.67,71.67L207.86,70.94L231.92,63.12L234.11,62.66L240.68,60.85L242.86,60.41L277.87,50.7L280.06,50.45L293.19,47.17L295.38,46.89L308.5,44.08L310.69,43.53L321.63,41.33L323.82,41.01L339.14,37.59L341.32,36.89L365.39,30.76L367.58,30.52L378.52,28.91L380.71,28.14L398.21,24.02L400.4,23.81L444.16,16.73L446.35,16.64L459.47,15.72L461.66,15.97L498.86,18.83L501.05,18.56L507.61,18.57L509.8,18.87L514.17,18.8L516.36,18.65L520.74,18.67L522.92,19.14L540.43,23.9L542.62,24.32L571.06,28.19L573.25,28.64L592.94,31.66L595.13,32.21L610.44,35.53L612.63,35.82L621.38,37.64L623.57,38.31L638.89,42.49L641.08,42.86L654.2,45.62L656.39,46.24L671.71,49.92L673.89,50.38L700.15,55.44L702.34,55.82L735.16,62.04L737.35,62.87L746.1,64.54L748.29,64.69L752.66,65.68L754.85,66.54L765.79,70.03L767.98,70.77L778.92,74.6L781.11,74.71L789.86,76.04L792.05,76.91L796.42,77.98L798.61,78.13L809.55,80.47L811.74,81L829.24,83.39L831.43,83.36L846.74,82.93L848.93,83.01L866.44,82.22L868.62,81.99L873,81.45" style="vector-effect: none; fill: none; stroke: rgb(255, 0, 0); stroke-opacity: 1; stroke-dasharray: 9px, 9px; stroke-width: 1.5px; opacity: 1;"/></g><g class="points"/><g class="text"/></g></g></g></g><g class="zerolinelayer-above"/><path class="xlines-above crisp" d="M0,0" style="fill: none;"/><path class="ylines-above crisp" d="M0,0" style="fill: none;"/><g class="overlines-above"/><g class="xaxislayer-above"/><g class="yaxislayer-above"><g class="ytick"><text text-anchor="end" x="79" y="4.199999999999999" transform="translate(0,211.29000000000002)" style="font-family: 'Open Sans', verdana, arial, sans-serif; font-size: 12px; fill: rgb(42, 63, 95); fill-opacity: 1; white-space: pre;">15</text></g><g class="ytick"><text text-anchor="end" x="79" y="4.199999999999999" style="font-family: 'Open Sans', verdana, arial, sans-serif; font-size: 12px; fill: rgb(42, 63, 95); fill-opacity: 1; white-space: pre;" transform="translate(0,180.68)">20</text></g><g class="ytick"><text text-anchor="end" x="79" y="4.199999999999999" style="font-family: 'Open Sans', verdana, arial, sans-serif; font-size: 12px; fill: rgb(42, 63, 95); fill-opacity: 1; white-space: pre;" transform="translate(0,150.06)">25</text></g><g class="ytick"><text text-anchor="end" x="79" y="4.199999999999999" style="font-family: 'Open Sans', verdana, arial, sans-serif; font-size: 12px; fill: rgb(42, 63, 95); fill-opacity: 1; white-space: pre;" transform="translate(0,119.44)">30</text></g></g><g class="overaxes-above"/></g><g class="subplot x2y2"><g class="layer-subplot"><g class="shapelayer"/><g class="imagelayer"/></g><g class="minor-gridlayer"><g class="x2"/><g class="y2"/></g><g class="gridlayer"><g class="x2"><path class="x2grid crisp" transform="translate(167.51999999999998,0)" d="M0,294.4v136.79999999999995" style="stroke: rgb(255, 255, 255); stroke-opacity: 1; stroke-width: 1px;"/><path class="x2grid crisp" transform="translate(255.04,0)" d="M0,294.4v136.79999999999995" style="stroke: rgb(255, 255, 255); stroke-opacity: 1; stroke-width: 1px;"/><path class="x2grid crisp" transform="translate(342.56,0)" d="M0,294.4v136.79999999999995" style="stroke: rgb(255, 255, 255); stroke-opacity: 1; stroke-width: 1px;"/><path class="x2grid crisp" transform="translate(430.08,0)" d="M0,294.4v136.79999999999995" style="stroke: rgb(255, 255, 255); stroke-opacity: 1; stroke-width: 1px;"/><path class="x2grid crisp" transform="translate(517.5899999999999,0)" d="M0,294.4v136.79999999999995" style="stroke: rgb(255, 255, 255); stroke-opacity: 1; stroke-width: 1px;"/><path class="x2grid crisp" transform="translate(605.11,0)" d="M0,294.4v136.79999999999995" style="stroke: rgb(255, 255, 255); stroke-opacity: 1; stroke-width: 1px;"/><path class="x2grid crisp" transform="translate(692.63,0)" d="M0,294.4v136.79999999999995" style="stroke: rgb(255, 255, 255); stroke-opacity: 1; stroke-width: 1px;"/><path class="x2grid crisp" transform="translate(780.15,0)" d="M0,294.4v136.79999999999995" style="stroke: rgb(255, 255, 255); stroke-opacity: 1; stroke-width: 1px;"/><path class="x2grid crisp" transform="translate(867.67,0)" d="M0,294.4v136.79999999999995" style="stroke: rgb(255, 255, 255); stroke-opacity: 1; stroke-width: 1px;"/></g><g class="y2"><path class="y2grid crisp" transform="translate(0,384.78999999999996)" d="M80,0h873" style="stroke: rgb(255, 255, 255); stroke-opacity: 1; stroke-width: 1px;"/><path class="y2grid crisp" transform="translate(0,350.60999999999996)" d="M80,0h873" style="stroke: rgb(255, 255, 255); stroke-opacity: 1; stroke-width: 1px;"/><path class="y2grid crisp" transform="translate(0,316.42999999999995)" d="M80,0h873" style="stroke: rgb(255, 255, 255); stroke-opacity: 1; stroke-width: 1px;"/></g></g><g class="zerolinelayer"><path class="x2zl zl crisp" transform="translate(80,0)" d="M0,294.4v136.79999999999995" style="stroke: rgb(255, 255, 255); stroke-opacity: 1; stroke-width: 2px;"/><path class="y2zl zl crisp" transform="translate(0,418.97999999999996)" d="M80,0h873" style="stroke: rgb(255, 255, 255); stroke-opacity: 1; stroke-width: 2px;"/></g><g class="layer-between"><g class="shapelayer"/><g class="imagelayer"/></g><path class="xlines-below"/><path class="ylines-below"/><g class="overlines-below"/><g class="xaxislayer-below"/><g class="yaxislayer-below"/><g class="overaxes-below"/><g class="overplot"><g class="x2y2" transform="translate(80,294.4)" clip-path="url(#clip87ffcfx2y2plot)"><g class="scatterlayer mlayer"><g class="trace scatter traced77ff7" style="stroke-miterlimit: 2; opacity: 1;"><g class="fills"/><g class="errorbars"/><g class="lines"><path class="js-line" d="M0,127.43L2.19,127.13L4.38,125.75L6.56,124.58L8.75,124.8L13.13,125.34L15.32,124.11L19.69,122.49L21.88,122.87L30.63,123.61L32.82,123.82L37.2,122.98L39.38,122.18L45.95,122.6L48.14,121.68L50.32,120.88L52.51,118.47L56.89,119.19L59.08,118.31L65.64,116.31L67.83,116.17L70.02,115.75L72.2,116.41L76.58,117.26L78.77,117.24L83.14,115.1L85.33,115.14L89.71,114.91L91.89,115.82L94.08,116.57L96.27,116.43L105.02,120.08L107.21,120.4L109.4,121.92L111.59,122.19L113.77,122.33L115.96,123.44L118.15,122.73L120.34,123.51L133.47,124.82L135.65,125.44L146.59,126L148.78,126.41L153.16,127.1L155.35,128.72L157.53,128.4L159.72,129.03L164.1,129.84L166.29,128.76L172.85,128.71L175.04,127.92L179.41,128.62L181.6,127.99L196.92,127.27L199.11,126.53L203.48,126.98L205.67,126.48L207.86,126.68L210.05,125.33L214.42,125.73L216.61,125.09L218.8,124.36L220.98,124.45L223.17,123.04L225.36,123.07L231.92,122.22L234.11,122.73L236.3,121.55L238.49,121.52L240.68,121.45L242.86,120.37L249.43,119.71L251.62,119.68L258.18,119.86L260.37,120.93L264.74,120.04L266.93,120.44L273.5,118.33L275.68,118.48L277.87,117.99L280.06,118.81L282.25,117.96L284.44,117.96L288.81,118.57L291,118.93L301.94,121.88L304.13,120.65L321.63,117.36L323.82,118.05L332.57,120.34L334.76,119.84L336.95,120.97L339.14,121.12L341.32,122.07L343.51,121.3L347.89,121.31L350.08,120.73L356.64,119.17L358.83,117.87L361.02,117.73L363.2,116.48L367.58,115.96L369.77,116.3L378.52,116.91L380.71,116.45L382.89,117.8L385.08,117.36L387.27,117.58L389.46,117L396.02,113.02L398.21,111.26L406.96,106.74L409.15,105.34L413.53,102.44L415.71,102.71L417.9,103.24L420.09,102.21L422.28,100.97L424.47,98.07L435.41,89.28L437.59,86.8L441.97,82.85L444.16,82.07L455.1,77.32L457.29,77.67L459.47,78.66L461.66,80.6L470.41,84.53L472.6,84.44L474.79,84.69L476.98,81.93L479.17,80.11L481.35,76.81L485.73,70.48L487.92,65.77L496.67,49.59L498.86,45.88L505.42,40.78L507.61,42.37L511.98,49.49L514.17,53.38L520.74,67.58L522.92,74.37L527.3,82.4L529.49,85.04L531.68,85.57L533.86,84.07L536.05,82.26L538.24,81.69L542.62,76.75L544.8,76.75L546.99,78.22L549.18,80.83L553.56,92.45L555.74,99.38L562.31,115.01L564.5,116.72L566.68,116.47L568.87,114.79L579.81,102.22L582,101.21L584.19,101.18L586.38,102.31L588.56,105.17L590.75,109.43L595.13,116.82L597.32,118.9L599.5,120.04L601.69,119.6L610.44,111.6L612.63,110.91L617.01,111.46L619.2,112.42L630.14,119.29L632.32,119.89L634.51,119.96L636.7,119.14L641.08,116.81L643.26,114.32L649.83,109.15L652.02,109.03L654.2,107.81L656.39,107.5L660.77,108.8L662.95,110.22L665.14,111.96L667.33,112.55L669.52,111.83L671.71,113.02L676.08,111.98L678.27,112.17L682.65,110.47L684.83,110.48L689.21,108.72L691.4,110.34L697.96,113.88L700.15,114.11L706.71,114.73L708.9,115.74L711.09,115.47L713.28,116.02L715.47,116.77L717.65,115.36L719.84,114.57L722.03,115.54L728.59,116.49L730.78,115.4L732.97,115.55L735.16,116.57L737.35,117.96L739.53,118.19L741.72,118.25L743.91,117.51L746.1,116.54L748.29,116.55L750.47,117.58L752.66,117.71L754.85,118.86L757.04,118.19L763.6,120.11L765.79,121.8L770.17,124.57L772.35,125.66L778.92,127.82L781.11,129.27L783.29,129.96L785.48,129.41L792.05,129.16L794.23,129.54L800.8,129.41L802.98,128.96L813.92,125.43L816.11,125.17L820.49,123.84L822.68,124.72L824.86,123.66L827.05,124.54L829.24,123.61L831.43,124.45L835.8,123.55L837.99,123.63L840.18,122.24L842.37,122.27L844.56,121.28L846.74,121.4L848.93,120.94L851.12,121.29L864.25,119.47L866.44,118.17L870.81,119.22L873,118.4" style="vector-effect: none; fill: none; stroke: rgb(0, 0, 255); stroke-opacity: 1; stroke-width: 1.5px; opacity: 1;"/></g><g class="points"/><g class="text"/></g><g class="trace scatter trace6f3eaf" style="stroke-miterlimit: 2; opacity: 1;"><g class="fills"/><g class="errorbars"/><g class="lines"><path class="js-line" d="M0,127.72L2.19,127.25L4.38,127.59L15.32,122.44L17.5,121.64L32.82,116.97L35.01,116.77L48.14,111.95L50.32,111.17L65.64,107.21L67.83,106.92L72.2,106.17L74.39,106.67L76.58,105.94L78.77,106.29L80.95,105.47L83.14,106.47L94.08,107.72L96.27,108.37L102.83,108.18L105.02,108.59L107.21,108.52L109.4,109.51L111.59,108.89L113.77,109.64L120.34,110.9L122.53,111.92L129.09,114.28L131.28,115.9L133.47,116.44L135.65,117.85L144.41,120.09L146.59,120.45L150.97,121.03L153.16,121.01L172.85,124.47L175.04,123.53L190.35,120.35L192.54,119.47L220.98,110.27L223.17,110.14L234.11,110.32L236.3,110.5L251.62,111.1L253.8,110.71L255.99,110.25L258.18,110.58L262.56,109.5L264.74,110.05L271.31,111.34L273.5,111.63L277.87,111.43L280.06,111.71L286.62,112.63L288.81,112.63L293.19,111.24L295.38,111.02L319.44,109.01L321.63,108.9L326.01,109.46L328.2,110.38L334.76,111.74L336.95,111.73L341.32,109.69L343.51,108.35L347.89,106.91L350.08,106.49L363.2,104.6L365.39,104.35L371.95,104.04L374.14,104.48L380.71,103.95L382.89,102.34L389.46,98.14L391.65,97.86L396.02,96.12L398.21,94.99L402.59,94.5L404.77,94.04L417.9,87.76L420.09,86.97L439.78,76.4L441.97,74.07L446.35,68.96L448.53,67.36L452.91,66.17L455.1,66.14L461.66,64.26L463.85,62.65L470.41,56.35L472.6,53.65L483.54,40.72L485.73,38.43L490.11,33.17L492.29,31.58L496.67,29.7L498.86,29.77L503.23,30.29L505.42,32.35L511.98,42.43L514.17,47.54L518.55,59.11L520.74,66.42L527.3,82.93L529.49,87.9L533.86,96.65L536.05,100.11L538.24,102.74L540.43,103.85L546.99,102.61L549.18,102.09L553.56,101.41L555.74,102.06L560.12,104.37L562.31,106.15L571.06,114.06L573.25,115.18L577.62,115.55L579.81,115.42L588.56,115.49L590.75,116.15L601.69,118.78L603.88,119.34L614.82,121.28L617.01,121.6L636.7,125.35L638.89,125.52L652.02,126.41L654.2,126.93L660.77,127.43L662.95,127.42L693.59,127.06L695.77,126.96L715.47,125.05L717.65,124.45L724.22,121.35L726.41,119.46L730.78,113.33L732.97,109.81L737.35,101.12L739.53,95.18L746.1,73.39L748.29,64.86L757.04,30.79L759.23,22.7L763.6,6.84L765.79,6.84L855.5,7.19L857.68,8.71L868.62,18.69L870.81,21.49L873,24.96" style="vector-effect: none; fill: none; stroke: rgb(255, 0, 0); stroke-opacity: 1; stroke-dasharray: 9px, 9px; stroke-width: 1.5px; opacity: 1;"/></g><g class="points"/><g class="text"/></g></g></g></g><g class="zerolinelayer-above"/><path class="xlines-above crisp" d="M0,0" style="fill: none;"/><path class="ylines-above crisp" d="M0,0" style="fill: none;"/><g class="overlines-above"/><g class="xaxislayer-above"/><g class="yaxislayer-above"><g class="y2tick"><text text-anchor="end" x="79" y="4.199999999999999" transform="translate(0,418.97999999999996)" style="font-family: 'Open Sans', verdana, arial, sans-serif; font-size: 12px; fill: rgb(42, 63, 95); fill-opacity: 1; white-space: pre;">0</text></g><g class="y2tick"><text text-anchor="end" x="79" y="4.199999999999999" style="font-family: 'Open Sans', verdana, arial, sans-serif; font-size: 12px; fill: rgb(42, 63, 95); fill-opacity: 1; white-space: pre;" transform="translate(0,384.78999999999996)">1</text></g><g class="y2tick"><text text-anchor="end" x="79" y="4.199999999999999" style="font-family: 'Open Sans', verdana, arial, sans-serif; font-size: 12px; fill: rgb(42, 63, 95); fill-opacity: 1; white-space: pre;" transform="translate(0,350.60999999999996)">2</text></g><g class="y2tick"><text text-anchor="end" x="79" y="4.199999999999999" style="font-family: 'Open Sans', verdana, arial, sans-serif; font-size: 12px; fill: rgb(42, 63, 95); fill-opacity: 1; white-space: pre;" transform="translate(0,316.42999999999995)">3</text></g></g><g class="overaxes-above"/></g><g class="subplot x3y3"><g class="layer-subplot"><g class="shapelayer"/><g class="imagelayer"/></g><g class="minor-gridlayer"><g class="x3"/><g class="y3"/></g><g class="gridlayer"><g class="x3"><path class="x3grid crisp" transform="translate(167.51999999999998,0)" d="M0,488.8v136.8" style="stroke: rgb(255, 255, 255); stroke-opacity: 1; stroke-width: 1px;"/><path class="x3grid crisp" transform="translate(255.04,0)" d="M0,488.8v136.8" style="stroke: rgb(255, 255, 255); stroke-opacity: 1; stroke-width: 1px;"/><path class="x3grid crisp" transform="translate(342.56,0)" d="M0,488.8v136.8" style="stroke: rgb(255, 255, 255); stroke-opacity: 1; stroke-width: 1px;"/><path class="x3grid crisp" transform="translate(430.08,0)" d="M0,488.8v136.8" style="stroke: rgb(255, 255, 255); stroke-opacity: 1; stroke-width: 1px;"/><path class="x3grid crisp" transform="translate(517.5899999999999,0)" d="M0,488.8v136.8" style="stroke: rgb(255, 255, 255); stroke-opacity: 1; stroke-width: 1px;"/><path class="x3grid crisp" transform="translate(605.11,0)" d="M0,488.8v136.8" style="stroke: rgb(255, 255, 255); stroke-opacity: 1; stroke-width: 1px;"/><path class="x3grid crisp" transform="translate(692.63,0)" d="M0,488.8v136.8" style="stroke: rgb(255, 255, 255); stroke-opacity: 1; stroke-width: 1px;"/><path class="x3grid crisp" transform="translate(780.15,0)" d="M0,488.8v136.8" style="stroke: rgb(255, 255, 255); stroke-opacity: 1; stroke-width: 1px;"/><path class="x3grid crisp" transform="translate(867.67,0)" d="M0,488.8v136.8" style="stroke: rgb(255, 255, 255); stroke-opacity: 1; stroke-width: 1px;"/></g><g class="y3"><path class="y3grid crisp" transform="translate(0,594.46)" d="M80,0h873" style="stroke: rgb(255, 255, 255); stroke-opacity: 1; stroke-width: 1px;"/><path class="y3grid crisp" transform="translate(0,528.8)" d="M80,0h873" style="stroke: rgb(255, 255, 255); stroke-opacity: 1; stroke-width: 1px;"/><path class="y3grid crisp" transform="translate(0,495.97)" d="M80,0h873" style="stroke: rgb(255, 255, 255); stroke-opacity: 1; stroke-width: 1px;"/></g></g><g class="zerolinelayer"><path class="x3zl zl crisp" transform="translate(80,0)" d="M0,488.8v136.8" style="stroke: rgb(255, 255, 255); stroke-opacity: 1; stroke-width: 2px;"/><path class="y3zl zl crisp" transform="translate(0,561.63)" d="M80,0h873" style="stroke: rgb(255, 255, 255); stroke-opacity: 1; stroke-width: 2px;"/></g><g class="layer-between"><g class="shapelayer"/><g class="imagelayer"/></g><path class="xlines-below"/><path class="ylines-below"/><g class="overlines-below"/><g class="xaxislayer-below"/><g class="yaxislayer-below"/><g class="overaxes-below"/><g class="overplot"><g class="x3y3" transform="translate(80,488.8)" clip-path="url(#clip87ffcfx3y3plot)"><g class="scatterlayer mlayer"><g class="trace scatter trace94af19" style="stroke-miterlimit: 2; opacity: 1;"><g class="fills"/><g class="errorbars"/><g class="lines"><path class="js-line" d="M0,70.53L6.56,68.24L8.75,67.91L10.94,68.24L13.13,69.55L21.88,68.56L24.07,68.56L28.44,67.91L30.63,68.89L35.01,69.22L37.2,68.24L39.38,68.24L41.57,69.22L43.76,69.22L45.95,70.21L48.14,69.88L50.32,68.56L54.7,68.24L56.89,69.22L61.26,70.53L63.45,69.55L70.02,70.53L72.2,68.89L76.58,70.21L78.77,68.56L83.14,68.56L85.33,66.92L89.71,66.27L91.89,66.92L94.08,66.92L96.27,65.94L100.65,66.92L102.83,66.92L105.02,67.91L107.21,67.58L111.59,67.25L113.77,68.24L120.34,67.58L122.53,66.27L129.09,67.58L131.28,67.58L135.65,68.24L137.84,67.91L140.03,67.25L142.22,67.91L144.41,67.25L146.59,67.91L159.72,69.88L161.91,70.86L168.47,69.22L170.66,69.22L175.04,68.89L177.23,69.88L183.79,70.86L185.98,72.18L190.35,72.18L192.54,71.19L194.73,69.55L196.92,69.88L201.29,69.22L203.48,69.88L205.67,69.55L207.86,68.24L212.23,68.56L214.42,70.21L216.61,69.88L218.8,70.53L220.98,71.19L223.17,69.88L229.74,69.88L231.92,71.19L234.11,70.86L236.3,71.85L242.86,72.18L245.05,73.49L247.24,72.18L249.43,71.85L255.99,71.52L258.18,72.5L275.68,72.5L277.87,73.82L284.44,72.83L286.62,73.49L293.19,73.82L295.38,73.49L299.75,74.15L301.94,74.15L304.13,73.49L306.32,71.19L308.5,70.86L310.69,68.56L317.26,65.94L319.44,63.97L328.2,62.33L330.38,60.68L336.95,57.07L339.14,55.43L341.32,55.43L343.51,53.13L350.08,41.97L352.26,40L354.45,39.67L356.64,38.36L361.02,35.08L363.2,32.45L365.39,30.15L367.58,29.17L376.33,22.27L378.52,20.63L380.71,18.99L382.89,16.03L385.08,14.06L387.27,14.39L389.46,15.7L391.65,15.05L393.83,13.41L396.02,10.78L398.21,10.12L400.4,8.15L411.34,6.84L413.53,7.82L415.71,8.81L417.9,10.78L420.09,12.75L422.28,13.08L428.84,13.73L431.03,14.72L437.59,15.38L439.78,16.36L444.16,18.33L446.35,20.96L448.53,22.6L450.72,22.93L452.91,22.27L455.1,23.26L466.04,21.29L468.23,21.94L470.41,22.93L472.6,25.55L474.79,26.21L476.98,27.85L481.35,34.09L483.54,38.36L494.48,62.98L496.67,68.24L498.86,73.82L501.05,76.77L505.42,81.7L507.61,85.31L514.17,103.37L516.36,106.32L518.55,107.96L520.74,111.9L527.3,119.78L529.49,122.08L531.68,123.39L533.86,127.66L536.05,127.99L538.24,129.96L544.8,128.98L546.99,127.33L551.37,123.72L553.56,124.05L557.93,122.08L560.12,119.45L562.31,116.17L564.5,111.25L568.87,101.72L571.06,97.46L573.25,94.5L575.44,93.52L577.62,93.84L579.81,92.2L582,90.23L584.19,85.97L588.56,76.44L590.75,75.13L597.32,67.58L599.5,66.92L603.88,64.3L606.07,61.01L610.44,53.79L612.63,50.83L614.82,48.21L617.01,44.27L627.95,39.34L630.14,38.69L632.32,38.03L634.51,39.02L638.89,42.96L641.08,42.96L645.45,45.58L647.64,48.86L649.83,49.85L652.02,49.85L654.2,49.52L656.39,50.18L658.58,49.85L660.77,51.49L665.14,51.49L667.33,52.8L671.71,54.45L673.89,57.07L678.27,58.71L680.46,60.03L684.83,60.68L687.02,60.36L689.21,61.67L691.4,62L695.77,62.65L697.96,61.34L700.15,62L702.34,61.34L708.9,60.68L711.09,60.03L713.28,60.03L715.47,58.71L717.65,59.37L719.84,58.71L724.22,58.39L726.41,57.4L730.78,58.06L732.97,58.39L735.16,59.7L737.35,57.73L739.53,57.4L741.72,58.06L743.91,59.7L746.1,59.37L752.66,59.7L754.85,60.03L759.23,59.7L761.41,60.36L765.79,61.67L767.98,61.01L778.92,62.65L781.11,62.33L785.48,62L787.67,62.98L794.23,63.64L796.42,63.31L809.55,65.28L811.74,66.27L824.86,68.24L827.05,67.91L835.8,69.55L837.99,68.89L851.12,70.21L853.31,69.88L857.68,70.21L859.87,69.88L864.25,70.53L866.44,72.18L873,73.16" style="vector-effect: none; fill: none; stroke: rgb(0, 0, 255); stroke-opacity: 1; stroke-width: 1.5px; opacity: 1;"/></g><g class="points"/><g class="text"/></g><g class="trace scatter trace7d0517" style="stroke-miterlimit: 2; opacity: 1;"><g class="fills"/><g class="errorbars"/><g class="lines"><path class="js-line" d="M0,70.47L8.75,72.13L10.94,71.96L15.32,72.61L17.5,72.52L24.07,73.72L26.26,74.53L30.63,76.09L32.82,75.8L35.01,75.38L37.2,76.21L39.38,76.44L41.57,75.63L54.7,76.7L56.89,76.57L74.39,75.01L76.58,74.46L83.14,73.32L85.33,73.18L98.46,72.99L100.65,73.44L109.4,73.98L111.59,73.56L122.53,73.95L124.71,74.24L137.84,75.51L140.03,76L148.78,78.78L150.97,78.87L157.53,80.1L159.72,80.66L168.47,84.55L170.66,84.36L177.23,85.07L179.41,85.96L181.6,87.24L183.79,87.48L190.35,88.98L192.54,90.87L199.11,91.99L201.29,92.97L205.67,93.42L207.86,93.02L223.17,93.25L225.36,92.91L229.74,92.35L231.92,92.78L238.49,93.94L240.68,93.8L245.05,93.07L247.24,92.56L260.37,90.09L262.56,88.84L266.93,86.75L269.12,86.57L277.87,86.55L280.06,85.85L284.44,84.75L286.62,84.63L291,85.51L293.19,85.77L299.75,85.91L301.94,85.53L319.44,81.27L321.63,81.01L334.76,79.57L336.95,79.71L341.32,79.07L343.51,78.44L347.89,78.18L350.08,77.72L354.45,76.67L356.64,76.44L374.14,74.13L376.33,74.52L380.71,74.14L382.89,74.92L389.46,73.04L391.65,72.67L393.83,72.61L396.02,71.35L402.59,65.18L404.77,64.1L409.15,61.87L411.34,59.98L417.9,55.24L420.09,54.33L426.65,50.74L428.84,49.25L435.41,45.84L437.59,44.9L444.16,41.74L446.35,39.98L450.72,36.4L452.91,35.4L455.1,35.14L457.29,35.67L470.41,40.36L472.6,41.37L476.98,42.67L479.17,42.82L485.73,42.71L487.92,43.3L492.29,45.25L494.48,45.15L501.05,41.59L503.23,42.12L507.61,45.71L509.8,46.06L511.98,45.14L514.17,43.2L516.36,41.78L518.55,41.85L525.11,46.2L527.3,45.5L531.68,42.14L533.86,41.46L536.05,42.17L538.24,44.42L540.43,46.09L542.62,46.48L560.12,37.16L562.31,37.26L568.87,38.31L571.06,37.67L577.62,34.35L579.81,34.02L584.19,33.92L586.38,34.54L590.75,35.76L592.94,35.83L597.32,34.85L599.5,33.97L608.26,30.65L610.44,30.12L614.82,30.14L617.01,30.51L625.76,32.25L627.95,31.91L632.32,30.41L634.51,29.26L638.89,27.41L641.08,26.88L645.45,26.53L647.64,26.85L654.2,28.06L656.39,27.91L671.71,24.73L673.89,24.49L682.65,22.57L684.83,22.07L726.41,12.58L728.59,11.57L732.97,9.14L735.16,8.6L739.53,9.19L741.72,10.36L746.1,14.41L748.29,16.67L752.66,18.9L754.85,19.76L763.6,25.65L765.79,25.48L767.98,25.53L770.17,26.56L774.54,29.4L776.73,29.81L785.48,29.49L787.67,31.07L792.05,34.59L794.23,35.33L802.98,37.13L805.17,38.09L818.3,44.76L820.49,45.58L827.05,48.51L829.24,49.71L837.99,55.65L840.18,57.28L844.56,59.59L846.74,60.22L855.5,62.09L857.68,62.96L866.44,65.39L868.62,65.78L873,66.59" style="vector-effect: none; fill: none; stroke: rgb(255, 0, 0); stroke-opacity: 1; stroke-dasharray: 9px, 9px; stroke-width: 1.5px; opacity: 1;"/></g><g class="points"/><g class="text"/></g></g></g></g><g class="zerolinelayer-above"/><path class="xlines-above crisp" d="M0,0" style="fill: none;"/><path class="ylines-above crisp" d="M0,0" style="fill: none;"/><g class="overlines-above"/><g class="xaxislayer-above"/><g class="yaxislayer-above"><g class="y3tick"><text text-anchor="end" x="79" y="4.199999999999999" transform="translate(0,594.46)" style="font-family: 'Open Sans', verdana, arial, sans-serif; font-size: 12px; fill: rgb(42, 63, 95); fill-opacity: 1; white-space: pre;">−1</text></g><g class="y3tick"><text text-anchor="end" x="79" y="4.199999999999999" style="font-family: 'Open Sans', verdana, arial, sans-serif; font-size: 12px; fill: rgb(42, 63, 95); fill-opacity: 1; white-space: pre;" transform="translate(0,561.63)">0</text></g><g class="y3tick"><text text-anchor="end" x="79" y="4.199999999999999" style="font-family: 'Open Sans', verdana, arial, sans-serif; font-size: 12px; fill: rgb(42, 63, 95); fill-opacity: 1; white-space: pre;" transform="translate(0,528.8)">1</text></g><g class="y3tick"><text text-anchor="end" x="79" y="4.199999999999999" style="font-family: 'Open Sans', verdana, arial, sans-serif; font-size: 12px; fill: rgb(42, 63, 95); fill-opacity: 1; white-space: pre;" transform="translate(0,495.97)">2</text></g></g><g class="overaxes-above"/></g><g class="subplot x4y4"><g class="layer-subplot"><g class="shapelayer"/><g class="imagelayer"/></g><g class="minor-gridlayer"><g class="x4"/><g class="y4"/></g><g class="gridlayer"><g class="x4"><path class="x4grid crisp" transform="translate(167.51999999999998,0)" d="M0,683.2v136.8" style="stroke: rgb(255, 255, 255); stroke-opacity: 1; stroke-width: 1px;"/><path class="x4grid crisp" transform="translate(255.04,0)" d="M0,683.2v136.8" style="stroke: rgb(255, 255, 255); stroke-opacity: 1; stroke-width: 1px;"/><path class="x4grid crisp" transform="translate(342.56,0)" d="M0,683.2v136.8" style="stroke: rgb(255, 255, 255); stroke-opacity: 1; stroke-width: 1px;"/><path class="x4grid crisp" transform="translate(430.08,0)" d="M0,683.2v136.8" style="stroke: rgb(255, 255, 255); stroke-opacity: 1; stroke-width: 1px;"/><path class="x4grid crisp" transform="translate(517.5899999999999,0)" d="M0,683.2v136.8" style="stroke: rgb(255, 255, 255); stroke-opacity: 1; stroke-width: 1px;"/><path class="x4grid crisp" transform="translate(605.11,0)" d="M0,683.2v136.8" style="stroke: rgb(255, 255, 255); stroke-opacity: 1; stroke-width: 1px;"/><path class="x4grid crisp" transform="translate(692.63,0)" d="M0,683.2v136.8" style="stroke: rgb(255, 255, 255); stroke-opacity: 1; stroke-width: 1px;"/><path class="x4grid crisp" transform="translate(780.15,0)" d="M0,683.2v136.8" style="stroke: rgb(255, 255, 255); stroke-opacity: 1; stroke-width: 1px;"/><path class="x4grid crisp" transform="translate(867.67,0)" d="M0,683.2v136.8" style="stroke: rgb(255, 255, 255); stroke-opacity: 1; stroke-width: 1px;"/></g><g class="y4"><path class="y4grid crisp" transform="translate(0,785.8800000000001)" d="M80,0h873" style="stroke: rgb(255, 255, 255); stroke-opacity: 1; stroke-width: 1px;"/><path class="y4grid crisp" transform="translate(0,757.44)" d="M80,0h873" style="stroke: rgb(255, 255, 255); stroke-opacity: 1; stroke-width: 1px;"/><path class="y4grid crisp" transform="translate(0,729.01)" d="M80,0h873" style="stroke: rgb(255, 255, 255); stroke-opacity: 1; stroke-width: 1px;"/><path class="y4grid crisp" transform="translate(0,700.57)" d="M80,0h873" style="stroke: rgb(255, 255, 255); stroke-opacity: 1; stroke-width: 1px;"/></g></g><g class="zerolinelayer"><path class="x4zl zl crisp" transform="translate(80,0)" d="M0,683.2v136.8" style="stroke: rgb(255, 255, 255); stroke-opacity: 1; stroke-width: 2px;"/><path class="y4zl zl crisp" transform="translate(0,814.32)" d="M80,0h873" style="stroke: rgb(255, 255, 255); stroke-opacity: 1; stroke-width: 2px;"/></g><g class="layer-between"><g class="shapelayer"/><g class="imagelayer"/></g><path class="xlines-below"/><path class="ylines-below"/><g class="overlines-below"/><g class="xaxislayer-below"/><g class="yaxislayer-below"/><g class="overaxes-below"/><g class="overplot"><g class="x4y4" transform="translate(80,683.2)" clip-path="url(#clip87ffcfx4y4plot)"><g class="scatterlayer mlayer"><g class="trace scatter tracef59851" style="stroke-miterlimit: 2; opacity: 1;"><g class="fills"/><g class="errorbars"/><g class="lines"><path class="js-line" d="M0,129.96L4.38,127.35L6.56,126.74L13.13,125.35L15.32,125.2L19.69,124.22L21.88,123.04L30.63,118L32.82,116.47L41.57,109.86L43.76,108.87L52.51,102.85L54.7,101.44L59.08,99.6L61.26,98.82L65.64,98.37L67.83,98.35L76.58,99.07L78.77,99.06L80.95,98.1L83.14,98.53L87.52,97.85L89.71,97.93L96.27,97.98L98.46,97.46L105.02,95.43L107.21,95.64L111.59,93.8L113.77,93.87L120.34,93.08L122.53,92.11L129.09,92.03L131.28,92.75L135.65,93.94L137.84,94.68L142.22,95.38L144.41,95.58L150.97,97.02L153.16,98.35L157.53,99.97L159.72,100.34L166.29,103.27L168.47,104.33L175.04,105.49L177.23,106.05L179.41,107.72L181.6,108.11L190.35,110.77L192.54,111.13L199.11,110.68L201.29,110.86L207.86,112.48L210.05,112.81L214.42,113.27L216.61,113.71L223.17,115.72L225.36,116.27L240.68,119.37L242.86,119.59L245.05,120.25L247.24,119.99L255.99,120.21L258.18,121L262.56,121.95L264.74,122.88L271.31,124.09L273.5,124.39L275.68,124.11L277.87,124.79L280.06,124.11L282.25,124.23L288.81,123.09L291,122.32L297.56,118.44L299.75,117.63L310.69,114.03L312.88,113.61L323.82,108.34L326.01,107.56L334.76,104.28L336.95,103.55L352.26,99.38L354.45,99L367.58,94.61L369.77,93.33L376.33,90.73L378.52,90.14L380.71,90.06L382.89,88.89L387.27,89.31L389.46,88.97L396.02,88.37L398.21,89.16L402.59,89.44L404.77,89.93L413.53,91.92L415.71,92.69L424.47,97.33L426.65,98.7L450.72,109.51L452.91,110.86L455.1,112.13L457.29,112.01L463.85,110.13L466.04,109.38L476.98,106.55L479.17,106.62L490.11,108.77L492.29,108.74L501.05,107.32L503.23,107.93L505.42,108.13L507.61,107.54L514.17,100.23L516.36,98.85L518.55,98.58L520.74,97.53L522.92,96.83L525.11,95.15L531.68,89.24L533.86,86.72L540.43,85.7L542.62,85.21L546.99,85.45L549.18,85.82L551.37,86.74L553.56,86.64L557.93,86.94L560.12,87.96L564.5,91.18L566.68,93.39L571.06,96.06L573.25,96.87L579.81,97.98L582,99.15L590.75,107.64L592.94,108.96L599.5,112.09L601.69,112.7L606.07,115.58L608.26,117.58L617.01,123.7L619.2,123.89L623.57,123.18L625.76,122.09L632.32,117.6L634.51,115.43L645.45,101.59L647.64,98.2L656.39,88.5L658.58,86.53L671.71,71.15L673.89,68.11L695.77,42.68L697.96,40.82L704.53,34.58L706.71,32.89L717.65,23.85L719.84,22.25L730.78,14.49L732.97,13.95L743.91,11.59L746.1,10.78L752.66,8.15L754.85,8.14L757.04,8.29L759.23,7.67L763.6,6.84L765.79,7.18L770.17,8.88L772.35,10.1L776.73,12.21L778.92,12.3L783.29,11.4L785.48,11.72L789.86,15.44L792.05,18.15L796.42,21.53L798.61,22.55L807.36,29.74L809.55,32.03L820.49,41.92L822.68,43.5L827.05,47.22L829.24,48.85L837.99,53.13L840.18,54.79L846.74,59.51L848.93,61.36L857.68,67.73L859.87,69.83L866.44,76.42L868.62,78.03L873,82.57" style="vector-effect: none; fill: none; stroke: rgb(128, 0, 128); stroke-opacity: 1; stroke-width: 1.5px; opacity: 1;"/></g><g class="points"/><g class="text"/></g></g></g></g><g class="zerolinelayer-above"/><path class="xlines-above crisp" d="M0,0" style="fill: none;"/><path class="ylines-above crisp" d="M0,0" style="fill: none;"/><g class="overlines-above"/><g class="xaxislayer-above"><g class="x4tick"><text text-anchor="middle" x="0" y="833" transform="translate(80,0)" style="font-family: 'Open Sans', verdana, arial, sans-serif; font-size: 12px; fill: rgb(42, 63, 95); fill-opacity: 1; white-space: pre;">0</text></g><g class="x4tick"><text text-anchor="middle" x="0" y="833" style="font-family: 'Open Sans', verdana, arial, sans-serif; font-size: 12px; fill: rgb(42, 63, 95); fill-opacity: 1; white-space: pre;" transform="translate(167.51999999999998,0)">2</text></g><g class="x4tick"><text text-anchor="middle" x="0" y="833" style="font-family: 'Open Sans', verdana, arial, sans-serif; font-size: 12px; fill: rgb(42, 63, 95); fill-opacity: 1; white-space: pre;" transform="translate(255.04,0)">4</text></g><g class="x4tick"><text text-anchor="middle" x="0" y="833" style="font-family: 'Open Sans', verdana, arial, sans-serif; font-size: 12px; fill: rgb(42, 63, 95); fill-opacity: 1; white-space: pre;" transform="translate(342.56,0)">6</text></g><g class="x4tick"><text text-anchor="middle" x="0" y="833" style="font-family: 'Open Sans', verdana, arial, sans-serif; font-size: 12px; fill: rgb(42, 63, 95); fill-opacity: 1; white-space: pre;" transform="translate(430.08,0)">8</text></g><g class="x4tick"><text text-anchor="middle" x="0" y="833" style="font-family: 'Open Sans', verdana, arial, sans-serif; font-size: 12px; fill: rgb(42, 63, 95); fill-opacity: 1; white-space: pre;" transform="translate(517.5899999999999,0)">10</text></g><g class="x4tick"><text text-anchor="middle" x="0" y="833" style="font-family: 'Open Sans', verdana, arial, sans-serif; font-size: 12px; fill: rgb(42, 63, 95); fill-opacity: 1; white-space: pre;" transform="translate(605.11,0)">12</text></g><g class="x4tick"><text text-anchor="middle" x="0" y="833" style="font-family: 'Open Sans', verdana, arial, sans-serif; font-size: 12px; fill: rgb(42, 63, 95); fill-opacity: 1; white-space: pre;" transform="translate(692.63,0)">14</text></g><g class="x4tick"><text text-anchor="middle" x="0" y="833" style="font-family: 'Open Sans', verdana, arial, sans-serif; font-size: 12px; fill: rgb(42, 63, 95); fill-opacity: 1; white-space: pre;" transform="translate(780.15,0)">16</text></g><g class="x4tick"><text text-anchor="middle" x="0" y="833" style="font-family: 'Open Sans', verdana, arial, sans-serif; font-size: 12px; fill: rgb(42, 63, 95); fill-opacity: 1; white-space: pre;" transform="translate(867.67,0)">18</text></g></g><g class="yaxislayer-above"><g class="y4tick"><text text-anchor="end" x="79" y="4.199999999999999" transform="translate(0,814.32)" style="font-family: 'Open Sans', verdana, arial, sans-serif; font-size: 12px; fill: rgb(42, 63, 95); fill-opacity: 1; white-space: pre;">0</text></g><g class="y4tick"><text text-anchor="end" x="79" y="4.199999999999999" style="font-family: 'Open Sans', verdana, arial, sans-serif; font-size: 12px; fill: rgb(42, 63, 95); fill-opacity: 1; white-space: pre;" transform="translate(0,785.8800000000001)">2</text></g><g class="y4tick"><text text-anchor="end" x="79" y="4.199999999999999" style="font-family: 'Open Sans', verdana, arial, sans-serif; font-size: 12px; fill: rgb(42, 63, 95); fill-opacity: 1; white-space: pre;" transform="translate(0,757.44)">4</text></g><g class="y4tick"><text text-anchor="end" x="79" y="4.199999999999999" style="font-family: 'Open Sans', verdana, arial, sans-serif; font-size: 12px; fill: rgb(42, 63, 95); fill-opacity: 1; white-space: pre;" transform="translate(0,729.01)">6</text></g><g class="y4tick"><text text-anchor="end" x="79" y="4.199999999999999" style="font-family: 'Open Sans', verdana, arial, sans-serif; font-size: 12px; fill: rgb(42, 63, 95); fill-opacity: 1; white-space: pre;" transform="translate(0,700.57)">8</text></g></g><g class="overaxes-above"/></g></g><g class="polarlayer"/><g class="smithlayer"/><g class="ternarylayer"/><g class="geolayer"/><g class="funnelarealayer"/><g class="pielayer"/><g class="iciclelayer"/><g class="treemaplayer"/><g class="sunburstlayer"/><g class="glimages"/><defs id="topdefs-87ffcf"><g class="clips"/><clipPath id="legend87ffcf"><rect width="118" height="48" x="0" y="0"/></clipPath></defs><g class="layer-above"><g class="imagelayer"/><g class="shapelayer"/></g><g class="infolayer"><g class="legend" pointer-events="all" transform="translate(970.46,100)"><rect class="bg" shape-rendering="crispEdges" style="stroke: rgb(68, 68, 68); stroke-opacity: 1; fill: rgb(255, 255, 255); fill-opacity: 1; stroke-width: 0px;" width="118" height="48" x="0" y="0"/><g class="scrollbox" transform="" clip-path="url(#legend87ffcf)"><g class="groups"><g class="traces" transform="translate(0,14.5)" style="opacity: 1;"><text class="legendtext" text-anchor="start" x="40" y="4.680000000000001" style="font-family: 'Open Sans', verdana, arial, sans-serif; font-size: 12px; fill: rgb(42, 63, 95); fill-opacity: 1; white-space: pre;">GT Vx_mps</text><g class="layers" style="opacity: 1;"><g class="legendfill"/><g class="legendlines"><path class="js-line" d="M5,0h30" style="fill: none; stroke: rgb(0, 0, 255); stroke-opacity: 1; stroke-width: 1.5px;"/></g><g class="legendsymbols"><g class="legendpoints"/></g></g><rect class="legendtoggle" x="0" y="-9.5" width="112.03125" height="19" style="fill: rgb(0, 0, 0); fill-opacity: 0;"/></g><g class="traces" transform="translate(0,33.5)" style="opacity: 1;"><text class="legendtext" text-anchor="start" x="40" y="4.680000000000001" style="font-family: 'Open Sans', verdana, arial, sans-serif; font-size: 12px; fill: rgb(42, 63, 95); fill-opacity: 1; white-space: pre;">Pred Vx_mps</text><g class="layers" style="opacity: 1;"><g class="legendfill"/><g class="legendlines"><path class="js-line" d="M5,0h30" style="fill: none; stroke: rgb(255, 0, 0); stroke-opacity: 1; stroke-dasharray: 9px, 9px; stroke-width: 1.5px;"/></g><g class="legendsymbols"><g class="legendpoints"/></g></g><rect class="legendtoggle" x="0" y="-9.5" width="112.03125" height="19" style="fill: rgb(0, 0, 0); fill-opacity: 0;"/></g></g></g><rect class="scrollbar" rx="20" ry="3" width="0" height="0" style="fill: rgb(128, 139, 164); fill-opacity: 1;" x="0" y="0"/></g><g class="g-gtitle"><text class="gtitle" x="55" y="50" text-anchor="start" dy="0em" style="opacity: 1; font-family: 'Open Sans', verdana, arial, sans-serif; font-size: 17px; fill: rgb(42, 63, 95); fill-opacity: 1; white-space: pre;">WAM v2 Dream: Velocity Prediction vs Ground Truth — Lap_2</text></g><g class="g-xtitle"/><g class="g-x2title"/><g class="g-x3title"/><g class="g-x4title"/><g class="g-ytitle"/><g class="g-y2title"/><g class="g-y3title"/><g class="g-y4title"/><g class="annotation" data-index="0" style="opacity: 1;"><g class="annotation-text-g" transform="rotate(0,516.5,89.5)"><g class="cursor-pointer" transform="translate(485,79)"><rect class="bg" x="0.5" y="0.5" width="63" height="20" style="stroke-width: 1px; stroke: rgb(0, 0, 0); stroke-opacity: 0; fill: rgb(0, 0, 0); fill-opacity: 0;"/><text class="annotation-text" text-anchor="middle" x="31.7734375" y="16" style="font-family: 'Open Sans', verdana, arial, sans-serif; font-size: 16px; fill: rgb(42, 63, 95); fill-opacity: 1; white-space: pre;">Vx (m/s)</text></g></g></g><g class="annotation" data-index="1" style="opacity: 1;"><g class="annotation-text-g" transform="rotate(0,516.5,283.9)"><g class="cursor-pointer" transform="translate(485,273)"><rect class="bg" x="0.5" y="0.5" width="62" height="20" style="stroke-width: 1px; stroke: rgb(0, 0, 0); stroke-opacity: 0; fill: rgb(0, 0, 0); fill-opacity: 0;"/><text class="annotation-text" text-anchor="middle" x="31.4765625" y="16" style="font-family: 'Open Sans', verdana, arial, sans-serif; font-size: 16px; fill: rgb(42, 63, 95); fill-opacity: 1; white-space: pre;">Vy (m/s)</text></g></g></g><g class="annotation" data-index="2" style="opacity: 1;"><g class="annotation-text-g" transform="rotate(0,516.5,478.3)"><g class="cursor-pointer" transform="translate(485,468)"><rect class="bg" x="0.5" y="0.5" width="63" height="20" style="stroke-width: 1px; stroke: rgb(0, 0, 0); stroke-opacity: 0; fill: rgb(0, 0, 0); fill-opacity: 0;"/><text class="annotation-text" text-anchor="middle" x="31.7734375" y="16" style="font-family: 'Open Sans', verdana, arial, sans-serif; font-size: 16px; fill: rgb(42, 63, 95); fill-opacity: 1; white-space: pre;">Vz (m/s)</text></g></g></g><g class="annotation" data-index="3" style="opacity: 1;"><g class="annotation-text-g" transform="rotate(0,516.5,672.7)"><g class="cursor-pointer" transform="translate(451,662)"><rect class="bg" x="0.5" y="0.5" width="130" height="20" style="stroke-width: 1px; stroke: rgb(0, 0, 0); stroke-opacity: 0; fill: rgb(0, 0, 0); fill-opacity: 0;"/><text class="annotation-text" text-anchor="middle" x="65.5703125" y="16" style="font-family: 'Open Sans', verdana, arial, sans-serif; font-size: 16px; fill: rgb(42, 63, 95); fill-opacity: 1; white-space: pre;">Speed Error (m/s)</text></g></g></g></g></svg>