<svg class="main-svg" xmlns="http://www.w3.org/2000/svg" xmlns:xlink="http://www.w3.org/1999/xlink" width="1100" height="900" style="" viewBox="0 0 1100 900"><rect x="0" y="0" width="1100" height="900" style="fill: rgb(255, 255, 255); fill-opacity: 1;"/><defs id="defs-029275"><g class="clips"><clipPath id="clip029275xyplot" class="plotclip"><rect width="873" height="136.79999999999995"/></clipPath><clipPath id="clip029275x2y2plot" class="plotclip"><rect width="873" height="136.79999999999995"/></clipPath><clipPath id="clip029275x3y3plot" class="plotclip"><rect width="873" height="136.8"/></clipPath><clipPath id="clip029275x4y4plot" class="plotclip"><rect width="873" height="136.8"/></clipPath><clipPath class="axesclip" id="clip029275x"><rect x="80" y="0" width="873" height="900"/></clipPath><clipPath class="axesclip" id="clip029275y"><rect x="0" y="100" width="1100" height="136.79999999999995"/></clipPath><clipPath class="axesclip" id="clip029275xy"><rect x="80" y="100" width="873" height="136.79999999999995"/></clipPath><clipPath class="axesclip" id="clip029275y2"><rect x="0" y="294.4" width="1100" height="136.79999999999995"/></clipPath><clipPath class="axesclip" id="clip029275xy2"><rect x="80" y="294.4" width="873" height="136.79999999999995"/></clipPath><clipPath class="axesclip" id="clip029275y3"><rect x="0" y="488.8" width="1100" height="136.8"/></clipPath><clipPath class="axesclip" id="clip029275xy3"><rect x="80" y="488.8" width="873" height="136.8"/></clipPath><clipPath class="axesclip" id="clip029275y4"><rect x="0" y="683.2" width="1100" height="136.8"/></clipPath><clipPath class="axesclip" id="clip029275xy4"><rect x="80" y="683.2" width="873" height="136.8"/></clipPath><clipPath class="axesclip" id="clip029275x2"><rect x="80" y="0" width="873" height="900"/></clipPath><clipPath class="axesclip" id="clip029275x2y"><rect x="80" y="100" width="873" height="136.79999999999995"/></clipPath><clipPath class="axesclip" id="clip029275x2y2"><rect x="80" y="294.4" width="873" height="136.79999999999995"/></clipPath><clipPath class="axesclip" id="clip029275x2y3"><rect x="80" y="488.8" width="873" height="136.8"/></clipPath><clipPath class="axesclip" id="clip029275x2y4"><rect x="80" y="683.2" width="873" height="136.8"/></clipPath><clipPath class="axesclip" id="clip029275x3"><rect x="80" y="0" width="873" height="900"/></clipPath><clipPath class="axesclip" id="clip029275x3y"><rect x="80" y="100" width="873" height="136.79999999999995"/></clipPath><clipPath class="axesclip" id="clip029275x3y2"><rect x="80" y="294.4" width="873" height="136.79999999999995"/></clipPath><clipPath class="axesclip" id="clip029275x3y3"><rect x="80" y="488.8" width="873" height="136.8"/></clipPath><clipPath class="axesclip" id="clip029275x3y4"><rect x="80" y="683.2" width="873" height="136.8"/></clipPath><clipPath class="axesclip" id="clip029275x4"><rect x="80" y="0" width="873" height="900"/></clipPath><clipPath class="axesclip" id="clip029275x4y"><rect x="80" y="100" width="873" height="136.79999999999995"/></clipPath><clipPath class="axesclip" id="clip029275x4y2"><rect x="80" y="294.4" width="873" height="136.79999999999995"/></clipPath><clipPath class="axesclip" id="clip029275x4y3"><rect x="80" y="488.8" width="873" height="136.8"/></clipPath><clipPath class="axesclip" id="clip029275x4y4"><rect x="80" y="683.2" width="873" height="136.8"/></clipPath></g><g class="gradients"/><g class="patterns"/></defs><g class="bglayer"><rect class="bg" x="80" y="100" width="873" height="136.79999999999995" style="fill: rgb(229, 236, 246); fill-opacity: 1; stroke-width: 0;"/><rect class="bg" x="80" y="294.4" width="873" height="136.79999999999995" style="fill: rgb(229, 236, 246); fill-opacity: 1; stroke-width: 0;"/><rect class="bg" x="80" y="488.8" width="873" height="136.8" style="fill: rgb(229, 236, 246); fill-opacity: 1; stroke-width: 0;"/><rect class="bg" x="80" y="683.2" width="873" height="136.8" style="fill: rgb(229, 236, 246); fill-opacity: 1; stroke-width: 0;"/></g><g class="layer-below"><g class="imagelayer"/><g class="shapelayer"/></g><g class="cartesianlayer"><g class="subplot xy"><g class="layer-subplot"><g class="shapelayer"/><g class="imagelayer"/></g><g class="minor-gridlayer"><g class="x"/><g class="y"/></g><g class="gridlayer"><g class="x"><path class="xgrid crisp" transform="translate(167.51999999999998,0)" d="M0,100v136.79999999999995" style="stroke: rgb(255, 255, 255); stroke-opacity: 1; stroke-width: 1px;"/><path class="xgrid crisp" transform="translate(255.04,0)" d="M0,100v136.79999999999995" style="stroke: rgb(255, 255, 255); stroke-opacity: 1; stroke-width: 1px;"/><path class="xgrid crisp" transform="translate(342.56,0)" d="M0,100v136.79999999999995" style="stroke: rgb(255, 255, 255); stroke-opacity: 1; stroke-width: 1px;"/><path class="xgrid crisp" transform="translate(430.08,0)" d="M0,100v136.79999999999995" style="stroke: rgb(255, 255, 255); stroke-opacity: 1; stroke-width: 1px;"/><path class="xgrid crisp" transform="translate(517.5899999999999,0)" d="M0,100v136.79999999999995" style="stroke: rgb(255, 255, 255); stroke-opacity: 1; stroke-width: 1px;"/><path class="xgrid crisp" transform="translate(605.11,0)" d="M0,100v136.79999999999995" style="stroke: rgb(255, 255, 255); stroke-opacity: 1; stroke-width: 1px;"/><path class="xgrid crisp" transform="translate(692.63,0)" d="M0,100v136.79999999999995" style="stroke: rgb(255, 255, 255); stroke-opacity: 1; stroke-width: 1px;"/><path class="xgrid crisp" transform="translate(780.15,0)" d="M0,100v136.79999999999995" style="stroke: rgb(255, 255, 255); stroke-opacity: 1; stroke-width: 1px;"/><path class="xgrid crisp" transform="translate(867.67,0)" d="M0,100v136.79999999999995" style="stroke: rgb(255, 255, 255); stroke-opacity: 1; stroke-width: 1px;"/></g><g class="y"><path class="ygrid crisp" transform="translate(0,210.26999999999998)" d="M80,0h873" style="stroke: rgb(255, 255, 255); stroke-opacity: 1; stroke-width: 1px;"/><path class="ygrid crisp" transform="translate(0,179.95999999999998)" d="M80,0h873" style="stroke: rgb(255, 255, 255); stroke-opacity: 1; stroke-width: 1px;"/><path class="ygrid crisp" transform="translate(0,149.64)" d="M80,0h873" style="stroke: rgb(255, 255, 255); stroke-opacity: 1; stroke-width: 1px;"/><path class="ygrid crisp" transform="translate(0,119.32)" d="M80,0h873" style="stroke: rgb(255, 255, 255); stroke-opacity: 1; stroke-width: 1px;"/></g></g><g class="zerolinelayer"><path class="xzl zl crisp" transform="translate(80,0)" d="M0,100v136.79999999999995" style="stroke: rgb(255, 255, 255); stroke-opacity: 1; stroke-width: 2px;"/></g><g class="layer-between"><g class="shapelayer"/><g class="imagelayer"/></g><path class="xlines-below"/><path class="ylines-below"/><g class="overlines-below"/><g class="xaxislayer-below"/><g class="yaxislayer-below"/><g class="overaxes-below"/><g class="overplot"><g class="xy" transform="translate(80,100)" clip-path="url(#clip029275xyplot)"><g class="scatterlayer mlayer"><g class="trace scatter trace2e98fe" style="stroke-miterlimit: 2; opacity: 1;"><g class="fills"/><g class="errorbars"/><g class="lines"><path class="js-line" d="M0,112.6L17.5,118.79L19.69,119.45L37.2,124.67L39.38,125.27L56.89,128.58L59.08,128.71L67.83,128.31L70.02,128.05L85.33,125.28L87.52,124.72L107.21,119.67L109.4,119.04L124.71,114.35L126.9,113.54L140.03,108.52L142.22,107.76L164.1,97.45L166.29,96.19L207.86,76.43L210.05,75.5L223.17,69.61L225.36,68.68L240.68,62.79L242.86,62.27L258.18,57.55L260.37,56.75L284.44,46.79L286.62,45.99L301.94,39.76L304.13,38.95L358.83,19.91L361.02,19.31L385.08,12.78L387.27,12.29L400.4,9.58L402.59,9.26L417.9,7.34L420.09,7.21L433.22,6.84L435.41,6.88L452.91,7.63L455.1,7.81L496.67,10.78L498.86,10.98L549.18,13.77L551.37,14.06L562.31,15.94L564.5,16.42L579.81,20.26L582,21L597.32,26.78L599.5,27.79L608.26,32.06L610.44,33.15L632.32,46.21L634.51,47.67L652.02,59.91L654.2,61.54L682.65,82.38L684.83,83.87L695.77,90.97L697.96,92.22L711.09,99.47L713.28,100.65L732.97,109.79L735.16,110.74L743.91,113.51L746.1,114.04L770.17,118.32L772.35,118.58L785.48,120.09L787.67,119.68L816.11,114.39L818.3,113.76L833.62,109.45L835.8,108.72L848.93,103.99L851.12,103.05L873,93.06" style="vector-effect: none; fill: none; stroke: rgb(0, 0, 255); stroke-opacity: 1; stroke-width: 1.5px; opacity: 1;"/></g><g class="points"/><g class="text"/></g><g class="trace scatter traceae3a4b" style="stroke-miterlimit: 2; opacity: 1;"><g class="fills"/><g class="errorbars"/><g class="lines"><path class="js-line" d="M0,112.41L6.56,114.68L8.75,115.11L26.26,119.84L28.44,120.9L50.32,128.01L52.51,128.22L59.08,129.32L61.26,129.29L70.02,129.96L72.2,129.91L85.33,129.33L87.52,128.96L133.47,117.86L135.65,117.2L157.53,111.89L159.72,111.42L166.29,110.03L168.47,109.04L181.6,105.84L183.79,105.3L196.92,100.51L199.11,99.75L210.05,95.78L212.23,94.68L227.55,87.75L229.74,87.06L240.68,82.1L242.86,81.73L255.99,76.11L258.18,75.26L271.31,69.65L273.5,69.16L328.2,42.98L330.38,41.82L350.08,33.92L352.26,32.79L361.02,29.61L363.2,29.12L387.27,24.46L389.46,24.24L413.53,22.87L415.71,22.72L435.41,21.75L437.59,21.77L457.29,22.04L459.47,21.92L492.29,23.96L494.48,24.38L514.17,26.57L516.36,26.71L551.37,28.47L553.56,28.42L562.31,28.68L564.5,29.06L575.44,32.35L577.62,33.3L584.19,36.44L586.38,37.78L603.88,47.43L606.07,48.45L632.32,60.89L634.51,61.99L649.83,68.86L652.02,69.81L676.08,78.87L678.27,79.63L735.16,99.13L737.35,99.48L748.29,100.31L750.47,99.99L767.98,98.57L770.17,98.59L789.86,99.75L792.05,99.95L824.86,104.01L827.05,104.39L842.37,106.51L844.56,106.7L855.5,106.38L857.68,106.1L873,102.61" style="vector-effect: none; fill: none; stroke: rgb(255, 0, 0); stroke-opacity: 1; stroke-dasharray: 9px, 9px; stroke-width: 1.5px; opacity: 1;"/></g><g class="points"/><g class="text"/></g></g></g></g><g class="zerolinelayer-above"/><path class="xlines-above crisp" d="M0,0" style="fill: none;"/><path class="ylines-above crisp" d="M0,0" style="fill: none;"/><g class="overlines-above"/><g class="xaxislayer-above"/><g class="yaxislayer-above"><g class="ytick"><text text-anchor="end" x="79" y="4.199999999999999" transform="translate(0,210.26999999999998)" style="font-family: 'Open Sans', verdana, arial, sans-serif; font-size: 12px; fill: rgb(42, 63, 95); fill-opacity: 1; white-space: pre;">15</text></g><g class="ytick"><text text-anchor="end" x="79" y="4.199999999999999" style="font-family: 'Open Sans', verdana, arial, sans-serif; font-size: 12px; fill: rgb(42, 63, 95); fill-opacity: 1; white-space: pre;" transform="translate(0,179.95999999999998)">20</text></g><g class="ytick"><text text-anchor="end" x="79" y="4.199999999999999" style="font-family: 'Open Sans', verdana, arial, sans-serif; font-size: 12px; fill: rgb(42, 63, 95); fill-opacity: 1; white-space: pre;" transform="translate(0,149.64)">25</text></g><g class="ytick"><text text-anchor="end" x="79" y="4.199999999999999" style="font-family: 'Open Sans', verdana, arial, sans-serif; font-size: 12px; fill: rgb(42, 63, 95); fill-opacity: 1; white-space: pre;" transform="translate(0,119.32)">30</text></g></g><g class="overaxes-above"/></g><g class="subplot x2y2"><g class="layer-subplot"><g class="shapelayer"/><g class="imagelayer"/></g><g class="minor-gridlayer"><g class="x2"/><g class="y2"/></g><g class="gridlayer"><g class="x2"><path class="x2grid crisp" transform="translate(167.51999999999998,0)" d="M0,294.4v136.79999999999995" style="stroke: rgb(255, 255, 255); stroke-opacity: 1; stroke-width: 1px;"/><path class="x2grid crisp" transform="translate(255.04,0)" d="M0,294.4v136.79999999999995" style="stroke: rgb(255, 255, 255); stroke-opacity: 1; stroke-width: 1px;"/><path class="x2grid crisp" transform="translate(342.56,0)" d="M0,294.4v136.79999999999995" style="stroke: rgb(255, 255, 255); stroke-opacity: 1; stroke-width: 1px;"/><path class="x2grid crisp" transform="translate(430.08,0)" d="M0,294.4v136.79999999999995" style="stroke: rgb(255, 255, 255); stroke-opacity: 1; stroke-width: 1px;"/><path class="x2grid crisp" transform="translate(517.5899999999999,0)" d="M0,294.4v136.79999999999995" style="stroke: rgb(255, 255, 255); stroke-opacity: 1; stroke-width: 1px;"/><path class="x2grid crisp" transform="translate(605.11,0)" d="M0,294.4v136.79999999999995" style="stroke: rgb(255, 255, 255); stroke-opacity: 1; stroke-width: 1px;"/><path class="x2grid crisp" transform="translate(692.63,0)" d="M0,294.4v136.79999999999995" style="stroke: rgb(255, 255, 255); stroke-opacity: 1; stroke-width: 1px;"/><path class="x2grid crisp" transform="translate(780.15,0)" d="M0,294.4v136.79999999999995" style="stroke: rgb(255, 255, 255); stroke-opacity: 1; stroke-width: 1px;"/><path class="x2grid crisp" transform="translate(867.67,0)" d="M0,294.4v136.79999999999995" style="stroke: rgb(255, 255, 255); stroke-opacity: 1; stroke-width: 1px;"/></g><g class="y2"><path class="y2grid crisp" transform="translate(0,375.58)" d="M80,0h873" style="stroke: rgb(255, 255, 255); stroke-opacity: 1; stroke-width: 1px;"/><path class="y2grid crisp" transform="translate(0,345.16999999999996)" d="M80,0h873" style="stroke: rgb(255, 255, 255); stroke-opacity: 1; stroke-width: 1px;"/><path class="y2grid crisp" transform="translate(0,314.75)" d="M80,0h873" style="stroke: rgb(255, 255, 255); stroke-opacity: 1; stroke-width: 1px;"/></g></g><g class="zerolinelayer"><path class="x2zl zl crisp" transform="translate(80,0)" d="M0,294.4v136.79999999999995" style="stroke: rgb(255, 255, 255); stroke-opacity: 1; stroke-width: 2px;"/><path class="y2zl zl crisp" transform="translate(0,405.99)" d="M80,0h873" style="stroke: rgb(255, 255, 255); stroke-opacity: 1; stroke-width: 2px;"/></g><g class="layer-between"><g class="shapelayer"/><g class="imagelayer"/></g><path class="xlines-below"/><path class="ylines-below"/><g class="overlines-below"/><g class="xaxislayer-below"/><g class="yaxislayer-below"/><g class="overaxes-below"/><g class="overplot"><g class="x2y2" transform="translate(80,294.4)" clip-path="url(#clip029275x2y2plot)"><g class="scatterlayer mlayer"><g class="trace scatter trace5677ae" style="stroke-miterlimit: 2; opacity: 1;"><g class="fills"/><g class="errorbars"/><g class="lines"><path class="js-line" d="M0,114.13L2.19,113.86L4.38,112.63L6.56,111.6L8.75,111.79L13.13,112.27L15.32,111.17L19.69,109.73L21.88,110.07L30.63,110.73L32.82,110.92L37.2,110.17L39.38,109.46L45.95,109.83L48.14,109.02L50.32,108.3L52.51,106.16L56.89,106.8L59.08,106.02L65.64,104.23L67.83,104.12L70.02,103.74L72.2,104.33L76.58,105.09L78.77,105.06L83.14,103.16L85.33,103.2L91.89,103.8L94.08,104.46L96.27,104.34L98.46,105.32L107.21,107.87L109.4,109.23L115.96,110.58L118.15,109.95L124.71,111.47L126.9,111.23L148.78,113.22L150.97,113.54L153.16,113.84L155.35,115.28L157.53,114.99L159.72,115.56L164.1,116.27L166.29,115.31L172.85,115.27L175.04,114.57L179.41,115.19L181.6,114.63L196.92,113.99L199.11,113.33L203.48,113.73L205.67,113.28L207.86,113.47L210.05,112.26L214.42,112.62L216.61,112.05L223.17,110.23L225.36,110.25L234.11,109.95L236.3,108.9L240.68,108.81L242.86,107.85L249.43,107.26L251.62,107.24L262.56,107.81L264.74,107.56L266.93,107.91L269.12,107.18L273.5,106.03L275.68,106.17L277.87,105.73L280.06,106.46L284.44,105.7L286.62,106.23L291,106.57L293.19,107.06L297.56,108.71L299.75,109.03L301.94,109.2L304.13,108.09L319.44,105.73L321.63,105.17L328.2,106.56L330.38,106.81L332.57,107.83L334.76,107.38L336.95,108.38L339.14,108.52L341.32,109.36L343.51,108.68L347.89,108.68L350.08,108.17L356.64,106.79L358.83,105.63L361.02,105.5L363.2,104.38L367.58,103.93L369.77,104.23L380.71,104.36L382.89,105.56L391.65,103.9L393.83,102.87L400.4,98.91L402.59,97.84L413.53,91.9L415.71,92.14L417.9,92.61L420.09,91.69L422.28,90.59L424.47,88.01L435.41,80.19L437.59,77.98L441.97,74.46L444.16,73.77L455.1,69.55L457.29,69.86L459.47,70.74L461.66,72.47L470.41,75.96L472.6,75.88L474.79,76.11L476.98,73.65L479.17,72.03L481.35,69.1L485.73,63.46L487.92,59.27L496.67,44.87L498.86,41.58L505.42,37.04L507.61,38.46L511.98,44.79L514.17,48.24L520.74,60.88L522.92,66.93L527.3,74.07L529.49,76.41L531.68,76.89L533.86,75.55L536.05,73.94L538.24,73.44L542.62,69.04L544.8,69.04L546.99,70.34L549.18,72.67L553.56,83L555.74,89.18L562.31,103.08L564.5,104.6L566.68,104.38L568.87,102.89L579.81,91.7L582,90.8L584.19,90.77L586.38,91.78L588.56,94.33L590.75,98.12L595.13,104.69L597.32,106.54L599.5,107.56L601.69,107.16L610.44,100.05L612.63,99.43L617.01,99.92L619.2,100.78L630.14,106.89L632.32,107.42L634.51,107.48L636.7,106.75L641.08,104.69L643.26,102.47L649.83,97.86L652.02,97.76L656.39,96.4L658.58,96.66L662.95,98.82L665.14,100.37L667.33,100.89L669.52,100.26L671.71,101.31L673.89,100.67L680.46,99.79L682.65,99.04L687.02,98.35L689.21,97.48L695.77,101.14L697.96,102.07L713.28,103.98L715.47,104.64L719.84,102.69L722.03,103.55L728.59,104.4L730.78,103.43L732.97,103.56L735.16,104.47L737.35,105.7L739.53,105.91L743.91,105.3L746.1,104.44L748.29,104.45L750.47,105.36L752.66,105.48L754.85,106.51L757.04,105.91L759.23,106.38L763.6,107.62L765.79,109.12L770.17,111.59L772.35,112.56L778.92,114.47L781.11,115.77L783.29,116.38L785.48,115.89L792.05,115.67L794.23,116.01L800.8,115.9L802.98,115.5L813.92,112.35L816.11,112.12L820.49,110.94L822.68,111.72L824.86,110.78L827.05,111.56L829.24,110.73L831.43,111.48L835.8,110.68L837.99,110.75L840.18,109.51L842.37,109.54L844.56,108.66L846.74,108.76L851.12,108.67L853.31,108.36L864.25,107.05L866.44,105.89L870.81,106.82L873,106.1" style="vector-effect: none; fill: none; stroke: rgb(0, 0, 255); stroke-opacity: 1; stroke-width: 1.5px; opacity: 1;"/></g><g class="points"/><g class="text"/></g><g class="trace scatter trace44231b" style="stroke-miterlimit: 2; opacity: 1;"><g class="fills"/><g class="errorbars"/><g class="lines"><path class="js-line" d="M0,114.23L2.19,114.28L4.38,115.3L8.75,116.91L10.94,116.95L13.13,117.53L15.32,117.23L28.44,118.64L30.63,118.13L32.82,119.44L35.01,118.31L39.38,117.75L41.57,118.63L43.76,117.92L45.95,118.04L50.32,118L52.51,117.32L59.08,115.82L61.26,115.51L74.39,113.14L76.58,112.74L87.52,111.89L89.71,111.6L96.27,111.34L98.46,111.61L109.4,112.13L111.59,112.52L135.65,117.77L137.84,118.03L146.59,119.26L148.78,118.84L161.91,119.25L164.1,119.39L168.47,119.72L170.66,120.78L175.04,121.77L177.23,122.25L210.05,123.26L212.23,122.89L229.74,121.06L231.92,121.44L251.62,121.08L253.8,120.93L269.12,120.67L271.31,120.85L277.87,121.49L280.06,121.38L306.32,119.01L308.5,119.11L323.82,119.91L326.01,119.56L336.95,116.74L339.14,116.63L343.51,115.85L345.7,115.99L354.45,115.26L356.64,114.27L361.02,112.95L363.2,112.3L374.14,109.8L376.33,108.61L378.52,108.39L380.71,107.07L385.08,106.73L387.27,105.8L426.65,95.98L428.84,95.14L441.97,89.94L444.16,89.73L450.72,87.47L452.91,87.43L459.47,86.8L461.66,85.99L468.23,85.06L470.41,84.27L474.79,83.64L476.98,83.89L479.17,84.3L481.35,83.9L485.73,80.52L487.92,78.56L494.48,73.64L496.67,73.13L498.86,72.87L501.05,74.18L505.42,78.02L507.61,81.67L525.11,115L527.3,118.37L531.68,123.26L533.86,125L540.43,128.69L542.62,129.43L546.99,129.96L549.18,129.61L568.87,122.32L571.06,122.3L575.44,121.45L577.62,120.44L582,119.68L584.19,119.52L595.13,120.01L597.32,120.27L603.88,120.4L606.07,120.13L612.63,119.7L614.82,119.8L621.38,120.72L623.57,121.28L634.51,124.19L636.7,124.3L643.26,123.21L645.45,122.54L652.02,121.3L654.2,121.5L665.14,121.16L667.33,120.9L687.02,119.45L689.21,119.41L702.34,118.47L704.53,118.08L722.03,115.38L724.22,115.3L735.16,114.81L737.35,114.24L746.1,109.33L748.29,106.63L763.6,82.89L765.79,79.44L774.54,66.65L776.73,63.68L802.98,26.88L805.17,23.62L816.11,6.84L818.3,6.84L870.81,7.07L873,7.76" style="vector-effect: none; fill: none; stroke: rgb(255, 0, 0); stroke-opacity: 1; stroke-dasharray: 9px, 9px; stroke-width: 1.5px; opacity: 1;"/></g><g class="points"/><g class="text"/></g></g></g></g><g class="zerolinelayer-above"/><path class="xlines-above crisp" d="M0,0" style="fill: none;"/><path class="ylines-above crisp" d="M0,0" style="fill: none;"/><g class="overlines-above"/><g class="xaxislayer-above"/><g class="yaxislayer-above"><g class="y2tick"><text text-anchor="end" x="79" y="4.199999999999999" transform="translate(0,405.99)" style="font-family: 'Open Sans', verdana, arial, sans-serif; font-size: 12px; fill: rgb(42, 63, 95); fill-opacity: 1; white-space: pre;">0</text></g><g class="y2tick"><text text-anchor="end" x="79" y="4.199999999999999" style="font-family: 'Open Sans', verdana, arial, sans-serif; font-size: 12px; fill: rgb(42, 63, 95); fill-opacity: 1; white-space: pre;" transform="translate(0,375.58)">1</text></g><g class="y2tick"><text text-anchor="end" x="79" y="4.199999999999999" style="font-family: 'Open Sans', verdana, arial, sans-serif; font-size: 12px; fill: rgb(42, 63, 95); fill-opacity: 1; white-space: pre;" transform="translate(0,345.16999999999996)">2</text></g><g class="y2tick"><text text-anchor="end" x="79" y="4.199999999999999" style="font-family: 'Open Sans', verdana, arial, sans-serif; font-size: 12px; fill: rgb(42, 63, 95); fill-opacity: 1; white-space: pre;" transform="translate(0,314.75)">3</text></g></g><g class="overaxes-above"/></g><g class="subplot x3y3"><g class="layer-subplot"><g class="shapelayer"/><g class="imagelayer"/></g><g class="minor-gridlayer"><g class="x3"/><g class="y3"/></g><g class="gridlayer"><g class="x3"><path class="x3grid crisp" transform="translate(167.51999999999998,0)" d="M0,488.8v136.8" style="stroke: rgb(255, 255, 255); stroke-opacity: 1; stroke-width: 1px;"/><path class="x3grid crisp" transform="translate(255.04,0)" d="M0,488.8v136.8" style="stroke: rgb(255, 255, 255); stroke-opacity: 1; stroke-width: 1px;"/><path class="x3grid crisp" transform="translate(342.56,0)" d="M0,488.8v136.8" style="stroke: rgb(255, 255, 255); stroke-opacity: 1; stroke-width: 1px;"/><path class="x3grid crisp" transform="translate(430.08,0)" d="M0,488.8v136.8" style="stroke: rgb(255, 255, 255); stroke-opacity: 1; stroke-width: 1px;"/><path class="x3grid crisp" transform="translate(517.5899999999999,0)" d="M0,488.8v136.8" style="stroke: rgb(255, 255, 255); stroke-opacity: 1; stroke-width: 1px;"/><path class="x3grid crisp" transform="translate(605.11,0)" d="M0,488.8v136.8" style="stroke: rgb(255, 255, 255); stroke-opacity: 1; stroke-width: 1px;"/><path class="x3grid crisp" transform="translate(692.63,0)" d="M0,488.8v136.8" style="stroke: rgb(255, 255, 255); stroke-opacity: 1; stroke-width: 1px;"/><path class="x3grid crisp" transform="translate(780.15,0)" d="M0,488.8v136.8" style="stroke: rgb(255, 255, 255); stroke-opacity: 1; stroke-width: 1px;"/><path class="x3grid crisp" transform="translate(867.67,0)" d="M0,488.8v136.8" style="stroke: rgb(255, 255, 255); stroke-opacity: 1; stroke-width: 1px;"/></g><g class="y3"><path class="y3grid crisp" transform="translate(0,594.46)" d="M80,0h873" style="stroke: rgb(255, 255, 255); stroke-opacity: 1; stroke-width: 1px;"/><path class="y3grid crisp" transform="translate(0,528.8)" d="M80,0h873" style="stroke: rgb(255, 255, 255); stroke-opacity: 1; stroke-width: 1px;"/><path class="y3grid crisp" transform="translate(0,495.97)" d="M80,0h873" style="stroke: rgb(255, 255, 255); stroke-opacity: 1; stroke-width: 1px;"/></g></g><g class="zerolinelayer"><path class="x3zl zl crisp" transform="translate(80,0)" d="M0,488.8v136.8" style="stroke: rgb(255, 255, 255); stroke-opacity: 1; stroke-width: 2px;"/><path class="y3zl zl crisp" transform="translate(0,561.63)" d="M80,0h873" style="stroke: rgb(255, 255, 255); stroke-opacity: 1; stroke-width: 2px;"/></g><g class="layer-between"><g class="shapelayer"/><g class="imagelayer"/></g><path class="xlines-below"/><path class="ylines-below"/><g class="overlines-below"/><g class="xaxislayer-below"/><g class="yaxislayer-below"/><g class="overaxes-below"/><g class="overplot"><g class="x3y3" transform="translate(80,488.8)" clip-path="url(#clip029275x3y3plot)"><g class="scatterlayer mlayer"><g class="trace scatter traceddb27c" style="stroke-miterlimit: 2; opacity: 1;"><g class="fills"/><g class="errorbars"/><g class="lines"><path class="js-line" d="M0,70.53L6.56,68.24L8.75,67.91L10.94,68.24L13.13,69.55L21.88,68.56L24.07,68.56L28.44,67.91L30.63,68.89L35.01,69.22L37.2,68.24L39.38,68.24L41.57,69.22L43.76,69.22L45.95,70.21L48.14,69.88L50.32,68.56L54.7,68.24L56.89,69.22L61.26,70.53L63.45,69.55L70.02,70.53L72.2,68.89L76.58,70.21L78.77,68.56L83.14,68.56L85.33,66.92L89.71,66.27L91.89,66.92L94.08,66.92L96.27,65.94L100.65,66.92L102.83,66.92L105.02,67.91L107.21,67.58L111.59,67.25L113.77,68.24L120.34,67.58L122.53,66.27L129.09,67.58L131.28,67.58L135.65,68.24L137.84,67.91L140.03,67.25L142.22,67.91L144.41,67.25L146.59,67.91L159.72,69.88L161.91,70.86L168.47,69.22L170.66,69.22L175.04,68.89L177.23,69.88L183.79,70.86L185.98,72.18L190.35,72.18L192.54,71.19L194.73,69.55L196.92,69.88L201.29,69.22L203.48,69.88L205.67,69.55L207.86,68.24L212.23,68.56L214.42,70.21L216.61,69.88L218.8,70.53L220.98,71.19L223.17,69.88L229.74,69.88L231.92,71.19L234.11,70.86L236.3,71.85L242.86,72.18L245.05,73.49L247.24,72.18L249.43,71.85L255.99,71.52L258.18,72.5L275.68,72.5L277.87,73.82L284.44,72.83L286.62,73.49L293.19,73.82L295.38,73.49L299.75,74.15L301.94,74.15L304.13,73.49L306.32,71.19L308.5,70.86L310.69,68.56L317.26,65.94L319.44,63.97L328.2,62.33L330.38,60.68L336.95,57.07L339.14,55.43L341.32,55.43L343.51,53.13L350.08,41.97L352.26,40L354.45,39.67L356.64,38.36L361.02,35.08L363.2,32.45L365.39,30.15L367.58,29.17L376.33,22.27L378.52,20.63L380.71,18.99L382.89,16.03L385.08,14.06L387.27,14.39L389.46,15.7L391.65,15.05L393.83,13.41L396.02,10.78L398.21,10.12L400.4,8.15L411.34,6.84L413.53,7.82L415.71,8.81L417.9,10.78L420.09,12.75L422.28,13.08L428.84,13.73L431.03,14.72L437.59,15.38L439.78,16.36L444.16,18.33L446.35,20.96L448.53,22.6L450.72,22.93L452.91,22.27L455.1,23.26L466.04,21.29L468.23,21.94L470.41,22.93L472.6,25.55L474.79,26.21L476.98,27.85L481.35,34.09L483.54,38.36L494.48,62.98L496.67,68.24L498.86,73.82L501.05,76.77L505.42,81.7L507.61,85.31L514.17,103.37L516.36,106.32L518.55,107.96L520.74,111.9L527.3,119.78L529.49,122.08L531.68,123.39L533.86,127.66L536.05,127.99L538.24,129.96L544.8,128.98L546.99,127.33L551.37,123.72L553.56,124.05L557.93,122.08L560.12,119.45L562.31,116.17L564.5,111.25L568.87,101.72L571.06,97.46L573.25,94.5L575.44,93.52L577.62,93.84L579.81,92.2L582,90.23L584.19,85.97L588.56,76.44L590.75,75.13L597.32,67.58L599.5,66.92L603.88,64.3L606.07,61.01L610.44,53.79L612.63,50.83L614.82,48.21L617.01,44.27L627.95,39.34L630.14,38.69L632.32,38.03L634.51,39.02L638.89,42.96L641.08,42.96L645.45,45.58L647.64,48.86L649.83,49.85L652.02,49.85L654.2,49.52L656.39,50.18L658.58,49.85L660.77,51.49L665.14,51.49L667.33,52.8L671.71,54.45L673.89,57.07L678.27,58.71L680.46,60.03L684.83,60.68L687.02,60.36L689.21,61.67L691.4,62L695.77,62.65L697.96,61.34L700.15,62L702.34,61.34L708.9,60.68L711.09,60.03L713.28,60.03L715.47,58.71L717.65,59.37L719.84,58.71L724.22,58.39L726.41,57.4L730.78,58.06L732.97,58.39L735.16,59.7L737.35,57.73L739.53,57.4L741.72,58.06L743.91,59.7L746.1,59.37L752.66,59.7L754.85,60.03L759.23,59.7L761.41,60.36L765.79,61.67L767.98,61.01L778.92,62.65L781.11,62.33L785.48,62L787.67,62.98L794.23,63.64L796.42,63.31L809.55,65.28L811.74,66.27L824.86,68.24L827.05,67.91L835.8,69.55L837.99,68.89L851.12,70.21L853.31,69.88L857.68,70.21L859.87,69.88L864.25,70.53L866.44,72.18L873,73.16" style="vector-effect: none; fill: none; stroke: rgb(0, 0, 255); stroke-opacity: 1; stroke-width: 1.5px; opacity: 1;"/></g><g class="points"/><g class="text"/></g><g class="trace scatter tracec7f899" style="stroke-miterlimit: 2; opacity: 1;"><g class="fills"/><g class="errorbars"/><g class="lines"><path class="js-line" d="M0,69.68L10.94,67.9L13.13,68.3L28.44,69.48L30.63,68.87L35.01,70.86L37.2,71.4L39.38,70.44L41.57,70.57L43.76,69.49L45.95,69.29L50.32,69.82L52.51,70.08L61.26,70.17L63.45,70.24L67.83,71.03L70.02,71.01L74.39,70.92L76.58,70.68L85.33,69.86L87.52,69.93L100.65,69.74L102.83,69.39L122.53,68.32L124.71,68.58L146.59,70.48L148.78,70.38L159.72,70.46L161.91,70.9L166.29,72.19L168.47,72.14L179.41,71.31L181.6,71.58L190.35,72.12L192.54,71.62L205.67,69.11L207.86,69.36L212.23,69.16L214.42,68.45L229.74,65.18L231.92,64.98L236.3,64.91L238.49,64.86L240.68,64.45L242.86,64.85L253.8,63.97L255.99,63.81L266.93,61.46L269.12,61.81L280.06,61.78L282.25,61.46L299.75,58.42L301.94,57.65L310.69,55.53L312.88,55.47L319.44,55.6L321.63,55.72L328.2,54.54L330.38,53.47L336.95,49.94L339.14,49.28L347.89,50.54L350.08,51L354.45,50.88L356.64,49.86L363.2,44.13L365.39,42.39L369.77,39.18L371.95,37.81L385.08,31.28L387.27,29.82L413.53,14.73L415.71,13.83L420.09,13.01L422.28,13.36L426.65,15.99L428.84,18.1L437.59,24.58L439.78,25.84L448.53,31.23L450.72,31.47L455.1,32.92L457.29,34.12L459.47,34.82L461.66,34.63L468.23,34.72L470.41,35.06L474.79,36.13L476.98,37.64L483.54,42.4L485.73,43.2L490.11,44.16L492.29,44.2L505.42,42.8L507.61,42.5L514.17,41.73L516.36,42.06L520.74,42.7L522.92,42.5L538.24,38.95L540.43,37.9L549.18,30.26L551.37,29.46L555.74,29.39L557.93,29.81L562.31,29.63L564.5,28.57L568.87,26.47L571.06,26.26L584.19,27.56L586.38,27.86L590.75,26.62L592.94,25.12L599.5,20.77L601.69,19.85L608.26,17.48L610.44,17.02L619.2,16.22L621.38,16.25L634.51,17.39L636.7,17.78L645.45,18.81L647.64,18.42L654.2,15.86L656.39,15.9L665.14,16.31L667.33,16.28L691.4,15.29L693.59,15.48L717.65,17.58L719.84,17.41L728.59,15.29L730.78,14.71L737.35,13.53L739.53,13.77L741.72,14.72L743.91,16.88L748.29,23.29L750.47,25.05L754.85,26.93L757.04,27.49L767.98,29.14L770.17,29.45L802.98,34.77L805.17,35.3L840.18,43.55L842.37,43.66L853.31,44.06L855.5,44.43L866.44,45.33L868.62,45.51L873,45.05" style="vector-effect: none; fill: none; stroke: rgb(255, 0, 0); stroke-opacity: 1; stroke-dasharray: 9px, 9px; stroke-width: 1.5px; opacity: 1;"/></g><g class="points"/><g class="text"/></g></g></g></g><g class="zerolinelayer-above"/><path class="xlines-above crisp" d="M0,0" style="fill: none;"/><path class="ylines-above crisp" d="M0,0" style="fill: none;"/><g class="overlines-above"/><g class="xaxislayer-above"/><g class="yaxislayer-above"><g class="y3tick"><text text-anchor="end" x="79" y="4.199999999999999" transform="translate(0,594.46)" style="font-family: 'Open Sans', verdana, arial, sans-serif; font-size: 12px; fill: rgb(42, 63, 95); fill-opacity: 1; white-space: pre;">−1</text></g><g class="y3tick"><text text-anchor="end" x="79" y="4.199999999999999" style="font-family: 'Open Sans', verdana, arial, sans-serif; font-size: 12px; fill: rgb(42, 63, 95); fill-opacity: 1; white-space: pre;" transform="translate(0,561.63)">0</text></g><g class="y3tick"><text text-anchor="end" x="79" y="4.199999999999999" style="font-family: 'Open Sans', verdana, arial, sans-serif; font-size: 12px; fill: rgb(42, 63, 95); fill-opacity: 1; white-space: pre;" transform="translate(0,528.8)">1</text></g><g class="y3tick"><text text-anchor="end" x="79" y="4.199999999999999" style="font-family: 'Open Sans', verdana, arial, sans-serif; font-size: 12px; fill: rgb(42, 63, 95); fill-opacity: 1; white-space: pre;" transform="translate(0,495.97)">2</text></g></g><g class="overaxes-above"/></g><g class="subplot x4y4"><g class="layer-subplot"><g class="shapelayer"/><g class="imagelayer"/></g><g class="minor-gridlayer"><g class="x4"/><g class="y4"/></g><g class="gridlayer"><g class="x4"><path class="x4grid crisp" transform="translate(167.51999999999998,0)" d="M0,683.2v136.8" style="stroke: rgb(255, 255, 255); stroke-opacity: 1; stroke-width: 1px;"/><path class="x4grid crisp" transform="translate(255.04,0)" d="M0,683.2v136.8" style="stroke: rgb(255, 255, 255); stroke-opacity: 1; stroke-width: 1px;"/><path class="x4grid crisp" transform="translate(342.56,0)" d="M0,683.2v136.8" style="stroke: rgb(255, 255, 255); stroke-opacity: 1; stroke-width: 1px;"/><path class="x4grid crisp" transform="translate(430.08,0)" d="M0,683.2v136.8" style="stroke: rgb(255, 255, 255); stroke-opacity: 1; stroke-width: 1px;"/><path class="x4grid crisp" transform="translate(517.5899999999999,0)" d="M0,683.2v136.8" style="stroke: rgb(255, 255, 255); stroke-opacity: 1; stroke-width: 1px;"/><path class="x4grid crisp" transform="translate(605.11,0)" d="M0,683.2v136.8" style="stroke: rgb(255, 255, 255); stroke-opacity: 1; stroke-width: 1px;"/><path class="x4grid crisp" transform="translate(692.63,0)" d="M0,683.2v136.8" style="stroke: rgb(255, 255, 255); stroke-opacity: 1; stroke-width: 1px;"/><path class="x4grid crisp" transform="translate(780.15,0)" d="M0,683.2v136.8" style="stroke: rgb(255, 255, 255); stroke-opacity: 1; stroke-width: 1px;"/><path class="x4grid crisp" transform="translate(867.67,0)" d="M0,683.2v136.8" style="stroke: rgb(255, 255, 255); stroke-opacity: 1; stroke-width: 1px;"/></g><g class="y4"><path class="y4grid crisp" transform="translate(0,785.1800000000001)" d="M80,0h873" style="stroke: rgb(255, 255, 255); stroke-opacity: 1; stroke-width: 1px;"/><path class="y4grid crisp" transform="translate(0,756.35)" d="M80,0h873" style="stroke: rgb(255, 255, 255); stroke-opacity: 1; stroke-width: 1px;"/><path class="y4grid crisp" transform="translate(0,727.5300000000001)" d="M80,0h873" style="stroke: rgb(255, 255, 255); stroke-opacity: 1; stroke-width: 1px;"/><path class="y4grid crisp" transform="translate(0,698.7)" d="M80,0h873" style="stroke: rgb(255, 255, 255); stroke-opacity: 1; stroke-width: 1px;"/></g></g><g class="zerolinelayer"><path class="x4zl zl crisp" transform="translate(80,0)" d="M0,683.2v136.8" style="stroke: rgb(255, 255, 255); stroke-opacity: 1; stroke-width: 2px;"/><path class="y4zl zl crisp" transform="translate(0,814.01)" d="M80,0h873" style="stroke: rgb(255, 255, 255); stroke-opacity: 1; stroke-width: 2px;"/></g><g class="layer-between"><g class="shapelayer"/><g class="imagelayer"/></g><path class="xlines-below"/><path class="ylines-below"/><g class="overlines-below"/><g class="xaxislayer-below"/><g class="yaxislayer-below"/><g class="overaxes-below"/><g class="overplot"><g class="x4y4" transform="translate(80,683.2)" clip-path="url(#clip029275x4y4plot)"><g class="scatterlayer mlayer"><g class="trace scatter trace763012" style="stroke-miterlimit: 2; opacity: 1;"><g class="fills"/><g class="errorbars"/><g class="lines"><path class="js-line" d="M0,129.63L2.19,129.96L4.38,127.8L8.75,124.31L10.94,123.66L13.13,123.93L15.32,122.82L19.69,121.43L21.88,120.81L26.26,119.23L28.44,120.44L32.82,121.85L35.01,121.6L39.38,122.16L41.57,121.82L45.95,122.98L48.14,122.22L52.51,120.09L54.7,121.17L56.89,121.72L59.08,121.07L61.26,120.86L63.45,119.63L67.83,118.42L70.02,117.47L76.58,115.64L78.77,113.93L85.33,109.64L87.52,108.86L89.71,108.87L91.89,109.83L96.27,109.47L98.46,108.86L102.83,107.92L105.02,108.4L111.59,108.05L113.77,107.27L118.15,106.2L120.34,104.92L124.71,103.73L126.9,102.44L131.28,99.9L133.47,98.7L137.84,96.38L140.03,94.89L142.22,94.04L144.41,92.27L146.59,90.37L148.78,86.79L150.97,86.01L153.16,82.7L155.35,80.58L157.53,76.92L159.72,74.71L161.91,70.54L166.29,64.88L168.47,64.48L170.66,61L172.85,59.98L177.23,53.71L179.41,51.08L183.79,46.77L185.98,46.69L188.17,46L190.35,44.41L192.54,41.15L194.73,40.72L201.29,37.87L203.48,35.14L205.67,33.57L207.86,33.23L216.61,36.07L218.8,35.19L223.17,34.02L225.36,34.8L227.55,35.16L229.74,34.45L234.11,36.54L236.3,36.35L238.49,36.41L240.68,37.94L242.86,37.19L245.05,37.97L253.8,45.5L255.99,45.34L258.18,45.32L260.37,46.44L264.74,46.91L266.93,47.4L271.31,46.6L273.5,44.74L275.68,45.23L277.87,46.72L282.25,48.53L284.44,49.64L286.62,50.71L288.81,49.42L293.19,49.76L295.38,50.38L301.94,52.16L304.13,53.43L308.5,56.78L310.69,58.32L312.88,60.27L315.07,60.62L332.57,70.31L334.76,70.82L339.14,71.8L341.32,72.67L343.51,72.26L345.7,73.79L347.89,75.44L350.08,76.08L352.26,78.17L354.45,78.91L356.64,80.73L358.83,80.73L365.39,78.87L367.58,78.42L374.14,77.12L376.33,76.26L389.46,70.21L391.65,68.97L400.4,63.58L402.59,62.67L411.34,58.52L413.53,58.44L426.65,58.13L428.84,58.37L435.41,58.78L437.59,58.57L439.78,57.77L441.97,57.85L448.53,59.29L450.72,59.13L452.91,59.2L455.1,60.03L461.66,62.84L463.85,62.98L466.04,63.08L468.23,63.96L474.79,66.72L476.98,66.5L485.73,65.79L487.92,65.29L490.11,63.92L492.29,61.55L507.61,42.38L509.8,38.65L514.17,31.31L516.36,29.43L518.55,28.76L520.74,27.04L522.92,26.27L525.11,24.33L531.68,20.05L533.86,16.21L540.43,10.58L542.62,7.65L544.8,6.84L546.99,7.44L549.18,9.17L551.37,12.72L553.56,15.65L555.74,20.02L566.68,37.42L568.87,39.15L573.25,41.97L575.44,41.36L577.62,39.62L579.81,39.18L582,38.92L584.19,39.98L588.56,40.89L590.75,39.89L597.32,37.59L599.5,37.26L603.88,36.95L606.07,37.79L621.38,50.04L623.57,51.1L630.14,55.81L632.32,56.98L643.26,64.14L645.45,65.82L654.2,73.2L656.39,75.36L665.14,86.6L667.33,87.8L671.71,90.02L673.89,88.94L678.27,88.62L680.46,87.19L684.83,85.37L687.02,84.46L689.21,82.32L691.4,81.64L693.59,81.25L695.77,79.96L697.96,80.31L700.15,78.7L702.34,78.34L704.53,77.12L711.09,74.62L713.28,73.22L715.47,72.87L717.65,70.68L726.41,67L728.59,66.49L732.97,64.15L735.16,61.75L737.35,61.03L739.53,59.04L743.91,57.12L746.1,57.63L748.29,56.3L750.47,53.49L770.17,26.18L772.35,23.92L776.73,19.6L778.92,17.39L783.29,13.07L785.48,12.03L792.05,13.69L794.23,13.37L800.8,14.6L802.98,14.66L811.74,14.61L813.92,13.97L816.11,13.77L818.3,16.12L820.49,18.5L822.68,19.74L824.86,22.3L827.05,23.42L829.24,25.61L831.43,26.27L835.8,28.69L837.99,29.33L840.18,30.8L842.37,30.85L844.56,31.52L846.74,31.01L851.12,30.01L853.31,29.65L868.62,25.31L870.81,24.06L873,24.23" style="vector-effect: none; fill: none; stroke: rgb(128, 0, 128); stroke-opacity: 1; stroke-width: 1.5px; opacity: 1;"/></g><g class="points"/><g class="text"/></g></g></g></g><g class="zerolinelayer-above"/><path class="xlines-above crisp" d="M0,0" style="fill: none;"/><path class="ylines-above crisp" d="M0,0" style="fill: none;"/><g class="overlines-above"/><g class="xaxislayer-above"><g class="x4tick"><text text-anchor="middle" x="0" y="833" transform="translate(80,0)" style="font-family: 'Open Sans', verdana, arial, sans-serif; font-size: 12px; fill: rgb(42, 63, 95); fill-opacity: 1; white-space: pre;">0</text></g><g class="x4tick"><text text-anchor="middle" x="0" y="833" style="font-family: 'Open Sans', verdana, arial, sans-serif; font-size: 12px; fill: rgb(42, 63, 95); fill-opacity: 1; white-space: pre;" transform="translate(167.51999999999998,0)">2</text></g><g class="x4tick"><text text-anchor="middle" x="0" y="833" style="font-family: 'Open Sans', verdana, arial, sans-serif; font-size: 12px; fill: rgb(42, 63, 95); fill-opacity: 1; white-space: pre;" transform="translate(255.04,0)">4</text></g><g class="x4tick"><text text-anchor="middle" x="0" y="833" style="font-family: 'Open Sans', verdana, arial, sans-serif; font-size: 12px; fill: rgb(42, 63, 95); fill-opacity: 1; white-space: pre;" transform="translate(342.56,0)">6</text></g><g class="x4tick"><text text-anchor="middle" x="0" y="833" style="font-family: 'Open Sans', verdana, arial, sans-serif; font-size: 12px; fill: rgb(42, 63, 95); fill-opacity: 1; white-space: pre;" transform="translate(430.08,0)">8</text></g><g class="x4tick"><text text-anchor="middle" x="0" y="833" style="font-family: 'Open Sans', verdana, arial, sans-serif; font-size: 12px; fill: rgb(42, 63, 95); fill-opacity: 1; white-space: pre;" transform="translate(517.5899999999999,0)">10</text></g><g class="x4tick"><text text-anchor="middle" x="0" y="833" style="font-family: 'Open Sans', verdana, arial, sans-serif; font-size: 12px; fill: rgb(42, 63, 95); fill-opacity: 1; white-space: pre;" transform="translate(605.11,0)">12</text></g><g class="x4tick"><text text-anchor="middle" x="0" y="833" style="font-family: 'Open Sans', verdana, arial, sans-serif; font-size: 12px; fill: rgb(42, 63, 95); fill-opacity: 1; white-space: pre;" transform="translate(692.63,0)">14</text></g><g class="x4tick"><text text-anchor="middle" x="0" y="833" style="font-family: 'Open Sans', verdana, arial, sans-serif; font-size: 12px; fill: rgb(42, 63, 95); fill-opacity: 1; white-space: pre;" transform="translate(780.15,0)">16</text></g><g class="x4tick"><text text-anchor="middle" x="0" y="833" style="font-family: 'Open Sans', verdana, arial, sans-serif; font-size: 12px; fill: rgb(42, 63, 95); fill-opacity: 1; white-space: pre;" transform="translate(867.67,0)">18</text></g></g><g class="yaxislayer-above"><g class="y4tick"><text text-anchor="end" x="79" y="4.199999999999999" transform="translate(0,814.01)" style="font-family: 'Open Sans', verdana, arial, sans-serif; font-size: 12px; fill: rgb(42, 63, 95); fill-opacity: 1; white-space: pre;">0</text></g><g class="y4tick"><text text-anchor="end" x="79" y="4.199999999999999" style="font-family: 'Open Sans', verdana, arial, sans-serif; font-size: 12px; fill: rgb(42, 63, 95); fill-opacity: 1; white-space: pre;" transform="translate(0,785.1800000000001)">1</text></g><g class="y4tick"><text text-anchor="end" x="79" y="4.199999999999999" style="font-family: 'Open Sans', verdana, arial, sans-serif; font-size: 12px; fill: rgb(42, 63, 95); fill-opacity: 1; white-space: pre;" transform="translate(0,756.35)">2</text></g><g class="y4tick"><text text-anchor="end" x="79" y="4.199999999999999" style="font-family: 'Open Sans', verdana, arial, sans-serif; font-size: 12px; fill: rgb(42, 63, 95); fill-opacity: 1; white-space: pre;" transform="translate(0,727.5300000000001)">3</text></g><g class="y4tick"><text text-anchor="end" x="79" y="4.199999999999999" style="font-family: 'Open Sans', verdana, arial, sans-serif; font-size: 12px; fill: rgb(42, 63, 95); fill-opacity: 1; white-space: pre;" transform="translate(0,698.7)">4</text></g></g><g class="overaxes-above"/></g></g><g class="polarlayer"/><g class="smithlayer"/><g class="ternarylayer"/><g class="geolayer"/><g class="funnelarealayer"/><g class="pielayer"/><g class="iciclelayer"/><g class="treemaplayer"/><g class="sunburstlayer"/><g class="glimages"/><defs id="topdefs-029275"><g class="clips"/><clipPath id="legend029275"><rect width="118" height="48" x="0" y="0"/></clipPath></defs><g class="layer-above"><g class="imagelayer"/><g class="shapelayer"/></g><g class="infolayer"><g class="legend" pointer-events="all" transform="translate(970.46,100)"><rect class="bg" shape-rendering="crispEdges" style="stroke: rgb(68, 68, 68); stroke-opacity: 1; fill: rgb(255, 255, 255); fill-opacity: 1; stroke-width: 0px;" width="118" height="48" x="0" y="0"/><g class="scrollbox" transform="" clip-path="url(#legend029275)"><g class="groups"><g class="traces" transform="translate(0,14.5)" style="opacity: 1;"><text class="legendtext" text-anchor="start" x="40" y="4.680000000000001" style="font-family: 'Open Sans', verdana, arial, sans-serif; font-size: 12px; fill: rgb(42, 63, 95); fill-opacity: 1; white-space: pre;">GT Vx_mps</text><g class="layers" style="opacity: 1;"><g class="legendfill"/><g class="legendlines"><path class="js-line" d="M5,0h30" style="fill: none; stroke: rgb(0, 0, 255); stroke-opacity: 1; stroke-width: 1.5px;"/></g><g class="legendsymbols"><g class="legendpoints"/></g></g><rect class="legendtoggle" x="0" y="-9.5" width="112.03125" height="19" style="fill: rgb(0, 0, 0); fill-opacity: 0;"/></g><g class="traces" transform="translate(0,33.5)" style="opacity: 1;"><text class="legendtext" text-anchor="start" x="40" y="4.680000000000001" style="font-family: 'Open Sans', verdana, arial, sans-serif; font-size: 12px; fill: rgb(42, 63, 95); fill-opacity: 1; white-space: pre;">Pred Vx_mps</text><g class="layers" style="opacity: 1;"><g class="legendfill"/><g class="legendlines"><path class="js-line" d="M5,0h30" style="fill: none; stroke: rgb(255, 0, 0); stroke-opacity: 1; stroke-dasharray: 9px, 9px; stroke-width: 1.5px;"/></g><g class="legendsymbols"><g class="legendpoints"/></g></g><rect class="legendtoggle" x="0" y="-9.5" width="112.03125" height="19" style="fill: rgb(0, 0, 0); fill-opacity: 0;"/></g></g></g><rect class="scrollbar" rx="20" ry="3" width="0" height="0" style="fill: rgb(128, 139, 164); fill-opacity: 1;" x="0" y="0"/></g><g class="g-gtitle"><text class="gtitle" x="55" y="50" text-anchor="start" dy="0em" style="opacity: 1; font-family: 'Open Sans', verdana, arial, sans-serif; font-size: 17px; fill: rgb(42, 63, 95); fill-opacity: 1; white-space: pre;">WAM v2 Dream: Velocity Prediction vs Ground Truth — Lap_2</text></g><g class="g-xtitle"/><g class="g-x2title"/><g class="g-x3title"/><g class="g-x4title"/><g class="g-ytitle"/><g class="g-y2title"/><g class="g-y3title"/><g class="g-y4title"/><g class="annotation" data-index="0" style="opacity: 1;"><g class="annotation-text-g" transform="rotate(0,516.5,89.5)"><g class="cursor-pointer" transform="translate(485,79)"><rect class="bg" x="0.5" y="0.5" width="63" height="20" style="stroke-width: 1px; stroke: rgb(0, 0, 0); stroke-opacity: 0; fill: rgb(0, 0, 0); fill-opacity: 0;"/><text class="annotation-text" text-anchor="middle" x="31.7734375" y="16" style="font-family: 'Open Sans', verdana, arial, sans-serif; font-size: 16px; fill: rgb(42, 63, 95); fill-opacity: 1; white-space: pre;">Vx (m/s)</text></g></g></g><g class="annotation" data-index="1" style="opacity: 1;"><g class="annotation-text-g" transform="rotate(0,516.5,283.9)"><g class="cursor-pointer" transform="translate(485,273)"><rect class="bg" x="0.5" y="0.5" width="62" height="20" style="stroke-width: 1px; stroke: rgb(0, 0, 0); stroke-opacity: 0; fill: rgb(0, 0, 0); fill-opacity: 0;"/><text class="annotation-text" text-anchor="middle" x="31.4765625" y="16" style="font-family: 'Open Sans', verdana, arial, sans-serif; font-size: 16px; fill: rgb(42, 63, 95); fill-opacity: 1; white-space: pre;">Vy (m/s)</text></g></g></g><g class="annotation" data-index="2" style="opacity: 1;"><g class="annotation-text-g" transform="rotate(0,516.5,478.3)"><g class="cursor-pointer" transform="translate(485,468)"><rect class="bg" x="0.5" y="0.5" width="63" height="20" style="stroke-width: 1px; stroke: rgb(0, 0, 0); stroke-opacity: 0; fill: rgb(0, 0, 0); fill-opacity: 0;"/><text class="annotation-text" text-anchor="middle" x="31.7734375" y="16" style="font-family: 'Open Sans', verdana, arial, sans-serif; font-size: 16px; fill: rgb(42, 63, 95); fill-opacity: 1; white-space: pre;">Vz (m/s)</text></g></g></g><g class="annotation" data-index="3" style="opacity: 1;"><g class="annotation-text-g" transform="rotate(0,516.5,672.7)"><g class="cursor-pointer" transform="translate(451,662)"><rect class="bg" x="0.5" y="0.5" width="130" height="20" style="stroke-width: 1px; stroke: rgb(0, 0, 0); stroke-opacity: 0; fill: rgb(0, 0, 0); fill-opacity: 0;"/><text class="annotation-text" text-anchor="middle" x="65.5703125" y="16" style="font-family: 'Open Sans', verdana, arial, sans-serif; font-size: 16px; fill: rgb(42, 63, 95); fill-opacity: 1; white-space: pre;">Speed Error (m/s)</text></g></g></g></g></svg>